<?xml version="1.0" encoding="utf-8"?>
<!-- Generator: Adobe Illustrator 20.1.0, SVG Export Plug-In . SVG Version: 6.00 Build 0)  -->
<svg version="1.1" xmlns="http://www.w3.org/2000/svg" xmlns:xlink="http://www.w3.org/1999/xlink" x="0px" y="0px"
	 viewBox="0 0 12 12" style="enable-background:new 0 0 12 12;" xml:space="preserve">
<style type="text/css">
	.st0{clip-path:url(#SVGID_4_);}
	.st1{fill:#201F23;}
	.st2{fill:url(#SVGID_5_);}
	.st3{fill:#DADBDC;}
	.st4{opacity:0.9;fill:#E9A230;}
	.st5{fill:#86BB42;}
	.st6{fill:#FFFFFF;}
	.st7{opacity:0.9;fill:#201F23;}
	.st8{opacity:0.7;fill:#201F23;}
	.st9{fill:url(#SVGID_6_);}
	.st10{fill:url(#SVGID_7_);}
	.st11{fill:url(#SVGID_8_);}
	.st12{fill:url(#SVGID_9_);}
	.st13{fill:url(#SVGID_10_);}
	.st14{fill:url(#SVGID_11_);}
	.st15{fill:none;stroke:#DADBDC;stroke-width:3;stroke-linecap:round;stroke-miterlimit:10;}
	.st16{opacity:0.4;fill:#FFFFFF;}
	.st17{fill:none;stroke:#B8B8B8;stroke-width:12;stroke-linejoin:round;stroke-miterlimit:10;}
	.st18{fill:none;stroke:#6A9542;stroke-width:14;stroke-miterlimit:10;}
	.st19{fill:none;stroke:#FFFFFF;stroke-width:12;stroke-linejoin:round;stroke-miterlimit:10;}
	.st20{fill:url(#SVGID_12_);}
	.st21{fill:#6AAE42;}
	.st22{fill:none;stroke:#FFFFFF;stroke-width:2.0274;stroke-miterlimit:10;stroke-dasharray:3.379;}
	.st23{fill:none;stroke:#FFFFFF;stroke-width:2.0274;stroke-miterlimit:10;stroke-dasharray:7;}
	.st24{fill:url(#SVGID_13_);}
	.st25{fill:#6A9542;}
	.st26{fill:#504F54;}
	.st27{fill:none;stroke:#B8B8B8;stroke-width:12;stroke-miterlimit:10;}
	.st28{fill:#E9A230;}
	.st29{fill:#2D2C30;}
	.st30{fill:#CDCFD0;}
	.st31{fill:#358F3A;}
	.st32{fill:#CDCECF;}
	.st33{fill:#4E883F;}
	.st34{fill:#58595B;}
	.st35{fill:#272A2D;}
	.st36{fill:url(#SVGID_14_);}
	.st37{fill:none;stroke:#FFFFFF;stroke-miterlimit:10;}
	.st38{fill:#EDDFAC;}
	.st39{fill:#CCC196;}
	.st40{fill:#BDBEC4;}
	.st41{fill:#A9A8AE;}
	.st42{fill:#D9DADB;}
	.st43{fill:none;stroke:#FFFFFF;stroke-width:2.0274;stroke-miterlimit:10;}
	.st44{fill:none;stroke:#FFFFFF;stroke-width:2.0274;stroke-miterlimit:10;stroke-dasharray:7.054,7.054;}
	.st45{fill:#CCCECF;}
	.st46{fill:#102D40;}
	.st47{fill:#264860;}
	.st48{clip-path:url(#SVGID_16_);}
	.st49{fill:#E7BC97;}
	.st50{fill:#E66D4A;}
	.st51{fill:#543E36;}
	.st52{fill:#C34628;}
	.st53{clip-path:url(#SVGID_18_);}
	.st54{fill:none;stroke:#FFFFFF;stroke-width:2.2466;stroke-miterlimit:10;stroke-dasharray:3.7443;}
	.st55{clip-path:url(#SVGID_20_);fill:#97AAB6;}
	.st56{clip-path:url(#SVGID_20_);}
	.st57{fill:#421800;}
	.st58{fill:#EBCBAF;}
	.st59{fill:#B34FC5;}
	.st60{fill:#E2E7ED;}
	.st61{opacity:0.5;clip-path:url(#SVGID_20_);fill:#EBCBAF;}
	.st62{clip-path:url(#SVGID_22_);fill:#3EA0BC;}
	.st63{clip-path:url(#SVGID_22_);}
	.st64{fill:#A07561;}
	.st65{fill:#141720;}
	.st66{clip-path:url(#SVGID_22_);fill:#FFFFFF;}
	.st67{opacity:0.5;clip-path:url(#SVGID_22_);fill:#E7BC97;}
	.st68{clip-path:url(#SVGID_24_);}
	.st69{fill:#C45D3F;}
	.st70{clip-path:url(#SVGID_24_);fill:#E7BC97;}
	.st71{clip-path:url(#SVGID_24_);fill:#C7D4E2;}
	.st72{clip-path:url(#SVGID_24_);fill:#543E36;}
	.st73{clip-path:url(#SVGID_24_);fill:#1A1A1A;}
	.st74{fill:#435363;}
	.st75{opacity:0.5;clip-path:url(#SVGID_24_);fill:#E7BC97;}
	.st76{clip-path:url(#SVGID_26_);fill:#97AAB6;}
	.st77{clip-path:url(#SVGID_26_);}
	.st78{opacity:0.5;clip-path:url(#SVGID_26_);fill:#EBCBAF;}
	.st79{clip-path:url(#SVGID_28_);fill:#3EA0BC;}
	.st80{clip-path:url(#SVGID_28_);}
	.st81{clip-path:url(#SVGID_28_);fill:#FFFFFF;}
	.st82{opacity:0.5;clip-path:url(#SVGID_28_);fill:#E7BC97;}
	.st83{clip-path:url(#SVGID_30_);}
	.st84{clip-path:url(#SVGID_30_);fill:#E7BC97;}
	.st85{clip-path:url(#SVGID_30_);fill:#C7D4E2;}
	.st86{clip-path:url(#SVGID_30_);fill:#543E36;}
	.st87{clip-path:url(#SVGID_30_);fill:#1A1A1A;}
	.st88{opacity:0.5;clip-path:url(#SVGID_30_);fill:#E7BC97;}
	.st89{clip-path:url(#SVGID_32_);fill:#006F34;}
	.st90{clip-path:url(#SVGID_32_);}
	.st91{fill:#B2CF33;}
	.st92{fill:#BC7E52;}
	.st93{fill:#AFB2B3;}
	.st94{fill:#898C8E;}
	.st95{fill:#D0D2D3;}
	.st96{fill:#787B7D;}
	.st97{fill:#B6B9BA;}
	.st98{fill:#909FA0;}
	.st99{clip-path:url(#SVGID_34_);fill:#006F34;}
	.st100{clip-path:url(#SVGID_34_);}
	.st101{fill:#BEC0C1;}
	.st102{fill:#313034;}
	.st103{fill:url(#SVGID_35_);}
	.st104{fill:#B8B8B8;}
	.st105{fill:#ABADAF;}
	.st106{fill:#BABCBD;}
	.st107{fill:#959799;}
	.st108{fill:#CECFD0;}
	.st109{fill:#5D5D5D;}
	.st110{fill:#B6B8BA;}
	.st111{fill:#909294;}
	.st112{fill:none;}
	.st113{fill-rule:evenodd;clip-rule:evenodd;fill:#CDCFD0;}
	.st114{fill-rule:evenodd;clip-rule:evenodd;fill:#FFFFFF;}
	.st115{fill:#626262;}
	.st116{fill:url(#SVGID_36_);}
	.st117{fill:url(#SVGID_37_);}
	.st118{fill:#F2F2F2;}
	.st119{fill:#231F20;}
	.st120{fill:url(#SVGID_38_);}
	.st121{fill:url(#SVGID_39_);}
	.st122{fill:url(#SVGID_40_);}
	.st123{fill:url(#SVGID_41_);}
	.st124{fill:url(#SVGID_42_);}
	.st125{fill:url(#SVGID_43_);}
	.st126{fill:url(#SVGID_44_);}
	.st127{fill:url(#SVGID_45_);}
	.st128{fill:url(#SVGID_46_);}
	.st129{fill:url(#SVGID_47_);}
	.st130{fill:url(#SVGID_48_);}
	.st131{fill:url(#SVGID_49_);}
	.st132{fill:url(#SVGID_50_);}
	.st133{fill:url(#SVGID_51_);}
	.st134{fill:url(#SVGID_52_);}
	.st135{fill:url(#SVGID_53_);}
	.st136{opacity:0.8;}
	.st137{opacity:0.8;fill:#F2F2F2;}
	.st138{clip-path:url(#SVGID_55_);}
	.st139{clip-path:url(#SVGID_57_);fill:#97AAB6;}
	.st140{clip-path:url(#SVGID_57_);}
	.st141{opacity:0.5;clip-path:url(#SVGID_57_);fill:#EBCBAF;}
	.st142{clip-path:url(#SVGID_59_);fill:#3EA0BC;}
	.st143{clip-path:url(#SVGID_59_);}
	.st144{clip-path:url(#SVGID_59_);fill:#FFFFFF;}
	.st145{opacity:0.5;clip-path:url(#SVGID_59_);fill:#E7BC97;}
	.st146{clip-path:url(#SVGID_61_);}
	.st147{clip-path:url(#SVGID_61_);fill:#E7BC97;}
	.st148{clip-path:url(#SVGID_61_);fill:#C7D4E2;}
	.st149{clip-path:url(#SVGID_61_);fill:#543E36;}
	.st150{clip-path:url(#SVGID_61_);fill:#1A1A1A;}
	.st151{opacity:0.5;clip-path:url(#SVGID_61_);fill:#E7BC97;}
	.st152{fill:none;stroke:#5D5D5D;stroke-width:3;stroke-linecap:round;stroke-miterlimit:10;}
	.st153{fill:none;stroke:#201F23;stroke-width:5;stroke-miterlimit:10;}
	.st154{fill:none;stroke:#201F23;stroke-width:4.2064;stroke-linecap:round;stroke-miterlimit:10;}
	.st155{fill:none;stroke:#201F23;stroke-miterlimit:10;}
	.st156{fill:#B8BABB;}
	.st157{fill:#97989B;}
	.st158{fill:#B8B9BB;}
	.st159{fill:#E1E1E2;}
	.st160{fill:#D0D0D1;}
	.st161{fill:#2E2D31;}
	.st162{fill:#1F1E21;}
	.st163{fill:#5D5C61;}
	.st164{fill:#4A4A4E;}
	.st165{fill:#87BC42;}
	.st166{opacity:0.6;}
	.st167{fill:#6A9642;}
	.st168{fill:#5F883B;}
	.st169{fill:none;stroke:#CECFD0;stroke-width:4;stroke-linecap:round;stroke-miterlimit:10;}
	.st170{fill:#DF9300;}
	.st171{fill:#EFE9BB;}
	.st172{fill:#FFC743;}
	.st173{fill:#DC9F70;}
	.st174{fill:none;stroke:#FFFFFF;stroke-width:4;stroke-linecap:round;stroke-miterlimit:10;}
	.st175{fill:none;stroke:#CECFD0;stroke-width:2.5756;stroke-linecap:round;stroke-miterlimit:10;}
	.st176{fill:none;stroke:#FFFFFF;stroke-width:2.5756;stroke-linecap:round;stroke-miterlimit:10;}
	.st177{fill:#BBBCBD;}
	.st178{fill:#9B9D9F;}
	.st179{fill:#B2B4B5;}
	.st180{fill:#282828;}
</style>
<g id="Fondo">
</g>
<g id="Diseño">
	<g>
		<polygon class="st102" points="2.6,1.5 2.6,2.2 3.8,2.2 3.8,1.5 6,1.5 6,3.6 3.8,3.6 2.6,3.6 1.1,3.6 1.1,1.5 		"/>
		<polygon class="st115" points="8.2,3.6 6,3.6 6,1.5 8,1.5 8,2.2 9.2,2.2 9.2,1.5 10.9,1.5 10.9,3.6 9.4,3.6 		"/>
		<rect x="7.8" y="8.2" class="st102" width="1.2" height="1.4"/>
		<rect x="7.8" y="6.8" class="st102" width="1.2" height="1.2"/>
		<rect x="7.8" y="5.2" class="st102" width="1.2" height="1.2"/>
		<rect x="2.8" y="8.2" class="st115" width="1.4" height="1.4"/>
		<rect x="2.8" y="6.8" class="st115" width="1.4" height="1.2"/>
		<rect x="4.6" y="5.2" class="st115" width="1.2" height="1.2"/>
		<rect x="4.6" y="8.2" class="st115" width="1.2" height="1.4"/>
		<polygon class="st102" points="6.2,9.8 7.4,9.8 7.8,9.8 9.2,9.8 9.2,8.3 9.2,7.9 9.2,6.7 9.2,6.3 9.2,4.8 7.8,4.8 7.4,4.8 
			6.2,4.8 6,4.8 6,3.6 8.2,3.6 9.4,3.6 10.9,3.6 10.9,11.3 6,11.3 6,9.8 		"/>
		<polygon class="st115" points="3.8,3.6 6,3.6 6,4.8 5.8,4.8 4.6,4.8 4.2,4.8 2.6,4.8 2.6,6.3 2.6,6.7 2.6,7.9 2.6,8.3 2.6,9.8 
			4.2,9.8 4.6,9.8 5.8,9.8 6,9.8 6,11.3 1.1,11.3 1.1,3.6 2.6,3.6 		"/>
		<rect x="2.8" y="5.2" class="st115" width="1.4" height="1.2"/>
		<rect x="6.2" y="5.2" class="st102" width="1.2" height="1.2"/>
		<rect x="6.2" y="8.2" class="st102" width="1.2" height="1.4"/>
		<rect x="6.2" y="6.8" class="st102" width="1.2" height="1.2"/>
		<path class="st30" d="M6.2,4.8H6v5.1h0.2h1.3h0.4h1.4V8.3V7.9V6.7V6.3V4.8H7.8H7.4H6.2z M7.8,8.2H9v1.4H7.8V8.2z M7.8,6.8H9V8H7.8
			V6.8z M7.8,5.2H9v1.2H7.8V5.2z M6.2,8.2h1.2v1.4H6.2V8.2z M6.2,6.8h1.2V8H6.2V6.8z M6.2,5.2h1.2v1.2H6.2V5.2z"/>
		<path class="st93" d="M6,9.8V4.8H5.8H4.6H4.2H2.6v1.5v0.4v1.3v0.4v1.5h1.6h0.4h1.3H6z M4.2,6.4H2.8V5.2h1.4V6.4z M4.2,8H2.8V6.8
			h1.4V8z M4.2,9.6H2.8V8.2h1.4V9.6z M5.8,6.4H4.6V5.2h1.2V6.4z M5.8,8H4.6V6.8h1.2V8z M5.8,9.6H4.6V8.2h1.2V9.6z"/>
		<polygon class="st110" points="8,2.2 8,1.5 8,0.7 9.2,0.7 9.2,1.5 9.2,2.2 		"/>
		<polygon class="st111" points="2.6,2.2 2.6,1.5 2.6,0.7 3.8,0.7 3.8,1.5 3.8,2.2 		"/>
		<rect x="4.6" y="6.8" class="st102" width="1.2" height="1.2"/>
	</g>
</g>
<g id="Iconos">
</g>
</svg>
