<svg xmlns="http://www.w3.org/2000/svg" viewBox="0 0 150 150"><defs><style>.cls-1{fill:#504f54;}.cls-2{fill:#313034;}.cls-3{fill:#b2b5b6;}.cls-4{fill:#d0d2d3;}.cls-5{fill:#fff;}.cls-6{fill:#b9bbbd;}.cls-7{fill:#939597;}</style></defs><title>anio</title><g id="INFO"><path class="cls-1" d="M3.12,76A70,70,0,0,0,73,146.28V5.72A70,70,0,0,0,3.12,76Z"/><path class="cls-2" d="M73.67,5.71H73V146.28h.67a70.29,70.29,0,1,0,0-140.57Z"/><polygon class="cls-3" points="101 41.49 101 46.49 91 46.49 91 41.49 73 41.49 73 56.49 90.61 56.49 100.55 56.49 112 56.49 112 41.49 101 41.49"/><polygon class="cls-4" points="56.55 56.49 73 56.49 73 41.49 57 41.49 57 46.49 47 46.49 47 41.49 35 41.49 35 56.49 46.61 56.49 56.55 56.49"/><rect class="cls-5" x="49" y="94.49" width="10" height="10"/><rect class="cls-5" x="49" y="82.49" width="10" height="10"/><rect class="cls-5" x="49" y="69.49" width="10" height="10"/><rect class="cls-4" x="88" y="94.49" width="10" height="10"/><rect class="cls-4" x="88" y="82.49" width="10" height="10"/><rect class="cls-4" x="75" y="69.49" width="10" height="10"/><rect class="cls-4" x="75" y="94.49" width="10" height="10"/><polygon class="cls-5" points="72.16 107.49 62.22 107.49 59.38 107.49 47 107.49 47 94.45 47 91.61 47 81.67 47 78.83 47 66.49 59.38 66.49 62.22 66.49 72.16 66.49 73 66.49 73 56.49 56.55 56.49 46.61 56.49 35 56.49 35 117.49 73 117.49 73 107.49 72.16 107.49"/><polygon class="cls-4" points="90.61 56.49 73 56.49 73 66.49 75 66.49 84.93 66.49 87.77 66.49 101 66.49 101 78.83 101 81.67 101 91.61 101 94.45 101 107.49 87.77 107.49 84.93 107.49 75 107.49 73 107.49 73 117.49 112 117.49 112 56.49 100.55 56.49 90.61 56.49"/><rect class="cls-4" x="88" y="69.49" width="10" height="10"/><rect class="cls-5" x="62" y="69.49" width="10" height="10"/><rect class="cls-5" x="62" y="94.49" width="10" height="10"/><rect class="cls-5" x="62" y="82.49" width="10" height="10"/><path class="cls-4" d="M62.22,66.49H47v41H73v-41H62.22Zm-3.22,38H49v-10H59Zm0-12H49v-10H59Zm0-13H49v-10H59Zm13,25H62v-10H72Zm0-12H62v-10H72Zm0-13H62v-10H72Z"/><path class="cls-3" d="M75,107.49h26v-41H73v41Zm13-38H98v10H88Zm0,13H98v10H88Zm0,12H98v10H88Zm-13-25H85v10H75Zm0,13H85v10H75Zm0,12H85v10H75Z"/><polygon class="cls-6" points="57 46.49 57 40.51 57 35.49 47 35.49 47 40.51 47 46.49 57 46.49"/><polygon class="cls-7" points="101 46.49 101 40.51 101 35.49 91 35.49 91 40.51 91 46.49 101 46.49"/><rect class="cls-2" x="75" y="82.49" width="10" height="10"/></g></svg>