<svg xmlns="http://www.w3.org/2000/svg" viewBox="0 0 150 150"><defs><style>.cls-1{fill:#504f54;}.cls-2{fill:#313034;}.cls-3{fill:#368ea8;}.cls-4{fill:#902d30;}.cls-5{fill:#f28147;}.cls-6{fill:#c6d92e;}</style></defs><title>color</title><g id="INFO"><path class="cls-1" d="M4.12,75A70,70,0,0,0,74,145.28V4.72A70,70,0,0,0,4.12,75Z"/><path class="cls-2" d="M74.9,4.71H74V145.28h.9a70.29,70.29,0,1,0,0-140.57Z"/><path class="cls-3" d="M111,75.49V52.33c0-7.31-5-12.84-12.27-12.84H74v36Z"/><path class="cls-4" d="M74,75.49v36H98.73C106,111.49,111,106,111,98.65V75.49Z"/><path class="cls-5" d="M74,39.49H50.2A12.87,12.87,0,0,0,37,52.33V75.49H74Z"/><path class="cls-6" d="M37,75.49V98.65a12.87,12.87,0,0,0,13.2,12.84H74v-36Z"/></g></svg>