<svg xmlns="http://www.w3.org/2000/svg" viewBox="0 0 150 150"><defs><style>.cls-1{fill:#504f54;}.cls-2{fill:#313034;}.cls-3{fill:none;}.cls-4{fill:#d0d2d3;}.cls-5{fill:#fff;}</style></defs><title>combustible </title><g id="INFO"><path class="cls-1" d="M4.12,75A70,70,0,0,0,74,145.28V4.72A70,70,0,0,0,4.12,75Z"/><path class="cls-2" d="M74.87,4.71H74V145.28h.87a70.29,70.29,0,1,0,0-140.57Z"/><path class="cls-3" d="M103.77,61.61a.49.49,0,0,0,.45.45l.23-5.22-1.59-.68c-.23.45-.45.91,0,1.36Z"/><rect class="cls-3" x="51" y="35.08" width="23" height="30"/><rect class="cls-3" x="74" y="35.08" width="18" height="30"/><path class="cls-3" d="M105.81,56.39l-.91,5.45,3.63-.91L106.94,55l-2.72-.23,1.36.91A.83.83,0,0,1,105.81,56.39Z"/><path class="cls-3" d="M116.25,76.82a6,6,0,0,0-1.13-1.36,16.53,16.53,0,0,0-1.82-2.37,21.64,21.64,0,0,1-3-6h-.23c-.23,0-.68-.12-.68-.35L109,65.56a.52.52,0,0,1,.45-.48h.23l-.45-1.73-5.22.83c-.91,0-1.81-.49-1.81-1.4l-.91-8.42c-.23,0-.63-.24-.63-.46L100,51.62v-.46l1.32-2.5c0-.23.32-.45.54-.45l-.86-.68c-.23-.23-.2-.45,0-.45l.24-.23-3.42-2.5A3.16,3.16,0,0,0,96,43.45v27a11.67,11.67,0,0,1,8.43,12,57.49,57.49,0,0,1-1,6.13c-.68,2.5-1.3,5-.85,7.49,1.13,7.72,8,7.26,10,7,5.67-.68,11.59-5.22,10.91-10A35.32,35.32,0,0,0,116.25,76.82Z"/><path class="cls-4" d="M125.33,92.93a36,36,0,0,0-7.72-17.25l-1.36-1.36a14.49,14.49,0,0,1-1.82-2,22.84,22.84,0,0,1-2.72-5.22c.23,0,.45-.45.45-.68L111.71,65c0-.23-.45-.45-.68-.45l-2.27-10,.91-1.13a.43.43,0,0,0,0-.68l-2.72-5.45c-.23-.23-.45-.46-.68-.23l-.68.41-2.5-1.41h-.23L99.23,43c-.45-.23-1.39-.54-1.84-.77L96,41.86V34.15c0-2.27-.86-4.07-3.13-4.07H74v5H92v30H74v55H96.5c3,0,4.74-2.34,4.74-5.29A5.48,5.48,0,0,0,96,109.5v-37a5.06,5.06,0,0,1,3.43,2,11,11,0,0,1,3.19,7.94,17.65,17.65,0,0,1-1,5.67,20.82,20.82,0,0,0-.85,8.4c1.13,6.58,5.7,8.85,10.24,8.85a6.33,6.33,0,0,0,2.06-.23C119.41,104.28,126.23,99.06,125.33,92.93ZM106.94,55l1.59,5.9-3.63.91.91-5.45a.83.83,0,0,0-.23-.68l-1.36-.91Zm-4.08,1.13,1.59.68-.23,5.22a.49.49,0,0,1-.45-.45l-.91-4.09C102.4,57.07,102.63,56.62,102.86,56.16Zm9.76,47c-2,.23-8.85.68-10-7-.45-2.5.23-5,.91-7.49a58.08,58.08,0,0,0,1.13-6.13,12.11,12.11,0,0,0-8.67-12v-27a3.18,3.18,0,0,1,1.84.91l3.19,2.5-.11.23c-.23,0-.17.23.06.45l.94.68c-.23,0-.62.23-.62.45l-1.3,2.5v.46l.63,2.27c0,.23.32.45.54.45l1,8.4c0,.91.93,1.36,1.84,1.36l5.23-.76.46,1.73h-.23c-.23,0-.45.31-.45.53l.45,1.19c0,.23.45.28.68.28h.23a21.64,21.64,0,0,0,3,6,16.23,16.23,0,0,1,1.82,2.32,6.08,6.08,0,0,1,1.13,1.39,35.39,35.39,0,0,1,7.26,16.35C124.19,97.91,118.29,102.46,112.62,103.14Z"/><path class="cls-5" d="M51,65.08v-30H74v-5H51.34A4.28,4.28,0,0,0,47,34.15V109.5a5,5,0,0,0-4.64,5.29,5.3,5.3,0,0,0,5.35,5.29H74v-55Z"/></g></svg>