<svg xmlns="http://www.w3.org/2000/svg" viewBox="0 0 150 150"><defs><style>.cls-1{fill:#504f54;}.cls-2{fill:#313034;}.cls-3{fill:none;}.cls-4{fill:#fff;}.cls-5{fill:#d0d2d3;}</style></defs><title>foto </title><g id="INFO"><path class="cls-1" d="M4.12,75A70,70,0,0,0,74,145.28V4.72A70,70,0,0,0,4.12,75Z"/><path class="cls-2" d="M75,4.71H74V145.28h1A70.29,70.29,0,1,0,75,4.71Z"/><path class="cls-3" d="M56.8,77.25a17.53,17.53,0,0,0,5.2,13A18.63,18.63,0,0,0,74,95.6V89a10.7,10.7,0,0,1-7.36-3.43,12.11,12.11,0,0,1-.05-16.71A10.82,10.82,0,0,1,74,65.46V58.89a18.63,18.63,0,0,0-12,5.36A17.53,17.53,0,0,0,56.8,77.25Z"/><path class="cls-3" d="M75,65.42a11.61,11.61,0,0,1,8.45,3.47,11.76,11.76,0,0,1,.08,16.71A11.81,11.81,0,0,1,75,89.07c-.27,0,0,0-1,0V95.6c1,0,.72,0,1,0A18.52,18.52,0,0,0,93.53,77.25a17.69,17.69,0,0,0-5.37-13A18.13,18.13,0,0,0,75,58.85c-.27,0,0,0-1,0v6.57C75,65.44,74.72,65.42,75,65.42Z"/><path class="cls-4" d="M62,90.24a17.62,17.62,0,0,1-5.3-13,17.57,17.57,0,0,1,5.25-13A18.75,18.75,0,0,1,74,58.89V37.49H64.68a7.58,7.58,0,0,0-4.25,1.63,8,8,0,0,0-2.85,3.63l-2.09,5.74H46.29a11,11,0,0,0-7.82,3A10.36,10.36,0,0,0,35,58.85V95.63a10.9,10.9,0,0,0,3.47,7.6,11.19,11.19,0,0,0,7.82,3.25H74V95.6A18.63,18.63,0,0,1,62,90.24Z"/><path class="cls-5" d="M111.22,51.5a9.4,9.4,0,0,0-7.13-3h-9.2L92.8,42.84a8.12,8.12,0,0,0-2.85-3.68,7.63,7.63,0,0,0-4.25-1.67H74v21.4c1,0,.72,0,1,0A18.52,18.52,0,0,1,93.53,77.25a17.69,17.69,0,0,1-5.37,13A18.13,18.13,0,0,1,75,95.64c-.27,0,0,0-1,0v10.89h30.09a9.64,9.64,0,0,0,7.13-3.25,10.26,10.26,0,0,0,2.78-7.6V58.85A9.7,9.7,0,0,0,111.22,51.5Z"/><path class="cls-4" d="M66.64,68.89a12.11,12.11,0,0,0-.05,16.71A10.81,10.81,0,0,0,74,89V65.46A10.71,10.71,0,0,0,66.64,68.89Z"/><path class="cls-5" d="M83.54,85.6a11.79,11.79,0,0,0,0-16.71A11.83,11.83,0,0,0,75,65.42c-.27,0,0,0-1,0V89c1,0,.72,0,1,0A11.84,11.84,0,0,0,83.54,85.6Z"/></g></svg>