<svg xmlns="http://www.w3.org/2000/svg" viewBox="0 0 150 150"><defs><style>.cls-1{fill:#504f54;}.cls-2{fill:#313034;}.cls-3{fill:none;}.cls-4{fill:#fff;}.cls-5{fill:#d0d2d3;}</style></defs><title>marca </title><g id="INFO"><path class="cls-1" d="M6.4,74.59a70,70,0,0,0,69.88,70.28V4.31A70,70,0,0,0,6.4,74.59Z"/><path class="cls-2" d="M76.95,4.3h-.67V144.87h.67a70.29,70.29,0,1,0,0-140.57Z"/><path class="cls-3" d="M52.06,50.06,45.07,67c-.83,2,.28,3.57,2.45,3.57H76.28v-24H57.51A6.22,6.22,0,0,0,52.06,50.06Z"/><rect class="cls-3" x="43.28" y="80.57" width="17" height="10" rx="1.97" ry="1.97"/><path class="cls-3" d="M106.5,70.57a2.46,2.46,0,0,0,2.45-3.65l-7-16.87a6.22,6.22,0,0,0-5.45-3.49H76.28v24Z"/><rect class="cls-3" x="92.28" y="80.57" width="17" height="10" rx="1.97" ry="1.97"/><polygon class="cls-3" points="69.16 33.26 68.71 45.66 71.92 45.2 72.22 37.12 75.13 45.57 76.28 45.57 76.28 41.52 73.3 32.81 69.16 33.26"/><path class="cls-3" d="M49.8,60.45s.09.09.1.07l.19-.23,2.56-3.21,3.07-3.84a6.44,6.44,0,0,0,1.37-2.1,3.33,3.33,0,0,0-5.18-3.61l-.22.19a3.19,3.19,0,0,0,.07-1.66A3,3,0,0,0,47.82,44a3.07,3.07,0,0,0-1.29.93l-.58.72-3,3.74c-.86,1.07-1.71,2.14-2.57,3.21l-.17.21.12.1,1,.8,3.78,3,3.73,3Zm-3.64-7-1.55-1.24L44,51.71s.2-.26.22-.28q1.44-1.82,2.9-3.62A2.28,2.28,0,0,1,48,47a1.38,1.38,0,0,1,1.87,1.61,3.08,3.08,0,0,1-.65,1l-1.53,1.9Zm4.25-1.62,1.19-1.49a1.46,1.46,0,0,1,1.12-.62,1.39,1.39,0,0,1,1.3.81,1.43,1.43,0,0,1-.2,1.44l-1,1.23-2.7,3.37,0,0L50,56.47l-.73-.59-1.27-1Z"/><polygon class="cls-3" points="112.13 52.51 105.67 55.47 110.26 49.44 108.25 46.94 101.37 50.09 105.67 44.45 103.37 42.31 95.92 52.1 98.22 54.23 106.39 50.48 100.94 57.64 102.53 60.35 113.71 55.21 112.13 52.51"/><polygon class="cls-3" points="77.43 45.57 80.33 37.12 80.64 45.3 83.86 45.71 83.4 33.28 79.27 32.82 76.28 41.53 76.28 41.52 76.28 45.57 77.43 45.57"/><path class="cls-3" d="M48.73,74.59a27.55,27.55,0,0,0,27.55,27.55V74.57H50.13A27.07,27.07,0,0,1,76.28,48.43V47A27.55,27.55,0,0,0,48.73,74.59Z"/><path class="cls-3" d="M76.28,74.57h26.16a27.09,27.09,0,0,1-26.16,26.17v1.83h0c15.22,0,27.55-12.79,27.55-28s-12.33-28-27.55-28h0v28Z"/><path class="cls-3" d="M31.4,74.59a44.94,44.94,0,0,0,44.88,44.88v-.8a44.08,44.08,0,1,1,0-88.15v-.8A44.93,44.93,0,0,0,31.4,74.59Z"/><path class="cls-3" d="M76.28,30.57a44,44,0,1,1,0,88h0v1h0a45,45,0,0,0,0-90h0v1Z"/><path class="cls-4" d="M31.4,74.59A44.93,44.93,0,0,1,76.28,29.71V28.43a46.16,46.16,0,1,0,0,92.32v-1.27A44.94,44.94,0,0,1,31.4,74.59Z"/><path class="cls-5" d="M76.28,28.57h0v1h0a45,45,0,0,1,0,90h0v1h0a46,46,0,1,0,0-92Z"/><path class="cls-4" d="M50,56.47l.14.11,0,0,2.7-3.37,1-1.23A1.43,1.43,0,0,0,54,50.5a1.39,1.39,0,0,0-1.3-.81,1.46,1.46,0,0,0-1.12.62L50.41,51.8,48,54.86l1.27,1Z"/><path class="cls-4" d="M48.73,74.59A27.55,27.55,0,0,1,76.28,47V45.57H75.13l-2.91-8.45-.31,8.17-3.21.41.45-12.42,4.13-.47,3,8.7v-11a44.08,44.08,0,1,0,0,88.15V102.14A27.55,27.55,0,0,1,48.73,74.59Zm-7.4-20.91-1-.8-.12-.1.17-.21c.86-1.08,1.71-2.15,2.57-3.21l3-3.74.58-.72A3.07,3.07,0,0,1,47.82,44a3,3,0,0,1,3.94,2.1,3.19,3.19,0,0,1-.07,1.66l.22-.19a3.33,3.33,0,0,1,5.18,3.61,6.44,6.44,0,0,1-1.37,2.1l-3.07,3.84-2.56,3.21-.19.23s-.08-.06-.1-.07l-1-.76-3.73-3Z"/><path class="cls-5" d="M120.36,74.57a44,44,0,0,0-44.08-44h0V41.52h0l3-8.72,4.13.46.46,12.4-3.21-.46-.31-8.08-2.9,8.45H76.28v1h0c15.22,0,27.55,12.79,27.55,28s-12.33,28-27.55,28h0v16h0A44,44,0,0,0,120.36,74.57ZM102.53,60.35l-1.58-2.71,5.45-7.16-8.18,3.75L95.92,52.1l7.45-9.79,2.3,2.13-4.3,5.64,6.88-3.16,2,2.51-4.59,6,6.45-3,1.58,2.71Z"/><path class="cls-4" d="M49.87,48.6A1.38,1.38,0,0,0,48,47a2.28,2.28,0,0,0-.87.82q-1.46,1.81-2.9,3.62s-.22.27-.22.28l.59.47,1.55,1.24,1.53-1.91,1.53-1.9A3.08,3.08,0,0,0,49.87,48.6Z"/><path class="cls-4" d="M50.13,74.57H76.28V48.43A27.07,27.07,0,0,0,50.13,74.57Z"/><path class="cls-5" d="M102.44,74.57H76.28v26.17A27.09,27.09,0,0,0,102.44,74.57Z"/></g></svg>