<svg xmlns="http://www.w3.org/2000/svg" viewBox="0 0 150 150"><defs><style>.cls-1{fill:#504f54;}.cls-2{fill:#313034;}.cls-3{fill:none;}.cls-4{fill:#d0d2d3;}.cls-5{fill:#fff;}</style></defs><title>modelo</title><g id="INFO"><path class="cls-1" d="M4.12,75A70,70,0,0,0,74,145.28V4.72A70,70,0,0,0,4.12,75Z"/><path class="cls-2" d="M74.9,4.71H74V145.28h.9a70.29,70.29,0,1,0,0-140.57Z"/><path class="cls-3" d="M50.25,50.47l-7,16.94c-.83,2,.28,3.57,2.45,3.57H74V47H55.69A6.22,6.22,0,0,0,50.25,50.47Z"/><rect class="cls-3" x="41" y="80.98" width="17" height="10" rx="1.97" ry="1.97"/><path class="cls-3" d="M104.68,71a2.46,2.46,0,0,0,2.45-3.65l-7-16.87A6.22,6.22,0,0,0,94.69,47H74V71Z"/><rect class="cls-3" x="90" y="80.98" width="17" height="10" rx="1.97" ry="1.97"/><path class="cls-4" d="M115.69,58.75a3,3,0,0,0-1,.17l-4.22,1.2L106,49a10.44,10.44,0,0,0-9-6H74v4H94.69a6.22,6.22,0,0,1,5.45,3.49l7,16.94c.82,2-.28,3.57-2.45,3.57H74v29h27v5.84c0,2.72,3.11,5.16,5.83,5.16h5.93c2.72,0,4.24-2.44,4.24-5.16V83.46a37,37,0,0,0-2-11.83L114.72,70h.38c2.72,0,3.9-2.11,3.9-4.83V62.77C119,60.44,117.91,58.75,115.69,58.75ZM107,89a2,2,0,0,1-2,2H92a2,2,0,0,1-2-2V83a2,2,0,0,1,2-2H105a2,2,0,0,1,2,2Z"/><path class="cls-5" d="M44.7,71c-2.17,0-3.27-1.32-2.45-3.33l7-17A6.37,6.37,0,0,1,54.69,47H74V43H52.45a10.72,10.72,0,0,0-9.08,6.2l-4.6,11.24-4.29-1.16A6.21,6.21,0,0,0,33,59.11a4,4,0,0,0-4,4v2.38C29,68.25,31.63,70,34.35,70h.32l-.5,1.84a38.28,38.28,0,0,0-2.17,12v22.36A4.56,4.56,0,0,0,36.62,111h5.93c2.72,0,4.44-2.07,4.44-4.79V100H74V71ZM57,89.47C57,90.56,57,91,55.87,91h-13C41.77,91,40,90.56,40,89.47V82.92C40,81.83,41.77,81,42.86,81h13C57,81,57,81.83,57,82.92Z"/></g></svg>