<svg xmlns="http://www.w3.org/2000/svg" viewBox="0 0 150 150"><defs><style>.cls-1{fill:#504f54;}.cls-2{fill:#313034;}.cls-3{fill:#7f8283;}.cls-4{fill:#d0d2d3;}.cls-5{fill:#fff;}.cls-6{fill:#b0b3b4;}</style></defs><title>motor </title><g id="INFO"><path class="cls-1" d="M4.12,75A70,70,0,0,0,74,145.28V4.72A70,70,0,0,0,4.12,75Z"/><path class="cls-2" d="M74.9,4.71H74V145.28h.9a70.29,70.29,0,1,0,0-140.57Z"/><path class="cls-3" d="M120.92,91.62V57.15a7.66,7.66,0,0,0-7.66-7.66v57.44a7.66,7.66,0,0,0,7.66-7.66h9.57V91.62Z"/><path class="cls-4" d="M29,64.81V99.27a7.66,7.66,0,0,0,7.66,7.66V49.49A7.66,7.66,0,0,0,29,57.15H19.44v7.66Z"/><path class="cls-5" d="M19.44,72.47a1.91,1.91,0,0,1-1.91-1.92V51.41a1.91,1.91,0,1,1,3.83,0V70.55a1.91,1.91,0,0,1-1.91,1.92"/><path class="cls-4" d="M130.49,106.93a1.91,1.91,0,0,1-1.91-1.91V85.87a1.91,1.91,0,0,1,3.83,0V105a1.91,1.91,0,0,1-1.91,1.91"/><path class="cls-5" d="M46.24,99.49A2.41,2.41,0,0,1,44,97.36V95.44a2,2,0,0,1,2-1.9,2,2,0,0,1,2,1.93v0H74v-6H46.24c-1.06,0-2.24-.65-2.24-1.71V85.87a2.23,2.23,0,0,1,2.08-2.1,2,2,0,0,1,2.08,1.72H74v-5H46.24A2.56,2.56,0,0,1,44,78.21V76.3a2,2,0,0,1,2.08-1.82,2.19,2.19,0,0,1,2.08,2H74v-6H46.24A2.17,2.17,0,0,1,44,68.64V66.72a2.16,2.16,0,0,1,2.08-2,2,2,0,0,1,2.08,1.8H74v-6H46.24c-1.06,0-2.24-.37-2.24-1.43V57.15a1.92,1.92,0,0,1,2.08-1.75,2.26,2.26,0,0,1,2.08,2.09H74v-8H36v57H74v-7Z"/><path class="cls-4" d="M113,49.49H74v8h29.68c1.06,0,1.32.51,1.32,1.57V61a1.48,1.48,0,0,1-1.62,1.67c-1.06,0-1.62-.16-1.62-2.16H74v6h29.68c1.06,0,1.32,1.09,1.32,2.15v1.91c0,1.06-.56,1.88-1.62,1.88a1.74,1.74,0,0,1-1.62-1.95H74v6h29.68c1.06,0,1.32.66,1.32,1.72v1.91c0,1.06-.56,2.1-1.62,2.1a1.56,1.56,0,0,1-1.62-1.73H74v5h29.68c1.06,0,1.32,1.23,1.32,2.29V89.7a1.59,1.59,0,0,1-1.62,1.81,1.81,1.81,0,0,1-1.62-2H74v6h29.68c1.06,0,1.32.81,1.32,1.87v1.91c0,1.06-.56,2-1.62,2a1.62,1.62,0,0,1-1.62-1.81H74v7h39Z"/><path class="cls-6" d="M101.77,60.49c0,2,.56,2.16,1.62,2.16A1.48,1.48,0,0,0,105,61V59.07c0-1.06-.26-1.57-1.32-1.57H74v3Z"/><path class="cls-4" d="M46.08,55.41A1.92,1.92,0,0,0,44,57.15v1.91c0,1.06,1.18,1.43,2.24,1.43H74v-3H48.16A2.26,2.26,0,0,0,46.08,55.41Z"/><path class="cls-6" d="M101.77,99.49a1.62,1.62,0,0,0,1.62,1.81c1.06,0,1.62-1,1.62-2V97.36c0-1.06-.26-1.87-1.32-1.87H74v4Z"/><path class="cls-4" d="M48,95.47a2,2,0,0,0-2-1.93,2,2,0,0,0-2,1.9v1.92a2.41,2.41,0,0,0,2.24,2.13H74v-4H48Z"/><path class="cls-4" d="M46.08,83.77A2.23,2.23,0,0,0,44,85.87v1.92c0,1.06,1.18,1.71,2.24,1.71H74v-4H48.16A2,2,0,0,0,46.08,83.77Z"/><path class="cls-6" d="M101.77,89.49a1.81,1.81,0,0,0,1.62,2A1.59,1.59,0,0,0,105,89.7V87.79c0-1.06-.26-2.29-1.32-2.29H74v4Z"/><path class="cls-6" d="M101.77,80.49a1.56,1.56,0,0,0,1.62,1.73c1.06,0,1.62-1,1.62-2.1V78.21c0-1.06-.26-1.72-1.32-1.72H74v4Z"/><path class="cls-4" d="M46.08,74.48A2,2,0,0,0,44,76.3v1.92a2.56,2.56,0,0,0,2.24,2.28H74v-4H48.16A2.19,2.19,0,0,0,46.08,74.48Z"/><path class="cls-6" d="M101.77,70.49a1.74,1.74,0,0,0,1.62,1.95c1.06,0,1.62-.83,1.62-1.88V68.64c0-1.06-.26-2.15-1.32-2.15H74v4Z"/><path class="cls-4" d="M46.08,64.69a2.16,2.16,0,0,0-2.08,2v1.92a2.17,2.17,0,0,0,2.24,1.85H74v-4H48.16A2,2,0,0,0,46.08,64.69Z"/></g></svg>