<svg xmlns="http://www.w3.org/2000/svg" viewBox="0 0 150 150"><defs><style>.cls-1{fill:#504f54;}.cls-2{fill:#313034;}.cls-3{fill:#d6d8d7;}.cls-4{fill:#d0d2d3;}.cls-5{fill:#fff;}.cls-6{fill:#b2b5b6;}.cls-7{fill:#8d9090;}</style></defs><title>placa </title><g id="INFO"><path class="cls-1" d="M4.12,75A70,70,0,0,0,74,145.28V4.72A70,70,0,0,0,4.12,75Z"/><path class="cls-2" d="M74.67,4.71H74V145.28h.67a70.29,70.29,0,1,0,0-140.57Z"/><path class="cls-3" d="M27.59,96C25.06,96,23,94.44,23,91.9V59.08C23,56.55,25.06,54,27.59,54H74V51H24.93C22.21,51,20,53.7,20,56.42V95.57c0,2.72,2.21,4.43,4.93,4.43H74V96Z"/><path class="cls-4" d="M123.07,51H74v3h45.41c2.54,0,4.59,2.55,4.59,5.08V91.9c0,2.53-2.06,4.1-4.59,4.1H74v4h49.07c2.72,0,4.93-1.71,4.93-4.43V56.42C128,53.7,125.79,51,123.07,51Z"/><path class="cls-5" d="M71.92,71.4a2.7,2.7,0,0,0,.17,1,2.55,2.55,0,0,0,.5.83,2.61,2.61,0,0,0,.8.59A2.26,2.26,0,0,0,74,74V68.83a2.52,2.52,0,0,0-1.33.68A2.49,2.49,0,0,0,71.92,71.4Z"/><path class="cls-6" d="M99.27,73.77a2.49,2.49,0,0,0,1.11.23,2.66,2.66,0,0,0,1.13-.22,2.44,2.44,0,0,0,.8-.58,2.39,2.39,0,0,0,.49-.83,2.94,2.94,0,0,0,.16-1,2.58,2.58,0,0,0-.71-1.87,2.49,2.49,0,0,0-1.87-.73,2.55,2.55,0,0,0-1.83.72,2.49,2.49,0,0,0-.76,1.88,2.7,2.7,0,0,0,.17,1,2.56,2.56,0,0,0,.5.83A2.61,2.61,0,0,0,99.27,73.77Z"/><path class="cls-6" d="M86.33,73.77a2.49,2.49,0,0,0,1.1.23,2.66,2.66,0,0,0,1.13-.22,2.44,2.44,0,0,0,.8-.58,2.41,2.41,0,0,0,.49-.83,3,3,0,0,0,.16-1,2.58,2.58,0,0,0-.71-1.87,2.49,2.49,0,0,0-1.87-.73,2.55,2.55,0,0,0-1.83.72,2.49,2.49,0,0,0-.76,1.88,2.69,2.69,0,0,0,.17,1,2.55,2.55,0,0,0,.5.83A2.59,2.59,0,0,0,86.33,73.77Z"/><path class="cls-6" d="M98.17,81.25a3.1,3.1,0,0,0,1,.59,3.45,3.45,0,0,0,1.2.21,3.11,3.11,0,0,0,2.27-.85,2.93,2.93,0,0,0,.87-2.2,3.32,3.32,0,0,0-.24-1.32,2.66,2.66,0,0,0-.67-1,2.94,2.94,0,0,0-1-.58,3.73,3.73,0,0,0-1.22-.2,3.21,3.21,0,0,0-2.26.87A2.88,2.88,0,0,0,97.23,79a3.12,3.12,0,0,0,.26,1.29A2.78,2.78,0,0,0,98.17,81.25Z"/><path class="cls-6" d="M74.5,74a2.66,2.66,0,0,0,1.13-.22,2.43,2.43,0,0,0,.8-.58,2.4,2.4,0,0,0,.49-.83,3,3,0,0,0,.16-1,2.58,2.58,0,0,0-.71-1.87,2.49,2.49,0,0,0-1.87-.73,2.87,2.87,0,0,0-.5,0V74A2.9,2.9,0,0,0,74.5,74Z"/><path class="cls-5" d="M71.36,79a3.12,3.12,0,0,0,.26,1.29,2.77,2.77,0,0,0,.69,1,3.1,3.1,0,0,0,1,.59A3.34,3.34,0,0,0,74,82V76a3.09,3.09,0,0,0-1.76.82A2.88,2.88,0,0,0,71.36,79Z"/><path class="cls-6" d="M74.5,82.05a3.11,3.11,0,0,0,2.27-.85,2.93,2.93,0,0,0,.87-2.2,3.32,3.32,0,0,0-.24-1.32,2.66,2.66,0,0,0-.67-1,2.93,2.93,0,0,0-1-.58A3.73,3.73,0,0,0,74.5,76a4.1,4.1,0,0,0-.5,0v6A3.52,3.52,0,0,0,74.5,82.05Z"/><path class="cls-6" d="M85.24,81.25a3.1,3.1,0,0,0,1,.59,3.45,3.45,0,0,0,1.2.21,3.11,3.11,0,0,0,2.27-.85,2.93,2.93,0,0,0,.87-2.2,3.32,3.32,0,0,0-.24-1.32,2.67,2.67,0,0,0-.67-1,2.93,2.93,0,0,0-1-.58,3.73,3.73,0,0,0-1.22-.2,3.21,3.21,0,0,0-2.26.87A2.88,2.88,0,0,0,84.29,79a3.12,3.12,0,0,0,.26,1.29A2.78,2.78,0,0,0,85.24,81.25Z"/><path class="cls-5" d="M59.37,81.25a3.1,3.1,0,0,0,1,.59,3.45,3.45,0,0,0,1.2.21,3.11,3.11,0,0,0,2.27-.85,2.93,2.93,0,0,0,.87-2.2,3.33,3.33,0,0,0-.24-1.32,2.67,2.67,0,0,0-.67-1,2.93,2.93,0,0,0-1-.58,3.73,3.73,0,0,0-1.22-.2,3.21,3.21,0,0,0-2.26.87A2.89,2.89,0,0,0,58.42,79a3.12,3.12,0,0,0,.26,1.29A2.78,2.78,0,0,0,59.37,81.25Z"/><path class="cls-5" d="M47.52,73.77a2.49,2.49,0,0,0,1.11.23,2.66,2.66,0,0,0,1.13-.22,2.43,2.43,0,0,0,.8-.58,2.4,2.4,0,0,0,.49-.83,3,3,0,0,0,.16-1,2.58,2.58,0,0,0-.71-1.87,2.49,2.49,0,0,0-1.87-.73,2.55,2.55,0,0,0-1.83.72A2.49,2.49,0,0,0,46,71.4a2.7,2.7,0,0,0,.17,1,2.56,2.56,0,0,0,.5.83A2.6,2.6,0,0,0,47.52,73.77Z"/><path class="cls-5" d="M23,59.08V91.9c0,2.53,2.06,4.1,4.59,4.1H74V84a6.43,6.43,0,0,1-1.61-.3,4.85,4.85,0,0,1-1.71-1,4.69,4.69,0,0,1-1.14-1.58A5.05,5.05,0,0,1,69.13,79a4,4,0,0,1,.24-1.42A4.26,4.26,0,0,1,70,76.41a3.42,3.42,0,0,1,.86-.88C71.27,75.29,72,75.1,72,75v-.07c0-.08-.49-.22-.8-.42a3.08,3.08,0,0,1-.76-.77,3.9,3.9,0,0,1-.56-1.13,4.6,4.6,0,0,1-.22-1.52,3.68,3.68,0,0,1,.39-1.69,3.93,3.93,0,0,1,1.05-1.29,4.88,4.88,0,0,1,1.54-.83A5.76,5.76,0,0,1,74,67V54H27.59C25.06,54,23,56.55,23,59.08ZM56.43,77.59a4.26,4.26,0,0,1,.66-1.17,3.32,3.32,0,0,1,.82-.88C58.3,75.29,59,75.1,59,75v-.07c0-.08-.46-.22-.77-.42a3,3,0,0,1-.74-.77,3.88,3.88,0,0,1-.55-1.13,4.61,4.61,0,0,1-.21-1.52,3.69,3.69,0,0,1,.39-1.69,3.94,3.94,0,0,1,1.05-1.29,4.88,4.88,0,0,1,1.54-.83,6,6,0,0,1,3.7,0,4.87,4.87,0,0,1,1.54.83,3.92,3.92,0,0,1,1,1.29,3.68,3.68,0,0,1,.38,1.69,4.61,4.61,0,0,1-.23,1.52,4,4,0,0,1-.59,1.13,3,3,0,0,1-.72.77c-.31.2-.83.34-.83.42V75c0,.12.76.31,1.14.55a3.77,3.77,0,0,1,.94.88,4.2,4.2,0,0,1,.64,1.17A4,4,0,0,1,67,79a5,5,0,0,1-.42,2.09,4.72,4.72,0,0,1-1.14,1.58,4.87,4.87,0,0,1-1.71,1,6.75,6.75,0,0,1-4.21,0,4.87,4.87,0,0,1-1.71-1,4.7,4.7,0,0,1-1.14-1.58A5,5,0,0,1,56.19,79,4,4,0,0,1,56.43,77.59Zm-12.94,0a4.26,4.26,0,0,1,.66-1.17,3.22,3.22,0,0,1,.79-.88c.38-.24,1-.42,1-.55v-.07c0-.08-.42-.22-.73-.42a3,3,0,0,1-.73-.77A3.9,3.9,0,0,1,44,72.6a4.61,4.61,0,0,1-.21-1.52,3.68,3.68,0,0,1,.4-1.69,3.94,3.94,0,0,1,1.05-1.29,4.89,4.89,0,0,1,1.54-.83,6,6,0,0,1,3.7,0,4.88,4.88,0,0,1,1.54.83,3.92,3.92,0,0,1,1,1.29,3.68,3.68,0,0,1,.38,1.69,4.6,4.6,0,0,1-.23,1.52,4,4,0,0,1-.59,1.13,3.1,3.1,0,0,1-.76.77c-.31.2-.86.34-.86.42V75c0,.12.79.31,1.18.55a3.84,3.84,0,0,1,1,.88,4.22,4.22,0,0,1,.65,1.17A4,4,0,0,1,54,79a5,5,0,0,1-.42,2.09,4.71,4.71,0,0,1-1.14,1.58,4.87,4.87,0,0,1-1.71,1,6.75,6.75,0,0,1-4.21,0,4.86,4.86,0,0,1-1.71-1,4.69,4.69,0,0,1-1.14-1.58A5,5,0,0,1,43.25,79,4,4,0,0,1,43.5,77.59Z"/><path class="cls-5" d="M46.43,81.25a3.1,3.1,0,0,0,1,.59,3.44,3.44,0,0,0,1.2.21,3.11,3.11,0,0,0,2.27-.85,2.93,2.93,0,0,0,.87-2.2,3.32,3.32,0,0,0-.24-1.32,2.66,2.66,0,0,0-.67-1,2.93,2.93,0,0,0-1-.58,3.73,3.73,0,0,0-1.22-.2,3.21,3.21,0,0,0-2.26.87A2.88,2.88,0,0,0,45.49,79a3.12,3.12,0,0,0,.26,1.29A2.78,2.78,0,0,0,46.43,81.25Z"/><path class="cls-5" d="M60.46,73.77a2.49,2.49,0,0,0,1.1.23,2.66,2.66,0,0,0,1.13-.22,2.44,2.44,0,0,0,.8-.58,2.4,2.4,0,0,0,.49-.83,3,3,0,0,0,.16-1,2.58,2.58,0,0,0-.71-1.87,2.49,2.49,0,0,0-1.87-.73,2.55,2.55,0,0,0-1.83.72A2.49,2.49,0,0,0,59,71.4a2.7,2.7,0,0,0,.17,1,2.54,2.54,0,0,0,.5.83A2.59,2.59,0,0,0,60.46,73.77Z"/><path class="cls-6" d="M74.5,67a5.82,5.82,0,0,1,1.85.29,4.87,4.87,0,0,1,1.54.83,3.92,3.92,0,0,1,1,1.29,3.67,3.67,0,0,1,.38,1.69,4.6,4.6,0,0,1-.23,1.52,4,4,0,0,1-.59,1.13,2.88,2.88,0,0,1-.69.77c-.31.2-.8.34-.8.42V75c0,.12.73.31,1.11.55a3.7,3.7,0,0,1,.92.88,4.18,4.18,0,0,1,.63,1.17A4,4,0,0,1,79.89,79a5,5,0,0,1-.43,2.09,4.72,4.72,0,0,1-1.14,1.58,4.88,4.88,0,0,1-1.71,1A6.52,6.52,0,0,1,74.5,84c-.17,0-.33,0-.5,0V96h45.41c2.54,0,4.59-1.56,4.59-4.1V59.08c0-2.53-2.06-5.08-4.59-5.08H74V67C74.17,67,74.33,67,74.5,67ZM95.24,77.59a4.24,4.24,0,0,1,.66-1.17,3.7,3.7,0,0,1,.92-.88C97.2,75.29,98,75.1,98,75v-.07c0-.08-.55-.22-.86-.42a3.2,3.2,0,0,1-.79-.77,3.91,3.91,0,0,1-.58-1.13,4.6,4.6,0,0,1-.22-1.52,3.68,3.68,0,0,1,.39-1.69,3.93,3.93,0,0,1,1-1.29,4.87,4.87,0,0,1,1.54-.83,6,6,0,0,1,3.7,0,4.87,4.87,0,0,1,1.54.83,3.92,3.92,0,0,1,1,1.29,3.67,3.67,0,0,1,.38,1.69A4.6,4.6,0,0,1,105,72.6a4,4,0,0,1-.59,1.13c-.24.31-.32.57-.63.77s-.73.34-.73.42V75c0,.12.67.31,1,.55a3.57,3.57,0,0,1,.89.88,4.14,4.14,0,0,1,.61,1.17,4,4,0,0,1,.22,1.42,5.06,5.06,0,0,1-.43,2.09,4.73,4.73,0,0,1-1.15,1.58,4.88,4.88,0,0,1-1.71,1,6.75,6.75,0,0,1-4.21,0,4.86,4.86,0,0,1-1.71-1,4.7,4.7,0,0,1-1.14-1.58A5,5,0,0,1,95,79,4,4,0,0,1,95.24,77.59Zm-12.94,0A4.26,4.26,0,0,1,83,76.41a3.57,3.57,0,0,1,.89-.88C84.24,75.29,85,75.1,85,75v-.07c0-.08-.52-.22-.83-.42a3.15,3.15,0,0,1-.78-.77,3.92,3.92,0,0,1-.57-1.13,4.62,4.62,0,0,1-.22-1.52A3.68,3.68,0,0,1,83,69.38,3.93,3.93,0,0,1,84,68.09a4.87,4.87,0,0,1,1.54-.83,6,6,0,0,1,3.7,0,4.87,4.87,0,0,1,1.54.83,3.92,3.92,0,0,1,1,1.29,3.68,3.68,0,0,1,.38,1.69A4.59,4.59,0,0,1,92,72.6a4,4,0,0,1-.59,1.13,2.78,2.78,0,0,1-.66.77c-.31.2-.77.34-.77.42V75c0,.12.7.31,1.08.55a3.64,3.64,0,0,1,.91.88,4.14,4.14,0,0,1,.62,1.17A4,4,0,0,1,92.83,79a5,5,0,0,1-.43,2.09,4.72,4.72,0,0,1-1.15,1.58,4.87,4.87,0,0,1-1.71,1,6.75,6.75,0,0,1-4.21,0,4.87,4.87,0,0,1-1.71-1,4.7,4.7,0,0,1-1.14-1.58A5,5,0,0,1,82.06,79,4,4,0,0,1,82.31,77.59Z"/><path class="cls-3" d="M44.81,82.68a4.85,4.85,0,0,0,1.71,1,6.75,6.75,0,0,0,4.21,0,4.86,4.86,0,0,0,1.71-1,4.7,4.7,0,0,0,1.14-1.58A5,5,0,0,0,54,79a4,4,0,0,0-.24-1.42,4.26,4.26,0,0,0-.66-1.17,3.69,3.69,0,0,0-.92-.88C51.79,75.29,51,75.1,51,75v-.07c0-.08.55-.22.86-.42a3.22,3.22,0,0,0,.79-.77,3.94,3.94,0,0,0,.58-1.13,4.6,4.6,0,0,0,.22-1.52,3.68,3.68,0,0,0-.39-1.69,3.93,3.93,0,0,0-1-1.29,4.87,4.87,0,0,0-1.54-.83,6,6,0,0,0-3.7,0,4.87,4.87,0,0,0-1.54.83,3.93,3.93,0,0,0-1,1.29,3.68,3.68,0,0,0-.38,1.69A4.59,4.59,0,0,0,44,72.6a4,4,0,0,0,.59,1.13c.24.31.32.57.63.77s.73.34.73.42V75c0,.12-.67.31-1,.55a3.59,3.59,0,0,0-.89.88,4.15,4.15,0,0,0-.61,1.17A4,4,0,0,0,43.23,79a5.06,5.06,0,0,0,.43,2.09A4.72,4.72,0,0,0,44.81,82.68Zm1.41-10.33a2.7,2.7,0,0,1-.17-1,2.49,2.49,0,0,1,.76-1.88,2.55,2.55,0,0,1,1.83-.72,2.49,2.49,0,0,1,1.87.73,2.58,2.58,0,0,1,.71,1.87,3,3,0,0,1-.16,1,2.4,2.4,0,0,1-.49.83,2.43,2.43,0,0,1-.8.58,2.66,2.66,0,0,1-1.13.22,2.49,2.49,0,0,1-1.11-.23,2.6,2.6,0,0,1-.8-.59A2.56,2.56,0,0,1,46.22,72.35Zm.15,4.48A3.21,3.21,0,0,1,48.63,76a3.73,3.73,0,0,1,1.22.2,2.93,2.93,0,0,1,1,.58,2.66,2.66,0,0,1,.67,1A3.32,3.32,0,0,1,51.77,79a2.93,2.93,0,0,1-.87,2.2,3.11,3.11,0,0,1-2.27.85,3.44,3.44,0,0,1-1.2-.21,3.1,3.1,0,0,1-1-.59,2.78,2.78,0,0,1-.69-1A3.12,3.12,0,0,1,45.49,79,2.88,2.88,0,0,1,46.37,76.83Z"/><path class="cls-3" d="M57.75,82.68a4.86,4.86,0,0,0,1.71,1,6.75,6.75,0,0,0,4.21,0,4.87,4.87,0,0,0,1.71-1,4.7,4.7,0,0,0,1.14-1.58A5,5,0,0,0,66.94,79a4,4,0,0,0-.24-1.42A4.26,4.26,0,0,0,66,76.41a3.57,3.57,0,0,0-.89-.88C64.76,75.29,64,75.1,64,75v-.07c0-.08.52-.22.83-.42a3.16,3.16,0,0,0,.78-.77,3.93,3.93,0,0,0,.57-1.13,4.61,4.61,0,0,0,.22-1.52A3.67,3.67,0,0,0,66,69.38,3.92,3.92,0,0,0,65,68.09a4.87,4.87,0,0,0-1.54-.83,6,6,0,0,0-3.7,0,4.87,4.87,0,0,0-1.54.83,3.93,3.93,0,0,0-1,1.29,3.67,3.67,0,0,0-.38,1.69A4.6,4.6,0,0,0,57,72.6a3.94,3.94,0,0,0,.59,1.13,2.76,2.76,0,0,0,.66.77c.31.2.77.34.77.42V75c0,.12-.7.31-1.08.55a3.64,3.64,0,0,0-.91.88,4.14,4.14,0,0,0-.62,1.17A4,4,0,0,0,56.17,79a5.05,5.05,0,0,0,.43,2.09A4.73,4.73,0,0,0,57.75,82.68Zm1.41-10.33a2.7,2.7,0,0,1-.17-1,2.49,2.49,0,0,1,.76-1.88,2.55,2.55,0,0,1,1.83-.72,2.49,2.49,0,0,1,1.87.73,2.58,2.58,0,0,1,.71,1.87,3,3,0,0,1-.16,1,2.4,2.4,0,0,1-.49.83,2.44,2.44,0,0,1-.8.58,2.66,2.66,0,0,1-1.13.22,2.49,2.49,0,0,1-1.1-.23,2.59,2.59,0,0,1-.8-.59A2.54,2.54,0,0,1,59.16,72.35Zm.15,4.48A3.21,3.21,0,0,1,61.56,76a3.73,3.73,0,0,1,1.22.2,2.93,2.93,0,0,1,1,.58,2.67,2.67,0,0,1,.67,1A3.33,3.33,0,0,1,64.71,79a2.93,2.93,0,0,1-.87,2.2,3.11,3.11,0,0,1-2.27.85,3.45,3.45,0,0,1-1.2-.21,3.1,3.1,0,0,1-1-.59,2.78,2.78,0,0,1-.69-1A3.12,3.12,0,0,1,58.42,79,2.89,2.89,0,0,1,59.31,76.83Z"/><path class="cls-3" d="M73.3,81.84a3.1,3.1,0,0,1-1-.59,2.77,2.77,0,0,1-.69-1A3.12,3.12,0,0,1,71.36,79a2.88,2.88,0,0,1,.88-2.18A3.09,3.09,0,0,1,74,76V74a2.26,2.26,0,0,1-.61-.18,2.61,2.61,0,0,1-.8-.59,2.55,2.55,0,0,1-.5-.83,2.7,2.7,0,0,1-.17-1,2.49,2.49,0,0,1,.76-1.88A2.52,2.52,0,0,1,74,68.83V67a5.74,5.74,0,0,0-1.35.25,4.86,4.86,0,0,0-1.54.83,3.93,3.93,0,0,0-1,1.29,3.67,3.67,0,0,0-.38,1.69,4.59,4.59,0,0,0,.23,1.52,4,4,0,0,0,.59,1.13,2.86,2.86,0,0,0,.69.77c.31.2.8.34.8.42V75c0,.12-.73.31-1.11.55a3.69,3.69,0,0,0-.92.88,4.16,4.16,0,0,0-.63,1.17A4,4,0,0,0,69.11,79a5,5,0,0,0,.43,2.09,4.71,4.71,0,0,0,1.14,1.58,4.87,4.87,0,0,0,1.71,1A6.45,6.45,0,0,0,74,84V82A3.34,3.34,0,0,1,73.3,81.84Z"/><path class="cls-7" d="M76.61,83.67a4.86,4.86,0,0,0,1.71-1,4.7,4.7,0,0,0,1.14-1.58A5,5,0,0,0,79.87,79a4,4,0,0,0-.24-1.42A4.27,4.27,0,0,0,79,76.41a3.44,3.44,0,0,0-.86-.88C77.73,75.29,77,75.1,77,75v-.07c0-.08.49-.22.8-.42a3.1,3.1,0,0,0,.76-.77,3.93,3.93,0,0,0,.56-1.13,4.62,4.62,0,0,0,.22-1.52,3.68,3.68,0,0,0-.39-1.69,3.93,3.93,0,0,0-1.05-1.29,4.88,4.88,0,0,0-1.54-.83A5.83,5.83,0,0,0,74.5,67c-.17,0-.33,0-.5,0v1.82a2.87,2.87,0,0,1,.5,0,2.49,2.49,0,0,1,1.87.73,2.58,2.58,0,0,1,.71,1.87,3,3,0,0,1-.16,1,2.4,2.4,0,0,1-.49.83,2.43,2.43,0,0,1-.8.58A2.66,2.66,0,0,1,74.5,74a2.9,2.9,0,0,1-.5,0V76a4.1,4.1,0,0,1,.5,0,3.73,3.73,0,0,1,1.22.2,2.93,2.93,0,0,1,1,.58,2.66,2.66,0,0,1,.67,1A3.32,3.32,0,0,1,77.64,79a2.93,2.93,0,0,1-.87,2.2,3.11,3.11,0,0,1-2.27.85,3.52,3.52,0,0,1-.5,0v2c.17,0,.33,0,.5,0A6.51,6.51,0,0,0,76.61,83.67Z"/><path class="cls-7" d="M83.62,82.68a4.86,4.86,0,0,0,1.71,1,6.75,6.75,0,0,0,4.21,0,4.86,4.86,0,0,0,1.71-1,4.7,4.7,0,0,0,1.14-1.58A5,5,0,0,0,92.81,79a4,4,0,0,0-.24-1.42,4.26,4.26,0,0,0-.66-1.17,3.33,3.33,0,0,0-.82-.88C90.7,75.29,90,75.1,90,75v-.07c0-.08.46-.22.77-.42a3,3,0,0,0,.74-.77,3.93,3.93,0,0,0,.55-1.13,4.62,4.62,0,0,0,.21-1.52,3.68,3.68,0,0,0-.39-1.69,3.94,3.94,0,0,0-1.05-1.29,4.88,4.88,0,0,0-1.54-.83,6,6,0,0,0-3.7,0,4.87,4.87,0,0,0-1.54.83,3.93,3.93,0,0,0-1,1.29,3.67,3.67,0,0,0-.38,1.69,4.61,4.61,0,0,0,.23,1.52,3.94,3.94,0,0,0,.59,1.13,3,3,0,0,0,.72.77c.31.2.83.34.83.42V75c0,.12-.76.31-1.14.55a3.78,3.78,0,0,0-.94.88,4.18,4.18,0,0,0-.64,1.17A4,4,0,0,0,82,79a5.05,5.05,0,0,0,.42,2.09A4.72,4.72,0,0,0,83.62,82.68ZM85,72.35a2.69,2.69,0,0,1-.17-1,2.49,2.49,0,0,1,.76-1.88,2.55,2.55,0,0,1,1.83-.72,2.49,2.49,0,0,1,1.87.73A2.58,2.58,0,0,1,90,71.4a3,3,0,0,1-.16,1,2.41,2.41,0,0,1-.49.83,2.44,2.44,0,0,1-.8.58,2.66,2.66,0,0,1-1.13.22,2.49,2.49,0,0,1-1.1-.23,2.59,2.59,0,0,1-.8-.59A2.55,2.55,0,0,1,85,72.35Zm.15,4.48A3.21,3.21,0,0,1,87.44,76a3.73,3.73,0,0,1,1.22.2,2.93,2.93,0,0,1,1,.58,2.67,2.67,0,0,1,.67,1A3.32,3.32,0,0,1,90.58,79a2.93,2.93,0,0,1-.87,2.2,3.11,3.11,0,0,1-2.27.85,3.45,3.45,0,0,1-1.2-.21,3.1,3.1,0,0,1-1-.59,2.78,2.78,0,0,1-.69-1A3.12,3.12,0,0,1,84.29,79,2.88,2.88,0,0,1,85.18,76.83Z"/><path class="cls-7" d="M96.56,82.68a4.86,4.86,0,0,0,1.71,1,6.75,6.75,0,0,0,4.21,0,4.86,4.86,0,0,0,1.71-1,4.71,4.71,0,0,0,1.14-1.58,5.05,5.05,0,0,0,.42-2.09,4,4,0,0,0-.24-1.42,4.26,4.26,0,0,0-.66-1.17,3.21,3.21,0,0,0-.79-.88c-.38-.24-1-.42-1-.55v-.07c0-.08.42-.22.73-.42a3,3,0,0,0,.73-.77A3.91,3.91,0,0,0,105,72.6a4.61,4.61,0,0,0,.21-1.52,3.68,3.68,0,0,0-.4-1.69,3.94,3.94,0,0,0-1.05-1.29,4.89,4.89,0,0,0-1.54-.83,6,6,0,0,0-3.7,0,4.86,4.86,0,0,0-1.54.83,3.93,3.93,0,0,0-1,1.29,3.68,3.68,0,0,0-.38,1.69,4.59,4.59,0,0,0,.23,1.52,4,4,0,0,0,.59,1.13,3.08,3.08,0,0,0,.76.77c.31.2.86.34.86.42V75c0,.12-.8.31-1.18.55a3.84,3.84,0,0,0-1,.88,4.21,4.21,0,0,0-.65,1.17A4,4,0,0,0,95,79a5,5,0,0,0,.42,2.09A4.71,4.71,0,0,0,96.56,82.68ZM98,72.35a2.7,2.7,0,0,1-.17-1,2.49,2.49,0,0,1,.76-1.88,2.55,2.55,0,0,1,1.83-.72,2.49,2.49,0,0,1,1.87.73A2.58,2.58,0,0,1,103,71.4a2.94,2.94,0,0,1-.16,1,2.39,2.39,0,0,1-.49.83,2.44,2.44,0,0,1-.8.58,2.66,2.66,0,0,1-1.13.22,2.49,2.49,0,0,1-1.11-.23,2.61,2.61,0,0,1-.8-.59A2.56,2.56,0,0,1,98,72.35Zm.15,4.48a3.21,3.21,0,0,1,2.26-.87,3.73,3.73,0,0,1,1.22.2,2.94,2.94,0,0,1,1,.58,2.66,2.66,0,0,1,.67,1,3.32,3.32,0,0,1,.24,1.32,2.93,2.93,0,0,1-.87,2.2,3.11,3.11,0,0,1-2.27.85,3.45,3.45,0,0,1-1.2-.21,3.1,3.1,0,0,1-1-.59,2.78,2.78,0,0,1-.69-1A3.12,3.12,0,0,1,97.23,79,2.88,2.88,0,0,1,98.12,76.83Z"/><rect class="cls-3" x="40" y="57" width="13" height="4"/><rect class="cls-3" x="40" y="89" width="13" height="4"/><rect class="cls-4" x="95" y="57" width="13" height="4"/><rect class="cls-4" x="95" y="89" width="13" height="4"/></g></svg>