<svg xmlns="http://www.w3.org/2000/svg" viewBox="0 0 150 150"><defs><style>.cls-1{fill:#504f54;}.cls-2{fill:#313034;}.cls-3{fill:#d0d2d3;}.cls-3,.cls-4{fill-rule:evenodd;}.cls-4{fill:#fff;}</style></defs><title>plazas </title><g id="INFO"><path class="cls-1" d="M4.12,75A70,70,0,0,0,74,145.28V4.72A70,70,0,0,0,4.12,75Z"/><path class="cls-2" d="M74.9,4.71H74V145.28h.9a70.29,70.29,0,1,0,0-140.57Z"/><g id="Zvdz8U.tif"><path class="cls-3" d="M74.46,24.48H84a5.48,5.48,0,0,1,3.55,3.58,42,42,0,0,1,1.52,5.73c.29,1.48-.58,2.36-2.15,2.4-1.19,0-2.37,0-3.62,0v3c.86,0,1.71,0,2.55,0a25.07,25.07,0,0,1,3.56.25,7.41,7.41,0,0,1,5.37,4.18,76,76,0,0,1,7.6,24.76,173.49,173.49,0,0,1,1.43,23.34,9,9,0,0,1-7.48,9,10.8,10.8,0,0,1-2.72-.25C95.94,96.37,95,92.14,95,88a114,114,0,0,0-1.56-17.53,70.68,70.68,0,0,0-4.34-15.12,6.67,6.67,0,0,0-6.84-4.51c-2.59,0-5.19,0-7.78,0m0-14.63H68.6v2.85h5.86m0-14.66H64.91a5.67,5.67,0,0,0-3.63,3.75,37.05,37.05,0,0,0-1.35,4.93c-.45,2.19.3,3,2.5,3.05H65.6v3c-1.47,0-2.88,0-4.28,0a7.85,7.85,0,0,0-7.43,4.91c-.2.45-.37.9-.6,1.34A71.33,71.33,0,0,0,46.58,68a166.49,166.49,0,0,0-1.48,23.61,9.07,9.07,0,0,0,6.75,9,4.09,4.09,0,0,0,3.36-.41A10.93,10.93,0,0,1,53.84,94,166.65,166.65,0,0,1,55,74a72.23,72.23,0,0,1,4.83-18.58,6.65,6.65,0,0,1,6.81-4.56l7.83,0m0-14.63V24.48m0,14.66H80.3V36.28H74.46m0,14.63V39.13"/><path class="cls-3" d="M74.45,53.89l8.07,0a3.67,3.67,0,0,1,3.71,2.45A67,67,0,0,1,90.6,72a151.6,151.6,0,0,1,1.49,23.15A6.61,6.61,0,0,1,91,98.88a1,1,0,0,1-1.23.5,67.83,67.83,0,0,0-15.32-1.76"/><path class="cls-4" d="M74.46,97.62q-2,0-4,.16c-3.77.29-7.51.94-11.25,1.52-.72.11-1.17,0-1.39-.62a11.46,11.46,0,0,1-.93-3.11c-.14-2.29,0-4.59,0-6.88A143.23,143.23,0,0,1,58.49,71a67.49,67.49,0,0,1,4.15-14.51,3.81,3.81,0,0,1,3.9-2.59q4,0,7.91,0"/><path class="cls-3" d="M74.45,100.89a47.15,47.15,0,0,1,14.35,2.29,36,36,0,0,0,9.77,2,8.15,8.15,0,0,0,7.08-3.36,29.75,29.75,0,0,0,2.56-4.53,5.1,5.1,0,0,1,4.8-2.15c1.7.35,2.59,1.59,2.56,3.6A28.22,28.22,0,0,1,113,111.16c-1.67,3.35-4,6-7.8,7a10.92,10.92,0,0,1-2.72.32q-14,0-28,0"/><path class="cls-4" d="M74.46,118.5c-9.18,0-18.37-.06-27.55,0a11,11,0,0,1-9.68-5.14,23,23,0,0,1-3.71-11.29,35.13,35.13,0,0,1-.17-3.76,3.15,3.15,0,0,1,4.09-3.19c1.63.38,3,1.05,3.6,2.85a12.34,12.34,0,0,0,1.39,2.68,9,9,0,0,0,9.37,4.39,66.75,66.75,0,0,0,10.41-2.5,45.45,45.45,0,0,1,12.22-1.69"/></g><g id="Zvdz8U.tif-2" data-name="Zvdz8U.tif"><path class="cls-4" d="M74.46,36.28H68.6v2.85h5.86V50.89H66.62a6.65,6.65,0,0,0-6.81,4.56A72.23,72.23,0,0,0,55,74a166.65,166.65,0,0,0-1.15,20,10.93,10.93,0,0,0,1.37,6.2,4.09,4.09,0,0,1-3.36.41,9.07,9.07,0,0,1-6.75-9A166.49,166.49,0,0,1,46.58,68a71.33,71.33,0,0,1,6.72-22.56c.22-.43.4-.89.6-1.34a7.85,7.85,0,0,1,7.43-4.91c1.4-.05,2.81,0,4.28,0v-3H62.44c-2.2,0-3-.87-2.5-3.05a37.05,37.05,0,0,1,1.35-4.93,5.67,5.67,0,0,1,3.63-3.75h9.54Z"/></g></g></svg>