<svg xmlns="http://www.w3.org/2000/svg" viewBox="0 0 150 150"><defs><style>.cls-1{fill:#504f54;}.cls-2{fill:#313034;}.cls-3{fill:#d0d2d3;}.cls-4{fill:#afb1b3;}.cls-5{fill:#fff;}.cls-6{fill:#bec0c1;}.cls-7{fill:#999b9d;}</style></defs><title>provincia </title><g id="INFO"><path class="cls-1" d="M4.37,75a70,70,0,0,0,69.88,70.28V4.72A70,70,0,0,0,4.37,75Z"/><path class="cls-2" d="M75,4.71h-.78V145.28H75A70.29,70.29,0,1,0,75,4.71Z"/><polygon class="cls-3" points="60.82 108.49 30.13 118.72 30.13 45.41 60.82 35.18 60.82 108.49"/><polygon class="cls-4" points="118.79 105.08 89.81 120.43 89.81 50.52 118.79 35.18 118.79 105.08"/><circle class="cls-5" cx="47.18" cy="55.64" r="6.82"/><path class="cls-5" d="M83.7,90.58a1.7,1.7,0,1,1,.65-3.35,24,24,0,0,0,5.46.45V50.52l-29-15.34V83.31a32.34,32.34,0,0,1,3.27-.24h0a1.7,1.7,0,0,1,0,3.41,29.05,29.05,0,0,0-3.34.26v21.75l29,11.93V91.1l-.72,0A28.36,28.36,0,0,1,83.7,90.58Zm-4.62-3a1.71,1.71,0,0,1-1.57,1,1.68,1.68,0,0,1-.66-.13c-.61-.25-1-.46-1.28-.57-1.68-.43-3.33-.76-4.91-1a1.71,1.71,0,1,1,.52-3.37c1.74.27,3.56.64,5.41,1.12a1.81,1.81,0,0,1,.35.13s.47.24,1.22.55A1.71,1.71,0,0,1,79.08,87.59Z"/><path class="cls-6" d="M57,84a1.71,1.71,0,0,0,.44,3.35,1.8,1.8,0,0,0,.44-.06,25.12,25.12,0,0,1,3-.59V83.31A28.58,28.58,0,0,0,57,84Z"/><path class="cls-6" d="M50.26,86.91a23.68,23.68,0,0,0-5.52,4.81,1.7,1.7,0,0,0,2.61,2.2,20.16,20.16,0,0,1,4.72-4.12,1.71,1.71,0,0,0-1.81-2.89Z"/><path class="cls-6" d="M43.14,97a1.71,1.71,0,0,0-2.26.83,27.23,27.23,0,0,0-2.2,7,1.7,1.7,0,0,0,1.46,1.92l.24,0a1.71,1.71,0,0,0,1.69-1.47,24.13,24.13,0,0,1,1.92-6A1.71,1.71,0,0,0,43.14,97Z"/><path class="cls-7" d="M110.38,57.21a1.75,1.75,0,0,0-1.74-1.67A1.71,1.71,0,0,0,107,57.27q0,.89,0,1.74c0,1.71-.05,3.36-.15,4.93a1.71,1.71,0,0,0,1.59,1.81h.11a1.7,1.7,0,0,0,1.7-1.6c.11-1.64.16-3.37.16-5.15Q110.4,58.12,110.38,57.21Z"/><path class="cls-7" d="M108,69.13a1.72,1.72,0,0,0-2,1.36,34.73,34.73,0,0,1-1.74,6.25A1.7,1.7,0,1,0,107.48,78a38.19,38.19,0,0,0,1.91-6.86A1.71,1.71,0,0,0,108,69.13Z"/><path class="cls-7" d="M101.23,82.2a14.33,14.33,0,0,1-4.66,3.85,1.71,1.71,0,0,0,1.55,3,17.77,17.77,0,0,0,5.77-4.75,1.71,1.71,0,0,0-2.66-2.14Z"/><path class="cls-7" d="M90.68,87.66c-.29,0-.58,0-.87,0V91.1c.38,0,.75,0,1.14,0a1.7,1.7,0,0,0-.26-3.4Z"/><path class="cls-3" d="M78.16,85.36c-.75-.32-1.19-.53-1.22-.55a1.65,1.65,0,0,0-.35-.13c-1.85-.47-3.67-.85-5.41-1.12a1.7,1.7,0,1,0-.52,3.37c1.58.24,3.23.58,4.91,1,.23.11.66.32,1.27.57a1.71,1.71,0,0,0,1.31-3.15Z"/><path class="cls-3" d="M84.35,87.24a1.7,1.7,0,1,0-.65,3.35,28.34,28.34,0,0,0,5.39.54l.72,0V87.69A24,24,0,0,1,84.35,87.24Z"/><path class="cls-3" d="M65.84,84.73a1.71,1.71,0,0,0-1.7-1.67h0a32.57,32.57,0,0,0-3.27.24v3.43a29.31,29.31,0,0,1,3.34-.26A1.7,1.7,0,0,0,65.84,84.73Z"/></g></svg>