<svg xmlns="http://www.w3.org/2000/svg" viewBox="0 0 150 150"><defs><style>.cls-1{fill:#504f54;}.cls-2{fill:#313034;}.cls-3{fill:#d0d2d3;}.cls-3,.cls-4{fill-rule:evenodd;}.cls-4{fill:#fff;}</style></defs><title>puertas</title><g id="INFO"><path class="cls-1" d="M4.12,75A70,70,0,0,0,74,145.28V4.72A70,70,0,0,0,4.12,75Z"/><path class="cls-2" d="M74.63,4.71H74V145.28h.63a70.29,70.29,0,1,0,0-140.57Z"/><g id="nIyoPq"><path class="cls-3" d="M113.31,75.27q0,20,0,40.06c0,5.07-.85,5.9-6,5.9-12.45,0-24.9-.1-37.35,0-5.42.06-9.19-2-11.91-6.76C53.27,106.07,47,98.86,38.63,93.64a13.06,13.06,0,0,1-6.08-9.42c-1.31-8.49-2.34-17-3.61-25.53-.57-3.8.7-6.48,3.86-8.66q11.45-7.9,22.68-16.12A25.08,25.08,0,0,1,70.3,28.75c12.89-.11,25.79.11,38.69.25,3.33,0,4.36,2.09,4.34,5.19C113.27,47.88,113.31,61.58,113.31,75.27ZM74.67,71c9.16,0,18.32,0,27.48,0,4.09,0,6.12-1.94,6.16-6q.14-12.38,0-24.76c0-4.24-2.09-6.16-6.36-6.19-7.12,0-14.25.11-21.37,0C67.37,33.85,56.32,39,47.24,48.19a33.79,33.79,0,0,0-7.56,11.74C37.32,66.38,41.26,71,48.21,71,57,71,65.85,71,74.67,71ZM58.83,83.78c2.7,0,5.41.06,8.11,0,.68,0,1.77-.49,1.9-1a2.77,2.77,0,0,0-.52-2.4,6.61,6.61,0,0,0-3.48-1.69c-3.93-.21-7.88-.17-11.82,0A5.1,5.1,0,0,0,50,80a3.2,3.2,0,0,0-1,2.58c.17.6,1.54,1.14,2.4,1.2C53.86,83.88,56.35,83.78,58.83,83.78Zm6.25,33v.7h44.36v-.7Z"/></g><g id="nIyoPq-2" data-name="nIyoPq"><path class="cls-4" d="M74.4,116.8H65.08v.7H74.4v3.74l-4.39,0c-5.42.06-9.19-2-11.91-6.76C53.27,106.07,47,98.86,38.63,93.63a13.06,13.06,0,0,1-6.08-9.42c-1.31-8.49-2.34-17-3.61-25.53-.57-3.8.7-6.48,3.86-8.67q11.45-7.9,22.68-16.12A25.08,25.08,0,0,1,70.3,28.74l4.09,0,.07,5.67c-10.52,1.25-19.6,6.08-27.23,13.8a33.79,33.79,0,0,0-7.56,11.74C37.32,66.38,41.26,71,48.21,71H74.4M58.83,83.77c2.7,0,5.41.06,8.11,0,.68,0,1.77-.49,1.9-1a2.77,2.77,0,0,0-.52-2.4,6.61,6.61,0,0,0-3.48-1.69c-3.93-.21-7.88-.17-11.82,0a5.1,5.1,0,0,0-3,1.3,3.2,3.2,0,0,0-1,2.58c.17.6,1.54,1.14,2.4,1.2C53.86,83.88,56.35,83.78,58.83,83.77Z"/></g></g></svg>