<svg xmlns="http://www.w3.org/2000/svg" viewBox="0 0 150 150"><defs><style>.cls-1{fill:#504f54;}.cls-2{fill:#313034;}.cls-3{fill:#b2b5b6;}.cls-4{fill:#d0d2d3;}.cls-5{fill:#fff;}.cls-6{fill:#b9bbbd;}.cls-7{fill:#939597;}</style></defs><title>rtv</title><g id="INFO"><path class="cls-1" d="M4.12,74.51A70,70,0,0,0,74,144.79V4.23A70,70,0,0,0,4.12,74.51Z"/><path class="cls-2" d="M74.9,4.22H74V144.79h.9a70.29,70.29,0,1,0,0-140.57Z"/><polygon class="cls-3" points="102 40 102 45 92 45 92 40 74 40 74 55 92.07 55 102.01 55 113 55 113 40 102 40"/><polygon class="cls-4" points="58.01 55 74 55 74 40 58 40 58 45 48 45 48 40 36 40 36 55 48.08 55 58.01 55"/><rect class="cls-5" x="50" y="93" width="10" height="10"/><rect class="cls-5" x="50" y="81" width="10" height="10"/><rect class="cls-5" x="50" y="68" width="10" height="10"/><rect class="cls-4" x="89" y="93" width="10" height="10"/><rect class="cls-4" x="89" y="81" width="10" height="10"/><rect class="cls-4" x="76" y="68" width="10" height="10"/><rect class="cls-4" x="76" y="93" width="10" height="10"/><polygon class="cls-5" points="73.62 106 63.69 106 60.85 106 48 106 48 92.96 48 90.12 48 80.19 48 77.35 48 65 60.85 65 63.69 65 73.62 65 74 65 74 55 58.01 55 48.08 55 36 55 36 116 74 116 74 106 73.62 106"/><polygon class="cls-4" points="92.07 55 74 55 74 65 76.46 65 86.4 65 89.23 65 102 65 102 77.35 102 80.19 102 90.12 102 92.96 102 106 89.23 106 86.4 106 76.46 106 74 106 74 116 113 116 113 55 102.01 55 92.07 55"/><rect class="cls-4" x="89" y="68" width="10" height="10"/><rect class="cls-5" x="63" y="68" width="10" height="10"/><rect class="cls-5" x="63" y="93" width="10" height="10"/><rect class="cls-5" x="63" y="81" width="10" height="10"/><path class="cls-4" d="M63.69,65H48v41H74V65H63.69ZM60,103H50V93H60Zm0-12H50V81H60Zm0-13H50V68H60Zm13,25H63V93H73Zm0-12H63V81H73Zm0-13H63V68H73Z"/><path class="cls-3" d="M76.46,106H102V65H74v41ZM89,68H99V78H89Zm0,13H99V91H89Zm0,12H99v10H89ZM76,68H86V78H76Zm0,13H86V91H76Zm0,12H86v10H76Z"/><polygon class="cls-6" points="58 45 58 39.02 58 34 48 34 48 39.02 48 45 58 45"/><polygon class="cls-7" points="102 45 102 39.02 102 34 92 34 92 39.02 92 45 102 45"/><rect class="cls-2" x="76" y="81" width="10" height="10"/></g></svg>