<svg xmlns="http://www.w3.org/2000/svg" viewBox="0 0 150 150"><defs><style>.cls-1{fill:#504f54;}.cls-2{fill:#313034;}.cls-3{fill:#d0d2d3;}.cls-4{fill:#fff;}</style></defs><title>transmision</title><g id="INFO"><path class="cls-1" d="M4.44,75.49a70,70,0,0,0,69.88,70.28V5.21A70,70,0,0,0,4.44,75.49Z"/><path class="cls-2" d="M75.06,5.21h-.74V145.77h.74a70.29,70.29,0,1,0,0-140.57Z"/><path class="cls-3" d="M95.68,104.71a6.08,6.08,0,0,0-4.28-9.62,6.1,6.1,0,0,0-4.59-9.2A5.5,5.5,0,0,0,87.68,83a5.88,5.88,0,0,0-6-6h-.36V56.71c0-.07.1-.13.09-.2A14.55,14.55,0,0,0,74.52,29.1h-.2V122H100c.85,0,1.37-1.54,1.37-2.39v-6.9A8.38,8.38,0,0,0,95.68,104.71Z"/><path class="cls-4" d="M60,43.67a14.89,14.89,0,0,0,8,12.84c0,.07.31.13.31.2V77h-.39a6.08,6.08,0,0,0-6.23,6,5.75,5.75,0,0,0,.81,3A6.13,6.13,0,0,0,57,92a6,6,0,0,0,.84,3.08,6.14,6.14,0,0,0-5.46,6.09,6.33,6.33,0,0,0,1.37,3.51,8.22,8.22,0,0,0-5.46,8v6.9c0,.85.17,2.39,1,2.39h25V29.11A14.49,14.49,0,0,0,60,43.67Z"/></g></svg>