<svg xmlns="http://www.w3.org/2000/svg" viewBox="0 0 150 150"><defs><style>.cls-1{fill:#fff;}.cls-2{fill:#dfe0e1;}.cls-3{fill:#ef0000;}</style></defs><title>adobe</title><g id="INFO"><path class="cls-1" d="M6.12,75A70,70,0,0,0,76,145.28V4.72A70,70,0,0,0,6.12,75Z"/><path class="cls-2" d="M75.9,4.71H75V145.28h.9a70.29,70.29,0,1,0,0-140.57Z"/><path class="cls-3" d="M52.37,95.53c-2.44,1.77-5,3.41-7.3,5.15a37.43,37.43,0,0,0-6.3,5.68,19,19,0,0,0-2.41,3.16,4.69,4.69,0,0,0-.8,2.77c0,.28,0,.13,0,.19s0,0,0,0a.93.93,0,0,0-.42-.47c-.2-.12-.27-.09-.17-.11a3.29,3.29,0,0,0,.5-.11,15,15,0,0,0,3.31-1.62,62.75,62.75,0,0,0,6.81-5.06l.79-.68.75-.7L48,103c.26-.25.48-.49.72-.74.47-.48,1-1,1.42-1.51s1-1,1.4-1.59A84.37,84.37,0,0,0,61,84.88c1.37-2.54,2.65-5.15,3.88-7.79l.45-1,.06-.12s0-.1,0,0v0l0-.06.11-.26.21-.52c.14-.34.29-.7.41-1l.34-1c.24-.62.45-1.32.67-2s.43-1.38.62-2.08c1.59-5.61,2.8-11.45,3.85-17.29.53-2.93,1-5.87,1.42-8.81l.62-4.43.08-.58c0-.19.05-.35.1-.57.08-.42.18-.79.28-1.17.19-.75.41-1.47.63-2.19a55.39,55.39,0,0,0,2.15-8.5,10.74,10.74,0,0,0-.07-4,3.6,3.6,0,0,0-2-2.56l1.42-.25a7.75,7.75,0,0,0-1.68,4.65,25.85,25.85,0,0,0,.21,5.54,103.86,103.86,0,0,0,2.51,11.27c1,3.76,2.05,7.49,3.25,11.15s2.5,7.27,4,10.72a52.28,52.28,0,0,0,2.46,5,25.71,25.71,0,0,0,2.95,4.3c.26.32.55.59.82.87s.28.25.42.38l.19.17.29.23c.77.64,1.49,1.2,2.22,1.76Q96,76.39,98.4,77.9a52.41,52.41,0,0,0,9.74,5c.84.31,1.68.6,2.53.85s1.65.44,2.65.69c1.94.49,3.75,1,5.5,1.29a21.12,21.12,0,0,0,4.91.42c.36,0,.79-.07,1-.1a3.32,3.32,0,0,0,.39-.08l.35-.11a2.38,2.38,0,0,0,.88-.53c.06-.06,0-.06,0,0a1,1,0,0,0,0,.4c.09.3.12.12-.24-.16l-.3-.22-.18-.11-.09-.06h0l.12.06-.08,0-.33-.16h-.06l-.16-.06-.22-.07a17.12,17.12,0,0,0-2.33-.48c-.87-.12-1.77-.21-2.71-.29L116.93,84c-1.72-.08-3.64-.11-5.48,0-3.73.14-7.52.61-11.36,1.14s-7.71,1.08-11.53,1.73S80.91,88.11,77.1,88.9s-7.61,1.61-11.4,2.51S58.06,93.24,54.21,94L54,93.38c3.6-1.63,7.18-3.18,10.85-4.69S72.29,86,76.06,84.82s7.6-2.22,11.43-3.18,7.7-1.8,11.57-2.61A112.93,112.93,0,0,1,111,77.18a56.11,56.11,0,0,1,6.27-.26l1.52,0,1.48.07c1,.05,2.06.12,3.14.24a22.81,22.81,0,0,1,3.44.62l.48.14c.16.05.31.09.54.18l.63.25.34.16.08,0,.25.13.22.13c.15.09.29.16.45.27a10.85,10.85,0,0,1,.9.63,9,9,0,0,1,1.75,1.79,7.07,7.07,0,0,1,1.24,2.8,6.57,6.57,0,0,1-.2,3.3,7.42,7.42,0,0,1-1.44,2.56,9.6,9.6,0,0,1-4,2.69c-.35.13-.7.24-1.05.33s-.88.2-1,.22l-.18,0-.33,0-.46.05c-.31,0-.61.06-.91.07a26.4,26.4,0,0,1-6.76-.56c-2.1-.42-4.07-1-5.92-1.45-.9-.24-2-.54-3-.87s-2-.71-3-1.11a58,58,0,0,1-10.92-6.07Q92,81.87,89.65,79.92c-.8-.66-1.6-1.34-2.31-2l-.28-.24-.35-.33c-.22-.21-.44-.42-.65-.63-.4-.43-.8-.86-1.15-1.31a41.17,41.17,0,0,1-6-11.19,98.12,98.12,0,0,1-3.47-11.56c-.91-3.88-1.67-7.78-2.33-11.68a110.82,110.82,0,0,1-1.58-11.86,29.39,29.39,0,0,1,.2-6.19,10.78,10.78,0,0,1,2.69-6l.64-.64.78.39A5.91,5.91,0,0,1,78,18.48,6.54,6.54,0,0,1,79.07,21a14,14,0,0,1,0,4.86,69.61,69.61,0,0,1-2.28,8.8c-.21.71-.41,1.42-.58,2.11-.09.34-.16.7-.21,1,0,.15-.05.36-.08.53l-.06.53-.46,4.45-.85,8.93c-.27,3-.61,6-.94,9s-.75,6-1.29,9c-.13.75-.27,1.5-.44,2.26s-.31,1.5-.53,2.3L71,75.86c-.11.39-.22.72-.33,1.08l-.17.53-.08.27-.12.34-.39,1.08a88,88,0,0,1-3.54,8.47,68.09,68.09,0,0,1-10.15,15.56c-.51.6-1,1.17-1.59,1.74s-1.1,1.14-1.69,1.7c-.29.28-.59.58-.87.83l-.84.74-.91.8-.93.75A58.72,58.72,0,0,1,41.64,115a19.57,19.57,0,0,1-4.84,2,7.81,7.81,0,0,1-1.71.21,5,5,0,0,1-2.34-.55,4.21,4.21,0,0,1-1.89-2.1,4.83,4.83,0,0,1-.31-1.07,5.8,5.8,0,0,1-.09-.92A9.56,9.56,0,0,1,32.34,107a22.29,22.29,0,0,1,3.3-3.71,33,33,0,0,1,7.95-5.06,76.79,76.79,0,0,1,8.46-3.28Z"/></g></svg>