<svg xmlns="http://www.w3.org/2000/svg" viewBox="0 0 133.94 133.94"><defs><style>.cls-1{fill:#6a9642;}.cls-2{fill:#87bc42;}.cls-3{fill:#fff;}.cls-4{fill:#cfd0d1;}.cls-5{fill:#9c9ea0;}</style></defs><title>Recurso 11</title><g id="Capa_2" data-name="Capa 2"><g id="Iconos"><path class="cls-1" d="M133.94,67A67,67,0,0,0,67,0V133.94A67,67,0,0,0,133.94,67Z"/><path class="cls-2" d="M67,0a67,67,0,0,0,0,133.94h0V0Z"/><rect class="cls-3" x="37.27" y="23.32" width="29.76" height="88.58"/><rect class="cls-4" x="67.03" y="23.32" width="29.76" height="88.58"/><rect class="cls-4" x="46.65" y="39.68" width="14.64" height="20.3"/><rect class="cls-5" x="71.83" y="39.68" width="14.64" height="20.3"/><rect class="cls-4" x="46.65" y="64.35" width="14.64" height="20.3"/><rect class="cls-4" x="52.38" y="91.61" width="14.64" height="20.66"/><rect class="cls-5" x="67.03" y="91.61" width="14.64" height="20.66"/><rect class="cls-5" x="71.83" y="64.35" width="14.64" height="20.3"/></g></g></svg>