<?xml version="1.0" encoding="utf-8"?>
<!-- Generator: Adobe Illustrator 20.1.0, SVG Export Plug-In . SVG Version: 6.00 Build 0)  -->
<svg version="1.1" xmlns="http://www.w3.org/2000/svg" xmlns:xlink="http://www.w3.org/1999/xlink" x="0px" y="0px"
	 viewBox="0 0 93.4 91.8" style="enable-background:new 0 0 93.4 91.8;" xml:space="preserve">
<style type="text/css">
	.st0{clip-path:url(#SVGID_4_);}
	.st1{fill:#201F23;}
	.st2{fill:url(#SVGID_5_);}
	.st3{fill:#DBDCDD;}
	.st4{opacity:0.9;fill:#EAA330;}
	.st5{fill:#87BC42;}
	.st6{fill:#FFFFFF;}
	.st7{opacity:0.9;fill:#201F23;}
	.st8{opacity:0.7;fill:#201F23;}
	.st9{fill:url(#SVGID_6_);}
	.st10{fill:url(#SVGID_7_);}
	.st11{fill:url(#SVGID_8_);}
	.st12{fill:url(#SVGID_9_);}
	.st13{fill:url(#SVGID_10_);}
	.st14{fill:url(#SVGID_11_);}
	.st15{fill:none;stroke:#DBDCDD;stroke-width:3;stroke-linecap:round;stroke-miterlimit:10;}
	.st16{opacity:0.4;fill:#FFFFFF;}
	.st17{fill:none;stroke:#B9B9B9;stroke-width:12;stroke-linejoin:round;stroke-miterlimit:10;}
	.st18{fill:none;stroke:#6A9642;stroke-width:14;stroke-miterlimit:10;}
	.st19{fill:none;stroke:#FFFFFF;stroke-width:12;stroke-linejoin:round;stroke-miterlimit:10;}
	.st20{fill:url(#SVGID_12_);}
	.st21{fill:#6AAF42;}
	.st22{fill:none;stroke:#FFFFFF;stroke-width:2.0274;stroke-miterlimit:10;stroke-dasharray:3.379;}
	.st23{fill:none;stroke:#FFFFFF;stroke-width:2.0274;stroke-miterlimit:10;stroke-dasharray:7;}
	.st24{fill:url(#SVGID_13_);}
	.st25{fill:#6A9642;}
	.st26{fill:#504F54;}
	.st27{fill:none;stroke:#B9B9B9;stroke-width:12;stroke-miterlimit:10;}
	.st28{fill:#EAA330;}
	.st29{fill:#2D2C30;}
	.st30{fill:#CED0D1;}
	.st31{fill:#35903A;}
	.st32{fill:#CECFD0;}
	.st33{fill:#4E893F;}
	.st34{fill:#58595B;}
	.st35{fill:#272A2D;}
	.st36{fill:url(#SVGID_14_);}
	.st37{fill:none;stroke:#FFFFFF;stroke-miterlimit:10;}
	.st38{fill:#EEE0AD;}
	.st39{fill:#CDC297;}
	.st40{fill:#BEBFC5;}
	.st41{fill:#AAA9AF;}
	.st42{fill:#DADBDC;}
	.st43{fill:none;stroke:#FFFFFF;stroke-width:2.0274;stroke-miterlimit:10;}
	.st44{fill:none;stroke:#FFFFFF;stroke-width:2.0274;stroke-miterlimit:10;stroke-dasharray:7.054,7.054;}
	.st45{fill:#CDCFD0;}
	.st46{fill:#102D40;}
	.st47{fill:#264860;}
	.st48{clip-path:url(#SVGID_16_);}
	.st49{fill:#E8BD98;}
	.st50{fill:#E76D4A;}
	.st51{fill:#543E36;}
	.st52{fill:#C34628;}
	.st53{clip-path:url(#SVGID_18_);}
	.st54{fill:none;stroke:#FFFFFF;stroke-width:2.2466;stroke-miterlimit:10;stroke-dasharray:3.7443;}
	.st55{clip-path:url(#SVGID_20_);fill:#98ABB7;}
	.st56{clip-path:url(#SVGID_20_);}
	.st57{fill:#421800;}
	.st58{fill:#ECCCB0;}
	.st59{fill:#B34FC5;}
	.st60{fill:#E3E8EE;}
	.st61{opacity:0.5;clip-path:url(#SVGID_20_);fill:#ECCCB0;}
	.st62{clip-path:url(#SVGID_22_);fill:#3EA1BD;}
	.st63{clip-path:url(#SVGID_22_);}
	.st64{fill:#A17561;}
	.st65{fill:#141720;}
	.st66{clip-path:url(#SVGID_22_);fill:#FFFFFF;}
	.st67{opacity:0.5;clip-path:url(#SVGID_22_);fill:#E8BD98;}
	.st68{clip-path:url(#SVGID_24_);}
	.st69{fill:#C55D3F;}
	.st70{clip-path:url(#SVGID_24_);fill:#E8BD98;}
	.st71{clip-path:url(#SVGID_24_);fill:#C7D4E2;}
	.st72{clip-path:url(#SVGID_24_);fill:#543E36;}
	.st73{clip-path:url(#SVGID_24_);fill:#1A1A1A;}
	.st74{fill:#435363;}
	.st75{opacity:0.5;clip-path:url(#SVGID_24_);fill:#E8BD98;}
	.st76{clip-path:url(#SVGID_26_);fill:#98ABB7;}
	.st77{clip-path:url(#SVGID_26_);}
	.st78{opacity:0.5;clip-path:url(#SVGID_26_);fill:#ECCCB0;}
	.st79{clip-path:url(#SVGID_28_);fill:#3EA1BD;}
	.st80{clip-path:url(#SVGID_28_);}
	.st81{clip-path:url(#SVGID_28_);fill:#FFFFFF;}
	.st82{opacity:0.5;clip-path:url(#SVGID_28_);fill:#E8BD98;}
	.st83{clip-path:url(#SVGID_30_);}
	.st84{clip-path:url(#SVGID_30_);fill:#E8BD98;}
	.st85{clip-path:url(#SVGID_30_);fill:#C7D4E2;}
	.st86{clip-path:url(#SVGID_30_);fill:#543E36;}
	.st87{clip-path:url(#SVGID_30_);fill:#1A1A1A;}
	.st88{opacity:0.5;clip-path:url(#SVGID_30_);fill:#E8BD98;}
	.st89{clip-path:url(#SVGID_32_);fill:#006F34;}
	.st90{clip-path:url(#SVGID_32_);}
	.st91{fill:#B3D033;}
	.st92{fill:#BD7E52;}
	.st93{fill:#B0B3B4;}
	.st94{fill:#8A8D8F;}
	.st95{fill:#D1D3D4;}
	.st96{fill:#787B7D;}
	.st97{fill:#B7BABB;}
	.st98{fill:#91A0A1;}
	.st99{clip-path:url(#SVGID_34_);fill:#006F34;}
	.st100{clip-path:url(#SVGID_34_);}
	.st101{fill:#BFC1C2;}
	.st102{fill:#313034;}
	.st103{fill:url(#SVGID_35_);}
	.st104{fill:#B9B9B9;}
	.st105{fill:#ACAEB0;}
	.st106{fill:#BBBDBE;}
	.st107{fill:#96989A;}
	.st108{fill:#CFD0D1;}
	.st109{fill:#5D5D5D;}
	.st110{fill:#B7B9BB;}
	.st111{fill:#919395;}
	.st112{fill:none;}
	.st113{fill-rule:evenodd;clip-rule:evenodd;fill:#CED0D1;}
	.st114{fill-rule:evenodd;clip-rule:evenodd;fill:#FFFFFF;}
	.st115{fill:url(#SVGID_36_);}
	.st116{fill:url(#SVGID_37_);}
	.st117{fill:#F3F3F3;}
	.st118{fill:#231F20;}
	.st119{fill:url(#SVGID_38_);}
	.st120{fill:url(#SVGID_39_);}
	.st121{fill:url(#SVGID_40_);}
	.st122{fill:url(#SVGID_41_);}
	.st123{fill:url(#SVGID_42_);}
	.st124{fill:url(#SVGID_43_);}
	.st125{fill:url(#SVGID_44_);}
	.st126{fill:url(#SVGID_45_);}
	.st127{fill:url(#SVGID_46_);}
	.st128{fill:url(#SVGID_47_);}
	.st129{fill:url(#SVGID_48_);}
	.st130{fill:url(#SVGID_49_);}
	.st131{fill:url(#SVGID_50_);}
	.st132{fill:url(#SVGID_51_);}
	.st133{fill:url(#SVGID_52_);}
	.st134{fill:url(#SVGID_53_);}
	.st135{opacity:0.8;}
	.st136{opacity:0.8;fill:#F3F3F3;}
	.st137{clip-path:url(#SVGID_55_);}
	.st138{clip-path:url(#SVGID_57_);fill:#98ABB7;}
	.st139{clip-path:url(#SVGID_57_);}
	.st140{opacity:0.5;clip-path:url(#SVGID_57_);fill:#ECCCB0;}
	.st141{clip-path:url(#SVGID_59_);fill:#3EA1BD;}
	.st142{clip-path:url(#SVGID_59_);}
	.st143{clip-path:url(#SVGID_59_);fill:#FFFFFF;}
	.st144{opacity:0.5;clip-path:url(#SVGID_59_);fill:#E8BD98;}
	.st145{clip-path:url(#SVGID_61_);}
	.st146{clip-path:url(#SVGID_61_);fill:#E8BD98;}
	.st147{clip-path:url(#SVGID_61_);fill:#C7D4E2;}
	.st148{clip-path:url(#SVGID_61_);fill:#543E36;}
	.st149{clip-path:url(#SVGID_61_);fill:#1A1A1A;}
	.st150{opacity:0.5;clip-path:url(#SVGID_61_);fill:#E8BD98;}
	.st151{fill:none;stroke:#5D5D5D;stroke-width:3;stroke-linecap:round;stroke-miterlimit:10;}
	.st152{fill:none;stroke:#201F23;stroke-width:5;stroke-miterlimit:10;}
	.st153{fill:none;stroke:#201F23;stroke-width:4.2064;stroke-linecap:round;stroke-miterlimit:10;}
	.st154{fill:none;stroke:#201F23;stroke-miterlimit:10;}
	.st155{fill:#B9BBBC;}
	.st156{fill:#98999C;}
	.st157{fill:#B9BABC;}
	.st158{fill:#E2E2E3;}
	.st159{fill:#D1D1D2;}
	.st160{fill:#2E2D31;}
	.st161{fill:#1F1E21;}
	.st162{fill:#5D5C61;}
	.st163{fill:#4A4A4E;}
	.st164{fill:#88BD42;}
	.st165{opacity:0.6;}
	.st166{fill:#6A9742;}
	.st167{fill:#5F893B;}
	.st168{fill:none;stroke:#CFD0D1;stroke-width:4;stroke-linecap:round;stroke-miterlimit:10;}
	.st169{fill:#E09400;}
	.st170{fill:#F0EABC;}
	.st171{fill:#FFC843;}
	.st172{fill:#DDA070;}
	.st173{fill:none;stroke:#FFFFFF;stroke-width:4;stroke-linecap:round;stroke-miterlimit:10;}
	.st174{fill:none;stroke:#CFD0D1;stroke-width:2.5756;stroke-linecap:round;stroke-miterlimit:10;}
	.st175{fill:none;stroke:#FFFFFF;stroke-width:2.5756;stroke-linecap:round;stroke-miterlimit:10;}
	.st176{fill:#BCBDBE;}
	.st177{fill:#9C9EA0;}
	.st178{fill:#B3B5B6;}
	.st179{fill:#282828;}
</style>
<g id="Fondo">
</g>
<g id="Diseño">
	<g>
		<g>
			<g>
				<path class="st26" d="M3.2,45.9c0,24.2,19.7,43.8,43.7,43.9V2C22.8,2.1,3.2,21.7,3.2,45.9z"/>
				<path class="st102" d="M47.1,2c-0.1,0-0.2,0-0.2,0v87.8c0,0,0.2,0,0.2,0C71.3,89.8,91,70.1,91,45.9C91,21.6,71.3,2,47.1,2z"/>
			</g>
		</g>
		<g>
			<polygon class="st93" points="63.8,24.1 63.8,27.1 57.8,27.1 57.8,24.1 46.8,24.1 46.8,34.1 57.5,34.1 63.7,34.1 70.8,34.1 
				70.8,24.1 			"/>
			<polygon class="st30" points="36.2,34.1 46.8,34.1 46.8,24.1 36.8,24.1 36.8,27.1 30.8,27.1 30.8,24.1 22.8,24.1 22.8,34.1 
				30,34.1 			"/>
			<rect x="31.8" y="57.1" class="st6" width="6" height="7"/>
			<rect x="31.8" y="50.1" class="st6" width="6" height="6"/>
			<rect x="31.8" y="42.1" class="st6" width="6" height="6"/>
			<rect x="55.8" y="57.1" class="st30" width="7" height="7"/>
			<rect x="55.8" y="50.1" class="st30" width="7" height="6"/>
			<rect x="47.8" y="42.1" class="st30" width="6" height="6"/>
			<rect x="47.8" y="57.1" class="st30" width="6" height="7"/>
			<polygon class="st6" points="45.9,65.1 39.7,65.1 37.9,65.1 30.8,65.1 30.8,57.4 30.8,55.6 30.8,49.4 30.8,47.7 30.8,40.1 
				37.9,40.1 39.7,40.1 45.9,40.1 46.8,40.1 46.8,34.1 36.2,34.1 30,34.1 22.8,34.1 22.8,72.1 46.8,72.1 46.8,65.1 			"/>
			<polygon class="st30" points="57.5,34.1 46.8,34.1 46.8,40.1 47.7,40.1 53.9,40.1 55.7,40.1 63.8,40.1 63.8,47.7 63.8,49.4 
				63.8,55.6 63.8,57.4 63.8,65.1 55.7,65.1 53.9,65.1 47.7,65.1 46.8,65.1 46.8,72.1 70.8,72.1 70.8,34.1 63.7,34.1 			"/>
			<rect x="55.8" y="42.1" class="st30" width="7" height="6"/>
			<rect x="39.8" y="42.1" class="st6" width="6" height="6"/>
			<rect x="39.8" y="57.1" class="st6" width="6" height="7"/>
			<rect x="39.8" y="50.1" class="st6" width="6" height="6"/>
			<path class="st30" d="M39.7,40.1h-1.8h-7.1v7.6v1.8v6.2v1.8v7.7h7.1h1.8h6.2h0.9v-25h-0.9H39.7z M37.8,64.1h-6v-7h6V64.1z
				 M37.8,56.1h-6v-6h6V56.1z M37.8,48.1h-6v-6h6V48.1z M45.8,64.1h-6v-7h6V64.1z M45.8,56.1h-6v-6h6V56.1z M45.8,48.1h-6v-6h6V48.1
				z"/>
			<path class="st93" d="M47.7,65.1h6.2h1.8h8.1v-7.7v-1.8v-6.2v-1.8v-7.6h-8.1h-1.8h-6.2h-0.9v25H47.7z M55.8,42.1h7v6h-7V42.1z
				 M55.8,50.1h7v6h-7V50.1z M55.8,57.1h7v7h-7V57.1z M47.8,42.1h6v6h-6V42.1z M47.8,50.1h6v6h-6V50.1z M47.8,57.1h6v7h-6V57.1z"/>
			<polygon class="st110" points="36.8,27.1 36.8,23.7 36.8,20.1 30.8,20.1 30.8,23.7 30.8,27.1 			"/>
			<polygon class="st111" points="63.8,27.1 63.8,23.7 63.8,20.1 57.8,20.1 57.8,23.7 57.8,27.1 			"/>
			<rect x="47.8" y="50.1" class="st102" width="6" height="6"/>
		</g>
	</g>
</g>
<g id="Iconos">
</g>
</svg>
