<?xml version="1.0" encoding="utf-8"?>
<!-- Generator: Adobe Illustrator 20.1.0, SVG Export Plug-In . SVG Version: 6.00 Build 0)  -->
<svg version="1.1" xmlns="http://www.w3.org/2000/svg" xmlns:xlink="http://www.w3.org/1999/xlink" x="0px" y="0px"
	 viewBox="0 0 285.8 214.5" style="enable-background:new 0 0 285.8 214.5;" xml:space="preserve">
<style type="text/css">
	.st0{clip-path:url(#SVGID_4_);}
	.st1{fill:#201F23;}
	.st2{fill:url(#SVGID_5_);}
	.st3{fill:#DBDCDD;}
	.st4{opacity:0.9;fill:#EAA330;}
	.st5{fill:#87BC42;}
	.st6{fill:#FFFFFF;}
	.st7{opacity:0.9;fill:#201F23;}
	.st8{opacity:0.7;fill:#201F23;}
	.st9{fill:url(#SVGID_6_);}
	.st10{fill:url(#SVGID_7_);}
	.st11{fill:url(#SVGID_8_);}
	.st12{fill:url(#SVGID_9_);}
	.st13{fill:url(#SVGID_10_);}
	.st14{fill:url(#SVGID_11_);}
	.st15{fill:none;stroke:#DBDCDD;stroke-width:3;stroke-linecap:round;stroke-miterlimit:10;}
	.st16{opacity:0.4;fill:#FFFFFF;}
	.st17{fill:none;stroke:#B9B9B9;stroke-width:12;stroke-linejoin:round;stroke-miterlimit:10;}
	.st18{fill:none;stroke:#6A9642;stroke-width:14;stroke-miterlimit:10;}
	.st19{fill:none;stroke:#FFFFFF;stroke-width:12;stroke-linejoin:round;stroke-miterlimit:10;}
	.st20{fill:url(#SVGID_12_);}
	.st21{fill:#6AAF42;}
	.st22{fill:none;stroke:#FFFFFF;stroke-width:2.0274;stroke-miterlimit:10;stroke-dasharray:3.379;}
	.st23{fill:none;stroke:#FFFFFF;stroke-width:2.0274;stroke-miterlimit:10;stroke-dasharray:7;}
	.st24{fill:url(#SVGID_13_);}
	.st25{fill:#6A9642;}
	.st26{fill:#504F54;}
	.st27{fill:none;stroke:#B9B9B9;stroke-width:12;stroke-miterlimit:10;}
	.st28{fill:#EAA330;}
	.st29{fill:#2D2C30;}
	.st30{fill:#CED0D1;}
	.st31{fill:#35903A;}
	.st32{fill:#CECFD0;}
	.st33{fill:#4E893F;}
	.st34{fill:#58595B;}
	.st35{fill:#272A2D;}
	.st36{fill:url(#SVGID_14_);}
	.st37{fill:none;stroke:#FFFFFF;stroke-miterlimit:10;}
	.st38{fill:#EEE0AD;}
	.st39{fill:#CDC297;}
	.st40{fill:#BEBFC5;}
	.st41{fill:#AAA9AF;}
	.st42{fill:#DADBDC;}
	.st43{fill:none;stroke:#FFFFFF;stroke-width:2.0274;stroke-miterlimit:10;}
	.st44{fill:none;stroke:#FFFFFF;stroke-width:2.0274;stroke-miterlimit:10;stroke-dasharray:7.054,7.054;}
	.st45{fill:#CDCFD0;}
	.st46{fill:#102D40;}
	.st47{fill:#264860;}
	.st48{clip-path:url(#SVGID_16_);}
	.st49{fill:#E8BD98;}
	.st50{fill:#E76D4A;}
	.st51{fill:#543E36;}
	.st52{fill:#C34628;}
	.st53{fill:none;stroke:#FFFFFF;stroke-width:2.2466;stroke-miterlimit:10;stroke-dasharray:3.7443;}
	.st54{clip-path:url(#SVGID_18_);fill:#98ABB7;}
	.st55{clip-path:url(#SVGID_18_);}
	.st56{fill:#421800;}
	.st57{fill:#ECCCB0;}
	.st58{fill:#B34FC5;}
	.st59{fill:#E3E8EE;}
	.st60{opacity:0.5;clip-path:url(#SVGID_18_);fill:#ECCCB0;}
	.st61{clip-path:url(#SVGID_20_);fill:#3EA1BD;}
	.st62{clip-path:url(#SVGID_20_);}
	.st63{fill:#A17561;}
	.st64{fill:#141720;}
	.st65{clip-path:url(#SVGID_20_);fill:#FFFFFF;}
	.st66{opacity:0.5;clip-path:url(#SVGID_20_);fill:#E8BD98;}
	.st67{clip-path:url(#SVGID_22_);}
	.st68{fill:#C55D3F;}
	.st69{clip-path:url(#SVGID_22_);fill:#E8BD98;}
	.st70{clip-path:url(#SVGID_22_);fill:#C7D4E2;}
	.st71{clip-path:url(#SVGID_22_);fill:#543E36;}
	.st72{clip-path:url(#SVGID_22_);fill:#1A1A1A;}
	.st73{fill:#435363;}
	.st74{opacity:0.5;clip-path:url(#SVGID_22_);fill:#E8BD98;}
	.st75{clip-path:url(#SVGID_24_);fill:#006F34;}
	.st76{clip-path:url(#SVGID_24_);}
	.st77{fill:#B3D033;}
	.st78{fill:#BD7E52;}
	.st79{fill:#B0B3B4;}
	.st80{fill:#8A8D8F;}
	.st81{fill:#D1D3D4;}
	.st82{fill:#787B7D;}
	.st83{fill:#B7BABB;}
	.st84{fill:#91A0A1;}
	.st85{fill:#BFC1C2;}
	.st86{fill:#313034;}
	.st87{fill:url(#SVGID_25_);}
	.st88{fill:#B9B9B9;}
	.st89{fill:#ACAEB0;}
	.st90{fill:#BBBDBE;}
	.st91{fill:#96989A;}
	.st92{fill:#CFD0D1;}
	.st93{fill:#5D5D5D;}
	.st94{fill:#B7B9BB;}
	.st95{fill:#919395;}
	.st96{fill:none;}
	.st97{fill-rule:evenodd;clip-rule:evenodd;fill:#CED0D1;}
	.st98{fill-rule:evenodd;clip-rule:evenodd;fill:#FFFFFF;}
	.st99{fill:url(#SVGID_26_);}
	.st100{fill:url(#SVGID_27_);}
	.st101{fill:#F3F3F3;}
	.st102{fill:#231F20;}
	.st103{fill:url(#SVGID_28_);}
	.st104{fill:url(#SVGID_29_);}
	.st105{fill:url(#SVGID_30_);}
	.st106{fill:url(#SVGID_31_);}
	.st107{fill:url(#SVGID_32_);}
	.st108{fill:url(#SVGID_33_);}
	.st109{fill:url(#SVGID_34_);}
	.st110{fill:url(#SVGID_35_);}
	.st111{fill:url(#SVGID_36_);}
	.st112{fill:url(#SVGID_37_);}
	.st113{fill:url(#SVGID_38_);}
	.st114{fill:url(#SVGID_39_);}
	.st115{fill:url(#SVGID_40_);}
	.st116{fill:url(#SVGID_41_);}
	.st117{fill:url(#SVGID_42_);}
	.st118{fill:url(#SVGID_43_);}
	.st119{opacity:0.8;}
	.st120{opacity:0.8;fill:#F3F3F3;}
	.st121{fill:none;stroke:#5D5D5D;stroke-width:3;stroke-linecap:round;stroke-miterlimit:10;}
	.st122{fill:none;stroke:#201F23;stroke-width:5;stroke-miterlimit:10;}
	.st123{fill:none;stroke:#201F23;stroke-width:4.2064;stroke-linecap:round;stroke-miterlimit:10;}
	.st124{fill:none;stroke:#201F23;stroke-miterlimit:10;}
	.st125{fill:#B9BBBC;}
	.st126{fill:#98999C;}
	.st127{fill:#B9BABC;}
	.st128{fill:#E2E2E3;}
	.st129{fill:#D1D1D2;}
	.st130{fill:#2E2D31;}
	.st131{fill:#1F1E21;}
	.st132{fill:#5D5C61;}
	.st133{fill:#4A4A4E;}
	.st134{fill:#88BD42;}
	.st135{opacity:0.6;}
	.st136{fill:#6A9742;}
	.st137{fill:#5F893B;}
	.st138{fill:none;stroke:#CFD0D1;stroke-width:4;stroke-linecap:round;stroke-miterlimit:10;}
	.st139{fill:#E09400;}
	.st140{fill:#F0EABC;}
	.st141{fill:#FFC843;}
	.st142{fill:#DDA070;}
	.st143{fill:none;stroke:#FFFFFF;stroke-width:4;stroke-linecap:round;stroke-miterlimit:10;}
	.st144{fill:none;stroke:#CFD0D1;stroke-width:2.5756;stroke-linecap:round;stroke-miterlimit:10;}
	.st145{fill:none;stroke:#FFFFFF;stroke-width:2.5756;stroke-linecap:round;stroke-miterlimit:10;}
	.st146{fill:#BCBDBE;}
	.st147{fill:#9C9EA0;}
	.st148{fill:#B3B5B6;}
	.st149{fill:#282828;}
	.st150{font-family:'Avenir-Medium';}
	.st151{font-size:30px;}
</style>
<g id="Fondo">
</g>
<g id="Diseño">
</g>
<g id="Iconos">
	<g>
		<text transform="matrix(1 0 0 1 0 208.4418)"><tspan x="0" y="0" class="st26 st150 st151">SAICOR G</tspan><tspan x="142.2" y="0" class="st26 st150 st151">r</tspan><tspan x="152.8" y="0" class="st26 st150 st151">een Hope</tspan></text>
	</g>
	<g>
		<path class="st126" d="M143,113v6.6c0,0,0,0,0,0c1-2.4,2.1-4.6,3.5-6.6H143z"/>
		<path class="st126" d="M185,27.4c3.2,0,5.8,2.6,5.8,5.8V91c9.5-1,18.8-0.7,26.2-0.1c0.6-3.8,0.9-7.7,0.9-11.6
			c0-41.3-33.5-74.8-74.8-74.8c0,0-0.1,0-0.1,0v23H185z"/>
		<path class="st127" d="M139.9,113c1.2,2,2.2,4.2,3.1,6.6V113H139.9z"/>
		<path class="st127" d="M143,101.8v-2.7h-16.8c1.8,1.1,3.5,2.4,5.2,3.8l1-1.1H143z"/>
		<path class="st126" d="M143,101.8h11.1l1.4,1.5c2-1.6,4.2-3,6.5-4.2h-19V101.8z"/>
		<path class="st127" d="M95.6,89.4V33.1c0-3.2,2.6-5.8,5.8-5.8H143v-23c-41.3,0.1-74.7,33.5-74.7,74.8c0,3.4,0.2,6.7,0.7,9.9
			C76.5,88.5,86,88.3,95.6,89.4z"/>
		<rect x="102.8" y="35.6" class="st128" width="40.2" height="53.6"/>
		<rect x="143" y="35.6" class="st129" width="40.6" height="53.6"/>
		<path class="st130" d="M143,101.8h-10.5l-1,1.1c3.3,2.8,6.2,6.2,8.5,10.2h3.1V101.8z"/>
		<path class="st131" d="M143,101.8V113h3.5c2.5-3.8,5.6-7.1,9-9.8l-1.4-1.5H143z"/>
		<path class="st132" d="M143,89.1h-40.2V35.6H143v-8.2h-41.6c-3.2,0-5.8,2.6-5.8,5.8v56.3c10.7,1.2,21.7,4,30.6,9.7H143V89.1z"/>
		<path class="st133" d="M183.6,35.6v53.6H143v9.9h19c8.7-4.7,18.9-7.1,28.8-8.1V33.1c0-3.2-2.6-5.8-5.8-5.8h-42v8.2H183.6z"/>
		<path class="st134" d="M143,119.7C143,119.7,143,119.6,143,119.7C143,119.6,143,119.6,143,119.7L143,119.7z"/>
		<path class="st21" d="M143,119.6c-0.9-2.4-1.9-4.6-3.1-6.6c-2.3-4-5.2-7.3-8.5-10.2c-1.6-1.4-3.4-2.7-5.2-3.8
			c-9-5.7-19.9-8.5-30.6-9.7c-9.6-1.1-19.1-0.9-26.7-0.3c4.5,34.2,32.2,61.1,66.7,64.5c-0.2-0.5-0.3-1-0.5-1.6
			c-0.6-1.8-1.3-3.8-2.2-5.9c-0.8-2.2-1.9-4.5-3-6.9c-0.3-0.6-0.6-1.2-0.9-1.8c-0.2-0.3-0.3-0.6-0.5-0.9c-0.2-0.3-0.3-0.6-0.5-0.9
			c-0.3-0.6-0.7-1.2-1-1.9c-0.4-0.6-0.7-1.2-1.1-1.9c-0.7-1.3-1.6-2.5-2.4-3.8c-0.4-0.6-0.9-1.2-1.3-1.9c-0.4-0.6-0.9-1.3-1.3-1.9
			c-0.9-1.2-1.8-2.5-2.8-3.6c-0.5-0.6-1-1.2-1.5-1.8l-1.6-1.7c-1-1.2-2.2-2.2-3.3-3.3c-0.5-0.6-1.1-1.1-1.7-1.6
			c-0.6-0.5-1.1-1-1.7-1.5c-0.6-0.5-1.2-1-1.8-1.4c-0.3-0.2-0.6-0.5-0.9-0.7c-0.3-0.2-0.6-0.5-0.9-0.7c-0.6-0.4-1.2-0.9-1.8-1.3
			c-0.6-0.4-1.2-0.9-1.8-1.2c-0.6-0.4-1.2-0.8-1.8-1.1c-0.6-0.4-1.2-0.8-1.8-1.1c-0.6-0.3-1.2-0.7-1.8-1c-0.6-0.3-1.2-0.7-1.8-0.9
			c-1.2-0.6-2.4-1.1-3.6-1.6c-1.2-0.5-2.3-0.9-3.4-1.3c-0.3-0.1-0.5-0.2-0.8-0.3c-0.3-0.1-0.5-0.2-0.8-0.3c-0.5-0.2-1.1-0.3-1.6-0.5
			c-0.5-0.2-1-0.3-1.5-0.5c-0.2-0.1-0.5-0.1-0.7-0.2c-0.2-0.1-0.5-0.1-0.7-0.2c-0.9-0.2-1.8-0.4-2.6-0.6c-0.8-0.2-1.5-0.4-2.2-0.5
			c-2.7-0.5-4.3-0.7-4.3-0.7s1.6,0.2,4.3,0.5c0.7,0.1,1.4,0.2,2.3,0.4c0.8,0.2,1.7,0.3,2.7,0.5c0.2,0,0.5,0.1,0.7,0.1
			c0.2,0.1,0.5,0.1,0.7,0.2c0.5,0.1,1,0.3,1.5,0.4c0.5,0.1,1.1,0.3,1.6,0.4c0.3,0.1,0.6,0.1,0.8,0.2c0.3,0.1,0.6,0.2,0.8,0.3
			c1.1,0.4,2.3,0.8,3.5,1.2c1.2,0.5,2.4,1,3.7,1.5c0.6,0.2,1.3,0.6,1.9,0.9c0.6,0.3,1.3,0.6,1.9,0.9c0.7,0.3,1.3,0.7,1.9,1
			c0.6,0.4,1.3,0.7,1.9,1.1c0.7,0.3,1.3,0.8,1.9,1.2c0.6,0.4,1.3,0.8,1.9,1.2c0.3,0.2,0.6,0.4,1,0.7c0.3,0.2,0.6,0.5,0.9,0.7
			c0.6,0.5,1.3,0.9,1.9,1.4c0.6,0.5,1.2,1,1.8,1.5c0.6,0.5,1.2,1,1.8,1.5c1.2,1.1,2.4,2.1,3.5,3.3l1.7,1.7c0.5,0.6,1.1,1.2,1.6,1.8
			c1.1,1.2,2.1,2.4,3.1,3.6c0.5,0.6,1,1.2,1.5,1.9c0.5,0.6,1,1.2,1.4,1.9c0.9,1.3,1.8,2.5,2.6,3.8c0.4,0.6,0.8,1.2,1.2,1.9
			c0.4,0.6,0.8,1.3,1.1,1.9c0.2,0.3,0.4,0.6,0.6,0.9c0.2,0.3,0.4,0.6,0.5,0.9c0.3,0.6,0.7,1.2,1,1.8c1.3,2.4,2.5,4.8,3.5,7
			c1,2.2,1.8,4.2,2.6,6.1c0.5,1.2,0.9,2.3,1.2,3.3c0.3,0,0.5,0,0.8,0c-0.6-1.4-0.8-2.4-0.8-2.4C138.4,138.4,139.6,127.9,143,119.6
			L143,119.6z"/>
		<path class="st6" d="M136.6,144.6c-1-2.2-2.2-4.5-3.5-7c-0.3-0.6-0.7-1.2-1-1.8c-0.2-0.3-0.3-0.6-0.5-0.9
			c-0.2-0.3-0.4-0.6-0.6-0.9c-0.4-0.6-0.8-1.2-1.1-1.9c-0.4-0.6-0.8-1.2-1.2-1.9c-0.8-1.3-1.7-2.5-2.6-3.8c-0.4-0.6-0.9-1.2-1.4-1.9
			c-0.5-0.6-0.9-1.3-1.5-1.9c-1-1.2-2-2.5-3.1-3.6c-0.5-0.6-1.1-1.2-1.6-1.8l-1.7-1.7c-1.1-1.2-2.3-2.2-3.5-3.3
			c-0.6-0.5-1.2-1-1.8-1.5c-0.6-0.5-1.2-1-1.8-1.5c-0.6-0.5-1.3-0.9-1.9-1.4c-0.3-0.2-0.6-0.5-0.9-0.7c-0.3-0.2-0.6-0.5-1-0.7
			c-0.6-0.4-1.3-0.8-1.9-1.2c-0.6-0.4-1.3-0.8-1.9-1.2c-0.7-0.4-1.3-0.7-1.9-1.1c-0.6-0.4-1.3-0.7-1.9-1c-0.6-0.3-1.3-0.6-1.9-0.9
			c-0.6-0.3-1.2-0.6-1.9-0.9c-1.3-0.5-2.5-1-3.7-1.5c-1.2-0.4-2.4-0.8-3.5-1.2c-0.3-0.1-0.6-0.2-0.8-0.3c-0.3-0.1-0.6-0.1-0.8-0.2
			c-0.6-0.1-1.1-0.3-1.6-0.4c-0.5-0.1-1-0.3-1.5-0.4c-0.2-0.1-0.5-0.1-0.7-0.2c-0.2,0-0.5-0.1-0.7-0.1c-0.9-0.2-1.8-0.4-2.7-0.5
			c-0.8-0.2-1.6-0.3-2.3-0.4c-2.7-0.3-4.3-0.5-4.3-0.5s1.6,0.3,4.3,0.7c0.7,0.1,1.4,0.3,2.2,0.5c0.8,0.2,1.7,0.4,2.6,0.6
			c0.2,0.1,0.5,0.1,0.7,0.2c0.2,0.1,0.5,0.1,0.7,0.2c0.5,0.2,1,0.3,1.5,0.5c0.5,0.2,1,0.3,1.6,0.5c0.3,0.1,0.5,0.2,0.8,0.3
			c0.3,0.1,0.5,0.2,0.8,0.3c1.1,0.4,2.2,0.9,3.4,1.3c1.2,0.5,2.3,1.1,3.6,1.6c0.6,0.3,1.2,0.6,1.8,0.9c0.6,0.3,1.2,0.7,1.8,1
			c0.6,0.3,1.2,0.7,1.8,1.1c0.6,0.4,1.2,0.8,1.8,1.1c0.6,0.4,1.2,0.8,1.8,1.2c0.6,0.4,1.2,0.9,1.8,1.3c0.3,0.2,0.6,0.4,0.9,0.7
			c0.3,0.2,0.6,0.5,0.9,0.7c0.6,0.5,1.2,1,1.8,1.4c0.6,0.5,1.1,1,1.7,1.5c0.6,0.5,1.2,1,1.7,1.6c1.1,1.1,2.2,2.2,3.3,3.3l1.6,1.7
			c0.5,0.6,1,1.2,1.5,1.8c1,1.2,1.9,2.4,2.8,3.6c0.5,0.6,0.9,1.2,1.3,1.9c0.4,0.6,0.9,1.2,1.3,1.9c0.8,1.3,1.6,2.5,2.4,3.8
			c0.4,0.6,0.7,1.2,1.1,1.9c0.3,0.6,0.7,1.2,1,1.9c0.2,0.3,0.3,0.6,0.5,0.9c0.2,0.3,0.3,0.6,0.5,0.9c0.3,0.6,0.6,1.2,0.9,1.8
			c1.1,2.4,2.2,4.7,3,6.9c0.9,2.2,1.6,4.2,2.2,5.9c0.2,0.5,0.3,1.1,0.5,1.6c1.5,0.2,3.1,0.3,4.7,0.3c-0.3-1-0.7-2.1-1.2-3.3
			C138.4,148.9,137.6,146.8,136.6,144.6z"/>
		<path class="st31" d="M190.8,91c-9.9,1-20.1,3.4-28.8,8.1c-2.3,1.2-4.4,2.6-6.5,4.2c-3.5,2.7-6.5,5.9-9,9.8
			c-1.3,2-2.5,4.2-3.5,6.6c0,0,0,0,0,0c-3.4,8.2-4.6,18.7-2.7,31.9c0,0,0.3,1,0.8,2.4c0.6,0,1.3,0,1.9,0c0,0,0.1,0,0.1,0
			c0.1,0,0.3,0,0.4,0c0.7,0,1.4,0,2.1,0c0.2-0.5,0.4-1.1,0.6-1.6c0.7-1.8,1.6-3.9,2.6-6.1c1-2.2,2.2-4.5,3.5-7
			c0.3-0.6,0.7-1.2,1-1.8c0.2-0.3,0.3-0.6,0.5-0.9c0.2-0.3,0.4-0.6,0.6-0.9c0.4-0.6,0.8-1.2,1.1-1.9c0.4-0.6,0.8-1.2,1.2-1.9
			c0.8-1.3,1.7-2.5,2.6-3.8c0.4-0.6,0.9-1.2,1.4-1.9c0.5-0.6,0.9-1.3,1.5-1.9c1-1.2,2-2.4,3.1-3.6c0.5-0.6,1.1-1.2,1.6-1.8l1.7-1.7
			c1.1-1.2,2.3-2.2,3.5-3.3c0.6-0.5,1.2-1,1.8-1.5c0.6-0.5,1.2-1,1.8-1.5c0.6-0.5,1.3-0.9,1.9-1.4c0.3-0.2,0.6-0.5,0.9-0.7
			c0.3-0.2,0.6-0.5,1-0.7c0.6-0.4,1.3-0.8,1.9-1.2c0.6-0.4,1.3-0.8,1.9-1.2c0.7-0.4,1.3-0.7,1.9-1.1c0.6-0.4,1.3-0.7,1.9-1
			c0.6-0.3,1.3-0.6,1.9-0.9c0.6-0.3,1.2-0.6,1.9-0.9c1.3-0.5,2.5-1,3.7-1.5c1.2-0.4,2.4-0.8,3.5-1.2c0.3-0.1,0.6-0.2,0.8-0.3
			c0.3-0.1,0.6-0.1,0.8-0.2c0.6-0.1,1.1-0.3,1.6-0.4c0.5-0.1,1-0.3,1.5-0.4c0.2-0.1,0.5-0.1,0.7-0.2c0.2,0,0.5-0.1,0.7-0.1
			c0.9-0.2,1.8-0.4,2.6-0.5c0.8-0.2,1.6-0.3,2.3-0.4c2.7-0.3,4.3-0.5,4.3-0.5s-1.6,0.3-4.3,0.7c-0.7,0.1-1.4,0.3-2.2,0.5
			c-0.8,0.2-1.7,0.4-2.6,0.6c-0.2,0.1-0.5,0.1-0.7,0.2c-0.2,0.1-0.5,0.1-0.7,0.2c-0.5,0.2-1,0.3-1.5,0.5c-0.5,0.2-1,0.3-1.6,0.5
			c-0.3,0.1-0.5,0.2-0.8,0.3c-0.3,0.1-0.5,0.2-0.8,0.3c-1.1,0.4-2.2,0.9-3.4,1.3c-1.1,0.5-2.3,1.1-3.6,1.6c-0.6,0.3-1.2,0.6-1.8,0.9
			c-0.6,0.3-1.2,0.7-1.8,1c-0.6,0.3-1.2,0.7-1.8,1.1c-0.6,0.4-1.2,0.8-1.8,1.2c-0.6,0.4-1.2,0.8-1.8,1.2c-0.6,0.4-1.2,0.9-1.8,1.3
			c-0.3,0.2-0.6,0.4-0.9,0.7c-0.3,0.2-0.6,0.5-0.9,0.7c-0.6,0.5-1.2,1-1.8,1.4c-0.6,0.5-1.1,1-1.7,1.5c-0.6,0.5-1.2,1-1.7,1.6
			c-1.1,1.1-2.2,2.2-3.3,3.3l-1.6,1.7c-0.5,0.6-1,1.2-1.5,1.8c-1,1.2-1.9,2.4-2.8,3.6c-0.5,0.6-0.9,1.2-1.3,1.9
			c-0.4,0.6-0.9,1.2-1.3,1.9c-0.8,1.3-1.6,2.5-2.4,3.8c-0.4,0.6-0.7,1.2-1.1,1.9c-0.3,0.6-0.7,1.2-1,1.9c-0.2,0.3-0.3,0.6-0.5,0.9
			c-0.2,0.3-0.3,0.6-0.5,0.9c-0.3,0.6-0.6,1.2-0.9,1.8c-1.1,2.4-2.2,4.7-3,6.9c-0.9,2.1-1.6,4.1-2.2,5.8
			c34.1-3.2,61.6-29.4,66.8-62.8C209.6,90.3,200.3,90,190.8,91z"/>
		<path class="st6" d="M155.4,141c0.3-0.6,0.6-1.2,0.9-1.8c0.2-0.3,0.3-0.6,0.5-0.9c0.2-0.3,0.3-0.6,0.5-0.9c0.3-0.6,0.7-1.2,1-1.9
			c0.4-0.6,0.7-1.2,1.1-1.9c0.7-1.3,1.6-2.5,2.4-3.8c0.4-0.6,0.9-1.2,1.3-1.9c0.4-0.6,0.9-1.3,1.3-1.9c0.9-1.2,1.8-2.5,2.8-3.6
			c0.5-0.6,1-1.2,1.5-1.8l1.6-1.7c1-1.2,2.2-2.2,3.3-3.3c0.5-0.6,1.1-1.1,1.7-1.6c0.6-0.5,1.1-1,1.7-1.5c0.6-0.5,1.2-1,1.8-1.4
			c0.3-0.2,0.6-0.5,0.9-0.7c0.3-0.2,0.6-0.5,0.9-0.7c0.6-0.4,1.2-0.9,1.8-1.3c0.6-0.4,1.2-0.9,1.8-1.2c0.6-0.4,1.2-0.8,1.8-1.2
			c0.6-0.4,1.2-0.8,1.8-1.1c0.6-0.3,1.2-0.7,1.8-1c0.6-0.3,1.2-0.7,1.8-0.9c1.2-0.6,2.4-1.1,3.6-1.6c1.2-0.5,2.3-0.9,3.4-1.3
			c0.3-0.1,0.5-0.2,0.8-0.3c0.3-0.1,0.5-0.2,0.8-0.3c0.5-0.2,1.1-0.3,1.6-0.5c0.5-0.2,1-0.3,1.5-0.5c0.2-0.1,0.5-0.1,0.7-0.2
			c0.2-0.1,0.5-0.1,0.7-0.2c0.9-0.2,1.8-0.4,2.6-0.6c0.8-0.2,1.5-0.4,2.2-0.5c2.7-0.5,4.3-0.7,4.3-0.7s-1.6,0.2-4.3,0.5
			c-0.7,0.1-1.4,0.2-2.3,0.4c-0.8,0.2-1.7,0.3-2.6,0.5c-0.2,0-0.5,0.1-0.7,0.1c-0.2,0.1-0.5,0.1-0.7,0.2c-0.5,0.1-1,0.3-1.5,0.4
			c-0.5,0.1-1.1,0.3-1.6,0.4c-0.3,0.1-0.6,0.1-0.8,0.2c-0.3,0.1-0.6,0.2-0.8,0.3c-1.1,0.4-2.3,0.8-3.5,1.2c-1.2,0.5-2.4,1-3.7,1.5
			c-0.6,0.2-1.3,0.6-1.9,0.9c-0.6,0.3-1.3,0.6-1.9,0.9c-0.7,0.3-1.3,0.7-1.9,1c-0.6,0.4-1.3,0.7-1.9,1.1c-0.7,0.3-1.3,0.8-1.9,1.2
			c-0.6,0.4-1.3,0.8-1.9,1.2c-0.3,0.2-0.6,0.4-1,0.7c-0.3,0.2-0.6,0.5-0.9,0.7c-0.6,0.5-1.3,0.9-1.9,1.4c-0.6,0.5-1.2,1-1.8,1.5
			c-0.6,0.5-1.2,1-1.8,1.5c-1.2,1.1-2.4,2.1-3.5,3.3l-1.7,1.7c-0.5,0.6-1.1,1.2-1.6,1.8c-1.1,1.2-2.1,2.4-3.1,3.6
			c-0.5,0.6-1,1.2-1.5,1.9c-0.5,0.6-1,1.2-1.4,1.9c-0.9,1.3-1.8,2.5-2.6,3.8c-0.4,0.6-0.8,1.2-1.2,1.9c-0.4,0.6-0.8,1.3-1.1,1.9
			c-0.2,0.3-0.4,0.6-0.6,0.9c-0.2,0.3-0.4,0.6-0.5,0.9c-0.3,0.6-0.7,1.2-1,1.8c-1.3,2.4-2.5,4.8-3.5,7c-1,2.2-1.8,4.2-2.6,6.1
			c-0.2,0.6-0.4,1.1-0.6,1.6c1.5-0.1,3.1-0.2,4.6-0.3c0.6-1.8,1.3-3.7,2.2-5.8C153.3,145.7,154.3,143.4,155.4,141z"/>
	</g>
</g>
</svg>
