<svg xmlns="http://www.w3.org/2000/svg" viewBox="0 0 1004.87 1045.9"><defs><style>.cls-1{fill:#232323;}.cls-2{opacity:0.03;font-size:34.9px;fill:#fafafa;font-family:MyriadPro-Bold, Myriad Pro;font-weight:700;}</style></defs><title>bgdiesel</title><g id="Capa_4" data-name="Capa 4"><rect class="cls-1" x="-9.06" y="-12.5" width="1022.99" height="1070.9"/><text class="cls-2" transform="translate(121.27 206.93)">DIESEL</text><text class="cls-2" transform="translate(277.12 206.93)">DIESEL</text><text class="cls-2" transform="translate(439.76 206.93)">DIESEL</text><text class="cls-2" transform="translate(601.96 206.93)">DIESEL</text><text class="cls-2" transform="translate(764.59 206.93)">DIESEL</text><text class="cls-2" transform="translate(204.36 276.03)">DIESEL</text><text class="cls-2" transform="translate(360.22 276.03)">DIESEL</text><text class="cls-2" transform="translate(522.85 276.03)">DIESEL</text><text class="cls-2" transform="translate(685.05 276.03)">DIESEL</text><text class="cls-2" transform="translate(847.69 276.03)">DIESEL</text><text class="cls-2" transform="translate(49.92 276.03)">DIESEL</text><text class="cls-2" transform="translate(121.27 70.76)">DIESEL</text><text class="cls-2" transform="translate(49.92 70.76)">SEL</text><text class="cls-2" transform="translate(277.12 70.76)">DIESEL</text><text class="cls-2" transform="translate(439.76 70.76)">DIESEL</text><text class="cls-2" transform="translate(601.96 70.76)">DIESEL</text><text class="cls-2" transform="translate(764.59 70.76)">DIESEL</text><text class="cls-2" transform="translate(908.59 70.76)">DI</text><text class="cls-2" transform="translate(49.91 206.93)">SEL</text><text class="cls-2" transform="translate(908.59 206.93)">DI</text><text class="cls-2" transform="translate(49.92 350.53)">SEL</text><text class="cls-2" transform="translate(908.59 350.53)">DI</text><text class="cls-2" transform="translate(49.92 494.5)">SEL</text><text class="cls-2" transform="translate(908.59 494.5)">DI</text><text class="cls-2" transform="translate(49.92 638.1)">SEL</text><text class="cls-2" transform="translate(908.59 638.1)">DI</text><text class="cls-2" transform="translate(49.92 777.66)">SEL</text><text class="cls-2" transform="translate(908.59 777.66)">DI</text><text class="cls-2" transform="translate(49.92 921.26)">SEL</text><text class="cls-2" transform="translate(908.59 921.26)">DI</text><text class="cls-2" transform="translate(204.36 139.86)">DIESEL</text><text class="cls-2" transform="translate(360.22 139.86)">DIESEL</text><text class="cls-2" transform="translate(522.85 139.86)">DIESEL</text><text class="cls-2" transform="translate(685.05 139.86)">DIESEL</text><text class="cls-2" transform="translate(847.69 139.86)">DIESEL</text><text class="cls-2" transform="translate(49.92 139.86)">DIESEL</text><text class="cls-2" transform="translate(121.27 350.53)">DIESEL</text><text class="cls-2" transform="translate(277.12 350.53)">DIESEL</text><text class="cls-2" transform="translate(439.76 350.53)">DIESEL</text><text class="cls-2" transform="translate(601.96 350.53)">DIESEL</text><text class="cls-2" transform="translate(764.59 350.53)">DIESEL</text><text class="cls-2" transform="translate(204.36 419.63)">DIESEL</text><text class="cls-2" transform="translate(360.22 419.63)">DIESEL</text><text class="cls-2" transform="translate(522.85 419.63)">DIESEL</text><text class="cls-2" transform="translate(685.05 419.63)">DIESEL</text><text class="cls-2" transform="translate(847.69 419.63)">DIESEL</text><text class="cls-2" transform="translate(49.92 419.63)">DIESEL</text><text class="cls-2" transform="translate(121.27 494.5)">DIESEL</text><text class="cls-2" transform="translate(277.12 494.5)">DIESEL</text><text class="cls-2" transform="translate(439.76 494.5)">DIESEL</text><text class="cls-2" transform="translate(601.96 494.5)">DIESEL</text><text class="cls-2" transform="translate(764.59 494.5)">DIESEL</text><text class="cls-2" transform="translate(204.36 563.6)">DIESEL</text><text class="cls-2" transform="translate(360.22 563.6)">DIESEL</text><text class="cls-2" transform="translate(522.85 563.6)">DIESEL</text><text class="cls-2" transform="translate(685.05 563.6)">DIESEL</text><text class="cls-2" transform="translate(847.69 563.6)">DIESEL</text><text class="cls-2" transform="translate(49.92 563.6)">DIESEL</text><text class="cls-2" transform="translate(121.27 638.1)">DIESEL</text><text class="cls-2" transform="translate(277.12 638.1)">DIESEL</text><text class="cls-2" transform="translate(439.76 638.1)">DIESEL</text><text class="cls-2" transform="translate(601.96 638.1)">DIESEL</text><text class="cls-2" transform="translate(764.59 638.1)">DIESEL</text><text class="cls-2" transform="translate(204.36 707.2)">DIESEL</text><text class="cls-2" transform="translate(360.22 707.2)">DIESEL</text><text class="cls-2" transform="translate(522.85 707.2)">DIESEL</text><text class="cls-2" transform="translate(685.05 707.2)">DIESEL</text><text class="cls-2" transform="translate(847.69 707.2)">DIESEL</text><text class="cls-2" transform="translate(49.92 707.2)">DIESEL</text><text class="cls-2" transform="translate(121.27 777.66)">DIESEL</text><text class="cls-2" transform="translate(277.12 777.66)">DIESEL</text><text class="cls-2" transform="translate(439.76 777.66)">DIESEL</text><text class="cls-2" transform="translate(601.96 777.66)">DIESEL</text><text class="cls-2" transform="translate(764.59 777.66)">DIESEL</text><text class="cls-2" transform="translate(204.36 846.76)">DIESEL</text><text class="cls-2" transform="translate(360.22 846.76)">DIESEL</text><text class="cls-2" transform="translate(522.85 846.76)">DIESEL</text><text class="cls-2" transform="translate(685.05 846.76)">DIESEL</text><text class="cls-2" transform="translate(847.69 846.76)">DIESEL</text><text class="cls-2" transform="translate(49.92 846.76)">DIESEL</text><text class="cls-2" transform="translate(121.27 921.26)">DIESEL</text><text class="cls-2" transform="translate(277.12 921.26)">DIESEL</text><text class="cls-2" transform="translate(439.76 921.26)">DIESEL</text><text class="cls-2" transform="translate(601.96 921.26)">DIESEL</text><text class="cls-2" transform="translate(764.59 921.26)">DIESEL</text><text class="cls-2" transform="translate(204.36 990.36)">DIESEL</text><text class="cls-2" transform="translate(360.22 990.36)">DIESEL</text><text class="cls-2" transform="translate(522.85 990.36)">DIESEL</text><text class="cls-2" transform="translate(685.05 990.36)">DIESEL</text><text class="cls-2" transform="translate(847.69 990.36)">DIESEL</text><text class="cls-2" transform="translate(49.92 990.36)">DIESEL</text></g></svg>