<svg xmlns="http://www.w3.org/2000/svg" viewBox="0 0 1004.87 1045.9"><defs><style>.cls-1{fill:#dcddde;}.cls-2{opacity:0.03;font-size:40.85px;font-family:MyriadPro-Bold, Myriad Pro;font-weight:700;}</style></defs><title>bggasolina</title><g id="Capa_4" data-name="Capa 4"><rect class="cls-1" x="-9.06" y="-12.5" width="1022.99" height="1070.9"/><text class="cls-2" transform="translate(151.48 143.34)">GASOLINA</text><text class="cls-2" transform="translate(390.04 143.34)">GASOLINA</text><text class="cls-2" transform="translate(637.59 143.34)">GASOLINA</text><text class="cls-2" transform="translate(42.03 217.68)">GASOLINA</text><text class="cls-2" transform="translate(280.59 217.68)">GASOLINA</text><text class="cls-2" transform="translate(528.13 217.68)">GASOLINA</text><text class="cls-2" transform="translate(769.47 217.68)">GASOLINA</text><text class="cls-2" transform="translate(53.76 74.82)">GASOLINA</text><text class="cls-2" transform="translate(292.33 74.82)">GASOLINA</text><text class="cls-2" transform="translate(539.87 74.82)">GASOLINA</text><text class="cls-2" transform="translate(781.21 74.82)">GASOLINA</text><text class="cls-2" transform="translate(147.32 299.95)">GASOLINA</text><text class="cls-2" transform="translate(385.89 299.95)">GASOLINA</text><text class="cls-2" transform="translate(633.43 299.95)">GASOLINA</text><text class="cls-2" transform="translate(37.87 372.67)">GASOLINA</text><text class="cls-2" transform="translate(276.44 372.67)">GASOLINA</text><text class="cls-2" transform="translate(523.98 372.67)">GASOLINA</text><text class="cls-2" transform="translate(765.31 372.67)">GASOLINA</text><text class="cls-2" transform="translate(149.4 455.96)">GASOLINA</text><text class="cls-2" transform="translate(387.97 455.96)">GASOLINA</text><text class="cls-2" transform="translate(635.51 455.96)">GASOLINA</text><text class="cls-2" transform="translate(39.95 530.31)">GASOLINA</text><text class="cls-2" transform="translate(278.51 530.31)">GASOLINA</text><text class="cls-2" transform="translate(526.06 530.31)">GASOLINA</text><text class="cls-2" transform="translate(767.39 530.31)">GASOLINA</text><text class="cls-2" transform="translate(145.24 612.57)">GASOLINA</text><text class="cls-2" transform="translate(383.81 612.57)">GASOLINA</text><text class="cls-2" transform="translate(631.35 612.57)">GASOLINA</text><text class="cls-2" transform="translate(35.79 685.29)">GASOLINA</text><text class="cls-2" transform="translate(274.36 685.29)">GASOLINA</text><text class="cls-2" transform="translate(521.9 685.29)">GASOLINA</text><text class="cls-2" transform="translate(763.24 685.29)">GASOLINA</text><text class="cls-2" transform="translate(149.4 759.89)">GASOLINA</text><text class="cls-2" transform="translate(387.97 759.89)">GASOLINA</text><text class="cls-2" transform="translate(635.51 759.89)">GASOLINA</text><text class="cls-2" transform="translate(39.95 834.23)">GASOLINA</text><text class="cls-2" transform="translate(278.51 834.23)">GASOLINA</text><text class="cls-2" transform="translate(526.06 834.23)">GASOLINA</text><text class="cls-2" transform="translate(767.39 834.23)">GASOLINA</text><text class="cls-2" transform="translate(145.24 916.5)">GASOLINA</text><text class="cls-2" transform="translate(42.03 916.5)">INA</text><text class="cls-2" transform="translate(383.81 916.5)">GASOLINA</text><text class="cls-2" transform="translate(631.35 916.5)">GASOLINA</text><text class="cls-2" transform="translate(877.52 916.5)">GAS</text><text class="cls-2" transform="translate(45.28 752.92)">INA</text><text class="cls-2" transform="translate(880.77 752.92)">GAS</text><text class="cls-2" transform="translate(45.28 612.57)">INA</text><text class="cls-2" transform="translate(880.77 612.57)">GAS</text><text class="cls-2" transform="translate(39.18 455.96)">INA</text><text class="cls-2" transform="translate(874.68 455.96)">GAS</text><text class="cls-2" transform="translate(45.28 299.95)">INA</text><text class="cls-2" transform="translate(880.77 299.95)">GAS</text><text class="cls-2" transform="translate(55.17 143.34)">INA</text><text class="cls-2" transform="translate(890.66 143.34)">GAS</text><text class="cls-2" transform="translate(35.79 989.21)">GASOLINA</text><text class="cls-2" transform="translate(274.36 989.21)">GASOLINA</text><text class="cls-2" transform="translate(521.9 989.21)">GASOLINA</text><text class="cls-2" transform="translate(763.24 989.21)">GASOLINA</text></g></svg>