<svg xmlns="http://www.w3.org/2000/svg" viewBox="0 0 1413.14 669"><defs><style>.cls-1{fill:#232323;}.cls-2{opacity:0.05;}.cls-3{fill:#fff;}</style></defs><title>Front End_SAICOR</title><g id="Capa_4" data-name="Capa 4"><rect class="cls-1" x="-36" y="-17.04" width="1494.87" height="707.69"/><g class="cls-2"><path class="cls-3" d="M247.68,56.45a50,50,0,0,0-25.83,1.81,34.92,34.92,0,0,0-14.23,9.13c-7,7.69-8,19.22-1,26.72l-.81.84-1.23,1.29a67.25,67.25,0,0,0-4.55,5.42,62.33,62.33,0,0,0-3.59,5.35c-.23.39-.44.77-.65,1.13-.23-.44-.52-1-.86-1.58a39.06,39.06,0,0,0-2.54-3.93,2.93,2.93,0,0,0,.56-.49c2.34-2.65,2.53-6.39,2.35-8.67-.41-5.16-4.4-10.72-8.27-13.93-7.12-5.9-13.13-5.1-16.43-7-.26,3,.09,9,1,11.91,2,6.29,4.09,10.32,8.6,15.13,2.76,3,8.35,4.67,11.4,3.48.32.58.65,1.16.94,1.75a18.82,18.82,0,0,1,1.95,4.55c.32,1.54-1,2.91-1.53,4.38-.28.79-1.44,2.71-.82,3.52.4.52,1.69.3,2.23.13,1.42-.45,2.29-2.15,2.69-3.47a42.12,42.12,0,0,1,2.32-5.33,58.1,58.1,0,0,1,2.89-5.41,66.92,66.92,0,0,1,3.83-5.67c.34-.46.7-.92,1.06-1.36l.65-.84a20.41,20.41,0,0,0,14,5.28c11.13-.34,21.92-9.89,30.45-17,6.31-5.28,16.84-7.94,20.67-8.58C267.33,65.62,258.46,58.57,247.68,56.45Z"/><path class="cls-3" d="M97,93.65l-.23-8,4.87-3.53-3.11-8.76-6,.34-4.89-6.34,1.87-5.73L81.76,56.4l-4.65,3.81-7.66-2.26-1.88-5.72-9.29.25-1.54,5.83L49.21,61l-4.87-3.52-3.68,2.83L37,63.13l2.18,5.6-4.51,6.61h-6L26,84.26l5.07,3.26.22,8-4.87,3.53,3.13,8.75,6-.34,4.89,6.34-1.85,5.73,7.67,5.25L50.9,121l7.68,2.25,1.85,5.72,9.3-.27,1.54-5.8,7.53-2.7,4.86,3.53,3.68-2.84L91,118l-2.17-5.61,4.51-6.58,6,0L102,96.9ZM74.44,104.52a17.45,17.45,0,0,1-9.7,3.45h-.49a17.3,17.3,0,0,1-9.86-2.9L54,104.8a17.38,17.38,0,0,1-6.28-8.15l-.15-.45a17.35,17.35,0,0,1-.3-10.29l.14-.47A17.36,17.36,0,0,1,53.19,77l.19-.15.2-.15a17.31,17.31,0,0,1,9.68-3.44l.5,0a17.44,17.44,0,0,1,9.87,2.91l.39.27a17.35,17.35,0,0,1,6.28,8.15l.18.47a17.39,17.39,0,0,1,.29,10.27l-.15.49a17.4,17.4,0,0,1-5.79,8.49l-.2.15Z"/><path class="cls-3" d="M433.38,78.8c0-2.17-3.53-4.5-6.87-4.5a5,5,0,0,0-5.07,3.44l-6.54-10.57c-2.08-3.37-7.46-4.89-27-4.89h-.1c-19.47,0-24.84,1.53-26.92,4.89l-6.53,10.57a5,5,0,0,0-5.07-3.44c-3.33,0-6.86,2.33-6.86,4.5s3.53,3.4,6.86,3.4c.29,0,.57,0,.84,0-1.93,1.72-3.86,3.3-3.86,3.3a8.84,8.84,0,0,0-2.46,5.65v14.39a4.28,4.28,0,0,0,2.1,3.38v7.61a2.4,2.4,0,0,0,2.39,2.39H358.8a2.4,2.4,0,0,0,2.39-2.39v-3.08a199.75,199.75,0,0,0,26.6,1.52h.1a200.06,200.06,0,0,0,26.7-1.52v3.08a2.4,2.4,0,0,0,2.39,2.39h10.53a2.4,2.4,0,0,0,2.39-2.39v-7.61a4.29,4.29,0,0,0,2.1-3.38V91.12a8.82,8.82,0,0,0-2.47-5.65s-1.92-1.59-3.86-3.3c.27,0,.55,0,.84,0C429.85,82.21,433.38,81,433.38,78.8ZM363,68.5c1.37-2.21,6.1-3.68,24.77-3.68h.1c18.75,0,23.5,1.47,24.87,3.68L419,79.67s-8,1.68-31.1,1.68h-.1c-23,0-31-1.68-31-1.68Zm-7.08,26.44c-4.14-.36-6-2.05-5.76-5.07.19-2.14,2.32-3.35,6.46-3,5.92.51,8.7,2.17,8.52,4.3C364.9,94.19,360.08,95.29,355.94,94.93Zm48.64,10.83c-1.51,1.51-9.16,2.25-16.79,2.25s-15.1-.75-16.59-2.25a3.89,3.89,0,0,1,0-4.44c1.49-1.49,9-2.24,16.59-2.25s15.28.74,16.79,2.25A3.94,3.94,0,0,1,404.58,105.77Zm15.26-10.83c-4.13.36-9-.74-9.23-3.76-.19-2.14,2.6-3.79,8.53-4.3,4.13-.36,6.27.86,6.46,3C425.87,92.88,424,94.57,419.84,94.93Z"/><path class="cls-3" d="M724.56,60.87a50,50,0,0,0-25.83,1.81,34.92,34.92,0,0,0-14.23,9.13c-7,7.69-8,19.22-1,26.72l-.81.84-1.23,1.29a67.25,67.25,0,0,0-4.55,5.42,62.33,62.33,0,0,0-3.59,5.35c-.23.39-.44.77-.65,1.13-.23-.44-.52-1-.86-1.58a39.06,39.06,0,0,0-2.54-3.93,2.93,2.93,0,0,0,.56-.49c2.34-2.65,2.53-6.39,2.35-8.67-.41-5.16-4.4-10.72-8.27-13.93-7.12-5.9-13.13-5.1-16.43-7-.26,3,.09,9,1,11.91,2,6.29,4.09,10.32,8.6,15.13,2.76,3,8.35,4.67,11.4,3.48.32.58.65,1.16.94,1.75a18.82,18.82,0,0,1,1.95,4.55c.32,1.54-1,2.91-1.53,4.38-.28.79-1.44,2.71-.82,3.52.4.52,1.69.3,2.23.13,1.42-.45,2.29-2.15,2.69-3.47a42.12,42.12,0,0,1,2.32-5.33,58.1,58.1,0,0,1,2.89-5.41,66.92,66.92,0,0,1,3.83-5.67c.34-.46.7-.92,1.06-1.36l.65-.84a20.41,20.41,0,0,0,14,5.28c11.13-.34,21.92-9.89,30.45-17C735.43,82.7,746,80,749.79,79.4,744.21,70,735.35,63,724.56,60.87Z"/><path class="cls-3" d="M573.84,98.06l-.23-8,4.87-3.53-3.11-8.76-6,.34-4.89-6.34,1.87-5.73-7.68-5.24L554,64.62l-7.66-2.26-1.88-5.72-9.29.25-1.54,5.83-7.53,2.67-4.87-3.52-3.68,2.83-3.68,2.84,2.18,5.6-4.51,6.61h-6l-2.62,8.92,5.07,3.26.22,8-4.87,3.53,3.13,8.75,6-.34,4.89,6.34-1.85,5.73,7.67,5.25,4.66-3.81,7.68,2.25,1.85,5.72,9.3-.27,1.54-5.8,7.53-2.7,4.86,3.53,3.68-2.84,3.68-2.83-2.17-5.61,4.51-6.58,6,0,2.61-8.91Zm-22.52,10.88a17.45,17.45,0,0,1-9.7,3.45h-.49a17.3,17.3,0,0,1-9.86-2.9l-.42-.28a17.38,17.38,0,0,1-6.28-8.15l-.15-.45a17.35,17.35,0,0,1-.3-10.29l.14-.47a17.36,17.36,0,0,1,5.81-8.5l.19-.15.2-.15a17.31,17.31,0,0,1,9.68-3.44l.5,0a17.44,17.44,0,0,1,9.87,2.91l.39.27a17.35,17.35,0,0,1,6.28,8.15l.18.47a17.39,17.39,0,0,1,.29,10.27l-.15.49a17.4,17.4,0,0,1-5.79,8.49l-.2.15Z"/><path class="cls-3" d="M910.26,83.22c0-2.17-3.53-4.5-6.87-4.5a5,5,0,0,0-5.07,3.44l-6.54-10.57c-2.08-3.37-7.46-4.89-27-4.89h-.1c-19.47,0-24.84,1.53-26.92,4.89l-6.53,10.57a5,5,0,0,0-5.07-3.44c-3.33,0-6.86,2.33-6.86,4.5s3.53,3.4,6.86,3.4c.29,0,.57,0,.84,0-1.93,1.72-3.86,3.3-3.86,3.3a8.84,8.84,0,0,0-2.46,5.65v14.39a4.28,4.28,0,0,0,2.1,3.38v7.61a2.4,2.4,0,0,0,2.39,2.39h10.52a2.4,2.4,0,0,0,2.39-2.39v-3.08a199.75,199.75,0,0,0,26.6,1.52h.1a200.06,200.06,0,0,0,26.7-1.52v3.08a2.4,2.4,0,0,0,2.39,2.39h10.53a2.4,2.4,0,0,0,2.39-2.39V113.3a4.29,4.29,0,0,0,2.1-3.38V95.54a8.82,8.82,0,0,0-2.47-5.65s-1.92-1.59-3.86-3.3c.27,0,.55,0,.84,0C906.73,86.62,910.26,85.4,910.26,83.22ZM839.9,72.91c1.37-2.21,6.1-3.68,24.77-3.68h.1c18.75,0,23.5,1.47,24.87,3.68l6.23,11.17s-8,1.68-31.1,1.68h-.1c-23,0-31-1.68-31-1.68Zm-7.08,26.44c-4.14-.36-6-2.05-5.76-5.07.19-2.14,2.32-3.35,6.46-3,5.92.51,8.7,2.17,8.52,4.3C841.79,98.61,837,99.7,832.82,99.34Zm48.64,10.83c-1.51,1.51-9.16,2.25-16.79,2.25s-15.1-.75-16.59-2.25a3.89,3.89,0,0,1,0-4.44c1.49-1.49,9-2.24,16.59-2.25s15.28.74,16.79,2.25A3.94,3.94,0,0,1,881.46,110.18Zm15.26-10.83c-4.13.36-9-.74-9.23-3.76-.19-2.14,2.6-3.79,8.53-4.3,4.13-.36,6.27.86,6.46,3C902.75,97.29,900.86,99,896.72,99.34Z"/><path class="cls-3" d="M1201.44,56.83a50,50,0,0,0-25.83,1.81,34.92,34.92,0,0,0-14.23,9.13c-7,7.69-8,19.22-1,26.72l-.81.84-1.23,1.29a67.25,67.25,0,0,0-4.55,5.42,62.33,62.33,0,0,0-3.59,5.35c-.23.39-.44.77-.65,1.13-.23-.44-.52-1-.86-1.58a39.06,39.06,0,0,0-2.54-3.93,2.93,2.93,0,0,0,.56-.49c2.34-2.65,2.53-6.39,2.35-8.67-.41-5.16-4.4-10.72-8.27-13.93-7.12-5.9-13.13-5.1-16.43-7-.26,3,.09,9,1,11.91,2,6.29,4.09,10.32,8.6,15.13,2.76,3,8.35,4.67,11.4,3.48.32.58.65,1.16.94,1.75a18.82,18.82,0,0,1,1.95,4.55c.32,1.54-1,2.91-1.53,4.38-.28.79-1.44,2.71-.82,3.52.4.52,1.69.3,2.23.13,1.42-.45,2.29-2.15,2.69-3.47a42.12,42.12,0,0,1,2.32-5.33,58.1,58.1,0,0,1,2.89-5.41,66.92,66.92,0,0,1,3.83-5.67c.34-.46.7-.92,1.06-1.36l.65-.84a20.41,20.41,0,0,0,14,5.28c11.13-.34,21.92-9.89,30.45-17,6.31-5.28,16.84-7.94,20.67-8.58C1221.09,66,1212.23,58.95,1201.44,56.83Z"/><path class="cls-3" d="M1050.72,94l-.23-8,4.87-3.53-3.11-8.76-6,.34-4.89-6.34L1043.2,62l-7.68-5.24-4.65,3.81-7.66-2.26-1.88-5.72-9.29.25-1.54,5.83L1003,61.36l-4.87-3.52-3.68,2.83-3.68,2.84,2.18,5.6-4.51,6.61h-6l-2.62,8.92,5.07,3.26.22,8-4.87,3.53,3.13,8.75,6-.34,4.89,6.34-1.85,5.73,7.67,5.25,4.66-3.81,7.68,2.25,1.85,5.72,9.3-.27,1.54-5.8,7.53-2.7,4.86,3.53,3.68-2.84,3.68-2.83-2.17-5.61,4.51-6.58,6,0,2.61-8.91ZM1028.2,104.9a17.45,17.45,0,0,1-9.7,3.45H1018a17.3,17.3,0,0,1-9.86-2.9l-.42-.28a17.38,17.38,0,0,1-6.28-8.15l-.15-.45a17.35,17.35,0,0,1-.3-10.29l.14-.47a17.36,17.36,0,0,1,5.81-8.5l.19-.15.2-.15a17.31,17.31,0,0,1,9.68-3.44l.5,0a17.44,17.44,0,0,1,9.87,2.91l.39.27a17.35,17.35,0,0,1,6.28,8.15l.18.47a17.39,17.39,0,0,1,.29,10.27l-.15.49a17.4,17.4,0,0,1-5.79,8.49l-.2.15Z"/><path class="cls-3" d="M1387.14,79.18c0-2.17-3.53-4.5-6.87-4.5a5,5,0,0,0-5.07,3.44l-6.54-10.57c-2.08-3.37-7.46-4.89-27-4.89h-.1c-19.47,0-24.84,1.53-26.92,4.89l-6.53,10.57a5,5,0,0,0-5.07-3.44c-3.33,0-6.86,2.33-6.86,4.5s3.53,3.4,6.86,3.4c.29,0,.57,0,.84,0-1.93,1.72-3.86,3.3-3.86,3.3a8.84,8.84,0,0,0-2.46,5.65v14.39a4.28,4.28,0,0,0,2.1,3.38v7.61a2.4,2.4,0,0,0,2.39,2.39h10.52a2.4,2.4,0,0,0,2.39-2.39v-3.08a199.75,199.75,0,0,0,26.6,1.52h.1a200.06,200.06,0,0,0,26.7-1.52v3.08a2.4,2.4,0,0,0,2.39,2.39h10.53a2.4,2.4,0,0,0,2.39-2.39v-7.61a4.29,4.29,0,0,0,2.1-3.38V91.5a8.82,8.82,0,0,0-2.47-5.65s-1.92-1.59-3.86-3.3c.27,0,.55,0,.84,0C1383.61,82.58,1387.14,81.37,1387.14,79.18Zm-70.36-10.31c1.37-2.21,6.1-3.68,24.77-3.68h.1c18.75,0,23.5,1.47,24.87,3.68L1372.76,80s-8,1.68-31.1,1.68h-.1c-23,0-31-1.68-31-1.68Zm-7.08,26.44c-4.14-.36-6-2.05-5.76-5.07.19-2.14,2.32-3.35,6.46-3,5.92.51,8.7,2.17,8.52,4.3C1318.67,94.57,1313.84,95.67,1309.7,95.31Zm48.64,10.83c-1.51,1.51-9.16,2.25-16.79,2.25s-15.1-.75-16.59-2.25a3.89,3.89,0,0,1,0-4.44c1.49-1.49,9-2.24,16.59-2.25s15.28.74,16.79,2.25A3.94,3.94,0,0,1,1358.34,106.14Zm15.26-10.83c-4.13.36-9-.74-9.23-3.76-.19-2.14,2.6-3.79,8.53-4.3,4.13-.36,6.27.86,6.46,3C1379.63,93.26,1377.74,94.95,1373.6,95.31Z"/></g><g class="cls-2"><path class="cls-3" d="M883.89,219.2A50,50,0,0,0,858.06,221a34.92,34.92,0,0,0-14.23,9.13c-7,7.69-8,19.22-1,26.72l-.81.84L840.81,259a67.25,67.25,0,0,0-4.55,5.42,62.33,62.33,0,0,0-3.59,5.35c-.23.39-.44.77-.65,1.13-.23-.44-.52-1-.86-1.58a39.06,39.06,0,0,0-2.54-3.93,2.93,2.93,0,0,0,.56-.49c2.34-2.65,2.53-6.39,2.35-8.67-.41-5.16-4.4-10.72-8.27-13.93-7.12-5.9-13.13-5.1-16.43-7-.26,3,.09,9,1,11.91,2,6.29,4.09,10.32,8.6,15.13,2.76,3,8.35,4.67,11.4,3.48.32.58.65,1.16.94,1.75a18.82,18.82,0,0,1,1.95,4.55c.32,1.54-1,2.91-1.53,4.38-.28.79-1.44,2.71-.82,3.52.4.52,1.69.3,2.23.13,1.42-.45,2.29-2.15,2.69-3.47a42.12,42.12,0,0,1,2.32-5.33,58.1,58.1,0,0,1,2.89-5.41,66.92,66.92,0,0,1,3.83-5.67c.34-.46.7-.92,1.06-1.36L844,258a20.41,20.41,0,0,0,14,5.28c11.13-.34,21.92-9.89,30.45-17,6.31-5.28,16.84-7.94,20.67-8.58C903.54,228.36,894.68,221.32,883.89,219.2Z"/><path class="cls-3" d="M733.17,256.4l-.23-8,4.87-3.53-3.11-8.76-6,.34-4.89-6.34,1.87-5.73L718,219.15,713.32,223l-7.66-2.26L703.78,215l-9.29.25L693,221.06l-7.53,2.67-4.87-3.52L676.87,223l-3.68,2.84,2.18,5.6-4.51,6.61h-6L662.22,247l5.07,3.26.22,8-4.87,3.53,3.13,8.75,6-.34,4.89,6.34-1.85,5.73,7.67,5.25,4.66-3.81L694.8,286l1.85,5.72,9.3-.27,1.54-5.8,7.53-2.7,4.86,3.53,3.68-2.84,3.68-2.83-2.17-5.61,4.51-6.58,6,0,2.61-8.91Zm-22.52,10.88a17.45,17.45,0,0,1-9.7,3.45h-.49a17.3,17.3,0,0,1-9.86-2.9l-.42-.28a17.38,17.38,0,0,1-6.28-8.15l-.15-.45a17.35,17.35,0,0,1-.3-10.29l.14-.47a17.36,17.36,0,0,1,5.81-8.5l.19-.15.2-.15a17.31,17.31,0,0,1,9.68-3.44l.5,0a17.44,17.44,0,0,1,9.87,2.91l.39.27a17.35,17.35,0,0,1,6.28,8.15l.18.47A17.39,17.39,0,0,1,717,258l-.15.49A17.4,17.4,0,0,1,711,267l-.2.15Z"/><path class="cls-3" d="M1069.6,241.55c0-2.17-3.53-4.5-6.87-4.5a5,5,0,0,0-5.07,3.44l-6.54-10.57c-2.08-3.37-7.46-4.89-27-4.89h-.1c-19.47,0-24.84,1.53-26.92,4.89l-6.53,10.57a5,5,0,0,0-5.07-3.44c-3.33,0-6.86,2.33-6.86,4.5s3.53,3.4,6.86,3.4c.29,0,.57,0,.84,0-1.93,1.72-3.86,3.3-3.86,3.3a8.84,8.84,0,0,0-2.46,5.65v14.39a4.28,4.28,0,0,0,2.1,3.38v7.61a2.4,2.4,0,0,0,2.39,2.39H995a2.4,2.4,0,0,0,2.39-2.39v-3.08a199.75,199.75,0,0,0,26.6,1.52h.1a200.06,200.06,0,0,0,26.7-1.52v3.08a2.4,2.4,0,0,0,2.39,2.39h10.53a2.4,2.4,0,0,0,2.39-2.39v-7.61a4.29,4.29,0,0,0,2.1-3.38V253.87a8.82,8.82,0,0,0-2.47-5.65s-1.92-1.59-3.86-3.3c.27,0,.55,0,.84,0C1066.06,245,1069.6,243.74,1069.6,241.55Zm-70.36-10.31c1.37-2.21,6.1-3.68,24.77-3.68h.1c18.75,0,23.5,1.47,24.87,3.68l6.23,11.17s-8,1.68-31.1,1.68h-.1c-23,0-31-1.68-31-1.68Zm-7.08,26.44c-4.14-.36-6-2.05-5.76-5.07.19-2.14,2.32-3.35,6.46-3,5.92.51,8.7,2.17,8.52,4.3C1001.12,256.94,996.3,258,992.16,257.68Zm48.64,10.83c-1.51,1.51-9.16,2.25-16.79,2.25s-15.1-.75-16.59-2.25a3.89,3.89,0,0,1,0-4.44c1.49-1.49,9-2.24,16.59-2.25s15.28.74,16.79,2.25A3.94,3.94,0,0,1,1040.8,268.52Zm15.26-10.83c-4.13.36-9-.74-9.23-3.76-.19-2.14,2.6-3.79,8.53-4.3,4.13-.36,6.27.86,6.46,3C1062.08,255.63,1060.19,257.32,1056.06,257.68Z"/><path class="cls-3" d="M1360.77,223.62a50,50,0,0,0-25.83,1.81,34.92,34.92,0,0,0-14.23,9.13c-7,7.69-8,19.22-1,26.72l-.81.84-1.23,1.29a67.25,67.25,0,0,0-4.55,5.42,62.33,62.33,0,0,0-3.59,5.35c-.23.39-.44.77-.65,1.13-.23-.44-.52-1-.86-1.58a39.06,39.06,0,0,0-2.54-3.93,2.93,2.93,0,0,0,.56-.49c2.34-2.65,2.53-6.39,2.35-8.67-.41-5.16-4.4-10.72-8.27-13.93-7.12-5.9-13.13-5.1-16.43-7-.26,3,.09,9,1,11.91,2,6.29,4.09,10.32,8.6,15.13,2.76,3,8.35,4.67,11.4,3.48.32.58.65,1.16.94,1.75a18.82,18.82,0,0,1,1.95,4.55c.32,1.54-1,2.91-1.53,4.38-.28.79-1.44,2.71-.82,3.52.4.52,1.69.3,2.23.13,1.42-.45,2.29-2.15,2.69-3.47a42.12,42.12,0,0,1,2.32-5.33,58.1,58.1,0,0,1,2.89-5.41,66.92,66.92,0,0,1,3.83-5.67c.34-.46.7-.92,1.06-1.36l.65-.84a20.41,20.41,0,0,0,14,5.28c11.13-.34,21.92-9.89,30.45-17,6.31-5.28,16.84-7.94,20.67-8.58C1380.42,232.78,1371.56,225.73,1360.77,223.62Z"/><path class="cls-3" d="M1210.05,260.81l-.23-8,4.87-3.53-3.11-8.76-6,.34-4.89-6.34,1.87-5.73-7.68-5.24-4.65,3.81-7.66-2.26-1.88-5.72-9.29.25-1.54,5.83-7.53,2.67-4.87-3.52-3.68,2.83-3.68,2.84,2.18,5.6-4.51,6.61h-6l-2.62,8.92,5.07,3.26.22,8-4.87,3.53,3.13,8.75,6-.34,4.89,6.34-1.85,5.73,7.67,5.25,4.66-3.81,7.68,2.25,1.85,5.72,9.3-.27,1.54-5.8,7.53-2.7,4.86,3.53,3.68-2.84,3.68-2.83-2.17-5.61,4.51-6.58,6,0,2.61-8.91Zm-22.52,10.88a17.45,17.45,0,0,1-9.7,3.45h-.49a17.3,17.3,0,0,1-9.86-2.9l-.42-.28a17.38,17.38,0,0,1-6.28-8.15l-.15-.45a17.35,17.35,0,0,1-.3-10.29l.14-.47a17.36,17.36,0,0,1,5.81-8.5l.19-.15.2-.15a17.31,17.31,0,0,1,9.68-3.44l.5,0a17.44,17.44,0,0,1,9.87,2.91l.39.27a17.35,17.35,0,0,1,6.28,8.15l.18.47a17.39,17.39,0,0,1,.29,10.27l-.15.49a17.4,17.4,0,0,1-5.79,8.49l-.2.15Z"/><path class="cls-3" d="M118.11,242.19c0-2.17-3.53-4.5-6.87-4.5a5,5,0,0,0-5.07,3.44l-6.54-10.57c-2.08-3.37-7.46-4.89-27-4.89h-.1c-19.47,0-24.84,1.53-26.92,4.89l-6.53,10.57A5,5,0,0,0,34,237.69c-3.33,0-6.86,2.33-6.86,4.5s3.53,3.4,6.86,3.4c.29,0,.57,0,.84,0-1.93,1.72-3.86,3.3-3.86,3.3a8.84,8.84,0,0,0-2.46,5.65v14.39a4.28,4.28,0,0,0,2.1,3.38v7.61A2.4,2.4,0,0,0,33,282.27H43.52a2.4,2.4,0,0,0,2.39-2.39v-3.08a199.75,199.75,0,0,0,26.6,1.52h.1a200.06,200.06,0,0,0,26.7-1.52v3.08a2.4,2.4,0,0,0,2.39,2.39h10.53a2.4,2.4,0,0,0,2.39-2.39v-7.61a4.29,4.29,0,0,0,2.1-3.38V254.51a8.82,8.82,0,0,0-2.47-5.65s-1.92-1.59-3.86-3.3c.27,0,.55,0,.84,0C114.57,245.59,118.11,244.37,118.11,242.19ZM47.75,231.88c1.37-2.21,6.1-3.68,24.77-3.68h.1c18.75,0,23.5,1.47,24.87,3.68L103.72,243s-8,1.68-31.1,1.68h-.1c-23,0-31-1.68-31-1.68Zm-7.08,26.44c-4.14-.36-6-2.05-5.76-5.07.19-2.14,2.32-3.35,6.46-3,5.92.51,8.7,2.17,8.52,4.3C49.63,257.58,44.81,258.67,40.67,258.31Zm48.64,10.83c-1.51,1.51-9.16,2.25-16.79,2.25s-15.1-.75-16.59-2.25a3.89,3.89,0,0,1,0-4.44c1.49-1.49,9-2.24,16.59-2.25s15.28.74,16.79,2.25A3.94,3.94,0,0,1,89.31,269.15Zm15.26-10.83c-4.13.36-9-.74-9.23-3.76-.19-2.14,2.6-3.79,8.53-4.3,4.13-.36,6.27.86,6.46,3C110.59,256.26,108.7,258,104.57,258.31Z"/><path class="cls-3" d="M409.28,215.8a50,50,0,0,0-25.83,1.81,34.92,34.92,0,0,0-14.23,9.13c-7,7.69-8,19.22-1,26.72l-.81.84-1.23,1.29a67.25,67.25,0,0,0-4.55,5.42,62.33,62.33,0,0,0-3.59,5.35c-.23.39-.44.77-.65,1.13-.23-.44-.52-1-.86-1.58A39.06,39.06,0,0,0,354,262a2.93,2.93,0,0,0,.56-.49c2.34-2.65,2.53-6.39,2.35-8.67-.41-5.16-4.4-10.72-8.27-13.93-7.12-5.9-13.13-5.1-16.43-7-.26,3,.09,9,1,11.91,2,6.29,4.09,10.32,8.6,15.13,2.76,3,8.35,4.67,11.4,3.48.32.58.65,1.16.94,1.75a18.82,18.82,0,0,1,1.95,4.55c.32,1.54-1,2.91-1.53,4.38-.28.79-1.44,2.71-.82,3.52.4.52,1.69.3,2.23.13,1.42-.45,2.29-2.15,2.69-3.47a42.12,42.12,0,0,1,2.32-5.33,58.1,58.1,0,0,1,2.89-5.41,66.92,66.92,0,0,1,3.83-5.67c.34-.46.7-.92,1.06-1.36l.65-.84a20.41,20.41,0,0,0,14,5.28c11.13-.34,21.92-9.89,30.45-17,6.31-5.28,16.84-7.94,20.67-8.58C428.93,225,420.07,217.91,409.28,215.8Z"/><path class="cls-3" d="M258.56,253l-.23-8,4.87-3.53-3.11-8.76-6,.34-4.89-6.34L251,221l-7.68-5.24-4.65,3.81L231,217.29l-1.88-5.72-9.29.25-1.54,5.83-7.53,2.67-4.87-3.52-3.68,2.83-3.68,2.84,2.18,5.6-4.51,6.61h-6l-2.62,8.92,5.07,3.26.22,8L188,258.4l3.13,8.75,6-.34,4.89,6.34-1.85,5.73,7.67,5.25,4.66-3.81,7.68,2.25,1.85,5.72,9.3-.27,1.54-5.8,7.53-2.7,4.86,3.53,3.68-2.84,3.68-2.83-2.17-5.61,4.51-6.58,6,0,2.61-8.91ZM236,263.87a17.45,17.45,0,0,1-9.7,3.45h-.49a17.3,17.3,0,0,1-9.86-2.9l-.42-.28A17.38,17.38,0,0,1,209.3,256l-.15-.45a17.35,17.35,0,0,1-.3-10.29l.14-.47a17.36,17.36,0,0,1,5.81-8.5l.19-.15.2-.15a17.31,17.31,0,0,1,9.68-3.44l.5,0a17.44,17.44,0,0,1,9.87,2.91l.39.27a17.35,17.35,0,0,1,6.28,8.15l.18.47a17.39,17.39,0,0,1,.29,10.27l-.15.49a17.4,17.4,0,0,1-5.79,8.49l-.2.15Z"/><path class="cls-3" d="M595,238.15c0-2.17-3.53-4.5-6.87-4.5a5,5,0,0,0-5.07,3.44l-6.54-10.57c-2.08-3.37-7.46-4.89-27-4.89h-.1c-19.47,0-24.84,1.53-26.92,4.89l-6.53,10.57a5,5,0,0,0-5.07-3.44c-3.33,0-6.86,2.33-6.86,4.5s3.53,3.4,6.86,3.4c.29,0,.57,0,.84,0-1.93,1.72-3.86,3.3-3.86,3.3a8.84,8.84,0,0,0-2.46,5.65v14.39a4.28,4.28,0,0,0,2.1,3.38v7.61a2.4,2.4,0,0,0,2.39,2.39H520.4a2.4,2.4,0,0,0,2.39-2.39v-3.08a199.75,199.75,0,0,0,26.6,1.52h.1a200.06,200.06,0,0,0,26.7-1.52v3.08a2.4,2.4,0,0,0,2.39,2.39h10.53a2.4,2.4,0,0,0,2.39-2.39v-7.61a4.29,4.29,0,0,0,2.1-3.38V250.47a8.82,8.82,0,0,0-2.47-5.65s-1.92-1.59-3.86-3.3c.27,0,.55,0,.84,0C591.45,241.55,595,240.34,595,238.15Zm-70.36-10.31c1.37-2.21,6.1-3.68,24.77-3.68h.1c18.75,0,23.5,1.47,24.87,3.68L580.6,239s-8,1.68-31.1,1.68h-.1c-23,0-31-1.68-31-1.68Zm-7.08,26.44c-4.14-.36-6-2.05-5.76-5.07.19-2.14,2.32-3.35,6.46-3,5.92.51,8.7,2.17,8.52,4.3C526.51,253.54,521.69,254.64,517.55,254.28Zm48.64,10.83c-1.51,1.51-9.16,2.25-16.79,2.25s-15.1-.75-16.59-2.25a3.89,3.89,0,0,1,0-4.44c1.49-1.49,9-2.24,16.59-2.25s15.28.74,16.79,2.25A3.94,3.94,0,0,1,566.19,265.11Zm15.26-10.83c-4.13.36-9-.74-9.23-3.76-.19-2.14,2.6-3.79,8.53-4.3,4.13-.36,6.27.86,6.46,3C587.47,252.23,585.58,253.92,581.45,254.28Z"/></g><g class="cls-2"><path class="cls-3" d="M247.68,353.43a50,50,0,0,0-25.83,1.81,34.92,34.92,0,0,0-14.23,9.13c-7,7.69-8,19.22-1,26.72l-.81.84-1.23,1.29a67.25,67.25,0,0,0-4.55,5.42,62.33,62.33,0,0,0-3.59,5.35c-.23.39-.44.77-.65,1.13-.23-.44-.52-1-.86-1.58a39.06,39.06,0,0,0-2.54-3.93,2.93,2.93,0,0,0,.56-.49c2.34-2.65,2.53-6.39,2.35-8.67-.41-5.16-4.4-10.72-8.27-13.93-7.12-5.9-13.13-5.1-16.43-7-.26,3,.09,9,1,11.91,2,6.29,4.09,10.32,8.6,15.13,2.76,3,8.35,4.67,11.4,3.48.32.58.65,1.16.94,1.75a18.82,18.82,0,0,1,1.95,4.55c.32,1.54-1,2.91-1.53,4.38-.28.79-1.44,2.71-.82,3.52.4.52,1.69.3,2.23.13,1.42-.45,2.29-2.15,2.69-3.47a42.12,42.12,0,0,1,2.32-5.33,58.1,58.1,0,0,1,2.89-5.41,66.92,66.92,0,0,1,3.83-5.67c.34-.46.7-.92,1.06-1.36l.65-.84a20.41,20.41,0,0,0,14,5.28c11.13-.34,21.92-9.89,30.45-17,6.31-5.28,16.84-7.94,20.67-8.58C267.33,362.59,258.46,355.54,247.68,353.43Z"/><path class="cls-3" d="M97,390.62l-.23-8,4.87-3.53-3.11-8.76-6,.34-4.89-6.34,1.87-5.73-7.68-5.24-4.65,3.81-7.66-2.26-1.88-5.72-9.29.25-1.54,5.83L49.21,358l-4.87-3.52-3.68,2.83L37,360.11l2.18,5.6-4.51,6.61h-6L26,381.24l5.07,3.26.22,8L26.41,396l3.13,8.75,6-.34,4.89,6.34-1.85,5.73,7.67,5.25L50.9,418l7.68,2.25,1.85,5.72,9.3-.27,1.54-5.8,7.53-2.7,4.86,3.53,3.68-2.84L91,415l-2.17-5.61,4.51-6.58,6,0,2.61-8.91ZM74.44,401.5a17.45,17.45,0,0,1-9.7,3.45h-.49a17.3,17.3,0,0,1-9.86-2.9l-.42-.28a17.38,17.38,0,0,1-6.28-8.15l-.15-.45a17.35,17.35,0,0,1-.3-10.29l.14-.47a17.36,17.36,0,0,1,5.81-8.5l.19-.15.2-.15a17.31,17.31,0,0,1,9.68-3.44l.5,0a17.44,17.44,0,0,1,9.87,2.91l.39.27a17.35,17.35,0,0,1,6.28,8.15l.18.47a17.39,17.39,0,0,1,.29,10.27l-.15.49a17.4,17.4,0,0,1-5.79,8.49l-.2.15Z"/><path class="cls-3" d="M433.38,375.78c0-2.17-3.53-4.5-6.87-4.5a5,5,0,0,0-5.07,3.44l-6.54-10.57c-2.08-3.37-7.46-4.89-27-4.89h-.1c-19.47,0-24.84,1.53-26.92,4.89l-6.53,10.57a5,5,0,0,0-5.07-3.44c-3.33,0-6.86,2.33-6.86,4.5s3.53,3.4,6.86,3.4c.29,0,.57,0,.84,0-1.93,1.72-3.86,3.3-3.86,3.3a8.84,8.84,0,0,0-2.46,5.65v14.39a4.28,4.28,0,0,0,2.1,3.38v7.61a2.4,2.4,0,0,0,2.39,2.39H358.8a2.4,2.4,0,0,0,2.39-2.39v-3.08a199.75,199.75,0,0,0,26.6,1.52h.1a200.06,200.06,0,0,0,26.7-1.52v3.08a2.4,2.4,0,0,0,2.39,2.39h10.53a2.4,2.4,0,0,0,2.39-2.39v-7.61a4.29,4.29,0,0,0,2.1-3.38V388.1a8.82,8.82,0,0,0-2.47-5.65s-1.92-1.59-3.86-3.3c.27,0,.55,0,.84,0C429.85,379.18,433.38,378,433.38,375.78ZM363,365.47c1.37-2.21,6.1-3.68,24.77-3.68h.1c18.75,0,23.5,1.47,24.87,3.68L419,376.64s-8,1.68-31.1,1.68h-.1c-23,0-31-1.68-31-1.68Zm-7.08,26.44c-4.14-.36-6-2.05-5.76-5.07.19-2.14,2.32-3.35,6.46-3,5.92.51,8.7,2.17,8.52,4.3C364.9,391.17,360.08,392.27,355.94,391.91Zm48.64,10.83c-1.51,1.51-9.16,2.25-16.79,2.25s-15.1-.75-16.59-2.25a3.89,3.89,0,0,1,0-4.44c1.49-1.49,9-2.24,16.59-2.25s15.28.74,16.79,2.25A3.94,3.94,0,0,1,404.58,402.74Zm15.26-10.83c-4.13.36-9-.74-9.23-3.76-.19-2.14,2.6-3.79,8.53-4.3,4.13-.36,6.27.86,6.46,3C425.87,389.86,424,391.55,419.84,391.91Z"/><path class="cls-3" d="M724.56,357.84a50,50,0,0,0-25.83,1.81,34.92,34.92,0,0,0-14.23,9.13c-7,7.69-8,19.22-1,26.72l-.81.84-1.23,1.29a67.25,67.25,0,0,0-4.55,5.42,62.33,62.33,0,0,0-3.59,5.35c-.23.39-.44.77-.65,1.13-.23-.44-.52-1-.86-1.58a39.06,39.06,0,0,0-2.54-3.93,2.93,2.93,0,0,0,.56-.49c2.34-2.65,2.53-6.39,2.35-8.67-.41-5.16-4.4-10.72-8.27-13.93-7.12-5.9-13.13-5.1-16.43-7-.26,3,.09,9,1,11.91,2,6.29,4.09,10.32,8.6,15.13,2.76,3,8.35,4.67,11.4,3.48.32.58.65,1.16.94,1.75a18.82,18.82,0,0,1,1.95,4.55c.32,1.54-1,2.91-1.53,4.38-.28.79-1.44,2.71-.82,3.52.4.52,1.69.3,2.23.13,1.42-.45,2.29-2.15,2.69-3.47a42.12,42.12,0,0,1,2.32-5.33,58.1,58.1,0,0,1,2.89-5.41,66.92,66.92,0,0,1,3.83-5.67c.34-.46.7-.92,1.06-1.36l.65-.84a20.41,20.41,0,0,0,14,5.28c11.13-.34,21.92-9.89,30.45-17,6.31-5.28,16.84-7.94,20.67-8.58C744.21,367,735.35,360,724.56,357.84Z"/><path class="cls-3" d="M573.84,395l-.23-8,4.87-3.53-3.11-8.76-6,.34-4.89-6.34,1.87-5.73-7.68-5.24L554,361.6l-7.66-2.26-1.88-5.72-9.29.25-1.54,5.83-7.53,2.67-4.87-3.52-3.68,2.83-3.68,2.84,2.18,5.6-4.51,6.61h-6l-2.62,8.92,5.07,3.26.22,8-4.87,3.53,3.13,8.75,6-.34,4.89,6.34-1.85,5.73,7.67,5.25,4.66-3.81,7.68,2.25,1.85,5.72,9.3-.27,1.54-5.8,7.53-2.7,4.86,3.53,3.68-2.84,3.68-2.83-2.17-5.61,4.51-6.58,6,0,2.61-8.91Zm-22.52,10.88a17.45,17.45,0,0,1-9.7,3.45h-.49a17.3,17.3,0,0,1-9.86-2.9l-.42-.28a17.38,17.38,0,0,1-6.28-8.15l-.15-.45a17.35,17.35,0,0,1-.3-10.29l.14-.47a17.36,17.36,0,0,1,5.81-8.5l.19-.15.2-.15a17.31,17.31,0,0,1,9.68-3.44l.5,0a17.44,17.44,0,0,1,9.87,2.91l.39.27a17.35,17.35,0,0,1,6.28,8.15l.18.47a17.39,17.39,0,0,1,.29,10.27l-.15.49a17.4,17.4,0,0,1-5.79,8.49l-.2.15Z"/><path class="cls-3" d="M910.26,380.19c0-2.17-3.53-4.5-6.87-4.5a5,5,0,0,0-5.07,3.44l-6.54-10.57c-2.08-3.37-7.46-4.89-27-4.89h-.1c-19.47,0-24.84,1.53-26.92,4.89l-6.53,10.57a5,5,0,0,0-5.07-3.44c-3.33,0-6.86,2.33-6.86,4.5s3.53,3.4,6.86,3.4c.29,0,.57,0,.84,0-1.93,1.72-3.86,3.3-3.86,3.3a8.84,8.84,0,0,0-2.46,5.65V406.9a4.28,4.28,0,0,0,2.1,3.38v7.61a2.4,2.4,0,0,0,2.39,2.39h10.52a2.4,2.4,0,0,0,2.39-2.39V414.8a199.75,199.75,0,0,0,26.6,1.52h.1a200.06,200.06,0,0,0,26.7-1.52v3.08a2.4,2.4,0,0,0,2.39,2.39h10.53a2.4,2.4,0,0,0,2.39-2.39v-7.61a4.29,4.29,0,0,0,2.1-3.38V392.51a8.82,8.82,0,0,0-2.47-5.65s-1.92-1.59-3.86-3.3c.27,0,.55,0,.84,0C906.73,383.59,910.26,382.38,910.26,380.19ZM839.9,369.88c1.37-2.21,6.1-3.68,24.77-3.68h.1c18.75,0,23.5,1.47,24.87,3.68l6.23,11.17s-8,1.68-31.1,1.68h-.1c-23,0-31-1.68-31-1.68Zm-7.08,26.44c-4.14-.36-6-2.05-5.76-5.07.19-2.14,2.32-3.35,6.46-3,5.92.51,8.7,2.17,8.52,4.3C841.79,395.58,837,396.68,832.82,396.32Zm48.64,10.83c-1.51,1.51-9.16,2.25-16.79,2.25s-15.1-.75-16.59-2.25a3.89,3.89,0,0,1,0-4.44c1.49-1.49,9-2.24,16.59-2.25s15.28.74,16.79,2.25A3.94,3.94,0,0,1,881.46,407.15Zm15.26-10.83c-4.13.36-9-.74-9.23-3.76-.19-2.14,2.6-3.79,8.53-4.3,4.13-.36,6.27.86,6.46,3C902.75,394.27,900.86,396,896.72,396.32Z"/><path class="cls-3" d="M1201.44,353.81a50,50,0,0,0-25.83,1.81,34.92,34.92,0,0,0-14.23,9.13c-7,7.69-8,19.22-1,26.72l-.81.84-1.23,1.29a67.25,67.25,0,0,0-4.55,5.42,62.33,62.33,0,0,0-3.59,5.35c-.23.39-.44.77-.65,1.13-.23-.44-.52-1-.86-1.58a39.06,39.06,0,0,0-2.54-3.93,2.93,2.93,0,0,0,.56-.49c2.34-2.65,2.53-6.39,2.35-8.67-.41-5.16-4.4-10.72-8.27-13.93-7.12-5.9-13.13-5.1-16.43-7-.26,3,.09,9,1,11.91,2,6.29,4.09,10.32,8.6,15.13,2.76,3,8.35,4.67,11.4,3.48.32.58.65,1.16.94,1.75a18.82,18.82,0,0,1,1.95,4.55c.32,1.54-1,2.91-1.53,4.38-.28.79-1.44,2.71-.82,3.52.4.52,1.69.3,2.23.13,1.42-.45,2.29-2.15,2.69-3.47a42.12,42.12,0,0,1,2.32-5.33,58.1,58.1,0,0,1,2.89-5.41,66.92,66.92,0,0,1,3.83-5.67c.34-.46.7-.92,1.06-1.36l.65-.84a20.41,20.41,0,0,0,14,5.28c11.13-.34,21.92-9.89,30.45-17,6.31-5.28,16.84-7.94,20.67-8.58C1221.09,363,1212.23,355.92,1201.44,353.81Z"/><path class="cls-3" d="M1050.72,391l-.23-8,4.87-3.53-3.11-8.76-6,.34-4.89-6.34,1.87-5.73-7.68-5.24-4.65,3.81-7.66-2.26-1.88-5.72-9.29.25-1.54,5.83-7.53,2.67-4.87-3.52-3.68,2.83-3.68,2.84,2.18,5.6-4.51,6.61h-6l-2.62,8.92,5.07,3.26.22,8-4.87,3.53,3.13,8.75,6-.34,4.89,6.34-1.85,5.73,7.67,5.25,4.66-3.81,7.68,2.25,1.85,5.72,9.3-.27,1.54-5.8,7.53-2.7,4.86,3.53,3.68-2.84,3.68-2.83-2.17-5.61,4.51-6.58,6,0,2.61-8.91Zm-22.52,10.88a17.45,17.45,0,0,1-9.7,3.45H1018a17.3,17.3,0,0,1-9.86-2.9l-.42-.28a17.38,17.38,0,0,1-6.28-8.15l-.15-.45a17.35,17.35,0,0,1-.3-10.29l.14-.47a17.36,17.36,0,0,1,5.81-8.5l.19-.15.2-.15a17.31,17.31,0,0,1,9.68-3.44l.5,0a17.44,17.44,0,0,1,9.87,2.91l.39.27a17.35,17.35,0,0,1,6.28,8.15l.18.47a17.39,17.39,0,0,1,.29,10.27l-.15.49a17.4,17.4,0,0,1-5.79,8.49l-.2.15Z"/><path class="cls-3" d="M1387.14,376.15c0-2.17-3.53-4.5-6.87-4.5a5,5,0,0,0-5.07,3.44l-6.54-10.57c-2.08-3.37-7.46-4.89-27-4.89h-.1c-19.47,0-24.84,1.53-26.92,4.89l-6.53,10.57a5,5,0,0,0-5.07-3.44c-3.33,0-6.86,2.33-6.86,4.5s3.53,3.4,6.86,3.4c.29,0,.57,0,.84,0-1.93,1.72-3.86,3.3-3.86,3.3a8.84,8.84,0,0,0-2.46,5.65v14.39a4.28,4.28,0,0,0,2.1,3.38v7.61a2.4,2.4,0,0,0,2.39,2.39h10.52a2.4,2.4,0,0,0,2.39-2.39v-3.08a199.75,199.75,0,0,0,26.6,1.52h.1a200.06,200.06,0,0,0,26.7-1.52v3.08a2.4,2.4,0,0,0,2.39,2.39h10.53a2.4,2.4,0,0,0,2.39-2.39v-7.61a4.29,4.29,0,0,0,2.1-3.38V388.48a8.82,8.82,0,0,0-2.47-5.65s-1.92-1.59-3.86-3.3c.27,0,.55,0,.84,0C1383.61,379.56,1387.14,378.34,1387.14,376.15Zm-70.36-10.31c1.37-2.21,6.1-3.68,24.77-3.68h.1c18.75,0,23.5,1.47,24.87,3.68l6.23,11.17s-8,1.68-31.1,1.68h-.1c-23,0-31-1.68-31-1.68Zm-7.08,26.44c-4.14-.36-6-2.05-5.76-5.07.19-2.14,2.32-3.35,6.46-3,5.92.51,8.7,2.17,8.52,4.3C1318.67,391.55,1313.84,392.64,1309.7,392.28Zm48.64,10.83c-1.51,1.51-9.16,2.25-16.79,2.25s-15.1-.75-16.59-2.25a3.89,3.89,0,0,1,0-4.44c1.49-1.49,9-2.24,16.59-2.25s15.28.74,16.79,2.25A3.94,3.94,0,0,1,1358.34,403.12Zm15.26-10.83c-4.13.36-9-.74-9.23-3.76-.19-2.14,2.6-3.79,8.53-4.3,4.13-.36,6.27.86,6.46,3C1379.63,390.23,1377.74,391.92,1373.6,392.28Z"/></g><g class="cls-2"><path class="cls-3" d="M883.89,516.18A50,50,0,0,0,858.06,518a34.92,34.92,0,0,0-14.23,9.13c-7,7.69-8,19.22-1,26.72l-.81.84L840.81,556a67.25,67.25,0,0,0-4.55,5.42,62.33,62.33,0,0,0-3.59,5.35c-.23.39-.44.77-.65,1.13-.23-.44-.52-1-.86-1.58a39.06,39.06,0,0,0-2.54-3.93,2.93,2.93,0,0,0,.56-.49c2.34-2.65,2.53-6.39,2.35-8.67-.41-5.16-4.4-10.72-8.27-13.93-7.12-5.9-13.13-5.1-16.43-7-.26,3,.09,9,1,11.91,2,6.29,4.09,10.32,8.6,15.13,2.76,3,8.35,4.67,11.4,3.48.32.58.65,1.16.94,1.75a18.82,18.82,0,0,1,1.95,4.55c.32,1.54-1,2.91-1.53,4.38-.28.79-1.44,2.71-.82,3.52.4.52,1.69.3,2.23.13,1.42-.45,2.29-2.15,2.69-3.47a42.12,42.12,0,0,1,2.32-5.33,58.1,58.1,0,0,1,2.89-5.41,66.92,66.92,0,0,1,3.83-5.67c.34-.46.7-.92,1.06-1.36L844,555a20.41,20.41,0,0,0,14,5.28c11.13-.34,21.92-9.89,30.45-17,6.31-5.28,16.84-7.94,20.67-8.58C903.54,525.34,894.68,518.29,883.89,516.18Z"/><path class="cls-3" d="M733.17,553.37l-.23-8,4.87-3.53-3.11-8.76-6,.34-4.89-6.34,1.87-5.73L718,516.12l-4.65,3.81-7.66-2.26L703.78,512l-9.29.25L693,518l-7.53,2.67-4.87-3.52L676.87,520l-3.68,2.84,2.18,5.6-4.51,6.61h-6L662.22,544l5.07,3.26.22,8-4.87,3.53,3.13,8.75,6-.34,4.89,6.34-1.85,5.73,7.67,5.25,4.66-3.81,7.68,2.25,1.85,5.72,9.3-.27,1.54-5.8,7.53-2.7,4.86,3.53,3.68-2.84,3.68-2.83-2.17-5.61,4.51-6.58,6,0,2.61-8.91Zm-22.52,10.88a17.45,17.45,0,0,1-9.7,3.45h-.49a17.3,17.3,0,0,1-9.86-2.9l-.42-.28a17.38,17.38,0,0,1-6.28-8.15l-.15-.45a17.35,17.35,0,0,1-.3-10.29l.14-.47a17.36,17.36,0,0,1,5.81-8.5l.19-.15.2-.15a17.31,17.31,0,0,1,9.68-3.44l.5,0a17.44,17.44,0,0,1,9.87,2.91l.39.27a17.35,17.35,0,0,1,6.28,8.15l.18.47A17.39,17.39,0,0,1,717,555l-.15.49a17.4,17.4,0,0,1-5.79,8.49l-.2.15Z"/><path class="cls-3" d="M1069.6,538.53c0-2.17-3.53-4.5-6.87-4.5a5,5,0,0,0-5.07,3.44l-6.54-10.57c-2.08-3.37-7.46-4.89-27-4.89h-.1c-19.47,0-24.84,1.53-26.92,4.89l-6.53,10.57a5,5,0,0,0-5.07-3.44c-3.33,0-6.86,2.33-6.86,4.5s3.53,3.4,6.86,3.4c.29,0,.57,0,.84,0-1.93,1.72-3.86,3.3-3.86,3.3a8.84,8.84,0,0,0-2.46,5.65v14.39a4.28,4.28,0,0,0,2.1,3.38v7.61a2.4,2.4,0,0,0,2.39,2.39H995a2.4,2.4,0,0,0,2.39-2.39v-3.08a199.75,199.75,0,0,0,26.6,1.52h.1a200.06,200.06,0,0,0,26.7-1.52v3.08a2.4,2.4,0,0,0,2.39,2.39h10.53a2.4,2.4,0,0,0,2.39-2.39v-7.61a4.29,4.29,0,0,0,2.1-3.38V550.85a8.82,8.82,0,0,0-2.47-5.65s-1.92-1.59-3.86-3.3c.27,0,.55,0,.84,0C1066.06,541.93,1069.6,540.71,1069.6,538.53Zm-70.36-10.31c1.37-2.21,6.1-3.68,24.77-3.68h.1c18.75,0,23.5,1.47,24.87,3.68l6.23,11.17s-8,1.68-31.1,1.68h-.1c-23,0-31-1.68-31-1.68Zm-7.08,26.44c-4.14-.36-6-2.05-5.76-5.07.19-2.14,2.32-3.35,6.46-3,5.92.51,8.7,2.17,8.52,4.3C1001.12,553.92,996.3,555,992.16,554.66Zm48.64,10.83c-1.51,1.51-9.16,2.25-16.79,2.25s-15.1-.75-16.59-2.25a3.89,3.89,0,0,1,0-4.44c1.49-1.49,9-2.24,16.59-2.25s15.28.74,16.79,2.25A3.94,3.94,0,0,1,1040.8,565.49Zm15.26-10.83c-4.13.36-9-.74-9.23-3.76-.19-2.14,2.6-3.79,8.53-4.3,4.13-.36,6.27.86,6.46,3C1062.08,552.61,1060.19,554.3,1056.06,554.66Z"/><path class="cls-3" d="M1360.77,520.59a50,50,0,0,0-25.83,1.81,34.92,34.92,0,0,0-14.23,9.13c-7,7.69-8,19.22-1,26.72l-.81.84-1.23,1.29a67.25,67.25,0,0,0-4.55,5.42,62.33,62.33,0,0,0-3.59,5.35c-.23.39-.44.77-.65,1.13-.23-.44-.52-1-.86-1.58a39.06,39.06,0,0,0-2.54-3.93,2.93,2.93,0,0,0,.56-.49c2.34-2.65,2.53-6.39,2.35-8.67-.41-5.16-4.4-10.72-8.27-13.93-7.12-5.9-13.13-5.1-16.43-7-.26,3,.09,9,1,11.91,2,6.29,4.09,10.32,8.6,15.13,2.76,3,8.35,4.67,11.4,3.48.32.58.65,1.16.94,1.75a18.82,18.82,0,0,1,1.95,4.55c.32,1.54-1,2.91-1.53,4.38-.28.79-1.44,2.71-.82,3.52.4.52,1.69.3,2.23.13,1.42-.45,2.29-2.15,2.69-3.47a42.12,42.12,0,0,1,2.32-5.33,58.1,58.1,0,0,1,2.89-5.41,66.92,66.92,0,0,1,3.83-5.67c.34-.46.7-.92,1.06-1.36l.65-.84a20.41,20.41,0,0,0,14,5.28c11.13-.34,21.92-9.89,30.45-17,6.31-5.28,16.84-7.94,20.67-8.58C1380.42,529.75,1371.56,522.71,1360.77,520.59Z"/><path class="cls-3" d="M1210.05,557.78l-.23-8,4.87-3.53-3.11-8.76-6,.34-4.89-6.34,1.87-5.73-7.68-5.24-4.65,3.81-7.66-2.26-1.88-5.72-9.29.25-1.54,5.83-7.53,2.67-4.87-3.52-3.68,2.83-3.68,2.84,2.18,5.6-4.51,6.61h-6l-2.62,8.92,5.07,3.26.22,8-4.87,3.53,3.13,8.75,6-.34,4.89,6.34-1.85,5.73,7.67,5.25,4.66-3.81,7.68,2.25,1.85,5.72,9.3-.27,1.54-5.8,7.53-2.7,4.86,3.53,3.68-2.84,3.68-2.83-2.17-5.61,4.51-6.58,6,0,2.61-8.91Zm-22.52,10.88a17.45,17.45,0,0,1-9.7,3.45h-.49a17.3,17.3,0,0,1-9.86-2.9l-.42-.28a17.38,17.38,0,0,1-6.28-8.15l-.15-.45a17.35,17.35,0,0,1-.3-10.29l.14-.47a17.36,17.36,0,0,1,5.81-8.5l.19-.15.2-.15a17.31,17.31,0,0,1,9.68-3.44l.5,0a17.44,17.44,0,0,1,9.87,2.91l.39.27a17.35,17.35,0,0,1,6.28,8.15l.18.47a17.39,17.39,0,0,1,.29,10.27l-.15.49a17.4,17.4,0,0,1-5.79,8.49l-.2.15Z"/><path class="cls-3" d="M118.11,539.16c0-2.17-3.53-4.5-6.87-4.5a5,5,0,0,0-5.07,3.44l-6.54-10.57c-2.08-3.37-7.46-4.89-27-4.89h-.1c-19.47,0-24.84,1.53-26.92,4.89L39.06,538.1A5,5,0,0,0,34,534.66c-3.33,0-6.86,2.33-6.86,4.5s3.53,3.4,6.86,3.4c.29,0,.57,0,.84,0-1.93,1.72-3.86,3.3-3.86,3.3a8.84,8.84,0,0,0-2.46,5.65v14.39a4.28,4.28,0,0,0,2.1,3.38v7.61A2.4,2.4,0,0,0,33,579.24H43.52a2.4,2.4,0,0,0,2.39-2.39v-3.08a199.75,199.75,0,0,0,26.6,1.52h.1a200.06,200.06,0,0,0,26.7-1.52v3.08a2.4,2.4,0,0,0,2.39,2.39h10.53a2.4,2.4,0,0,0,2.39-2.39v-7.61a4.29,4.29,0,0,0,2.1-3.38V551.48a8.82,8.82,0,0,0-2.47-5.65s-1.92-1.59-3.86-3.3c.27,0,.55,0,.84,0C114.57,542.56,118.11,541.35,118.11,539.16ZM47.75,528.85c1.37-2.21,6.1-3.68,24.77-3.68h.1c18.75,0,23.5,1.47,24.87,3.68L103.72,540s-8,1.68-31.1,1.68h-.1c-23,0-31-1.68-31-1.68Zm-7.08,26.44c-4.14-.36-6-2.05-5.76-5.07.19-2.14,2.32-3.35,6.46-3,5.92.51,8.7,2.17,8.52,4.3C49.63,554.55,44.81,555.65,40.67,555.29Zm48.64,10.83c-1.51,1.51-9.16,2.25-16.79,2.25s-15.1-.75-16.59-2.25a3.89,3.89,0,0,1,0-4.44c1.49-1.49,9-2.24,16.59-2.25s15.28.74,16.79,2.25A3.94,3.94,0,0,1,89.31,566.12Zm15.26-10.83c-4.13.36-9-.74-9.23-3.76-.19-2.14,2.6-3.79,8.53-4.3,4.13-.36,6.27.86,6.46,3C110.59,553.24,108.7,554.93,104.57,555.29Z"/><path class="cls-3" d="M409.28,512.78a50,50,0,0,0-25.83,1.81,34.92,34.92,0,0,0-14.23,9.13c-7,7.69-8,19.22-1,26.72l-.81.84-1.23,1.29a67.25,67.25,0,0,0-4.55,5.42,62.33,62.33,0,0,0-3.59,5.35c-.23.39-.44.77-.65,1.13-.23-.44-.52-1-.86-1.58a39.06,39.06,0,0,0-2.54-3.93,2.93,2.93,0,0,0,.56-.49c2.34-2.65,2.53-6.39,2.35-8.67-.41-5.16-4.4-10.72-8.27-13.93-7.12-5.9-13.13-5.1-16.43-7-.26,3,.09,9,1,11.91,2,6.29,4.09,10.32,8.6,15.13,2.76,3,8.35,4.67,11.4,3.48.32.58.65,1.16.94,1.75a18.82,18.82,0,0,1,1.95,4.55c.32,1.54-1,2.91-1.53,4.38-.28.79-1.44,2.71-.82,3.52.4.52,1.69.3,2.23.13,1.42-.45,2.29-2.15,2.69-3.47a42.12,42.12,0,0,1,2.32-5.33,58.1,58.1,0,0,1,2.89-5.41,66.92,66.92,0,0,1,3.83-5.67c.34-.46.7-.92,1.06-1.36l.65-.84a20.41,20.41,0,0,0,14,5.28c11.13-.34,21.92-9.89,30.45-17,6.31-5.28,16.84-7.94,20.67-8.58C428.93,521.94,420.07,514.89,409.28,512.78Z"/><path class="cls-3" d="M258.56,550l-.23-8,4.87-3.53-3.11-8.76-6,.34-4.89-6.34L251,518l-7.68-5.24-4.65,3.81L231,514.27l-1.88-5.72-9.29.25-1.54,5.83-7.53,2.67-4.87-3.52-3.68,2.83-3.68,2.84,2.18,5.6-4.51,6.61h-6l-2.62,8.92,5.07,3.26.22,8L188,555.37l3.13,8.75,6-.34,4.89,6.34-1.85,5.73,7.67,5.25,4.66-3.81,7.68,2.25,1.85,5.72,9.3-.27,1.54-5.8,7.53-2.7,4.86,3.53,3.68-2.84,3.68-2.83-2.17-5.61,4.51-6.58,6,0,2.61-8.91ZM236,560.84a17.45,17.45,0,0,1-9.7,3.45h-.49a17.3,17.3,0,0,1-9.86-2.9l-.42-.28A17.38,17.38,0,0,1,209.3,553l-.15-.45a17.35,17.35,0,0,1-.3-10.29l.14-.47a17.36,17.36,0,0,1,5.81-8.5l.19-.15.2-.15a17.31,17.31,0,0,1,9.68-3.44l.5,0a17.44,17.44,0,0,1,9.87,2.91l.39.27a17.35,17.35,0,0,1,6.28,8.15l.18.47a17.39,17.39,0,0,1,.29,10.27l-.15.49a17.4,17.4,0,0,1-5.79,8.49l-.2.15Z"/><path class="cls-3" d="M595,535.12c0-2.17-3.53-4.5-6.87-4.5a5,5,0,0,0-5.07,3.44l-6.54-10.57c-2.08-3.37-7.46-4.89-27-4.89h-.1c-19.47,0-24.84,1.53-26.92,4.89l-6.53,10.57a5,5,0,0,0-5.07-3.44c-3.33,0-6.86,2.33-6.86,4.5s3.53,3.4,6.86,3.4c.29,0,.57,0,.84,0-1.93,1.72-3.86,3.3-3.86,3.3a8.84,8.84,0,0,0-2.46,5.65v14.39a4.28,4.28,0,0,0,2.1,3.38v7.61a2.4,2.4,0,0,0,2.39,2.39H520.4a2.4,2.4,0,0,0,2.39-2.39v-3.08a199.75,199.75,0,0,0,26.6,1.52h.1a200.06,200.06,0,0,0,26.7-1.52v3.08a2.4,2.4,0,0,0,2.39,2.39h10.53a2.4,2.4,0,0,0,2.39-2.39v-7.61a4.29,4.29,0,0,0,2.1-3.38V547.45a8.82,8.82,0,0,0-2.47-5.65s-1.92-1.59-3.86-3.3c.27,0,.55,0,.84,0C591.45,538.53,595,537.31,595,535.12Zm-70.36-10.31c1.37-2.21,6.1-3.68,24.77-3.68h.1c18.75,0,23.5,1.47,24.87,3.68L580.6,536s-8,1.68-31.1,1.68h-.1c-23,0-31-1.68-31-1.68Zm-7.08,26.44c-4.14-.36-6-2.05-5.76-5.07.19-2.14,2.32-3.35,6.46-3,5.92.51,8.7,2.17,8.52,4.3C526.51,550.52,521.69,551.61,517.55,551.25Zm48.64,10.83c-1.51,1.51-9.16,2.25-16.79,2.25s-15.1-.75-16.59-2.25a3.89,3.89,0,0,1,0-4.44c1.49-1.49,9-2.24,16.59-2.25s15.28.74,16.79,2.25A3.94,3.94,0,0,1,566.19,562.09Zm15.26-10.83c-4.13.36-9-.74-9.23-3.76-.19-2.14,2.6-3.79,8.53-4.3,4.13-.36,6.27.86,6.46,3C587.47,549.2,585.58,550.89,581.45,551.25Z"/></g></g></svg>