<svg xmlns="http://www.w3.org/2000/svg" viewBox="0 0 150 150"><defs><style>.cls-1{fill:#504f54;}.cls-2{fill:#313034;}.cls-3{fill:none;}.cls-4{fill:#d0d2d3;}.cls-5{fill:#fff;}</style></defs><title>carro_taller</title><g id="INFO"><path class="cls-1" d="M5.23,75.24c0,38.66,31.84,70,69.84,70.23V5C37.06,5.22,5.23,36.58,5.23,75.24Z"/><path class="cls-2" d="M75.1,5h-1V145.47h1A70.24,70.24,0,1,0,75.1,5Z"/><path class="cls-3" d="M50.6,50.34l-7,17.25c-.83,2,.28,3.88,2.45,3.88h28v-25H56A6.61,6.61,0,0,0,50.6,50.34Z"/><path class="cls-3" d="M59.06,82.72a2.15,2.15,0,0,0-1.88-2.25H43.86c-1.09,0-1.79,1.15-1.79,2.25v5.65a2,2,0,0,0,1.79,2.11H57.18a2,2,0,0,0,1.88-2.11Z"/><path class="cls-3" d="M105,71.47a2.54,2.54,0,0,0,2.45-3.77l-7-17.3A6.68,6.68,0,0,0,95,46.47h-21v25Z"/><rect class="cls-3" x="90.06" y="80.47" width="17" height="10" rx="1.97" ry="1.97"/><path class="cls-4" d="M115.88,59a2.62,2.62,0,0,0-.91.17l-4.19,1.2-4.52-11.5c-1.38-3.36-5.37-6.39-9-6.39H74.06v4H95a6.61,6.61,0,0,1,5.44,3.87l7,17.25c.82,2-.28,3.88-2.45,3.88H74.06v28h29V106c0,2.72,1.37,5.44,4.09,5.44h5.93c2.72,0,6-2.72,6-5.44V83.7c0-3.37-1.57-8.08-2.85-11.2l-1.18-1h.38c2.72,0,3.65-3.36,3.65-6.08V63C119.06,60.69,118.1,59,115.88,59ZM107.06,88.5a2,2,0,0,1-2,2H92a2,2,0,0,1-2-2V82.45a2,2,0,0,1,2-2h13.05a2,2,0,0,1,2,2Z"/><path class="cls-5" d="M45.07,71.47c-2.17,0-3.27-1.44-2.45-3.45l7-17.46c.82-2,3.27-4.09,5.44-4.09h19v-4H52.8c-3.63,0-7.7,3.22-9.08,6.58L39.13,60.48l-4.29-1.06a3.59,3.59,0,0,0-1.1-.11c-2.21,0-3.68,1.75-3.68,4.08v2.38c0,2.72,1.94,5.71,4.66,5.71H35l-.65,1.21a34.72,34.72,0,0,0-2.32,11.38v22.34A5.05,5.05,0,0,0,37,111.47h5.93a5.23,5.23,0,0,0,5.14-5.07V99.47h26v-28Zm14,17.38c0,.82-.49,1.62-1.2,1.62H43.17c-.71,0-1.11-.8-1.11-1.62V82.23c0-.82.4-1.76,1.11-1.76h14.7c.71,0,1.2.94,1.2,1.76Z"/></g></svg>