<?xml version="1.0" encoding="utf-8"?>
<!-- Generator: Adobe Illustrator 20.1.0, SVG Export Plug-In . SVG Version: 6.00 Build 0)  -->
<svg version="1.1" xmlns="http://www.w3.org/2000/svg" xmlns:xlink="http://www.w3.org/1999/xlink" x="0px" y="0px"
	 viewBox="0 0 90.9 91.8" style="enable-background:new 0 0 90.9 91.8;" xml:space="preserve">
<style type="text/css">
	.st0{clip-path:url(#SVGID_4_);}
	.st1{fill:#201F23;}
	.st2{fill:url(#SVGID_5_);}
	.st3{fill:#DBDCDD;}
	.st4{opacity:0.9;fill:#EAA330;}
	.st5{fill:#87BC42;}
	.st6{fill:#FFFFFF;}
	.st7{opacity:0.9;fill:#201F23;}
	.st8{opacity:0.7;fill:#201F23;}
	.st9{fill:url(#SVGID_6_);}
	.st10{fill:url(#SVGID_7_);}
	.st11{fill:url(#SVGID_8_);}
	.st12{fill:url(#SVGID_9_);}
	.st13{fill:url(#SVGID_10_);}
	.st14{fill:url(#SVGID_11_);}
	.st15{fill:none;stroke:#DBDCDD;stroke-width:3;stroke-linecap:round;stroke-miterlimit:10;}
	.st16{opacity:0.4;fill:#FFFFFF;}
	.st17{fill:none;stroke:#B9B9B9;stroke-width:12;stroke-linejoin:round;stroke-miterlimit:10;}
	.st18{fill:none;stroke:#6A9642;stroke-width:14;stroke-miterlimit:10;}
	.st19{fill:none;stroke:#FFFFFF;stroke-width:12;stroke-linejoin:round;stroke-miterlimit:10;}
	.st20{fill:url(#SVGID_12_);}
	.st21{fill:#6AAF42;}
	.st22{fill:none;stroke:#FFFFFF;stroke-width:2.0274;stroke-miterlimit:10;stroke-dasharray:3.379;}
	.st23{fill:none;stroke:#FFFFFF;stroke-width:2.0274;stroke-miterlimit:10;stroke-dasharray:7;}
	.st24{fill:url(#SVGID_13_);}
	.st25{fill:#6A9642;}
	.st26{fill:#504F54;}
	.st27{fill:none;stroke:#B9B9B9;stroke-width:12;stroke-miterlimit:10;}
	.st28{fill:#EAA330;}
	.st29{fill:#2D2C30;}
	.st30{fill:#CED0D1;}
	.st31{fill:#35903A;}
	.st32{fill:#CECFD0;}
	.st33{fill:#4E893F;}
	.st34{fill:#58595B;}
	.st35{fill:#272A2D;}
	.st36{fill:url(#SVGID_14_);}
	.st37{fill:none;stroke:#FFFFFF;stroke-miterlimit:10;}
	.st38{fill:#EEE0AD;}
	.st39{fill:#CDC297;}
	.st40{fill:#BEBFC5;}
	.st41{fill:#AAA9AF;}
	.st42{fill:#DADBDC;}
	.st43{fill:none;stroke:#FFFFFF;stroke-width:2.0274;stroke-miterlimit:10;}
	.st44{fill:none;stroke:#FFFFFF;stroke-width:2.0274;stroke-miterlimit:10;stroke-dasharray:7.054,7.054;}
	.st45{fill:#CDCFD0;}
	.st46{fill:#102D40;}
	.st47{fill:#264860;}
	.st48{clip-path:url(#SVGID_16_);}
	.st49{fill:#E8BD98;}
	.st50{fill:#E76D4A;}
	.st51{fill:#543E36;}
	.st52{fill:#C34628;}
	.st53{clip-path:url(#SVGID_18_);}
	.st54{fill:none;stroke:#FFFFFF;stroke-width:2.2466;stroke-miterlimit:10;stroke-dasharray:3.7443;}
	.st55{clip-path:url(#SVGID_20_);fill:#98ABB7;}
	.st56{clip-path:url(#SVGID_20_);}
	.st57{fill:#421800;}
	.st58{fill:#ECCCB0;}
	.st59{fill:#B34FC5;}
	.st60{fill:#E3E8EE;}
	.st61{opacity:0.5;clip-path:url(#SVGID_20_);fill:#ECCCB0;}
	.st62{clip-path:url(#SVGID_22_);fill:#3EA1BD;}
	.st63{clip-path:url(#SVGID_22_);}
	.st64{fill:#A17561;}
	.st65{fill:#141720;}
	.st66{clip-path:url(#SVGID_22_);fill:#FFFFFF;}
	.st67{opacity:0.5;clip-path:url(#SVGID_22_);fill:#E8BD98;}
	.st68{clip-path:url(#SVGID_24_);}
	.st69{fill:#C55D3F;}
	.st70{clip-path:url(#SVGID_24_);fill:#E8BD98;}
	.st71{clip-path:url(#SVGID_24_);fill:#C7D4E2;}
	.st72{clip-path:url(#SVGID_24_);fill:#543E36;}
	.st73{clip-path:url(#SVGID_24_);fill:#1A1A1A;}
	.st74{fill:#435363;}
	.st75{opacity:0.5;clip-path:url(#SVGID_24_);fill:#E8BD98;}
	.st76{clip-path:url(#SVGID_26_);fill:#98ABB7;}
	.st77{clip-path:url(#SVGID_26_);}
	.st78{opacity:0.5;clip-path:url(#SVGID_26_);fill:#ECCCB0;}
	.st79{clip-path:url(#SVGID_28_);fill:#3EA1BD;}
	.st80{clip-path:url(#SVGID_28_);}
	.st81{clip-path:url(#SVGID_28_);fill:#FFFFFF;}
	.st82{opacity:0.5;clip-path:url(#SVGID_28_);fill:#E8BD98;}
	.st83{clip-path:url(#SVGID_30_);}
	.st84{clip-path:url(#SVGID_30_);fill:#E8BD98;}
	.st85{clip-path:url(#SVGID_30_);fill:#C7D4E2;}
	.st86{clip-path:url(#SVGID_30_);fill:#543E36;}
	.st87{clip-path:url(#SVGID_30_);fill:#1A1A1A;}
	.st88{opacity:0.5;clip-path:url(#SVGID_30_);fill:#E8BD98;}
	.st89{clip-path:url(#SVGID_32_);fill:#006F34;}
	.st90{clip-path:url(#SVGID_32_);}
	.st91{fill:#B3D033;}
	.st92{fill:#BD7E52;}
	.st93{fill:#B0B3B4;}
	.st94{fill:#8A8D8F;}
	.st95{fill:#D1D3D4;}
	.st96{fill:#787B7D;}
	.st97{fill:#B7BABB;}
	.st98{fill:#91A0A1;}
	.st99{clip-path:url(#SVGID_34_);fill:#006F34;}
	.st100{clip-path:url(#SVGID_34_);}
	.st101{fill:#BFC1C2;}
	.st102{fill:#313034;}
	.st103{fill:url(#SVGID_35_);}
	.st104{fill:#B9B9B9;}
	.st105{fill:#ACAEB0;}
	.st106{fill:#BBBDBE;}
	.st107{fill:#96989A;}
	.st108{fill:#CFD0D1;}
	.st109{fill:#5D5D5D;}
	.st110{fill:#B7B9BB;}
	.st111{fill:#919395;}
	.st112{fill:none;}
	.st113{fill-rule:evenodd;clip-rule:evenodd;fill:#CED0D1;}
	.st114{fill-rule:evenodd;clip-rule:evenodd;fill:#FFFFFF;}
	.st115{fill:url(#SVGID_36_);}
	.st116{fill:url(#SVGID_37_);}
	.st117{fill:#F3F3F3;}
	.st118{fill:#231F20;}
	.st119{fill:url(#SVGID_38_);}
	.st120{fill:url(#SVGID_39_);}
	.st121{fill:url(#SVGID_40_);}
	.st122{fill:url(#SVGID_41_);}
	.st123{fill:url(#SVGID_42_);}
	.st124{fill:url(#SVGID_43_);}
	.st125{fill:url(#SVGID_44_);}
	.st126{fill:url(#SVGID_45_);}
	.st127{fill:url(#SVGID_46_);}
	.st128{fill:url(#SVGID_47_);}
	.st129{fill:url(#SVGID_48_);}
	.st130{fill:url(#SVGID_49_);}
	.st131{fill:url(#SVGID_50_);}
	.st132{fill:url(#SVGID_51_);}
	.st133{fill:url(#SVGID_52_);}
	.st134{fill:url(#SVGID_53_);}
	.st135{opacity:0.8;}
	.st136{opacity:0.8;fill:#F3F3F3;}
	.st137{clip-path:url(#SVGID_55_);}
	.st138{clip-path:url(#SVGID_57_);fill:#98ABB7;}
	.st139{clip-path:url(#SVGID_57_);}
	.st140{opacity:0.5;clip-path:url(#SVGID_57_);fill:#ECCCB0;}
	.st141{clip-path:url(#SVGID_59_);fill:#3EA1BD;}
	.st142{clip-path:url(#SVGID_59_);}
	.st143{clip-path:url(#SVGID_59_);fill:#FFFFFF;}
	.st144{opacity:0.5;clip-path:url(#SVGID_59_);fill:#E8BD98;}
	.st145{clip-path:url(#SVGID_61_);}
	.st146{clip-path:url(#SVGID_61_);fill:#E8BD98;}
	.st147{clip-path:url(#SVGID_61_);fill:#C7D4E2;}
	.st148{clip-path:url(#SVGID_61_);fill:#543E36;}
	.st149{clip-path:url(#SVGID_61_);fill:#1A1A1A;}
	.st150{opacity:0.5;clip-path:url(#SVGID_61_);fill:#E8BD98;}
	.st151{fill:none;stroke:#5D5D5D;stroke-width:3;stroke-linecap:round;stroke-miterlimit:10;}
	.st152{fill:none;stroke:#201F23;stroke-width:5;stroke-miterlimit:10;}
	.st153{fill:none;stroke:#201F23;stroke-width:4.2064;stroke-linecap:round;stroke-miterlimit:10;}
	.st154{fill:none;stroke:#201F23;stroke-miterlimit:10;}
	.st155{fill:#B9BBBC;}
	.st156{fill:#98999C;}
	.st157{fill:#B9BABC;}
	.st158{fill:#E2E2E3;}
	.st159{fill:#D1D1D2;}
	.st160{fill:#2E2D31;}
	.st161{fill:#1F1E21;}
	.st162{fill:#5D5C61;}
	.st163{fill:#4A4A4E;}
	.st164{fill:#88BD42;}
	.st165{opacity:0.6;}
	.st166{fill:#6A9742;}
	.st167{fill:#5F893B;}
	.st168{fill:none;stroke:#CFD0D1;stroke-width:4;stroke-linecap:round;stroke-miterlimit:10;}
	.st169{fill:#E09400;}
	.st170{fill:#F0EABC;}
	.st171{fill:#FFC843;}
	.st172{fill:#DDA070;}
	.st173{fill:none;stroke:#FFFFFF;stroke-width:4;stroke-linecap:round;stroke-miterlimit:10;}
	.st174{fill:none;stroke:#CFD0D1;stroke-width:2.5756;stroke-linecap:round;stroke-miterlimit:10;}
	.st175{fill:none;stroke:#FFFFFF;stroke-width:2.5756;stroke-linecap:round;stroke-miterlimit:10;}
	.st176{fill:#BCBDBE;}
	.st177{fill:#9C9EA0;}
	.st178{fill:#B3B5B6;}
	.st179{fill:#282828;}
</style>
<g id="Fondo">
</g>
<g id="Diseño">
	<g>
		<g>
			<g>
				<g>
					<path class="st26" d="M1,45.9c0,24.2,19.7,43.8,43.7,43.9V2C20.7,2.1,1,21.7,1,45.9z"/>
					<path class="st102" d="M44.9,2c-0.1,0-0.3,0-0.3,0v87.8c0,0,0.2,0,0.3,0c24.2,0,43.9-19.7,43.9-43.9C88.8,21.6,69.2,2,44.9,2z"
						/>
				</g>
			</g>
		</g>
		<g>
			<path class="st112" d="M62.7,37.5c0,0.1,0.1,0.3,0.3,0.3l0.1-3.3l-1-0.4c-0.1,0.3-0.3,0.6,0,0.8L62.7,37.5z"/>
			<rect x="30.7" y="21.1" class="st112" width="14" height="18"/>
			<rect x="44.7" y="21.1" class="st112" width="11" height="18"/>
			<path class="st112" d="M64,34.3l-0.6,3.4l2.3-0.6l-1-3.7L63,33.3l0.9,0.6C64,34,64,34.1,64,34.3z"/>
			<path class="st112" d="M70.5,47c-0.1-0.3-0.4-0.6-0.7-0.9c-0.3-0.4-0.7-1-1.1-1.4c-0.9-1.1-1.4-2.7-1.8-3.7h-0.1
				c-0.1,0-0.4-0.1-0.4-0.3l-0.3-1.1c0-0.1,0.1-0.6,0.3-0.6h0.1l-0.3-0.8L62.8,39c-0.6,0-1.1-0.2-1.1-0.8L61.1,33
				c-0.1,0-0.2-0.1-0.2-0.3l-0.2-1.4c0-0.1,0-0.1,0-0.3l0.7-1.6c0-0.1,0.1-0.3,0.3-0.3L61,28.7c-0.1-0.1-0.1-0.3,0-0.3l0.1-0.1
				l-1.7-1.6c-0.3-0.3-0.7-0.4-0.7-0.6v16.9c1,0.4,1.9,1,2.6,1.7c1.4,1.4,2.2,3.5,2.1,5.8c-0.1,1.3-0.5,2.6-0.7,3.8
				c-0.4,1.6-0.9,3.1-0.6,4.7c0.7,4.8,5,4.5,6.2,4.4c3.5-0.4,7.2-3.3,6.8-6.2C74.6,54,72.7,49.7,70.5,47z"/>
			<path class="st30" d="M76.1,57.1c-0.4-3.5-2.4-7.9-4.8-10.8c-0.3-0.3-0.6-0.6-0.9-0.9c-0.4-0.4-0.9-0.8-1.1-1.3
				c-0.7-1-1.3-2.1-1.7-3.3c0.1,0,0.3-0.3,0.3-0.4l-0.3-0.9c0-0.1-0.3-0.3-0.4-0.3l-1.4-6.2l0.6-0.7c0.1-0.1,0.1-0.3,0-0.4l-1.7-3.4
				c-0.1-0.1-0.3-0.3-0.4-0.1l-0.4-0.1l-1.6-1.3h-0.1l-2.3-1.6c-0.3-0.1-0.5-0.2-0.7-0.3l-0.5,0v-4.8c0-1.4-1.4-3.3-2.8-3.3H44.7v4
				h11v18h-11v35h13.5c1.8,0,3.4-1.5,3.4-3.3c0-1.7-0.9-3.2-2.9-3.3V44.3c1,0.3,1.3,0.7,1.7,1.3c1.3,1.3,1.8,3,1.8,5
				c0,1.1-0.3,2.3-0.7,3.5c-0.4,1.7-0.9,3.4-0.6,5.2c0.7,4.1,3.5,5.5,6.4,5.5c0.4,0,0.8,0,1.3-0.1C72.5,64.2,76.7,60.9,76.1,57.1z
				 M64.7,33.4l1,3.7l-2.3,0.6l0.6-3.4c0-0.1,0-0.3-0.1-0.4L63,33.3L64.7,33.4z M62.1,34.1l1,0.4L63,37.8c-0.1,0-0.3-0.1-0.3-0.3
				L62.1,35C61.8,34.7,62,34.4,62.1,34.1z M68.2,63.5c-1.3,0.1-5.5,0.4-6.2-4.4c-0.3-1.6,0.1-3.1,0.6-4.7c0.3-1.3,0.6-2.6,0.7-3.8
				c0.1-2.3-0.6-4.4-2-5.8c-0.7-0.7-1.6-1.3-2.6-1.7V26.2c0,0.1,0.5,0.3,0.7,0.6l1.8,1.6L61,28.5c-0.1,0-0.2,0.1,0,0.3l0.6,0.4
				c-0.1,0-0.2,0.1-0.2,0.3L60.7,31c0,0.1,0,0.1,0,0.3l0.2,1.4c0,0.1,0.1,0.3,0.3,0.3l0.6,5.2c0,0.6,0.6,0.9,1.1,0.9l3.3-0.8
				l0.3,0.8h-0.1c-0.1,0-0.3,0.5-0.3,0.6l0.3,1c0,0.1,0.3,0.4,0.4,0.4h0.1c0.4,1,1,2.6,1.8,3.7c0.4,0.4,0.9,1,1.1,1.4
				c0.3,0.3,0.6,0.6,0.7,0.9c2.3,2.7,4.1,6.9,4.5,10.2C75.4,60.2,71.7,63.1,68.2,63.5z"/>
			<path class="st6" d="M30.7,39.1v-18h14v-4H29.9c-1.4,0-2.3,1.9-2.3,3.3v47.1c-2,0.1-3.1,1.6-3.1,3.3c0,1.8,1.3,3.3,3.1,3.3h17
				v-35H30.7z"/>
		</g>
	</g>
</g>
<g id="Iconos">
</g>
</svg>
