<svg xmlns="http://www.w3.org/2000/svg" viewBox="0 0 150 150"><defs><style>.cls-1{fill:#504f54;}.cls-2{fill:#313034;}.cls-3{fill:#babcbd;}.cls-4{fill:#929596;}.cls-5{fill:#d2d3d4;}.cls-6{fill:#797d7d;}.cls-7{fill:#adafb0;}.cls-8{fill:#fff;}</style></defs><title>compra_talleres</title><g id="INFO"><path class="cls-1" d="M6.83,75.55C6.83,113.84,39,144.9,76,145.12V6C39,6.21,6.83,37.27,6.83,75.55Z"/><path class="cls-2" d="M76.35,6C76.21,6,77,6,76,6V145.12c1,0,.21,0,.35,0A69.57,69.57,0,1,0,76.35,6Z"/><path class="cls-3" d="M47,70.22a6.53,6.53,0,1,1,13.07,0v15.4H75.17V72.54a11.74,11.74,0,1,1,0-23.49V36H52.33a18,18,0,0,1-18,18V67.58A18,18,0,0,1,47,72.8V70.22Z"/><path class="cls-4" d="M98,36H75.16V49.05a11.74,11.74,0,0,1,0,23.49V85.62H98a18,18,0,0,1,18-18V54A18,18,0,0,1,98,36Z"/><path class="cls-5" d="M63.42,60.8A11.75,11.75,0,0,0,75.16,72.54V49.05A11.75,11.75,0,0,0,63.42,60.8Z"/><path class="cls-6" d="M86.91,60.8A11.75,11.75,0,0,0,75.16,49.05V72.54A11.75,11.75,0,0,0,86.91,60.8Z"/><path class="cls-5" d="M52.33,36h-18V54A18,18,0,0,0,52.33,36Z"/><path class="cls-6" d="M98,36a18,18,0,0,0,18,18V36Z"/><path class="cls-6" d="M98,85.62h18v-18A18,18,0,0,0,98,85.62Z"/><path class="cls-5" d="M47,72.8a18,18,0,0,0-12.69-5.22v18H47Z"/><path class="cls-5" d="M76,102.94V85H61V95.86A25.81,25.81,0,0,1,76,102.94Z"/><path class="cls-7" d="M76,85v17.94A27.87,27.87,0,0,1,84,123H97.81c1.12-3,6.19-13.77,6.19-24.08V85Z"/><path class="cls-8" d="M60.3,95.86V69.77a6.4,6.4,0,1,0-12.79,0V101.1c0,9.92,5.29,20.81,5.5,21.61H75.49V102.94A27.75,27.75,0,0,0,60.3,95.86Z"/><path class="cls-5" d="M76,102.94V123h8A27.87,27.87,0,0,0,76,102.94Z"/></g></svg>