<?xml version="1.0" encoding="utf-8"?>
<!-- Generator: Adobe Illustrator 20.1.0, SVG Export Plug-In . SVG Version: 6.00 Build 0)  -->
<svg version="1.1" xmlns="http://www.w3.org/2000/svg" xmlns:xlink="http://www.w3.org/1999/xlink" x="0px" y="0px"
	 viewBox="0 0 232.2 237.7" style="enable-background:new 0 0 232.2 237.7;" xml:space="preserve">
<style type="text/css">
	.st0{clip-path:url(#SVGID_4_);}
	.st1{fill:#201F23;}
	.st2{fill:url(#SVGID_5_);}
	.st3{fill:#DBDCDD;}
	.st4{opacity:0.9;fill:#EAA330;}
	.st5{fill:#87BC42;}
	.st6{fill:#FFFFFF;}
	.st7{opacity:0.9;fill:#201F23;}
	.st8{opacity:0.7;fill:#201F23;}
	.st9{fill:url(#SVGID_6_);}
	.st10{fill:url(#SVGID_7_);}
	.st11{fill:url(#SVGID_8_);}
	.st12{fill:url(#SVGID_9_);}
	.st13{fill:url(#SVGID_10_);}
	.st14{fill:url(#SVGID_11_);}
	.st15{fill:none;stroke:#DBDCDD;stroke-width:3;stroke-linecap:round;stroke-miterlimit:10;}
	.st16{opacity:0.4;fill:#FFFFFF;}
	.st17{fill:none;stroke:#B9B9B9;stroke-width:12;stroke-linejoin:round;stroke-miterlimit:10;}
	.st18{fill:none;stroke:#6A9642;stroke-width:14;stroke-miterlimit:10;}
	.st19{fill:none;stroke:#FFFFFF;stroke-width:12;stroke-linejoin:round;stroke-miterlimit:10;}
	.st20{fill:url(#SVGID_12_);}
	.st21{fill:#6AAF42;}
	.st22{fill:none;stroke:#FFFFFF;stroke-width:2.0274;stroke-miterlimit:10;stroke-dasharray:3.379;}
	.st23{fill:none;stroke:#FFFFFF;stroke-width:2.0274;stroke-miterlimit:10;stroke-dasharray:7;}
	.st24{fill:url(#SVGID_13_);}
	.st25{fill:#6A9642;}
	.st26{fill:#504F54;}
	.st27{fill:none;stroke:#B9B9B9;stroke-width:12;stroke-miterlimit:10;}
	.st28{fill:#EAA330;}
	.st29{fill:#2D2C30;}
	.st30{fill:#CED0D1;}
	.st31{fill:#35903A;}
	.st32{fill:#CECFD0;}
	.st33{fill:#4E893F;}
	.st34{fill:#58595B;}
	.st35{fill:#272A2D;}
	.st36{fill:url(#SVGID_14_);}
	.st37{fill:none;stroke:#FFFFFF;stroke-miterlimit:10;}
	.st38{fill:#EEE0AD;}
	.st39{fill:#CDC297;}
	.st40{fill:#BEBFC5;}
	.st41{fill:#AAA9AF;}
	.st42{fill:#DADBDC;}
	.st43{fill:none;stroke:#FFFFFF;stroke-width:2.0274;stroke-miterlimit:10;}
	.st44{fill:none;stroke:#FFFFFF;stroke-width:2.0274;stroke-miterlimit:10;stroke-dasharray:7.054,7.054;}
	.st45{fill:#CDCFD0;}
	.st46{fill:#102D40;}
	.st47{fill:#264860;}
	.st48{clip-path:url(#SVGID_16_);}
	.st49{fill:#E8BD98;}
	.st50{fill:#E76D4A;}
	.st51{fill:#543E36;}
	.st52{fill:#C34628;}
	.st53{fill:none;stroke:#FFFFFF;stroke-width:2.2466;stroke-miterlimit:10;stroke-dasharray:3.7443;}
	.st54{clip-path:url(#SVGID_18_);fill:#98ABB7;}
	.st55{clip-path:url(#SVGID_18_);}
	.st56{fill:#421800;}
	.st57{fill:#ECCCB0;}
	.st58{fill:#B34FC5;}
	.st59{fill:#E3E8EE;}
	.st60{opacity:0.5;clip-path:url(#SVGID_18_);fill:#ECCCB0;}
	.st61{clip-path:url(#SVGID_20_);fill:#3EA1BD;}
	.st62{clip-path:url(#SVGID_20_);}
	.st63{fill:#A17561;}
	.st64{fill:#141720;}
	.st65{clip-path:url(#SVGID_20_);fill:#FFFFFF;}
	.st66{opacity:0.5;clip-path:url(#SVGID_20_);fill:#E8BD98;}
	.st67{clip-path:url(#SVGID_22_);}
	.st68{fill:#C55D3F;}
	.st69{clip-path:url(#SVGID_22_);fill:#E8BD98;}
	.st70{clip-path:url(#SVGID_22_);fill:#C7D4E2;}
	.st71{clip-path:url(#SVGID_22_);fill:#543E36;}
	.st72{clip-path:url(#SVGID_22_);fill:#1A1A1A;}
	.st73{fill:#435363;}
	.st74{opacity:0.5;clip-path:url(#SVGID_22_);fill:#E8BD98;}
	.st75{clip-path:url(#SVGID_24_);fill:#006F34;}
	.st76{clip-path:url(#SVGID_24_);}
	.st77{fill:#B3D033;}
	.st78{fill:#BD7E52;}
	.st79{fill:#B0B3B4;}
	.st80{fill:#8A8D8F;}
	.st81{fill:#D1D3D4;}
	.st82{fill:#787B7D;}
	.st83{fill:#B7BABB;}
	.st84{fill:#91A0A1;}
	.st85{fill:#BFC1C2;}
	.st86{fill:#313034;}
	.st87{fill:url(#SVGID_25_);}
	.st88{fill:#B9B9B9;}
	.st89{fill:#ACAEB0;}
	.st90{fill:#BBBDBE;}
	.st91{fill:#96989A;}
	.st92{fill:#CFD0D1;}
	.st93{fill:#5D5D5D;}
	.st94{fill:#B7B9BB;}
	.st95{fill:#919395;}
	.st96{fill:none;}
	.st97{fill-rule:evenodd;clip-rule:evenodd;fill:#CED0D1;}
	.st98{fill-rule:evenodd;clip-rule:evenodd;fill:#FFFFFF;}
	.st99{fill:url(#SVGID_26_);}
	.st100{fill:url(#SVGID_27_);}
	.st101{fill:#F3F3F3;}
	.st102{fill:#231F20;}
	.st103{fill:url(#SVGID_28_);}
	.st104{fill:url(#SVGID_29_);}
	.st105{fill:url(#SVGID_30_);}
	.st106{fill:url(#SVGID_31_);}
	.st107{fill:url(#SVGID_32_);}
	.st108{fill:url(#SVGID_33_);}
	.st109{fill:url(#SVGID_34_);}
	.st110{fill:url(#SVGID_35_);}
	.st111{fill:url(#SVGID_36_);}
	.st112{fill:url(#SVGID_37_);}
	.st113{fill:url(#SVGID_38_);}
	.st114{fill:url(#SVGID_39_);}
	.st115{fill:url(#SVGID_40_);}
	.st116{fill:url(#SVGID_41_);}
	.st117{fill:url(#SVGID_42_);}
	.st118{fill:url(#SVGID_43_);}
	.st119{opacity:0.8;}
	.st120{opacity:0.8;fill:#F3F3F3;}
	.st121{fill:none;stroke:#5D5D5D;stroke-width:3;stroke-linecap:round;stroke-miterlimit:10;}
	.st122{fill:none;stroke:#201F23;stroke-width:5;stroke-miterlimit:10;}
	.st123{fill:none;stroke:#201F23;stroke-width:4.2064;stroke-linecap:round;stroke-miterlimit:10;}
	.st124{fill:none;stroke:#201F23;stroke-miterlimit:10;}
	.st125{fill:#B9BBBC;}
	.st126{fill:#98999C;}
	.st127{fill:#B9BABC;}
	.st128{fill:#E2E2E3;}
	.st129{fill:#D1D1D2;}
	.st130{fill:#2E2D31;}
	.st131{fill:#1F1E21;}
	.st132{fill:#5D5C61;}
	.st133{fill:#4A4A4E;}
	.st134{fill:#88BD42;}
	.st135{opacity:0.6;}
	.st136{fill:#6A9742;}
	.st137{fill:#5F893B;}
	.st138{fill:none;stroke:#CFD0D1;stroke-width:4;stroke-linecap:round;stroke-miterlimit:10;}
	.st139{fill:#E09400;}
	.st140{fill:#F0EABC;}
	.st141{fill:#FFC843;}
	.st142{fill:#DDA070;}
	.st143{fill:none;stroke:#FFFFFF;stroke-width:4;stroke-linecap:round;stroke-miterlimit:10;}
	.st144{fill:none;stroke:#CFD0D1;stroke-width:2.5756;stroke-linecap:round;stroke-miterlimit:10;}
	.st145{fill:none;stroke:#FFFFFF;stroke-width:2.5756;stroke-linecap:round;stroke-miterlimit:10;}
	.st146{fill:#BCBDBE;}
	.st147{fill:#9C9EA0;}
	.st148{fill:#B3B5B6;}
	.st149{fill:#282828;}
</style>
<g id="Fondo">
</g>
<g id="Diseño">
	<g>
		<path class="st21" d="M110.6,207.5c-0.1-7.9-2.5-15.1-6.5-20.7H85.4C89.4,197.5,99,205.5,110.6,207.5z"/>
		<path class="st33" d="M146.8,186.7h-18.7c-4,5.6-6.4,12.8-6.5,20.7C133.2,205.5,142.7,197.5,146.8,186.7z"/>
		<path class="st31" d="M116.1,10.6C116.1,10.6,116.1,10.6,116.1,10.6l0,22.8c22.6,0,40.9,18.4,40.9,41c0,22.7-18.3,41-40.9,41v11
			c0,0,0,0,0.1,0c11.9,0,23.1-3.6,32.4-9.6c0,0,0,0,0,0c0,0,0,0,0.1,0c11.4,16.6,18.8,41.7,19.2,69.9h-8.5h-1
			c-5.1,18.6-22.1,32.3-42.3,32.3c0,0,0,0,0,0v8.1c0,0,0,0,0,0c59.7,0,108.1-48.5,108.1-108.3C224.2,59,175.8,10.6,116.1,10.6z"/>
		<path class="st21" d="M73.8,186.7h-1h-8.5c0.4-28.3,7.8-53.4,19.2-69.9c0,0,0,0,0.1,0l0,0c9.3,6,20.4,9.6,32.4,9.6v-11
			c0,0,0,0,0,0c-22.6,0-40.9-18.4-40.9-41c0-22.6,18.3-41,40.9-41c0,0,0,0,0,0V10.6C56.4,10.6,8,59.1,8,118.9
			c0,59.8,48.4,108.3,108,108.3V219C95.9,219,78.9,205.3,73.8,186.7z"/>
		<path class="st6" d="M75.1,74.3c0,22.7,18.3,41,40.9,41c0,0,0,0,0,0v-82c0,0,0,0,0,0C93.4,33.3,75.1,51.7,75.1,74.3z"/>
		<path class="st32" d="M157,74.3c0-22.6-18.3-41-40.9-41v82C138.7,115.4,157,97,157,74.3z"/>
		<path class="st6" d="M85.2,164.1H116v-21.9C101.8,142.2,89.8,151.4,85.2,164.1z"/>
		<path class="st6" d="M83.2,175.1c0,4.1,0.8,8,2.1,11.6h18.7C99.1,179.6,91.6,175.1,83.2,175.1z"/>
		<path class="st32" d="M146.9,164.1c-4.5-12.7-16.6-21.9-30.9-21.9c0,0,0,0,0,0v21.9H146.9z"/>
		<path class="st32" d="M149,175.1c-8.4,0-15.8,4.5-20.9,11.6h18.7C148.2,183.1,149,179.2,149,175.1z"/>
		<path class="st6" d="M83.6,116.8C83.6,116.8,83.6,116.8,83.6,116.8c-11.5,16.5-18.9,41.6-19.3,69.9h8.5h1c-1-3.7-1.6-7.6-1.6-11.6
			c0-24.2,19.6-43.9,43.8-43.9v-4.8C104.1,126.4,93,122.8,83.6,116.8L83.6,116.8z"/>
		<path class="st32" d="M116.1,131.2c24.2,0,43.8,19.7,43.8,43.9c0,4-0.6,7.9-1.6,11.6h1h8.5c-0.4-28.3-7.8-53.4-19.2-69.9
			c0,0,0,0-0.1,0c0,0,0,0,0,0c-9.4,6-20.5,9.6-32.4,9.6c0,0,0,0-0.1,0L116.1,131.2C116.1,131.2,116.1,131.2,116.1,131.2z"/>
		<path class="st34" d="M104.1,186.7c3.9,5.6,6.4,12.8,6.5,20.7c-11.6-2-21.1-10-25.2-20.7H73.8c5.1,18.6,22,32.2,42.2,32.3v-32.3
			H104.1z"/>
		<path class="st35" d="M116.1,131.2C116.1,131.2,116.1,131.2,116.1,131.2l0,11c0,0,0,0,0,0c14.3,0,26.3,9.2,30.9,21.9H116v22.6V219
			c0,0,0,0,0,0c20.2,0,37.2-13.7,42.3-32.3c1-3.7,1.6-7.6,1.6-11.6C159.9,150.9,140.3,131.2,116.1,131.2z M121.6,207.5
			c0.1-7.9,2.5-15.1,6.5-20.7c5-7.1,12.5-11.6,20.9-11.6c0,4.1-0.8,8-2.1,11.6C142.7,197.5,133.2,205.5,121.6,207.5z"/>
		<path class="st34" d="M83.2,175.1c8.4,0,15.8,4.5,20.9,11.6h12v-22.6H85.2c4.6-12.7,16.6-21.9,30.8-21.9v-11
			c-24.2,0-43.8,19.7-43.8,43.9c0,4,0.6,7.9,1.6,11.6h11.5C84,183.1,83.2,179.2,83.2,175.1z"/>
	</g>
</g>
<g id="Iconos">
</g>
</svg>
