<svg xmlns="http://www.w3.org/2000/svg" viewBox="0 0 133.94 133.94"><defs><style>.cls-1{fill:#6a9642;}.cls-2{fill:#87bc42;}.cls-3{fill:#bcbdbe;}.cls-4{fill:#9c9ea0;}.cls-5{fill:none;}.cls-6{fill:#cecfd0;}.cls-7{fill:#fff;}.cls-8{fill:#b3b5b6;}</style></defs><title>Recurso 8</title><g id="Capa_2" data-name="Capa 2"><g id="Iconos"><path class="cls-1" d="M133.94,67A67,67,0,0,0,67,0V133.94A67,67,0,0,0,133.94,67Z"/><path class="cls-2" d="M67,0a67,67,0,0,0,0,133.94h0V0Z"/><path class="cls-3" d="M103.84,62.13H82.29L71.52,80.8,82.29,99.46h21.55L114.61,80.8ZM93.06,90.27a9.48,9.48,0,1,1,9.48-9.48A9.48,9.48,0,0,1,93.06,90.27Z"/><path class="cls-4" d="M102.23,64.92H83.9L74.73,80.8,83.9,96.68h18.34L111.4,80.8ZM93.06,90.27a9.48,9.48,0,1,1,9.48-9.48A9.48,9.48,0,0,1,93.06,90.27Z"/><circle class="cls-5" cx="49.81" cy="54.4" r="13.41"/><circle class="cls-5" cx="55.29" cy="103.9" r="8.02"/><polygon class="cls-6" points="66.97 31.31 66.97 39.18 75.75 54.4 66.97 69.61 66.97 77.48 80.3 54.4 66.97 31.31"/><polygon class="cls-7" points="62.78 76.86 36.84 76.86 23.87 54.4 36.84 31.93 62.78 31.93 66.97 39.18 66.97 31.31 65.06 27.99 34.57 27.99 19.32 54.4 34.57 80.8 65.06 80.8 66.97 77.48 66.97 69.61 62.78 76.86"/><polygon class="cls-8" points="75.75 54.4 66.97 39.18 66.97 69.61 75.75 54.4"/><path class="cls-6" d="M36.84,31.93l-13,22.47,13,22.47H62.78L67,69.61V39.18l-4.19-7.25Zm13,35.87A13.41,13.41,0,1,1,63.22,54.4,13.41,13.41,0,0,1,49.81,67.8Z"/><polygon class="cls-6" points="66.97 92.53 66.97 97.25 70.81 103.9 66.97 110.56 66.97 115.27 73.53 103.9 66.97 92.53"/><polygon class="cls-7" points="63.05 117.35 47.53 117.35 39.76 103.9 47.53 90.46 63.05 90.46 66.97 97.25 66.97 92.53 64.41 88.1 46.16 88.1 37.04 103.9 46.16 119.7 64.41 119.7 66.97 115.27 66.97 110.56 63.05 117.35"/><path class="cls-6" d="M47.53,90.46,39.76,103.9l7.76,13.44H63.05L67,110.56V97.25l-3.92-6.79Zm7.76,21.47a8,8,0,1,1,8-8A8,8,0,0,1,55.29,111.93Z"/><polygon class="cls-8" points="70.81 103.9 66.97 97.25 66.97 110.56 70.81 103.9"/></g></g></svg>