<svg xmlns="http://www.w3.org/2000/svg" viewBox="0 0 150 150"><defs><style>.cls-1{fill:#313034;}.cls-2{fill:#504f54;}.cls-3{fill:#bcbdbe;}.cls-4{fill:#9c9ea0;}.cls-5{fill:none;}.cls-6{fill:#cecfd0;}.cls-7{fill:#fff;}.cls-8{fill:#b3b5b6;}</style></defs><title>config_talleres</title><g id="Iconos"><path class="cls-1" d="M141.91,72.45a67,67,0,0,0-67-67V139.42A67,67,0,0,0,141.91,72.45Z"/><path class="cls-2" d="M74.94,5.48a67,67,0,0,0,0,133.94h0V5.48Z"/><path class="cls-3" d="M111.81,67.61H90.26L79.49,86.27l10.77,18.66h21.55l10.77-18.66ZM101,95.75a9.48,9.48,0,1,1,9.48-9.48A9.48,9.48,0,0,1,101,95.75Z"/><path class="cls-4" d="M110.2,70.39H91.87L82.7,86.27l9.17,15.88H110.2l9.17-15.88ZM101,95.75a9.48,9.48,0,1,1,9.48-9.48A9.48,9.48,0,0,1,101,95.75Z"/><circle class="cls-5" cx="57.78" cy="59.87" r="13.41"/><circle class="cls-5" cx="63.26" cy="109.38" r="8.02"/><polygon class="cls-6" points="74.94 36.79 74.94 44.66 83.73 59.87 74.94 75.09 74.94 82.96 88.27 59.87 74.94 36.79"/><polygon class="cls-7" points="70.75 82.34 44.81 82.34 31.84 59.87 44.81 37.41 70.75 37.41 74.94 44.66 74.94 36.79 73.03 33.47 42.54 33.47 27.3 59.87 42.54 86.28 73.03 86.28 74.94 82.96 74.94 75.09 70.75 82.34"/><polygon class="cls-8" points="83.73 59.87 74.94 44.66 74.94 75.09 83.73 59.87"/><path class="cls-6" d="M44.81,37.41l-13,22.47,13,22.47H70.75l4.19-7.25V44.66l-4.19-7.25Zm13,35.87a13.41,13.41,0,1,1,13.4-13.41A13.41,13.41,0,0,1,57.78,73.28Z"/><polygon class="cls-6" points="74.94 98.01 74.94 102.72 78.78 109.38 74.94 116.04 74.94 120.75 81.5 109.38 74.94 98.01"/><polygon class="cls-7" points="71.02 122.82 55.5 122.82 47.73 109.38 55.5 95.93 71.02 95.93 74.94 102.72 74.94 98.01 72.38 93.58 54.14 93.58 45.01 109.38 54.14 125.18 72.38 125.18 74.94 120.75 74.94 116.04 71.02 122.82"/><path class="cls-6" d="M55.5,95.93l-7.76,13.45,7.76,13.44H71L74.94,116V102.72L71,95.93Zm7.76,21.47a8,8,0,1,1,8-8A8,8,0,0,1,63.26,117.4Z"/><polygon class="cls-8" points="78.78 109.38 74.94 102.72 74.94 116.04 78.78 109.38"/></g></svg>