<?xml version="1.0" encoding="utf-8"?>
<!-- Generator: Adobe Illustrator 20.1.0, SVG Export Plug-In . SVG Version: 6.00 Build 0)  -->
<svg version="1.1" xmlns="http://www.w3.org/2000/svg" xmlns:xlink="http://www.w3.org/1999/xlink" x="0px" y="0px"
	 viewBox="0 0 87.8 90.5" style="enable-background:new 0 0 87.8 90.5;" xml:space="preserve">
<style type="text/css">
	.st0{clip-path:url(#SVGID_4_);}
	.st1{fill:#201F23;}
	.st2{fill:url(#SVGID_5_);}
	.st3{fill:#DBDCDD;}
	.st4{opacity:0.9;fill:#EAA330;}
	.st5{fill:#87BC42;}
	.st6{fill:#FFFFFF;}
	.st7{opacity:0.9;fill:#201F23;}
	.st8{opacity:0.7;fill:#201F23;}
	.st9{fill:url(#SVGID_6_);}
	.st10{fill:url(#SVGID_7_);}
	.st11{fill:url(#SVGID_8_);}
	.st12{fill:url(#SVGID_9_);}
	.st13{fill:url(#SVGID_10_);}
	.st14{fill:url(#SVGID_11_);}
	.st15{fill:none;stroke:#DBDCDD;stroke-width:3;stroke-linecap:round;stroke-miterlimit:10;}
	.st16{opacity:0.4;fill:#FFFFFF;}
	.st17{fill:none;stroke:#B9B9B9;stroke-width:12;stroke-linejoin:round;stroke-miterlimit:10;}
	.st18{fill:none;stroke:#6A9642;stroke-width:14;stroke-miterlimit:10;}
	.st19{fill:none;stroke:#FFFFFF;stroke-width:12;stroke-linejoin:round;stroke-miterlimit:10;}
	.st20{fill:url(#SVGID_12_);}
	.st21{fill:#6AAF42;}
	.st22{fill:none;stroke:#FFFFFF;stroke-width:2.0274;stroke-miterlimit:10;stroke-dasharray:3.379;}
	.st23{fill:none;stroke:#FFFFFF;stroke-width:2.0274;stroke-miterlimit:10;stroke-dasharray:7;}
	.st24{fill:url(#SVGID_13_);}
	.st25{fill:#6A9642;}
	.st26{fill:#504F54;}
	.st27{fill:none;stroke:#B9B9B9;stroke-width:12;stroke-miterlimit:10;}
	.st28{fill:#EAA330;}
	.st29{fill:#2D2C30;}
	.st30{fill:#CED0D1;}
	.st31{fill:#35903A;}
	.st32{fill:#CECFD0;}
	.st33{fill:#4E893F;}
	.st34{fill:#58595B;}
	.st35{fill:#272A2D;}
	.st36{fill:url(#SVGID_14_);}
	.st37{fill:none;stroke:#FFFFFF;stroke-miterlimit:10;}
	.st38{fill:#EEE0AD;}
	.st39{fill:#CDC297;}
	.st40{fill:#BEBFC5;}
	.st41{fill:#AAA9AF;}
	.st42{fill:#DADBDC;}
	.st43{fill:none;stroke:#FFFFFF;stroke-width:2.0274;stroke-miterlimit:10;}
	.st44{fill:none;stroke:#FFFFFF;stroke-width:2.0274;stroke-miterlimit:10;stroke-dasharray:7.054,7.054;}
	.st45{fill:#CDCFD0;}
	.st46{fill:#102D40;}
	.st47{fill:#264860;}
	.st48{clip-path:url(#SVGID_16_);}
	.st49{fill:#E8BD98;}
	.st50{fill:#E76D4A;}
	.st51{fill:#543E36;}
	.st52{fill:#C34628;}
	.st53{clip-path:url(#SVGID_18_);}
	.st54{fill:none;stroke:#FFFFFF;stroke-width:2.2466;stroke-miterlimit:10;stroke-dasharray:3.7443;}
	.st55{clip-path:url(#SVGID_20_);fill:#98ABB7;}
	.st56{clip-path:url(#SVGID_20_);}
	.st57{fill:#421800;}
	.st58{fill:#ECCCB0;}
	.st59{fill:#B34FC5;}
	.st60{fill:#E3E8EE;}
	.st61{opacity:0.5;clip-path:url(#SVGID_20_);fill:#ECCCB0;}
	.st62{clip-path:url(#SVGID_22_);fill:#3EA1BD;}
	.st63{clip-path:url(#SVGID_22_);}
	.st64{fill:#A17561;}
	.st65{fill:#141720;}
	.st66{clip-path:url(#SVGID_22_);fill:#FFFFFF;}
	.st67{opacity:0.5;clip-path:url(#SVGID_22_);fill:#E8BD98;}
	.st68{clip-path:url(#SVGID_24_);}
	.st69{fill:#C55D3F;}
	.st70{clip-path:url(#SVGID_24_);fill:#E8BD98;}
	.st71{clip-path:url(#SVGID_24_);fill:#C7D4E2;}
	.st72{clip-path:url(#SVGID_24_);fill:#543E36;}
	.st73{clip-path:url(#SVGID_24_);fill:#1A1A1A;}
	.st74{fill:#435363;}
	.st75{opacity:0.5;clip-path:url(#SVGID_24_);fill:#E8BD98;}
	.st76{clip-path:url(#SVGID_26_);fill:#98ABB7;}
	.st77{clip-path:url(#SVGID_26_);}
	.st78{opacity:0.5;clip-path:url(#SVGID_26_);fill:#ECCCB0;}
	.st79{clip-path:url(#SVGID_28_);fill:#3EA1BD;}
	.st80{clip-path:url(#SVGID_28_);}
	.st81{clip-path:url(#SVGID_28_);fill:#FFFFFF;}
	.st82{opacity:0.5;clip-path:url(#SVGID_28_);fill:#E8BD98;}
	.st83{clip-path:url(#SVGID_30_);}
	.st84{clip-path:url(#SVGID_30_);fill:#E8BD98;}
	.st85{clip-path:url(#SVGID_30_);fill:#C7D4E2;}
	.st86{clip-path:url(#SVGID_30_);fill:#543E36;}
	.st87{clip-path:url(#SVGID_30_);fill:#1A1A1A;}
	.st88{opacity:0.5;clip-path:url(#SVGID_30_);fill:#E8BD98;}
	.st89{clip-path:url(#SVGID_32_);fill:#006F34;}
	.st90{clip-path:url(#SVGID_32_);}
	.st91{fill:#B3D033;}
	.st92{fill:#BD7E52;}
	.st93{fill:#B0B3B4;}
	.st94{fill:#8A8D8F;}
	.st95{fill:#D1D3D4;}
	.st96{fill:#787B7D;}
	.st97{fill:#B7BABB;}
	.st98{fill:#91A0A1;}
	.st99{clip-path:url(#SVGID_34_);fill:#006F34;}
	.st100{clip-path:url(#SVGID_34_);}
	.st101{fill:#BFC1C2;}
	.st102{fill:#313034;}
	.st103{fill:url(#SVGID_35_);}
	.st104{fill:#B9B9B9;}
	.st105{fill:#ACAEB0;}
	.st106{fill:#BBBDBE;}
	.st107{fill:#96989A;}
	.st108{fill:#CFD0D1;}
	.st109{fill:#5D5D5D;}
	.st110{fill:#B7B9BB;}
	.st111{fill:#919395;}
	.st112{fill:none;}
	.st113{fill-rule:evenodd;clip-rule:evenodd;fill:#CED0D1;}
	.st114{fill-rule:evenodd;clip-rule:evenodd;fill:#FFFFFF;}
	.st115{fill:url(#SVGID_36_);}
	.st116{fill:url(#SVGID_37_);}
	.st117{fill:#F3F3F3;}
	.st118{fill:#231F20;}
	.st119{fill:url(#SVGID_38_);}
	.st120{fill:url(#SVGID_39_);}
	.st121{fill:url(#SVGID_40_);}
	.st122{fill:url(#SVGID_41_);}
	.st123{fill:url(#SVGID_42_);}
	.st124{fill:url(#SVGID_43_);}
	.st125{fill:url(#SVGID_44_);}
	.st126{fill:url(#SVGID_45_);}
	.st127{fill:url(#SVGID_46_);}
	.st128{fill:url(#SVGID_47_);}
	.st129{fill:url(#SVGID_48_);}
	.st130{fill:url(#SVGID_49_);}
	.st131{fill:url(#SVGID_50_);}
	.st132{fill:url(#SVGID_51_);}
	.st133{fill:url(#SVGID_52_);}
	.st134{fill:url(#SVGID_53_);}
	.st135{opacity:0.8;}
	.st136{opacity:0.8;fill:#F3F3F3;}
	.st137{clip-path:url(#SVGID_55_);}
	.st138{clip-path:url(#SVGID_57_);fill:#98ABB7;}
	.st139{clip-path:url(#SVGID_57_);}
	.st140{opacity:0.5;clip-path:url(#SVGID_57_);fill:#ECCCB0;}
	.st141{clip-path:url(#SVGID_59_);fill:#3EA1BD;}
	.st142{clip-path:url(#SVGID_59_);}
	.st143{clip-path:url(#SVGID_59_);fill:#FFFFFF;}
	.st144{opacity:0.5;clip-path:url(#SVGID_59_);fill:#E8BD98;}
	.st145{clip-path:url(#SVGID_61_);}
	.st146{clip-path:url(#SVGID_61_);fill:#E8BD98;}
	.st147{clip-path:url(#SVGID_61_);fill:#C7D4E2;}
	.st148{clip-path:url(#SVGID_61_);fill:#543E36;}
	.st149{clip-path:url(#SVGID_61_);fill:#1A1A1A;}
	.st150{opacity:0.5;clip-path:url(#SVGID_61_);fill:#E8BD98;}
	.st151{fill:none;stroke:#5D5D5D;stroke-width:3;stroke-linecap:round;stroke-miterlimit:10;}
	.st152{fill:none;stroke:#201F23;stroke-width:5;stroke-miterlimit:10;}
	.st153{fill:none;stroke:#201F23;stroke-width:4.2064;stroke-linecap:round;stroke-miterlimit:10;}
	.st154{fill:none;stroke:#201F23;stroke-miterlimit:10;}
	.st155{fill:#B9BBBC;}
	.st156{fill:#98999C;}
	.st157{fill:#B9BABC;}
	.st158{fill:#E2E2E3;}
	.st159{fill:#D1D1D2;}
	.st160{fill:#2E2D31;}
	.st161{fill:#1F1E21;}
	.st162{fill:#5D5C61;}
	.st163{fill:#4A4A4E;}
	.st164{fill:#88BD42;}
	.st165{opacity:0.6;}
	.st166{fill:#6A9742;}
	.st167{fill:#5F893B;}
	.st168{fill:none;stroke:#CFD0D1;stroke-width:4;stroke-linecap:round;stroke-miterlimit:10;}
	.st169{fill:#E09400;}
	.st170{fill:#F0EABC;}
	.st171{fill:#FFC843;}
	.st172{fill:#DDA070;}
	.st173{fill:none;stroke:#FFFFFF;stroke-width:4;stroke-linecap:round;stroke-miterlimit:10;}
	.st174{fill:none;stroke:#CFD0D1;stroke-width:2.5756;stroke-linecap:round;stroke-miterlimit:10;}
	.st175{fill:none;stroke:#FFFFFF;stroke-width:2.5756;stroke-linecap:round;stroke-miterlimit:10;}
	.st176{fill:#BCBDBE;}
	.st177{fill:#9C9EA0;}
	.st178{fill:#B3B5B6;}
	.st179{fill:#282828;}
</style>
<g id="Fondo">
</g>
<g id="Diseño">
	<g>
		<g>
			<g>
				<g>
					<path class="st26" d="M0.8,45.6c0,23.6,18.7,42.8,42.7,42.9V2.7C19.5,2.8,0.8,22,0.8,45.6z"/>
					<path class="st102" d="M44.1,2.6c-0.1,0-0.6,0-0.6,0v85.9c0,0,0.5,0,0.6,0C67.8,88.5,87,69.3,87,45.6
						C87,21.9,67.8,2.6,44.1,2.6z"/>
				</g>
			</g>
			<g>
				<path class="st112" d="M29,30.2l-4.3,10.3c-0.5,1.2,0.2,2.2,1.5,2.2h17.3v-15H32.4C31,27.7,29.5,29,29,30.2z"/>
				<path class="st112" d="M35.5,49.8c0-0.7-0.5-1.1-1.2-1.1h-8.6c-0.7,0-1.2,0.4-1.2,1.1v4c0,0.7,0.6,1.9,1.2,1.9h8.6
					c0.7,0,1.2-1.2,1.2-1.9V49.8z"/>
				<path class="st112" d="M62.3,42.7c1.3,0,2-0.8,1.5-2l-4.3-10.6c-0.5-1.2-2-2.4-3.3-2.4H43.5v15H62.3z"/>
				<path class="st112" d="M64.5,49.8c0-0.7-0.3-1.1-0.9-1.1H55c-0.7,0-1.5,0.4-1.5,1.1v4c0,0.7,0.8,1.9,1.5,1.9h8.6
					c0.7,0,0.9-1.2,0.9-1.9V49.8z"/>
			</g>
		</g>
		<g>
			<g>
				<path class="st6" d="M18.3,47.9c-3.3,0-6.1,2.7-6.1,6.1c0,0.3,0,0.5,0.1,0.8c0.4,3,2.9,5.3,6,5.3c3.2,0,5.8-2.4,6-5.5
					c0-0.2,0-0.3,0-0.5C24.4,50.6,21.7,47.9,18.3,47.9z M15.3,51.6l1.2,1.2c-0.1,0.2-0.2,0.3-0.2,0.5h-1.7
					C14.7,52.8,14.9,52.2,15.3,51.6z M14.6,54.5h1.8c0,0.2,0.1,0.4,0.2,0.5l-1.2,1.2C14.9,55.7,14.6,55.1,14.6,54.5z M17.8,57.7
					c-0.7-0.1-1.3-0.4-1.8-0.7l1.2-1.2c0.2,0.1,0.3,0.2,0.5,0.2V57.7z M17.8,51.9c-0.2,0.1-0.4,0.1-0.5,0.2L16,50.9
					c0.5-0.4,1.1-0.6,1.8-0.7V51.9z M18.8,50.2c0.7,0.1,1.3,0.3,1.8,0.7l-1.2,1.2C19.2,52,19,52,18.8,51.9L18.8,50.2L18.8,50.2z
					 M18.8,57.7V56c0.2,0,0.4-0.1,0.5-0.2l1.2,1.2C20.1,57.3,19.5,57.6,18.8,57.7z M21.4,56.2L20.1,55c0.1-0.2,0.2-0.3,0.2-0.5h1.7
					C22,55.1,21.7,55.7,21.4,56.2z M20.3,53.4c0-0.2-0.1-0.4-0.2-0.5l1.2-1.2c0.4,0.5,0.6,1.1,0.7,1.8L20.3,53.4L20.3,53.4z"/>
				<path class="st32" d="M68.6,47.9c-3.3,0-6.1,2.7-6.1,6.1c0,0.3,0,0.5,0.1,0.8c0.4,3,2.9,5.3,6,5.3c3.2,0,5.8-2.4,6-5.5
					c0-0.2,0-0.3,0-0.5C74.7,50.6,72,47.9,68.6,47.9z M65.6,51.6l1.2,1.2c-0.1,0.2-0.2,0.3-0.2,0.5h-1.7
					C65,52.8,65.2,52.2,65.6,51.6z M64.9,54.5h1.8c0,0.2,0.1,0.4,0.2,0.5l-1.2,1.2C65.2,55.7,65,55.1,64.9,54.5z M68.1,57.7
					c-0.7-0.1-1.3-0.4-1.8-0.7l1.2-1.2c0.2,0.1,0.3,0.2,0.5,0.2V57.7z M68.1,51.9c-0.2,0.1-0.4,0.1-0.5,0.2l-1.2-1.2
					c0.5-0.4,1.1-0.6,1.8-0.7V51.9z M69.2,50.2c0.7,0.1,1.3,0.3,1.8,0.7l-1.2,1.2c-0.2-0.1-0.3-0.2-0.5-0.2V50.2z M69.2,57.7V56
					c0.2,0,0.4-0.1,0.5-0.2l1.2,1.2C70.4,57.3,69.8,57.6,69.2,57.7z M71.7,56.2L70.4,55c0.1-0.2,0.2-0.3,0.2-0.5h1.7
					C72.3,55.1,72.1,55.7,71.7,56.2z M70.7,53.4c0-0.2-0.1-0.4-0.2-0.5l1.2-1.2c0.4,0.5,0.6,1.1,0.7,1.8L70.7,53.4L70.7,53.4z"/>
			</g>
		</g>
		<g>
			<path class="st112" d="M33.9,40.9L44,40.6v-6.7c-3.5,0.6-8.1,1.8-11.1,4.5C32.9,38.4,34.1,38.9,33.9,40.9z"/>
			<path class="st112" d="M47.4,40.5l1.7-7.1c0,0-2.2,0-5.1,0.5v6.7L47.4,40.5z"/>
			<path class="st112" d="M51.3,33.4l-1.1,6.9l12.3-0.4l0.6-2.2l-1.8-2.9C61.3,34.7,57.7,33.3,51.3,33.4z"/>
			<path class="st112" d="M68.4,37.8c-1.2-0.6-3.3-1.6-5.9-2.7l3.4,4.7h3.4C69.6,39,69.2,38.2,68.4,37.8z"/>
			<path class="st6" d="M33.9,40.9c0.2-2-0.9-2.5-0.9-2.5c3-2.7,7.6-3.9,11.1-4.5v-2c-2,0.3-4,0.8-6,1.5c-1.9,0.7-10.5,4.8-15.6,6.9
				c-1.5,0-16.2,3.1-17,5.2c-0.8,2.1-1,3.1-1.2,3.7c-0.1,0.5,0,3.1,1.1,4.9c1.1,0.6,3.3,1.1,5.7,1.3c0-0.1-0.1-0.3-0.1-0.5
				c0-0.3-0.1-0.6-0.1-0.9c0-4,3.3-7.3,7.3-7.3c4,0,7.3,3.3,7.3,7.3c0,0.2,0,0.4,0,0.6c0,0.4-0.1,0.9-0.2,1.3c0,0,0,0,0,0L44,55.5
				V40.6L33.9,40.9z"/>
			<path class="st32" d="M83.2,44.7v-4.5c0-0.7-0.5-1.3-1.2-1.4c-1.7-0.3-4.7-0.8-6.1-1.2c-2-0.6-9.5-3.8-12.1-4.4
				c-2.2-0.5-10.5-2.8-19.7-1.3v2c2.9-0.5,5.1-0.5,5.1-0.5l-1.7,7.1L44,40.6v14.9l17.5-0.4c0-0.1,0-0.2,0-0.3c0-0.3-0.1-0.6-0.1-0.9
				c0-4,3.3-7.3,7.3-7.3c4,0,7.3,3.3,7.3,7.3c0,0,0,0,0,0l0.2,0l6.2-1.2c0,0,2.4-1.3,2.4-4.7C84.6,45.8,83.2,44.7,83.2,44.7z
				 M62.5,39.9l-12.3,0.4l1.1-6.9c6.4-0.1,10,1.3,10,1.3l1.8,2.9L62.5,39.9z M69.4,39.8H66l-3.4-4.7c2.6,1,4.6,2,5.9,2.7
				C69.2,38.2,69.6,39,69.4,39.8z"/>
		</g>
	</g>
</g>
<g id="Iconos">
</g>
</svg>
