<?xml version="1.0" encoding="utf-8"?>
<!-- Generator: Adobe Illustrator 20.1.0, SVG Export Plug-In . SVG Version: 6.00 Build 0)  -->
<svg version="1.1" xmlns="http://www.w3.org/2000/svg" xmlns:xlink="http://www.w3.org/1999/xlink" x="0px" y="0px"
	 viewBox="0 0 352.2 360.6" style="enable-background:new 0 0 352.2 360.6;" xml:space="preserve">
<style type="text/css">
	.st0{clip-path:url(#SVGID_4_);}
	.st1{fill:#201F23;}
	.st2{fill:url(#SVGID_5_);}
	.st3{fill:#DBDCDD;}
	.st4{opacity:0.9;fill:#EAA330;}
	.st5{fill:#87BC42;}
	.st6{fill:#FFFFFF;}
	.st7{opacity:0.9;fill:#201F23;}
	.st8{opacity:0.7;fill:#201F23;}
	.st9{fill:url(#SVGID_6_);}
	.st10{fill:url(#SVGID_7_);}
	.st11{fill:url(#SVGID_8_);}
	.st12{fill:url(#SVGID_9_);}
	.st13{fill:url(#SVGID_10_);}
	.st14{fill:url(#SVGID_11_);}
	.st15{fill:none;stroke:#DBDCDD;stroke-width:3;stroke-linecap:round;stroke-miterlimit:10;}
	.st16{opacity:0.4;fill:#FFFFFF;}
	.st17{fill:none;stroke:#B9B9B9;stroke-width:12;stroke-linejoin:round;stroke-miterlimit:10;}
	.st18{fill:none;stroke:#6A9642;stroke-width:14;stroke-miterlimit:10;}
	.st19{fill:none;stroke:#FFFFFF;stroke-width:12;stroke-linejoin:round;stroke-miterlimit:10;}
	.st20{fill:url(#SVGID_12_);}
	.st21{fill:#6AAF42;}
	.st22{fill:none;stroke:#FFFFFF;stroke-width:2.0274;stroke-miterlimit:10;stroke-dasharray:3.379;}
	.st23{fill:none;stroke:#FFFFFF;stroke-width:2.0274;stroke-miterlimit:10;stroke-dasharray:7;}
	.st24{fill:url(#SVGID_13_);}
	.st25{fill:#6A9642;}
	.st26{fill:#504F54;}
	.st27{fill:none;stroke:#B9B9B9;stroke-width:12;stroke-miterlimit:10;}
	.st28{fill:#EAA330;}
	.st29{fill:#2D2C30;}
	.st30{fill:#CED0D1;}
	.st31{fill:#35903A;}
	.st32{fill:#CECFD0;}
	.st33{fill:#4E893F;}
	.st34{fill:#58595B;}
	.st35{fill:#272A2D;}
	.st36{fill:url(#SVGID_14_);}
	.st37{fill:none;stroke:#FFFFFF;stroke-miterlimit:10;}
	.st38{fill:#EEE0AD;}
	.st39{fill:#CDC297;}
	.st40{fill:#BEBFC5;}
	.st41{fill:#AAA9AF;}
	.st42{fill:#DADBDC;}
	.st43{fill:none;stroke:#FFFFFF;stroke-width:2.0274;stroke-miterlimit:10;}
	.st44{fill:none;stroke:#FFFFFF;stroke-width:2.0274;stroke-miterlimit:10;stroke-dasharray:7.054,7.054;}
	.st45{fill:#CDCFD0;}
	.st46{fill:#102D40;}
	.st47{fill:#264860;}
	.st48{clip-path:url(#SVGID_16_);}
	.st49{fill:#E8BD98;}
	.st50{fill:#E76D4A;}
	.st51{fill:#543E36;}
	.st52{fill:#C34628;}
	.st53{fill:none;stroke:#FFFFFF;stroke-width:2.2466;stroke-miterlimit:10;stroke-dasharray:3.7443;}
	.st54{clip-path:url(#SVGID_18_);fill:#98ABB7;}
	.st55{clip-path:url(#SVGID_18_);}
	.st56{fill:#421800;}
	.st57{fill:#ECCCB0;}
	.st58{fill:#B34FC5;}
	.st59{fill:#E3E8EE;}
	.st60{opacity:0.5;clip-path:url(#SVGID_18_);fill:#ECCCB0;}
	.st61{clip-path:url(#SVGID_20_);fill:#3EA1BD;}
	.st62{clip-path:url(#SVGID_20_);}
	.st63{fill:#A17561;}
	.st64{fill:#141720;}
	.st65{clip-path:url(#SVGID_20_);fill:#FFFFFF;}
	.st66{opacity:0.5;clip-path:url(#SVGID_20_);fill:#E8BD98;}
	.st67{clip-path:url(#SVGID_22_);}
	.st68{fill:#C55D3F;}
	.st69{clip-path:url(#SVGID_22_);fill:#E8BD98;}
	.st70{clip-path:url(#SVGID_22_);fill:#C7D4E2;}
	.st71{clip-path:url(#SVGID_22_);fill:#543E36;}
	.st72{clip-path:url(#SVGID_22_);fill:#1A1A1A;}
	.st73{fill:#435363;}
	.st74{opacity:0.5;clip-path:url(#SVGID_22_);fill:#E8BD98;}
	.st75{clip-path:url(#SVGID_24_);fill:#006F34;}
	.st76{clip-path:url(#SVGID_24_);}
	.st77{fill:#B3D033;}
	.st78{fill:#BD7E52;}
	.st79{fill:#B0B3B4;}
	.st80{fill:#8A8D8F;}
	.st81{fill:#D1D3D4;}
	.st82{fill:#787B7D;}
	.st83{fill:#B7BABB;}
	.st84{fill:#91A0A1;}
	.st85{fill:#BFC1C2;}
	.st86{fill:#313034;}
	.st87{fill:url(#SVGID_25_);}
	.st88{fill:#B9B9B9;}
	.st89{fill:#ACAEB0;}
	.st90{fill:#BBBDBE;}
	.st91{fill:#96989A;}
	.st92{fill:#CFD0D1;}
	.st93{fill:#5D5D5D;}
	.st94{fill:#B7B9BB;}
	.st95{fill:#919395;}
	.st96{fill:none;}
	.st97{fill-rule:evenodd;clip-rule:evenodd;fill:#CED0D1;}
	.st98{fill-rule:evenodd;clip-rule:evenodd;fill:#FFFFFF;}
	.st99{fill:url(#SVGID_26_);}
	.st100{fill:url(#SVGID_27_);}
	.st101{fill:#F3F3F3;}
	.st102{fill:#231F20;}
	.st103{fill:url(#SVGID_28_);}
	.st104{fill:url(#SVGID_29_);}
	.st105{fill:url(#SVGID_30_);}
	.st106{fill:url(#SVGID_31_);}
	.st107{fill:url(#SVGID_32_);}
	.st108{fill:url(#SVGID_33_);}
	.st109{fill:url(#SVGID_34_);}
	.st110{fill:url(#SVGID_35_);}
	.st111{fill:url(#SVGID_36_);}
	.st112{fill:url(#SVGID_37_);}
	.st113{fill:url(#SVGID_38_);}
	.st114{fill:url(#SVGID_39_);}
	.st115{fill:url(#SVGID_40_);}
	.st116{fill:url(#SVGID_41_);}
	.st117{fill:url(#SVGID_42_);}
	.st118{fill:url(#SVGID_43_);}
	.st119{opacity:0.8;}
	.st120{opacity:0.8;fill:#F3F3F3;}
	.st121{fill:none;stroke:#5D5D5D;stroke-width:3;stroke-linecap:round;stroke-miterlimit:10;}
	.st122{fill:none;stroke:#201F23;stroke-width:5;stroke-miterlimit:10;}
	.st123{fill:none;stroke:#201F23;stroke-width:4.2064;stroke-linecap:round;stroke-miterlimit:10;}
	.st124{fill:none;stroke:#201F23;stroke-miterlimit:10;}
	.st125{fill:#B9BBBC;}
	.st126{fill:#98999C;}
	.st127{fill:#B9BABC;}
	.st128{fill:#E2E2E3;}
	.st129{fill:#D1D1D2;}
	.st130{fill:#2E2D31;}
	.st131{fill:#1F1E21;}
	.st132{fill:#5D5C61;}
	.st133{fill:#4A4A4E;}
	.st134{fill:#88BD42;}
	.st135{opacity:0.6;}
	.st136{fill:#6A9742;}
	.st137{fill:#5F893B;}
	.st138{fill:none;stroke:#CFD0D1;stroke-width:4;stroke-linecap:round;stroke-miterlimit:10;}
	.st139{fill:#E09400;}
	.st140{fill:#F0EABC;}
	.st141{fill:#FFC843;}
	.st142{fill:#DDA070;}
	.st143{fill:none;stroke:#FFFFFF;stroke-width:4;stroke-linecap:round;stroke-miterlimit:10;}
	.st144{fill:none;stroke:#CFD0D1;stroke-width:2.5756;stroke-linecap:round;stroke-miterlimit:10;}
	.st145{fill:none;stroke:#FFFFFF;stroke-width:2.5756;stroke-linecap:round;stroke-miterlimit:10;}
	.st146{fill:#BCBDBE;}
	.st147{fill:#9C9EA0;}
	.st148{fill:#B3B5B6;}
	.st149{fill:#282828;}
</style>
<g id="Fondo">
</g>
<g id="Diseño">
	<g>
		<path class="st5" d="M69.9,320.7c0,2.1-0.5,4.1-1.4,6.1c-0.9,1.9-2.2,3.6-3.9,5.1c-1.7,1.5-3.6,2.6-5.9,3.5
			c-2.3,0.9-4.8,1.3-7.5,1.3c-2.5,0-4.7-0.1-6.6-0.4c-2-0.3-3.8-0.7-5.5-1.3c-1.7-0.6-3.4-1.4-5-2.4c-1.6-1-3.2-2.1-4.9-3.5l7.8-7.9
			c2.3,1.9,4.5,3.2,6.7,4c2.2,0.8,4.5,1.2,7.1,1.2c1,0,2-0.2,2.9-0.5c0.9-0.3,1.7-0.7,2.4-1.2c0.7-0.5,1.2-1.1,1.6-1.8
			c0.4-0.7,0.6-1.5,0.6-2.3c0-0.9-0.2-1.7-0.5-2.4c-0.3-0.7-0.9-1.4-1.8-2.1c-0.9-0.7-2-1.3-3.5-2c-1.5-0.7-3.4-1.5-5.8-2.3
			c-2.1-0.8-4.1-1.6-6-2.6c-1.9-1-3.6-2.1-5-3.5c-1.4-1.4-2.6-3-3.5-4.8c-0.9-1.8-1.3-4-1.3-6.5c0-2.4,0.5-4.6,1.5-6.7
			c1-2,2.3-3.8,4-5.2c1.7-1.4,3.6-2.6,5.9-3.4c2.2-0.8,4.7-1.2,7.3-1.2c4.3,0,8,0.6,11,1.7c3,1.1,5.6,2.8,7.9,5l-7.7,7.7
			c-1.4-1.4-3-2.4-4.7-3.2c-1.7-0.7-3.8-1.1-6.2-1.1c-1.1,0-2.1,0.2-3,0.5c-0.9,0.3-1.7,0.8-2.4,1.3c-0.7,0.5-1.2,1.2-1.6,1.9
			c-0.4,0.7-0.6,1.5-0.6,2.3c0,0.9,0.2,1.7,0.6,2.4c0.4,0.7,1,1.4,1.9,2.1c0.9,0.7,2.1,1.4,3.6,2.1c1.5,0.7,3.3,1.4,5.6,2.2
			c2.8,1,5.3,2.1,7.3,3.3c2,1.2,3.7,2.5,5,3.9c1.3,1.4,2.2,3,2.8,4.8C69.6,316.5,69.9,318.4,69.9,320.7z"/>
		<path class="st5" d="M103.8,292.7l-19,42.8h-12l26.8-56.7h8.6l26.8,56.7h-12L103.8,292.7z"/>
		<path class="st5" d="M151.5,335.5h-11V279h11V335.5z"/>
		<path class="st126" d="M213.9,325.3c-2.8,3.4-6.3,6.2-10.3,8.2c-4,2-8.5,3-13.4,3c-4.2,0-8.1-0.8-11.8-2.3
			c-3.7-1.5-6.9-3.6-9.6-6.3c-2.7-2.6-4.9-5.7-6.4-9.3c-1.6-3.6-2.4-7.4-2.4-11.5c0-4.1,0.8-7.9,2.4-11.5c1.6-3.6,3.7-6.7,6.4-9.3
			c2.7-2.7,5.9-4.8,9.6-6.3c3.7-1.5,7.6-2.3,11.8-2.3c4.9,0,9.3,1,13.4,3c4,2,7.4,4.7,10.1,7.9l-7.6,7.8c-1.8-2.5-4-4.5-6.8-6.1
			c-2.8-1.5-5.8-2.3-9.1-2.3c-2.6,0-5.1,0.5-7.5,1.5c-2.3,1-4.4,2.4-6.1,4.1c-1.8,1.7-3.1,3.7-4.1,6c-1,2.3-1.5,4.7-1.5,7.3
			c0,2.5,0.5,5,1.5,7.3c1,2.3,2.4,4.3,4.1,6c1.7,1.7,3.8,3.1,6.1,4.1c2.3,1,4.8,1.5,7.5,1.5c3.5,0,6.6-0.8,9.3-2.4
			c2.7-1.6,4.9-3.7,6.7-6.3L213.9,325.3z"/>
		<path class="st126" d="M275.2,307.2c0,4.1-0.8,7.9-2.4,11.5c-1.6,3.6-3.7,6.7-6.5,9.3c-2.7,2.6-5.9,4.7-9.5,6.3
			c-3.6,1.5-7.5,2.3-11.6,2.3c-4.1,0-8-0.8-11.6-2.3c-3.7-1.5-6.8-3.6-9.6-6.3c-2.7-2.6-4.9-5.7-6.5-9.3c-1.6-3.6-2.4-7.4-2.4-11.5
			c0-4.1,0.8-8,2.4-11.5c1.6-3.6,3.7-6.7,6.5-9.3c2.7-2.6,5.9-4.7,9.6-6.2c3.7-1.5,7.5-2.3,11.6-2.3c4.1,0,8,0.8,11.6,2.3
			c3.6,1.5,6.8,3.6,9.5,6.3c2.7,2.7,4.9,5.8,6.5,9.3C274.4,299.3,275.2,303.1,275.2,307.2z M264.2,307.2c0-2.6-0.5-5-1.5-7.3
			c-1-2.3-2.4-4.3-4.1-6c-1.7-1.7-3.8-3.1-6.1-4.1c-2.3-1-4.8-1.5-7.4-1.5c-2.6,0-5.1,0.5-7.5,1.5c-2.3,1-4.3,2.4-6.1,4.1
			c-1.7,1.7-3.1,3.7-4.1,6c-1,2.3-1.5,4.7-1.5,7.3c0,2.5,0.5,5,1.5,7.3c1,2.3,2.4,4.3,4.1,6.1c1.7,1.7,3.7,3.1,6.1,4.1
			c2.3,1,4.8,1.5,7.5,1.5c2.6,0,5.1-0.5,7.4-1.5c2.3-1,4.3-2.4,6.1-4.1c1.7-1.7,3.1-3.7,4.1-6.1
			C263.7,312.2,264.2,309.8,264.2,307.2z"/>
		<path class="st126" d="M322.9,335.3l-17.7-13.9l0.3-0.4l1.6-2l7-8.7c1.1-1.4,2.2-2.7,3.2-4.1c1-1.3,1.9-2.7,2.7-4
			c0.8-1.4,1.4-2.8,1.8-4.2c0.5-1.5,0.7-3,0.7-4.6c0-2.4-0.5-4.6-1.4-6.5c-0.9-1.9-2.2-3.4-3.7-4.7c-1.6-1.3-3.7-2.5-5.7-3.1
			c-2-0.6-4-0.9-6.1-0.9c-4,0-7.4,0.7-10.1,2.2c-1.9,1-3.6,2.3-5.2,3.9l4.4,8.3c1.2-1.8,2.7-3.3,4.5-4.5c1.8-1.2,3.8-1.7,6.1-1.7
			c2,0,4.2,0.6,5.8,2.4c1.6,1.8,1.8,3.3,1.8,5.5c0,0.9-0.2,1.9-0.6,2.9c-0.4,1-0.9,2-1.5,3c-0.6,1-1.3,2-2,3c-0.8,1-1.5,1.9-2.2,2.8
			l-15.7,16.7l4,2.2l13.5,10.6H322.9z"/>
		<path class="st5" d="M294.6,313v22.5h-10.8V279l11,0L294.6,313z"/>
	</g>
</g>
<g id="Iconos">
	<g>
		<path class="st149" d="M176.1,19.5L176.1,19.5c-61.2,0-110.8,49.6-110.8,110.8c0,61.2,49.6,110.8,110.8,110.8h0
			c61.2,0,110.8-49.6,110.8-110.8C286.9,69.1,237.3,19.5,176.1,19.5z M176.1,83.4c19.7-3.3,40.5-2.1,54-0.6
			c-14.4,3.9-36.6,11.7-53.2,25.2c-4.7,3.8-7.8,6.4-9.6,8.1c-25.1,19.1-34.4,40.4-37.2,48.3c-1.7,5.1-4.6,15.7,3.1,28.4h-3.4
			c0,0-9.9-12-3.3-33.6C112,107.4,142.5,89,176.1,83.4z M174.1,114c1.6-1,2.8-1.8,2.8-1.8l47.6-15.5c-2.1,3.2-3.8,7.1-5.4,11.7
			c-1.5,4.5-3,8.9-4.7,13.3c-2.9,7.9-6.2,15.8-10.3,23.2c-6.8,12.4-16.1,22.1-28.1,27c-5.4,2.2-11.4,3.4-17.9,3.4
			c-5.2,0-24.6-2.9-24.2-4C143,145.1,158,126.8,174.1,114z M76.5,130.3c0-52.2,40.2-95,91.3-99.2l0.9,12.4
			c-44.7,3.8-79.8,41.2-79.8,86.9c0,12,2.4,23.4,6.8,33.7l-11.3,5.1C79.3,157.2,76.5,144,76.5,130.3z M176.1,229.9L176.1,229.9
			c-35.9,0-67.3-19-84.8-47.4l10.6-6.4c15.4,24.8,42.8,41.4,74.2,41.4h0c31.5,0,59.1-16.7,74.4-41.7l10.5,6.5
			C243.5,210.8,212,229.9,176.1,229.9z M256.6,163.8c4.3-10.3,6.7-21.6,6.7-33.5c0-46.1-35.8-83.8-81.1-87l0.7-12.4
			c51.9,3.5,92.8,46.6,92.8,99.3c0,13.7-2.8,26.7-7.7,38.5L256.6,163.8z"/>
		<path class="st5" d="M208.8,93.9c-10.3,4.1-21.7,10-32.7,18.4c-16.8,12.8-32.7,31.6-42.1,58.9c-0.4,1.1,19,4,24.2,4
			c6.6,0,12.5-1.2,17.9-3.4c12-4.8,21.3-14.5,28.1-27c4.1-7.4,7.3-15.3,10.3-23.2c1.6-4.4,3.2-8.9,4.7-13.3
			c4.7-13.9,10.6-21.1,25.4-23.6C231.2,87,219.3,90.2,208.8,93.9z"/>
		<path class="st5" d="M88.9,130.1c0-45.7,35.1-83.1,79.8-86.9l-0.9-12.4c-51.1,4.2-91.3,47-91.3,99.2c0,13.8,2.8,26.9,7.8,38.8
			l11.3-5.1C91.3,153.5,88.9,142.1,88.9,130.1z"/>
		<path class="st31" d="M176.2,83.1c-33.6,5.5-64.1,23.9-49.7,75.8c-6.6,21.6,3.3,33.6,3.3,33.6h3.4c-7.7-12.7-4.8-23.3-3.1-28.4
			c3.1-8.8,14.3-34,46-54.4c9.1-5.9,19.9-11.4,32.7-15.9c20-8,35.7-9.2,35.7-9.2C244.6,84.6,208.9,77.8,176.2,83.1z"/>
		<path class="st126" d="M250.5,175.6c-15.3,25-42.9,41.7-74.4,41.7h0c-31.3,0-58.8-16.5-74.2-41.4l-10.6,6.4
			c17.5,28.4,49,47.4,84.8,47.4h0c36,0,67.4-19.1,85-47.6L250.5,175.6z"/>
		<path class="st31" d="M275.7,130.1c0-52.7-41-95.8-92.8-99.3l-0.7,12.4c45.3,3.1,81.1,40.8,81.1,87c0,11.9-2.4,23.2-6.7,33.5
			l11.3,5.1C272.9,156.8,275.7,143.8,275.7,130.1z"/>
	</g>
</g>
</svg>
