<svg xmlns="http://www.w3.org/2000/svg" viewBox="0 0 200 160"><defs><style>.cls-1{fill:#cecfd0;}.cls-2{fill:#fff;}</style></defs><title>foto_talleres</title><g id="Diseño"><rect class="cls-1" width="200" height="160"/><path class="cls-2" d="M141,56.82a11.42,11.42,0,0,0-8.38-3.47H122.21l-2.36-6.29a8.6,8.6,0,0,0-3.22-3.91,8.24,8.24,0,0,0-4.79-1.64H88.15a8.25,8.25,0,0,0-4.79,1.64,8.6,8.6,0,0,0-3.22,3.91l-2.36,6.29H67.42A11.85,11.85,0,0,0,55.57,65.19v41.46A11.85,11.85,0,0,0,67.42,118.5h65.16a11.85,11.85,0,0,0,11.85-11.85V65.19A11.42,11.42,0,0,0,141,56.82Zm-26.31,43.75a20.67,20.67,0,0,1-29.29,0,20.67,20.67,0,0,1,0-29.29,20.67,20.67,0,0,1,29.29,0,20.67,20.67,0,0,1,0,29.29Z"/><path class="cls-2" d="M100,72.6a13.32,13.32,0,0,0-9.42,22.74,13.32,13.32,0,1,0,18.84-18.83A12.84,12.84,0,0,0,100,72.6Z"/></g></svg>