<svg xmlns="http://www.w3.org/2000/svg" viewBox="0 0 239.06 240.95"><defs><style>.cls-1{fill:#999a9d;}.cls-2{fill:#babbbd;}.cls-3{fill:#e3e3e4;}.cls-4{fill:#d2d2d3;}.cls-5{fill:#2e2d31;}.cls-6{fill:#1f1e21;}.cls-7{fill:#5d5c61;}.cls-8{fill:#4a4a4e;}.cls-9{fill:#89be42;}.cls-10{fill:#88bd42;}.cls-11{fill:#fff;}.cls-12{fill:#35913a;}</style></defs><title>ghope</title><g id="Iconos"><path class="cls-1" d="M120.62,169.57v9.92a60,60,0,0,1,5.21-9.92Z"/><path class="cls-1" d="M183.67,41a8.67,8.67,0,0,1,8.64,8.64v86.8a218.48,218.48,0,0,1,39.37-.15A112.34,112.34,0,0,0,120.77,6.56h-.14V41Z"/><path class="cls-2" d="M116,169.57a61.45,61.45,0,0,1,4.63,9.91v-9.91Z"/><path class="cls-2" d="M120.62,152.72v-4.11H95.48a67.35,67.35,0,0,1,7.76,5.72l1.56-1.61Z"/><path class="cls-1" d="M120.62,152.72h16.59l2.16,2.22a71.24,71.24,0,0,1,9.71-6.33H120.62Z"/><path class="cls-2" d="M49.5,134.1V49.66A8.66,8.66,0,0,1,58.14,41h62.49V6.56A112.32,112.32,0,0,0,9.48,133.72,215.33,215.33,0,0,1,49.5,134.1Z"/><rect class="cls-3" x="60.3" y="53.33" width="60.33" height="80.37"/><rect class="cls-4" x="120.62" y="53.33" width="60.88" height="80.37"/><path class="cls-5" d="M120.62,152.72H104.81l-1.56,1.61A59.2,59.2,0,0,1,116,169.57h4.63Z"/><path class="cls-6" d="M120.62,152.72v16.85h5.21a60.06,60.06,0,0,1,13.54-14.63l-2.16-2.22Z"/><path class="cls-7" d="M120.62,133.7H60.3V53.33h60.33V41H58.14a8.66,8.66,0,0,0-8.64,8.64V134.1c16.09,1.79,32.55,6,46,14.51h25.14Z"/><path class="cls-8" d="M181.51,53.33V133.7H120.62v14.91h28.47c13-7.08,28.32-10.63,43.22-12.15V49.66A8.67,8.67,0,0,0,183.67,41H120.62V53.33Z"/><path class="cls-9" d="M120.62,179.51h0v0Z"/><path class="cls-10" d="M120.62,179.48a61.45,61.45,0,0,0-4.62-9.91,59.2,59.2,0,0,0-12.75-15.25,67.35,67.35,0,0,0-7.76-5.72c-13.43-8.52-29.89-12.72-46-14.51a215.33,215.33,0,0,0-40-.38,112.31,112.31,0,0,0,100.14,96.84c-.24-.75-.49-1.52-.76-2.33-.9-2.68-2-5.69-3.29-8.91S102.73,212.63,101,209l-1.37-2.71-.7-1.38-.75-1.37-1.53-2.79c-.53-.93-1.09-1.85-1.65-2.79-1.08-1.9-2.33-3.74-3.53-5.63-.6-.95-1.28-1.86-1.92-2.79s-1.28-1.89-2-2.79c-1.4-1.81-2.75-3.7-4.27-5.45l-2.24-2.68L78.7,176c-1.54-1.76-3.25-3.34-4.89-5-.81-.84-1.7-1.58-2.56-2.36l-2.58-2.3L66,164.23l-1.33-1.06c-.44-.36-.88-.72-1.35-1l-2.75-1.94c-.91-.64-1.8-1.31-2.75-1.87L55,156.61c-.92-.57-1.82-1.15-2.76-1.63l-2.76-1.49c-.92-.48-1.79-1-2.72-1.41l-5.35-2.46-5.14-2-1.22-.47-1.22-.38-2.37-.73-2.25-.7L28.17,145l-1.07-.26-3.92-.94c-1.21-.29-2.32-.58-3.35-.72L13.43,142l6.46.81c1,.1,2.16.33,3.38.57l4,.77,1.08.21,1.1.28,2.3.6,2.42.63,1.25.33,1.26.42,5.29,1.76,5.53,2.24c1,.36,1.88.86,2.83,1.3l2.88,1.38c1,.45,1.93,1,2.88,1.53L59,156.46c1,.52,1.92,1.16,2.89,1.77l2.9,1.86c.49.3,1,.65,1.43,1l1.42,1,2.85,2.07,2.76,2.24c.91.76,1.87,1.48,2.74,2.3,1.76,1.62,3.6,3.17,5.26,4.9l2.55,2.54,2.43,2.65c1.65,1.74,3.13,3.61,4.66,5.41.77.9,1.45,1.86,2.18,2.78s1.45,1.84,2.11,2.79c1.33,1.9,2.7,3.74,3.91,5.64.61.95,1.24,1.87,1.83,2.81l1.71,2.81.84,1.39.79,1.39,1.55,2.73c1.95,3.65,3.73,7.13,5.21,10.43s2.77,6.35,3.84,9.09c.7,1.79,1.29,3.44,1.81,4.94l1.16,0c-.83-2.1-1.27-3.65-1.27-3.65-2.85-19.85-1-35.54,4.11-47.91Z"/><path class="cls-11" d="M111,217c-1.48-3.3-3.27-6.78-5.21-10.43l-1.55-2.73-.79-1.39-.84-1.39-1.71-2.81c-.59-.94-1.22-1.86-1.83-2.81-1.21-1.9-2.58-3.75-3.91-5.64-.67-.95-1.41-1.85-2.11-2.79s-1.41-1.88-2.18-2.78c-1.53-1.8-3-3.68-4.66-5.41l-2.43-2.65-2.55-2.54c-1.66-1.73-3.5-3.28-5.26-4.9-.87-.82-1.82-1.54-2.74-2.3l-2.76-2.24L67.6,162.1l-1.42-1c-.47-.34-.93-.69-1.43-1l-2.9-1.86c-1-.61-1.89-1.25-2.89-1.77l-2.91-1.63c-1-.54-1.9-1.09-2.88-1.53l-2.88-1.38c-1-.45-1.87-.94-2.83-1.3l-5.53-2.24-5.29-1.76-1.26-.42-1.25-.33-2.42-.63-2.3-.6-1.1-.28-1.08-.21-4-.77c-1.23-.24-2.35-.47-3.38-.57L13.43,142l6.41,1.11c1,.14,2.13.43,3.35.72l3.92.94,1.07.26,1.08.33,2.25.7,2.37.73,1.22.38,1.22.47,5.14,2,5.35,2.46c.93.39,1.81.93,2.72,1.41L52.28,155c.94.48,1.84,1.06,2.76,1.63l2.77,1.72c.95.55,1.83,1.22,2.75,1.87l2.75,1.94c.47.31.91.67,1.35,1L66,164.23l2.68,2.15,2.58,2.3c.86.78,1.75,1.52,2.56,2.36,1.64,1.65,3.35,3.23,4.89,5l2.36,2.58,2.24,2.68c1.52,1.75,2.87,3.64,4.27,5.45.71.9,1.32,1.87,2,2.79s1.32,1.84,1.92,2.79c1.2,1.9,2.45,3.74,3.53,5.63.55.94,1.12,1.87,1.65,2.79l1.53,2.79.75,1.38.7,1.38L101,209c1.72,3.61,3.29,7,4.56,10.29s2.39,6.24,3.29,8.91c.27.81.52,1.58.76,2.33q3.47.34,7,.46c-.52-1.5-1.11-3.14-1.81-4.94C113.75,223.34,112.49,220.27,111,217Z"/><path class="cls-12" d="M192.31,136.46c-14.9,1.52-30.21,5.07-43.22,12.15a71.24,71.24,0,0,0-9.71,6.33,59.36,59.36,0,0,0-18.75,24.55h0c-5.1,12.37-7,28.06-4.11,47.91,0,0,.44,1.55,1.27,3.65q1.41,0,2.84,0h.76q1.59,0,3.17-.06c.29-.78.59-1.58.91-2.43,1.07-2.74,2.33-5.81,3.84-9.09s3.27-6.78,5.21-10.43l1.55-2.74.79-1.39.84-1.39,1.71-2.81c.59-.94,1.22-1.86,1.83-2.81,1.21-1.9,2.58-3.74,3.91-5.64.66-.95,1.41-1.85,2.11-2.79s1.41-1.88,2.18-2.78c1.53-1.8,3-3.68,4.66-5.41l2.43-2.65,2.55-2.54c1.66-1.73,3.5-3.29,5.26-4.9.87-.82,1.82-1.54,2.74-2.3l2.75-2.24,2.85-2.07,1.41-1c.47-.34.93-.69,1.43-1l2.9-1.86c1-.61,1.89-1.25,2.89-1.77l2.91-1.63c1-.54,1.9-1.08,2.88-1.53l2.88-1.39c1-.44,1.86-.94,2.83-1.3l5.53-2.24,5.29-1.76,1.25-.42,1.25-.33,2.42-.63,2.29-.6,1.1-.28,1.08-.21,4-.77c1.23-.24,2.35-.47,3.38-.57l6.46-.81-6.41,1.11c-1,.14-2.13.43-3.35.72l-3.92.94-1.07.26-1.08.33-2.25.7-2.36.74-1.22.38-1.23.47-5.14,2-5.34,2.46c-.93.39-1.81.93-2.73,1.41L188,157.5c-.94.48-1.84,1.06-2.76,1.63l-2.77,1.73c-.95.55-1.83,1.22-2.74,1.86L177,164.66c-.47.31-.91.67-1.35,1l-1.33,1.06-2.68,2.15L169,171.21c-.86.78-1.75,1.52-2.56,2.36-1.64,1.65-3.35,3.23-4.89,5l-2.36,2.58L157,183.82c-1.52,1.75-2.87,3.64-4.27,5.45-.71.9-1.32,1.87-2,2.79s-1.32,1.84-1.92,2.79c-1.2,1.9-2.45,3.74-3.53,5.63-.55.94-1.12,1.87-1.65,2.8l-1.53,2.79-.75,1.38-.7,1.38-1.37,2.71c-1.72,3.61-3.29,7-4.56,10.29s-2.35,6.12-3.24,8.76a112.32,112.32,0,0,0,100.21-94.29A218.48,218.48,0,0,0,192.31,136.46Z"/><path class="cls-11" d="M139.27,211.54l1.38-2.71.7-1.38.75-1.37,1.53-2.79c.53-.93,1.09-1.85,1.65-2.8,1.08-1.9,2.33-3.73,3.53-5.63.6-1,1.28-1.86,1.92-2.79s1.28-1.89,2-2.79c1.4-1.81,2.75-3.7,4.27-5.45l2.24-2.68,2.36-2.58c1.54-1.76,3.25-3.34,4.89-5,.81-.84,1.71-1.58,2.56-2.36l2.58-2.31,2.68-2.15,1.33-1.06c.44-.36.88-.71,1.35-1l2.75-1.95c.91-.64,1.8-1.31,2.74-1.86l2.77-1.73c.92-.57,1.82-1.15,2.76-1.63l2.76-1.49c.92-.48,1.8-1,2.73-1.41l5.34-2.46,5.14-2,1.23-.47,1.22-.38,2.36-.74,2.25-.7,1.08-.33,1.07-.26,3.92-.94c1.21-.29,2.32-.58,3.35-.72l6.41-1.11-6.46.81c-1,.1-2.16.33-3.38.57l-4,.77-1.08.21-1.1.28-2.29.6-2.42.63-1.25.33-1.25.42-5.29,1.76-5.53,2.24c-1,.36-1.88.86-2.83,1.3l-2.88,1.39c-1,.45-1.92,1-2.88,1.53L181.31,159c-1,.52-1.93,1.16-2.89,1.77l-2.9,1.86c-.49.3-1,.64-1.43,1l-1.41,1-2.85,2.07-2.75,2.24c-.91.76-1.87,1.48-2.74,2.3-1.76,1.61-3.6,3.17-5.26,4.9l-2.55,2.54-2.43,2.65c-1.65,1.73-3.13,3.61-4.66,5.41-.77.9-1.45,1.86-2.18,2.78s-1.45,1.84-2.11,2.79c-1.33,1.9-2.7,3.74-3.91,5.64-.62.95-1.24,1.87-1.83,2.81l-1.71,2.81-.84,1.39-.79,1.39-1.55,2.74c-1.95,3.65-3.74,7.13-5.21,10.43s-2.77,6.35-3.84,9.09c-.33.84-.63,1.65-.91,2.43q3.48-.11,6.91-.44c.89-2.64,1.95-5.59,3.24-8.76S137.55,215.15,139.27,211.54Z"/></g></svg>