<svg xmlns="http://www.w3.org/2000/svg" viewBox="0 0 50 50"><defs><style>.cls-1{fill:none;stroke:#fff;stroke-miterlimit:10;}</style></defs><title>heart</title><g id="INFO"><path class="cls-1" d="M34.53,3.87a13.28,13.28,0,0,0-8.22,2.76,2.08,2.08,0,0,1-2.58,0,13.34,13.34,0,0,0-8.24-2.76A13.71,13.71,0,0,0,1.79,17.64c0,5.11,4.23,9.5,7.61,12.88,2.41,2.41,4.65,4.84,7,7.27.38.39,4.66,4.47,7,6.95a2.14,2.14,0,0,0,3.11,0c2.36-2.48,6.62-6.56,7-6.95,2.39-2.42,4.62-4.86,7-7.27,3.38-3.38,7.61-7.77,7.61-12.88A13.7,13.7,0,0,0,34.53,3.87Z"/></g></svg>