<?xml version="1.0" encoding="utf-8"?>
<!-- Generator: Adobe Illustrator 20.1.0, SVG Export Plug-In . SVG Version: 6.00 Build 0)  -->
<svg version="1.1" xmlns="http://www.w3.org/2000/svg" xmlns:xlink="http://www.w3.org/1999/xlink" x="0px" y="0px"
	 viewBox="0 0 232.2 237.7" style="enable-background:new 0 0 232.2 237.7;" xml:space="preserve">
<style type="text/css">
	.st0{clip-path:url(#SVGID_4_);}
	.st1{fill:#201F23;}
	.st2{fill:url(#SVGID_5_);}
	.st3{fill:#DBDCDD;}
	.st4{opacity:0.9;fill:#EAA330;}
	.st5{fill:#87BC42;}
	.st6{fill:#FFFFFF;}
	.st7{opacity:0.9;fill:#201F23;}
	.st8{opacity:0.7;fill:#201F23;}
	.st9{fill:url(#SVGID_6_);}
	.st10{fill:url(#SVGID_7_);}
	.st11{fill:url(#SVGID_8_);}
	.st12{fill:url(#SVGID_9_);}
	.st13{fill:url(#SVGID_10_);}
	.st14{fill:url(#SVGID_11_);}
	.st15{fill:none;stroke:#DBDCDD;stroke-width:3;stroke-linecap:round;stroke-miterlimit:10;}
	.st16{opacity:0.4;fill:#FFFFFF;}
	.st17{fill:none;stroke:#B9B9B9;stroke-width:12;stroke-linejoin:round;stroke-miterlimit:10;}
	.st18{fill:none;stroke:#6A9642;stroke-width:14;stroke-miterlimit:10;}
	.st19{fill:none;stroke:#FFFFFF;stroke-width:12;stroke-linejoin:round;stroke-miterlimit:10;}
	.st20{fill:url(#SVGID_12_);}
	.st21{fill:#6AAF42;}
	.st22{fill:none;stroke:#FFFFFF;stroke-width:2.0274;stroke-miterlimit:10;stroke-dasharray:3.379;}
	.st23{fill:none;stroke:#FFFFFF;stroke-width:2.0274;stroke-miterlimit:10;stroke-dasharray:7;}
	.st24{fill:url(#SVGID_13_);}
	.st25{fill:#6A9642;}
	.st26{fill:#504F54;}
	.st27{fill:none;stroke:#B9B9B9;stroke-width:12;stroke-miterlimit:10;}
	.st28{fill:#EAA330;}
	.st29{fill:#2D2C30;}
	.st30{fill:#CED0D1;}
	.st31{fill:#35903A;}
	.st32{fill:#CECFD0;}
	.st33{fill:#4E893F;}
	.st34{fill:#58595B;}
	.st35{fill:#272A2D;}
	.st36{fill:url(#SVGID_14_);}
	.st37{fill:none;stroke:#FFFFFF;stroke-miterlimit:10;}
	.st38{fill:#EEE0AD;}
	.st39{fill:#CDC297;}
	.st40{fill:#BEBFC5;}
	.st41{fill:#AAA9AF;}
	.st42{fill:#DADBDC;}
	.st43{fill:none;stroke:#FFFFFF;stroke-width:2.0274;stroke-miterlimit:10;}
	.st44{fill:none;stroke:#FFFFFF;stroke-width:2.0274;stroke-miterlimit:10;stroke-dasharray:7.054,7.054;}
	.st45{fill:#CDCFD0;}
	.st46{fill:#102D40;}
	.st47{fill:#264860;}
	.st48{clip-path:url(#SVGID_16_);}
	.st49{fill:#E8BD98;}
	.st50{fill:#E76D4A;}
	.st51{fill:#543E36;}
	.st52{fill:#C34628;}
	.st53{fill:none;stroke:#FFFFFF;stroke-width:2.2466;stroke-miterlimit:10;stroke-dasharray:3.7443;}
	.st54{clip-path:url(#SVGID_18_);fill:#98ABB7;}
	.st55{clip-path:url(#SVGID_18_);}
	.st56{fill:#421800;}
	.st57{fill:#ECCCB0;}
	.st58{fill:#B34FC5;}
	.st59{fill:#E3E8EE;}
	.st60{opacity:0.5;clip-path:url(#SVGID_18_);fill:#ECCCB0;}
	.st61{clip-path:url(#SVGID_20_);fill:#3EA1BD;}
	.st62{clip-path:url(#SVGID_20_);}
	.st63{fill:#A17561;}
	.st64{fill:#141720;}
	.st65{clip-path:url(#SVGID_20_);fill:#FFFFFF;}
	.st66{opacity:0.5;clip-path:url(#SVGID_20_);fill:#E8BD98;}
	.st67{clip-path:url(#SVGID_22_);}
	.st68{fill:#C55D3F;}
	.st69{clip-path:url(#SVGID_22_);fill:#E8BD98;}
	.st70{clip-path:url(#SVGID_22_);fill:#C7D4E2;}
	.st71{clip-path:url(#SVGID_22_);fill:#543E36;}
	.st72{clip-path:url(#SVGID_22_);fill:#1A1A1A;}
	.st73{fill:#435363;}
	.st74{opacity:0.5;clip-path:url(#SVGID_22_);fill:#E8BD98;}
	.st75{clip-path:url(#SVGID_24_);fill:#006F34;}
	.st76{clip-path:url(#SVGID_24_);}
	.st77{fill:#B3D033;}
	.st78{fill:#BD7E52;}
	.st79{fill:#B0B3B4;}
	.st80{fill:#8A8D8F;}
	.st81{fill:#D1D3D4;}
	.st82{fill:#787B7D;}
	.st83{fill:#B7BABB;}
	.st84{fill:#91A0A1;}
	.st85{fill:#BFC1C2;}
	.st86{fill:#313034;}
	.st87{fill:url(#SVGID_25_);}
	.st88{fill:#B9B9B9;}
	.st89{fill:#ACAEB0;}
	.st90{fill:#BBBDBE;}
	.st91{fill:#96989A;}
	.st92{fill:#CFD0D1;}
	.st93{fill:#5D5D5D;}
	.st94{fill:#B7B9BB;}
	.st95{fill:#919395;}
	.st96{fill:none;}
	.st97{fill-rule:evenodd;clip-rule:evenodd;fill:#CED0D1;}
	.st98{fill-rule:evenodd;clip-rule:evenodd;fill:#FFFFFF;}
	.st99{fill:url(#SVGID_26_);}
	.st100{fill:url(#SVGID_27_);}
	.st101{fill:#F3F3F3;}
	.st102{fill:#231F20;}
	.st103{fill:url(#SVGID_28_);}
	.st104{fill:url(#SVGID_29_);}
	.st105{fill:url(#SVGID_30_);}
	.st106{fill:url(#SVGID_31_);}
	.st107{fill:url(#SVGID_32_);}
	.st108{fill:url(#SVGID_33_);}
	.st109{fill:url(#SVGID_34_);}
	.st110{fill:url(#SVGID_35_);}
	.st111{fill:url(#SVGID_36_);}
	.st112{fill:url(#SVGID_37_);}
	.st113{fill:url(#SVGID_38_);}
	.st114{fill:url(#SVGID_39_);}
	.st115{fill:url(#SVGID_40_);}
	.st116{fill:url(#SVGID_41_);}
	.st117{fill:url(#SVGID_42_);}
	.st118{fill:url(#SVGID_43_);}
	.st119{opacity:0.8;}
	.st120{opacity:0.8;fill:#F3F3F3;}
	.st121{fill:none;stroke:#5D5D5D;stroke-width:3;stroke-linecap:round;stroke-miterlimit:10;}
	.st122{fill:none;stroke:#201F23;stroke-width:5;stroke-miterlimit:10;}
	.st123{fill:none;stroke:#201F23;stroke-width:4.2064;stroke-linecap:round;stroke-miterlimit:10;}
	.st124{fill:none;stroke:#201F23;stroke-miterlimit:10;}
	.st125{fill:#B9BBBC;}
	.st126{fill:#98999C;}
	.st127{fill:#B9BABC;}
	.st128{fill:#E2E2E3;}
	.st129{fill:#D1D1D2;}
	.st130{fill:#2E2D31;}
	.st131{fill:#1F1E21;}
	.st132{fill:#5D5C61;}
	.st133{fill:#4A4A4E;}
	.st134{fill:#88BD42;}
	.st135{opacity:0.6;}
	.st136{fill:#6A9742;}
	.st137{fill:#5F893B;}
	.st138{fill:none;stroke:#CFD0D1;stroke-width:4;stroke-linecap:round;stroke-miterlimit:10;}
	.st139{fill:#E09400;}
	.st140{fill:#F0EABC;}
	.st141{fill:#FFC843;}
	.st142{fill:#DDA070;}
	.st143{fill:none;stroke:#FFFFFF;stroke-width:4;stroke-linecap:round;stroke-miterlimit:10;}
	.st144{fill:none;stroke:#CFD0D1;stroke-width:2.5756;stroke-linecap:round;stroke-miterlimit:10;}
	.st145{fill:none;stroke:#FFFFFF;stroke-width:2.5756;stroke-linecap:round;stroke-miterlimit:10;}
	.st146{fill:#BCBDBE;}
	.st147{fill:#9C9EA0;}
	.st148{fill:#B3B5B6;}
	.st149{fill:#282828;}
</style>
<g id="Fondo">
</g>
<g id="Diseño">
	<g>
		<path class="st29" d="M94.5,136.3c-0.9-0.7-1.8-1.4-2.6-2.2l-1.1,1.5c-0.6,0.8-1.2,1.6-1.8,2.4c-2.4,3.2-4.7,6.6-6.7,9.9
			c-2,3.3-3.7,6.5-5,9.4c-1.4,3.1-3,6.1-4.1,9.3c-0.7,2.3-2.2,5.3-4.7,6.1c-0.9,0.3-3.2,0.7-3.9-0.2c-1.1-1.4,1-4.8,1.4-6.1
			c0.9-2.6,3.2-5,2.7-7.6c-0.6-2.8-2.1-5.4-3.4-7.9c-0.5-1-1.1-2-1.6-3c-5.3,2.1-15.1-0.9-19.9-6.1c-7.9-8.4-11.5-15.4-15-26.4
			c-1.6-5-2.2-15.6-1.8-20.8c5.8,3.4,16.3,2,28.7,12.3c6.7,5.6,13.7,15.3,14.4,24.3c0.3,4,0,10.5-4.1,15.1c-0.3,0.3-0.6,0.6-1,0.8
			c1.6,2.2,3.1,4.4,4.4,6.9c0.6,1,1.1,2,1.5,2.8c0.4-0.6,0.7-1.3,1.1-2c1.8-2.9,3.8-6.1,6.3-9.3c2.4-3.2,5.1-6.4,7.9-9.5
			c0.7-0.8,1.4-1.5,2.1-2.2l1.4-1.5C77.6,119,79.2,98.9,91.5,85.4c6.7-7.3,15.4-12.6,24.8-15.9l0.1-58.8c-0.1,0-0.2,0-0.3,0
			C56.3,10.7,7.9,59.1,7.9,118.9C7.9,178.6,56.3,227,116.1,227c0,0,0,0,0,0l0.1-83.7C109,143.6,101.7,141.6,94.5,136.3z"/>
		<path class="st1" d="M224.3,118.9c0-59.6-48.3-108-107.9-108.2l-0.1,58.8c14.4-5.1,30.8-6,45.1-3.2c18.8,3.7,34.3,16,44,32.3
			c-6.7,1.1-25.1,5.8-36.1,15c-14.9,12.4-33.7,29.1-53.1,29.7l-0.1,83.7C175.8,227,224.3,178.6,224.3,118.9z"/>
		<path class="st6" d="M89.8,132.1l-1.4,1.5c-0.7,0.7-1.4,1.5-2.1,2.2c-2.8,3-5.5,6.3-7.9,9.5c-2.4,3.2-4.5,6.4-6.3,9.3
			c-0.4,0.7-0.8,1.3-1.1,2c-0.4-0.8-0.9-1.7-1.5-2.8c-1.3-2.4-2.8-4.7-4.4-6.9c-0.4,0.3-0.9,0.5-1.4,0.7c0.6,1,1.1,2,1.6,3
			c1.3,2.5,2.8,5.1,3.4,7.9c0.6,2.7-1.8,5.1-2.7,7.6c-0.5,1.4-2.5,4.7-1.4,6.1c0.7,0.9,3,0.5,3.9,0.2c2.5-0.8,4-3.8,4.7-6.1
			c1-3.2,2.6-6.2,4.1-9.3c1.4-2.9,3-6.1,5-9.4c2-3.3,4.3-6.7,6.7-9.9c0.6-0.8,1.2-1.6,1.8-2.4l1.1-1.5
			C91.1,133.5,90.4,132.8,89.8,132.1z"/>
		<path class="st6" d="M64.9,146.9c0.4-0.2,0.7-0.5,1-0.8c4.1-4.6,4.4-11.1,4.1-15.1c-0.7-9-7.7-18.7-14.4-24.3
			c-12.4-10.3-22.9-8.9-28.7-12.3c-0.5,5.2,0.2,15.8,1.8,20.8c3.5,11,7.1,18,15,26.4c4.8,5.2,14.6,8.2,19.9,6.1
			c-2.5-4.5-5.3-8.9-7.9-13.3C58.6,138.7,61.9,142.7,64.9,146.9z"/>
		<path class="st6" d="M55.6,134.4c2.6,4.3,5.5,8.8,7.9,13.3c0.5-0.2,1-0.4,1.4-0.7C61.9,142.7,58.6,138.7,55.6,134.4z"/>
		<path class="st6" d="M91.5,85.4c-12.2,13.4-13.9,33.6-1.7,46.6l0.7-0.7l4-4.2c2.6-2.8,5.2-5.2,7.5-7.1c2.3-1.9,4.5-3.3,6-4.1
			c1.5-0.8,2.5-1.1,2.5-1.1s-0.9,0.4-2.3,1.4c-1.4,0.9-3.4,2.5-5.4,4.6c-2.1,2.1-4.3,4.8-6.6,7.8l-3.5,4.6l-0.7,0.9
			c0.8,0.8,1.7,1.5,2.6,2.2c7.2,5.3,14.5,7.3,21.7,7l0.1-73.8C106.8,72.9,98.2,78.1,91.5,85.4z"/>
		<path class="st30" d="M169.4,113.6c11-9.2,29.4-13.9,36.1-15c-9.7-16.3-25.2-28.6-44-32.3c-14.3-2.8-30.7-2-45.1,3.2l-0.1,73.8
			C135.6,142.7,154.5,126.1,169.4,113.6z"/>
		<path class="st6" d="M96.1,128.5c2.3-3,4.5-5.6,6.6-7.8c2.1-2.1,4-3.7,5.4-4.6c1.4-1,2.3-1.4,2.3-1.4s-0.9,0.3-2.5,1.1
			c-1.5,0.8-3.7,2.1-6,4.1c-2.3,1.9-4.9,4.4-7.5,7.1l-4,4.2l-0.7,0.7c0.7,0.7,1.3,1.4,2.1,2.1l0.7-0.9L96.1,128.5z"/>
	</g>
</g>
<g id="Iconos">
</g>
</svg>
