<svg xmlns="http://www.w3.org/2000/svg" viewBox="0 0 150 150"><defs><style>.cls-1{fill:#504f54;}.cls-2{fill:#313034;}.cls-3{fill:#cdcfd0;}.cls-4{fill:#acaeb0;}.cls-5{fill:#fff;}.cls-6{fill:#bbbdbe;}.cls-7{fill:#96989a;}</style></defs><title>map_talleres</title><g id="Diseño"><path class="cls-1" d="M7.61,73.39a66.63,66.63,0,0,0,66.31,66.68V6.71A66.63,66.63,0,0,0,7.61,73.39Z"/><path class="cls-2" d="M75.1,6.71H73.91V140.08H75.1a66.69,66.69,0,1,0,0-133.38Z"/><polygon class="cls-3" points="62.08 105.17 32.96 114.88 32.96 45.31 62.08 35.61 62.08 105.17"/><polygon class="cls-4" points="117.08 101.94 89.58 116.5 89.58 50.17 117.08 35.61 117.08 101.94"/><circle class="cls-5" cx="49.14" cy="55.02" r="6.47"/><path class="cls-5" d="M83.79,88.18A1.62,1.62,0,0,1,84.4,85a22.72,22.72,0,0,0,5.18.43V50.17L62.08,35.61V81.28a30.8,30.8,0,0,1,3.1-.23h0a1.62,1.62,0,0,1,0,3.24,27.83,27.83,0,0,0-3.17.25v20.64l27.5,11.32V88.67l-.68,0A27.07,27.07,0,0,1,83.79,88.18ZM79.4,85.34a1.62,1.62,0,0,1-1.49,1,1.59,1.59,0,0,1-.62-.13c-.58-.24-1-.44-1.21-.54-1.59-.4-3.16-.72-4.65-1a1.62,1.62,0,1,1,.49-3.2c1.65.25,3.38.61,5.13,1.06a2.06,2.06,0,0,1,.33.13s.45.22,1.16.52A1.62,1.62,0,0,1,79.4,85.34Z"/><path class="cls-6" d="M58.42,82a1.62,1.62,0,0,0,.41,3.18,1.83,1.83,0,0,0,.42-.05,23.85,23.85,0,0,1,2.83-.56V81.28A27.14,27.14,0,0,0,58.42,82Z"/><path class="cls-6" d="M52.06,84.69a22.49,22.49,0,0,0-5.23,4.56,1.62,1.62,0,0,0,2.47,2.08,19.13,19.13,0,0,1,4.48-3.91,1.62,1.62,0,0,0-1.72-2.74Z"/><path class="cls-6" d="M45.3,94.29a1.62,1.62,0,0,0-2.15.79,25.87,25.87,0,0,0-2.09,6.63,1.62,1.62,0,0,0,1.38,1.82h.22a1.62,1.62,0,0,0,1.6-1.39,22.83,22.83,0,0,1,1.82-5.72A1.62,1.62,0,0,0,45.3,94.29Z"/><path class="cls-7" d="M109.1,56.51a1.66,1.66,0,0,0-1.65-1.59,1.62,1.62,0,0,0-1.59,1.64c0,.56,0,1.12,0,1.65,0,1.62,0,3.19-.14,4.68a1.62,1.62,0,0,0,1.51,1.72h.1A1.62,1.62,0,0,0,109,63.11c.1-1.55.15-3.2.15-4.89C109.12,57.66,109.12,57.09,109.1,56.51Z"/><path class="cls-7" d="M106.87,67.82A1.63,1.63,0,0,0,105,69.12,33,33,0,0,1,103.34,75a1.62,1.62,0,0,0,.92,2.1,1.57,1.57,0,0,0,.59.11,1.62,1.62,0,0,0,1.51-1,36.24,36.24,0,0,0,1.82-6.51A1.62,1.62,0,0,0,106.87,67.82Z"/><path class="cls-7" d="M100.42,80.23A13.61,13.61,0,0,1,96,83.88a1.62,1.62,0,0,0,1.47,2.88,16.85,16.85,0,0,0,5.47-4.51,1.62,1.62,0,0,0-2.52-2Z"/><path class="cls-7" d="M90.41,85.4c-.28,0-.55,0-.83,0v3.23c.36,0,.72,0,1.08,0a1.62,1.62,0,0,0-.25-3.23Z"/><path class="cls-3" d="M78.53,83.22c-.71-.3-1.13-.51-1.16-.52a1.47,1.47,0,0,0-.33-.13,51.9,51.9,0,0,0-5.13-1.06,1.62,1.62,0,1,0-.49,3.2c1.5.23,3.06.55,4.65,1,.22.1.63.3,1.21.54a1.65,1.65,0,0,0,.62.12,1.62,1.62,0,0,0,.62-3.11Z"/><path class="cls-3" d="M84.4,85a1.62,1.62,0,1,0-.62,3.18,27,27,0,0,0,5.11.51l.68,0V85.44A22.7,22.7,0,0,1,84.4,85Z"/><path class="cls-3" d="M66.84,82.63A1.62,1.62,0,0,0,65.22,81h0a30.75,30.75,0,0,0-3.1.23v3.26a27.86,27.86,0,0,1,3.17-.25A1.62,1.62,0,0,0,66.84,82.63Z"/></g></svg>