<?xml version="1.0" encoding="utf-8"?>
<!-- Generator: Adobe Illustrator 20.1.0, SVG Export Plug-In . SVG Version: 6.00 Build 0)  -->
<svg version="1.1" xmlns="http://www.w3.org/2000/svg" xmlns:xlink="http://www.w3.org/1999/xlink" x="0px" y="0px"
	 viewBox="0 0 90.2 87.8" style="enable-background:new 0 0 90.2 87.8;" xml:space="preserve">
<style type="text/css">
	.st0{clip-path:url(#SVGID_4_);}
	.st1{fill:#201F23;}
	.st2{fill:url(#SVGID_5_);}
	.st3{fill:#DBDCDD;}
	.st4{opacity:0.9;fill:#EAA330;}
	.st5{fill:#87BC42;}
	.st6{fill:#FFFFFF;}
	.st7{opacity:0.9;fill:#201F23;}
	.st8{opacity:0.7;fill:#201F23;}
	.st9{fill:url(#SVGID_6_);}
	.st10{fill:url(#SVGID_7_);}
	.st11{fill:url(#SVGID_8_);}
	.st12{fill:url(#SVGID_9_);}
	.st13{fill:url(#SVGID_10_);}
	.st14{fill:url(#SVGID_11_);}
	.st15{fill:none;stroke:#DBDCDD;stroke-width:3;stroke-linecap:round;stroke-miterlimit:10;}
	.st16{opacity:0.4;fill:#FFFFFF;}
	.st17{fill:none;stroke:#B9B9B9;stroke-width:12;stroke-linejoin:round;stroke-miterlimit:10;}
	.st18{fill:none;stroke:#6A9642;stroke-width:14;stroke-miterlimit:10;}
	.st19{fill:none;stroke:#FFFFFF;stroke-width:12;stroke-linejoin:round;stroke-miterlimit:10;}
	.st20{fill:url(#SVGID_12_);}
	.st21{fill:#6AAF42;}
	.st22{fill:none;stroke:#FFFFFF;stroke-width:2.0274;stroke-miterlimit:10;stroke-dasharray:3.379;}
	.st23{fill:none;stroke:#FFFFFF;stroke-width:2.0274;stroke-miterlimit:10;stroke-dasharray:7;}
	.st24{fill:url(#SVGID_13_);}
	.st25{fill:#6A9642;}
	.st26{fill:#504F54;}
	.st27{fill:none;stroke:#B9B9B9;stroke-width:12;stroke-miterlimit:10;}
	.st28{fill:#EAA330;}
	.st29{fill:#2D2C30;}
	.st30{fill:#CED0D1;}
	.st31{fill:#35903A;}
	.st32{fill:#CECFD0;}
	.st33{fill:#4E893F;}
	.st34{fill:#58595B;}
	.st35{fill:#272A2D;}
	.st36{fill:url(#SVGID_14_);}
	.st37{fill:none;stroke:#FFFFFF;stroke-miterlimit:10;}
	.st38{fill:#EEE0AD;}
	.st39{fill:#CDC297;}
	.st40{fill:#BEBFC5;}
	.st41{fill:#AAA9AF;}
	.st42{fill:#DADBDC;}
	.st43{fill:none;stroke:#FFFFFF;stroke-width:2.0274;stroke-miterlimit:10;}
	.st44{fill:none;stroke:#FFFFFF;stroke-width:2.0274;stroke-miterlimit:10;stroke-dasharray:7.054,7.054;}
	.st45{fill:#CDCFD0;}
	.st46{fill:#102D40;}
	.st47{fill:#264860;}
	.st48{clip-path:url(#SVGID_16_);}
	.st49{fill:#E8BD98;}
	.st50{fill:#E76D4A;}
	.st51{fill:#543E36;}
	.st52{fill:#C34628;}
	.st53{clip-path:url(#SVGID_18_);}
	.st54{fill:none;stroke:#FFFFFF;stroke-width:2.2466;stroke-miterlimit:10;stroke-dasharray:3.7443;}
	.st55{clip-path:url(#SVGID_20_);fill:#98ABB7;}
	.st56{clip-path:url(#SVGID_20_);}
	.st57{fill:#421800;}
	.st58{fill:#ECCCB0;}
	.st59{fill:#B34FC5;}
	.st60{fill:#E3E8EE;}
	.st61{opacity:0.5;clip-path:url(#SVGID_20_);fill:#ECCCB0;}
	.st62{clip-path:url(#SVGID_22_);fill:#3EA1BD;}
	.st63{clip-path:url(#SVGID_22_);}
	.st64{fill:#A17561;}
	.st65{fill:#141720;}
	.st66{clip-path:url(#SVGID_22_);fill:#FFFFFF;}
	.st67{opacity:0.5;clip-path:url(#SVGID_22_);fill:#E8BD98;}
	.st68{clip-path:url(#SVGID_24_);}
	.st69{fill:#C55D3F;}
	.st70{clip-path:url(#SVGID_24_);fill:#E8BD98;}
	.st71{clip-path:url(#SVGID_24_);fill:#C7D4E2;}
	.st72{clip-path:url(#SVGID_24_);fill:#543E36;}
	.st73{clip-path:url(#SVGID_24_);fill:#1A1A1A;}
	.st74{fill:#435363;}
	.st75{opacity:0.5;clip-path:url(#SVGID_24_);fill:#E8BD98;}
	.st76{clip-path:url(#SVGID_26_);fill:#98ABB7;}
	.st77{clip-path:url(#SVGID_26_);}
	.st78{opacity:0.5;clip-path:url(#SVGID_26_);fill:#ECCCB0;}
	.st79{clip-path:url(#SVGID_28_);fill:#3EA1BD;}
	.st80{clip-path:url(#SVGID_28_);}
	.st81{clip-path:url(#SVGID_28_);fill:#FFFFFF;}
	.st82{opacity:0.5;clip-path:url(#SVGID_28_);fill:#E8BD98;}
	.st83{clip-path:url(#SVGID_30_);}
	.st84{clip-path:url(#SVGID_30_);fill:#E8BD98;}
	.st85{clip-path:url(#SVGID_30_);fill:#C7D4E2;}
	.st86{clip-path:url(#SVGID_30_);fill:#543E36;}
	.st87{clip-path:url(#SVGID_30_);fill:#1A1A1A;}
	.st88{opacity:0.5;clip-path:url(#SVGID_30_);fill:#E8BD98;}
	.st89{clip-path:url(#SVGID_32_);fill:#006F34;}
	.st90{clip-path:url(#SVGID_32_);}
	.st91{fill:#B3D033;}
	.st92{fill:#BD7E52;}
	.st93{fill:#B0B3B4;}
	.st94{fill:#8A8D8F;}
	.st95{fill:#D1D3D4;}
	.st96{fill:#787B7D;}
	.st97{fill:#B7BABB;}
	.st98{fill:#91A0A1;}
	.st99{clip-path:url(#SVGID_34_);fill:#006F34;}
	.st100{clip-path:url(#SVGID_34_);}
	.st101{fill:#BFC1C2;}
	.st102{fill:#313034;}
	.st103{fill:url(#SVGID_35_);}
	.st104{fill:#B9B9B9;}
	.st105{fill:#ACAEB0;}
	.st106{fill:#BBBDBE;}
	.st107{fill:#96989A;}
	.st108{fill:#CFD0D1;}
	.st109{fill:#5D5D5D;}
	.st110{fill:#B7B9BB;}
	.st111{fill:#919395;}
	.st112{fill:none;}
	.st113{fill-rule:evenodd;clip-rule:evenodd;fill:#CED0D1;}
	.st114{fill-rule:evenodd;clip-rule:evenodd;fill:#FFFFFF;}
	.st115{fill:url(#SVGID_36_);}
	.st116{fill:url(#SVGID_37_);}
	.st117{fill:#F3F3F3;}
	.st118{fill:#231F20;}
	.st119{fill:url(#SVGID_38_);}
	.st120{fill:url(#SVGID_39_);}
	.st121{fill:url(#SVGID_40_);}
	.st122{fill:url(#SVGID_41_);}
	.st123{fill:url(#SVGID_42_);}
	.st124{fill:url(#SVGID_43_);}
	.st125{fill:url(#SVGID_44_);}
	.st126{fill:url(#SVGID_45_);}
	.st127{fill:url(#SVGID_46_);}
	.st128{fill:url(#SVGID_47_);}
	.st129{fill:url(#SVGID_48_);}
	.st130{fill:url(#SVGID_49_);}
	.st131{fill:url(#SVGID_50_);}
	.st132{fill:url(#SVGID_51_);}
	.st133{fill:url(#SVGID_52_);}
	.st134{fill:url(#SVGID_53_);}
	.st135{opacity:0.8;}
	.st136{opacity:0.8;fill:#F3F3F3;}
	.st137{clip-path:url(#SVGID_55_);}
	.st138{clip-path:url(#SVGID_57_);fill:#98ABB7;}
	.st139{clip-path:url(#SVGID_57_);}
	.st140{opacity:0.5;clip-path:url(#SVGID_57_);fill:#ECCCB0;}
	.st141{clip-path:url(#SVGID_59_);fill:#3EA1BD;}
	.st142{clip-path:url(#SVGID_59_);}
	.st143{clip-path:url(#SVGID_59_);fill:#FFFFFF;}
	.st144{opacity:0.5;clip-path:url(#SVGID_59_);fill:#E8BD98;}
	.st145{clip-path:url(#SVGID_61_);}
	.st146{clip-path:url(#SVGID_61_);fill:#E8BD98;}
	.st147{clip-path:url(#SVGID_61_);fill:#C7D4E2;}
	.st148{clip-path:url(#SVGID_61_);fill:#543E36;}
	.st149{clip-path:url(#SVGID_61_);fill:#1A1A1A;}
	.st150{opacity:0.5;clip-path:url(#SVGID_61_);fill:#E8BD98;}
	.st151{fill:none;stroke:#5D5D5D;stroke-width:3;stroke-linecap:round;stroke-miterlimit:10;}
	.st152{fill:none;stroke:#201F23;stroke-width:5;stroke-miterlimit:10;}
	.st153{fill:none;stroke:#201F23;stroke-width:4.2064;stroke-linecap:round;stroke-miterlimit:10;}
	.st154{fill:none;stroke:#201F23;stroke-miterlimit:10;}
	.st155{fill:#B9BBBC;}
	.st156{fill:#98999C;}
	.st157{fill:#B9BABC;}
	.st158{fill:#E2E2E3;}
	.st159{fill:#D1D1D2;}
	.st160{fill:#2E2D31;}
	.st161{fill:#1F1E21;}
	.st162{fill:#5D5C61;}
	.st163{fill:#4A4A4E;}
	.st164{fill:#88BD42;}
	.st165{opacity:0.6;}
	.st166{fill:#6A9742;}
	.st167{fill:#5F893B;}
	.st168{fill:none;stroke:#CFD0D1;stroke-width:4;stroke-linecap:round;stroke-miterlimit:10;}
	.st169{fill:#E09400;}
	.st170{fill:#F0EABC;}
	.st171{fill:#FFC843;}
	.st172{fill:#DDA070;}
	.st173{fill:none;stroke:#FFFFFF;stroke-width:4;stroke-linecap:round;stroke-miterlimit:10;}
	.st174{fill:none;stroke:#CFD0D1;stroke-width:2.5756;stroke-linecap:round;stroke-miterlimit:10;}
	.st175{fill:none;stroke:#FFFFFF;stroke-width:2.5756;stroke-linecap:round;stroke-miterlimit:10;}
	.st176{fill:#BCBDBE;}
	.st177{fill:#9C9EA0;}
	.st178{fill:#B3B5B6;}
	.st179{fill:#282828;}
</style>
<g id="Fondo">
</g>
<g id="Diseño">
	<g>
		<g>
			<g>
				<path class="st26" d="M2.7,44.2c0,23.5,18.5,42.6,42.5,42.7V1.5C21.1,1.6,2.7,20.7,2.7,44.2z"/>
				<path class="st102" d="M45.6,1.5c-0.1,0-0.4,0-0.4,0v85.4c0,0,0.4,0,0.4,0c23.6,0,42.7-19.1,42.7-42.7
					C88.3,20.6,69.2,1.5,45.6,1.5z"/>
			</g>
		</g>
		<g>
			<path class="st112" d="M30.5,29.5l-4.2,10.1c-0.5,1.2,0.2,2,1.5,2h17.4v-14H33.8C32.5,27.5,31,28.3,30.5,29.5z"/>
			<path class="st112" d="M35.1,48.7c0-0.7-0.5-1.2-1.2-1.2h-7.6c-0.7,0-1.2,0.5-1.2,1.2v3.6c0,0.7,0.5,1.2,1.2,1.2h7.6
				c0.7,0,1.2-0.5,1.2-1.2V48.7z"/>
			<path class="st112" d="M63.6,41.5c1.3,0,2-0.9,1.5-2.1l-4.2-10c-0.5-1.2-2-1.9-3.3-1.9H45.1v14H63.6z"/>
			<path class="st112" d="M64.1,48.7c0-0.7-0.5-1.2-1.2-1.2h-7.6c-0.7,0-1.2,0.5-1.2,1.2v3.6c0,0.7,0.5,1.2,1.2,1.2h7.6
				c0.7,0,1.2-0.5,1.2-1.2V48.7z"/>
		</g>
	</g>
	<g>
		<polygon class="st112" points="40.9,19.1 40.6,26.6 42.5,26.4 42.7,21.9 44.5,27.5 45.1,27.5 45.1,24.1 43.4,18.8 		"/>
		<path class="st112" d="M29.1,35.6C29.1,35.6,29.2,35.7,29.1,35.6c0.1,0,0.1-0.1,0.2-0.1c0.5-0.6,1-1.3,1.6-1.9
			c0.6-0.8,1.2-1.6,1.9-2.3c0.3-0.4,0.7-0.8,0.8-1.3c0.1-0.3,0.1-0.5,0.1-0.8c-0.1-0.7-0.5-1.3-1.2-1.6c-0.7-0.3-1.4-0.2-2,0.2
			c0,0-0.1,0.1-0.1,0.1c0.1-0.3,0.1-0.7,0-1c-0.1-0.3-0.3-0.6-0.5-0.9c-0.5-0.5-1.2-0.6-1.9-0.4c-0.3,0.1-0.6,0.3-0.8,0.6
			c-0.1,0.1-0.2,0.3-0.4,0.4c-0.6,0.8-1.2,1.5-1.8,2.3c-0.5,0.6-1,1.3-1.6,2c0,0-0.1,0.1-0.1,0.1c0,0,0.1,0.1,0.1,0.1
			c0.2,0.2,0.4,0.3,0.6,0.5c0.8,0.6,1.5,1.2,2.3,1.8c0.8,0.6,1.5,1.2,2.3,1.8C28.7,35.3,28.9,35.5,29.1,35.6z M26.9,31.3
			c-0.3-0.3-0.6-0.5-0.9-0.8c-0.1-0.1-0.2-0.2-0.4-0.3c0,0,0.1-0.2,0.1-0.2c0.6-0.7,1.2-1.5,1.8-2.2c0.2-0.2,0.3-0.4,0.5-0.5
			c0.3-0.1,0.7,0,0.9,0.2c0.2,0.2,0.3,0.5,0.2,0.8c-0.1,0.2-0.2,0.4-0.4,0.6c-0.3,0.4-0.6,0.8-0.9,1.2C27.5,30.6,27.2,31,26.9,31.3z
			 M29.5,30.4c0.2-0.3,0.5-0.6,0.7-0.9c0.2-0.2,0.4-0.4,0.7-0.4c0.3,0,0.6,0.2,0.8,0.5c0.1,0.3,0.1,0.6-0.1,0.9
			c-0.2,0.2-0.4,0.5-0.6,0.7c-0.5,0.7-1.1,1.4-1.6,2c0,0,0,0,0,0c0,0-0.1,0-0.1-0.1c-0.1-0.1-0.3-0.2-0.4-0.4
			c-0.3-0.2-0.5-0.4-0.8-0.6C28.5,31.6,29,31,29.5,30.4z"/>
		<polygon class="st112" points="67,30.8 63.1,32.6 65.8,28.9 64.6,27.4 60.4,29.3 63.1,25.9 61.7,24.6 57.1,30.5 58.5,31.8 
			63.5,29.6 60.2,33.9 61.1,35.6 67.9,32.4 		"/>
		<polygon class="st112" points="45.9,27.5 47.7,21.9 47.8,26.6 49.8,26.8 49.5,19.2 47,18.9 45.2,24.1 45.1,24.1 45.1,27.5 		"/>
		<path class="st112" d="M28.4,44.2c0,9.2,6.7,16.7,16.7,16.7v-0.8V44.5H29.3c0.2-9,6.8-16,15.8-16.2v-0.8
			C35.1,27.5,28.4,35,28.4,44.2z"/>
		<path class="st112" d="M45.1,44.5h15.9c-0.2,8-7.9,15.4-15.9,15.6v1.4h0.1c9.2,0,16.7-7.8,16.7-17s-7.5-17-16.7-17h-0.1v0.8V44.5z
			"/>
		<path class="st112" d="M17.9,44.2c0,15,12.3,27.3,27.3,27.3V71c-15,0-26.8-12-26.8-26.8c0-14.8,11.8-26.8,26.8-26.8v-0.5
			C30.1,16.9,17.9,29.2,17.9,44.2z"/>
		<path class="st112" d="M45.2,17.5C60,17.5,72,29.2,72,44S60,70.5,45.2,70.5h-0.1l0,0h0.1c15,0,27.3-11.5,27.3-26.5
			C72.5,29,60.2,17.5,45.2,17.5L45.2,17.5L45.2,17.5L45.2,17.5z"/>
		<path class="st6" d="M17.9,44.2c0-15,12.3-27.3,27.3-27.3v-0.8c-16,0-28,12.6-28,28c0,15.5,12,28,28,28v-0.8
			C30.1,71.5,17.9,59.2,17.9,44.2z"/>
		<path class="st30" d="M45.2,16.5L45.2,16.5l-0.1,1h0.1c15,0,27.3,11.5,27.3,26.5c0,15-12.2,26.5-27.3,26.5h-0.1v2h0.1
			c15.5,0,28-12.5,28-28S60.7,16.5,45.2,16.5z"/>
		<path class="st6" d="M29.2,33.2C29.2,33.2,29.3,33.2,29.2,33.2c0.1,0.1,0.1,0,0.1,0c0.5-0.7,1.1-1.4,1.6-2
			c0.2-0.3,0.4-0.5,0.6-0.7c0.2-0.3,0.2-0.6,0.1-0.9c-0.1-0.3-0.4-0.5-0.8-0.5c-0.3,0-0.5,0.2-0.7,0.4c-0.2,0.3-0.5,0.6-0.7,0.9
			c-0.5,0.6-1,1.2-1.5,1.9c0.3,0.2,0.5,0.4,0.8,0.6C28.9,33,29.1,33.1,29.2,33.2z"/>
		<path class="st6" d="M28.4,44.2c0-9.2,6.7-16.7,16.7-16.7v0.1h-0.6l-1.8-5.6l-0.2,4.7l-2,0.1l0.3-7.6l2.5-0.3l1.8,5.3v-6.7
			c-15,0-26.8,12-26.8,26.8C18.4,59,30.1,71,45.1,71V61C35.1,60.9,28.4,53.5,28.4,44.2z M24,31.5c-0.2-0.2-0.4-0.3-0.6-0.5
			c0,0-0.1-0.1-0.1-0.1c0,0,0.1-0.1,0.1-0.1c0.5-0.7,1-1.3,1.6-2c0.6-0.8,1.2-1.5,1.8-2.3c0.1-0.1,0.2-0.3,0.4-0.4
			c0.2-0.3,0.5-0.5,0.8-0.6c0.6-0.2,1.4-0.1,1.9,0.4c0.2,0.2,0.4,0.5,0.5,0.9c0.1,0.3,0.1,0.7,0,1c0,0,0.1-0.1,0.1-0.1
			c0.6-0.4,1.4-0.5,2-0.2c0.7,0.3,1.1,0.9,1.2,1.6c0,0.3,0,0.5-0.1,0.8c-0.2,0.5-0.5,0.9-0.8,1.3c-0.6,0.8-1.2,1.6-1.9,2.3
			c-0.5,0.7-1,1.3-1.6,1.9c0,0-0.1,0.1-0.1,0.1c0,0-0.1,0-0.1,0c-0.2-0.2-0.4-0.3-0.6-0.5c-0.8-0.6-1.5-1.2-2.3-1.8
			C25.5,32.7,24.7,32.1,24,31.5z"/>
		<path class="st30" d="M72,44c0-14.8-12-26.5-26.8-26.5h-0.1v6.6l0,0l1.8-5.3l2.5,0.3l0.3,7.5l-2-0.3l-0.2-4.4l-1.8,5.6h-0.8l0,0
			h0.1c9.2,0,16.7,7.8,16.7,17s-7.5,17-16.7,17h-0.1v9h0.1C60,70.5,72,58.8,72,44z M61.1,35.6l-1-1.6l3.3-4.3l-5,2.3l-1.4-1.3
			l4.5-5.9l1.4,1.3l-2.6,3.4l4.2-1.9l1.2,1.5l-2.8,3.7l3.9-1.8l1,1.6L61.1,35.6z"/>
		<path class="st6" d="M29.2,28.4c0.1-0.3,0-0.6-0.2-0.8c-0.2-0.3-0.6-0.3-0.9-0.2c-0.2,0.1-0.4,0.3-0.5,0.5
			c-0.6,0.7-1.2,1.5-1.8,2.2c0,0-0.1,0.2-0.1,0.2c0.1,0.1,0.2,0.2,0.4,0.3c0.3,0.3,0.6,0.5,0.9,0.8c0.3-0.4,0.6-0.8,0.9-1.2
			c0.3-0.4,0.6-0.8,0.9-1.2C28.9,28.8,29.1,28.7,29.2,28.4z"/>
		<path class="st6" d="M29.3,44.5h15.8V28.3C36.1,28.5,29.5,35.5,29.3,44.5z"/>
		<path class="st30" d="M61.1,44.5H45.1v15.6C53.1,59.9,60.9,52.5,61.1,44.5z"/>
	</g>
</g>
<g id="Iconos">
</g>
</svg>
