<svg xmlns="http://www.w3.org/2000/svg" viewBox="0 0 150 150"><defs><style>.cls-1{fill:#504f54;}.cls-2{fill:#313034;}.cls-3{fill:none;}.cls-4{fill:#fff;}.cls-5{fill:#d2d3d4;}</style></defs><title>mensualidad_talleres</title><g id="INFO"><path class="cls-1" d="M4.34,75C4.34,113.56,36,144.84,74,145.06V4.94C36,5.16,4.34,36.44,4.34,75Z"/><path class="cls-2" d="M74.85,4.94H74V145.06h.85a70.06,70.06,0,1,0,0-140.13Z"/><path class="cls-3" d="M66.4,66.38a7.49,7.49,0,0,0-5.34,3,8.43,8.43,0,0,0-1.71,6.38l1,7.77L49.14,94.76a8.81,8.81,0,0,1,1-11.19,1.61,1.61,0,1,0-2.27-2.28,12,12,0,0,0-1,15.77l-1.3,1.3a1.61,1.61,0,0,0,2.28,2.28l1.3-1.3a12,12,0,0,0,7.27,2.46c.34,0,.67,0,1,0a8,8,0,0,0,5.56-3,8.51,8.51,0,0,0,1.82-6.38l-1.42-7.76L74,73.59v-5A10.39,10.39,0,0,0,66.4,66.38ZM60.48,96.77a4.77,4.77,0,0,1-3.33,1.79A8.77,8.77,0,0,1,51.45,97l9.49-9.49.66,5.28A5.26,5.26,0,0,1,60.48,96.77ZM63.33,80.6l-.66-5.28a5.26,5.26,0,0,1,1.13-3.95,4.77,4.77,0,0,1,3.33-1.78,8.74,8.74,0,0,1,5.7,1.52Z"/><path class="cls-3" d="M74.21,73.39C76.32,76.47,77,80.59,74,83.6v3.69a2.11,2.11,0,0,0,1.9-.44,12,12,0,0,0,1.28-15.77l.9-.78A1.61,1.61,0,0,0,78.14,68a1.58,1.58,0,0,0-2.25,0l-1.21.78c-.08-.06.33-.11-.67-.17v5Z"/><path class="cls-3" d="M73.62,84.57a1.63,1.63,0,0,0-.22,2.28c.23.23.6.38.6.44V83.6A1.27,1.27,0,0,1,73.62,84.57Z"/><path class="cls-3" d="M91.33,55.54a1.61,1.61,0,0,1-2.28-2.28l4.41-4.41a6.47,6.47,0,1,0,2.28,2.28Z"/><path class="cls-4" d="M67.12,69.59a4.77,4.77,0,0,0-3.33,1.78,5.26,5.26,0,0,0-1.13,3.95l.66,5.28,9.5-9.5A8.74,8.74,0,0,0,67.12,69.59Z"/><path class="cls-4" d="M60.94,87.55,51.45,97a8.77,8.77,0,0,0,5.7,1.52,4.77,4.77,0,0,0,3.33-1.79,5.26,5.26,0,0,0,1.13-3.95Z"/><path class="cls-5" d="M113.91,30.68a1.62,1.62,0,0,0-2.28.16l-8,8.16H74V68.63c1,.06.61.11.69.17l1-.78a1.75,1.75,0,0,1,2.39,0,1.61,1.61,0,0,1,.06,2.28l-.76.78c3.58,4.71,2.81,11.47-1.49,15.77a2.08,2.08,0,0,1-1.89.44V109.7l31-32.27V40.58L113.26,33C113.89,32.34,114.54,31.31,113.91,30.68ZM90.19,60.85a6.45,6.45,0,1,1,3.27-12l-4.41,4.41a1.61,1.61,0,1,0,2.28,2.28l4.41-4.41a6.44,6.44,0,0,1-5.55,9.72Z"/><path class="cls-4" d="M74.07,86.85a1.61,1.61,0,0,1,0-2.28,8.87,8.87,0,0,0,.82-1v-10L63.83,84.66l1,7.76A8.51,8.51,0,0,1,63,98.8a8,8,0,0,1-5.56,3c-.34,0-.67,0-1,0a12,12,0,0,1-7.27-2.46l-1.3,1.3a1.61,1.61,0,0,1-2.28-2.28l1.3-1.3A12,12,0,0,1,47.92,81.3a1.61,1.61,0,0,1,2.28,2.28,8.8,8.8,0,0,0-1,11.19L60.44,83.49l-1-7.77a8.5,8.5,0,0,1,1.82-6.38,8,8,0,0,1,5.56-3,12,12,0,0,1,8,2.25V38.69H68.78L22,85.6a4,4,0,0,0,0,5.67l33,33a4.07,4.07,0,0,0,5.75,0L74.9,109.7V87.29A1.62,1.62,0,0,1,74.07,86.85Z"/><path class="cls-5" d="M74.21,73.39l-.21.21v10C77,80.59,76.32,76.47,74.21,73.39Z"/></g></svg>