<?xml version="1.0" encoding="utf-8"?>
<!-- Generator: Adobe Illustrator 20.1.0, SVG Export Plug-In . SVG Version: 6.00 Build 0)  -->
<svg version="1.1" xmlns="http://www.w3.org/2000/svg" xmlns:xlink="http://www.w3.org/1999/xlink" x="0px" y="0px"
	 viewBox="0 0 91.3 92.7" style="enable-background:new 0 0 91.3 92.7;" xml:space="preserve">
<style type="text/css">
	.st0{clip-path:url(#SVGID_4_);}
	.st1{fill:#201F23;}
	.st2{fill:url(#SVGID_5_);}
	.st3{fill:#DBDCDD;}
	.st4{opacity:0.9;fill:#EAA330;}
	.st5{fill:#87BC42;}
	.st6{fill:#FFFFFF;}
	.st7{opacity:0.9;fill:#201F23;}
	.st8{opacity:0.7;fill:#201F23;}
	.st9{fill:url(#SVGID_6_);}
	.st10{fill:url(#SVGID_7_);}
	.st11{fill:url(#SVGID_8_);}
	.st12{fill:url(#SVGID_9_);}
	.st13{fill:url(#SVGID_10_);}
	.st14{fill:url(#SVGID_11_);}
	.st15{fill:none;stroke:#DBDCDD;stroke-width:3;stroke-linecap:round;stroke-miterlimit:10;}
	.st16{opacity:0.4;fill:#FFFFFF;}
	.st17{fill:none;stroke:#B9B9B9;stroke-width:12;stroke-linejoin:round;stroke-miterlimit:10;}
	.st18{fill:none;stroke:#6A9642;stroke-width:14;stroke-miterlimit:10;}
	.st19{fill:none;stroke:#FFFFFF;stroke-width:12;stroke-linejoin:round;stroke-miterlimit:10;}
	.st20{fill:url(#SVGID_12_);}
	.st21{fill:#6AAF42;}
	.st22{fill:none;stroke:#FFFFFF;stroke-width:2.0274;stroke-miterlimit:10;stroke-dasharray:3.379;}
	.st23{fill:none;stroke:#FFFFFF;stroke-width:2.0274;stroke-miterlimit:10;stroke-dasharray:7;}
	.st24{fill:url(#SVGID_13_);}
	.st25{fill:#6A9642;}
	.st26{fill:#504F54;}
	.st27{fill:none;stroke:#B9B9B9;stroke-width:12;stroke-miterlimit:10;}
	.st28{fill:#EAA330;}
	.st29{fill:#2D2C30;}
	.st30{fill:#CED0D1;}
	.st31{fill:#35903A;}
	.st32{fill:#CECFD0;}
	.st33{fill:#4E893F;}
	.st34{fill:#58595B;}
	.st35{fill:#272A2D;}
	.st36{fill:url(#SVGID_14_);}
	.st37{fill:none;stroke:#FFFFFF;stroke-miterlimit:10;}
	.st38{fill:#EEE0AD;}
	.st39{fill:#CDC297;}
	.st40{fill:#BEBFC5;}
	.st41{fill:#AAA9AF;}
	.st42{fill:#DADBDC;}
	.st43{fill:none;stroke:#FFFFFF;stroke-width:2.0274;stroke-miterlimit:10;}
	.st44{fill:none;stroke:#FFFFFF;stroke-width:2.0274;stroke-miterlimit:10;stroke-dasharray:7.054,7.054;}
	.st45{fill:#CDCFD0;}
	.st46{fill:#102D40;}
	.st47{fill:#264860;}
	.st48{clip-path:url(#SVGID_16_);}
	.st49{fill:#E8BD98;}
	.st50{fill:#E76D4A;}
	.st51{fill:#543E36;}
	.st52{fill:#C34628;}
	.st53{clip-path:url(#SVGID_18_);}
	.st54{fill:none;stroke:#FFFFFF;stroke-width:2.2466;stroke-miterlimit:10;stroke-dasharray:3.7443;}
	.st55{clip-path:url(#SVGID_20_);fill:#98ABB7;}
	.st56{clip-path:url(#SVGID_20_);}
	.st57{fill:#421800;}
	.st58{fill:#ECCCB0;}
	.st59{fill:#B34FC5;}
	.st60{fill:#E3E8EE;}
	.st61{opacity:0.5;clip-path:url(#SVGID_20_);fill:#ECCCB0;}
	.st62{clip-path:url(#SVGID_22_);fill:#3EA1BD;}
	.st63{clip-path:url(#SVGID_22_);}
	.st64{fill:#A17561;}
	.st65{fill:#141720;}
	.st66{clip-path:url(#SVGID_22_);fill:#FFFFFF;}
	.st67{opacity:0.5;clip-path:url(#SVGID_22_);fill:#E8BD98;}
	.st68{clip-path:url(#SVGID_24_);}
	.st69{fill:#C55D3F;}
	.st70{clip-path:url(#SVGID_24_);fill:#E8BD98;}
	.st71{clip-path:url(#SVGID_24_);fill:#C7D4E2;}
	.st72{clip-path:url(#SVGID_24_);fill:#543E36;}
	.st73{clip-path:url(#SVGID_24_);fill:#1A1A1A;}
	.st74{fill:#435363;}
	.st75{opacity:0.5;clip-path:url(#SVGID_24_);fill:#E8BD98;}
	.st76{clip-path:url(#SVGID_26_);fill:#98ABB7;}
	.st77{clip-path:url(#SVGID_26_);}
	.st78{opacity:0.5;clip-path:url(#SVGID_26_);fill:#ECCCB0;}
	.st79{clip-path:url(#SVGID_28_);fill:#3EA1BD;}
	.st80{clip-path:url(#SVGID_28_);}
	.st81{clip-path:url(#SVGID_28_);fill:#FFFFFF;}
	.st82{opacity:0.5;clip-path:url(#SVGID_28_);fill:#E8BD98;}
	.st83{clip-path:url(#SVGID_30_);}
	.st84{clip-path:url(#SVGID_30_);fill:#E8BD98;}
	.st85{clip-path:url(#SVGID_30_);fill:#C7D4E2;}
	.st86{clip-path:url(#SVGID_30_);fill:#543E36;}
	.st87{clip-path:url(#SVGID_30_);fill:#1A1A1A;}
	.st88{opacity:0.5;clip-path:url(#SVGID_30_);fill:#E8BD98;}
	.st89{clip-path:url(#SVGID_32_);fill:#006F34;}
	.st90{clip-path:url(#SVGID_32_);}
	.st91{fill:#B3D033;}
	.st92{fill:#BD7E52;}
	.st93{fill:#B0B3B4;}
	.st94{fill:#8A8D8F;}
	.st95{fill:#D1D3D4;}
	.st96{fill:#787B7D;}
	.st97{fill:#B7BABB;}
	.st98{fill:#91A0A1;}
	.st99{clip-path:url(#SVGID_34_);fill:#006F34;}
	.st100{clip-path:url(#SVGID_34_);}
	.st101{fill:#BFC1C2;}
	.st102{fill:#313034;}
	.st103{fill:url(#SVGID_35_);}
	.st104{fill:#B9B9B9;}
	.st105{fill:#ACAEB0;}
	.st106{fill:#BBBDBE;}
	.st107{fill:#96989A;}
	.st108{fill:#CFD0D1;}
	.st109{fill:#5D5D5D;}
	.st110{fill:#B7B9BB;}
	.st111{fill:#919395;}
	.st112{fill:none;}
	.st113{fill-rule:evenodd;clip-rule:evenodd;fill:#CED0D1;}
	.st114{fill-rule:evenodd;clip-rule:evenodd;fill:#FFFFFF;}
	.st115{fill:url(#SVGID_36_);}
	.st116{fill:url(#SVGID_37_);}
	.st117{fill:#F3F3F3;}
	.st118{fill:#231F20;}
	.st119{fill:url(#SVGID_38_);}
	.st120{fill:url(#SVGID_39_);}
	.st121{fill:url(#SVGID_40_);}
	.st122{fill:url(#SVGID_41_);}
	.st123{fill:url(#SVGID_42_);}
	.st124{fill:url(#SVGID_43_);}
	.st125{fill:url(#SVGID_44_);}
	.st126{fill:url(#SVGID_45_);}
	.st127{fill:url(#SVGID_46_);}
	.st128{fill:url(#SVGID_47_);}
	.st129{fill:url(#SVGID_48_);}
	.st130{fill:url(#SVGID_49_);}
	.st131{fill:url(#SVGID_50_);}
	.st132{fill:url(#SVGID_51_);}
	.st133{fill:url(#SVGID_52_);}
	.st134{fill:url(#SVGID_53_);}
	.st135{opacity:0.8;}
	.st136{opacity:0.8;fill:#F3F3F3;}
	.st137{clip-path:url(#SVGID_55_);}
	.st138{clip-path:url(#SVGID_57_);fill:#98ABB7;}
	.st139{clip-path:url(#SVGID_57_);}
	.st140{opacity:0.5;clip-path:url(#SVGID_57_);fill:#ECCCB0;}
	.st141{clip-path:url(#SVGID_59_);fill:#3EA1BD;}
	.st142{clip-path:url(#SVGID_59_);}
	.st143{clip-path:url(#SVGID_59_);fill:#FFFFFF;}
	.st144{opacity:0.5;clip-path:url(#SVGID_59_);fill:#E8BD98;}
	.st145{clip-path:url(#SVGID_61_);}
	.st146{clip-path:url(#SVGID_61_);fill:#E8BD98;}
	.st147{clip-path:url(#SVGID_61_);fill:#C7D4E2;}
	.st148{clip-path:url(#SVGID_61_);fill:#543E36;}
	.st149{clip-path:url(#SVGID_61_);fill:#1A1A1A;}
	.st150{opacity:0.5;clip-path:url(#SVGID_61_);fill:#E8BD98;}
	.st151{fill:none;stroke:#5D5D5D;stroke-width:3;stroke-linecap:round;stroke-miterlimit:10;}
	.st152{fill:none;stroke:#201F23;stroke-width:5;stroke-miterlimit:10;}
	.st153{fill:none;stroke:#201F23;stroke-width:4.2064;stroke-linecap:round;stroke-miterlimit:10;}
	.st154{fill:none;stroke:#201F23;stroke-miterlimit:10;}
	.st155{fill:#B9BBBC;}
	.st156{fill:#98999C;}
	.st157{fill:#B9BABC;}
	.st158{fill:#E2E2E3;}
	.st159{fill:#D1D1D2;}
	.st160{fill:#2E2D31;}
	.st161{fill:#1F1E21;}
	.st162{fill:#5D5C61;}
	.st163{fill:#4A4A4E;}
	.st164{fill:#88BD42;}
	.st165{opacity:0.6;}
	.st166{fill:#6A9742;}
	.st167{fill:#5F893B;}
	.st168{fill:none;stroke:#CFD0D1;stroke-width:4;stroke-linecap:round;stroke-miterlimit:10;}
	.st169{fill:#E09400;}
	.st170{fill:#F0EABC;}
	.st171{fill:#FFC843;}
	.st172{fill:#DDA070;}
	.st173{fill:none;stroke:#FFFFFF;stroke-width:4;stroke-linecap:round;stroke-miterlimit:10;}
	.st174{fill:none;stroke:#CFD0D1;stroke-width:2.5756;stroke-linecap:round;stroke-miterlimit:10;}
	.st175{fill:none;stroke:#FFFFFF;stroke-width:2.5756;stroke-linecap:round;stroke-miterlimit:10;}
	.st176{fill:#BCBDBE;}
	.st177{fill:#9C9EA0;}
	.st178{fill:#B3B5B6;}
	.st179{fill:#282828;}
</style>
<g id="Fondo">
</g>
<g id="Diseño">
	<g>
		<g>
			<g>
				<path class="st26" d="M0.6,46.5c0,24.2,19.7,43.8,43.7,43.9V2.6C20.2,2.8,0.6,22.4,0.6,46.5z"/>
				<path class="st102" d="M44.9,2.6c-0.1,0-0.7,0-0.7,0v87.8c0,0,0.6,0,0.7,0c24.2,0,43.9-19.7,43.9-43.9
					C88.8,22.3,69.2,2.6,44.9,2.6z"/>
			</g>
		</g>
		<g>
			<path class="st112" d="M29.6,31.1l-4.4,10.5c-0.5,1.3,0.2,2.2,1.5,2.2h17.5v-15H33C31.6,28.7,30.1,29.8,29.6,31.1z"/>
			<path class="st112" d="M35.2,50.9c0-0.7-0.6-1.2-1.2-1.2h-8.5c-0.7,0-1.2,0.6-1.2,1.2v3.5c0,0.7,0.6,1.2,1.2,1.2H34
				c0.7,0,1.2-0.6,1.2-1.2V50.9z"/>
			<path class="st112" d="M63.6,43.7c1.4,0,2-0.9,1.5-2.1L60.8,31c-0.5-1.3-2-2.3-3.4-2.3H44.2v15H63.6z"/>
			<path class="st112" d="M65.2,50.9c0-0.7-0.6-1.2-1.2-1.2h-8.5c-0.7,0-1.2,0.6-1.2,1.2v3.5c0,0.7,0.6,1.2,1.2,1.2H64
				c0.7,0,1.2-0.6,1.2-1.2V50.9z"/>
			<path class="st30" d="M70.3,36.4c-0.3,0-0.3,0-0.5,0.1l-2.6,0.7l-2.8-6.9c-0.9-2.1-3.3-3.7-5.6-3.7H44.2v2h13.1
				c1.4,0,2.9,1.1,3.4,2.3l4.4,10.5c0.5,1.3-0.2,2.2-1.5,2.2H44.2v18h17v4.1c0,1.7,2,2.9,3.7,2.9h3.7c1.7,0,2.6-1.2,2.6-2.9v-14
				c0-2.1-0.4-5.8-1.2-7.7l-0.2-1.4h0.2c1.7,0,2.1-0.6,2.1-2.3v-1.5C72.2,37.4,71.7,36.4,70.3,36.4z M65.2,54.5
				c0,0.7-0.6,1.2-1.2,1.2h-8.5c-0.7,0-1.2-0.6-1.2-1.2v-3.5c0-0.7,0.6-1.2,1.2-1.2H64c0.7,0,1.2,0.6,1.2,1.2V54.5z"/>
			<path class="st6" d="M26.1,43.7c-1.4,0-2-0.7-1.5-1.9L29,31.1c0.5-1.3,2-2.4,3.4-2.4h11.9v-2H31c-2.3,0-4.8,1.7-5.7,3.8l-2.9,7
				l-2.7-0.7c-0.3-0.1-0.7-0.1-0.9-0.1c-1.4,0-2.6,1.1-2.6,2.5v1.5c0,1.7,1.7,2.1,3.4,2.1h0.2l-0.3,1.5c-0.8,1.9-1.3,5.7-1.3,7.8v14
				c0,1.7,1.1,2.7,2.8,2.7h3.7c1.7,0,2.5-1,2.5-2.7v-4.3h17v-18H26.1z M34.2,55.1c0,0.5-0.2,0.7-0.9,0.7h-8.6
				c-0.7,0-1.5-0.1-1.5-0.7v-4.1c0-0.5,0.9-1.2,1.5-1.2h8.6c0.7,0,0.9,0.7,0.9,1.2V55.1z"/>
		</g>
	</g>
</g>
<g id="Iconos">
</g>
</svg>
