<?xml version="1.0" encoding="utf-8"?>
<!-- Generator: Adobe Illustrator 20.1.0, SVG Export Plug-In . SVG Version: 6.00 Build 0)  -->
<svg version="1.1" xmlns="http://www.w3.org/2000/svg" xmlns:xlink="http://www.w3.org/1999/xlink" x="0px" y="0px"
	 viewBox="0 0 90.9 91.8" style="enable-background:new 0 0 90.9 91.8;" xml:space="preserve">
<style type="text/css">
	.st0{clip-path:url(#SVGID_4_);}
	.st1{fill:#201F23;}
	.st2{fill:url(#SVGID_5_);}
	.st3{fill:#DBDCDD;}
	.st4{opacity:0.9;fill:#EAA330;}
	.st5{fill:#87BC42;}
	.st6{fill:#FFFFFF;}
	.st7{opacity:0.9;fill:#201F23;}
	.st8{opacity:0.7;fill:#201F23;}
	.st9{fill:url(#SVGID_6_);}
	.st10{fill:url(#SVGID_7_);}
	.st11{fill:url(#SVGID_8_);}
	.st12{fill:url(#SVGID_9_);}
	.st13{fill:url(#SVGID_10_);}
	.st14{fill:url(#SVGID_11_);}
	.st15{fill:none;stroke:#DBDCDD;stroke-width:3;stroke-linecap:round;stroke-miterlimit:10;}
	.st16{opacity:0.4;fill:#FFFFFF;}
	.st17{fill:none;stroke:#B9B9B9;stroke-width:12;stroke-linejoin:round;stroke-miterlimit:10;}
	.st18{fill:none;stroke:#6A9642;stroke-width:14;stroke-miterlimit:10;}
	.st19{fill:none;stroke:#FFFFFF;stroke-width:12;stroke-linejoin:round;stroke-miterlimit:10;}
	.st20{fill:url(#SVGID_12_);}
	.st21{fill:#6AAF42;}
	.st22{fill:none;stroke:#FFFFFF;stroke-width:2.0274;stroke-miterlimit:10;stroke-dasharray:3.379;}
	.st23{fill:none;stroke:#FFFFFF;stroke-width:2.0274;stroke-miterlimit:10;stroke-dasharray:7;}
	.st24{fill:url(#SVGID_13_);}
	.st25{fill:#6A9642;}
	.st26{fill:#504F54;}
	.st27{fill:none;stroke:#B9B9B9;stroke-width:12;stroke-miterlimit:10;}
	.st28{fill:#EAA330;}
	.st29{fill:#2D2C30;}
	.st30{fill:#CED0D1;}
	.st31{fill:#35903A;}
	.st32{fill:#CECFD0;}
	.st33{fill:#4E893F;}
	.st34{fill:#58595B;}
	.st35{fill:#272A2D;}
	.st36{fill:url(#SVGID_14_);}
	.st37{fill:none;stroke:#FFFFFF;stroke-miterlimit:10;}
	.st38{fill:#EEE0AD;}
	.st39{fill:#CDC297;}
	.st40{fill:#BEBFC5;}
	.st41{fill:#AAA9AF;}
	.st42{fill:#DADBDC;}
	.st43{fill:none;stroke:#FFFFFF;stroke-width:2.0274;stroke-miterlimit:10;}
	.st44{fill:none;stroke:#FFFFFF;stroke-width:2.0274;stroke-miterlimit:10;stroke-dasharray:7.054,7.054;}
	.st45{fill:#CDCFD0;}
	.st46{fill:#102D40;}
	.st47{fill:#264860;}
	.st48{clip-path:url(#SVGID_16_);}
	.st49{fill:#E8BD98;}
	.st50{fill:#E76D4A;}
	.st51{fill:#543E36;}
	.st52{fill:#C34628;}
	.st53{clip-path:url(#SVGID_18_);}
	.st54{fill:none;stroke:#FFFFFF;stroke-width:2.2466;stroke-miterlimit:10;stroke-dasharray:3.7443;}
	.st55{clip-path:url(#SVGID_20_);fill:#98ABB7;}
	.st56{clip-path:url(#SVGID_20_);}
	.st57{fill:#421800;}
	.st58{fill:#ECCCB0;}
	.st59{fill:#B34FC5;}
	.st60{fill:#E3E8EE;}
	.st61{opacity:0.5;clip-path:url(#SVGID_20_);fill:#ECCCB0;}
	.st62{clip-path:url(#SVGID_22_);fill:#3EA1BD;}
	.st63{clip-path:url(#SVGID_22_);}
	.st64{fill:#A17561;}
	.st65{fill:#141720;}
	.st66{clip-path:url(#SVGID_22_);fill:#FFFFFF;}
	.st67{opacity:0.5;clip-path:url(#SVGID_22_);fill:#E8BD98;}
	.st68{clip-path:url(#SVGID_24_);}
	.st69{fill:#C55D3F;}
	.st70{clip-path:url(#SVGID_24_);fill:#E8BD98;}
	.st71{clip-path:url(#SVGID_24_);fill:#C7D4E2;}
	.st72{clip-path:url(#SVGID_24_);fill:#543E36;}
	.st73{clip-path:url(#SVGID_24_);fill:#1A1A1A;}
	.st74{fill:#435363;}
	.st75{opacity:0.5;clip-path:url(#SVGID_24_);fill:#E8BD98;}
	.st76{clip-path:url(#SVGID_26_);fill:#98ABB7;}
	.st77{clip-path:url(#SVGID_26_);}
	.st78{opacity:0.5;clip-path:url(#SVGID_26_);fill:#ECCCB0;}
	.st79{clip-path:url(#SVGID_28_);fill:#3EA1BD;}
	.st80{clip-path:url(#SVGID_28_);}
	.st81{clip-path:url(#SVGID_28_);fill:#FFFFFF;}
	.st82{opacity:0.5;clip-path:url(#SVGID_28_);fill:#E8BD98;}
	.st83{clip-path:url(#SVGID_30_);}
	.st84{clip-path:url(#SVGID_30_);fill:#E8BD98;}
	.st85{clip-path:url(#SVGID_30_);fill:#C7D4E2;}
	.st86{clip-path:url(#SVGID_30_);fill:#543E36;}
	.st87{clip-path:url(#SVGID_30_);fill:#1A1A1A;}
	.st88{opacity:0.5;clip-path:url(#SVGID_30_);fill:#E8BD98;}
	.st89{clip-path:url(#SVGID_32_);fill:#006F34;}
	.st90{clip-path:url(#SVGID_32_);}
	.st91{fill:#B3D033;}
	.st92{fill:#BD7E52;}
	.st93{fill:#B0B3B4;}
	.st94{fill:#8A8D8F;}
	.st95{fill:#D1D3D4;}
	.st96{fill:#787B7D;}
	.st97{fill:#B7BABB;}
	.st98{fill:#91A0A1;}
	.st99{clip-path:url(#SVGID_34_);fill:#006F34;}
	.st100{clip-path:url(#SVGID_34_);}
	.st101{fill:#BFC1C2;}
	.st102{fill:#313034;}
	.st103{fill:url(#SVGID_35_);}
	.st104{fill:#B9B9B9;}
	.st105{fill:#ACAEB0;}
	.st106{fill:#BBBDBE;}
	.st107{fill:#96989A;}
	.st108{fill:#CFD0D1;}
	.st109{fill:#5D5D5D;}
	.st110{fill:#B7B9BB;}
	.st111{fill:#919395;}
	.st112{fill:none;}
	.st113{fill-rule:evenodd;clip-rule:evenodd;fill:#CED0D1;}
	.st114{fill-rule:evenodd;clip-rule:evenodd;fill:#FFFFFF;}
	.st115{fill:url(#SVGID_36_);}
	.st116{fill:url(#SVGID_37_);}
	.st117{fill:#F3F3F3;}
	.st118{fill:#231F20;}
	.st119{fill:url(#SVGID_38_);}
	.st120{fill:url(#SVGID_39_);}
	.st121{fill:url(#SVGID_40_);}
	.st122{fill:url(#SVGID_41_);}
	.st123{fill:url(#SVGID_42_);}
	.st124{fill:url(#SVGID_43_);}
	.st125{fill:url(#SVGID_44_);}
	.st126{fill:url(#SVGID_45_);}
	.st127{fill:url(#SVGID_46_);}
	.st128{fill:url(#SVGID_47_);}
	.st129{fill:url(#SVGID_48_);}
	.st130{fill:url(#SVGID_49_);}
	.st131{fill:url(#SVGID_50_);}
	.st132{fill:url(#SVGID_51_);}
	.st133{fill:url(#SVGID_52_);}
	.st134{fill:url(#SVGID_53_);}
	.st135{opacity:0.8;}
	.st136{opacity:0.8;fill:#F3F3F3;}
	.st137{clip-path:url(#SVGID_55_);}
	.st138{clip-path:url(#SVGID_57_);fill:#98ABB7;}
	.st139{clip-path:url(#SVGID_57_);}
	.st140{opacity:0.5;clip-path:url(#SVGID_57_);fill:#ECCCB0;}
	.st141{clip-path:url(#SVGID_59_);fill:#3EA1BD;}
	.st142{clip-path:url(#SVGID_59_);}
	.st143{clip-path:url(#SVGID_59_);fill:#FFFFFF;}
	.st144{opacity:0.5;clip-path:url(#SVGID_59_);fill:#E8BD98;}
	.st145{clip-path:url(#SVGID_61_);}
	.st146{clip-path:url(#SVGID_61_);fill:#E8BD98;}
	.st147{clip-path:url(#SVGID_61_);fill:#C7D4E2;}
	.st148{clip-path:url(#SVGID_61_);fill:#543E36;}
	.st149{clip-path:url(#SVGID_61_);fill:#1A1A1A;}
	.st150{opacity:0.5;clip-path:url(#SVGID_61_);fill:#E8BD98;}
	.st151{fill:none;stroke:#5D5D5D;stroke-width:3;stroke-linecap:round;stroke-miterlimit:10;}
	.st152{fill:none;stroke:#201F23;stroke-width:5;stroke-miterlimit:10;}
	.st153{fill:none;stroke:#201F23;stroke-width:4.2064;stroke-linecap:round;stroke-miterlimit:10;}
	.st154{fill:none;stroke:#201F23;stroke-miterlimit:10;}
	.st155{fill:#B9BBBC;}
	.st156{fill:#98999C;}
	.st157{fill:#B9BABC;}
	.st158{fill:#E2E2E3;}
	.st159{fill:#D1D1D2;}
	.st160{fill:#2E2D31;}
	.st161{fill:#1F1E21;}
	.st162{fill:#5D5C61;}
	.st163{fill:#4A4A4E;}
	.st164{fill:#88BD42;}
	.st165{opacity:0.6;}
	.st166{fill:#6A9742;}
	.st167{fill:#5F893B;}
	.st168{fill:none;stroke:#CFD0D1;stroke-width:4;stroke-linecap:round;stroke-miterlimit:10;}
	.st169{fill:#E09400;}
	.st170{fill:#F0EABC;}
	.st171{fill:#FFC843;}
	.st172{fill:#DDA070;}
	.st173{fill:none;stroke:#FFFFFF;stroke-width:4;stroke-linecap:round;stroke-miterlimit:10;}
	.st174{fill:none;stroke:#CFD0D1;stroke-width:2.5756;stroke-linecap:round;stroke-miterlimit:10;}
	.st175{fill:none;stroke:#FFFFFF;stroke-width:2.5756;stroke-linecap:round;stroke-miterlimit:10;}
	.st176{fill:#BCBDBE;}
	.st177{fill:#9C9EA0;}
	.st178{fill:#B3B5B6;}
	.st179{fill:#282828;}
</style>
<g id="Fondo">
</g>
<g id="Diseño">
	<g>
		<g>
			<g>
				<g>
					<path class="st26" d="M2.1,45.9c0,24.2,19.7,43.8,43.7,43.9V2C21.8,2.1,2.1,21.7,2.1,45.9z"/>
					<path class="st102" d="M46,2c-0.1,0-0.3,0-0.3,0v87.8c0,0,0.2,0,0.3,0c24.2,0,43.9-19.7,43.9-43.9C89.9,21.6,70.3,2,46,2z"/>
				</g>
			</g>
		</g>
		<g id="nIyoPq_4_">
			<g>
				<path class="st113" d="M69.7,46.1c0,8.3,0,16.7,0,25c0,3.2-0.5,3.7-3.7,3.7c-7.8,0-15.6-0.1-23.3,0c-3.4,0-5.7-1.3-7.4-4.2
					c-3-5.3-6.9-9.8-12.2-13c-2.2-1.3-3.4-3.4-3.8-5.9C18.5,46.4,17.8,41,17,35.7c-0.4-2.4,0.4-4.1,2.4-5.4
					c4.8-3.3,9.5-6.6,14.2-10.1c2.8-2,5.9-3.2,9.3-3.2c8.1-0.1,16.1,0.1,24.2,0.2c2.1,0,2.7,1.3,2.7,3.2
					C69.7,29,69.7,37.5,69.7,46.1z M45.6,43.4c5.7,0,11.4,0,17.2,0c2.6,0,3.8-1.2,3.8-3.7c0.1-5.2,0.1-10.3,0-15.5
					c0-2.6-1.3-3.8-4-3.9c-4.5,0-8.9,0.1-13.4,0c-8.3-0.1-15.2,3.1-20.8,8.8c-2,2-3.7,4.7-4.7,7.3c-1.5,4,1,6.9,5.3,6.9
					C34.6,43.4,40.1,43.4,45.6,43.4z M35.7,51.4c1.7,0,3.4,0,5.1,0c0.4,0,1.1-0.3,1.2-0.6c0.1-0.5,0-1.2-0.3-1.5
					c-0.6-0.5-1.4-1-2.2-1.1c-2.5-0.1-4.9-0.1-7.4,0c-0.6,0-1.4,0.4-1.9,0.8c-0.4,0.4-0.8,1.2-0.7,1.6c0.1,0.4,1,0.7,1.5,0.7
					C32.6,51.4,34.2,51.4,35.7,51.4z M39.6,72c0,0.1,0,0.3,0,0.4c9.2,0,18.5,0,27.7,0c0-0.1,0-0.3,0-0.4C58.1,72,48.9,72,39.6,72z"
					/>
			</g>
		</g>
		<g id="nIyoPq_3_">
			<g>
				<path class="st114" d="M45.4,72c-1.9,0-3.9,0-5.8,0c0,0.1,0,0.3,0,0.4l5.8,0l0,2.3c-0.9,0-1.8,0-2.7,0c-3.4,0-5.7-1.3-7.4-4.2
					c-3-5.3-6.9-9.8-12.2-13c-2.2-1.3-3.4-3.4-3.8-5.9C18.5,46.3,17.8,41,17,35.7c-0.4-2.4,0.4-4,2.4-5.4c4.8-3.3,9.5-6.6,14.2-10.1
					c2.8-2,5.9-3.2,9.3-3.2c0.9,0,1.7,0,2.6,0l0,3.5c-6.6,0.8-12.2,3.8-17,8.6c-2,2-3.7,4.7-4.7,7.3c-1.5,4,1,6.9,5.3,6.9l16.4,0
					 M35.7,51.4c1.7,0,3.4,0,5.1,0c0.4,0,1.1-0.3,1.2-0.6c0.1-0.5,0-1.2-0.3-1.5c-0.6-0.5-1.4-1-2.2-1.1c-2.5-0.1-4.9-0.1-7.4,0
					c-0.6,0-1.4,0.4-1.9,0.8c-0.4,0.4-0.8,1.2-0.7,1.6c0.1,0.4,1,0.7,1.5,0.7C32.6,51.4,34.2,51.4,35.7,51.4z"/>
			</g>
		</g>
	</g>
</g>
<g id="Iconos">
</g>
</svg>
