<svg xmlns="http://www.w3.org/2000/svg" viewBox="0 0 180 180"><defs><style>.cls-1{fill:#cecfd0;}.cls-2{opacity:0.8;}.cls-3{fill:#fff;}</style></defs><title>perfil_asesores</title><g id="Diseño"><rect class="cls-1" width="180" height="180"/><g class="cls-2"><path class="cls-3" d="M136.24,129.71c.52-.09.78-1,.78-2.2v-2.09S137,118.87,125.39,113c-5.75-3-14-10.39-26.35-12.84,3.1-4,5.59-10,8.06-17.2,1.36-4.24,1.11-7.8,1.11-12.79,0-3.88.69-9.77-.21-13.11C105.31,45.9,98,42.84,89.91,42.84h0C81.75,42.84,75,45.91,72.36,57c-.75,3.33-.1,9.36-.1,13.1,0,5-.2,8.55,1.27,12.79,2.47,7.18,4.83,13.37,8.07,17.2-12.29,2.54-21.13,10-26.7,12.84-11.64,5.89-12.09,12.44-12.09,12.44v2.46a2.38,2.38,0,0,0,1.27,2.1,66.32,66.32,0,0,0-.36,7.18h93.45S136.64,132.78,136.24,129.71Z"/></g></g></svg>