<svg xmlns="http://www.w3.org/2000/svg" viewBox="0 0 150 150"><defs><style>.cls-1{fill:#504f54;}.cls-2{fill:#313034;}.cls-3{fill:#6a9a42;}.cls-4{fill:#8bc042;}.cls-5,.cls-6{fill:none;stroke-linecap:round;stroke-miterlimit:10;stroke-width:3px;}.cls-5{stroke:#dcddde;}.cls-6{stroke:#fff;}.cls-7{fill:#5f8c3b;}.cls-8{fill:#e39700;}.cls-9{fill:#f3edbf;}.cls-10{fill:#ffcb43;}.cls-11{fill:#e0a370;}</style></defs><title>rcliente_talleres</title><g id="INFO"><path class="cls-1" d="M4.19,75.18c0,38.64,31.81,70,69.81,70.21V5C36,5.19,4.19,36.54,4.19,75.18Z"/><path class="cls-2" d="M74.52,5H74V145.39h.52A70.21,70.21,0,1,0,74.52,5Z"/><path class="cls-3" d="M97.12,30H74v90h29.48a5.28,5.28,0,0,0,5.52-5.16V40.91Z"/><path class="cls-4" d="M74,120H45c-3,0-6-2.15-6-5.16V34.55c0-3,3-4.55,6-4.55H74v90"/><line class="cls-5" x1="74" y1="49.5" x2="97" y2="49.5"/><line class="cls-6" x1="51" y1="49.5" x2="74" y2="49.5"/><line class="cls-5" x1="74" y1="62.5" x2="97" y2="62.5"/><line class="cls-6" x1="51" y1="62.5" x2="74" y2="62.5"/><line class="cls-5" x1="74" y1="75.5" x2="97" y2="75.5"/><line class="cls-6" x1="51" y1="75.5" x2="74" y2="75.5"/><line class="cls-5" x1="74" y1="88.5" x2="97" y2="88.5"/><line class="cls-6" x1="51" y1="88.5" x2="74" y2="88.5"/><path class="cls-7" d="M96.74,35.58a5.84,5.84,0,0,0,5.77,5.56l6.36,0L96.71,29.22Z"/><path class="cls-8" d="M97.31,99.12,123.43,73l.61-.61a3.5,3.5,0,0,0,0-5l-.92-.92a3.47,3.47,0,0,0-4.9,0l-.64.64L91.46,93.28Z"/><polygon class="cls-9" points="120.68 75.75 114.83 69.91 117.76 66.99 123.6 72.83 120.68 75.75"/><polygon class="cls-10" points="96.33 94.25 93.41 91.33 112.89 71.86 115.81 74.78 96.33 94.25"/><polygon class="cls-11" points="89.52 95.23 95.36 101.07 85.13 105.45 89.52 95.23"/><polygon class="cls-9" points="95.36 101.07 89.52 95.23 91.46 93.28 97.31 99.12 95.36 101.07"/></g></svg>