<svg xmlns="http://www.w3.org/2000/svg" viewBox="0 0 150 150"><defs><style>.cls-1{fill:#fff;}.cls-2{fill:#dfe0e1;}.cls-3,.cls-4,.cls-9{fill:none;}.cls-3{stroke:#313034;}.cls-3,.cls-4{stroke-miterlimit:10;stroke-width:6.32px;}.cls-4{stroke:#504f54;}.cls-5{fill:#313034;}.cls-6{fill:#504f54;}.cls-7{fill:#6a9a42;}.cls-8{fill:#8bc042;}</style></defs><title>rsello_talleres</title><g id="INFO"><path class="cls-1" d="M4.35,75c0,38.55,31.65,69.82,69.65,70V5C36,5.19,4.35,36.46,4.35,75Z"/><path class="cls-2" d="M74.72,5H74V145.06h.72A70,70,0,1,0,74.72,5Z"/><path class="cls-3" d="M75,24.47a50.83,50.83,0,0,1,0,101.67"/><path class="cls-4" d="M75,126.14A50.83,50.83,0,1,1,75,24.47"/><path class="cls-5" d="M116.83,76.56l2.66-.9.4,1.28-2.66.86,1.68,2.27-1.05.78-1.74-2.33-1.7,2.29L113.38,80l1.7-2.24-2.71-.92.4-1.24,2.69.92V73.75h1.38Z"/><path class="cls-6" d="M34.27,76.56l2.66-.9.4,1.28-2.66.86,1.68,2.27-1.05.78-1.74-2.33-1.7,2.29L30.81,80l1.7-2.24-2.71-.92.4-1.24,2.69.92V73.75h1.38Z"/><path class="cls-5" d="M75,40.42c-.34,0-1,0-1,0V74.52L94.25,54.59l7.94,8.07L74,90.4v19.75s.68,0,1,0a34.88,34.88,0,1,0,0-69.76Z"/><path class="cls-6" d="M68.31,96l-7.94-8.07L47.68,75l8.07-7.94L68.44,80,74,74.52V40.45C54,41,40.14,56.38,40.14,75.3S54,109.62,74,110.16V90.4Z"/><polygon class="cls-7" points="102.19 62.66 94.25 54.59 74 74.52 74 90.4 102.19 62.66"/><polygon class="cls-8" points="55.74 67.1 47.68 75.04 60.38 87.94 68.31 96.01 74 90.4 74 74.52 68.44 80 55.74 67.1"/><path class="cls-9" d="M54.84,107.77A2.88,2.88,0,0,0,53,106.52a2.72,2.72,0,0,0-1.06,0,2.82,2.82,0,0,0-1,.46,3.27,3.27,0,0,0-.78.83,3.23,3.23,0,0,0-.46,1.05,2.76,2.76,0,0,0,0,1.07,2.8,2.8,0,0,0,2.27,2.24,2.7,2.7,0,0,0,1.06,0,2.77,2.77,0,0,0,1-.46,3.35,3.35,0,0,0,1.24-1.88,2.78,2.78,0,0,0,0-1.07A2.66,2.66,0,0,0,54.84,107.77Z"/><polygon class="cls-9" points="66.89 117.69 66.91 117.69 68.87 114.65 66.16 114.16 66.89 117.69"/><path class="cls-9" d="M60.48,110.74a2.91,2.91,0,0,0-1.1.12,2.45,2.45,0,0,0-.93.55,2.68,2.68,0,0,0-.66,1,3.56,3.56,0,0,0-.19.8,2.47,2.47,0,0,0,.07,1,2.51,2.51,0,0,0,.55,1,3.07,3.07,0,0,0,1.23.8l1.38.54,2-5.06L61.65,111A4.1,4.1,0,0,0,60.48,110.74Z"/><path class="cls-9" d="M84.06,113.83a2.78,2.78,0,0,0-.71-.81,2.68,2.68,0,0,0-1-.46,2.73,2.73,0,0,0-3,1.17,2.75,2.75,0,0,0-.38,1,3.35,3.35,0,0,0,.4,2.22,2.82,2.82,0,0,0,.71.81,2.72,2.72,0,0,0,1,.46,2.89,2.89,0,0,0,2.23-.4,2.69,2.69,0,0,0,.74-.77,2.74,2.74,0,0,0,.38-1,3.34,3.34,0,0,0-.4-2.22Z"/><path class="cls-9" d="M88.73,114a1.52,1.52,0,0,0-.41.34.92.92,0,0,0-.2.46,1.42,1.42,0,0,0,.44,1.12.91.91,0,0,0,.46.2,1.55,1.55,0,0,0,.53,0,3.44,3.44,0,0,0,.55-.16l1.21-.47-.85-2.19-1.21.47A3.34,3.34,0,0,0,88.73,114Z"/><path class="cls-9" d="M94.58,111.26a1.57,1.57,0,0,0-.35.4.94.94,0,0,0-.13.49,1.2,1.2,0,0,0,.19.59,1.22,1.22,0,0,0,.42.45.94.94,0,0,0,.48.13,1.58,1.58,0,0,0,.52-.11,3.51,3.51,0,0,0,.52-.25l1.12-.65-1.19-2-1.12.65A3.66,3.66,0,0,0,94.58,111.26Z"/><polygon class="cls-9" points="98.95 106.6 102.15 108.28 102.17 108.27 101.06 104.82 98.95 106.6"/><path class="cls-5" d="M101,101.35l-.88.75.62,1.84-2.64,2.24-1.72-.9-.88.75,7.09,3.54.68-.58Zm1.12,6.92L99,106.6l2.1-1.78,1.11,3.44Z"/><path class="cls-5" d="M94.11,106.76l1.62,2.77-1.36.8a3,3,0,0,0-.9.75,2,2,0,0,0-.37.78,1.64,1.64,0,0,0,0,.75,2.47,2.47,0,0,0,.71,1.22,1.66,1.66,0,0,0,.65.38,1.94,1.94,0,0,0,.86.05,3,3,0,0,0,1.09-.42l2.21-1.3L95,106.26Zm3.25,5.54-1.12.65a3.51,3.51,0,0,1-.52.25,1.58,1.58,0,0,1-.52.11.94.94,0,0,1-.48-.13,1.22,1.22,0,0,1-.42-.45,1.2,1.2,0,0,1-.19-.59.94.94,0,0,1,.13-.49,1.57,1.57,0,0,1,.35-.4,3.66,3.66,0,0,1,.47-.33l1.12-.65Z"/><path class="cls-5" d="M89,109.46l1.17,3-1,.4-2.89-2.31-1.15.45,3.13,2.35a2,2,0,0,0-.61.48,2,2,0,0,0-.37.62,1.93,1.93,0,0,0-.12.68,1.86,1.86,0,0,0,.13.67,2.56,2.56,0,0,0,.35.62,1.67,1.67,0,0,0,.58.48,2,2,0,0,0,.84.19,3,3,0,0,0,1.14-.24l2.39-.93L89.9,109.1Zm2.33,6-1.21.47a3.44,3.44,0,0,1-.55.16,1.55,1.55,0,0,1-.53,0,.91.91,0,0,1-.46-.2,1.42,1.42,0,0,1-.44-1.12.92.92,0,0,1,.2-.46,1.52,1.52,0,0,1,.41-.34,3.34,3.34,0,0,1,.51-.25l1.21-.47Z"/><path class="cls-5" d="M84.94,113.27a3.74,3.74,0,0,0-1-1.05,3.58,3.58,0,0,0-1.32-.58,4.16,4.16,0,0,0-3,.55,3.57,3.57,0,0,0-1,1,3.72,3.72,0,0,0-.55,1.33,4.18,4.18,0,0,0,.54,3,3.73,3.73,0,0,0,1,1.05,3.54,3.54,0,0,0,1.32.58,3.93,3.93,0,0,0,1.56,0,3.88,3.88,0,0,0,1.46-.56,3.53,3.53,0,0,0,1-1,3.71,3.71,0,0,0,.55-1.33,4.18,4.18,0,0,0-.54-3ZM84.47,116a2.74,2.74,0,0,1-.38,1,2.64,2.64,0,0,1-1.81,1.2,2.66,2.66,0,0,1-1.16,0,2.72,2.72,0,0,1-1-.46,2.82,2.82,0,0,1-.71-.81,3.35,3.35,0,0,1-.4-2.22,2.75,2.75,0,0,1,.38-1,2.73,2.73,0,0,1,3.93-.71,2.78,2.78,0,0,1,.71.81,3.34,3.34,0,0,1,.4,2.22Z"/><polygon class="cls-5" points="74 112.38 74 113.77 76.04 119.7 77.18 119.72 74.49 112.39 74 112.38"/><polygon class="cls-6" points="73.57 112.38 70.58 119.61 71.66 119.76 73.99 114 74.01 114 74 113.77 74 112.38 73.57 112.38"/><path class="cls-6" d="M70.4,112.23l-1,1.64L66,113.24l-.39-1.9-1.13-.21,1.75,7.73.88.16,4.48-6.58Zm-3.5,5.46h0l-.73-3.53,2.71.5Z"/><path class="cls-6" d="M60.14,109.76a3.7,3.7,0,0,0-1.46.3,3.4,3.4,0,0,0-1.13.8,3.66,3.66,0,0,0-.73,1.17,4.12,4.12,0,0,0-.2.72,4,4,0,0,0-.07.83,3.66,3.66,0,0,0,.13.89,3,3,0,0,0,.42.89,3.55,3.55,0,0,0,.77.8,4.7,4.7,0,0,0,1.2.66l2.36.92L64.07,111l-2.21-.87A4.42,4.42,0,0,0,60.14,109.76Zm.69,6.77L59.45,116a3.07,3.07,0,0,1-1.23-.8,2.51,2.51,0,0,1-.55-1,2.47,2.47,0,0,1-.07-1,3.56,3.56,0,0,1,.19-.8,2.68,2.68,0,0,1,.66-1,2.45,2.45,0,0,1,.93-.55,2.91,2.91,0,0,1,1.1-.12,4.1,4.1,0,0,1,1.17.28l1.16.45Z"/><path class="cls-6" d="M55.65,107.27a4.17,4.17,0,0,0-2.56-1.69,3.59,3.59,0,0,0-1.44,0,3.69,3.69,0,0,0-1.32.58,3.92,3.92,0,0,0-1.07,1.11,4,4,0,0,0-.6,1.42,3.75,3.75,0,0,0,0,1.44,3.58,3.58,0,0,0,.56,1.33,4.17,4.17,0,0,0,2.56,1.68,3.6,3.6,0,0,0,1.44,0,3.72,3.72,0,0,0,1.32-.58A4.16,4.16,0,0,0,56.19,110a3.73,3.73,0,0,0,0-1.44A3.55,3.55,0,0,0,55.65,107.27Zm-.47,2.57a3.35,3.35,0,0,1-1.24,1.88,2.77,2.77,0,0,1-1,.46,2.7,2.7,0,0,1-1.06,0A2.73,2.73,0,0,1,49.64,110a2.76,2.76,0,0,1,0-1.07,3.23,3.23,0,0,1,.46-1.05,3.27,3.27,0,0,1,.78-.83,2.82,2.82,0,0,1,1-.46A2.65,2.65,0,0,1,54,107a2.65,2.65,0,0,1,1.2,1.81A2.78,2.78,0,0,1,55.18,109.84Z"/><path class="cls-9" d="M74.41,37.36a2.68,2.68,0,0,0,1.36-1.6,3.25,3.25,0,0,0,.15-1.13,3.21,3.21,0,0,0-.25-1.12,2.76,2.76,0,0,0-.59-.89,2.72,2.72,0,0,0-.9-.58c-.05,0-.18,0-.18,0v5.53S74.28,37.42,74.41,37.36Z"/><path class="cls-9" d="M71.92,32.13a2.66,2.66,0,0,0-.84.66,2.76,2.76,0,0,0-.51.94,3.26,3.26,0,0,0-.15,1.13A3.19,3.19,0,0,0,70.67,36a2.72,2.72,0,0,0,.59.9,2.66,2.66,0,0,0,2,.77c.26,0,.71-.06.71-.13V32c0-.1-.61-.15-1-.13A2.65,2.65,0,0,0,71.92,32.13Z"/><polygon class="cls-9" points="54.95 41.13 52 39.04 51.98 39.05 52.62 42.61 54.95 41.13"/><polygon class="cls-9" points="88.19 34.46 85.84 37.21 88.46 38.07 88.21 34.47 88.19 34.46"/><path class="cls-9" d="M66.78,34.49a1.41,1.41,0,0,0-.28-1.17.91.91,0,0,0-.43-.26,1.54,1.54,0,0,0-.53,0,3.45,3.45,0,0,0-.57.09l-1.26.3.55,2.28,1.26-.3a3.8,3.8,0,0,0,.54-.18,1.56,1.56,0,0,0,.45-.28A.93.93,0,0,0,66.78,34.49Z"/><path class="cls-9" d="M60,35.18a.94.94,0,0,0-.46-.19A1.56,1.56,0,0,0,59,35a3.38,3.38,0,0,0-.55.18l-1.2.5.9,2.16,1.2-.5a3.59,3.59,0,0,0,.51-.26,1.53,1.53,0,0,0,.4-.35.93.93,0,0,0,.19-.46A1.42,1.42,0,0,0,60,35.18Z"/><path class="cls-9" d="M96.47,38.11a3.08,3.08,0,0,0-1.12-1l-1.29-.72-2.64,4.75,1.09.6a4,4,0,0,0,1.12.43,2.88,2.88,0,0,0,1.11,0,2.44,2.44,0,0,0,1-.42,2.67,2.67,0,0,0,.79-.92,3.55,3.55,0,0,0,.3-.77,2.46,2.46,0,0,0,.06-1A2.53,2.53,0,0,0,96.47,38.11Z"/><path class="cls-9" d="M103.33,42.46a2.65,2.65,0,0,0-2.06-.67,2.73,2.73,0,0,0-1,.33,3.22,3.22,0,0,0-.89.72,3.26,3.26,0,0,0-.59,1,2.77,2.77,0,0,0-.19,1.06,2.73,2.73,0,0,0,3,2.62,2.78,2.78,0,0,0,1-.33,3.36,3.36,0,0,0,1.48-1.7,2.76,2.76,0,0,0,.19-1.06,2.65,2.65,0,0,0-.94-2Z"/><path class="cls-6" d="M51,38.19l1.21,7.87,1-.62-.36-1.9,2.92-1.86,1.58,1.12,1-.62-6.54-4.46ZM52,39l2.94,2.09-2.32,1.48L52,39.05Z"/><path class="cls-6" d="M61.36,35.28a2.56,2.56,0,0,0-.37-.61,1.64,1.64,0,0,0-.59-.47,1.94,1.94,0,0,0-.85-.17,3,3,0,0,0-1.14.27l-2.36,1L58.86,42l.91-.38-1.24-3L60,38.06a3,3,0,0,0,1-.62,2,2,0,0,0,.47-.72,1.64,1.64,0,0,0,.08-.75A2.59,2.59,0,0,0,61.36,35.28Zm-1.05,1.47a1.53,1.53,0,0,1-.4.35,3.59,3.59,0,0,1-.51.26l-1.2.5-.9-2.16,1.2-.5A3.38,3.38,0,0,1,59,35a1.56,1.56,0,0,1,.53,0,.94.94,0,0,1,.46.19,1.42,1.42,0,0,1,.46,1.11A.93.93,0,0,1,60.31,36.75Z"/><path class="cls-6" d="M67.17,35.53a2.05,2.05,0,0,0,.45-.56,1.9,1.9,0,0,0,.17-1.34,2.55,2.55,0,0,0-.26-.66,1.64,1.64,0,0,0-.51-.55,1.93,1.93,0,0,0-.81-.3A3,3,0,0,0,65,32.2l-2.49.6,1.71,7.08,1-.23-.75-3.12,1.07-.26L68.09,39l1.2-.29L66.5,35.92A2,2,0,0,0,67.17,35.53Zm-1.65-.15-1.26.3-.55-2.28L65,33.1a3.45,3.45,0,0,1,.57-.09,1.54,1.54,0,0,1,.53,0,.91.91,0,0,1,.43.26,1.41,1.41,0,0,1,.28,1.17.93.93,0,0,1-.26.43,1.56,1.56,0,0,1-.45.28A3.8,3.8,0,0,1,65.52,35.38Z"/><path class="cls-6" d="M73.29,37.64A2.65,2.65,0,0,1,70.67,36a3.19,3.19,0,0,1-.25-1.12,3.26,3.26,0,0,1,.15-1.13,2.76,2.76,0,0,1,.51-.94A2.64,2.64,0,0,1,73,31.85c.35,0,1,0,1,.13V31a2.84,2.84,0,0,0-1-.09,3.89,3.89,0,0,0-1.51.36,3.53,3.53,0,0,0-1.16.86,3.7,3.7,0,0,0-.73,1.25,4.19,4.19,0,0,0,.13,3,3.74,3.74,0,0,0,.84,1.18,3.57,3.57,0,0,0,1.23.75,3.9,3.9,0,0,0,1.53.22,2.12,2.12,0,0,0,.67-.09v-1C74,37.58,73.55,37.63,73.29,37.64Z"/><path class="cls-5" d="M75.78,31.9a3.62,3.62,0,0,0-1.24-.75C74.37,31.08,74,31,74,31v1s.12,0,.17,0a2.71,2.71,0,0,1,.89.58,2.77,2.77,0,0,1,.6.89,3.21,3.21,0,0,1,.25,1.12,3.25,3.25,0,0,1-.15,1.13,2.65,2.65,0,0,1-1.36,1.6c-.13.06-.41.11-.41.15v1c0-.06.59-.14.85-.27A3.56,3.56,0,0,0,76,37.34a3.73,3.73,0,0,0,.73-1.25,4.18,4.18,0,0,0-.13-3A3.77,3.77,0,0,0,75.78,31.9Z"/><polygon class="cls-5" points="83.74 31.9 80.65 37.42 80.63 37.42 79.41 31.24 78.28 31.07 79.95 38.69 80.87 38.83 84.81 32.06 83.74 31.9"/><path class="cls-5" d="M88.22,33.13,82.9,39,84,39.4l1.25-1.49L88.53,39l.13,1.94,1.09.36-.69-7.89Zm-2.38,4.08,2.35-2.75h0l.25,3.6Z"/><path class="cls-5" d="M97.92,39.93a3.65,3.65,0,0,0,0-.9,3,3,0,0,0-.29-.93,3.61,3.61,0,0,0-.65-.9,4.72,4.72,0,0,0-1.1-.81l-2.22-1.23L90.1,41.51l2.08,1.16a4.46,4.46,0,0,0,1.66.57,3.74,3.74,0,0,0,1.49-.11,3.4,3.4,0,0,0,1.23-.65,3.65,3.65,0,0,0,.88-1.06,4.22,4.22,0,0,0,.3-.68A3.86,3.86,0,0,0,97.92,39.93Zm-1.1.22a3.55,3.55,0,0,1-.3.77,2.67,2.67,0,0,1-.79.92,2.44,2.44,0,0,1-1,.42,2.88,2.88,0,0,1-1.11,0,4,4,0,0,1-1.12-.43l-1.09-.6,2.64-4.75,1.29.72a3.08,3.08,0,0,1,1.12,1,2.53,2.53,0,0,1,.41,1A2.46,2.46,0,0,1,96.82,40.14Z"/><path class="cls-5" d="M104.9,43a4.17,4.17,0,0,0-2.31-2,3.58,3.58,0,0,0-1.43-.18,3.71,3.71,0,0,0-1.39.4,4.16,4.16,0,0,0-2,2.28,3.72,3.72,0,0,0-.21,1.43,3.55,3.55,0,0,0,.37,1.4,4.15,4.15,0,0,0,2.31,2,3.57,3.57,0,0,0,1.43.18,3.73,3.73,0,0,0,1.39-.4,4,4,0,0,0,1.21-1,4,4,0,0,0,.78-1.32,3.74,3.74,0,0,0,.21-1.43A3.57,3.57,0,0,0,104.9,43Zm-.81,2.48a3.36,3.36,0,0,1-1.48,1.7,2.78,2.78,0,0,1-1,.33,2.73,2.73,0,0,1-3-2.62,2.77,2.77,0,0,1,.19-1.06,3.26,3.26,0,0,1,.59-1,3.22,3.22,0,0,1,.89-.72,2.73,2.73,0,0,1,1-.33,2.65,2.65,0,0,1,2.06.67,2.65,2.65,0,0,1,.94,2A2.76,2.76,0,0,1,104.08,45.48Z"/></g></svg>