<?xml version="1.0" encoding="utf-8"?>
<!-- Generator: Adobe Illustrator 20.1.0, SVG Export Plug-In . SVG Version: 6.00 Build 0)  -->
<svg version="1.1" xmlns="http://www.w3.org/2000/svg" xmlns:xlink="http://www.w3.org/1999/xlink" x="0px" y="0px"
	 viewBox="0 0 232.2 237.7" style="enable-background:new 0 0 232.2 237.7;" xml:space="preserve">
<style type="text/css">
	.st0{clip-path:url(#SVGID_4_);}
	.st1{fill:#201F23;}
	.st2{fill:url(#SVGID_5_);}
	.st3{fill:#DBDCDD;}
	.st4{opacity:0.9;fill:#EAA330;}
	.st5{fill:#87BC42;}
	.st6{fill:#FFFFFF;}
	.st7{opacity:0.9;fill:#201F23;}
	.st8{opacity:0.7;fill:#201F23;}
	.st9{fill:url(#SVGID_6_);}
	.st10{fill:url(#SVGID_7_);}
	.st11{fill:url(#SVGID_8_);}
	.st12{fill:url(#SVGID_9_);}
	.st13{fill:url(#SVGID_10_);}
	.st14{fill:url(#SVGID_11_);}
	.st15{fill:none;stroke:#DBDCDD;stroke-width:3;stroke-linecap:round;stroke-miterlimit:10;}
	.st16{opacity:0.4;fill:#FFFFFF;}
	.st17{fill:none;stroke:#B9B9B9;stroke-width:12;stroke-linejoin:round;stroke-miterlimit:10;}
	.st18{fill:none;stroke:#6A9642;stroke-width:14;stroke-miterlimit:10;}
	.st19{fill:none;stroke:#FFFFFF;stroke-width:12;stroke-linejoin:round;stroke-miterlimit:10;}
	.st20{fill:url(#SVGID_12_);}
	.st21{fill:#6AAF42;}
	.st22{fill:none;stroke:#FFFFFF;stroke-width:2.0274;stroke-miterlimit:10;stroke-dasharray:3.379;}
	.st23{fill:none;stroke:#FFFFFF;stroke-width:2.0274;stroke-miterlimit:10;stroke-dasharray:7;}
	.st24{fill:url(#SVGID_13_);}
	.st25{fill:#6A9642;}
	.st26{fill:#504F54;}
	.st27{fill:none;stroke:#B9B9B9;stroke-width:12;stroke-miterlimit:10;}
	.st28{fill:#EAA330;}
	.st29{fill:#2D2C30;}
	.st30{fill:#CED0D1;}
	.st31{fill:#35903A;}
	.st32{fill:#CECFD0;}
	.st33{fill:#4E893F;}
	.st34{fill:#58595B;}
	.st35{fill:#272A2D;}
	.st36{fill:url(#SVGID_14_);}
	.st37{fill:none;stroke:#FFFFFF;stroke-miterlimit:10;}
	.st38{fill:#EEE0AD;}
	.st39{fill:#CDC297;}
	.st40{fill:#BEBFC5;}
	.st41{fill:#AAA9AF;}
	.st42{fill:#DADBDC;}
	.st43{fill:none;stroke:#FFFFFF;stroke-width:2.0274;stroke-miterlimit:10;}
	.st44{fill:none;stroke:#FFFFFF;stroke-width:2.0274;stroke-miterlimit:10;stroke-dasharray:7.054,7.054;}
	.st45{fill:#CDCFD0;}
	.st46{fill:#102D40;}
	.st47{fill:#264860;}
	.st48{clip-path:url(#SVGID_16_);}
	.st49{fill:#E8BD98;}
	.st50{fill:#E76D4A;}
	.st51{fill:#543E36;}
	.st52{fill:#C34628;}
	.st53{fill:none;stroke:#FFFFFF;stroke-width:2.2466;stroke-miterlimit:10;stroke-dasharray:3.7443;}
	.st54{clip-path:url(#SVGID_18_);fill:#98ABB7;}
	.st55{clip-path:url(#SVGID_18_);}
	.st56{fill:#421800;}
	.st57{fill:#ECCCB0;}
	.st58{fill:#B34FC5;}
	.st59{fill:#E3E8EE;}
	.st60{opacity:0.5;clip-path:url(#SVGID_18_);fill:#ECCCB0;}
	.st61{clip-path:url(#SVGID_20_);fill:#3EA1BD;}
	.st62{clip-path:url(#SVGID_20_);}
	.st63{fill:#A17561;}
	.st64{fill:#141720;}
	.st65{clip-path:url(#SVGID_20_);fill:#FFFFFF;}
	.st66{opacity:0.5;clip-path:url(#SVGID_20_);fill:#E8BD98;}
	.st67{clip-path:url(#SVGID_22_);}
	.st68{fill:#C55D3F;}
	.st69{clip-path:url(#SVGID_22_);fill:#E8BD98;}
	.st70{clip-path:url(#SVGID_22_);fill:#C7D4E2;}
	.st71{clip-path:url(#SVGID_22_);fill:#543E36;}
	.st72{clip-path:url(#SVGID_22_);fill:#1A1A1A;}
	.st73{fill:#435363;}
	.st74{opacity:0.5;clip-path:url(#SVGID_22_);fill:#E8BD98;}
	.st75{clip-path:url(#SVGID_24_);fill:#006F34;}
	.st76{clip-path:url(#SVGID_24_);}
	.st77{fill:#B3D033;}
	.st78{fill:#BD7E52;}
	.st79{fill:#B0B3B4;}
	.st80{fill:#8A8D8F;}
	.st81{fill:#D1D3D4;}
	.st82{fill:#787B7D;}
	.st83{fill:#B7BABB;}
	.st84{fill:#91A0A1;}
	.st85{fill:#BFC1C2;}
	.st86{fill:#313034;}
	.st87{fill:url(#SVGID_25_);}
	.st88{fill:#B9B9B9;}
	.st89{fill:#ACAEB0;}
	.st90{fill:#BBBDBE;}
	.st91{fill:#96989A;}
	.st92{fill:#CFD0D1;}
	.st93{fill:#5D5D5D;}
	.st94{fill:#B7B9BB;}
	.st95{fill:#919395;}
	.st96{fill:none;}
	.st97{fill-rule:evenodd;clip-rule:evenodd;fill:#CED0D1;}
	.st98{fill-rule:evenodd;clip-rule:evenodd;fill:#FFFFFF;}
	.st99{fill:url(#SVGID_26_);}
	.st100{fill:url(#SVGID_27_);}
	.st101{fill:#F3F3F3;}
	.st102{fill:#231F20;}
	.st103{fill:url(#SVGID_28_);}
	.st104{fill:url(#SVGID_29_);}
	.st105{fill:url(#SVGID_30_);}
	.st106{fill:url(#SVGID_31_);}
	.st107{fill:url(#SVGID_32_);}
	.st108{fill:url(#SVGID_33_);}
	.st109{fill:url(#SVGID_34_);}
	.st110{fill:url(#SVGID_35_);}
	.st111{fill:url(#SVGID_36_);}
	.st112{fill:url(#SVGID_37_);}
	.st113{fill:url(#SVGID_38_);}
	.st114{fill:url(#SVGID_39_);}
	.st115{fill:url(#SVGID_40_);}
	.st116{fill:url(#SVGID_41_);}
	.st117{fill:url(#SVGID_42_);}
	.st118{fill:url(#SVGID_43_);}
	.st119{opacity:0.8;}
	.st120{opacity:0.8;fill:#F3F3F3;}
	.st121{fill:none;stroke:#5D5D5D;stroke-width:3;stroke-linecap:round;stroke-miterlimit:10;}
	.st122{fill:none;stroke:#201F23;stroke-width:5;stroke-miterlimit:10;}
	.st123{fill:none;stroke:#201F23;stroke-width:4.2064;stroke-linecap:round;stroke-miterlimit:10;}
	.st124{fill:none;stroke:#201F23;stroke-miterlimit:10;}
	.st125{fill:#B9BBBC;}
	.st126{fill:#98999C;}
	.st127{fill:#B9BABC;}
	.st128{fill:#E2E2E3;}
	.st129{fill:#D1D1D2;}
	.st130{fill:#2E2D31;}
	.st131{fill:#1F1E21;}
	.st132{fill:#5D5C61;}
	.st133{fill:#4A4A4E;}
	.st134{fill:#88BD42;}
	.st135{opacity:0.6;}
	.st136{fill:#6A9742;}
	.st137{fill:#5F893B;}
	.st138{fill:none;stroke:#CFD0D1;stroke-width:4;stroke-linecap:round;stroke-miterlimit:10;}
	.st139{fill:#E09400;}
	.st140{fill:#F0EABC;}
	.st141{fill:#FFC843;}
	.st142{fill:#DDA070;}
	.st143{fill:none;stroke:#FFFFFF;stroke-width:4;stroke-linecap:round;stroke-miterlimit:10;}
	.st144{fill:none;stroke:#CFD0D1;stroke-width:2.5756;stroke-linecap:round;stroke-miterlimit:10;}
	.st145{fill:none;stroke:#FFFFFF;stroke-width:2.5756;stroke-linecap:round;stroke-miterlimit:10;}
	.st146{fill:#BCBDBE;}
	.st147{fill:#9C9EA0;}
	.st148{fill:#B3B5B6;}
	.st149{fill:#282828;}
</style>
<g id="Fondo">
</g>
<g id="Diseño">
	<g>
		<g>
			<path class="st1" d="M116.1,41.7c-42.6,0-77.2,34.6-77.2,77.2c0,42.6,34.6,77.2,77.2,77.2c42.6,0,77.2-34.6,77.2-77.2
				C193.3,76.2,158.7,41.7,116.1,41.7z M84,142.7c-1.2,3.5-3.2,10.9,2.2,19.8h-2.4c0,0-6.9-8.4-2.3-23.4
				c-19.8-71.4,82.3-51.8,82.3-51.8c-10.3,1.8-14.5,6.8-17.7,16.5c-1,3.1-2.1,6.2-3.3,9.3c-2.1,5.5-4.3,11-7.2,16.2
				c-6.9,12.5-17.3,21.1-32,21.1c-3.6,0-17.1-2-16.8-2.8c10.8-31.5,34-46.6,52.1-53.9C98.9,108,86.8,134.8,84,142.7z M46.7,118.9
				c0-36.4,28-66.2,63.6-69.1l0.6,8.6C79.8,61,55.3,87.1,55.3,118.9c0,8.3,1.7,16.3,4.7,23.5l-7.9,3.5
				C48.6,137.6,46.7,128.5,46.7,118.9z M116.1,188.2c-25,0-46.9-13.2-59.1-33l7.4-4.4c10.7,17.3,29.9,28.8,51.7,28.8
				c22,0,41.2-11.6,51.9-29.1l7.3,4.5C163.1,175,141.1,188.2,116.1,188.2z M172.2,142.2c3-7.2,4.6-15.1,4.6-23.3
				c0-32.1-24.9-58.4-56.5-60.6l0.5-8.6c36.1,2.4,64.7,32.5,64.7,69.2c0,9.5-1.9,18.6-5.4,26.9L172.2,142.2z"/>
			<path class="st1" d="M138.9,93.6c7.3-2.6,15.6-4.8,24.9-6.4C163.7,87.2,152.8,88.1,138.9,93.6z"/>
		</g>
		<circle class="st122" cx="116.1" cy="118.9" r="111"/>
		<path class="st123" d="M24.3,101.8c4.4-23.7,17.7-44.2,36.2-58"/>
		<path class="st123" d="M33.1,161.8c-4.6-8.9-7.8-18.6-9.4-28.8"/>
		<path class="st123" d="M208.4,133.4c-1.4,9.1-4.1,17.7-8,25.7"/>
		<path class="st123" d="M174.3,45.8C191,59.1,203,78,207.5,99.6"/>
		<g>
			<path class="st1" d="M77.6,28.6c-0.5-0.3-1.2-0.4-1.8-0.4c-0.7,0-1.3,0.1-1.8,0.4c-0.3,0.1-0.5,0.3-0.8,0.5
				c-0.2,0.2-0.4,0.4-0.6,0.6c-0.2,0.2-0.3,0.5-0.3,0.8c0,0.3,0,0.6,0.2,0.9c0.1,0.3,0.3,0.5,0.5,0.6c0.2,0.1,0.5,0.2,0.7,0.2
				c0.3,0,0.6,0,1,0c0.4,0,0.8-0.1,1.2-0.1c0.6-0.1,1.3-0.2,2-0.2c0.7-0.1,1.4,0,2.1,0.1c0.7,0.1,1.3,0.4,1.9,0.8
				c0.6,0.4,1.1,1,1.5,1.8c0.5,0.9,0.7,1.8,0.6,2.7c0,0.9-0.2,1.6-0.6,2.4c-0.4,0.7-0.9,1.4-1.5,2c-0.7,0.6-1.4,1.1-2.2,1.4
				c-1.2,0.6-2.4,0.9-3.7,1c-1.3,0.1-2.5,0-3.6-0.4l1.3-3.9c0.6,0.3,1.4,0.5,2.2,0.5c0.8,0,1.5-0.1,2.2-0.4c0.3-0.1,0.6-0.3,0.8-0.5
				c0.2-0.2,0.4-0.4,0.6-0.7c0.1-0.2,0.2-0.5,0.2-0.8c0-0.3-0.1-0.6-0.2-0.9c-0.1-0.3-0.4-0.5-0.6-0.7c-0.3-0.1-0.6-0.2-0.9-0.3
				c-0.4,0-0.8,0-1.3,0c-0.5,0.1-1.1,0.1-1.7,0.2c-0.6,0.1-1.2,0.1-1.8,0.1c-0.6,0-1.2-0.1-1.8-0.2c-0.6-0.2-1.1-0.5-1.6-0.9
				c-0.5-0.4-0.9-1-1.3-1.7c-0.4-0.9-0.6-1.8-0.6-2.6c0.1-0.8,0.3-1.6,0.7-2.3c0.4-0.7,0.9-1.3,1.6-1.9c0.7-0.6,1.4-1,2.2-1.4
				c0.9-0.4,2-0.7,3.1-0.8c1.1-0.1,2.2,0,3.3,0.3L77.6,28.6z"/>
			<path class="st1" d="M99.7,35.7l-2.3-3.1l-6.8,1.8l-0.4,3.8l-4.6,1.2l2.8-19.5l4.1-1.1l11.9,15.7L99.7,35.7z M91.7,24L91,30.7
				l4.4-1.1L91.7,24z"/>
			<path class="st1" d="M105.4,34.9l-1.8-18.1l4.4-0.4l1.8,18.1L105.4,34.9z"/>
			<path class="st1" d="M125.9,34.3c-1.2,0.5-2.6,0.7-4.1,0.6c-1.4-0.1-2.7-0.4-3.9-0.9c-1.2-0.5-2.2-1.2-3-2.1
				c-0.8-0.9-1.5-1.9-1.9-3.1c-0.4-1.2-0.6-2.5-0.6-3.9c0.1-1.5,0.4-2.8,0.9-3.9c0.6-1.2,1.3-2.1,2.2-2.9c0.9-0.8,2-1.4,3.2-1.8
				c1.2-0.4,2.5-0.6,3.9-0.5c1.3,0.1,2.5,0.3,3.8,0.9c1.2,0.5,2.2,1.2,2.9,2.1l-3.1,2.8c-0.4-0.6-0.9-1-1.6-1.3
				c-0.7-0.3-1.3-0.5-2-0.5c-0.8,0-1.5,0.1-2.1,0.3c-0.7,0.3-1.2,0.6-1.7,1.1c-0.5,0.5-0.9,1-1.2,1.7c-0.3,0.7-0.4,1.4-0.5,2.2
				c0,0.8,0.1,1.6,0.3,2.3c0.2,0.7,0.6,1.3,1,1.8c0.4,0.5,1,0.9,1.6,1.2c0.6,0.3,1.3,0.5,2.1,0.5c0.9,0,1.6-0.1,2.3-0.4
				c0.7-0.3,1.2-0.7,1.6-1.3l2.9,3C128.1,33.1,127.1,33.8,125.9,34.3z"/>
			<path class="st1" d="M150.2,31c-0.4,1.4-1,2.6-1.8,3.6c-0.8,1-1.7,1.8-2.8,2.4c-1.1,0.6-2.3,0.9-3.6,1.1c-1.3,0.1-2.6,0-4-0.4
				c-1.4-0.4-2.6-0.9-3.6-1.7c-1-0.8-1.9-1.7-2.5-2.7c-0.6-1.1-1-2.2-1.2-3.5c-0.2-1.3-0.1-2.6,0.3-4c0.4-1.4,1-2.6,1.8-3.6
				c0.8-1,1.7-1.8,2.8-2.3c1.1-0.6,2.2-0.9,3.5-1c1.3-0.1,2.6,0,4,0.4c1.4,0.4,2.6,0.9,3.6,1.7c1.1,0.8,1.9,1.6,2.5,2.7
				c0.6,1,1,2.2,1.2,3.4C150.7,28.3,150.6,29.6,150.2,31z M145.7,29.8c0.2-0.8,0.3-1.5,0.2-2.2c-0.1-0.7-0.3-1.4-0.6-2
				c-0.3-0.6-0.7-1.1-1.3-1.5c-0.5-0.4-1.2-0.8-1.9-1c-0.7-0.2-1.5-0.3-2.1-0.1c-0.7,0.1-1.3,0.3-1.9,0.7c-0.6,0.3-1.1,0.8-1.5,1.4
				c-0.4,0.6-0.7,1.3-0.9,2c-0.2,0.8-0.3,1.6-0.2,2.3c0.1,0.7,0.3,1.4,0.6,2c0.3,0.6,0.7,1.1,1.3,1.6c0.5,0.4,1.2,0.8,1.9,1
				c0.7,0.2,1.5,0.3,2.1,0.1c0.7-0.1,1.3-0.3,1.9-0.7c0.6-0.4,1.1-0.8,1.5-1.4C145.2,31.2,145.5,30.6,145.7,29.8z"/>
			<path class="st1" d="M158.1,45.5l-0.1-8.2l-1.3-0.7l-3.4,6.4l-3.8-2l8.5-16.1l6.1,3.3c0.8,0.4,1.5,0.9,2.1,1.4
				c0.6,0.5,1.2,1.2,1.5,1.9c0.4,0.7,0.6,1.4,0.6,2.2c0,0.8-0.2,1.7-0.7,2.6c-0.6,1.1-1.4,1.8-2.3,2.3c-1,0.4-2.1,0.5-3.3,0.3
				l0.5,9.1L158.1,45.5z M163.9,34.3c0.2-0.4,0.3-0.7,0.2-1c0-0.3-0.1-0.6-0.3-0.9c-0.2-0.3-0.4-0.5-0.7-0.7
				c-0.3-0.2-0.6-0.4-0.9-0.5l-2.1-1.1l-2,3.7l1.8,1c0.3,0.2,0.7,0.3,1,0.4c0.4,0.1,0.7,0.2,1.1,0.2c0.3,0,0.7-0.1,1-0.2
				C163.4,35,163.7,34.7,163.9,34.3z"/>
		</g>
		<g>
			<path class="st1" d="M34,178.4l7.3-10.6l1,1.4l-3.6,5.2c-1,1.4-1.9,2.7-2.8,3.8l0,0c1.3-0.6,2.9-1.1,4.5-1.7l6-2l1,1.3l-12.3,4
				L34,178.4z"/>
			<path class="st1" d="M47.6,185.5l-3.3-3.5l-3.2,3l3.6,3.9l-1,0.9l-4.7-5l8.9-8.4l4.5,4.8l-1,0.9l-3.4-3.7l-2.8,2.6l3.3,3.5
				L47.6,185.5z"/>
			<path class="st1" d="M55,183.5l-3.3,3.9l4.5,3.8l3.3-3.9l1.2,1l-7.9,9.3l-1.2-1l3.7-4.4l-4.5-3.8l-3.7,4.4l-1.2-1l7.9-9.3
				L55,183.5z"/>
			<path class="st1" d="M63.9,190.7l-7.1,9.9l-1.3-0.9l7.1-9.9L63.9,190.7z M67.1,189.5l-3.1,0.4l-1-0.8l2.6-0.7L67.1,189.5z"/>
			<path class="st1" d="M67,206.6c-0.6-0.1-1.8-0.4-3.1-1.2c-2.9-1.8-4-5-2-8.4c2-3.3,5.5-4.1,8.8-2.2c1.3,0.8,2,1.6,2.2,2l-1,0.9
				c-0.4-0.6-1-1.2-1.8-1.7c-2.4-1.5-5-0.9-6.7,1.8c-1.6,2.6-1.1,5.1,1.5,6.6c0.8,0.5,1.8,0.8,2.5,0.9L67,206.6z"/>
			<path class="st1" d="M75.9,197.8l-3,6.6c-1.1,2.5-0.5,4,1,4.7c1.6,0.8,3.2,0.1,4.3-2.3l3-6.6l1.5,0.7l-3,6.5
				c-1.6,3.4-4,4-6.4,2.9c-2.3-1-3.4-3.1-1.8-6.6l3-6.5L75.9,197.8z"/>
			<path class="st1" d="M84.8,201.7l1.5,0.5l-3.4,10.3l5,1.6l-0.4,1.3l-6.5-2.1L84.8,201.7z"/>
			<path class="st1" d="M100.7,212.1c-0.9,4.1-3.9,5.7-6.9,5.1c-3.2-0.7-4.8-3.6-4-7.2c0.8-3.8,3.7-5.7,6.9-5
				C99.9,205.6,101.5,208.5,100.7,212.1z M91.4,210.2c-0.6,2.5,0.3,5.1,2.7,5.7c2.4,0.5,4.3-1.4,4.9-4.1c0.5-2.4-0.2-5.1-2.7-5.7
				C93.8,205.6,92,207.6,91.4,210.2z"/>
			<path class="st1" d="M106.3,217c0.7,0.5,1.7,0.9,2.8,1c1.6,0.1,2.6-0.7,2.7-1.9c0.1-1.1-0.5-1.8-2.1-2.6c-1.9-0.8-3.1-1.9-3-3.7
				c0.1-1.9,1.8-3.2,4.2-3.1c1.2,0.1,2.1,0.4,2.7,0.8l-0.5,1.3c-0.4-0.2-1.2-0.7-2.3-0.7c-1.7-0.1-2.4,0.8-2.4,1.7
				c-0.1,1.1,0.6,1.7,2.3,2.5c2,0.9,3,2,2.9,3.8c-0.1,1.9-1.6,3.4-4.5,3.2c-1.2-0.1-2.4-0.5-3.1-1L106.3,217z"/>
			<path class="st1" d="M117.1,207.2l0.3,7.2c0.1,2.7,1.4,3.8,3,3.8c1.8-0.1,2.9-1.3,2.8-4L123,207l1.6-0.1l0.3,7.1
				c0.2,3.7-1.7,5.4-4.4,5.5c-2.5,0.1-4.4-1.2-4.6-5l-0.3-7.2L117.1,207.2z"/>
			<path class="st1" d="M128.1,216.8c0.8,0.3,1.8,0.5,2.9,0.4c1.6-0.2,2.4-1.2,2.2-2.4c-0.2-1.1-0.9-1.7-2.6-2.1
				c-2.1-0.4-3.5-1.2-3.7-2.9c-0.3-1.9,1.1-3.5,3.4-3.9c1.2-0.2,2.2,0,2.8,0.2l-0.2,1.3c-0.4-0.2-1.3-0.4-2.4-0.2
				c-1.6,0.3-2.1,1.3-2,2.2c0.2,1.1,1,1.6,2.8,2c2.2,0.5,3.4,1.3,3.6,3.1c0.3,1.9-0.8,3.7-3.7,4.1c-1.2,0.2-2.5,0-3.2-0.3
				L128.1,216.8z"/>
			<path class="st1" d="M137.8,205.9l-3.6,0.9l-0.3-1.3l8.8-2.2l0.3,1.3l-3.6,0.9l2.6,10.6l-1.5,0.4L137.8,205.9z"/>
			<path class="st1" d="M151.6,207l-4.5,1.6l1.5,4.1l5-1.8l0.4,1.2l-6.5,2.3l-4.1-11.5l6.2-2.2l0.4,1.2l-4.7,1.7l1.3,3.6l4.5-1.6
				L151.6,207z"/>
			<path class="st1" d="M156.7,211.1l-5.3-11l1.6-0.8l6.2,3.9c1.4,0.9,2.6,1.7,3.7,2.6l0,0c-0.8-1.4-1.5-2.7-2.4-4.4l-2.2-4.6
				l1.3-0.6l5.3,11l-1.4,0.7l-6.2-3.9c-1.4-0.9-2.7-1.8-3.8-2.7l0,0c0.8,1.3,1.4,2.7,2.3,4.5l2.3,4.7L156.7,211.1z"/>
			<path class="st1" d="M164.3,194.9l-3.1,2l-0.7-1.1l7.7-4.8l0.7,1.1l-3.2,2l5.8,9.2l-1.3,0.8L164.3,194.9z"/>
			<path class="st1" d="M174.4,196.6l1.3,3.8l-1.3,1l-4.1-12.2l1.5-1.2l10.7,7.2l-1.3,1l-3.4-2.3L174.4,196.6z M176.8,193.2
				l-3.1-2.1c-0.7-0.5-1.3-0.9-1.9-1.4l0,0c0.3,0.7,0.6,1.4,0.9,2.1l1.2,3.5L176.8,193.2z"/>
			<path class="st1" d="M176.1,184.7c0.4-0.6,1.1-1.4,1.9-2.2c1.1-1.1,2.1-1.6,3-1.7c0.8-0.1,1.6,0.2,2.2,0.9c0.8,0.9,1,2.1,0.4,3.4
				l0,0c1-0.6,2.7-0.8,3.9,0.5c0.7,0.8,1,1.6,0.9,2.5c-0.1,1.2-0.8,2.4-2.3,3.7c-0.8,0.8-1.4,1.3-1.9,1.6L176.1,184.7z M180.7,187.2
				l1-1c1.2-1.2,1.3-2.5,0.5-3.3c-1-1-2.2-0.7-3.3,0.4c-0.5,0.5-0.8,0.8-0.9,1L180.7,187.2z M184.8,191.5c0.3-0.2,0.6-0.5,1-0.9
				c1.2-1.1,1.9-2.6,0.6-3.9c-1.2-1.2-2.7-0.7-3.9,0.5l-0.9,0.9L184.8,191.5z"/>
			<path class="st1" d="M182.7,178l1-1.2l8.2,7.1l3.4-3.9l1,0.9L192,186L182.7,178z"/>
			<path class="st1" d="M196.9,170.4l-2.8,3.9l3.6,2.6l3.1-4.3l1.1,0.8l-4,5.6l-9.9-7.1l3.8-5.4l1.1,0.8l-2.9,4.1l3.1,2.2l2.8-3.9
				L196.9,170.4z"/>
		</g>
		<circle class="st1" cx="22.9" cy="116.6" r="4.1"/>
		<circle class="st1" cx="209.7" cy="116.6" r="4.1"/>
	</g>
</g>
<g id="Iconos">
</g>
</svg>
