<svg xmlns="http://www.w3.org/2000/svg" viewBox="0 0 150 150"><defs><style>.cls-1{fill:#504f54;}.cls-2{fill:#313034;}.cls-3{fill:#fff;}.cls-4{fill:#b2b5b6;}</style></defs><title>sello_taller-09</title><g id="INFO"><path class="cls-1" d="M71.06,76.73V5.18a69.64,69.64,0,0,0,0,138.93V107.73"/><path class="cls-2" d="M71.06,107.73v36.38a31.45,31.45,0,0,0,4.43.2A69.66,69.66,0,0,0,75.66,5a34.64,34.64,0,0,0-4.6.2V76.73"/><polygon class="cls-3" points="38.35 59.09 23.05 74.14 47.14 98.61 62.63 113.91 71.06 106.03 71.06 75.92 62.87 83.56 38.35 59.09"/><polygon class="cls-4" points="126.86 50.68 112.02 35.39 71.06 75.92 71.06 106.03 126.86 50.68"/></g></svg>