<svg xmlns="http://www.w3.org/2000/svg" viewBox="0 0 53.12 48.99"><defs><style>.cls-1{fill:#fff;}</style></defs><title>shopping-cart</title><g id="INFO"><path class="cls-1" d="M22.48,39.15a4.5,4.5,0,1,0,4.5,4.5A4.51,4.51,0,0,0,22.48,39.15Zm0,6.49a2,2,0,1,1,2-2A2,2,0,0,1,22.48,45.64Z"/><path class="cls-1" d="M38.27,39.15a4.5,4.5,0,1,0,4.5,4.5A4.51,4.51,0,0,0,38.27,39.15Zm0,6.49a2,2,0,1,1,2-2A2,2,0,0,1,38.27,45.64Z"/><path class="cls-1" d="M39.38,15.44h-18a1.26,1.26,0,0,0,0,2.51h18a1.26,1.26,0,0,0,0-2.51Z"/><path class="cls-1" d="M38.4,22H22.34a1.26,1.26,0,1,0,0,2.51H38.4a1.26,1.26,0,1,0,0-2.51Z"/><path class="cls-1" d="M51.64,9.84a2.5,2.5,0,0,0-1.95-.93H10.53L9.74,5.07a2.52,2.52,0,0,0-1.46-1.8L2.76.88a1.26,1.26,0,0,0-1,2.31l5.52,2.4,6.08,29.53a2.52,2.52,0,0,0,2.46,2H45.94a1.26,1.26,0,1,0,0-2.51H15.83L15.08,31H46.18a2.52,2.52,0,0,0,2.46-2l3.52-17.07A2.5,2.5,0,0,0,51.64,9.84ZM46.18,28.5H14.57L11.05,11.43H49.69Z"/></g></svg>