<?xml version="1.0" encoding="utf-8"?>
<!-- Generator: Adobe Illustrator 20.1.0, SVG Export Plug-In . SVG Version: 6.00 Build 0)  -->
<svg version="1.1" xmlns="http://www.w3.org/2000/svg" xmlns:xlink="http://www.w3.org/1999/xlink" x="0px" y="0px"
	 viewBox="0 0 265.7 266.9" style="enable-background:new 0 0 265.7 266.9;" xml:space="preserve">
<style type="text/css">
	.st0{clip-path:url(#SVGID_4_);}
	.st1{fill:#201F23;}
	.st2{fill:url(#SVGID_5_);}
	.st3{fill:#DBDCDD;}
	.st4{opacity:0.9;fill:#EAA330;}
	.st5{fill:#87BC42;}
	.st6{fill:#FFFFFF;}
	.st7{opacity:0.9;fill:#201F23;}
	.st8{opacity:0.7;fill:#201F23;}
	.st9{fill:url(#SVGID_6_);}
	.st10{fill:url(#SVGID_7_);}
	.st11{fill:url(#SVGID_8_);}
	.st12{fill:url(#SVGID_9_);}
	.st13{fill:url(#SVGID_10_);}
	.st14{fill:url(#SVGID_11_);}
	.st15{fill:none;stroke:#DBDCDD;stroke-width:3;stroke-linecap:round;stroke-miterlimit:10;}
	.st16{opacity:0.4;fill:#FFFFFF;}
	.st17{fill:none;stroke:#B9B9B9;stroke-width:12;stroke-linejoin:round;stroke-miterlimit:10;}
	.st18{fill:none;stroke:#6A9642;stroke-width:14;stroke-miterlimit:10;}
	.st19{fill:none;stroke:#FFFFFF;stroke-width:12;stroke-linejoin:round;stroke-miterlimit:10;}
	.st20{fill:url(#SVGID_12_);}
	.st21{fill:#6AAF42;}
	.st22{fill:none;stroke:#FFFFFF;stroke-width:2.0274;stroke-miterlimit:10;stroke-dasharray:3.379;}
	.st23{fill:none;stroke:#FFFFFF;stroke-width:2.0274;stroke-miterlimit:10;stroke-dasharray:7;}
	.st24{fill:url(#SVGID_13_);}
	.st25{fill:#6A9642;}
	.st26{fill:#504F54;}
	.st27{fill:none;stroke:#B9B9B9;stroke-width:12;stroke-miterlimit:10;}
	.st28{fill:#EAA330;}
	.st29{fill:#2D2C30;}
	.st30{fill:#CED0D1;}
	.st31{fill:#35903A;}
	.st32{fill:#CECFD0;}
	.st33{fill:#4E893F;}
	.st34{fill:#58595B;}
	.st35{fill:#272A2D;}
	.st36{fill:url(#SVGID_14_);}
	.st37{fill:none;stroke:#FFFFFF;stroke-miterlimit:10;}
	.st38{fill:#EEE0AD;}
	.st39{fill:#CDC297;}
	.st40{fill:#BEBFC5;}
	.st41{fill:#AAA9AF;}
	.st42{fill:#DADBDC;}
	.st43{fill:none;stroke:#FFFFFF;stroke-width:2.0274;stroke-miterlimit:10;}
	.st44{fill:none;stroke:#FFFFFF;stroke-width:2.0274;stroke-miterlimit:10;stroke-dasharray:7.054,7.054;}
	.st45{fill:#CDCFD0;}
	.st46{fill:#102D40;}
	.st47{fill:#264860;}
	.st48{clip-path:url(#SVGID_16_);}
	.st49{fill:#E8BD98;}
	.st50{fill:#E76D4A;}
	.st51{fill:#543E36;}
	.st52{fill:#C34628;}
	.st53{clip-path:url(#SVGID_18_);}
	.st54{fill:none;stroke:#FFFFFF;stroke-width:2.2466;stroke-miterlimit:10;stroke-dasharray:3.7443;}
	.st55{clip-path:url(#SVGID_20_);fill:#98ABB7;}
	.st56{clip-path:url(#SVGID_20_);}
	.st57{fill:#421800;}
	.st58{fill:#ECCCB0;}
	.st59{fill:#B34FC5;}
	.st60{fill:#E3E8EE;}
	.st61{opacity:0.5;clip-path:url(#SVGID_20_);fill:#ECCCB0;}
	.st62{clip-path:url(#SVGID_22_);fill:#3EA1BD;}
	.st63{clip-path:url(#SVGID_22_);}
	.st64{fill:#A17561;}
	.st65{fill:#141720;}
	.st66{clip-path:url(#SVGID_22_);fill:#FFFFFF;}
	.st67{opacity:0.5;clip-path:url(#SVGID_22_);fill:#E8BD98;}
	.st68{clip-path:url(#SVGID_24_);}
	.st69{fill:#C55D3F;}
	.st70{clip-path:url(#SVGID_24_);fill:#E8BD98;}
	.st71{clip-path:url(#SVGID_24_);fill:#C7D4E2;}
	.st72{clip-path:url(#SVGID_24_);fill:#543E36;}
	.st73{clip-path:url(#SVGID_24_);fill:#1A1A1A;}
	.st74{fill:#435363;}
	.st75{opacity:0.5;clip-path:url(#SVGID_24_);fill:#E8BD98;}
	.st76{clip-path:url(#SVGID_26_);fill:#98ABB7;}
	.st77{clip-path:url(#SVGID_26_);}
	.st78{opacity:0.5;clip-path:url(#SVGID_26_);fill:#ECCCB0;}
	.st79{clip-path:url(#SVGID_28_);fill:#3EA1BD;}
	.st80{clip-path:url(#SVGID_28_);}
	.st81{clip-path:url(#SVGID_28_);fill:#FFFFFF;}
	.st82{opacity:0.5;clip-path:url(#SVGID_28_);fill:#E8BD98;}
	.st83{clip-path:url(#SVGID_30_);}
	.st84{clip-path:url(#SVGID_30_);fill:#E8BD98;}
	.st85{clip-path:url(#SVGID_30_);fill:#C7D4E2;}
	.st86{clip-path:url(#SVGID_30_);fill:#543E36;}
	.st87{clip-path:url(#SVGID_30_);fill:#1A1A1A;}
	.st88{opacity:0.5;clip-path:url(#SVGID_30_);fill:#E8BD98;}
	.st89{clip-path:url(#SVGID_32_);fill:#006F34;}
	.st90{clip-path:url(#SVGID_32_);}
	.st91{fill:#B3D033;}
	.st92{fill:#BD7E52;}
	.st93{fill:#B0B3B4;}
	.st94{fill:#8A8D8F;}
	.st95{fill:#D1D3D4;}
	.st96{fill:#787B7D;}
	.st97{fill:#B7BABB;}
	.st98{fill:#91A0A1;}
	.st99{clip-path:url(#SVGID_34_);fill:#006F34;}
	.st100{clip-path:url(#SVGID_34_);}
	.st101{fill:#BFC1C2;}
	.st102{fill:#313034;}
	.st103{fill:url(#SVGID_35_);}
	.st104{fill:#B9B9B9;}
	.st105{fill:#ACAEB0;}
	.st106{fill:#BBBDBE;}
	.st107{fill:#96989A;}
	.st108{fill:#CFD0D1;}
	.st109{fill:#5D5D5D;}
	.st110{fill:#B7B9BB;}
	.st111{fill:#919395;}
	.st112{fill:none;}
	.st113{fill-rule:evenodd;clip-rule:evenodd;fill:#CED0D1;}
	.st114{fill-rule:evenodd;clip-rule:evenodd;fill:#FFFFFF;}
	.st115{fill:url(#SVGID_36_);}
	.st116{fill:url(#SVGID_37_);}
	.st117{fill:#F3F3F3;}
	.st118{fill:#231F20;}
	.st119{fill:url(#SVGID_38_);}
	.st120{fill:url(#SVGID_39_);}
	.st121{fill:url(#SVGID_40_);}
	.st122{fill:url(#SVGID_41_);}
	.st123{fill:url(#SVGID_42_);}
	.st124{fill:url(#SVGID_43_);}
	.st125{fill:url(#SVGID_44_);}
	.st126{fill:url(#SVGID_45_);}
	.st127{fill:url(#SVGID_46_);}
	.st128{fill:url(#SVGID_47_);}
	.st129{fill:url(#SVGID_48_);}
	.st130{fill:url(#SVGID_49_);}
	.st131{fill:url(#SVGID_50_);}
	.st132{fill:url(#SVGID_51_);}
	.st133{fill:url(#SVGID_52_);}
	.st134{fill:url(#SVGID_53_);}
	.st135{opacity:0.8;}
	.st136{opacity:0.8;fill:#F3F3F3;}
	.st137{fill:none;stroke:#5D5D5D;stroke-width:3;stroke-linecap:round;stroke-miterlimit:10;}
	.st138{fill:none;stroke:#201F23;stroke-width:5;stroke-miterlimit:10;}
	.st139{fill:none;stroke:#201F23;stroke-width:4.2064;stroke-linecap:round;stroke-miterlimit:10;}
	.st140{fill:none;stroke:#201F23;stroke-miterlimit:10;}
	.st141{fill:#B9BBBC;}
	.st142{fill:#98999C;}
	.st143{fill:#B9BABC;}
	.st144{fill:#E2E2E3;}
	.st145{fill:#D1D1D2;}
	.st146{fill:#2E2D31;}
	.st147{fill:#1F1E21;}
	.st148{fill:#5D5C61;}
	.st149{fill:#4A4A4E;}
	.st150{fill:#88BD42;}
	.st151{opacity:0.6;}
	.st152{fill:#6A9742;}
	.st153{fill:#5F893B;}
	.st154{fill:none;stroke:#CFD0D1;stroke-width:4;stroke-linecap:round;stroke-miterlimit:10;}
	.st155{fill:#E09400;}
	.st156{fill:#F0EABC;}
	.st157{fill:#FFC843;}
	.st158{fill:#DDA070;}
	.st159{fill:none;stroke:#FFFFFF;stroke-width:4;stroke-linecap:round;stroke-miterlimit:10;}
	.st160{fill:none;stroke:#CFD0D1;stroke-width:2.5756;stroke-linecap:round;stroke-miterlimit:10;}
	.st161{fill:none;stroke:#FFFFFF;stroke-width:2.5756;stroke-linecap:round;stroke-miterlimit:10;}
	.st162{fill:#BCBDBE;}
	.st163{fill:#9C9EA0;}
	.st164{fill:#B3B5B6;}
	.st165{fill:#282828;}
</style>
<g id="Fondo">
</g>
<g id="Diseño">
	<g>
		<g>
			<path class="st38" d="M5.8,133.4c0,69.6,56.3,126,125.8,126.4V7.1C62.1,7.4,5.8,63.8,5.8,133.4z"/>
			<path class="st39" d="M132.2,7.1c-0.2,0-0.4,0-0.6,0v252.7c0.2,0,0.4,0,0.6,0c69.8,0,126.4-56.6,126.4-126.4
				C258.6,63.7,202,7.1,132.2,7.1z"/>
		</g>
		<g>
			<path class="st40" d="M106.9,228.8c-0.2,0-0.4-0.2-0.4-0.4v-7.6c0-0.2,0.2-0.4,0.4-0.4h24.7v-2c0,0.2-0.2,0.4-0.4,0.4h-6.5
				c-0.2,0-0.4-0.2-0.4-0.4v-6.5c0-0.2,0.2-0.4,0.4-0.4h6.5c0.2,0,0.4,0.2,0.4,0.4v-2h-2.5c-0.2,0-0.4-0.2-0.4-0.4V203
				c0-0.2,0.2-0.4,0.4-0.4h2.5v-1l-0.8-0.6H127c-0.2,0-0.4-0.2-0.4-0.4v-2.8l-1.6-1.2v4c0,0.2-0.2,0.4-0.4,0.4H118
				c-0.2,0-0.4-0.2-0.4-0.4V194c0-0.2,0.2-0.4,0.4-0.4h3L119,192h-5.4c-0.2,0-0.4-0.2-0.4-0.4v-4l-1.6-1.2v5.2
				c0,0.2-0.2,0.4-0.4,0.4h-6.5c-0.2,0-0.4-0.2-0.4-0.4v-6.5c0-0.2,0.2-0.4,0.4-0.4h4.7l-5.6-4.2H66.9c-1,0-1.7,0.7-1.7,1.6v48.1
				c0,0.9,0.8,1.6,1.7,1.6h64.7v-3.1H106.9z M102.3,209.8c-0.2,0-0.4-0.2-0.4-0.4V203c0-0.2,0.2-0.4,0.4-0.4h6.5
				c0.2,0,0.4,0.2,0.4,0.4v6.5c0,0.2-0.2,0.4-0.4,0.4H102.3z M113.8,218.3c0,0.2-0.2,0.4-0.4,0.4h-6.5c-0.2,0-0.4-0.2-0.4-0.4v-6.5
				c0-0.2,0.2-0.4,0.4-0.4h6.5c0.2,0,0.4,0.2,0.4,0.4V218.3z M122.7,218.3c0,0.2-0.2,0.4-0.4,0.4h-6.5c-0.2,0-0.4-0.2-0.4-0.4v-6.5
				c0-0.2,0.2-0.4,0.4-0.4h6.5c0.2,0,0.4,0.2,0.4,0.4V218.3z M119.7,203c0-0.2,0.2-0.4,0.4-0.4h6.5c0.2,0,0.4,0.2,0.4,0.4v6.5
				c0,0.2-0.2,0.4-0.4,0.4h-6.5c-0.2,0-0.4-0.2-0.4-0.4V203z M117.7,202.5c0.2,0,0.4,0.2,0.4,0.4v6.5c0,0.2-0.2,0.4-0.4,0.4h-6.5
				c-0.2,0-0.4-0.2-0.4-0.4V203c0-0.2,0.2-0.4,0.4-0.4H117.7z M108.7,194c0-0.2,0.2-0.4,0.4-0.4h6.5c0.2,0,0.4,0.2,0.4,0.4v6.5
				c0,0.2-0.2,0.4-0.4,0.4h-6.5c-0.2,0-0.4-0.2-0.4-0.4V194z M106.7,193.6c0.2,0,0.4,0.2,0.4,0.4v6.5c0,0.2-0.2,0.4-0.4,0.4h-6.5
				c-0.2,0-0.4-0.2-0.4-0.4V194c0-0.2,0.2-0.4,0.4-0.4H106.7z M84.5,209.8c-0.2,0-0.4-0.2-0.4-0.4V203c0-0.2,0.2-0.4,0.4-0.4H91
				c0.2,0,0.4,0.2,0.4,0.4v6.5c0,0.2-0.2,0.4-0.4,0.4H84.5z M87,211.9v6.5c0,0.2-0.2,0.4-0.4,0.4h-6.5c-0.2,0-0.4-0.2-0.4-0.4v-6.5
				c0-0.2,0.2-0.4,0.4-0.4h6.5C86.9,211.4,87,211.6,87,211.9z M82.4,200.9c-0.2,0-0.4-0.2-0.4-0.4V194c0-0.2,0.2-0.4,0.4-0.4h6.5
				c0.2,0,0.4,0.2,0.4,0.4v6.5c0,0.2-0.2,0.4-0.4,0.4H82.4z M90.9,200.5V194c0-0.2,0.2-0.4,0.4-0.4h6.5c0.2,0,0.4,0.2,0.4,0.4v6.5
				c0,0.2-0.2,0.4-0.4,0.4h-6.5C91.1,200.9,90.9,200.8,90.9,200.5z M88.6,211.9c0-0.2,0.2-0.4,0.4-0.4h6.5c0.2,0,0.4,0.2,0.4,0.4
				v6.5c0,0.2-0.2,0.4-0.4,0.4h-6.5c-0.2,0-0.4-0.2-0.4-0.4V211.9z M93.4,209.8c-0.2,0-0.4-0.2-0.4-0.4V203c0-0.2,0.2-0.4,0.4-0.4
				h6.5c0.2,0,0.4,0.2,0.4,0.4v6.5c0,0.2-0.2,0.4-0.4,0.4H93.4z M95.3,185.1c0-0.2,0.2-0.4,0.4-0.4h6.5c0.2,0,0.4,0.2,0.4,0.4v6.5
				c0,0.2-0.2,0.4-0.4,0.4h-6.5c-0.2,0-0.4-0.2-0.4-0.4V185.1z M86.4,185.1c0-0.2,0.2-0.4,0.4-0.4h6.5c0.2,0,0.4,0.2,0.4,0.4v6.5
				c0,0.2-0.2,0.4-0.4,0.4h-6.5c-0.2,0-0.4-0.2-0.4-0.4V185.1z M77.5,185.1c0-0.2,0.2-0.4,0.4-0.4h6.5c0.2,0,0.4,0.2,0.4,0.4v6.5
				c0,0.2-0.2,0.4-0.4,0.4h-6.5c-0.2,0-0.4-0.2-0.4-0.4V185.1z M68.6,185.1c0-0.2,0.2-0.4,0.4-0.4h6.5c0.2,0,0.4,0.2,0.4,0.4v6.5
				c0,0.2-0.2,0.4-0.4,0.4H69c-0.2,0-0.4-0.2-0.4-0.4V185.1z M68.6,194c0-0.2,0.2-0.4,0.4-0.4h11c0.2,0,0.4,0.2,0.4,0.4v6.5
				c0,0.2-0.2,0.4-0.4,0.4H69c-0.2,0-0.4-0.2-0.4-0.4V194z M68.6,203c0-0.2,0.2-0.4,0.4-0.4h13.1c0.2,0,0.4,0.2,0.4,0.4v6.5
				c0,0.2-0.2,0.4-0.4,0.4H69c-0.2,0-0.4-0.2-0.4-0.4V203z M68.6,211.9c0-0.2,0.2-0.4,0.4-0.4h8.7c0.2,0,0.4,0.2,0.4,0.4v6.5
				c0,0.2-0.2,0.4-0.4,0.4H69c-0.2,0-0.4-0.2-0.4-0.4V211.9z M75.9,228.4c0,0.2-0.2,0.4-0.4,0.4H69c-0.2,0-0.4-0.2-0.4-0.4v-7.6
				c0-0.2,0.2-0.4,0.4-0.4h6.5c0.2,0,0.4,0.2,0.4,0.4V228.4z M84.8,228.4c0,0.2-0.2,0.4-0.4,0.4h-6.5c-0.2,0-0.4-0.2-0.4-0.4v-7.6
				c0-0.2,0.2-0.4,0.4-0.4h6.5c0.2,0,0.4,0.2,0.4,0.4V228.4z M93.7,228.4c0,0.2-0.2,0.4-0.4,0.4h-6.5c-0.2,0-0.4-0.2-0.4-0.4v-7.6
				c0-0.2,0.2-0.4,0.4-0.4h6.5c0.2,0,0.4,0.2,0.4,0.4V228.4z M104.9,228.4c0,0.2-0.2,0.4-0.4,0.4h-8.8c-0.2,0-0.4-0.2-0.4-0.4v-7.6
				c0-0.2,0.2-0.4,0.4-0.4h8.8c0.2,0,0.4,0.2,0.4,0.4V228.4z M104.9,218.3c0,0.2-0.2,0.4-0.4,0.4H98c-0.2,0-0.4-0.2-0.4-0.4v-6.5
				c0-0.2,0.2-0.4,0.4-0.4h6.5c0.2,0,0.4,0.2,0.4,0.4V218.3z"/>
			<path class="st41" d="M197.9,180.5h-66.3v4.2h6.2c0.2,0,0.4,0.2,0.4,0.4v6.5c0,0.2-0.2,0.4-0.4,0.4h-6.2v1.6h1.8
				c0.2,0,0.4,0.2,0.4,0.4v6.5c0,0.2-0.2,0.4-0.4,0.4h-1.8v0.6v1h1.3h2.7c0.2,0,0.4,0.2,0.4,0.4v1.9v4.6c0,0.2-0.2,0.4-0.4,0.4h-3.9
				v2v6.5v2H149c0.2,0,0.4,0.2,0.4,0.4v7.6c0,0.2-0.2,0.4-0.4,0.4h-17.4v3.1h40.1h26.3c1,0,1.7-0.7,1.7-1.6v-48.1
				C199.7,181.2,198.9,180.5,197.9,180.5z M144.8,200.9c-0.2,0-0.4-0.2-0.4-0.4V194c0-0.2,0.2-0.4,0.4-0.4h6.5
				c0.2,0,0.4,0.2,0.4,0.4v6.5c0,0.2-0.2,0.4-0.4,0.4H144.8z M144.9,203v6.5c0,0.2-0.2,0.4-0.4,0.4h-1.9H138c-0.2,0-0.4-0.2-0.4-0.4
				v-3.3V203c0-0.2,0.2-0.4,0.4-0.4h6.5C144.7,202.5,144.9,202.7,144.9,203z M146.5,203c0-0.2,0.2-0.4,0.4-0.4h6.5
				c0.2,0,0.4,0.2,0.4,0.4v6.5c0,0.2-0.2,0.4-0.4,0.4h-6.5c-0.2,0-0.4-0.2-0.4-0.4V203z M153.3,200.5V194c0-0.2,0.2-0.4,0.4-0.4h6.5
				c0.2,0,0.4,0.2,0.4,0.4v6.5c0,0.2-0.2,0.4-0.4,0.4h-6.5C153.5,200.9,153.3,200.8,153.3,200.5z M151,216.3v-4.4
				c0-0.2,0.2-0.4,0.4-0.4h6.5c0.2,0,0.4,0.2,0.4,0.4v6.5c0,0.2-0.2,0.4-0.4,0.4h-3.6h-2.9c-0.2,0-0.4-0.2-0.4-0.4V216.3z
				 M155.8,209.8c-0.2,0-0.4-0.2-0.4-0.4V203c0-0.2,0.2-0.4,0.4-0.4h6.5c0.2,0,0.4,0.2,0.4,0.4v6.5c0,0.2-0.2,0.4-0.4,0.4H155.8z
				 M162.2,200.5V194c0-0.2,0.2-0.4,0.4-0.4h6.5c0.2,0,0.4,0.2,0.4,0.4v6.5c0,0.2-0.2,0.4-0.4,0.4h-6.5
				C162.4,200.9,162.2,200.8,162.2,200.5z M159.9,211.9c0-0.2,0.2-0.4,0.4-0.4h6.5c0.2,0,0.4,0.2,0.4,0.4v6.5c0,0.2-0.2,0.4-0.4,0.4
				h-6.5c-0.2,0-0.4-0.2-0.4-0.4V211.9z M164.7,209.8c-0.2,0-0.4-0.2-0.4-0.4V203c0-0.2,0.2-0.4,0.4-0.4h6.5c0.2,0,0.4,0.2,0.4,0.4
				v6.5c0,0.2-0.2,0.4-0.4,0.4H164.7z M171.1,200.5V194c0-0.2,0.2-0.4,0.4-0.4h6.5c0.2,0,0.4,0.2,0.4,0.4v6.5c0,0.2-0.2,0.4-0.4,0.4
				h-6.5C171.3,200.9,171.1,200.8,171.1,200.5z M168.8,211.9c0-0.2,0.2-0.4,0.4-0.4h6.5c0.2,0,0.4,0.2,0.4,0.4v6.5
				c0,0.2-0.2,0.4-0.4,0.4h-6.5c-0.2,0-0.4-0.2-0.4-0.4V211.9z M173.6,209.8c-0.2,0-0.4-0.2-0.4-0.4V203c0-0.2,0.2-0.4,0.4-0.4h6.5
				c0.2,0,0.4,0.2,0.4,0.4v6.5c0,0.2-0.2,0.4-0.4,0.4H173.6z M187.3,200.5c0,0.2-0.2,0.4-0.4,0.4h-6.5c-0.2,0-0.4-0.2-0.4-0.4V194
				c0-0.2,0.2-0.4,0.4-0.4h6.5c0.2,0,0.4,0.2,0.4,0.4V200.5z M189,202.5c0.2,0,0.4,0.2,0.4,0.4v6.5c0,0.2-0.2,0.4-0.4,0.4h-6.5
				c-0.2,0-0.4-0.2-0.4-0.4V203c0-0.2,0.2-0.4,0.4-0.4H189z M177.8,211.9c0-0.2,0.2-0.4,0.4-0.4h17.6c0.2,0,0.4,0.2,0.4,0.4v6.5
				c0,0.2-0.2,0.4-0.4,0.4h-17.6c-0.2,0-0.4-0.2-0.4-0.4V211.9z M196.1,209.7c-0.1,0.1-0.2,0.1-0.3,0.1h-4.4c-0.1,0-0.2,0-0.3-0.1
				c-0.1-0.1-0.1-0.2-0.1-0.3v-8.5h-1.7c-0.1,0-0.2,0-0.3-0.1c-0.1-0.1-0.1-0.2-0.1-0.3V194c0-0.1,0-0.2,0.1-0.3
				c0.1-0.1,0.2-0.1,0.3-0.1h6.5c0.1,0,0.2,0,0.3,0.1c0.1,0.1,0.1,0.2,0.1,0.3v15.4C196.2,209.5,196.2,209.6,196.1,209.7z
				 M184.4,185.1c0-0.2,0.2-0.4,0.4-0.4h11c0.2,0,0.4,0.2,0.4,0.4v6.5c0,0.2-0.2,0.4-0.4,0.4h-11c-0.2,0-0.4-0.2-0.4-0.4V185.1z
				 M175.5,185.1c0-0.2,0.2-0.4,0.4-0.4h6.5c0.2,0,0.4,0.2,0.4,0.4v6.5c0,0.2-0.2,0.4-0.4,0.4h-6.5c-0.2,0-0.4-0.2-0.4-0.4V185.1z
				 M166.6,185.1c0-0.2,0.2-0.4,0.4-0.4h6.5c0.2,0,0.4,0.2,0.4,0.4v6.5c0,0.2-0.2,0.4-0.4,0.4H167c-0.2,0-0.4-0.2-0.4-0.4V185.1z
				 M157.7,185.1c0-0.2,0.2-0.4,0.4-0.4h6.5c0.2,0,0.4,0.2,0.4,0.4v6.5c0,0.2-0.2,0.4-0.4,0.4h-6.5c-0.2,0-0.4-0.2-0.4-0.4V185.1z
				 M148.8,185.1c0-0.2,0.2-0.4,0.4-0.4h6.5c0.2,0,0.4,0.2,0.4,0.4v6.5c0,0.2-0.2,0.4-0.4,0.4h-6.5c-0.2,0-0.4-0.2-0.4-0.4V185.1z
				 M139.9,185.1c0-0.2,0.2-0.4,0.4-0.4h6.5c0.2,0,0.4,0.2,0.4,0.4v6.5c0,0.2-0.2,0.4-0.4,0.4h-6.5c-0.2,0-0.4-0.2-0.4-0.4V185.1z
				 M135.9,200.9c-0.2,0-0.4-0.2-0.4-0.4V194c0-0.2,0.2-0.4,0.4-0.4h6.5c0.2,0,0.4,0.2,0.4,0.4v6.5c0,0.2-0.2,0.4-0.4,0.4H135.9z
				 M140.5,218.3c0,0.2-0.2,0.4-0.4,0.4h-6.5c-0.2,0-0.4-0.2-0.4-0.4v-6.5c0-0.2,0.2-0.4,0.4-0.4h6.5c0.2,0,0.4,0.2,0.4,0.4V218.3z
				 M149.4,215.1v3.3c0,0.2-0.2,0.4-0.4,0.4h-6.5c-0.2,0-0.4-0.2-0.4-0.4v-6.5c0-0.2,0.2-0.4,0.4-0.4h2.1h4.4c0.2,0,0.4,0.2,0.4,0.4
				V215.1z M160.7,223.6v4.8c0,0.2-0.2,0.4-0.4,0.4h-8.8c-0.2,0-0.4-0.2-0.4-0.4v-7.6c0-0.2,0.2-0.4,0.4-0.4h5h3.8
				c0.2,0,0.4,0.2,0.4,0.4V223.6z M169.6,228.4c0,0.2-0.2,0.4-0.4,0.4h-1.6h-4.9c-0.2,0-0.4-0.2-0.4-0.4v-3.6v-4
				c0-0.2,0.2-0.4,0.4-0.4h6.5c0.2,0,0.4,0.2,0.4,0.4V228.4z M178.5,228.4c0,0.2-0.2,0.4-0.4,0.4h-6.5c-0.2,0-0.4-0.2-0.4-0.4V225
				c0-0.2,0.2-0.4,0.4-0.4h6.5c0.2,0,0.4,0.2,0.4,0.4V228.4z M187.4,228.4c0,0.1,0,0.2-0.1,0.3c-0.1,0.1-0.2,0.1-0.3,0.1h-6.5
				c-0.1,0-0.2,0-0.3-0.1c-0.1-0.1-0.1-0.2-0.1-0.3v-3.6h7.3V228.4z M187.4,224.3h-7.3v-3.6c0-0.1,0-0.2,0.1-0.3
				c0.1-0.1,0.2-0.1,0.3-0.1h6.5c0.1,0,0.2,0,0.3,0.1c0.1,0.1,0.1,0.2,0.1,0.3V224.3z M196.3,228.4c0,0.2-0.2,0.4-0.4,0.4h-6.5
				c-0.2,0-0.4-0.2-0.4-0.4V225c0-0.2,0.2-0.4,0.4-0.4h6.5c0.2,0,0.4,0.2,0.4,0.4V228.4z"/>
			<polygon class="st40" points="131.6,201.6 131.6,200.9 130.8,200.9 			"/>
			<path class="st40" d="M111.1,184.7c0.2,0,0.4,0.2,0.4,0.4v1.3l1.6,1.2v-2.5c0-0.2,0.2-0.4,0.4-0.4h6.5c0.2,0,0.4,0.2,0.4,0.4v6.5
				c0,0.2-0.2,0.4-0.4,0.4h-1l2.1,1.6h3.4c0.2,0,0.4,0.2,0.4,0.4v2.5l1.6,1.2V194c0-0.2,0.2-0.4,0.4-0.4h4.6V192h-0.2
				c-0.2,0-0.4-0.2-0.4-0.4v-6.5c0-0.2,0.2-0.4,0.4-0.4h0.2v-4.2h-27.9l5.6,4.2H111.1z M122,185.1c0-0.2,0.2-0.4,0.4-0.4h6.5
				c0.2,0,0.4,0.2,0.4,0.4v6.5c0,0.2-0.2,0.4-0.4,0.4h-6.5c-0.2,0-0.4-0.2-0.4-0.4V185.1z"/>
			<path class="st6" d="M69,192h6.5c0.2,0,0.4-0.2,0.4-0.4v-6.5c0-0.2-0.2-0.4-0.4-0.4H69c-0.2,0-0.4,0.2-0.4,0.4v6.5
				C68.6,191.8,68.8,192,69,192z"/>
			<path class="st6" d="M89.3,200.5V194c0-0.2-0.2-0.4-0.4-0.4h-6.5c-0.2,0-0.4,0.2-0.4,0.4v6.5c0,0.2,0.2,0.4,0.4,0.4h6.5
				C89.1,200.9,89.3,200.8,89.3,200.5z"/>
			<path class="st6" d="M91.4,209.4V203c0-0.2-0.2-0.4-0.4-0.4h-6.5c-0.2,0-0.4,0.2-0.4,0.4v6.5c0,0.2,0.2,0.4,0.4,0.4H91
				C91.2,209.8,91.4,209.7,91.4,209.4z"/>
			<path class="st6" d="M80.1,211.4c-0.2,0-0.4,0.2-0.4,0.4v6.5c0,0.2,0.2,0.4,0.4,0.4h6.5c0.2,0,0.4-0.2,0.4-0.4v-6.5
				c0-0.2-0.2-0.4-0.4-0.4H80.1z"/>
			<path class="st6" d="M75.5,220.4H69c-0.2,0-0.4,0.2-0.4,0.4v7.6c0,0.2,0.2,0.4,0.4,0.4h6.5c0.2,0,0.4-0.2,0.4-0.4v-7.6
				C75.9,220.5,75.7,220.4,75.5,220.4z"/>
			<path class="st6" d="M84.3,220.4h-6.5c-0.2,0-0.4,0.2-0.4,0.4v7.6c0,0.2,0.2,0.4,0.4,0.4h6.5c0.2,0,0.4-0.2,0.4-0.4v-7.6
				C84.8,220.5,84.6,220.4,84.3,220.4z"/>
			<path class="st6" d="M93.2,220.4h-6.5c-0.2,0-0.4,0.2-0.4,0.4v7.6c0,0.2,0.2,0.4,0.4,0.4h6.5c0.2,0,0.4-0.2,0.4-0.4v-7.6
				C93.7,220.5,93.5,220.4,93.2,220.4z"/>
			<path class="st6" d="M162.7,228.8h4.9l-5.3-4v3.6C162.3,228.6,162.4,228.8,162.7,228.8z"/>
			<path class="st6" d="M169.1,228.8c0.2,0,0.4-0.2,0.4-0.4v-7.6c0-0.2-0.2-0.4-0.4-0.4h-6.5c-0.2,0-0.4,0.2-0.4,0.4v4l5.3,4H169.1z
				"/>
			<path class="st6" d="M178.1,224.6h-6.5c-0.2,0-0.4,0.2-0.4,0.4v3.4c0,0.2,0.2,0.4,0.4,0.4h6.5c0.2,0,0.4-0.2,0.4-0.4V225
				C178.5,224.8,178.3,224.6,178.1,224.6z"/>
			<path class="st6" d="M195.9,224.6h-6.5c-0.2,0-0.4,0.2-0.4,0.4v3.4c0,0.2,0.2,0.4,0.4,0.4h6.5c0.2,0,0.4-0.2,0.4-0.4V225
				C196.3,224.8,196.1,224.6,195.9,224.6z"/>
			<path class="st6" d="M104.4,220.4h-8.8c-0.2,0-0.4,0.2-0.4,0.4v7.6c0,0.2,0.2,0.4,0.4,0.4h8.8c0.2,0,0.4-0.2,0.4-0.4v-7.6
				C104.9,220.5,104.7,220.4,104.4,220.4z"/>
			<path class="st42" d="M151,220.8v7.6c0,0.2,0.2,0.4,0.4,0.4h8.8c0.2,0,0.4-0.2,0.4-0.4v-4.8l-4.2-3.2h-5
				C151.2,220.4,151,220.5,151,220.8z"/>
			<path class="st6" d="M160.7,220.8c0-0.2-0.2-0.4-0.4-0.4h-3.8l4.2,3.2V220.8z"/>
			<path class="st6" d="M106.5,220.8v7.6c0,0.2,0.2,0.4,0.4,0.4h24.7v-8.4h-24.7C106.7,220.4,106.5,220.5,106.5,220.8z"/>
			<path class="st6" d="M149,228.8c0.2,0,0.4-0.2,0.4-0.4v-7.6c0-0.2-0.2-0.4-0.4-0.4h-17.4v8.4H149z"/>
			<path class="st6" d="M89.1,218.8h6.5c0.2,0,0.4-0.2,0.4-0.4v-6.5c0-0.2-0.2-0.4-0.4-0.4h-6.5c-0.2,0-0.4,0.2-0.4,0.4v6.5
				C88.6,218.6,88.8,218.8,89.1,218.8z"/>
			<path class="st6" d="M104.4,211.4H98c-0.2,0-0.4,0.2-0.4,0.4v6.5c0,0.2,0.2,0.4,0.4,0.4h6.5c0.2,0,0.4-0.2,0.4-0.4v-6.5
				C104.9,211.6,104.7,211.4,104.4,211.4z"/>
			<path class="st6" d="M113.4,211.4h-6.5c-0.2,0-0.4,0.2-0.4,0.4v6.5c0,0.2,0.2,0.4,0.4,0.4h6.5c0.2,0,0.4-0.2,0.4-0.4v-6.5
				C113.8,211.6,113.6,211.4,113.4,211.4z"/>
			<path class="st6" d="M122.3,211.4h-6.5c-0.2,0-0.4,0.2-0.4,0.4v6.5c0,0.2,0.2,0.4,0.4,0.4h6.5c0.2,0,0.4-0.2,0.4-0.4v-6.5
				C122.7,211.6,122.5,211.4,122.3,211.4z"/>
			<path class="st6" d="M131.2,211.4h-6.5c-0.2,0-0.4,0.2-0.4,0.4v6.5c0,0.2,0.2,0.4,0.4,0.4h6.5c0.2,0,0.4-0.2,0.4-0.4v-6.5
				C131.6,211.6,131.4,211.4,131.2,211.4z"/>
			<path class="st42" d="M140.1,211.4h-6.5c-0.2,0-0.4,0.2-0.4,0.4v6.5c0,0.2,0.2,0.4,0.4,0.4h6.5c0.2,0,0.4-0.2,0.4-0.4v-6.5
				C140.5,211.6,140.3,211.4,140.1,211.4z"/>
			<path class="st42" d="M149,211.4h-4.4h-2.1c-0.2,0-0.4,0.2-0.4,0.4v6.5c0,0.2,0.2,0.4,0.4,0.4h6.5c0.2,0,0.4-0.2,0.4-0.4v-3.3
				v-3.2C149.4,211.6,149.2,211.4,149,211.4z"/>
			<path class="st42" d="M157.9,211.4h-6.5c-0.2,0-0.4,0.2-0.4,0.4v4.4v2.1c0,0.2,0.2,0.4,0.4,0.4h2.9h3.6c0.2,0,0.4-0.2,0.4-0.4
				v-6.5C158.3,211.6,158.1,211.4,157.9,211.4z"/>
			<path class="st6" d="M166.8,211.4h-6.5c-0.2,0-0.4,0.2-0.4,0.4v6.5c0,0.2,0.2,0.4,0.4,0.4h6.5c0.2,0,0.4-0.2,0.4-0.4v-6.5
				C167.2,211.6,167.1,211.4,166.8,211.4z"/>
			<path class="st6" d="M176.2,218.3v-6.5c0-0.2-0.2-0.4-0.4-0.4h-6.5c-0.2,0-0.4,0.2-0.4,0.4v6.5c0,0.2,0.2,0.4,0.4,0.4h6.5
				C176,218.8,176.2,218.6,176.2,218.3z"/>
			<path class="st6" d="M178.2,218.8h17.6c0.2,0,0.4-0.2,0.4-0.4v-6.5c0-0.2-0.2-0.4-0.4-0.4h-17.6c-0.2,0-0.4,0.2-0.4,0.4v6.5
				C177.8,218.6,177.9,218.8,178.2,218.8z"/>
			<path class="st6" d="M100.3,209.4V203c0-0.2-0.2-0.4-0.4-0.4h-6.5c-0.2,0-0.4,0.2-0.4,0.4v6.5c0,0.2,0.2,0.4,0.4,0.4h6.5
				C100.1,209.8,100.3,209.7,100.3,209.4z"/>
			<path class="st6" d="M109.2,209.4V203c0-0.2-0.2-0.4-0.4-0.4h-6.5c-0.2,0-0.4,0.2-0.4,0.4v6.5c0,0.2,0.2,0.4,0.4,0.4h6.5
				C109,209.8,109.2,209.7,109.2,209.4z"/>
			<path class="st6" d="M110.8,203v6.5c0,0.2,0.2,0.4,0.4,0.4h6.5c0.2,0,0.4-0.2,0.4-0.4V203c0-0.2-0.2-0.4-0.4-0.4h-6.5
				C111,202.5,110.8,202.7,110.8,203z"/>
			<path class="st6" d="M120.2,209.8h6.5c0.2,0,0.4-0.2,0.4-0.4V203c0-0.2-0.2-0.4-0.4-0.4h-6.5c-0.2,0-0.4,0.2-0.4,0.4v6.5
				C119.7,209.7,119.9,209.8,120.2,209.8z"/>
			<path class="st6" d="M129.1,202.5c-0.2,0-0.4,0.2-0.4,0.4v6.5c0,0.2,0.2,0.4,0.4,0.4h2.5v-7.3H129.1z"/>
			<path class="st42" d="M135.5,202.5h-2.7h-1.3v7.3h3.9c0.2,0,0.4-0.2,0.4-0.4v-4.6V203C136,202.7,135.8,202.5,135.5,202.5z"/>
			<path class="st42" d="M144.5,202.5H138c-0.2,0-0.4,0.2-0.4,0.4v3.1v3.3c0,0.2,0.2,0.4,0.4,0.4h4.6h1.9c0.2,0,0.4-0.2,0.4-0.4V203
				C144.9,202.7,144.7,202.5,144.5,202.5z"/>
			<path class="st42" d="M153.4,202.5h-6.5c-0.2,0-0.4,0.2-0.4,0.4v6.5c0,0.2,0.2,0.4,0.4,0.4h6.5c0.2,0,0.4-0.2,0.4-0.4V203
				C153.8,202.7,153.6,202.5,153.4,202.5z"/>
			<path class="st42" d="M162.7,209.4V203c0-0.2-0.2-0.4-0.4-0.4h-6.5c-0.2,0-0.4,0.2-0.4,0.4v6.5c0,0.2,0.2,0.4,0.4,0.4h6.5
				C162.5,209.8,162.7,209.7,162.7,209.4z"/>
			<path class="st6" d="M164.7,209.8h6.5c0.2,0,0.4-0.2,0.4-0.4V203c0-0.2-0.2-0.4-0.4-0.4h-6.5c-0.2,0-0.4,0.2-0.4,0.4v6.5
				C164.3,209.7,164.5,209.8,164.7,209.8z"/>
			<path class="st6" d="M173.6,209.8h6.5c0.2,0,0.4-0.2,0.4-0.4V203c0-0.2-0.2-0.4-0.4-0.4h-6.5c-0.2,0-0.4,0.2-0.4,0.4v6.5
				C173.2,209.7,173.4,209.8,173.6,209.8z"/>
			<path class="st6" d="M182.1,203v6.5c0,0.2,0.2,0.4,0.4,0.4h6.5c0.2,0,0.4-0.2,0.4-0.4V203c0-0.2-0.2-0.4-0.4-0.4h-6.5
				C182.3,202.5,182.1,202.7,182.1,203z"/>
			<path class="st6" d="M91.3,200.9h6.5c0.2,0,0.4-0.2,0.4-0.4V194c0-0.2-0.2-0.4-0.4-0.4h-6.5c-0.2,0-0.4,0.2-0.4,0.4v6.5
				C90.9,200.8,91.1,200.9,91.3,200.9z"/>
			<path class="st6" d="M99.8,194v6.5c0,0.2,0.2,0.4,0.4,0.4h6.5c0.2,0,0.4-0.2,0.4-0.4V194c0-0.2-0.2-0.4-0.4-0.4h-6.5
				C100,193.6,99.8,193.8,99.8,194z"/>
			<path class="st6" d="M109.1,200.9h6.5c0.2,0,0.4-0.2,0.4-0.4V194c0-0.2-0.2-0.4-0.4-0.4h-6.5c-0.2,0-0.4,0.2-0.4,0.4v6.5
				C108.7,200.8,108.9,200.9,109.1,200.9z"/>
			<path class="st6" d="M118,193.6c-0.2,0-0.4,0.2-0.4,0.4v6.5c0,0.2,0.2,0.4,0.4,0.4h6.5c0.2,0,0.4-0.2,0.4-0.4v-4l-3.8-2.9H118z"
				/>
			<path class="st6" d="M124.5,193.6h-3.4l3.8,2.9V194C124.9,193.8,124.7,193.6,124.5,193.6z"/>
			<path class="st6" d="M126.5,200.5c0,0.2,0.2,0.4,0.4,0.4h3.8l-4.2-3.2V200.5z"/>
			<path class="st42" d="M133.4,200.9c0.2,0,0.4-0.2,0.4-0.4V194c0-0.2-0.2-0.4-0.4-0.4h-1.8v7.3H133.4z"/>
			<path class="st6" d="M126.5,194v3.7l4.2,3.2h0.8v-7.3H127C126.7,193.6,126.5,193.8,126.5,194z"/>
			<path class="st42" d="M142.3,193.6h-6.5c-0.2,0-0.4,0.2-0.4,0.4v6.5c0,0.2,0.2,0.4,0.4,0.4h6.5c0.2,0,0.4-0.2,0.4-0.4V194
				C142.8,193.8,142.6,193.6,142.3,193.6z"/>
			<path class="st42" d="M151.7,200.5V194c0-0.2-0.2-0.4-0.4-0.4h-6.5c-0.2,0-0.4,0.2-0.4,0.4v6.5c0,0.2,0.2,0.4,0.4,0.4h6.5
				C151.5,200.9,151.7,200.8,151.7,200.5z"/>
			<path class="st42" d="M153.7,193.6c-0.2,0-0.4,0.2-0.4,0.4v6.5c0,0.2,0.2,0.4,0.4,0.4h6.5c0.2,0,0.4-0.2,0.4-0.4V194
				c0-0.2-0.2-0.4-0.4-0.4H153.7z"/>
			<path class="st42" d="M169.5,200.5V194c0-0.2-0.2-0.4-0.4-0.4h-6.5c-0.2,0-0.4,0.2-0.4,0.4v6.5c0,0.2,0.2,0.4,0.4,0.4h6.5
				C169.3,200.9,169.5,200.8,169.5,200.5z"/>
			<path class="st42" d="M178.4,200.5V194c0-0.2-0.2-0.4-0.4-0.4h-6.5c-0.2,0-0.4,0.2-0.4,0.4v6.5c0,0.2,0.2,0.4,0.4,0.4h6.5
				C178.2,200.9,178.4,200.8,178.4,200.5z"/>
			<path class="st6" d="M186.9,193.6h-6.5c-0.2,0-0.4,0.2-0.4,0.4v6.5c0,0.2,0.2,0.4,0.4,0.4h6.5c0.2,0,0.4-0.2,0.4-0.4V194
				C187.3,193.8,187.1,193.6,186.9,193.6z"/>
			<path class="st6" d="M69,200.9h11c0.2,0,0.4-0.2,0.4-0.4V194c0-0.2-0.2-0.4-0.4-0.4H69c-0.2,0-0.4,0.2-0.4,0.4v6.5
				C68.6,200.8,68.8,200.9,69,200.9z"/>
			<path class="st6" d="M184.8,192h11c0.2,0,0.4-0.2,0.4-0.4v-6.5c0-0.2-0.2-0.4-0.4-0.4h-11c-0.2,0-0.4,0.2-0.4,0.4v6.5
				C184.4,191.8,184.6,192,184.8,192z"/>
			<path class="st6" d="M69,209.8h13.1c0.2,0,0.4-0.2,0.4-0.4V203c0-0.2-0.2-0.4-0.4-0.4H69c-0.2,0-0.4,0.2-0.4,0.4v6.5
				C68.6,209.7,68.8,209.8,69,209.8z"/>
			<path class="st6" d="M69,218.8h8.7c0.2,0,0.4-0.2,0.4-0.4v-6.5c0-0.2-0.2-0.4-0.4-0.4H69c-0.2,0-0.4,0.2-0.4,0.4v6.5
				C68.6,218.6,68.8,218.8,69,218.8z"/>
			<path class="st6" d="M77.9,192h6.5c0.2,0,0.4-0.2,0.4-0.4v-6.5c0-0.2-0.2-0.4-0.4-0.4h-6.5c-0.2,0-0.4,0.2-0.4,0.4v6.5
				C77.5,191.8,77.7,192,77.9,192z"/>
			<path class="st6" d="M86.8,192h6.5c0.2,0,0.4-0.2,0.4-0.4v-6.5c0-0.2-0.2-0.4-0.4-0.4h-6.5c-0.2,0-0.4,0.2-0.4,0.4v6.5
				C86.4,191.8,86.6,192,86.8,192z"/>
			<path class="st6" d="M95.7,192h6.5c0.2,0,0.4-0.2,0.4-0.4v-6.5c0-0.2-0.2-0.4-0.4-0.4h-6.5c-0.2,0-0.4,0.2-0.4,0.4v6.5
				C95.3,191.8,95.5,192,95.7,192z"/>
			<path class="st6" d="M104.6,184.7c-0.2,0-0.4,0.2-0.4,0.4v6.5c0,0.2,0.2,0.4,0.4,0.4h6.5c0.2,0,0.4-0.2,0.4-0.4v-5.2l-2.2-1.7
				H104.6z"/>
			<path class="st6" d="M111.1,184.7h-1.8l2.2,1.7v-1.3C111.5,184.9,111.3,184.7,111.1,184.7z"/>
			<path class="st6" d="M113.1,191.6c0,0.2,0.2,0.4,0.4,0.4h5.4l-5.9-4.4V191.6z"/>
			<path class="st6" d="M120.4,191.6v-6.5c0-0.2-0.2-0.4-0.4-0.4h-6.5c-0.2,0-0.4,0.2-0.4,0.4v2.5l5.9,4.4h1
				C120.2,192,120.4,191.8,120.4,191.6z"/>
			<path class="st6" d="M122.5,192h6.5c0.2,0,0.4-0.2,0.4-0.4v-6.5c0-0.2-0.2-0.4-0.4-0.4h-6.5c-0.2,0-0.4,0.2-0.4,0.4v6.5
				C122,191.8,122.2,192,122.5,192z"/>
			<path class="st42" d="M137.8,192c0.2,0,0.4-0.2,0.4-0.4v-6.5c0-0.2-0.2-0.4-0.4-0.4h-6.2v7.3H137.8z"/>
			<path class="st6" d="M130.9,185.1v6.5c0,0.2,0.2,0.4,0.4,0.4h0.2v-7.3h-0.2C131.1,184.7,130.9,184.9,130.9,185.1z"/>
			<path class="st42" d="M140.3,192h6.5c0.2,0,0.4-0.2,0.4-0.4v-6.5c0-0.2-0.2-0.4-0.4-0.4h-6.5c-0.2,0-0.4,0.2-0.4,0.4v6.5
				C139.9,191.8,140,192,140.3,192z"/>
			<path class="st42" d="M149.2,192h6.5c0.2,0,0.4-0.2,0.4-0.4v-6.5c0-0.2-0.2-0.4-0.4-0.4h-6.5c-0.2,0-0.4,0.2-0.4,0.4v6.5
				C148.8,191.8,149,192,149.2,192z"/>
			<path class="st42" d="M158.1,192h6.5c0.2,0,0.4-0.2,0.4-0.4v-6.5c0-0.2-0.2-0.4-0.4-0.4h-6.5c-0.2,0-0.4,0.2-0.4,0.4v6.5
				C157.7,191.8,157.9,192,158.1,192z"/>
			<path class="st42" d="M167,192h6.5c0.2,0,0.4-0.2,0.4-0.4v-6.5c0-0.2-0.2-0.4-0.4-0.4H167c-0.2,0-0.4,0.2-0.4,0.4v6.5
				C166.6,191.8,166.8,192,167,192z"/>
			<path class="st42" d="M175.9,192h6.5c0.2,0,0.4-0.2,0.4-0.4v-6.5c0-0.2-0.2-0.4-0.4-0.4h-6.5c-0.2,0-0.4,0.2-0.4,0.4v6.5
				C175.5,191.8,175.7,192,175.9,192z"/>
			<path class="st6" d="M180.1,228.4c0,0.1,0,0.2,0.1,0.3c0.1,0.1,0.2,0.1,0.3,0.1h6.5c0.1,0,0.2,0,0.3-0.1c0.1-0.1,0.1-0.2,0.1-0.3
				v-3.6h-7.3V228.4z"/>
			<path class="st6" d="M187,220.4h-6.5c-0.1,0-0.2,0-0.3,0.1c-0.1,0.1-0.1,0.2-0.1,0.3v3.6h7.3v-3.6c0-0.1,0-0.2-0.1-0.3
				C187.2,220.4,187.1,220.4,187,220.4z"/>
			<path class="st6" d="M196.2,194c0-0.1,0-0.2-0.1-0.3c-0.1-0.1-0.2-0.1-0.3-0.1h-6.5c-0.1,0-0.2,0-0.3,0.1
				c-0.1,0.1-0.1,0.2-0.1,0.3v6.5c0,0.1,0,0.2,0.1,0.3c0.1,0.1,0.2,0.1,0.3,0.1h1.7v8.5c0,0.1,0,0.2,0.1,0.3
				c0.1,0.1,0.2,0.1,0.3,0.1h4.4c0.1,0,0.2,0,0.3-0.1c0.1-0.1,0.1-0.2,0.1-0.3V194z"/>
		</g>
		<g id="screen_1_">
			<g>
				<path class="st41" d="M115.8,146.6c-1.5,6.2-3,12.4-4.5,18.5c14.1,0,28.2,0,42.3,0c-1.5-6.2-3-12.4-4.5-18.5
					C138,146.6,126.9,146.6,115.8,146.6z"/>
				<path class="st40" d="M132.2,165.1c7.1,0,14.3,0,21.4,0c-1.5-6.2-3-12.4-4.5-18.5c-5.6,0-11.2,0-16.9,0V165.1z"/>
				<path class="st6" d="M156.2,164.8h-47.5c-1.2,0-2.2,1.1-2.2,2.6v1h51.9v-1C158.4,165.9,157.4,164.8,156.2,164.8z"/>
				<g>
					<path class="st6" d="M60.9,139.3v10.2c0,2,1.6,3.6,3.6,3.6h67.7v-13.8H60.9z"/>
					<path class="st45" d="M132.2,153.1h68.2c2,0,3.6-1.6,3.6-3.6v-10.2h-71.7V153.1z"/>
					<path class="st46" d="M200.4,49.3h-68.2v5.6h65.9v78.6h-65.9v5.9h71.7V52.9C203.9,50.9,202.3,49.3,200.4,49.3z"/>
					<path class="st47" d="M132.2,133.4H66.8V54.9h65.4v-5.6H64.5c-2,0-3.6,1.6-3.6,3.6v86.5h71.2V133.4z"/>
					<rect x="66.8" y="54.9" class="st3" width="65.4" height="78.6"/>
					<rect x="132.2" y="54.9" class="st40" width="65.9" height="78.6"/>
				</g>
			</g>
		</g>
		<g>
			<defs>
				<circle id="SVGID_17_" cx="132.2" cy="133.4" r="126.4"/>
			</defs>
			<clipPath id="SVGID_2_">
				<use xlink:href="#SVGID_17_"  style="overflow:visible;"/>
			</clipPath>
			<g style="clip-path:url(#SVGID_2_);">
				<g>
					<path class="st49" d="M160.4,115.6v24.3c0,0.4,0,0.7,0,1.1c0,0.3,0,0.6,0,0.9c0,0.3,0,0.5,0,0.8c0,0.2,0,0.4,0,0.6
						c0,0.1,0,0.2,0,0.3c0,0.2,0,0.4,0.1,0.6c0,0.4,0.1,0.8,0.1,1.1c0,0.1,0,0.2,0,0.3c0,0.2,0.1,0.4,0.1,0.6v0
						c0,0.3,0.1,0.6,0.1,0.8c0.1,0.4,0.1,0.8,0.2,1.1c0,0,0,0,0,0c0,0.1,0,0.1,0,0.2c0,0,0,0,0,0c0,0.2,0.1,0.4,0.1,0.6
						c0,0.1,0,0.2,0.1,0.3c0,0.1,0.1,0.3,0.1,0.4c0,0.1,0,0.2,0.1,0.2c0,0.1,0,0.1,0.1,0.2c0.2,0.7,0.4,1.3,0.6,1.9
						c0.1,0.3,0.2,0.6,0.3,0.9c0,0,0,0.1,0,0.1c0.1,0.3,0.2,0.5,0.3,0.8c0,0.1,0.1,0.2,0.1,0.2c0.1,0.3,0.2,0.5,0.3,0.8
						c0.1,0.3,0.2,0.6,0.4,0.9c0.1,0.3,0.2,0.5,0.4,0.8c0,0,0,0.1,0.1,0.1c0.1,0.3,0.3,0.6,0.4,0.9c0.1,0.3,0.3,0.6,0.4,0.9
						c0.3,0.6,0.6,1.2,0.9,1.7l0.4,0.8c1.2,2.1,2.6,4.1,4.1,5.9c0.2,0.3,0.4,0.5,0.6,0.8c0.3,0.4,0.6,0.7,0.9,1.1
						c0.3,0.3,0.5,0.6,0.8,0.9c0.8,0.8,1.6,1.6,2.4,2.3c0.2,0.2,0.3,0.3,0.5,0.5c0.3,0.2,0.5,0.5,0.8,0.7c0.2,0.2,0.4,0.4,0.7,0.6
						c0.6,0.5,1.2,0.9,1.7,1.4c0.2,0.2,0.5,0.4,0.7,0.5c0.4,0.3,0.8,0.6,1.2,0.8c0.2,0.2,0.5,0.3,0.7,0.4c0.8,0.5,1.6,1,2.5,1.4
						c0.2,0.1,0.4,0.2,0.6,0.3c0.2,0.1,0.4,0.2,0.6,0.3c0.3,0.1,0.5,0.2,0.8,0.3c0.1,0,0.2,0.1,0.3,0.1c0.3,0.1,0.6,0.2,0.9,0.4
						c0.4,0.1,0.8,0.3,1.2,0.4c0.3,0.1,0.6,0.2,0.8,0.2c0,0,0,0,0.1,0c0.3,0.1,0.5,0.1,0.8,0.2c0.1,0,0.1,0,0.2,0
						c0.2,0,0.4,0.1,0.7,0.1c0.3,0,0.6,0.1,1,0.1c0.1,0,0.2,0,0.3,0c0.3,0,0.5,0,0.8,0h0c0.2,0,0.5,0,0.7,0c0.1,0,0.2,0,0.3,0
						c0.2,0,0.5,0,0.7-0.1c0,0,0.1,0,0.2,0c0.3,0,0.6-0.1,0.9-0.1c0.3,0,0.5-0.1,0.8-0.2c1.4-0.3,2.8-0.8,4.2-1.4
						c1.2-0.5,2.4-1.2,3.7-1.9c0.6-0.4,1.2-0.8,1.8-1.2c0.3-0.2,0.6-0.4,0.9-0.7c1-0.7,1.9-1.5,2.8-2.3c0.3-0.2,0.5-0.5,0.8-0.7
						c0.3-0.2,0.5-0.5,0.8-0.7c0.6-0.6,1.2-1.2,1.8-1.9c0.2-0.2,0.5-0.5,0.7-0.8c0.6-0.7,1.3-1.5,1.9-2.2c0.2-0.3,0.5-0.6,0.7-0.9
						c0.8-1.1,1.6-2.2,2.3-3.4c0.2-0.3,0.4-0.6,0.6-0.9c0.2-0.4,0.4-0.8,0.7-1.1c0.8-1.4,1.5-2.9,2.2-4.5c0.1-0.2,0.2-0.4,0.3-0.7
						c0.1-0.3,0.2-0.6,0.3-0.9c0.2-0.4,0.3-0.8,0.5-1.3c0.1-0.4,0.3-0.9,0.4-1.3c0.1-0.4,0.2-0.8,0.4-1.3c0.1-0.4,0.2-0.9,0.4-1.4
						c0,0,0-0.1,0-0.1c0.2-0.6,0.3-1.3,0.4-1.9c0.2-0.9,0.3-1.7,0.4-2.6c0-0.3,0.1-0.6,0.1-0.8c0-0.3,0.1-0.6,0.1-0.9
						c0-0.5,0.1-1.1,0.1-1.6c0-0.4,0-0.7,0-1.1v-24.3c0-18-14.6-32.5-32.5-32.6h0c-2.5,0-4.9,0.3-7.2,0.8c-2.1,0.5-4.2,1.2-6.1,2
						c-2.6,1.2-5.1,2.7-7.3,4.5c-1.9,1.5-3.5,3.2-5,5.1c-4.3,5.5-6.9,12.3-6.9,19.8C160.4,115.4,160.4,115.5,160.4,115.6z"/>
					<path class="st49" d="M150.5,265.7L150.5,265.7l84.8,0v0c0-4.8-0.8-44.4-2.3-48.7c-0.3-0.8-0.6-1.5-0.9-2.3v0
						c-0.3-0.8-0.6-1.5-1-2.2c-1.4-3-3.1-5.7-5.2-8.2c-0.5-0.6-1-1.2-1.6-1.8c-0.3-0.3-0.5-0.6-0.8-0.9c-0.3-0.3-0.6-0.6-0.8-0.9
						c-1.4-1.4-3-2.7-4.6-4c-0.8-0.6-1.6-1.2-2.5-1.7c-0.8-0.5-1.7-1-2.6-1.5c0,0,0,0,0,0c-0.3-0.2-0.7-0.4-1-0.6
						c-1-0.6-2-1.3-2.9-2c-3.9-3.1-6.9-7.2-8.6-11.9c-1-2.8-1.6-5.9-1.6-9.1l-6.2,0l-6.4,0c0,3.1-0.5,6.2-1.5,9
						c-1.7,4.8-4.7,8.9-8.5,12c-0.6,0.5-1.2,0.9-1.8,1.3c-0.1,0-0.1,0.1-0.2,0.1c-0.3,0.2-0.6,0.4-0.9,0.6c-0.3,0.2-0.7,0.4-1,0.6
						c-0.1,0-0.1,0-0.1,0.1c-0.7,0.4-1.4,0.8-2.1,1.2c-0.3,0.2-0.7,0.4-1,0.6c-0.7,0.4-1.3,0.9-1.9,1.4c0,0,0,0,0,0h0
						c-0.8,0.6-1.6,1.2-2.4,1.9c-0.8,0.7-1.5,1.3-2.2,2.1C155.3,208.3,150.5,254,150.5,265.7z"/>
					<path class="st50" d="M150.5,265.7h84.8c0-4.8,0.5-39-2.3-48.7c-0.2-0.8-0.6-1.5-0.9-2.3v0c-0.3-0.8-0.6-1.5-1-2.2
						c-1.4-3-3.1-5.7-5.2-8.2c-0.5-0.6-1-1.2-1.6-1.8c-0.3-0.3-0.5-0.6-0.8-0.9c-0.3-0.3-0.6-0.6-0.8-0.9c-1.4-1.4-3-2.7-4.6-4
						c-0.8-0.6-1.6-1.2-2.5-1.7c-0.4-0.3-0.9-0.6-1.3-0.8c-0.4-0.2-0.8-0.5-1.3-0.7c0,0,0,0,0,0v0c-0.3-0.2-0.7-0.4-1-0.6
						c-1-0.6-2-1.3-2.9-2c0,0,0,0,0,0c-4.1,4.2-9.9,6.9-16.3,6.9h-0.1c-6.4,0-12.2-2.6-16.3-6.9l0,0c-0.6,0.5-1.2,0.9-1.8,1.3
						c-0.1,0-0.1,0.1-0.2,0.1c-0.3,0.2-0.6,0.4-0.9,0.6c-0.3,0.2-0.7,0.4-1,0.6c-0.1,0-0.1,0-0.1,0.1c-0.4,0.2-0.8,0.4-1.1,0.6
						c-0.3,0.2-0.6,0.4-1,0.6c-0.3,0.2-0.7,0.4-1,0.6c-0.7,0.4-1.3,0.9-1.9,1.4h0c-0.8,0.6-1.6,1.2-2.4,1.9
						c-0.8,0.7-1.5,1.4-2.2,2.1C148,214,150.5,253.9,150.5,265.7z"/>
					<path class="st51" d="M160.4,139.9c0,0.4,0,0.7,0,1.1c0,0.3,0,0.6,0,0.9c0,0.3,0,0.5,0,0.8c0,0.2,0,0.4,0,0.6
						c0,0.1,0,0.2,0,0.3c0,0.2,0,0.4,0.1,0.6c0,0.4,0.1,0.8,0.1,1.1c0,0.1,0,0.2,0,0.3c0,0.2,0.1,0.4,0.1,0.6c0,0.3,0.1,0.6,0.1,0.9
						c0.1,0.3,0.1,0.7,0.2,1c0,0.1,0,0.1,0,0.2c0,0.1,0,0.1,0,0.2c0,0,0,0,0,0c0,0,0,0.1,0,0.1c0,0.2,0.1,0.3,0.1,0.5
						c0,0.1,0,0.2,0.1,0.3c0,0.2,0.1,0.3,0.1,0.5c0,0.1,0,0.1,0,0.2c0,0.1,0,0.1,0.1,0.2c0.2,0.7,0.4,1.3,0.6,1.9
						c0.1,0.3,0.2,0.6,0.3,0.9c0,0,0,0.1,0,0.1c0.1,0.3,0.2,0.5,0.3,0.8c0,0.1,0.1,0.2,0.1,0.2c0.1,0.3,0.2,0.5,0.3,0.8
						c0.1,0.3,0.2,0.6,0.4,0.9c0.1,0.3,0.2,0.5,0.4,0.8c0,0,0,0.1,0.1,0.1c0.1,0.3,0.3,0.6,0.4,0.9c0.1,0.3,0.3,0.6,0.4,0.9
						c0.3,0.6,0.6,1.2,0.9,1.7l0.4,0.8c1.2,2.1,2.6,4.1,4.1,5.9c0.2,0.3,0.4,0.5,0.6,0.8c0.3,0.4,0.6,0.7,0.9,1.1
						c0.3,0.3,0.5,0.6,0.8,0.9c0.8,0.8,1.6,1.6,2.4,2.3c0.2,0.2,0.3,0.3,0.5,0.5c0.3,0.2,0.5,0.5,0.8,0.7c0.2,0.2,0.4,0.4,0.7,0.6
						c0.6,0.5,1.2,0.9,1.7,1.4c0.2,0.2,0.5,0.4,0.7,0.5c0.4,0.3,0.8,0.6,1.2,0.8c0.2,0.2,0.5,0.3,0.7,0.4c0.8,0.5,1.6,1,2.5,1.4
						c0.2,0.1,0.4,0.2,0.6,0.3c0.2,0.1,0.4,0.2,0.6,0.3c0.3,0.1,0.5,0.2,0.8,0.3c0.1,0,0.2,0.1,0.3,0.1c0.3,0.1,0.6,0.2,0.9,0.4
						c0.4,0.1,0.8,0.3,1.2,0.4c0.3,0.1,0.6,0.2,0.8,0.2c0,0,0,0,0.1,0c0.3,0.1,0.5,0.1,0.8,0.2c0.1,0,0.1,0,0.2,0
						c0.2,0,0.4,0.1,0.7,0.1c0.3,0,0.6,0.1,1,0.1c0.1,0,0.2,0,0.3,0c0.3,0,0.5,0,0.8,0h0c0.2,0,0.5,0,0.7,0c0.1,0,0.2,0,0.3,0
						c0.2,0,0.5,0,0.7-0.1c0,0,0.1,0,0.2,0c0.3,0,0.6-0.1,0.9-0.1c0.3,0,0.5-0.1,0.8-0.2c1.4-0.3,2.8-0.8,4.2-1.4
						c1.2-0.5,2.4-1.2,3.7-1.9c0.6-0.4,1.2-0.8,1.8-1.2c0.3-0.2,0.6-0.4,0.9-0.7c1-0.7,1.9-1.5,2.8-2.3c0.3-0.2,0.5-0.5,0.8-0.7
						c0.3-0.2,0.5-0.5,0.8-0.7c0.6-0.6,1.2-1.2,1.8-1.9c0.2-0.2,0.5-0.5,0.7-0.8c0.6-0.7,1.3-1.5,1.9-2.2c0.2-0.3,0.5-0.6,0.7-0.9
						c0.8-1.1,1.6-2.2,2.3-3.4c0.2-0.3,0.4-0.6,0.6-0.9c0.2-0.4,0.4-0.8,0.7-1.1c0.8-1.4,1.5-2.9,2.2-4.5c0.1-0.2,0.2-0.4,0.3-0.7
						c0.1-0.3,0.2-0.6,0.3-0.9c0.2-0.4,0.3-0.8,0.5-1.3c0.1-0.4,0.3-0.9,0.4-1.3c0.1-0.4,0.2-0.8,0.4-1.3c0.1-0.4,0.2-0.9,0.4-1.4
						c0,0,0-0.1,0-0.1c0.2-0.6,0.3-1.3,0.4-1.9c0.2-0.9,0.3-1.7,0.4-2.6c0-0.3,0.1-0.6,0.1-0.8c0-0.3,0.1-0.6,0.1-0.9
						c0-0.5,0.1-1.1,0.1-1.6c0-0.4,0-0.7,0-1.1l-5.2,10.2l-8.9,3.9l-10.6,1h0l-7.8,0.7h0l-7.3,0.7c0,0,0,0,0,0l-16.3,1.5
						L160.4,139.9z"/>
					<g>
						<path class="st51" d="M192.9,145l0,7.9v0l0,2.8v2.2l0,7.2v0l0,0h0l0,0l31.5-16c0,0,0-0.1,0-0.1c0.2-0.6,0.3-1.3,0.4-1.9
							c0.2-0.9,0.3-1.7,0.4-2.6c0-0.3,0.1-0.6,0.1-0.8c0-0.3,0.1-0.6,0.1-0.9c0-0.5,0.1-1.1,0.1-1.6c0-0.4,0-0.7,0-1.1v-9.6
							c0,0.1,0,0.3,0,0.4c-0.1,2.3-0.4,4.9-1.1,7.5c-0.6,2-1.2,3.8-2,5.5v0c-2.1,4.4-4.9,7.3-7.5,7.8c-0.2,0-0.3,0-0.5,0.1
							c-1,0.1-2,0.2-3.1,0.2c-4.1,0-7.7-3.3-10-4.6c0,0,0,0,0,0c-0.1-0.1-0.2-0.1-0.3-0.2c0,0-0.1,0-0.1-0.1
							C198.8,145.7,196.1,145,192.9,145L192.9,145z"/>
						<path class="st51" d="M160.4,130.3l0,9.6c0,2.4,0.2,4.8,0.6,7c0.2,0.9,0.4,1.8,0.6,2.7l7.4,10.7l23.9,4.7h0l0,0v0l0-20h-0.1
							c-3.1,0-5.9,0.7-7.8,1.8c0,0-0.1,0-0.1,0.1c-0.1,0.1-0.2,0.1-0.4,0.2c0,0,0,0,0,0c-2.3,1.3-5.9,4.6-10,4.6
							c-1.1,0-2.1-0.1-3.1-0.2c-0.2,0-0.3,0-0.5-0.1c-2.6-0.5-5.4-3.4-7.5-7.8v0c-0.8-1.6-1.5-3.5-2-5.5c-0.7-2.6-1.1-5.2-1.1-7.6
							C160.4,130.5,160.4,130.4,160.4,130.3z"/>
					</g>
					<ellipse class="st49" cx="193" cy="155.4" rx="8" ry="2.5"/>
					<path class="st51" d="M193,83L193,83c18,0,32.6,14.6,32.6,32.6v14.4c0,0-1.3-8.6-5-12.7c-3.9-4.5-3-11.4-11.8-11.4
						c-5.7,0-6,2.1-15.7,2.1h0h0h0c-9.7,0-10-2.1-15.7-2.1c-8.9,0-7.9,6.9-11.8,11.4c-3.6,4.2-5,12.7-5,12.7v-14.4
						C160.4,97.6,175,83,193,83z"/>
					<g>
						<path style="fill:#AA482E;" d="M171.5,194.1l0.9,0.9c5.5,5.6,12.8,8.7,20.6,8.7c7.9,0,15.2-3.1,20.7-8.7l0.8-0.9
							c-0.4-0.2-0.8-0.5-1.3-0.7c0,0,0,0,0,0v0c-0.3-0.2-0.7-0.4-1-0.6c-1-0.6-2-1.3-2.9-2c0,0,0,0,0,0c-4.1,4.2-9.9,6.9-16.3,6.9
							h-0.1c-6.4,0-12.2-2.6-16.3-6.9l0,0c-0.6,0.5-1.2,0.9-1.8,1.3c-0.1,0-0.1,0.1-0.2,0.1c-0.3,0.2-0.6,0.4-0.9,0.6
							c-0.3,0.2-0.7,0.4-1,0.6c-0.1,0-0.1,0-0.1,0.1C172.2,193.7,171.8,193.9,171.5,194.1z"/>
					</g>
				</g>
			</g>
		</g>
	</g>
</g>
<g id="Iconos">
</g>
</svg>
