<svg xmlns="http://www.w3.org/2000/svg" viewBox="0 0 232.18 237.71"><defs><style>.cls-1{fill:#fff;}.cls-2{fill:#d0d1d2;}.cls-3{fill:#6a9842;}.cls-4{fill:#89be42;}.cls-5{fill:#5f8a3b;}.cls-11,.cls-6{fill:none;stroke-linecap:round;stroke-miterlimit:10;stroke-width:4px;}.cls-6{stroke:#d0d1d2;}.cls-7{fill:#e19500;}.cls-8{fill:#f1ebbd;}.cls-9{fill:#ffc943;}.cls-10{fill:#dea170;}.cls-11{stroke:#fff;}</style></defs><title>soft</title><g id="Iconos"><path class="cls-1" d="M2.85,118.93A113.15,113.15,0,0,0,115.73,232.46V5.4A113.15,113.15,0,0,0,2.85,118.93Z"/><path class="cls-2" d="M116.3,5.39h-.57V232.46h.57a113.54,113.54,0,0,0,0-227.08Z"/><path class="cls-3" d="M152.59,45H115.73V192h47.14a9,9,0,0,0,8.86-9V63.51Z"/><path class="cls-4" d="M115.73,192H68.26a8.73,8.73,0,0,1-8.53-9V53.23c0-4.86,3.67-8.19,8.53-8.19h47.47V192"/><path class="cls-5" d="M152,54.89a9.44,9.44,0,0,0,9.33,9l10.28,0L151.92,44.61Z"/><line class="cls-6" x1="114.88" y1="157.37" x2="145.35" y2="157.37"/><path class="cls-7" d="M151.65,157.57l42.25-42.25,1-1a5.66,5.66,0,0,0,0-8l-1.48-1.48a5.6,5.6,0,0,0-7.92,0l-1,1L142.2,148.12Z"/><polygon class="cls-8" points="189.44 119.78 179.99 110.33 184.72 105.61 194.16 115.05 189.44 119.78"/><polygon class="cls-9" points="150.07 149.7 145.35 144.97 176.84 113.48 181.57 118.2 150.07 149.7"/><polygon class="cls-10" points="139.05 151.27 148.5 160.72 131.96 167.8 139.05 151.27"/><polygon class="cls-8" points="148.5 160.72 139.05 151.27 142.2 148.12 151.65 157.57 148.5 160.72"/><rect class="cls-1" x="72.93" y="79.96" width="15.37" height="15.37"/><rect class="cls-1" x="72.93" y="103.2" width="15.37" height="15.37"/><rect class="cls-1" x="72.93" y="126.56" width="15.37" height="15.37"/><rect class="cls-1" x="72.93" y="149.88" width="15.37" height="15.37"/><line class="cls-6" x1="114.88" y1="87.65" x2="145.35" y2="87.65"/><line class="cls-11" x1="93.59" y1="87.65" x2="114.88" y2="87.65"/><line class="cls-6" x1="114.88" y1="110.89" x2="145.35" y2="110.89"/><line class="cls-11" x1="93.59" y1="110.89" x2="114.88" y2="110.89"/><line class="cls-6" x1="114.88" y1="134.13" x2="145.35" y2="134.13"/><line class="cls-11" x1="93.59" y1="134.13" x2="114.88" y2="134.13"/><line class="cls-11" x1="93.59" y1="157.37" x2="114.88" y2="157.37"/></g></svg>