<?xml version="1.0" encoding="utf-8"?>
<!-- Generator: Adobe Illustrator 20.1.0, SVG Export Plug-In . SVG Version: 6.00 Build 0)  -->
<svg version="1.1" xmlns="http://www.w3.org/2000/svg" xmlns:xlink="http://www.w3.org/1999/xlink" x="0px" y="0px"
	 viewBox="0 0 518 532.5" style="enable-background:new 0 0 518 532.5;" xml:space="preserve">
<style type="text/css">
	.st0{clip-path:url(#SVGID_4_);}
	.st1{fill:#201F23;}
	.st2{fill:url(#SVGID_5_);}
	.st3{fill:#DBDCDD;}
	.st4{opacity:0.9;fill:#EAA330;}
	.st5{fill:#87BC42;}
	.st6{fill:#FFFFFF;}
	.st7{opacity:0.9;fill:#201F23;}
	.st8{opacity:0.7;fill:#201F23;}
	.st9{fill:url(#SVGID_6_);}
	.st10{fill:url(#SVGID_7_);}
	.st11{fill:url(#SVGID_8_);}
	.st12{fill:url(#SVGID_9_);}
	.st13{fill:url(#SVGID_10_);}
	.st14{fill:url(#SVGID_11_);}
	.st15{fill:none;stroke:#DBDCDD;stroke-width:3;stroke-linecap:round;stroke-miterlimit:10;}
	.st16{opacity:0.4;fill:#FFFFFF;}
	.st17{fill:none;stroke:#B9B9B9;stroke-width:12;stroke-linejoin:round;stroke-miterlimit:10;}
	.st18{fill:none;stroke:#6A9642;stroke-width:14;stroke-miterlimit:10;}
	.st19{fill:none;stroke:#FFFFFF;stroke-width:12;stroke-linejoin:round;stroke-miterlimit:10;}
	.st20{fill:url(#SVGID_12_);}
	.st21{fill:#6AAF42;}
	.st22{fill:none;stroke:#FFFFFF;stroke-width:2.0274;stroke-miterlimit:10;stroke-dasharray:3.379;}
	.st23{fill:none;stroke:#FFFFFF;stroke-width:2.0274;stroke-miterlimit:10;stroke-dasharray:7;}
	.st24{fill:url(#SVGID_13_);}
	.st25{fill:#6A9642;}
	.st26{fill:#504F54;}
	.st27{fill:none;stroke:#B9B9B9;stroke-width:12;stroke-miterlimit:10;}
	.st28{fill:#EAA330;}
	.st29{fill:#2D2C30;}
	.st30{fill:#CED0D1;}
	.st31{fill:#35903A;}
	.st32{fill:#CECFD0;}
	.st33{fill:#4E893F;}
	.st34{fill:#58595B;}
	.st35{fill:#272A2D;}
	.st36{fill:url(#SVGID_14_);}
	.st37{fill:none;stroke:#FFFFFF;stroke-miterlimit:10;}
	.st38{fill:#EEE0AD;}
	.st39{fill:#CDC297;}
	.st40{fill:#BEBFC5;}
	.st41{fill:#AAA9AF;}
	.st42{fill:#DADBDC;}
	.st43{fill:none;stroke:#FFFFFF;stroke-width:2.0274;stroke-miterlimit:10;}
	.st44{fill:none;stroke:#FFFFFF;stroke-width:2.0274;stroke-miterlimit:10;stroke-dasharray:7.054,7.054;}
	.st45{fill:#CDCFD0;}
	.st46{fill:#102D40;}
	.st47{fill:#264860;}
	.st48{clip-path:url(#SVGID_16_);}
	.st49{fill:#E8BD98;}
	.st50{fill:#E76D4A;}
	.st51{fill:#543E36;}
	.st52{fill:#C34628;}
	.st53{clip-path:url(#SVGID_18_);}
	.st54{fill:none;stroke:#FFFFFF;stroke-width:2.2466;stroke-miterlimit:10;stroke-dasharray:3.7443;}
	.st55{clip-path:url(#SVGID_20_);fill:#98ABB7;}
	.st56{clip-path:url(#SVGID_20_);}
	.st57{fill:#421800;}
	.st58{fill:#ECCCB0;}
	.st59{fill:#B34FC5;}
	.st60{fill:#E3E8EE;}
	.st61{opacity:0.5;clip-path:url(#SVGID_20_);fill:#ECCCB0;}
	.st62{clip-path:url(#SVGID_22_);fill:#3EA1BD;}
	.st63{clip-path:url(#SVGID_22_);}
	.st64{fill:#A17561;}
	.st65{fill:#141720;}
	.st66{clip-path:url(#SVGID_22_);fill:#FFFFFF;}
	.st67{opacity:0.5;clip-path:url(#SVGID_22_);fill:#E8BD98;}
	.st68{clip-path:url(#SVGID_24_);}
	.st69{fill:#C55D3F;}
	.st70{clip-path:url(#SVGID_24_);fill:#E8BD98;}
	.st71{clip-path:url(#SVGID_24_);fill:#C7D4E2;}
	.st72{clip-path:url(#SVGID_24_);fill:#543E36;}
	.st73{clip-path:url(#SVGID_24_);fill:#1A1A1A;}
	.st74{fill:#435363;}
	.st75{opacity:0.5;clip-path:url(#SVGID_24_);fill:#E8BD98;}
	.st76{clip-path:url(#SVGID_26_);fill:#98ABB7;}
	.st77{clip-path:url(#SVGID_26_);}
	.st78{opacity:0.5;clip-path:url(#SVGID_26_);fill:#ECCCB0;}
	.st79{clip-path:url(#SVGID_28_);fill:#3EA1BD;}
	.st80{clip-path:url(#SVGID_28_);}
	.st81{clip-path:url(#SVGID_28_);fill:#FFFFFF;}
	.st82{opacity:0.5;clip-path:url(#SVGID_28_);fill:#E8BD98;}
	.st83{clip-path:url(#SVGID_30_);}
	.st84{clip-path:url(#SVGID_30_);fill:#E8BD98;}
	.st85{clip-path:url(#SVGID_30_);fill:#C7D4E2;}
	.st86{clip-path:url(#SVGID_30_);fill:#543E36;}
	.st87{clip-path:url(#SVGID_30_);fill:#1A1A1A;}
	.st88{opacity:0.5;clip-path:url(#SVGID_30_);fill:#E8BD98;}
	.st89{clip-path:url(#SVGID_32_);fill:#006F34;}
	.st90{clip-path:url(#SVGID_32_);}
	.st91{fill:#B3D033;}
	.st92{fill:#BD7E52;}
	.st93{fill:#B0B3B4;}
	.st94{fill:#8A8D8F;}
	.st95{fill:#D1D3D4;}
	.st96{fill:#787B7D;}
	.st97{fill:#B7BABB;}
	.st98{fill:#91A0A1;}
	.st99{clip-path:url(#SVGID_34_);fill:#006F34;}
	.st100{clip-path:url(#SVGID_34_);}
	.st101{fill:#BFC1C2;}
	.st102{fill:#313034;}
	.st103{fill:url(#SVGID_35_);}
	.st104{fill:#B9B9B9;}
	.st105{fill:#ACAEB0;}
	.st106{fill:#BBBDBE;}
	.st107{fill:#96989A;}
	.st108{fill:#CFD0D1;}
	.st109{fill:#5D5D5D;}
	.st110{fill:#B7B9BB;}
	.st111{fill:#919395;}
	.st112{fill:none;}
	.st113{fill-rule:evenodd;clip-rule:evenodd;fill:#CED0D1;}
	.st114{fill-rule:evenodd;clip-rule:evenodd;fill:#FFFFFF;}
	.st115{fill:url(#SVGID_36_);}
	.st116{fill:url(#SVGID_37_);}
	.st117{fill:#F3F3F3;}
	.st118{fill:#231F20;}
	.st119{fill:url(#SVGID_38_);}
	.st120{fill:url(#SVGID_39_);}
	.st121{fill:url(#SVGID_40_);}
	.st122{fill:url(#SVGID_41_);}
	.st123{fill:url(#SVGID_42_);}
	.st124{fill:url(#SVGID_43_);}
	.st125{fill:url(#SVGID_44_);}
	.st126{fill:url(#SVGID_45_);}
	.st127{fill:url(#SVGID_46_);}
	.st128{fill:url(#SVGID_47_);}
	.st129{fill:url(#SVGID_48_);}
	.st130{fill:url(#SVGID_49_);}
	.st131{fill:url(#SVGID_50_);}
	.st132{fill:url(#SVGID_51_);}
	.st133{fill:url(#SVGID_52_);}
	.st134{fill:url(#SVGID_53_);}
	.st135{opacity:0.8;}
	.st136{opacity:0.8;fill:#F3F3F3;}
	.st137{fill:none;stroke:#5D5D5D;stroke-width:3;stroke-linecap:round;stroke-miterlimit:10;}
	.st138{fill:none;stroke:#201F23;stroke-width:5;stroke-miterlimit:10;}
	.st139{fill:none;stroke:#201F23;stroke-width:4.2064;stroke-linecap:round;stroke-miterlimit:10;}
	.st140{fill:none;stroke:#201F23;stroke-miterlimit:10;}
	.st141{fill:#B9BBBC;}
	.st142{fill:#98999C;}
	.st143{fill:#B9BABC;}
	.st144{fill:#E2E2E3;}
	.st145{fill:#D1D1D2;}
	.st146{fill:#2E2D31;}
	.st147{fill:#1F1E21;}
	.st148{fill:#5D5C61;}
	.st149{fill:#4A4A4E;}
	.st150{fill:#88BD42;}
	.st151{opacity:0.6;}
	.st152{fill:#6A9742;}
	.st153{fill:#5F893B;}
	.st154{fill:none;stroke:#CFD0D1;stroke-width:4;stroke-linecap:round;stroke-miterlimit:10;}
	.st155{fill:#E09400;}
	.st156{fill:#F0EABC;}
	.st157{fill:#FFC843;}
	.st158{fill:#DDA070;}
	.st159{fill:none;stroke:#FFFFFF;stroke-width:4;stroke-linecap:round;stroke-miterlimit:10;}
	.st160{fill:none;stroke:#CFD0D1;stroke-width:2.5756;stroke-linecap:round;stroke-miterlimit:10;}
	.st161{fill:none;stroke:#FFFFFF;stroke-width:2.5756;stroke-linecap:round;stroke-miterlimit:10;}
	.st162{fill:#BCBDBE;}
	.st163{fill:#9C9EA0;}
	.st164{fill:#B3B5B6;}
	.st165{fill:#282828;}
</style>
<g id="Fondo">
</g>
<g id="Diseño">
	<g>
		<circle class="st54" cx="257.3" cy="271.9" r="182.7"/>
		<polygon class="st6" points="260.3,483 252.1,494 243.9,483 		"/>
		<g>
			<g id="screen_3_">
				<g>
					<path class="st41" d="M241.9,500.4c-1.7,6.8-3.4,13.7-5,20.5c15.6,0,31.3,0,46.9,0c-1.7-6.8-3.4-13.7-5-20.5
						C266.4,500.4,254.2,500.4,241.9,500.4z"/>
					<path class="st40" d="M260,521c7.9,0,15.8,0,23.7,0c-1.7-6.8-3.4-13.7-5-20.5c-6.2,0-12.5,0-18.7,0V521z"/>
					<path class="st6" d="M286.6,520.6H234c-1.3,0-2.4,1.3-2.4,2.8v1.1h57.5v-1.1C289.1,521.9,288,520.6,286.6,520.6z"/>
					<g>
						<path class="st6" d="M181.1,492.4v11.3c0,2.2,1.8,3.9,3.9,3.9h75v-15.3H181.1z"/>
						<path class="st45" d="M260,507.7h75.5c2.2,0,3.9-1.8,3.9-3.9v-11.3H260V507.7z"/>
						<path class="st46" d="M335.6,392.7H260v6.2h73v87.1h-73v6.5h79.5v-95.8C339.5,394.4,337.7,392.7,335.6,392.7z"/>
						<path class="st47" d="M260,485.9h-72.5v-87.1H260v-6.2h-75c-2.2,0-3.9,1.8-3.9,3.9v95.8H260V485.9z"/>
						<rect x="187.6" y="398.8" class="st3" width="72.5" height="87.1"/>
						<rect x="260" y="398.8" class="st40" width="73" height="87.1"/>
					</g>
				</g>
			</g>
		</g>
		<g>
			<g>
				<defs>
					<circle id="SVGID_25_" cx="436.9" cy="336.1" r="70.4"/>
				</defs>
				<use xlink:href="#SVGID_25_"  style="overflow:visible;fill:#ADC2D0;"/>
				<clipPath id="SVGID_2_">
					<use xlink:href="#SVGID_25_"  style="overflow:visible;"/>
				</clipPath>
				<path style="clip-path:url(#SVGID_2_);fill:#98ABB7;" d="M436.9,406.6c38.9,0,70.4-31.5,70.4-70.4c0-38.9-31.5-70.4-70.4-70.4"
					/>
				<g style="clip-path:url(#SVGID_2_);">
					<polygon class="st57" points="395.4,338.9 395.4,404.3 478.3,402.9 478.3,337.5 					"/>
					<path class="st58" d="M405.6,309.3v19.3c0,0.3,0,0.7,0,1c0,0.3,0,0.5,0,0.8c0,0.2,0,0.5,0,0.7c0,0.2,0,0.4,0,0.5
						c0,0.1,0,0.2,0,0.3c0,0.2,0,0.4,0.1,0.6c0,0.4,0.1,0.7,0.1,1.1c0,0.1,0,0.2,0,0.3c0,0.2,0.1,0.4,0.1,0.6v0
						c0,0.3,0.1,0.5,0.1,0.8c0.1,0.4,0.1,0.7,0.2,1.1c0,0,0,0,0,0c0,0.1,0,0.1,0,0.2c0,0,0,0,0,0c0,0.2,0.1,0.4,0.1,0.6
						c0,0.1,0,0.2,0.1,0.3c0,0.1,0.1,0.3,0.1,0.4c0,0.1,0,0.2,0.1,0.2c0,0.1,0,0.1,0.1,0.2c0.2,0.6,0.3,1.2,0.5,1.9
						c0.1,0.3,0.2,0.6,0.3,0.9c0,0,0,0.1,0,0.1c0.1,0.3,0.2,0.5,0.3,0.8c0,0.1,0.1,0.2,0.1,0.2c0.1,0.2,0.2,0.5,0.3,0.7
						c0.1,0.3,0.2,0.6,0.4,0.9c0.1,0.3,0.2,0.5,0.3,0.8c0,0,0,0.1,0.1,0.1c0.1,0.3,0.3,0.6,0.4,0.8c0.1,0.3,0.3,0.6,0.4,0.9
						c0.3,0.6,0.6,1.1,0.9,1.7l0.4,0.7c1.2,2,2.5,4,3.9,5.7c0.2,0.3,0.4,0.5,0.6,0.7c0.3,0.3,0.6,0.7,0.9,1c0.2,0.3,0.5,0.6,0.8,0.8
						c0,0,0,0,0,0c0.7,0.8,1.5,1.5,2.3,2.3c0.2,0.2,0.3,0.3,0.5,0.4c0.3,0.2,0.5,0.5,0.8,0.7c0.2,0.2,0.4,0.4,0.6,0.5
						c0.6,0.5,1.1,0.9,1.7,1.3c0.2,0.2,0.5,0.3,0.7,0.5c0.4,0.3,0.8,0.5,1.2,0.8c0.2,0.1,0.4,0.3,0.7,0.4c0.8,0.5,1.6,0.9,2.4,1.3
						c0.2,0.1,0.4,0.2,0.6,0.3c0.2,0.1,0.4,0.2,0.6,0.3c0.3,0.1,0.5,0.2,0.8,0.3c0.1,0,0.2,0.1,0.3,0.1c0.3,0.1,0.6,0.2,0.9,0.3
						c0.4,0.1,0.8,0.3,1.1,0.4c0.3,0.1,0.5,0.1,0.8,0.2c0,0,0,0,0.1,0c0.3,0.1,0.5,0.1,0.8,0.2c0.1,0,0.1,0,0.2,0
						c0.2,0,0.4,0.1,0.6,0.1c0.3,0,0.6,0.1,0.9,0.1c0.1,0,0.2,0,0.3,0c0.3,0,0.5,0,0.7,0h0c0.2,0,0.5,0,0.7,0c0.1,0,0.2,0,0.3,0
						c0.2,0,0.4,0,0.7-0.1c0,0,0.1,0,0.1,0c0.3,0,0.6-0.1,0.9-0.1c0.2,0,0.5-0.1,0.7-0.2c1.3-0.3,2.7-0.8,4-1.4
						c1.2-0.5,2.4-1.1,3.5-1.9c0.6-0.4,1.2-0.7,1.8-1.2c0.3-0.2,0.6-0.4,0.9-0.6c0.9-0.7,1.8-1.4,2.7-2.2c0.2-0.2,0.5-0.4,0.7-0.7
						c0.2-0.2,0.5-0.5,0.7-0.7c0.6-0.5,1.1-1.1,1.7-1.7c0,0,0.1-0.1,0.1-0.1c0.2-0.2,0.4-0.5,0.7-0.7c0.6-0.7,1.2-1.4,1.8-2.2
						c0.2-0.3,0.4-0.5,0.6-0.8c0.8-1,1.5-2.1,2.2-3.2c0.2-0.3,0.4-0.6,0.5-0.9c0.2-0.4,0.4-0.7,0.6-1.1c0.8-1.4,1.5-2.8,2.1-4.3
						c0.1-0.2,0.2-0.4,0.3-0.6c0.1-0.3,0.2-0.6,0.3-0.8c0.2-0.4,0.3-0.8,0.4-1.2c0.1-0.4,0.3-0.8,0.4-1.2c0.1-0.4,0.2-0.8,0.3-1.2
						c0.1-0.4,0.2-0.9,0.3-1.3c0,0,0-0.1,0-0.1c0.1-0.6,0.3-1.2,0.4-1.9c0.2-0.8,0.3-1.7,0.4-2.5c0-0.3,0.1-0.5,0.1-0.8
						c0-0.3,0.1-0.6,0.1-0.8c0-0.5,0.1-1,0.1-1.6c0-0.3,0-0.7,0-1v-19.3c0-16.7-13.1-30.4-29.6-31.3c0,0-0.1,0-0.1,0
						c-0.2,0-0.4,0-0.6,0c-0.3,0-0.6,0-1,0h0c-0.3,0-0.7,0-1,0c-0.3,0-0.5,0-0.8,0h0c-1.8,0.1-3.5,0.3-5.2,0.7c-2,0.5-4,1.1-5.9,2
						c-2.5,1.1-4.9,2.6-7,4.4c-1.8,1.5-3.4,3.1-4.8,4.9c-4.1,5.3-6.6,11.9-6.7,19.1C405.6,309.1,405.6,309.2,405.6,309.3z"/>
					<path class="st58" d="M396.1,416L396.1,416l81.7,0v0c0-4.6-0.7-9-2.1-13.1c0,0,0-0.1,0-0.1c-0.3-0.7-0.5-1.5-0.8-2.2v0
						c-0.3-0.7-0.6-1.4-1-2.2c-1.3-2.8-3-5.5-5-7.9c-0.5-0.6-1-1.2-1.5-1.8c-0.3-0.3-0.5-0.6-0.8-0.9c-0.3-0.3-0.5-0.6-0.8-0.8
						c-1.4-1.4-2.9-2.6-4.4-3.8c-0.8-0.6-1.6-1.1-2.4-1.6c-0.1-0.1-0.2-0.1-0.3-0.2c-0.3-0.2-0.6-0.4-0.9-0.6
						c-0.4-0.2-0.8-0.5-1.3-0.7c0,0,0,0,0,0c-0.3-0.2-0.7-0.4-1-0.6c-1-0.6-1.9-1.2-2.8-1.9c-3.7-3-6.6-6.9-8.2-11.5
						c-0.5-1.3-0.9-2.7-1.1-4.2c-0.3-1.5-0.4-3-0.4-4.6l-6,0h-0.1l-6,0c0,1.5-0.1,3-0.4,4.5c-0.2,1.4-0.6,2.8-1.1,4.1
						c-1.6,4.6-4.5,8.6-8.2,11.5c-0.6,0.5-1.1,0.9-1.7,1.3c-0.1,0-0.1,0.1-0.2,0.1c-0.3,0.2-0.6,0.4-0.8,0.5c-0.3,0.2-0.6,0.4-1,0.6
						c-0.1,0-0.1,0-0.1,0.1c-0.7,0.4-1.3,0.8-2,1.2c-0.1,0-0.1,0.1-0.2,0.1c-0.3,0.2-0.5,0.3-0.8,0.5c-0.6,0.4-1.3,0.9-1.9,1.3
						c0,0,0,0,0,0h0c-0.8,0.6-1.5,1.2-2.3,1.8c-0.7,0.6-1.4,1.3-2.1,2c-4.4,4.4-7.8,9.8-9.9,15.8C396.8,407,396.1,411.4,396.1,416z"
						/>
					<path style="fill:#9D50C0;" d="M396.1,416h81.7c0-4.6-0.7-9-2.1-13.1c0,0,0-0.1,0-0.1c-0.3-0.7-0.5-1.5-0.8-2.2v0
						c-0.3-0.7-0.6-1.4-1-2.2c-1.3-2.8-3-5.5-5-7.9c-0.5-0.6-1-1.2-1.5-1.8c-0.3-0.3-0.5-0.6-0.8-0.9c-0.3-0.3-0.5-0.6-0.8-0.8
						c-1.4-1.4-2.9-2.6-4.4-3.8c-0.8-0.6-1.6-1.1-2.4-1.6c-0.1-0.1-0.2-0.1-0.3-0.2c-0.3-0.2-0.6-0.4-0.9-0.6
						c-0.4-0.3-0.8-0.5-1.3-0.7c0,0,0,0,0,0v0c-0.3-0.2-0.7-0.4-1-0.6c-1-0.6-1.9-1.2-2.7-1.9c0,0,0,0,0,0c-4,4.1-9.5,6.6-15.7,6.6
						h-0.1c-6.1,0-11.7-2.5-15.7-6.6l0,0c-0.5,0.5-1.1,0.9-1.7,1.3c-0.1,0-0.1,0.1-0.2,0.1c-0.3,0.2-0.6,0.4-0.8,0.5
						c-0.3,0.2-0.6,0.4-1,0.6c-0.1,0-0.1,0-0.1,0.1c-0.7,0.4-1.3,0.8-2,1.2c-0.1,0-0.1,0.1-0.2,0.1c-0.3,0.2-0.5,0.3-0.8,0.5
						c-0.6,0.4-1.3,0.9-1.9,1.3h0c-0.8,0.6-1.5,1.2-2.3,1.8c-0.7,0.6-1.4,1.3-2.1,2c-4.4,4.4-7.8,9.8-9.9,15.8
						C396.8,407,396.1,411.4,396.1,416z"/>
					<path class="st57" d="M395.2,393.4c0.1,0,0.1,0,0.2,0.1c4,1.1,20-18.2,20.2-38.4c0-1.6-0.1-3.3-0.3-4.9
						c-0.5-4.4-2.6-8.5-4.4-12.7c-1.4-3.3-2.5-6.7-2.5-10.1c0-18.5,5.4-12.5,20.3-22.4c3.6-2.4,6.2-4.4,8.2-6c5.6-4.4,7-6,14.6-6
						c9.7,0,13.5,16.8,14.6,24c1.2,7.7,1.2,20.3-3.6,32.2c-3.7,9.3-3.7,18.3,3.6,28.4c2.8,3.8,7,16.6,12.3,20.7
						c1.6,1.3,3.4,1.7,5.2,0.8c14.4-7.4,5.7-31,1.4-45.7c-4.6-15.9-6-32-9.4-48.1c-3.8-18.1-19.3-29.1-25.5-24.6
						c-2.1-3.7-7.5-5.1-13.1-5.1c-4.1,0-8.3,0.8-11.2,1.9c-22.8,8.9-23.2,30-24.4,38.8c-1,7.3-4.6,14.1-5.8,21.2v0
						c-0.3,1.5-0.4,3-0.4,4.6c-0.1,8.4,0.9,14.1-5.5,21.1C384.6,368.5,388.3,390.4,395.2,393.4z"/>
					<g>
						<path class="st60" d="M436.9,384.2L436.9,384.2L436.9,384.2c2.2,3.4,5.8,5.2,9.4,5.2c2.9,0,5.9-1.2,8.1-3.5l4.2-4.5
							c-0.7-0.5-1.4-0.9-2.2-1.3c0,0,0,0,0,0v0c-0.3-0.2-0.7-0.4-1-0.6c-1-0.6-1.9-1.2-2.7-1.9c0,0,0,0,0,0
							C448.7,381.7,443.1,384.2,436.9,384.2L436.9,384.2z"/>
						<path class="st60" d="M415.2,381.4l4.1,4.4c2.2,2.4,5.2,3.5,8.1,3.5c3.6,0,7.2-1.8,9.4-5.1l0,0l0,0c-6.1,0-11.7-2.5-15.7-6.6
							l0,0c-0.5,0.5-1.1,0.9-1.7,1.3c-0.1,0-0.1,0.1-0.2,0.1c-0.3,0.2-0.6,0.4-0.8,0.5c-0.3,0.2-0.6,0.4-1,0.6c-0.1,0-0.1,0-0.1,0.1
							c-0.7,0.4-1.3,0.8-2,1.2C415.3,381.4,415.2,381.4,415.2,381.4z"/>
					</g>
				</g>
				<path style="opacity:0.5;clip-path:url(#SVGID_2_);fill:#ECCCB0;" d="M436.9,275.5V416h40.9v0c0-4.6-0.7-9-2.1-13.1h2.7v-4.7
					c1.6,1.3,3.4,1.7,5.2,0.8c14.4-7.4,5.7-31,1.4-45.7c-4.6-15.9-6-32-9.4-48.1c-3.8-18.1-19.3-29.1-25.5-24.6
					C447.9,276.9,442.4,275.5,436.9,275.5z"/>
			</g>
		</g>
		<g>
			<g>
				<defs>
					<circle id="SVGID_27_" cx="83.7" cy="336.1" r="70.4"/>
				</defs>
				<use xlink:href="#SVGID_27_"  style="overflow:visible;fill:#4AC4E7;"/>
				<clipPath id="SVGID_4_">
					<use xlink:href="#SVGID_27_"  style="overflow:visible;"/>
				</clipPath>
				<path style="clip-path:url(#SVGID_4_);fill:#3EA1BD;" d="M83.7,406.6c38.9,0,70.4-31.5,70.4-70.4c0-38.9-31.5-70.4-70.4-70.4
					V406.6z"/>
				<g class="st0">
					<path class="st64" d="M42.8,413.7L42.8,413.7l81.7,0v0c0-11.3-4.6-21.6-12-29c-0.3-0.3-0.7-0.7-1.1-1c-1.1-1-2.2-1.9-3.4-2.8
						c-0.8-0.6-1.6-1.1-2.4-1.6c-0.8-0.5-1.6-1-2.5-1.5c0,0,0,0,0,0c-0.3-0.2-0.7-0.4-1-0.6c-1-0.6-1.9-1.2-2.8-1.9
						c-3.7-3-6.6-6.9-8.2-11.5v0c-1-2.7-1.5-5.7-1.5-8.7l-12.1,0.1c0,3-0.5,5.9-1.5,8.6c-1.6,4.6-4.5,8.6-8.2,11.5
						c-0.3,0.2-0.5,0.4-0.8,0.6c-0.4,0.3-0.7,0.5-1.1,0.8c-0.3,0.2-0.6,0.4-0.8,0.5c-0.3,0.2-0.6,0.4-1,0.6c0,0-0.1,0-0.1,0
						c0,0,0,0-0.1,0c-0.9,0.5-1.9,1.1-2.8,1.7c-0.3,0.2-0.6,0.4-0.9,0.6c-0.4,0.3-0.8,0.6-1.2,0.8h0
						C49.3,388.4,42.8,400.2,42.8,413.7z"/>
					<path class="st50" d="M42.8,413.7h81.7c0-11.3-4.6-21.6-12-29c-0.3-0.3-0.7-0.7-1.1-1c-1.1-1-2.2-1.9-3.4-2.8
						c-0.8-0.6-1.6-1.1-2.4-1.6c-0.8-0.5-1.6-1-2.5-1.5c0,0,0,0,0,0c-0.3-0.2-0.7-0.4-1-0.6c-1-0.6-1.9-1.2-2.8-1.9
						c-4,4.1-9.6,6.6-15.8,6.6c-6.2,0-11.7-2.5-15.7-6.6c-0.3,0.2-0.5,0.4-0.8,0.6c-0.4,0.3-0.7,0.5-1.1,0.8
						c-0.3,0.2-0.6,0.4-0.8,0.5c-0.3,0.2-0.6,0.4-1,0.6c0,0-0.1,0-0.1,0c0,0,0,0-0.1,0c-0.9,0.5-1.9,1.1-2.8,1.7
						c-0.3,0.2-0.6,0.4-0.9,0.6c-0.4,0.3-0.8,0.6-1.2,0.8h0C49.3,388.4,42.8,400.2,42.8,413.7z"/>
					<path class="st64" d="M115,300.7v25.5c0,21.7-19,39.3-31.3,39.3c-12.3,0-31.3-17.6-31.3-39.3v-25.5H115z"/>
					<path class="st65" d="M115,323.2L115,323.2c-1.5,0-2.8-1.3-2.8-2.8v-17.8h2.8V323.2z"/>
					<path class="st65" d="M52.3,323.2L52.3,323.2v-20.6h2.8v17.8C55.1,321.9,53.9,323.2,52.3,323.2z"/>
					<path class="st65" d="M52.3,301.8c0,3.7,0.2,4.5,2.8,4.3c0.1-1.8,12.8-3.2,28.5-3.2c15.7,0,28.4,1.4,28.6,3.2
						c2.5,0.2,2.8-0.7,2.8-4.3c0-0.4,0-0.7,0-1.1c-0.4-9-5.5-25.9-31.3-25.9c-25.8,0-30.9,16.9-31.3,25.9
						C52.4,301.1,52.3,301.5,52.3,301.8z"/>
				</g>
				<path style="clip-path:url(#SVGID_4_);fill:#FFFFFF;" d="M67.9,375.1c2.6,8.1,7.9,16.1,15.8,22.7c7.8-6.6,13.1-14.6,15.7-22.7
					c0,0-0.1,0-0.1,0c-4.1,3.7-9.6,6-15.6,6c-6,0-11.5-2.3-15.6-6C68,375.1,68,375.1,67.9,375.1z"/>
				<path style="opacity:0.5;clip-path:url(#SVGID_4_);fill:#E8BD98;" d="M83.7,274.8v138.8h40.8v0c0-11.3-4.6-21.6-12.1-29
					c-0.8-0.8-1.7-1.6-2.6-2.4c-0.6-0.5-1.2-1-1.8-1.4c-1.2-0.9-2.4-1.7-3.6-2.4c-0.4-0.2-0.8-0.5-1.3-0.7c0,0,0,0,0,0v0
					c-1.3-0.7-2.6-1.6-3.7-2.5c0,0,0,0,0,0c-3.7-3-6.6-6.9-8.2-11.5c11.3-5,23.9-19.9,23.9-37.5v-25.6h0
					C114.6,291.7,109.5,274.8,83.7,274.8z"/>
			</g>
		</g>
		<g>
			<defs>
				<circle id="SVGID_29_" cx="256.1" cy="81.9" r="70.4"/>
			</defs>
			<use xlink:href="#SVGID_29_"  style="overflow:visible;fill:#E76D4A;"/>
			<clipPath id="SVGID_5_">
				<use xlink:href="#SVGID_29_"  style="overflow:visible;"/>
			</clipPath>
			<g style="clip-path:url(#SVGID_5_);">
				<path class="st69" d="M256.1,11.5v140.9c38.9,0,70.4-31.5,70.4-70.4C326.5,43,295,11.5,256.1,11.5z"/>
			</g>
			<path style="clip-path:url(#SVGID_5_);fill:#E8BD98;" d="M224.7,51v23.4c0,0.3,0,0.7,0,1c0,0.7,0.1,1.4,0.1,2.1
				c0,0.2,0,0.5,0.1,0.7c0.1,1,0.2,2,0.4,2.9c0.1,0.3,0.1,0.6,0.2,1c0,0.1,0,0.1,0,0.2c0.1,0.3,0.1,0.6,0.2,1c0,0.2,0.1,0.3,0.1,0.5
				c0,0.1,0.1,0.3,0.1,0.4c0.2,0.6,0.3,1.2,0.5,1.9c0.1,0.3,0.2,0.6,0.3,0.9c0,0,0,0.1,0,0.1c0.1,0.3,0.2,0.5,0.3,0.8
				c0,0.1,0.1,0.2,0.1,0.2c0.1,0.2,0.2,0.5,0.3,0.7c0.1,0.3,0.2,0.6,0.4,0.9c0.1,0.3,0.2,0.5,0.3,0.8c0,0,0,0.1,0.1,0.1
				c0.1,0.3,0.3,0.6,0.4,0.8c0.1,0.3,0.3,0.6,0.4,0.9c0.3,0.6,0.6,1.1,0.9,1.7c0.1,0.2,0.3,0.5,0.4,0.7c1.2,2,2.5,4,3.9,5.7
				c0.2,0.3,0.4,0.5,0.6,0.7c0.3,0.3,0.6,0.7,0.9,1c0.3,0.3,0.5,0.6,0.8,0.9c0.7,0.8,1.5,1.5,2.3,2.3c0.2,0.2,0.3,0.3,0.5,0.4
				c0.3,0.2,0.5,0.5,0.8,0.7c0.2,0.2,0.4,0.4,0.6,0.5c0.6,0.5,1.1,0.9,1.7,1.3c0.2,0.2,0.5,0.3,0.7,0.5c0.4,0.3,0.8,0.5,1.2,0.8
				c0.2,0.1,0.4,0.3,0.7,0.4c0.8,0.5,1.6,0.9,2.4,1.3c0.2,0.1,0.4,0.2,0.6,0.3c0.2,0.1,0.4,0.2,0.6,0.3c0.3,0.1,0.5,0.2,0.8,0.3
				c0.1,0,0.2,0.1,0.3,0.1c0.3,0.1,0.6,0.2,0.9,0.3c0.4,0.1,0.8,0.3,1.1,0.4c0.3,0.1,0.5,0.1,0.8,0.2c0,0,0,0,0.1,0
				c0.3,0.1,0.5,0.1,0.8,0.2c0.1,0,0.1,0,0.2,0c0.2,0,0.4,0.1,0.6,0.1c0.3,0,0.6,0.1,0.9,0.1c0.1,0,0.2,0,0.3,0c0.2,0,0.5,0,0.7,0h0
				c0.2,0,0.5,0,0.7,0c0.1,0,0.2,0,0.3,0c0.2,0,0.4,0,0.7-0.1c0,0,0.1,0,0.1,0c0.3,0,0.6-0.1,0.9-0.1c0.2,0,0.5-0.1,0.7-0.2
				c1.3-0.3,2.7-0.8,4-1.4c1.2-0.5,2.4-1.1,3.5-1.9c0.6-0.4,1.2-0.7,1.8-1.2c0.3-0.2,0.6-0.4,0.9-0.6c0.9-0.7,1.8-1.4,2.7-2.2
				c0.2-0.2,0.5-0.4,0.7-0.7c0.2-0.2,0.5-0.5,0.7-0.7c0.6-0.6,1.2-1.2,1.8-1.8c0.2-0.2,0.4-0.5,0.7-0.7c0.6-0.7,1.2-1.4,1.8-2.2
				c0.2-0.3,0.4-0.5,0.6-0.8c0.8-1,1.5-2.1,2.2-3.2c0.2-0.3,0.4-0.6,0.5-0.9c0.2-0.4,0.4-0.7,0.6-1.1c0.8-1.4,1.5-2.8,2.1-4.3
				c0.1-0.2,0.2-0.4,0.3-0.6c0.1-0.3,0.2-0.6,0.3-0.8c0.2-0.4,0.3-0.8,0.4-1.2c0.1-0.4,0.3-0.8,0.4-1.2c0.1-0.4,0.2-0.8,0.3-1.2
				c0.1-0.4,0.2-0.9,0.3-1.3c0,0,0-0.1,0-0.1c0.1-0.6,0.3-1.2,0.4-1.9c0.2-0.8,0.3-1.7,0.4-2.5c0-0.3,0.1-0.5,0.1-0.8
				c0-0.3,0.1-0.6,0.1-0.8c0-0.5,0.1-1,0.1-1.6c0-0.3,0-0.7,0-1V51c0-17.3-14-31.3-31.3-31.3h0c-2.4,0-4.7,0.3-6.9,0.8
				c-2,0.5-4,1.1-5.9,2c-2.5,1.1-4.9,2.6-7,4.4c-1.8,1.5-3.4,3.1-4.8,4.9C227.2,37,224.7,43.7,224.7,51z"/>
			<path style="clip-path:url(#SVGID_5_);fill:#E8BD98;" d="M215.2,161.8L215.2,161.8l81.7,0v0c0-4.6-0.8-9.1-2.2-13.2
				c-0.3-0.7-0.5-1.5-0.8-2.2v0c-0.3-0.7-0.6-1.4-1-2.2c-1.3-2.8-3-5.5-5-7.9c-0.5-0.6-1-1.2-1.5-1.8c-0.3-0.3-0.5-0.6-0.8-0.9
				c-0.3-0.3-0.5-0.6-0.8-0.8c-1.4-1.4-2.9-2.6-4.4-3.8c-0.8-0.6-1.6-1.1-2.4-1.6c-0.8-0.5-1.6-1-2.5-1.5c0,0,0,0,0,0
				c-0.3-0.2-0.7-0.4-1-0.6c-0.6-0.4-1.3-0.8-1.9-1.2c-0.3-0.2-0.6-0.4-0.9-0.7c-0.7-0.6-1.4-1.1-2-1.8c-0.2-0.2-0.4-0.4-0.6-0.6
				c-0.4-0.4-0.8-0.9-1.2-1.4c-0.2-0.2-0.4-0.5-0.6-0.7c-0.2-0.2-0.4-0.5-0.5-0.7c-1.4-1.9-2.5-4-3.3-6.3c-1-2.7-1.5-5.7-1.5-8.7
				l-6,0l-6.1,0c0,3-0.5,5.9-1.5,8.6c-0.8,2.2-1.9,4.4-3.2,6.3c-1.4,2-3.1,3.8-5,5.3c-0.3,0.2-0.6,0.5-0.9,0.7
				c-0.3,0.2-0.6,0.4-0.9,0.6c-0.1,0-0.1,0.1-0.2,0.1c-0.3,0.2-0.6,0.4-0.8,0.5c-0.3,0.2-0.6,0.4-1,0.6c-0.1,0-0.1,0-0.1,0.1
				c-0.7,0.4-1.3,0.8-2,1.2c-0.3,0.2-0.6,0.4-0.9,0.6c-0.6,0.4-1.3,0.9-1.9,1.3c0,0,0,0,0,0h0c-1.6,1.2-3,2.4-4.4,3.8
				C219.8,140.3,215.2,150.5,215.2,161.8z"/>
			<path style="clip-path:url(#SVGID_5_);fill:#CAD3E1;" d="M215.2,161.8h81.7c0-4.6-0.8-9.1-2.2-13.2c-0.3-0.7-0.5-1.5-0.8-2.2
				c0,0,0,0,0,0c-0.3-0.7-0.6-1.4-1-2.2c-1.3-2.8-3-5.5-5-7.9c-0.5-0.6-1-1.2-1.5-1.8c-0.3-0.3-0.5-0.6-0.8-0.9
				c-0.3-0.3-0.5-0.6-0.8-0.8c-1.4-1.4-2.9-2.6-4.4-3.8c-0.8-0.6-1.6-1.1-2.4-1.6c-0.8-0.5-1.6-1-2.5-1.5c0,0,0,0,0,0v0
				c-0.3-0.2-0.7-0.4-1-0.6c-1-0.6-1.9-1.2-2.7-1.9c0,0,0,0,0,0c-4,4.1-9.5,6.6-15.7,6.6H256c-6.2,0-11.7-2.5-15.7-6.6l0,0
				c-0.5,0.5-1.1,0.9-1.7,1.3c-0.1,0-0.1,0.1-0.2,0.1c-0.3,0.2-0.6,0.4-0.8,0.5c-0.3,0.2-0.6,0.4-1,0.6c-0.1,0-0.1,0-0.1,0.1
				c-0.7,0.4-1.3,0.8-2,1.2c-0.3,0.2-0.6,0.4-0.9,0.6c-0.6,0.4-1.3,0.9-1.9,1.3h0c-1.6,1.2-3,2.4-4.4,3.8
				C219.8,140.3,215.2,150.5,215.2,161.8z"/>
			<path style="clip-path:url(#SVGID_5_);fill:#543E36;" d="M224.7,74.4c0,0.3,0,0.7,0,1c0,0.7,0.1,1.4,0.1,2.1c0,0.2,0,0.5,0.1,0.7
				c0.1,1,0.2,2,0.4,2.9c0.1,0.3,0.1,0.6,0.2,1c0,0.1,0,0.1,0,0.2c0.1,0.3,0.1,0.6,0.2,1c0,0.2,0.1,0.4,0.1,0.5
				c0,0.1,0.1,0.3,0.1,0.4c0.2,0.6,0.3,1.2,0.5,1.9c0.1,0.3,0.2,0.6,0.3,0.9c0,0,0,0.1,0,0.1c0.1,0.3,0.2,0.5,0.3,0.8
				c0,0.1,0.1,0.2,0.1,0.2c0.1,0.2,0.2,0.5,0.3,0.7c0.1,0.3,0.2,0.6,0.4,0.9c0.1,0.3,0.2,0.5,0.3,0.8c0,0,0,0.1,0.1,0.1
				c0.1,0.3,0.3,0.6,0.4,0.8c0.1,0.3,0.3,0.6,0.4,0.9c0.3,0.6,0.6,1.1,0.9,1.7c0.1,0.2,0.3,0.5,0.4,0.7c1.2,2,2.5,4,3.9,5.7
				c0.2,0.3,0.4,0.5,0.6,0.7c0.3,0.3,0.6,0.7,0.9,1c0.3,0.3,0.5,0.6,0.8,0.9c0.7,0.8,1.5,1.5,2.3,2.3c0.2,0.2,0.3,0.3,0.5,0.4
				c0.3,0.2,0.5,0.5,0.8,0.7c0.2,0.2,0.4,0.4,0.6,0.5c0.6,0.5,1.1,0.9,1.7,1.3c0.2,0.2,0.5,0.3,0.7,0.5c0.4,0.3,0.8,0.5,1.2,0.8
				c0.2,0.1,0.4,0.3,0.7,0.4c0.8,0.5,1.6,0.9,2.4,1.3c0.2,0.1,0.4,0.2,0.6,0.3c0.2,0.1,0.4,0.2,0.6,0.3c0.3,0.1,0.5,0.2,0.8,0.3
				c0.1,0,0.2,0.1,0.3,0.1c0.3,0.1,0.6,0.2,0.9,0.3c0.4,0.1,0.8,0.3,1.1,0.4c0.3,0.1,0.5,0.1,0.8,0.2c0,0,0,0,0.1,0
				c0.3,0.1,0.5,0.1,0.8,0.2c0.1,0,0.1,0,0.2,0c0.2,0,0.4,0.1,0.6,0.1c0.3,0,0.6,0.1,0.9,0.1c0.1,0,0.2,0,0.3,0c0.2,0,0.5,0,0.7,0h0
				c0.2,0,0.5,0,0.7,0c0.1,0,0.2,0,0.3,0c0.2,0,0.4,0,0.7-0.1c0,0,0.1,0,0.1,0c0.3,0,0.6-0.1,0.9-0.1c0.2,0,0.5-0.1,0.7-0.2
				c1.3-0.3,2.7-0.8,4-1.4c1.2-0.5,2.4-1.1,3.5-1.9c0.6-0.4,1.2-0.7,1.8-1.2c0.3-0.2,0.6-0.4,0.9-0.6c0.9-0.7,1.8-1.4,2.7-2.2
				c0.2-0.2,0.5-0.4,0.7-0.7c0.2-0.2,0.5-0.5,0.7-0.7c0.6-0.6,1.2-1.2,1.8-1.8c0.2-0.2,0.4-0.5,0.7-0.7c0.6-0.7,1.2-1.4,1.8-2.2
				c0.2-0.3,0.4-0.5,0.6-0.8c0.8-1,1.5-2.1,2.2-3.2c0.2-0.3,0.4-0.6,0.5-0.9c0.2-0.4,0.4-0.7,0.6-1.1c0.8-1.4,1.5-2.8,2.1-4.3
				c0.1-0.2,0.2-0.4,0.3-0.6c0.1-0.3,0.2-0.6,0.3-0.8c0.2-0.4,0.3-0.8,0.4-1.2c0.1-0.4,0.3-0.8,0.4-1.2c0.1-0.4,0.2-0.8,0.3-1.2
				c0.1-0.4,0.2-0.9,0.3-1.3c0,0,0-0.1,0-0.1c0.1-0.6,0.3-1.2,0.4-1.9c0.2-0.8,0.3-1.7,0.4-2.5c0-0.3,0.1-0.5,0.1-0.8
				c0-0.3,0.1-0.6,0.1-0.8c0-0.5,0.1-1,0.1-1.6c0-0.3,0-0.7,0-1l-5,9.8l-8.6,3.7l-10.2,0.9l-7.5,0.7h0l-7.1,0.6l-15.7,1.4
				L224.7,74.4z"/>
			<path style="clip-path:url(#SVGID_5_);fill:#543E36;" d="M231.4,31.7c1.5,3.5,3.5,6.7,5.9,9.6c0.1,0.2,0.3,0.3,0.4,0.5
				c4.8,5.8,11.2,10.3,18.4,13c1.9,0.7,3.9,1.3,5.9,1.7c1.3,0.3,2.7,0.5,4.1,0.7c1.6,0.2,3.2,0.3,4.9,0.3c1.9,0,3.7-0.1,5.6-0.4
				c1.8-0.2,3.5-0.6,5.2-1c1-0.2,1.9-0.5,2.9-0.8c0.9-0.3,1.8-0.6,2.7-1V51c0-17.3-14-31.3-31.3-31.3h0c-2.4,0-4.7,0.3-6.9,0.8
				c-2,0.5-4,1.1-5.9,2c-2.5,1.1-4.9,2.6-7,4.4C234.4,28.2,232.8,29.9,231.4,31.7z"/>
			<path style="clip-path:url(#SVGID_5_);fill:#543E36;" d="M224.7,51v6.2c5.3-4.1,9.8-9.4,13-15.3c0,0,0,0,0,0
				c3.1-5.9,5.1-12.4,5.5-19.4c-2.5,1.1-4.9,2.6-7,4.4c-1.8,1.5-3.4,3.1-4.8,4.9C227.2,37,224.7,43.7,224.7,51z"/>
			<path style="clip-path:url(#SVGID_5_);fill:#543E36;" d="M283.7,53.4c0.3,0.6,0.6,1.2,0.9,1.8c0.1,0.2,0.2,0.5,0.3,0.7
				c1.5,3.4,2.3,6.7,2.4,9.7c0,0.1,0,0.2,0,0.3V53.8c0-0.4,0-0.9,0-1.3C286.2,52.8,285,53.2,283.7,53.4z"/>
			<path style="clip-path:url(#SVGID_5_);fill:#543E36;" d="M228.4,53.4c-0.5,0.8-0.9,1.7-1.3,2.5c-1.6,3.5-2.3,6.9-2.4,9.9V53.8
				c0-0.4,0-0.8,0-1.3C225.9,52.8,227.1,53.1,228.4,53.4z"/>
			<path style="clip-path:url(#SVGID_5_);fill:#1A1A1A;" d="M228.4,59.8c0,0.1,0.1,0.2,0.2,0.3l0.4,0.1c0.5,0.2,0.5,10.1,3.4,12.5
				c1.8,1.5,3.3,2.3,9.9,2.3c3.8,0,6.2-1,8.4-4.1c1.6-2.2,3.1-7.4,3.1-7.4c0.5-2.3,2.3-2.3,2.3-2.3c0,0,0,0,0,0
				c0.3,0,1.8,0.2,2.3,2.3c0,0,1.4,5.2,3.1,7.4c2.3,3.1,4.6,4.1,8.4,4.1c6.6,0,8.1-0.8,9.9-2.3c2.9-2.5,2.9-12.3,3.4-12.5l0.4-0.1
				c0.1,0,0.2-0.1,0.2-0.3l-0.1-3.3c0-0.1-0.1-0.2-0.2-0.3c-0.3,0-0.9-0.1-1.7-0.2c-2.1-0.3-5.9-0.6-9.8-0.6c-3.3,0-7,0.5-10,1.1
				c-2.6,0.4-4.7,0.9-5.3,0.9h-1.2c-1.4,0-9.2-1.9-15.3-1.9c-5.4,0-10.4,0.7-11.5,0.9c-0.1,0-0.2,0.1-0.2,0.3L228.4,59.8z
				 M259.8,60.3c0-1.3,2.5-2.5,6.3-3.1c1.4-0.2,3-0.4,4.7-0.4c2.9,0,4.7,0.1,5.8,0.3c1.3,0.2,1.8,0.5,2.2,0.8c1.1,0.7,1.6,2,1.9,4.4
				c0.3,2.3,0.1,4.4-0.6,6.7c-0.7,2.3-1.2,5.3-11.7,4.7c-3.5-0.2-6-3.1-7-5.4C260,64.8,259.8,61.1,259.8,60.3z M231.4,62.2
				c0.3-2.3,0.9-3.7,1.9-4.4c0.9-0.6,1.8-1,8-1c6.2,0,10.9,1.8,10.9,3.5c0,0.9-0.2,4.6-1.6,7.9c-1,2.3-3.4,5.2-7,5.4
				c-10.5,0.5-11-2.4-11.7-4.7C231.3,66.5,231.2,64.5,231.4,62.2z"/>
			<g style="clip-path:url(#SVGID_5_);">
				<path class="st51" d="M256,79.4l0,7.6l0,2.7v2.1l0,6.9v0l0,0h0l0,0l30.3-15.4c0,0,0-0.1,0-0.1c0.1-0.6,0.3-1.2,0.4-1.9
					c0.2-0.8,0.3-1.7,0.4-2.5c0-0.3,0.1-0.5,0.1-0.8c0-0.3,0.1-0.6,0.1-0.8c0-0.5,0.1-1,0.1-1.6c0-0.3,0-0.7,0-1v-9.2
					c0,0.1,0,0.3,0,0.4c-0.1,2.2-0.4,4.7-1.1,7.2c-0.5,1.9-1.2,3.7-2,5.3v0c-2,4.2-4.7,7-7.2,7.5c-0.2,0-0.3,0-0.5,0.1
					c-1,0.1-2,0.2-3,0.2c-3.9,0-7.4-3.2-9.6-4.4c0,0,0,0,0,0c-0.1-0.1-0.2-0.1-0.3-0.2c0,0-0.1,0-0.1-0.1
					C261.7,80,259.1,79.4,256,79.4L256,79.4z"/>
				<path class="st51" d="M224.7,65.2l0,9.2c0,2.3,0.2,4.6,0.6,6.8c0.2,0.9,0.3,1.7,0.6,2.6l7.1,10.3l23,4.6h0l0,0v0l0-19.3H256
					c-3,0-5.6,0.7-7.5,1.7c0,0-0.1,0-0.1,0.1c-0.1,0.1-0.2,0.1-0.3,0.2c0,0,0,0,0,0c-2.2,1.3-5.7,4.4-9.6,4.4c-1,0-2-0.1-3-0.2
					c-0.2,0-0.3,0-0.5-0.1c-2.5-0.5-5.2-3.3-7.2-7.5v0c-0.8-1.6-1.4-3.4-2-5.3c-0.7-2.5-1.1-5-1.1-7.3
					C224.7,65.4,224.7,65.3,224.7,65.2z"/>
			</g>
			<ellipse style="clip-path:url(#SVGID_5_);fill:#E8BD98;" cx="256.1" cy="89.3" rx="7.7" ry="2.4"/>
			<g style="clip-path:url(#SVGID_5_);">
				<path style="fill:#495463;" d="M278.5,127.7V170h3.3v-40c-0.4-0.4-0.9-0.7-1.3-1C279.8,128.6,279.1,128.1,278.5,127.7z"/>
				<polygon style="fill:#495463;" points="233.6,127.7 233.6,161.8 233.6,170 230.4,170 230.4,161.8 230.4,130.1 				"/>
			</g>
			<g style="clip-path:url(#SVGID_5_);">
				<g>
					<polygon class="st65" points="265,125.1 256.1,135.8 247.1,125.1 					"/>
					<path class="st65" d="M256.1,180.3h5.3l-3.8-49.3c-0.2,0.6-2.8,0.6-2.9,0l-3.8,49.3H256.1z"/>
				</g>
				<g>
					<path class="st60" d="M256.1,125L256.1,125L256.1,125l3.7,6.3l3.5,5.8l9.4-13.1c-0.3-0.2-0.6-0.4-0.9-0.7c0,0,0,0,0,0
						c-1.9-1.5-3.6-3.3-5-5.2L256.1,125L256.1,125z"/>
					<path class="st60" d="M239.4,124.1l9.4,13.1l3.5-5.8l3.7-6.2l0-0.1l-10.8-6.9c-1.4,2-3.1,3.8-5,5.3
						C240,123.7,239.7,123.9,239.4,124.1z"/>
				</g>
			</g>
			<path style="opacity:0.5;clip-path:url(#SVGID_5_);fill:#E8BD98;" d="M256.1,19.7v142.2h40.8v0c0-4.6-0.8-9.1-2.2-13.2
				c-0.3-0.7-0.5-1.5-0.8-2.2v0c-0.3-0.7-0.6-1.4-1-2.2c-1.3-2.8-3-5.5-5-7.9c-0.5-0.6-1-1.2-1.5-1.8c-0.3-0.3-0.5-0.6-0.8-0.9
				c-0.3-0.3-0.5-0.6-0.8-0.8c-1-1-2-1.9-3.1-2.8c-0.4-0.4-0.9-0.7-1.3-1c-0.6-0.5-1.3-0.9-1.9-1.4c-0.1-0.1-0.3-0.2-0.4-0.3
				c-0.8-0.5-1.6-1-2.5-1.5c0,0,0,0,0,0v0c-0.3-0.2-0.7-0.4-1-0.6c-0.6-0.4-1.3-0.8-1.9-1.3c-0.3-0.2-0.6-0.4-0.9-0.7c0,0,0,0,0,0
				c-1.9-1.5-3.6-3.3-5-5.2c-1.4-1.9-2.5-4-3.3-6.3c1.2-0.5,2.4-1.1,3.5-1.9c0.6-0.4,1.2-0.7,1.8-1.2c0.3-0.2,0.6-0.4,0.9-0.6
				c0.9-0.7,1.8-1.4,2.7-2.2c0.2-0.2,0.5-0.4,0.7-0.7c0.2-0.2,0.5-0.5,0.7-0.7c0.6-0.6,1.2-1.2,1.8-1.8c0.2-0.2,0.4-0.5,0.7-0.7
				c0.6-0.7,1.2-1.4,1.8-2.2c0.2-0.3,0.4-0.5,0.6-0.8c0.8-1,1.5-2.1,2.2-3.2c0.2-0.3,0.4-0.6,0.5-0.9c0.2-0.4,0.4-0.7,0.6-1.1
				c0.8-1.4,1.5-2.8,2.1-4.3c0.1-0.2,0.2-0.4,0.3-0.6c0.1-0.3,0.2-0.6,0.3-0.8c0.2-0.4,0.3-0.8,0.4-1.2c0.1-0.4,0.3-0.8,0.4-1.2
				c0.1-0.4,0.2-0.8,0.3-1.2c0.1-0.4,0.2-0.9,0.3-1.3c0,0,0-0.1,0-0.1c0.1-0.6,0.3-1.2,0.4-1.9c0.2-0.8,0.3-1.7,0.4-2.5
				c0-0.3,0.1-0.5,0.1-0.8c0-0.3,0.1-0.6,0.1-0.8c0-0.5,0.1-1,0.1-1.6c0-0.3,0-0.7,0-1V51C287.4,33.7,273.4,19.7,256.1,19.7z"/>
		</g>
		<g>
			<path class="st3" d="M114.4,200.5c0,1.9,1.5,3.4,3.4,3.4v-6.9C115.9,197.1,114.4,198.6,114.4,200.5z"/>
			<rect x="109.5" y="112.1" class="st3" width="8.4" height="1.3"/>
			<rect x="117.8" y="118.5" class="st40" width="30.8" height="76.5"/>
			<ellipse class="st40" cx="125.1" cy="112.8" rx="1.1" ry="1.1"/>
			<rect x="117.8" y="112.1" class="st40" width="3.3" height="1.3"/>
			<path class="st40" d="M121.3,200.5c0-1.9-1.5-3.4-3.4-3.4v6.9C119.7,203.9,121.3,202.4,121.3,200.5z"/>
			<rect x="87" y="118.5" class="st3" width="30.8" height="76.5"/>
			<path class="st47" d="M88.9,107.4c-2.9,0-5.3,2.4-5.3,5.3v88.1c0,2.9,2.4,5.3,5.3,5.3h28.9v-1.5v-0.6c-1.9,0-3.4-1.5-3.4-3.4
				c0-1.9,1.5-3.4,3.4-3.4V195H87v-76.5h30.8v-5.1h-8.4v-1.3h8.4v-1.1v-3.7H88.9z"/>
			<path class="st46" d="M146.7,107.4h-28.9v3.7v1.1h3.3v1.3h-3.3v5.1h30.8V195h-30.8v2.1c1.9,0,3.4,1.5,3.4,3.4
				c0,1.9-1.5,3.4-3.4,3.4v0.6v1.5h28.9c2.9,0,5.3-2.4,5.3-5.3v-88.1C152,109.8,149.6,107.4,146.7,107.4z M125.1,113.9
				c-0.6,0-1.1-0.5-1.1-1.1c0-0.6,0.5-1.1,1.1-1.1c0.6,0,1.1,0.5,1.1,1.1C126.2,113.4,125.7,113.9,125.1,113.9z"/>
		</g>
		<g>
			<rect x="378.9" y="133.4" class="st3" width="6.5" height="1.4"/>
			<path class="st3" d="M382.1,190.5c0,1.8,1.5,3.3,3.3,3.3h0v-6.5h0C383.6,187.2,382.1,188.7,382.1,190.5z"/>
			<rect x="370.1" y="138.1" class="st3" width="15.3" height="45.9"/>
			<g>
				<rect x="385.4" y="138.1" class="st40" width="15.3" height="45.9"/>
				<path class="st40" d="M385.4,187.2v6.5c1.8,0,3.3-1.5,3.3-3.3C388.6,188.7,387.2,187.2,385.4,187.2z"/>
				<rect x="385.4" y="133.4" class="st40" width="6.5" height="1.4"/>
				<ellipse class="st40" cx="396.2" cy="134.2" rx="1.2" ry="1.2"/>
			</g>
			<path class="st46" d="M399.4,129.9h-14v1.9v1.6h6.5v1.4h-6.5v3.3h15.3V184h-15.3v3.2c1.8,0,3.3,1.5,3.3,3.3
				c0,1.8-1.5,3.3-3.3,3.3v1.6v1.3h14c2.7,0,4.9-2.2,4.9-4.9v-57.1C404.3,132.1,402.1,129.9,399.4,129.9z M396.2,135.4
				c-0.7,0-1.2-0.6-1.2-1.2c0-0.7,0.6-1.2,1.2-1.2c0.7,0,1.3,0.6,1.3,1.2C397.5,134.9,396.9,135.4,396.2,135.4z"/>
			<path class="st47" d="M371.3,129.9c-2.7,0-4.9,2.2-4.9,4.9v57.1c0,2.7,2.2,4.9,4.9,4.9h14.1v-1.3v-1.6h0c-1.8,0-3.3-1.5-3.3-3.3
				c0-1.8,1.5-3.3,3.3-3.3h0V184h-15.3v-45.9h15.3v-3.3h-6.5v-1.4h6.5v-1.6v-1.9H371.3z"/>
		</g>
	</g>
</g>
<g id="Iconos">
</g>
</svg>
