<?xml version="1.0" encoding="utf-8"?>
<!-- Generator: Adobe Illustrator 20.1.0, SVG Export Plug-In . SVG Version: 6.00 Build 0)  -->
<svg version="1.1" xmlns="http://www.w3.org/2000/svg" xmlns:xlink="http://www.w3.org/1999/xlink" x="0px" y="0px"
	 viewBox="0 0 512 131" style="enable-background:new 0 0 512 131;" xml:space="preserve">
<style type="text/css">
	.st0{clip-path:url(#SVGID_4_);}
	.st1{fill:#201F23;}
	.st2{fill:url(#SVGID_5_);}
	.st3{fill:#DBDCDD;}
	.st4{opacity:0.9;fill:#EAA330;}
	.st5{fill:#87BC42;}
	.st6{fill:#FFFFFF;}
	.st7{opacity:0.9;fill:#201F23;}
	.st8{opacity:0.7;fill:#201F23;}
	.st9{fill:url(#SVGID_6_);}
	.st10{fill:url(#SVGID_7_);}
	.st11{fill:url(#SVGID_8_);}
	.st12{fill:url(#SVGID_9_);}
	.st13{fill:url(#SVGID_10_);}
	.st14{fill:url(#SVGID_11_);}
	.st15{fill:none;stroke:#DBDCDD;stroke-width:3;stroke-linecap:round;stroke-miterlimit:10;}
	.st16{fill:#5D5D5D;}
	.st17{opacity:0.4;fill:#FFFFFF;}
	.st18{fill:none;stroke:#B9B9B9;stroke-width:12;stroke-linejoin:round;stroke-miterlimit:10;}
	.st19{fill:none;stroke:#6A9642;stroke-width:14;stroke-miterlimit:10;}
	.st20{fill:none;stroke:#FFFFFF;stroke-width:12;stroke-linejoin:round;stroke-miterlimit:10;}
	.st21{fill:url(#SVGID_12_);}
	.st22{fill:#6AAF42;}
	.st23{fill:none;stroke:#FFFFFF;stroke-width:2.0274;stroke-miterlimit:10;stroke-dasharray:3.379;}
	.st24{fill:none;stroke:#FFFFFF;stroke-width:2.0274;stroke-miterlimit:10;stroke-dasharray:7;}
	.st25{fill:url(#SVGID_13_);}
	.st26{fill:#6A9642;}
	.st27{fill:#504F54;}
	.st28{opacity:0.8;}
	.st29{fill:none;}
	.st30{fill:#333333;}
	.st31{fill:none;stroke:#B9B9B9;stroke-width:12;stroke-miterlimit:10;}
	.st32{fill:#EAA330;}
	.st33{fill:#2D2C30;}
	.st34{fill:#CED0D1;}
	.st35{fill:#35903A;}
	.st36{fill:#CECFD0;}
	.st37{fill:#4E893F;}
	.st38{fill:#58595B;}
	.st39{fill:#272A2D;}
	.st40{fill:url(#SVGID_14_);}
	.st41{fill:none;stroke:#FFFFFF;stroke-miterlimit:10;}
	.st42{fill:#EEE0AD;}
	.st43{fill:#CDC297;}
	.st44{fill:#BEBFC5;}
	.st45{fill:#AAA9AF;}
	.st46{fill:#DADBDC;}
	.st47{fill:none;stroke:#FFFFFF;stroke-width:2.0274;stroke-miterlimit:10;}
	.st48{fill:none;stroke:#FFFFFF;stroke-width:2.0274;stroke-miterlimit:10;stroke-dasharray:7.054,7.054;}
	.st49{fill:#CDCFD0;}
	.st50{fill:#102D40;}
	.st51{fill:#264860;}
	.st52{clip-path:url(#SVGID_16_);}
	.st53{fill:#E8BD98;}
	.st54{fill:#E76D4A;}
	.st55{fill:#543E36;}
	.st56{fill:#C34628;}
	.st57{clip-path:url(#SVGID_18_);}
	.st58{fill:none;stroke:#FFFFFF;stroke-width:2.2466;stroke-miterlimit:10;stroke-dasharray:3.7443;}
	.st59{clip-path:url(#SVGID_20_);fill:#98ABB7;}
	.st60{clip-path:url(#SVGID_20_);}
	.st61{fill:#421800;}
	.st62{fill:#ECCCB0;}
	.st63{fill:#B34FC5;}
	.st64{fill:#E3E8EE;}
	.st65{opacity:0.5;clip-path:url(#SVGID_20_);fill:#ECCCB0;}
	.st66{clip-path:url(#SVGID_22_);fill:#3EA1BD;}
	.st67{clip-path:url(#SVGID_22_);}
	.st68{fill:#A17561;}
	.st69{fill:#141720;}
	.st70{clip-path:url(#SVGID_22_);fill:#FFFFFF;}
	.st71{opacity:0.5;clip-path:url(#SVGID_22_);fill:#E8BD98;}
	.st72{clip-path:url(#SVGID_24_);}
	.st73{fill:#C55D3F;}
	.st74{clip-path:url(#SVGID_24_);fill:#E8BD98;}
	.st75{clip-path:url(#SVGID_24_);fill:#C7D4E2;}
	.st76{clip-path:url(#SVGID_24_);fill:#543E36;}
	.st77{clip-path:url(#SVGID_24_);fill:#1A1A1A;}
	.st78{fill:#435363;}
	.st79{opacity:0.5;clip-path:url(#SVGID_24_);fill:#E8BD98;}
	.st80{clip-path:url(#SVGID_26_);fill:#98ABB7;}
	.st81{clip-path:url(#SVGID_26_);}
	.st82{opacity:0.5;clip-path:url(#SVGID_26_);fill:#ECCCB0;}
	.st83{clip-path:url(#SVGID_28_);fill:#3EA1BD;}
	.st84{clip-path:url(#SVGID_28_);}
	.st85{clip-path:url(#SVGID_28_);fill:#FFFFFF;}
	.st86{opacity:0.5;clip-path:url(#SVGID_28_);fill:#E8BD98;}
	.st87{clip-path:url(#SVGID_30_);}
	.st88{clip-path:url(#SVGID_30_);fill:#E8BD98;}
	.st89{clip-path:url(#SVGID_30_);fill:#C7D4E2;}
	.st90{clip-path:url(#SVGID_30_);fill:#543E36;}
	.st91{clip-path:url(#SVGID_30_);fill:#1A1A1A;}
	.st92{opacity:0.5;clip-path:url(#SVGID_30_);fill:#E8BD98;}
	.st93{clip-path:url(#SVGID_32_);fill:#006F34;}
	.st94{clip-path:url(#SVGID_32_);}
	.st95{fill:#B3D033;}
	.st96{fill:#BD7E52;}
	.st97{fill:#B0B3B4;}
	.st98{fill:#8A8D8F;}
	.st99{fill:#D1D3D4;}
	.st100{fill:#787B7D;}
	.st101{fill:#B7BABB;}
	.st102{fill:#91A0A1;}
	.st103{clip-path:url(#SVGID_34_);fill:#006F34;}
	.st104{clip-path:url(#SVGID_34_);}
	.st105{fill:#BFC1C2;}
	.st106{fill:#313034;}
	.st107{fill:url(#SVGID_35_);}
	.st108{fill:#B9B9B9;}
	.st109{fill:#ACAEB0;}
	.st110{fill:#BBBDBE;}
	.st111{fill:#96989A;}
	.st112{fill:#CFD0D1;}
	.st113{fill:#B7B9BB;}
	.st114{fill:#919395;}
	.st115{fill-rule:evenodd;clip-rule:evenodd;fill:#CED0D1;}
	.st116{fill-rule:evenodd;clip-rule:evenodd;fill:#FFFFFF;}
	.st117{fill:url(#SVGID_36_);}
	.st118{fill:url(#SVGID_37_);}
	.st119{fill:#F3F3F3;}
	.st120{fill:#231F20;}
	.st121{fill:url(#SVGID_38_);}
	.st122{fill:url(#SVGID_39_);}
	.st123{fill:url(#SVGID_40_);}
	.st124{fill:url(#SVGID_41_);}
	.st125{fill:url(#SVGID_42_);}
	.st126{fill:url(#SVGID_43_);}
	.st127{fill:url(#SVGID_44_);}
	.st128{fill:url(#SVGID_45_);}
	.st129{fill:url(#SVGID_46_);}
	.st130{fill:url(#SVGID_47_);}
	.st131{fill:url(#SVGID_48_);}
	.st132{fill:url(#SVGID_49_);}
	.st133{fill:url(#SVGID_50_);}
	.st134{fill:url(#SVGID_51_);}
	.st135{fill:url(#SVGID_52_);}
	.st136{fill:url(#SVGID_53_);}
	.st137{opacity:0.8;fill:#F3F3F3;}
	.st138{clip-path:url(#SVGID_55_);}
	.st139{clip-path:url(#SVGID_57_);fill:#98ABB7;}
	.st140{clip-path:url(#SVGID_57_);}
	.st141{opacity:0.5;clip-path:url(#SVGID_57_);fill:#ECCCB0;}
	.st142{clip-path:url(#SVGID_59_);fill:#3EA1BD;}
	.st143{clip-path:url(#SVGID_59_);}
	.st144{clip-path:url(#SVGID_59_);fill:#FFFFFF;}
	.st145{opacity:0.5;clip-path:url(#SVGID_59_);fill:#E8BD98;}
	.st146{clip-path:url(#SVGID_61_);}
	.st147{clip-path:url(#SVGID_61_);fill:#E8BD98;}
	.st148{clip-path:url(#SVGID_61_);fill:#C7D4E2;}
	.st149{clip-path:url(#SVGID_61_);fill:#543E36;}
	.st150{clip-path:url(#SVGID_61_);fill:#1A1A1A;}
	.st151{opacity:0.5;clip-path:url(#SVGID_61_);fill:#E8BD98;}
	.st152{fill:none;stroke:#5D5D5D;stroke-width:3;stroke-linecap:round;stroke-miterlimit:10;}
	.st153{fill:none;stroke:#201F23;stroke-width:5;stroke-miterlimit:10;}
	.st154{fill:none;stroke:#201F23;stroke-width:4.2064;stroke-linecap:round;stroke-miterlimit:10;}
	.st155{fill:none;stroke:#201F23;stroke-miterlimit:10;}
	.st156{fill:#B9BBBC;}
	.st157{fill:#F0F1F1;}
	.st158{fill:#98999C;}
	.st159{fill:#B9BABC;}
	.st160{fill:#E2E2E3;}
	.st161{fill:#D1D1D2;}
	.st162{fill:#2E2D31;}
	.st163{fill:#1F1E21;}
	.st164{fill:#5D5C61;}
	.st165{fill:#4A4A4E;}
	.st166{fill:#88BD42;}
	.st167{opacity:0.6;}
	.st168{fill:#6A9742;}
	.st169{fill:#5F893B;}
	.st170{fill:none;stroke:#CFD0D1;stroke-width:4;stroke-linecap:round;stroke-miterlimit:10;}
	.st171{fill:#E09400;}
	.st172{fill:#F0EABC;}
	.st173{fill:#FFC843;}
	.st174{fill:#DDA070;}
	.st175{fill:none;stroke:#FFFFFF;stroke-width:4;stroke-linecap:round;stroke-miterlimit:10;}
	.st176{fill:none;stroke:#CFD0D1;stroke-width:2.5756;stroke-linecap:round;stroke-miterlimit:10;}
	.st177{fill:none;stroke:#FFFFFF;stroke-width:2.5756;stroke-linecap:round;stroke-miterlimit:10;}
	.st178{fill:#BCBDBE;}
	.st179{fill:#9C9EA0;}
	.st180{fill:#B3B5B6;}
	.st181{fill:#282828;}
</style>
<g id="Fondo">
</g>
<g id="Diseño">
	<rect class="st5" width="512" height="131"/>
	<g>
		<rect x="99" y="66.8" class="st29" width="314" height="53.6"/>
		<path class="st1" d="M101.7,81.4c0.4,0.6,0.9,1.1,1.6,1.4c0.6,0.3,1.3,0.4,2,0.4c0.4,0,0.8-0.1,1.2-0.2c0.4-0.1,0.8-0.3,1.1-0.5
			s0.6-0.5,0.8-0.9c0.2-0.4,0.3-0.8,0.3-1.2c0-0.7-0.2-1.2-0.6-1.5c-0.4-0.3-0.9-0.6-1.5-0.9c-0.6-0.2-1.3-0.5-2-0.7
			c-0.7-0.2-1.4-0.5-2-0.9s-1.1-0.9-1.5-1.5c-0.4-0.6-0.6-1.5-0.6-2.6c0-0.5,0.1-1,0.3-1.6c0.2-0.6,0.6-1.1,1-1.5s1.1-0.9,1.8-1.2
			c0.7-0.3,1.6-0.5,2.6-0.5c0.9,0,1.8,0.1,2.7,0.4c0.8,0.3,1.6,0.8,2.2,1.6l-1.9,1.7c-0.3-0.4-0.7-0.8-1.2-1.1
			c-0.5-0.3-1.1-0.4-1.8-0.4c-0.6,0-1.2,0.1-1.6,0.3s-0.8,0.4-1,0.6c-0.3,0.3-0.4,0.5-0.5,0.9c-0.1,0.3-0.2,0.6-0.2,0.8
			c0,0.7,0.2,1.3,0.6,1.7c0.4,0.4,0.9,0.7,1.5,0.9s1.3,0.5,2,0.6c0.7,0.2,1.4,0.5,2,0.8c0.6,0.3,1.1,0.8,1.5,1.4
			c0.4,0.6,0.6,1.4,0.6,2.4c0,0.8-0.2,1.6-0.5,2.2c-0.3,0.7-0.7,1.2-1.3,1.7c-0.5,0.4-1.2,0.8-1.9,1c-0.7,0.2-1.5,0.4-2.3,0.4
			c-1.1,0-2.1-0.2-3.1-0.6c-1-0.4-1.8-1-2.3-1.8L101.7,81.4z"/>
		<path class="st1" d="M115.6,80c0,0.5,0.1,0.9,0.3,1.4s0.5,0.8,0.9,1c0.4,0.3,0.8,0.5,1.2,0.7c0.5,0.2,0.9,0.2,1.4,0.2
			c0.7,0,1.3-0.2,1.8-0.5c0.5-0.3,1-0.7,1.4-1.2l1.6,1.2c-1.2,1.6-2.9,2.3-5,2.3c-0.9,0-1.7-0.2-2.4-0.5c-0.7-0.3-1.3-0.7-1.8-1.3
			s-0.9-1.2-1.2-1.9c-0.3-0.7-0.4-1.5-0.4-2.4c0-0.8,0.1-1.6,0.4-2.4c0.3-0.7,0.7-1.4,1.2-1.9c0.5-0.5,1.1-1,1.9-1.3
			c0.7-0.3,1.5-0.5,2.4-0.5c1,0,1.9,0.2,2.6,0.5c0.7,0.4,1.3,0.8,1.7,1.4c0.4,0.6,0.8,1.2,1,1.9s0.3,1.4,0.3,2.2V80H115.6z
			 M122.4,78.3c0-0.5-0.1-0.9-0.2-1.3c-0.1-0.4-0.3-0.7-0.6-1c-0.3-0.3-0.6-0.5-1-0.7s-0.9-0.3-1.4-0.3c-0.5,0-1,0.1-1.5,0.3
			s-0.8,0.5-1.1,0.8c-0.3,0.3-0.5,0.7-0.7,1.1c-0.2,0.4-0.3,0.8-0.3,1.2H122.4z"/>
		<path class="st1" d="M133.8,69.4c0-0.4,0.2-0.8,0.5-1.1c0.3-0.3,0.7-0.5,1.1-0.5s0.8,0.2,1.1,0.5c0.3,0.3,0.5,0.7,0.5,1.1
			s-0.2,0.8-0.5,1.1c-0.3,0.3-0.7,0.5-1.1,0.5s-0.8-0.2-1.1-0.5C133.9,70.3,133.8,69.9,133.8,69.4z M134.3,73.5h2.2v11.4h-2.2V73.5z
			"/>
		<path class="st1" d="M139.9,73.5h2.2v1.8h0c0.3-0.6,0.7-1.1,1.4-1.5s1.4-0.6,2.3-0.6c0.5,0,1.1,0.1,1.6,0.3s0.9,0.4,1.3,0.8
			s0.7,0.8,0.9,1.4c0.2,0.6,0.3,1.2,0.3,2v7.3h-2.2v-6.7c0-0.5-0.1-1-0.2-1.4c-0.1-0.4-0.3-0.7-0.6-0.9c-0.2-0.2-0.5-0.4-0.8-0.5
			c-0.3-0.1-0.6-0.2-1-0.2c-0.4,0-0.9,0.1-1.2,0.2c-0.4,0.1-0.7,0.4-1,0.7c-0.3,0.3-0.5,0.7-0.7,1.2c-0.2,0.5-0.2,1-0.2,1.7v5.9
			h-2.2V73.5z"/>
		<path class="st1" d="M159.3,76.4c-0.3-0.3-0.6-0.6-0.9-0.8c-0.4-0.2-0.8-0.3-1.4-0.3c-0.5,0-1,0.1-1.3,0.3s-0.6,0.5-0.6,0.9
			c0,0.3,0.1,0.6,0.3,0.8s0.5,0.4,0.8,0.5s0.6,0.2,0.9,0.3c0.3,0.1,0.6,0.1,0.9,0.2c0.5,0.1,0.9,0.2,1.3,0.4
			c0.4,0.2,0.8,0.4,1.1,0.6c0.3,0.3,0.5,0.6,0.7,0.9s0.3,0.8,0.3,1.3c0,0.6-0.1,1.2-0.4,1.6c-0.3,0.5-0.6,0.8-1.1,1.1
			s-0.9,0.5-1.5,0.6c-0.6,0.1-1.1,0.2-1.7,0.2c-0.9,0-1.8-0.1-2.5-0.4c-0.7-0.3-1.3-0.8-1.9-1.6l1.6-1.3c0.4,0.4,0.7,0.7,1.2,0.9
			c0.4,0.3,1,0.4,1.6,0.4c0.3,0,0.5,0,0.8-0.1c0.3-0.1,0.5-0.1,0.7-0.3s0.4-0.3,0.5-0.5c0.1-0.2,0.2-0.4,0.2-0.6
			c0-0.3-0.1-0.6-0.3-0.8c-0.2-0.2-0.4-0.4-0.7-0.5c-0.3-0.1-0.6-0.2-0.9-0.3c-0.3-0.1-0.6-0.1-0.8-0.2c-0.5-0.1-0.9-0.2-1.3-0.4
			c-0.4-0.1-0.8-0.3-1.1-0.6s-0.6-0.5-0.8-0.9c-0.2-0.4-0.3-0.8-0.3-1.4c0-0.6,0.1-1.1,0.4-1.5c0.2-0.4,0.6-0.8,1-1.1
			s0.9-0.5,1.4-0.6c0.5-0.1,1-0.2,1.6-0.2c0.8,0,1.5,0.1,2.2,0.4c0.7,0.3,1.3,0.8,1.7,1.4L159.3,76.4z"/>
		<path class="st1" d="M170,75.4h-3.1v5.2c0,0.3,0,0.6,0,0.9c0,0.3,0.1,0.6,0.2,0.8c0.1,0.2,0.3,0.4,0.5,0.6
			c0.2,0.2,0.5,0.2,0.9,0.2c0.3,0,0.5,0,0.8-0.1c0.3,0,0.5-0.1,0.7-0.3v2c-0.3,0.1-0.6,0.2-1,0.3c-0.4,0.1-0.7,0.1-0.9,0.1
			c-0.8,0-1.5-0.1-1.9-0.3c-0.5-0.2-0.8-0.5-1-0.9s-0.3-0.8-0.4-1.2c0-0.5-0.1-0.9-0.1-1.4v-5.9h-2.5v-1.9h2.5v-3.2h2.2v3.2h3.1
			V75.4z"/>
		<path class="st1" d="M172.8,74.9c0.6-0.6,1.3-1,2.1-1.3c0.8-0.3,1.6-0.4,2.4-0.4c0.8,0,1.5,0.1,2.1,0.3c0.6,0.2,1.1,0.5,1.5,0.8
			c0.4,0.4,0.7,0.8,0.9,1.2c0.2,0.5,0.3,0.9,0.3,1.4v5.8c0,0.4,0,0.8,0,1.1s0,0.7,0.1,1h-1.9c0-0.6-0.1-1.2-0.1-1.7h0
			c-0.5,0.7-1,1.3-1.7,1.6s-1.4,0.5-2.3,0.5c-0.5,0-1-0.1-1.5-0.2c-0.5-0.1-0.9-0.4-1.3-0.6c-0.4-0.3-0.6-0.6-0.9-1.1
			s-0.3-0.9-0.3-1.5c0-0.7,0.2-1.4,0.5-1.8c0.3-0.5,0.8-0.9,1.3-1.2c0.6-0.3,1.2-0.5,2-0.7c0.8-0.1,1.6-0.2,2.4-0.2h1.6v-0.5
			c0-0.3-0.1-0.6-0.2-0.9s-0.3-0.5-0.5-0.8c-0.2-0.2-0.5-0.4-0.8-0.6c-0.3-0.1-0.7-0.2-1.2-0.2c-0.4,0-0.8,0-1.1,0.1
			c-0.3,0.1-0.6,0.2-0.9,0.3c-0.3,0.1-0.5,0.3-0.7,0.4s-0.4,0.3-0.6,0.5L172.8,74.9z M178.9,79.4c-0.5,0-1,0-1.6,0.1
			c-0.5,0.1-1,0.2-1.5,0.3c-0.4,0.2-0.8,0.4-1.1,0.7c-0.3,0.3-0.4,0.7-0.4,1.1c0,0.7,0.2,1.1,0.7,1.4c0.4,0.3,1,0.4,1.8,0.4
			c0.6,0,1.1-0.1,1.5-0.3c0.4-0.2,0.8-0.5,1-0.8c0.3-0.3,0.4-0.7,0.6-1.1c0.1-0.4,0.2-0.8,0.2-1.2v-0.7H178.9z"/>
		<path class="st1" d="M185.4,66.8h2.2v18.1h-2.2V66.8z"/>
		<path class="st1" d="M191,74.9c0.6-0.6,1.3-1,2.1-1.3c0.8-0.3,1.6-0.4,2.4-0.4c0.8,0,1.5,0.1,2.1,0.3c0.6,0.2,1.1,0.5,1.5,0.8
			c0.4,0.4,0.7,0.8,0.9,1.2c0.2,0.5,0.3,0.9,0.3,1.4v5.8c0,0.4,0,0.8,0,1.1s0,0.7,0.1,1h-1.9c0-0.6-0.1-1.2-0.1-1.7h0
			c-0.5,0.7-1,1.3-1.7,1.6s-1.4,0.5-2.3,0.5c-0.5,0-1-0.1-1.5-0.2c-0.5-0.1-0.9-0.4-1.3-0.6c-0.4-0.3-0.6-0.6-0.9-1.1
			s-0.3-0.9-0.3-1.5c0-0.7,0.2-1.4,0.5-1.8c0.3-0.5,0.8-0.9,1.3-1.2c0.6-0.3,1.2-0.5,2-0.7c0.8-0.1,1.6-0.2,2.4-0.2h1.6v-0.5
			c0-0.3-0.1-0.6-0.2-0.9s-0.3-0.5-0.5-0.8c-0.2-0.2-0.5-0.4-0.8-0.6c-0.3-0.1-0.7-0.2-1.2-0.2c-0.4,0-0.8,0-1.1,0.1
			c-0.3,0.1-0.6,0.2-0.9,0.3c-0.3,0.1-0.5,0.3-0.7,0.4s-0.4,0.3-0.6,0.5L191,74.9z M197.1,79.4c-0.5,0-1,0-1.6,0.1
			c-0.5,0.1-1,0.2-1.5,0.3c-0.4,0.2-0.8,0.4-1.1,0.7c-0.3,0.3-0.4,0.7-0.4,1.1c0,0.7,0.2,1.1,0.7,1.4c0.4,0.3,1,0.4,1.8,0.4
			c0.6,0,1.1-0.1,1.5-0.3c0.4-0.2,0.8-0.5,1-0.8c0.3-0.3,0.4-0.7,0.6-1.1c0.1-0.4,0.2-0.8,0.2-1.2v-0.7H197.1z"/>
		<path class="st1" d="M210.4,66.8h2.2v18.1h-2.2V66.8z"/>
		<path class="st1" d="M215.4,79.2c0-0.8,0.2-1.6,0.5-2.3c0.3-0.7,0.7-1.4,1.3-1.9s1.2-1,1.9-1.3c0.7-0.3,1.5-0.5,2.4-0.5
			c0.8,0,1.6,0.2,2.4,0.5c0.7,0.3,1.4,0.7,1.9,1.3s1,1.2,1.3,1.9c0.3,0.7,0.5,1.5,0.5,2.3c0,0.8-0.2,1.6-0.5,2.3
			c-0.3,0.7-0.7,1.4-1.3,1.9s-1.2,1-1.9,1.3c-0.7,0.3-1.5,0.5-2.4,0.5c-0.8,0-1.6-0.2-2.4-0.5c-0.7-0.3-1.4-0.7-1.9-1.3
			s-1-1.2-1.3-1.9C215.6,80.8,215.4,80,215.4,79.2z M217.7,79.2c0,0.6,0.1,1.1,0.3,1.6c0.2,0.5,0.4,0.9,0.7,1.2s0.7,0.6,1.2,0.8
			c0.5,0.2,1,0.3,1.6,0.3s1.1-0.1,1.6-0.3c0.5-0.2,0.9-0.5,1.2-0.8c0.3-0.3,0.6-0.8,0.7-1.2c0.2-0.5,0.3-1,0.3-1.6
			c0-0.6-0.1-1.1-0.3-1.6c-0.2-0.5-0.4-0.9-0.7-1.2c-0.3-0.3-0.7-0.6-1.2-0.8c-0.5-0.2-1-0.3-1.6-0.3s-1.1,0.1-1.6,0.3
			c-0.5,0.2-0.9,0.5-1.2,0.8c-0.3,0.3-0.6,0.8-0.7,1.2C217.8,78.1,217.7,78.6,217.7,79.2z"/>
		<path class="st1" d="M238.4,76.6c-0.4-0.4-0.8-0.7-1.3-0.9s-1-0.3-1.6-0.3c-0.6,0-1.1,0.1-1.5,0.3s-0.8,0.5-1.1,0.9
			c-0.3,0.4-0.5,0.8-0.7,1.3c-0.2,0.5-0.2,1-0.2,1.5c0,0.5,0.1,1,0.3,1.5c0.2,0.5,0.4,0.9,0.7,1.2c0.3,0.4,0.7,0.6,1.2,0.8
			c0.4,0.2,1,0.3,1.5,0.3c0.6,0,1.1-0.1,1.6-0.3c0.4-0.2,0.8-0.5,1.2-0.9l1.5,1.5c-0.6,0.6-1.2,1.1-2,1.3c-0.7,0.3-1.5,0.4-2.4,0.4
			c-0.9,0-1.7-0.1-2.4-0.4c-0.7-0.3-1.4-0.7-1.9-1.2c-0.5-0.5-0.9-1.1-1.2-1.9c-0.3-0.7-0.4-1.5-0.4-2.4s0.1-1.7,0.4-2.4
			c0.3-0.7,0.7-1.4,1.2-1.9c0.5-0.5,1.1-0.9,1.9-1.2c0.7-0.3,1.5-0.4,2.4-0.4c0.8,0,1.6,0.1,2.4,0.4c0.8,0.3,1.4,0.7,2,1.4
			L238.4,76.6z"/>
		<path class="st1" d="M241.9,74.9c0.6-0.6,1.3-1,2.1-1.3c0.8-0.3,1.6-0.4,2.4-0.4c0.8,0,1.5,0.1,2.1,0.3c0.6,0.2,1.1,0.5,1.5,0.8
			c0.4,0.4,0.7,0.8,0.9,1.2c0.2,0.5,0.3,0.9,0.3,1.4v5.8c0,0.4,0,0.8,0,1.1s0,0.7,0.1,1h-1.9c0-0.6-0.1-1.2-0.1-1.7h0
			c-0.5,0.7-1,1.3-1.7,1.6s-1.4,0.5-2.3,0.5c-0.5,0-1-0.1-1.5-0.2c-0.5-0.1-0.9-0.4-1.3-0.6c-0.4-0.3-0.6-0.6-0.9-1.1
			s-0.3-0.9-0.3-1.5c0-0.7,0.2-1.4,0.5-1.8c0.3-0.5,0.8-0.9,1.3-1.2c0.6-0.3,1.2-0.5,2-0.7c0.8-0.1,1.6-0.2,2.4-0.2h1.6v-0.5
			c0-0.3-0.1-0.6-0.2-0.9s-0.3-0.5-0.5-0.8c-0.2-0.2-0.5-0.4-0.8-0.6c-0.3-0.1-0.7-0.2-1.2-0.2c-0.4,0-0.8,0-1.1,0.1
			c-0.3,0.1-0.6,0.2-0.9,0.3c-0.3,0.1-0.5,0.3-0.7,0.4s-0.4,0.3-0.6,0.5L241.9,74.9z M247.9,79.4c-0.5,0-1,0-1.6,0.1
			c-0.5,0.1-1,0.2-1.5,0.3c-0.4,0.2-0.8,0.4-1.1,0.7c-0.3,0.3-0.4,0.7-0.4,1.1c0,0.7,0.2,1.1,0.7,1.4c0.4,0.3,1,0.4,1.8,0.4
			c0.6,0,1.1-0.1,1.5-0.3c0.4-0.2,0.8-0.5,1-0.8c0.3-0.3,0.4-0.7,0.6-1.1c0.1-0.4,0.2-0.8,0.2-1.2v-0.7H247.9z"/>
		<path class="st1" d="M254.4,66.8h2.2v18.1h-2.2V66.8z"/>
		<path class="st1" d="M268.4,80c0,0.5,0.1,0.9,0.3,1.4s0.5,0.8,0.9,1c0.4,0.3,0.8,0.5,1.2,0.7c0.5,0.2,0.9,0.2,1.4,0.2
			c0.7,0,1.3-0.2,1.8-0.5c0.5-0.3,1-0.7,1.4-1.2l1.6,1.2c-1.2,1.6-2.9,2.3-5,2.3c-0.9,0-1.7-0.2-2.4-0.5c-0.7-0.3-1.3-0.7-1.8-1.3
			s-0.9-1.2-1.2-1.9c-0.3-0.7-0.4-1.5-0.4-2.4c0-0.8,0.1-1.6,0.4-2.4c0.3-0.7,0.7-1.4,1.2-1.9c0.5-0.5,1.1-1,1.9-1.3
			c0.7-0.3,1.5-0.5,2.4-0.5c1,0,1.9,0.2,2.6,0.5c0.7,0.4,1.3,0.8,1.7,1.4c0.4,0.6,0.8,1.2,1,1.9s0.3,1.4,0.3,2.2V80H268.4z
			 M275.3,78.3c0-0.5-0.1-0.9-0.2-1.3c-0.1-0.4-0.3-0.7-0.6-1c-0.3-0.3-0.6-0.5-1-0.7S272.5,75,272,75c-0.5,0-1,0.1-1.5,0.3
			s-0.8,0.5-1.1,0.8c-0.3,0.3-0.5,0.7-0.7,1.1c-0.2,0.4-0.3,0.8-0.3,1.2H275.3z"/>
		<path class="st1" d="M280.2,73.5h2.2v1.8h0c0.3-0.6,0.7-1.1,1.4-1.5s1.4-0.6,2.3-0.6c0.5,0,1.1,0.1,1.6,0.3s0.9,0.4,1.3,0.8
			s0.7,0.8,0.9,1.4c0.2,0.6,0.3,1.2,0.3,2v7.3h-2.2v-6.7c0-0.5-0.1-1-0.2-1.4c-0.1-0.4-0.3-0.7-0.6-0.9c-0.2-0.2-0.5-0.4-0.8-0.5
			c-0.3-0.1-0.6-0.2-1-0.2c-0.4,0-0.9,0.1-1.2,0.2c-0.4,0.1-0.7,0.4-1,0.7c-0.3,0.3-0.5,0.7-0.7,1.2c-0.2,0.5-0.2,1-0.2,1.7v5.9
			h-2.2V73.5z"/>
		<path class="st1" d="M301.9,80c0,0.5,0.1,0.9,0.3,1.4s0.5,0.8,0.9,1c0.4,0.3,0.8,0.5,1.2,0.7c0.5,0.2,0.9,0.2,1.4,0.2
			c0.7,0,1.3-0.2,1.8-0.5c0.5-0.3,1-0.7,1.4-1.2l1.6,1.2c-1.2,1.6-2.9,2.3-5,2.3c-0.9,0-1.7-0.2-2.4-0.5c-0.7-0.3-1.3-0.7-1.8-1.3
			s-0.9-1.2-1.2-1.9c-0.3-0.7-0.4-1.5-0.4-2.4c0-0.8,0.1-1.6,0.4-2.4c0.3-0.7,0.7-1.4,1.2-1.9c0.5-0.5,1.1-1,1.9-1.3
			c0.7-0.3,1.5-0.5,2.4-0.5c1,0,1.9,0.2,2.6,0.5c0.7,0.4,1.3,0.8,1.7,1.4c0.4,0.6,0.8,1.2,1,1.9s0.3,1.4,0.3,2.2V80H301.9z
			 M308.7,78.3c0-0.5-0.1-0.9-0.2-1.3c-0.1-0.4-0.3-0.7-0.6-1c-0.3-0.3-0.6-0.5-1-0.7S306,75,305.4,75c-0.5,0-1,0.1-1.5,0.3
			s-0.8,0.5-1.1,0.8c-0.3,0.3-0.5,0.7-0.7,1.1c-0.2,0.4-0.3,0.8-0.3,1.2H308.7z"/>
		<path class="st1" d="M313.8,66.8h2.2v18.1h-2.2V66.8z"/>
		<path class="st1" d="M332.2,76.4c-0.3-0.3-0.6-0.6-0.9-0.8c-0.4-0.2-0.8-0.3-1.4-0.3c-0.5,0-1,0.1-1.3,0.3s-0.6,0.5-0.6,0.9
			c0,0.3,0.1,0.6,0.3,0.8s0.5,0.4,0.8,0.5s0.6,0.2,0.9,0.3c0.3,0.1,0.6,0.1,0.9,0.2c0.5,0.1,0.9,0.2,1.3,0.4
			c0.4,0.2,0.8,0.4,1.1,0.6c0.3,0.3,0.5,0.6,0.7,0.9s0.3,0.8,0.3,1.3c0,0.6-0.1,1.2-0.4,1.6c-0.3,0.5-0.6,0.8-1.1,1.1
			s-0.9,0.5-1.5,0.6c-0.6,0.1-1.1,0.2-1.7,0.2c-0.9,0-1.8-0.1-2.5-0.4c-0.7-0.3-1.3-0.8-1.9-1.6l1.6-1.3c0.4,0.4,0.7,0.7,1.2,0.9
			c0.4,0.3,1,0.4,1.6,0.4c0.3,0,0.5,0,0.8-0.1c0.3-0.1,0.5-0.1,0.7-0.3s0.4-0.3,0.5-0.5c0.1-0.2,0.2-0.4,0.2-0.6
			c0-0.3-0.1-0.6-0.3-0.8c-0.2-0.2-0.4-0.4-0.7-0.5c-0.3-0.1-0.6-0.2-0.9-0.3c-0.3-0.1-0.6-0.1-0.8-0.2c-0.5-0.1-0.9-0.2-1.3-0.4
			c-0.4-0.1-0.8-0.3-1.1-0.6s-0.6-0.5-0.8-0.9c-0.2-0.4-0.3-0.8-0.3-1.4c0-0.6,0.1-1.1,0.4-1.5c0.2-0.4,0.6-0.8,1-1.1
			s0.9-0.5,1.4-0.6c0.5-0.1,1-0.2,1.6-0.2c0.8,0,1.5,0.1,2.2,0.4c0.7,0.3,1.3,0.8,1.7,1.4L332.2,76.4z"/>
		<path class="st1" d="M338.5,80c0,0.5,0.1,0.9,0.3,1.4s0.5,0.8,0.9,1c0.4,0.3,0.8,0.5,1.2,0.7c0.5,0.2,0.9,0.2,1.4,0.2
			c0.7,0,1.3-0.2,1.8-0.5c0.5-0.3,1-0.7,1.4-1.2l1.6,1.2c-1.2,1.6-2.9,2.3-5,2.3c-0.9,0-1.7-0.2-2.4-0.5c-0.7-0.3-1.3-0.7-1.8-1.3
			s-0.9-1.2-1.2-1.9c-0.3-0.7-0.4-1.5-0.4-2.4c0-0.8,0.1-1.6,0.4-2.4c0.3-0.7,0.7-1.4,1.2-1.9c0.5-0.5,1.1-1,1.9-1.3
			c0.7-0.3,1.5-0.5,2.4-0.5c1,0,1.9,0.2,2.6,0.5c0.7,0.4,1.3,0.8,1.7,1.4c0.4,0.6,0.8,1.2,1,1.9s0.3,1.4,0.3,2.2V80H338.5z
			 M345.3,78.3c0-0.5-0.1-0.9-0.2-1.3c-0.1-0.4-0.3-0.7-0.6-1c-0.3-0.3-0.6-0.5-1-0.7S342.5,75,342,75c-0.5,0-1,0.1-1.5,0.3
			s-0.8,0.5-1.1,0.8c-0.3,0.3-0.5,0.7-0.7,1.1c-0.2,0.4-0.3,0.8-0.3,1.2H345.3z"/>
		<path class="st1" d="M350.2,73.5h2.2v1.8h0c0.1-0.3,0.3-0.6,0.6-0.8s0.5-0.5,0.8-0.6s0.6-0.3,1-0.4c0.4-0.1,0.7-0.2,1.1-0.2
			c0.4,0,0.7,0,1,0.1l-0.1,2.3c-0.2,0-0.4-0.1-0.5-0.1s-0.4,0-0.5,0c-1.1,0-1.9,0.3-2.4,0.9c-0.6,0.6-0.8,1.5-0.8,2.8v5.7h-2.2V73.5
			z"/>
		<path class="st1" d="M357.7,73.5h2.5l3.4,8.7l3.3-8.7h2.3l-4.5,11.4h-2.4L357.7,73.5z"/>
		<path class="st1" d="M370.7,69.4c0-0.4,0.2-0.8,0.5-1.1c0.3-0.3,0.7-0.5,1.1-0.5s0.8,0.2,1.1,0.5c0.3,0.3,0.5,0.7,0.5,1.1
			s-0.2,0.8-0.5,1.1c-0.3,0.3-0.7,0.5-1.1,0.5s-0.8-0.2-1.1-0.5C370.9,70.3,370.7,69.9,370.7,69.4z M371.2,73.5h2.2v11.4h-2.2V73.5z
			"/>
		<path class="st1" d="M388.2,84.9h-2.2v-1.6h0c-0.4,0.6-1,1.1-1.7,1.4c-0.7,0.3-1.5,0.5-2.2,0.5c-0.9,0-1.7-0.2-2.4-0.5
			s-1.3-0.7-1.8-1.3c-0.5-0.5-0.9-1.2-1.2-1.9c-0.3-0.7-0.4-1.5-0.4-2.4c0-0.8,0.1-1.6,0.4-2.4c0.3-0.7,0.7-1.4,1.2-1.9
			c0.5-0.5,1.1-1,1.8-1.3s1.5-0.5,2.4-0.5c0.8,0,1.6,0.2,2.3,0.5c0.7,0.3,1.3,0.8,1.7,1.4h0v-8.4h2.2V84.9z M382.3,83.2
			c0.6,0,1.1-0.1,1.6-0.3c0.5-0.2,0.9-0.5,1.2-0.8c0.3-0.3,0.6-0.8,0.7-1.2c0.2-0.5,0.3-1,0.3-1.6c0-0.6-0.1-1.1-0.3-1.6
			c-0.2-0.5-0.4-0.9-0.7-1.2c-0.3-0.3-0.7-0.6-1.2-0.8c-0.5-0.2-1-0.3-1.6-0.3s-1.1,0.1-1.6,0.3c-0.5,0.2-0.9,0.5-1.2,0.8
			c-0.3,0.3-0.6,0.8-0.7,1.2c-0.2,0.5-0.3,1-0.3,1.6c0,0.6,0.1,1.1,0.3,1.6c0.2,0.5,0.4,0.9,0.7,1.2s0.7,0.6,1.2,0.8
			C381.2,83.1,381.7,83.2,382.3,83.2z"/>
		<path class="st1" d="M390.9,79.2c0-0.8,0.2-1.6,0.5-2.3c0.3-0.7,0.7-1.4,1.3-1.9s1.2-1,1.9-1.3c0.7-0.3,1.5-0.5,2.4-0.5
			c0.8,0,1.6,0.2,2.4,0.5c0.7,0.3,1.4,0.7,1.9,1.3s1,1.2,1.3,1.9c0.3,0.7,0.5,1.5,0.5,2.3c0,0.8-0.2,1.6-0.5,2.3
			c-0.3,0.7-0.7,1.4-1.3,1.9s-1.2,1-1.9,1.3c-0.7,0.3-1.5,0.5-2.4,0.5c-0.8,0-1.6-0.2-2.4-0.5c-0.7-0.3-1.4-0.7-1.9-1.3
			s-1-1.2-1.3-1.9C391.1,80.8,390.9,80,390.9,79.2z M393.2,79.2c0,0.6,0.1,1.1,0.3,1.6c0.2,0.5,0.4,0.9,0.7,1.2s0.7,0.6,1.2,0.8
			c0.5,0.2,1,0.3,1.6,0.3s1.1-0.1,1.6-0.3c0.5-0.2,0.9-0.5,1.2-0.8c0.3-0.3,0.6-0.8,0.7-1.2c0.2-0.5,0.3-1,0.3-1.6
			c0-0.6-0.1-1.1-0.3-1.6c-0.2-0.5-0.4-0.9-0.7-1.2c-0.3-0.3-0.7-0.6-1.2-0.8c-0.5-0.2-1-0.3-1.6-0.3s-1.1,0.1-1.6,0.3
			c-0.5,0.2-0.9,0.5-1.2,0.8c-0.3,0.3-0.6,0.8-0.7,1.2C393.3,78.1,393.2,78.6,393.2,79.2z"/>
		<path class="st1" d="M405.7,73.5h2.2v1.8h0c0.1-0.3,0.3-0.6,0.6-0.8s0.5-0.5,0.8-0.6s0.6-0.3,1-0.4c0.4-0.1,0.7-0.2,1.1-0.2
			c0.4,0,0.7,0,1,0.1l-0.1,2.3c-0.2,0-0.4-0.1-0.5-0.1s-0.4,0-0.5,0c-1.1,0-1.9,0.3-2.4,0.9c-0.6,0.6-0.8,1.5-0.8,2.8v5.7h-2.2V73.5
			z"/>
		<path class="st1" d="M127.9,113.7h-2.2v-1.6h0c-0.4,0.6-1,1.1-1.7,1.4c-0.7,0.3-1.5,0.5-2.2,0.5c-0.9,0-1.7-0.2-2.4-0.5
			s-1.3-0.7-1.8-1.3c-0.5-0.5-0.9-1.2-1.2-1.9c-0.3-0.7-0.4-1.5-0.4-2.4c0-0.8,0.1-1.6,0.4-2.4c0.3-0.7,0.7-1.4,1.2-1.9
			c0.5-0.5,1.1-1,1.8-1.3s1.5-0.5,2.4-0.5c0.8,0,1.6,0.2,2.3,0.5c0.7,0.3,1.3,0.8,1.7,1.4h0v-8.4h2.2V113.7z M122,112
			c0.6,0,1.1-0.1,1.6-0.3c0.5-0.2,0.9-0.5,1.2-0.8c0.3-0.3,0.6-0.8,0.7-1.2c0.2-0.5,0.3-1,0.3-1.6c0-0.6-0.1-1.1-0.3-1.6
			c-0.2-0.5-0.4-0.9-0.7-1.2c-0.3-0.3-0.7-0.6-1.2-0.8c-0.5-0.2-1-0.3-1.6-0.3s-1.1,0.1-1.6,0.3c-0.5,0.2-0.9,0.5-1.2,0.8
			c-0.3,0.3-0.6,0.8-0.7,1.2c-0.2,0.5-0.3,1-0.3,1.6c0,0.6,0.1,1.1,0.3,1.6c0.2,0.5,0.4,0.9,0.7,1.2s0.7,0.6,1.2,0.8
			C120.9,111.9,121.4,112,122,112z"/>
		<path class="st1" d="M132.8,108.8c0,0.5,0.1,0.9,0.3,1.4s0.5,0.8,0.9,1c0.4,0.3,0.8,0.5,1.2,0.7c0.5,0.2,0.9,0.2,1.4,0.2
			c0.7,0,1.3-0.2,1.8-0.5c0.5-0.3,1-0.7,1.4-1.2l1.6,1.2c-1.2,1.6-2.9,2.3-5,2.3c-0.9,0-1.7-0.2-2.4-0.5c-0.7-0.3-1.3-0.7-1.8-1.3
			s-0.9-1.2-1.2-1.9c-0.3-0.7-0.4-1.5-0.4-2.4c0-0.8,0.1-1.6,0.4-2.4c0.3-0.7,0.7-1.4,1.2-1.9c0.5-0.5,1.1-1,1.9-1.3
			c0.7-0.3,1.5-0.5,2.4-0.5c1,0,1.9,0.2,2.6,0.5c0.7,0.4,1.3,0.8,1.7,1.4c0.4,0.6,0.8,1.2,1,1.9s0.3,1.4,0.3,2.2v0.8H132.8z
			 M139.6,107.1c0-0.5-0.1-0.9-0.2-1.3c-0.1-0.4-0.3-0.7-0.6-1c-0.3-0.3-0.6-0.5-1-0.7s-0.9-0.3-1.4-0.3c-0.5,0-1,0.1-1.5,0.3
			s-0.8,0.5-1.1,0.8c-0.3,0.3-0.5,0.7-0.7,1.1c-0.2,0.4-0.3,0.8-0.3,1.2H139.6z"/>
		<path class="st1" d="M144.7,95.6h2.2v18.1h-2.2V95.6z"/>
		<path class="st1" d="M163,104.2H160v5.2c0,0.3,0,0.6,0,0.9c0,0.3,0.1,0.6,0.2,0.8c0.1,0.2,0.3,0.4,0.5,0.6
			c0.2,0.2,0.5,0.2,0.9,0.2c0.3,0,0.5,0,0.8-0.1c0.3,0,0.5-0.1,0.7-0.3v2c-0.3,0.1-0.6,0.2-1,0.3c-0.4,0.1-0.7,0.1-0.9,0.1
			c-0.8,0-1.5-0.1-1.9-0.3c-0.5-0.2-0.8-0.5-1-0.9s-0.3-0.8-0.4-1.2c0-0.5-0.1-0.9-0.1-1.4v-5.9h-2.5v-1.9h2.5v-3.2h2.2v3.2h3.1
			V104.2z"/>
		<path class="st1" d="M165.9,103.7c0.6-0.6,1.3-1,2.1-1.3c0.8-0.3,1.6-0.4,2.4-0.4c0.8,0,1.5,0.1,2.1,0.3c0.6,0.2,1.1,0.5,1.5,0.8
			c0.4,0.4,0.7,0.8,0.9,1.2c0.2,0.5,0.3,0.9,0.3,1.4v5.8c0,0.4,0,0.8,0,1.1s0,0.7,0.1,1h-1.9c0-0.6-0.1-1.2-0.1-1.7h0
			c-0.5,0.7-1,1.3-1.7,1.6s-1.4,0.5-2.3,0.5c-0.5,0-1-0.1-1.5-0.2c-0.5-0.1-0.9-0.4-1.3-0.6c-0.4-0.3-0.6-0.6-0.9-1.1
			s-0.3-0.9-0.3-1.5c0-0.7,0.2-1.4,0.5-1.8c0.3-0.5,0.8-0.9,1.3-1.2c0.6-0.3,1.2-0.5,2-0.7c0.8-0.1,1.6-0.2,2.4-0.2h1.6v-0.5
			c0-0.3-0.1-0.6-0.2-0.9s-0.3-0.5-0.5-0.8c-0.2-0.2-0.5-0.4-0.8-0.6c-0.3-0.1-0.7-0.2-1.2-0.2c-0.4,0-0.8,0-1.1,0.1
			c-0.3,0.1-0.6,0.2-0.9,0.3c-0.3,0.1-0.5,0.3-0.7,0.4s-0.4,0.3-0.6,0.5L165.9,103.7z M172,108.2c-0.5,0-1,0-1.6,0.1
			c-0.5,0.1-1,0.2-1.5,0.3c-0.4,0.2-0.8,0.4-1.1,0.7c-0.3,0.3-0.4,0.7-0.4,1.1c0,0.7,0.2,1.1,0.7,1.4c0.4,0.3,1,0.4,1.8,0.4
			c0.6,0,1.1-0.1,1.5-0.3c0.4-0.2,0.8-0.5,1-0.8c0.3-0.3,0.4-0.7,0.6-1.1c0.1-0.4,0.2-0.8,0.2-1.2v-0.7H172z"/>
		<path class="st1" d="M178.5,95.6h2.2v18.1h-2.2V95.6z"/>
		<path class="st1" d="M184.2,95.6h2.2v18.1h-2.2V95.6z"/>
		<path class="st1" d="M191.4,108.8c0,0.5,0.1,0.9,0.3,1.4s0.5,0.8,0.9,1c0.4,0.3,0.8,0.5,1.2,0.7c0.5,0.2,0.9,0.2,1.4,0.2
			c0.7,0,1.3-0.2,1.8-0.5c0.5-0.3,1-0.7,1.4-1.2l1.6,1.2c-1.2,1.6-2.9,2.3-5,2.3c-0.9,0-1.7-0.2-2.4-0.5c-0.7-0.3-1.3-0.7-1.8-1.3
			s-0.9-1.2-1.2-1.9c-0.3-0.7-0.4-1.5-0.4-2.4c0-0.8,0.1-1.6,0.4-2.4c0.3-0.7,0.7-1.4,1.2-1.9c0.5-0.5,1.1-1,1.9-1.3
			c0.7-0.3,1.5-0.5,2.4-0.5c1,0,1.9,0.2,2.6,0.5c0.7,0.4,1.3,0.8,1.7,1.4c0.4,0.6,0.8,1.2,1,1.9s0.3,1.4,0.3,2.2v0.8H191.4z
			 M198.3,107.1c0-0.5-0.1-0.9-0.2-1.3c-0.1-0.4-0.3-0.7-0.6-1c-0.3-0.3-0.6-0.5-1-0.7s-0.9-0.3-1.4-0.3c-0.5,0-1,0.1-1.5,0.3
			s-0.8,0.5-1.1,0.8c-0.3,0.3-0.5,0.7-0.7,1.1c-0.2,0.4-0.3,0.8-0.3,1.2H198.3z"/>
		<path class="st1" d="M203.2,102.3h2.2v1.8h0c0.1-0.3,0.3-0.6,0.6-0.8s0.5-0.5,0.8-0.6s0.6-0.3,1-0.4c0.4-0.1,0.7-0.2,1.1-0.2
			c0.4,0,0.7,0,1,0.1l-0.1,2.3c-0.2,0-0.4-0.1-0.5-0.1s-0.4,0-0.5,0c-1.1,0-1.9,0.3-2.4,0.9c-0.6,0.6-0.8,1.5-0.8,2.8v5.7h-2.2
			V102.3z"/>
		<path class="st1" d="M217.4,102.3h2.5l3.4,8.9h0l3.2-8.9h2.3l-5.4,13.8c-0.2,0.5-0.4,0.9-0.6,1.4c-0.2,0.4-0.5,0.8-0.7,1
			c-0.3,0.3-0.6,0.5-1,0.7c-0.4,0.2-0.9,0.2-1.5,0.2c-0.3,0-0.6,0-1-0.1c-0.3,0-0.6-0.1-0.9-0.3l0.3-2c0.4,0.2,0.9,0.3,1.3,0.3
			c0.3,0,0.6,0,0.8-0.1c0.2-0.1,0.4-0.2,0.6-0.4c0.2-0.2,0.3-0.4,0.4-0.6c0.1-0.2,0.2-0.5,0.3-0.8l0.7-1.8L217.4,102.3z"/>
		<path class="st1" d="M243.5,104.2h-3.1v5.2c0,0.3,0,0.6,0,0.9c0,0.3,0.1,0.6,0.2,0.8c0.1,0.2,0.3,0.4,0.5,0.6
			c0.2,0.2,0.5,0.2,0.9,0.2c0.3,0,0.5,0,0.8-0.1c0.3,0,0.5-0.1,0.7-0.3v2c-0.3,0.1-0.6,0.2-1,0.3c-0.4,0.1-0.7,0.1-0.9,0.1
			c-0.8,0-1.5-0.1-1.9-0.3c-0.5-0.2-0.8-0.5-1-0.9s-0.3-0.8-0.4-1.2c0-0.5-0.1-0.9-0.1-1.4v-5.9h-2.5v-1.9h2.5v-3.2h2.2v3.2h3.1
			V104.2z"/>
		<path class="st1" d="M246.3,103.7c0.6-0.6,1.3-1,2.1-1.3c0.8-0.3,1.6-0.4,2.4-0.4c0.8,0,1.5,0.1,2.1,0.3c0.6,0.2,1.1,0.5,1.5,0.8
			c0.4,0.4,0.7,0.8,0.9,1.2c0.2,0.5,0.3,0.9,0.3,1.4v5.8c0,0.4,0,0.8,0,1.1s0,0.7,0.1,1h-1.9c0-0.6-0.1-1.2-0.1-1.7h0
			c-0.5,0.7-1,1.3-1.7,1.6s-1.4,0.5-2.3,0.5c-0.5,0-1-0.1-1.5-0.2c-0.5-0.1-0.9-0.4-1.3-0.6c-0.4-0.3-0.6-0.6-0.9-1.1
			s-0.3-0.9-0.3-1.5c0-0.7,0.2-1.4,0.5-1.8c0.3-0.5,0.8-0.9,1.3-1.2c0.6-0.3,1.2-0.5,2-0.7c0.8-0.1,1.6-0.2,2.4-0.2h1.6v-0.5
			c0-0.3-0.1-0.6-0.2-0.9s-0.3-0.5-0.5-0.8c-0.2-0.2-0.5-0.4-0.8-0.6c-0.3-0.1-0.7-0.2-1.2-0.2c-0.4,0-0.8,0-1.1,0.1
			c-0.3,0.1-0.6,0.2-0.9,0.3c-0.3,0.1-0.5,0.3-0.7,0.4s-0.4,0.3-0.6,0.5L246.3,103.7z M252.4,108.2c-0.5,0-1,0-1.6,0.1
			c-0.5,0.1-1,0.2-1.5,0.3c-0.4,0.2-0.8,0.4-1.1,0.7c-0.3,0.3-0.4,0.7-0.4,1.1c0,0.7,0.2,1.1,0.7,1.4c0.4,0.3,1,0.4,1.8,0.4
			c0.6,0,1.1-0.1,1.5-0.3c0.4-0.2,0.8-0.5,1-0.8c0.3-0.3,0.4-0.7,0.6-1.1c0.1-0.4,0.2-0.8,0.2-1.2v-0.7H252.4z"/>
		<path class="st1" d="M258.7,102.3h2v1.8h0c0-0.2,0.2-0.4,0.4-0.6c0.2-0.2,0.5-0.5,0.8-0.7c0.3-0.2,0.7-0.4,1.1-0.6
			c0.4-0.2,0.9-0.2,1.4-0.2c0.8,0,1.6,0.2,2.1,0.5c0.6,0.4,1,0.9,1.4,1.6c0.4-0.7,0.9-1.2,1.6-1.6s1.4-0.5,2-0.5
			c0.9,0,1.6,0.1,2.2,0.4c0.6,0.3,1,0.7,1.3,1.1s0.5,1,0.7,1.6c0.1,0.6,0.2,1.2,0.2,1.9v6.6h-2.2v-6.3c0-0.4,0-0.8-0.1-1.2
			c-0.1-0.4-0.2-0.8-0.3-1.1s-0.4-0.5-0.7-0.7c-0.3-0.2-0.7-0.3-1.3-0.3c-1,0-1.8,0.3-2.2,1c-0.4,0.6-0.7,1.5-0.7,2.5v6.2h-2.2v-6
			c0-0.5,0-1-0.1-1.5c-0.1-0.4-0.2-0.8-0.3-1.2s-0.4-0.6-0.7-0.8c-0.3-0.2-0.7-0.3-1.3-0.3c-0.4,0-0.8,0.1-1.1,0.2s-0.7,0.4-0.9,0.7
			c-0.3,0.3-0.5,0.7-0.6,1.2c-0.2,0.5-0.2,1-0.2,1.7v5.9h-2.2V102.3z"/>
		<path class="st1" d="M279.2,95.6h2.2v8.4h0c0.4-0.6,0.9-1.1,1.7-1.4c0.7-0.3,1.5-0.5,2.3-0.5c0.9,0,1.7,0.2,2.4,0.5
			c0.7,0.3,1.3,0.7,1.8,1.3c0.5,0.5,0.9,1.2,1.2,1.9c0.3,0.7,0.4,1.5,0.4,2.4c0,0.8-0.1,1.6-0.4,2.4s-0.7,1.4-1.2,1.9
			c-0.5,0.5-1.1,1-1.8,1.3c-0.7,0.3-1.5,0.5-2.4,0.5c-0.8,0-1.5-0.2-2.2-0.5c-0.7-0.3-1.3-0.8-1.7-1.4h0v1.6h-2.2V95.6z M285.1,112
			c0.6,0,1.1-0.1,1.6-0.3c0.5-0.2,0.9-0.5,1.2-0.8c0.3-0.3,0.6-0.8,0.7-1.2s0.3-1,0.3-1.6c0-0.6-0.1-1.1-0.3-1.6
			c-0.2-0.5-0.4-0.9-0.7-1.2c-0.3-0.3-0.7-0.6-1.2-0.8s-1-0.3-1.6-0.3s-1.1,0.1-1.6,0.3s-0.9,0.5-1.2,0.8c-0.3,0.3-0.6,0.8-0.7,1.2
			c-0.2,0.5-0.3,1-0.3,1.6c0,0.6,0.1,1.1,0.3,1.6s0.4,0.9,0.7,1.2s0.7,0.6,1.2,0.8C284,111.9,284.5,112,285.1,112z"/>
		<path class="st1" d="M293.5,98.2c0-0.4,0.2-0.8,0.5-1.1c0.3-0.3,0.7-0.5,1.1-0.5s0.8,0.2,1.1,0.5c0.3,0.3,0.5,0.7,0.5,1.1
			s-0.2,0.8-0.5,1.1c-0.3,0.3-0.7,0.5-1.1,0.5s-0.8-0.2-1.1-0.5C293.6,99.1,293.5,98.7,293.5,98.2z M294,102.3h2.2v11.4H294V102.3z"
			/>
		<path class="st1" d="M301.2,108.8c0,0.5,0.1,0.9,0.3,1.4s0.5,0.8,0.9,1c0.4,0.3,0.8,0.5,1.2,0.7c0.5,0.2,0.9,0.2,1.4,0.2
			c0.7,0,1.3-0.2,1.8-0.5c0.5-0.3,1-0.7,1.4-1.2l1.6,1.2c-1.2,1.6-2.9,2.3-5,2.3c-0.9,0-1.7-0.2-2.4-0.5c-0.7-0.3-1.3-0.7-1.8-1.3
			s-0.9-1.2-1.2-1.9c-0.3-0.7-0.4-1.5-0.4-2.4c0-0.8,0.1-1.6,0.4-2.4c0.3-0.7,0.7-1.4,1.2-1.9c0.5-0.5,1.1-1,1.9-1.3
			c0.7-0.3,1.5-0.5,2.4-0.5c1,0,1.9,0.2,2.6,0.5c0.7,0.4,1.3,0.8,1.7,1.4c0.4,0.6,0.8,1.2,1,1.9s0.3,1.4,0.3,2.2v0.8H301.2z
			 M308,107.1c0-0.5-0.1-0.9-0.2-1.3c-0.1-0.4-0.3-0.7-0.6-1c-0.3-0.3-0.6-0.5-1-0.7s-0.9-0.3-1.4-0.3c-0.5,0-1,0.1-1.5,0.3
			s-0.8,0.5-1.1,0.8c-0.3,0.3-0.5,0.7-0.7,1.1c-0.2,0.4-0.3,0.8-0.3,1.2H308z"/>
		<path class="st1" d="M312.9,102.3h2.2v1.8h0c0.3-0.6,0.7-1.1,1.4-1.5s1.4-0.6,2.3-0.6c0.5,0,1.1,0.1,1.6,0.3s0.9,0.4,1.3,0.8
			s0.7,0.8,0.9,1.4c0.2,0.6,0.3,1.2,0.3,2v7.3h-2.2V107c0-0.5-0.1-1-0.2-1.4c-0.1-0.4-0.3-0.7-0.6-0.9c-0.2-0.2-0.5-0.4-0.8-0.5
			c-0.3-0.1-0.6-0.2-1-0.2c-0.4,0-0.9,0.1-1.2,0.2c-0.4,0.1-0.7,0.4-1,0.7c-0.3,0.3-0.5,0.7-0.7,1.2c-0.2,0.5-0.2,1-0.2,1.7v5.9
			h-2.2V102.3z"/>
		<path class="st1" d="M332.4,108c0-0.8,0.2-1.6,0.5-2.3c0.3-0.7,0.7-1.4,1.3-1.9s1.2-1,1.9-1.3c0.7-0.3,1.5-0.5,2.4-0.5
			c0.8,0,1.6,0.2,2.4,0.5c0.7,0.3,1.4,0.7,1.9,1.3s1,1.2,1.3,1.9c0.3,0.7,0.5,1.5,0.5,2.3c0,0.8-0.2,1.6-0.5,2.3
			c-0.3,0.7-0.7,1.4-1.3,1.9s-1.2,1-1.9,1.3c-0.7,0.3-1.5,0.5-2.4,0.5c-0.8,0-1.6-0.2-2.4-0.5c-0.7-0.3-1.4-0.7-1.9-1.3
			s-1-1.2-1.3-1.9C332.5,109.6,332.4,108.8,332.4,108z M334.7,108c0,0.6,0.1,1.1,0.3,1.6c0.2,0.5,0.4,0.9,0.7,1.2s0.7,0.6,1.2,0.8
			c0.5,0.2,1,0.3,1.6,0.3s1.1-0.1,1.6-0.3c0.5-0.2,0.9-0.5,1.2-0.8c0.3-0.3,0.6-0.8,0.7-1.2c0.2-0.5,0.3-1,0.3-1.6
			c0-0.6-0.1-1.1-0.3-1.6c-0.2-0.5-0.4-0.9-0.7-1.2c-0.3-0.3-0.7-0.6-1.2-0.8c-0.5-0.2-1-0.3-1.6-0.3s-1.1,0.1-1.6,0.3
			c-0.5,0.2-0.9,0.5-1.2,0.8c-0.3,0.3-0.6,0.8-0.7,1.2C334.8,106.9,334.7,107.4,334.7,108z"/>
		<path class="st1" d="M347.2,102.3h2.2v1.8h0c0.3-0.6,0.7-1.1,1.4-1.5s1.4-0.6,2.3-0.6c0.5,0,1.1,0.1,1.6,0.3s0.9,0.4,1.3,0.8
			s0.7,0.8,0.9,1.4c0.2,0.6,0.3,1.2,0.3,2v7.3h-2.2V107c0-0.5-0.1-1-0.2-1.4c-0.1-0.4-0.3-0.7-0.6-0.9c-0.2-0.2-0.5-0.4-0.8-0.5
			c-0.3-0.1-0.6-0.2-1-0.2c-0.4,0-0.9,0.1-1.2,0.2c-0.4,0.1-0.7,0.4-1,0.7c-0.3,0.3-0.5,0.7-0.7,1.2c-0.2,0.5-0.2,1-0.2,1.7v5.9
			h-2.2V102.3z"/>
		<path class="st1" d="M360.7,95.6h2.2v18.1h-2.2V95.6z"/>
		<path class="st1" d="M366,98.2c0-0.4,0.2-0.8,0.5-1.1c0.3-0.3,0.7-0.5,1.1-0.5s0.8,0.2,1.1,0.5c0.3,0.3,0.5,0.7,0.5,1.1
			s-0.2,0.8-0.5,1.1c-0.3,0.3-0.7,0.5-1.1,0.5s-0.8-0.2-1.1-0.5C366.1,99.1,366,98.7,366,98.2z M366.5,102.3h2.2v11.4h-2.2V102.3z"
			/>
		<path class="st1" d="M372.1,102.3h2.2v1.8h0c0.3-0.6,0.7-1.1,1.4-1.5s1.4-0.6,2.3-0.6c0.5,0,1.1,0.1,1.6,0.3s0.9,0.4,1.3,0.8
			s0.7,0.8,0.9,1.4c0.2,0.6,0.3,1.2,0.3,2v7.3H380V107c0-0.5-0.1-1-0.2-1.4c-0.1-0.4-0.3-0.7-0.6-0.9c-0.2-0.2-0.5-0.4-0.8-0.5
			c-0.3-0.1-0.6-0.2-1-0.2c-0.4,0-0.9,0.1-1.2,0.2c-0.4,0.1-0.7,0.4-1,0.7c-0.3,0.3-0.5,0.7-0.7,1.2c-0.2,0.5-0.2,1-0.2,1.7v5.9
			h-2.2V102.3z"/>
		<path class="st1" d="M387,108.8c0,0.5,0.1,0.9,0.3,1.4s0.5,0.8,0.9,1c0.4,0.3,0.8,0.5,1.2,0.7c0.5,0.2,0.9,0.2,1.4,0.2
			c0.7,0,1.3-0.2,1.8-0.5c0.5-0.3,1-0.7,1.4-1.2l1.6,1.2c-1.2,1.6-2.9,2.3-5,2.3c-0.9,0-1.7-0.2-2.4-0.5c-0.7-0.3-1.3-0.7-1.8-1.3
			s-0.9-1.2-1.2-1.9c-0.3-0.7-0.4-1.5-0.4-2.4c0-0.8,0.1-1.6,0.4-2.4c0.3-0.7,0.7-1.4,1.2-1.9c0.5-0.5,1.1-1,1.9-1.3
			c0.7-0.3,1.5-0.5,2.4-0.5c1,0,1.9,0.2,2.6,0.5c0.7,0.4,1.3,0.8,1.7,1.4c0.4,0.6,0.8,1.2,1,1.9s0.3,1.4,0.3,2.2v0.8H387z
			 M393.9,107.1c0-0.5-0.1-0.9-0.2-1.3c-0.1-0.4-0.3-0.7-0.6-1c-0.3-0.3-0.6-0.5-1-0.7s-0.9-0.3-1.4-0.3c-0.5,0-1,0.1-1.5,0.3
			s-0.8,0.5-1.1,0.8c-0.3,0.3-0.5,0.7-0.7,1.1c-0.2,0.4-0.3,0.8-0.3,1.2H393.9z"/>
	</g>
	<g>
		<path class="st1" d="M138.9,40.7c0.7,1,1.6,1.8,2.7,2.3c1.1,0.5,2.2,0.7,3.3,0.7c0.6,0,1.3-0.1,2-0.3c0.7-0.2,1.3-0.5,1.8-0.9
			s1-0.9,1.3-1.5s0.5-1.3,0.5-2c0-1.1-0.3-1.9-1-2.5s-1.6-1.1-2.6-1.4c-1-0.4-2.1-0.8-3.4-1.1c-1.2-0.4-2.3-0.9-3.4-1.5
			c-1-0.6-1.9-1.5-2.6-2.6c-0.7-1.1-1-2.5-1-4.4c0-0.8,0.2-1.7,0.5-2.6c0.4-0.9,0.9-1.8,1.7-2.6c0.8-0.8,1.8-1.4,3-1.9
			c1.2-0.5,2.7-0.8,4.4-0.8c1.5,0,3,0.2,4.4,0.6c1.4,0.4,2.7,1.3,3.7,2.6l-3.1,2.8c-0.5-0.7-1.2-1.3-2-1.8s-1.9-0.7-3-0.7
			c-1.1,0-2,0.1-2.7,0.4c-0.7,0.3-1.3,0.6-1.7,1.1c-0.4,0.4-0.7,0.9-0.9,1.4c-0.2,0.5-0.3,1-0.3,1.4c0,1.2,0.3,2.1,1,2.8
			c0.7,0.6,1.6,1.2,2.6,1.6c1,0.4,2.1,0.8,3.4,1.1c1.2,0.3,2.3,0.8,3.4,1.3c1,0.6,1.9,1.3,2.6,2.3c0.7,1,1,2.3,1,4
			c0,1.4-0.3,2.6-0.8,3.7c-0.5,1.1-1.2,2-2.1,2.8c-0.9,0.7-1.9,1.3-3.1,1.7c-1.2,0.4-2.5,0.6-3.8,0.6c-1.8,0-3.5-0.3-5.2-1
			c-1.6-0.6-2.9-1.6-3.9-3L138.9,40.7z"/>
		<path class="st1" d="M169.2,18.3h3.5l12.1,28.3h-4.5l-2.8-7H164l-2.8,7h-4.5L169.2,18.3z M176.1,36.3l-5.3-13h-0.1l-5.4,13H176.1z
			"/>
		<path class="st1" d="M188.5,18.3h3.8v28.3h-3.8V18.3z"/>
		<path class="st1" d="M219.3,24.4c-0.8-1-1.8-1.8-3-2.4c-1.2-0.6-2.5-0.8-3.8-0.8c-1.6,0-3,0.3-4.3,0.9s-2.4,1.4-3.3,2.5
			s-1.6,2.3-2.1,3.7s-0.8,2.9-0.8,4.5c0,1.5,0.2,2.9,0.7,4.2c0.5,1.3,1.2,2.5,2.1,3.5c0.9,1,2,1.8,3.3,2.4s2.8,0.9,4.4,0.9
			c1.6,0,3.1-0.3,4.3-1c1.2-0.7,2.3-1.6,3.1-2.8l3.2,2.4c-0.2,0.3-0.6,0.7-1.1,1.3c-0.5,0.5-1.2,1.1-2.1,1.6s-1.9,1-3.2,1.4
			s-2.7,0.6-4.3,0.6c-2.2,0-4.3-0.4-6.1-1.3c-1.8-0.9-3.3-2-4.6-3.4c-1.3-1.4-2.2-3-2.9-4.7c-0.7-1.7-1-3.5-1-5.3
			c0-2.2,0.4-4.2,1.1-6.1c0.7-1.9,1.7-3.5,3-4.8c1.3-1.3,2.8-2.4,4.7-3.1c1.8-0.7,3.8-1.1,6-1.1c1.9,0,3.7,0.4,5.5,1.1
			c1.8,0.7,3.3,1.8,4.4,3.3L219.3,24.4z"/>
		<path class="st1" d="M240.7,47.3c-2.2,0-4.1-0.4-6-1.1s-3.4-1.8-4.7-3.1c-1.3-1.3-2.3-2.9-3-4.7c-0.7-1.8-1.1-3.8-1.1-5.9
			c0-2.1,0.4-4.1,1.1-5.9c0.7-1.8,1.7-3.4,3-4.7c1.3-1.3,2.8-2.4,4.7-3.1c1.8-0.8,3.8-1.1,6-1.1c2.2,0,4.1,0.4,6,1.1
			c1.8,0.8,3.4,1.8,4.7,3.1c1.3,1.3,2.3,2.9,3,4.7s1.1,3.8,1.1,5.9c0,2.1-0.4,4.1-1.1,5.9c-0.7,1.8-1.7,3.4-3,4.7
			c-1.3,1.3-2.8,2.4-4.7,3.1S242.9,47.3,240.7,47.3z M240.7,43.7c1.6,0,3.1-0.3,4.4-0.9c1.3-0.6,2.4-1.4,3.4-2.4
			c0.9-1,1.7-2.2,2.2-3.6c0.5-1.4,0.8-2.8,0.8-4.4c0-1.5-0.3-3-0.8-4.4c-0.5-1.4-1.2-2.6-2.2-3.6c-0.9-1-2.1-1.8-3.4-2.4
			s-2.8-0.9-4.4-0.9s-3.1,0.3-4.4,0.9c-1.3,0.6-2.4,1.4-3.4,2.4c-0.9,1-1.7,2.2-2.2,3.6c-0.5,1.4-0.8,2.8-0.8,4.4
			c0,1.5,0.3,3,0.8,4.4c0.5,1.4,1.2,2.6,2.2,3.6c0.9,1,2.1,1.8,3.4,2.4C237.6,43.4,239.1,43.7,240.7,43.7z"/>
		<path class="st1" d="M261,18.3h10c1.8,0,3.3,0.2,4.5,0.7c1.2,0.5,2.1,1.1,2.8,1.9c0.7,0.8,1.2,1.6,1.4,2.6
			c0.3,0.9,0.4,1.9,0.4,2.7c0,0.9-0.2,1.8-0.5,2.6c-0.3,0.8-0.8,1.6-1.4,2.3c-0.6,0.7-1.3,1.3-2.2,1.7c-0.9,0.5-1.8,0.8-2.9,0.9
			l8,12.9h-4.8l-7.2-12.5h-4.3v12.5H261V18.3z M264.9,30.8h5c0.7,0,1.5-0.1,2.2-0.2c0.7-0.1,1.4-0.3,2-0.7c0.6-0.3,1-0.8,1.4-1.4
			c0.3-0.6,0.5-1.4,0.5-2.3s-0.2-1.7-0.5-2.3c-0.3-0.6-0.8-1.1-1.4-1.4c-0.6-0.3-1.2-0.5-2-0.7c-0.7-0.1-1.5-0.2-2.2-0.2h-5V30.8z"
			/>
		<path class="st1" d="M297.4,40.7c0.7,1,1.6,1.8,2.7,2.3c1.1,0.5,2.2,0.7,3.3,0.7c0.6,0,1.3-0.1,2-0.3c0.7-0.2,1.3-0.5,1.8-0.9
			s1-0.9,1.3-1.5s0.5-1.3,0.5-2c0-1.1-0.3-1.9-1-2.5s-1.6-1.1-2.6-1.4c-1-0.4-2.1-0.8-3.4-1.1c-1.2-0.4-2.3-0.9-3.4-1.5
			c-1-0.6-1.9-1.5-2.6-2.6c-0.7-1.1-1-2.5-1-4.4c0-0.8,0.2-1.7,0.5-2.6c0.4-0.9,0.9-1.8,1.7-2.6c0.8-0.8,1.8-1.4,3-1.9
			c1.2-0.5,2.7-0.8,4.4-0.8c1.5,0,3,0.2,4.4,0.6c1.4,0.4,2.7,1.3,3.7,2.6l-3.1,2.8c-0.5-0.7-1.2-1.3-2-1.8s-1.9-0.7-3-0.7
			c-1.1,0-2,0.1-2.7,0.4c-0.7,0.3-1.3,0.6-1.7,1.1c-0.4,0.4-0.7,0.9-0.9,1.4c-0.2,0.5-0.3,1-0.3,1.4c0,1.2,0.3,2.1,1,2.8
			c0.7,0.6,1.6,1.2,2.6,1.6c1,0.4,2.1,0.8,3.4,1.1c1.2,0.3,2.3,0.8,3.4,1.3c1,0.6,1.9,1.3,2.6,2.3c0.7,1,1,2.3,1,4
			c0,1.4-0.3,2.6-0.8,3.7c-0.5,1.1-1.2,2-2.1,2.8c-0.9,0.7-1.9,1.3-3.1,1.7c-1.2,0.4-2.5,0.6-3.8,0.6c-1.8,0-3.5-0.3-5.2-1
			c-1.6-0.6-2.9-1.6-3.9-3L297.4,40.7z"/>
		<path class="st1" d="M317,37.1c0-1.4,0.3-2.7,0.8-3.9c0.5-1.2,1.2-2.3,2.1-3.2s2-1.6,3.2-2.1c1.2-0.5,2.5-0.8,4-0.8
			c1.4,0,2.7,0.3,4,0.8c1.2,0.5,2.3,1.2,3.2,2.1c0.9,0.9,1.6,2,2.1,3.2c0.5,1.2,0.8,2.5,0.8,3.9c0,1.4-0.3,2.7-0.8,3.9
			c-0.5,1.2-1.2,2.3-2.1,3.2c-0.9,0.9-2,1.6-3.2,2.1c-1.2,0.5-2.5,0.8-4,0.8c-1.4,0-2.7-0.3-4-0.8c-1.2-0.5-2.3-1.2-3.2-2.1
			s-1.6-1.9-2.1-3.2C317.2,39.8,317,38.5,317,37.1z M320.8,37.1c0,1,0.1,1.8,0.4,2.7c0.3,0.8,0.7,1.5,1.2,2.1c0.5,0.6,1.2,1,2,1.4
			c0.8,0.3,1.6,0.5,2.6,0.5s1.8-0.2,2.6-0.5c0.8-0.3,1.4-0.8,2-1.4c0.5-0.6,0.9-1.3,1.2-2.1c0.3-0.8,0.4-1.7,0.4-2.7
			c0-1-0.1-1.8-0.4-2.7s-0.7-1.5-1.2-2.1c-0.5-0.6-1.2-1-2-1.4c-0.8-0.3-1.6-0.5-2.6-0.5s-1.8,0.2-2.6,0.5c-0.8,0.3-1.4,0.8-2,1.4
			c-0.5,0.6-0.9,1.3-1.2,2.1C321,35.3,320.8,36.2,320.8,37.1z"/>
		<path class="st1" d="M343.1,30.8H339v-3.1h4.1v-4.2c0-2.5,0.5-4.4,1.5-5.7c1-1.2,2.6-1.9,5-1.9c0.4,0,0.8,0,1.3,0
			c0.4,0,0.9,0.1,1.4,0.2l-0.4,3.2c-0.3-0.1-0.7-0.2-1-0.3s-0.7-0.1-1-0.1c-0.7,0-1.2,0.1-1.6,0.3c-0.4,0.2-0.7,0.5-0.9,0.9
			c-0.2,0.4-0.4,0.8-0.4,1.3c-0.1,0.5-0.1,1.1-0.1,1.8v4.4h4.3v3.1h-4.3v15.8h-3.6V30.8z"/>
		<path class="st1" d="M365.1,30.8H360v8.6c0,0.5,0,1.1,0,1.6c0,0.5,0.1,1,0.3,1.4c0.2,0.4,0.4,0.7,0.8,1c0.4,0.3,0.9,0.4,1.6,0.4
			c0.4,0,0.9,0,1.3-0.1s0.9-0.2,1.2-0.4v3.3c-0.4,0.2-1,0.4-1.7,0.5s-1.2,0.1-1.6,0.1c-1.4,0-2.5-0.2-3.2-0.6
			c-0.8-0.4-1.3-0.9-1.7-1.5c-0.4-0.6-0.6-1.3-0.6-2.1s-0.1-1.5-0.1-2.3v-9.9h-4.2v-3.1h4.2v-5.3h3.6v5.3h5.2V30.8z"/>
	</g>
</g>
<g id="Iconos">
</g>
</svg>
