<?xml version="1.0" encoding="utf-8"?>
<!-- Generator: Adobe Illustrator 20.1.0, SVG Export Plug-In . SVG Version: 6.00 Build 0)  -->
<svg version="1.1" xmlns="http://www.w3.org/2000/svg" xmlns:xlink="http://www.w3.org/1999/xlink" x="0px" y="0px"
	 viewBox="0 0 594 115" style="enable-background:new 0 0 594 115;" xml:space="preserve">
<style type="text/css">
	.st0{clip-path:url(#SVGID_4_);}
	.st1{fill:#201F23;}
	.st2{fill:url(#SVGID_5_);}
	.st3{fill:#DBDCDD;}
	.st4{opacity:0.9;fill:#EAA330;}
	.st5{fill:#87BC42;}
	.st6{fill:#FFFFFF;}
	.st7{opacity:0.9;fill:#201F23;}
	.st8{opacity:0.7;fill:#201F23;}
	.st9{fill:url(#SVGID_6_);}
	.st10{fill:url(#SVGID_7_);}
	.st11{fill:url(#SVGID_8_);}
	.st12{fill:url(#SVGID_9_);}
	.st13{fill:url(#SVGID_10_);}
	.st14{fill:url(#SVGID_11_);}
	.st15{fill:none;stroke:#DBDCDD;stroke-width:3;stroke-linecap:round;stroke-miterlimit:10;}
	.st16{fill:#5D5D5D;}
	.st17{opacity:0.4;fill:#FFFFFF;}
	.st18{fill:none;stroke:#B9B9B9;stroke-width:12;stroke-linejoin:round;stroke-miterlimit:10;}
	.st19{fill:none;stroke:#6A9642;stroke-width:14;stroke-miterlimit:10;}
	.st20{fill:none;stroke:#FFFFFF;stroke-width:12;stroke-linejoin:round;stroke-miterlimit:10;}
	.st21{fill:url(#SVGID_12_);}
	.st22{fill:#6AAF42;}
	.st23{fill:none;stroke:#FFFFFF;stroke-width:2.0274;stroke-miterlimit:10;stroke-dasharray:3.379;}
	.st24{fill:none;stroke:#FFFFFF;stroke-width:2.0274;stroke-miterlimit:10;stroke-dasharray:7;}
	.st25{fill:url(#SVGID_13_);}
	.st26{fill:#6A9642;}
	.st27{fill:#504F54;}
	.st28{opacity:0.8;}
	.st29{fill:none;}
	.st30{fill:#333333;}
	.st31{fill:none;stroke:#B9B9B9;stroke-width:12;stroke-miterlimit:10;}
	.st32{fill:#EAA330;}
	.st33{fill:#2D2C30;}
	.st34{fill:#CED0D1;}
	.st35{fill:#35903A;}
	.st36{fill:#CECFD0;}
	.st37{fill:#4E893F;}
	.st38{fill:#58595B;}
	.st39{fill:#272A2D;}
	.st40{fill:url(#SVGID_14_);}
	.st41{fill:none;stroke:#FFFFFF;stroke-miterlimit:10;}
	.st42{fill:#EEE0AD;}
	.st43{fill:#CDC297;}
	.st44{fill:#BEBFC5;}
	.st45{fill:#AAA9AF;}
	.st46{fill:#DADBDC;}
	.st47{fill:none;stroke:#FFFFFF;stroke-width:2.0274;stroke-miterlimit:10;}
	.st48{fill:none;stroke:#FFFFFF;stroke-width:2.0274;stroke-miterlimit:10;stroke-dasharray:7.054,7.054;}
	.st49{fill:#CDCFD0;}
	.st50{fill:#102D40;}
	.st51{fill:#264860;}
	.st52{clip-path:url(#SVGID_16_);}
	.st53{fill:#E8BD98;}
	.st54{fill:#E76D4A;}
	.st55{fill:#543E36;}
	.st56{fill:#C34628;}
	.st57{clip-path:url(#SVGID_18_);}
	.st58{fill:none;stroke:#FFFFFF;stroke-width:2.2466;stroke-miterlimit:10;stroke-dasharray:3.7443;}
	.st59{clip-path:url(#SVGID_20_);fill:#98ABB7;}
	.st60{clip-path:url(#SVGID_20_);}
	.st61{fill:#421800;}
	.st62{fill:#ECCCB0;}
	.st63{fill:#B34FC5;}
	.st64{fill:#E3E8EE;}
	.st65{opacity:0.5;clip-path:url(#SVGID_20_);fill:#ECCCB0;}
	.st66{clip-path:url(#SVGID_22_);fill:#3EA1BD;}
	.st67{clip-path:url(#SVGID_22_);}
	.st68{fill:#A17561;}
	.st69{fill:#141720;}
	.st70{clip-path:url(#SVGID_22_);fill:#FFFFFF;}
	.st71{opacity:0.5;clip-path:url(#SVGID_22_);fill:#E8BD98;}
	.st72{clip-path:url(#SVGID_24_);}
	.st73{fill:#C55D3F;}
	.st74{clip-path:url(#SVGID_24_);fill:#E8BD98;}
	.st75{clip-path:url(#SVGID_24_);fill:#C7D4E2;}
	.st76{clip-path:url(#SVGID_24_);fill:#543E36;}
	.st77{clip-path:url(#SVGID_24_);fill:#1A1A1A;}
	.st78{fill:#435363;}
	.st79{opacity:0.5;clip-path:url(#SVGID_24_);fill:#E8BD98;}
	.st80{clip-path:url(#SVGID_26_);fill:#98ABB7;}
	.st81{clip-path:url(#SVGID_26_);}
	.st82{opacity:0.5;clip-path:url(#SVGID_26_);fill:#ECCCB0;}
	.st83{clip-path:url(#SVGID_28_);fill:#3EA1BD;}
	.st84{clip-path:url(#SVGID_28_);}
	.st85{clip-path:url(#SVGID_28_);fill:#FFFFFF;}
	.st86{opacity:0.5;clip-path:url(#SVGID_28_);fill:#E8BD98;}
	.st87{clip-path:url(#SVGID_30_);}
	.st88{clip-path:url(#SVGID_30_);fill:#E8BD98;}
	.st89{clip-path:url(#SVGID_30_);fill:#C7D4E2;}
	.st90{clip-path:url(#SVGID_30_);fill:#543E36;}
	.st91{clip-path:url(#SVGID_30_);fill:#1A1A1A;}
	.st92{opacity:0.5;clip-path:url(#SVGID_30_);fill:#E8BD98;}
	.st93{clip-path:url(#SVGID_32_);fill:#006F34;}
	.st94{clip-path:url(#SVGID_32_);}
	.st95{fill:#B3D033;}
	.st96{fill:#BD7E52;}
	.st97{fill:#B0B3B4;}
	.st98{fill:#8A8D8F;}
	.st99{fill:#D1D3D4;}
	.st100{fill:#787B7D;}
	.st101{fill:#B7BABB;}
	.st102{fill:#91A0A1;}
	.st103{clip-path:url(#SVGID_34_);fill:#006F34;}
	.st104{clip-path:url(#SVGID_34_);}
	.st105{fill:#BFC1C2;}
	.st106{fill:#313034;}
	.st107{fill:url(#SVGID_35_);}
	.st108{fill:#B9B9B9;}
	.st109{fill:#ACAEB0;}
	.st110{fill:#BBBDBE;}
	.st111{fill:#96989A;}
	.st112{fill:#CFD0D1;}
	.st113{fill:#B7B9BB;}
	.st114{fill:#919395;}
	.st115{fill-rule:evenodd;clip-rule:evenodd;fill:#CED0D1;}
	.st116{fill-rule:evenodd;clip-rule:evenodd;fill:#FFFFFF;}
	.st117{fill:url(#SVGID_36_);}
	.st118{fill:url(#SVGID_37_);}
	.st119{fill:#F3F3F3;}
	.st120{fill:#231F20;}
	.st121{fill:url(#SVGID_38_);}
	.st122{fill:url(#SVGID_39_);}
	.st123{fill:url(#SVGID_40_);}
	.st124{fill:url(#SVGID_41_);}
	.st125{fill:url(#SVGID_42_);}
	.st126{fill:url(#SVGID_43_);}
	.st127{fill:url(#SVGID_44_);}
	.st128{fill:url(#SVGID_45_);}
	.st129{fill:url(#SVGID_46_);}
	.st130{fill:url(#SVGID_47_);}
	.st131{fill:url(#SVGID_48_);}
	.st132{fill:url(#SVGID_49_);}
	.st133{fill:url(#SVGID_50_);}
	.st134{fill:url(#SVGID_51_);}
	.st135{fill:url(#SVGID_52_);}
	.st136{fill:url(#SVGID_53_);}
	.st137{opacity:0.8;fill:#F3F3F3;}
	.st138{clip-path:url(#SVGID_55_);}
	.st139{clip-path:url(#SVGID_57_);fill:#98ABB7;}
	.st140{clip-path:url(#SVGID_57_);}
	.st141{opacity:0.5;clip-path:url(#SVGID_57_);fill:#ECCCB0;}
	.st142{clip-path:url(#SVGID_59_);fill:#3EA1BD;}
	.st143{clip-path:url(#SVGID_59_);}
	.st144{clip-path:url(#SVGID_59_);fill:#FFFFFF;}
	.st145{opacity:0.5;clip-path:url(#SVGID_59_);fill:#E8BD98;}
	.st146{clip-path:url(#SVGID_61_);}
	.st147{clip-path:url(#SVGID_61_);fill:#E8BD98;}
	.st148{clip-path:url(#SVGID_61_);fill:#C7D4E2;}
	.st149{clip-path:url(#SVGID_61_);fill:#543E36;}
	.st150{clip-path:url(#SVGID_61_);fill:#1A1A1A;}
	.st151{opacity:0.5;clip-path:url(#SVGID_61_);fill:#E8BD98;}
	.st152{fill:none;stroke:#5D5D5D;stroke-width:3;stroke-linecap:round;stroke-miterlimit:10;}
	.st153{fill:none;stroke:#201F23;stroke-width:5;stroke-miterlimit:10;}
	.st154{fill:none;stroke:#201F23;stroke-width:4.2064;stroke-linecap:round;stroke-miterlimit:10;}
	.st155{fill:none;stroke:#201F23;stroke-miterlimit:10;}
	.st156{fill:#B9BBBC;}
	.st157{fill:#F0F1F1;}
	.st158{fill:#98999C;}
	.st159{fill:#B9BABC;}
	.st160{fill:#E2E2E3;}
	.st161{fill:#D1D1D2;}
	.st162{fill:#2E2D31;}
	.st163{fill:#1F1E21;}
	.st164{fill:#5D5C61;}
	.st165{fill:#4A4A4E;}
	.st166{fill:#88BD42;}
	.st167{opacity:0.6;}
	.st168{fill:#6A9742;}
	.st169{fill:#5F893B;}
	.st170{fill:none;stroke:#CFD0D1;stroke-width:4;stroke-linecap:round;stroke-miterlimit:10;}
	.st171{fill:#E09400;}
	.st172{fill:#F0EABC;}
	.st173{fill:#FFC843;}
	.st174{fill:#DDA070;}
	.st175{fill:none;stroke:#FFFFFF;stroke-width:4;stroke-linecap:round;stroke-miterlimit:10;}
	.st176{fill:none;stroke:#CFD0D1;stroke-width:2.5756;stroke-linecap:round;stroke-miterlimit:10;}
	.st177{fill:none;stroke:#FFFFFF;stroke-width:2.5756;stroke-linecap:round;stroke-miterlimit:10;}
	.st178{fill:#BCBDBE;}
	.st179{fill:#9C9EA0;}
	.st180{fill:#B3B5B6;}
	.st181{fill:#282828;}
</style>
<g id="Fondo">
</g>
<g id="Diseño">
	<rect class="st5" width="594" height="115"/>
	<g>
		<rect x="113.2" y="70.3" class="st29" width="346.8" height="29.7"/>
		<path class="st1" d="M193.1,75.1c-0.5-0.6-1.1-1.1-1.8-1.4c-0.7-0.3-1.5-0.5-2.3-0.5c-1,0-1.8,0.2-2.6,0.5c-0.8,0.4-1.4,0.9-2,1.5
			c-0.6,0.6-1,1.4-1.3,2.2c-0.3,0.8-0.5,1.7-0.5,2.7c0,0.9,0.1,1.7,0.4,2.5s0.7,1.5,1.2,2.1c0.5,0.6,1.2,1.1,2,1.4s1.7,0.5,2.7,0.5
			c1,0,1.8-0.2,2.6-0.6c0.7-0.4,1.4-1,1.9-1.7l1.9,1.5c-0.1,0.2-0.4,0.4-0.7,0.8s-0.7,0.7-1.3,1c-0.5,0.3-1.2,0.6-1.9,0.9
			c-0.7,0.2-1.6,0.4-2.6,0.4c-1.3,0-2.6-0.3-3.6-0.8c-1.1-0.5-2-1.2-2.8-2s-1.3-1.8-1.7-2.8c-0.4-1-0.6-2.1-0.6-3.2
			c0-1.3,0.2-2.5,0.6-3.6c0.4-1.1,1-2.1,1.8-2.9c0.8-0.8,1.7-1.4,2.8-1.9s2.3-0.7,3.6-0.7c1.1,0,2.2,0.2,3.3,0.6
			c1.1,0.4,2,1.1,2.7,2L193.1,75.1z"/>
		<path class="st1" d="M197.8,70.3h2.2v18.1h-2.2V70.3z"/>
		<path class="st1" d="M203.1,73c0-0.4,0.2-0.8,0.5-1.1c0.3-0.3,0.7-0.5,1.1-0.5s0.8,0.2,1.1,0.5c0.3,0.3,0.5,0.7,0.5,1.1
			s-0.2,0.8-0.5,1.1c-0.3,0.3-0.7,0.5-1.1,0.5s-0.8-0.2-1.1-0.5C203.2,73.8,203.1,73.4,203.1,73z M203.6,77.1h2.2v11.4h-2.2V77.1z"
			/>
		<path class="st1" d="M210.8,83.6c0,0.5,0.1,0.9,0.3,1.4s0.5,0.8,0.9,1c0.4,0.3,0.8,0.5,1.2,0.7c0.5,0.2,0.9,0.2,1.4,0.2
			c0.7,0,1.3-0.2,1.8-0.5c0.5-0.3,1-0.7,1.4-1.2l1.6,1.2c-1.2,1.6-2.9,2.3-5,2.3c-0.9,0-1.7-0.2-2.4-0.5c-0.7-0.3-1.3-0.7-1.8-1.3
			s-0.9-1.2-1.2-1.9c-0.3-0.7-0.4-1.5-0.4-2.4c0-0.8,0.1-1.6,0.4-2.4c0.3-0.7,0.7-1.4,1.2-1.9c0.5-0.5,1.1-1,1.9-1.3
			c0.7-0.3,1.5-0.5,2.4-0.5c1,0,1.9,0.2,2.6,0.5c0.7,0.4,1.3,0.8,1.7,1.4c0.4,0.6,0.8,1.2,1,1.9s0.3,1.4,0.3,2.2v0.8H210.8z
			 M217.6,81.8c0-0.5-0.1-0.9-0.2-1.3c-0.1-0.4-0.3-0.7-0.6-1c-0.3-0.3-0.6-0.5-1-0.7s-0.9-0.3-1.4-0.3c-0.5,0-1,0.1-1.5,0.3
			s-0.8,0.5-1.1,0.8c-0.3,0.3-0.5,0.7-0.7,1.1c-0.2,0.4-0.3,0.8-0.3,1.2H217.6z"/>
		<path class="st1" d="M222.5,77.1h2.2v1.8h0c0.3-0.6,0.7-1.1,1.4-1.5s1.4-0.6,2.3-0.6c0.5,0,1.1,0.1,1.6,0.3s0.9,0.4,1.3,0.8
			s0.7,0.8,0.9,1.4c0.2,0.6,0.3,1.2,0.3,2v7.3h-2.2v-6.7c0-0.5-0.1-1-0.2-1.4c-0.1-0.4-0.3-0.7-0.6-0.9c-0.2-0.2-0.5-0.4-0.8-0.5
			c-0.3-0.1-0.6-0.2-1-0.2c-0.4,0-0.9,0.1-1.2,0.2c-0.4,0.1-0.7,0.4-1,0.7c-0.3,0.3-0.5,0.7-0.7,1.2c-0.2,0.5-0.2,1-0.2,1.7v5.9
			h-2.2V77.1z"/>
		<path class="st1" d="M241.9,79h-3.1v5.2c0,0.3,0,0.6,0,0.9c0,0.3,0.1,0.6,0.2,0.8c0.1,0.2,0.3,0.4,0.5,0.6
			c0.2,0.2,0.5,0.2,0.9,0.2c0.3,0,0.5,0,0.8-0.1c0.3,0,0.5-0.1,0.7-0.3v2c-0.3,0.1-0.6,0.2-1,0.3c-0.4,0.1-0.7,0.1-0.9,0.1
			c-0.8,0-1.5-0.1-1.9-0.3c-0.5-0.2-0.8-0.5-1-0.9s-0.3-0.8-0.4-1.2c0-0.5-0.1-0.9-0.1-1.4V79h-2.5v-1.9h2.5v-3.2h2.2v3.2h3.1V79z"
			/>
		<path class="st1" d="M246.3,83.6c0,0.5,0.1,0.9,0.3,1.4s0.5,0.8,0.9,1c0.4,0.3,0.8,0.5,1.2,0.7c0.5,0.2,0.9,0.2,1.4,0.2
			c0.7,0,1.3-0.2,1.8-0.5c0.5-0.3,1-0.7,1.4-1.2l1.6,1.2c-1.2,1.6-2.9,2.3-5,2.3c-0.9,0-1.7-0.2-2.4-0.5c-0.7-0.3-1.3-0.7-1.8-1.3
			s-0.9-1.2-1.2-1.9c-0.3-0.7-0.4-1.5-0.4-2.4c0-0.8,0.1-1.6,0.4-2.4c0.3-0.7,0.7-1.4,1.2-1.9c0.5-0.5,1.1-1,1.9-1.3
			c0.7-0.3,1.5-0.5,2.4-0.5c1,0,1.9,0.2,2.6,0.5c0.7,0.4,1.3,0.8,1.7,1.4c0.4,0.6,0.8,1.2,1,1.9s0.3,1.4,0.3,2.2v0.8H246.3z
			 M253.2,81.8c0-0.5-0.1-0.9-0.2-1.3c-0.1-0.4-0.3-0.7-0.6-1c-0.3-0.3-0.6-0.5-1-0.7s-0.9-0.3-1.4-0.3c-0.5,0-1,0.1-1.5,0.3
			s-0.8,0.5-1.1,0.8c-0.3,0.3-0.5,0.7-0.7,1.1c-0.2,0.4-0.3,0.8-0.3,1.2H253.2z"/>
		<path class="st1" d="M264.1,79.9c-0.3-0.3-0.6-0.6-0.9-0.8c-0.4-0.2-0.8-0.3-1.4-0.3c-0.5,0-1,0.1-1.3,0.3s-0.6,0.5-0.6,0.9
			c0,0.3,0.1,0.6,0.3,0.8s0.5,0.4,0.8,0.5s0.6,0.2,0.9,0.3c0.3,0.1,0.6,0.1,0.9,0.2c0.5,0.1,0.9,0.2,1.3,0.4
			c0.4,0.2,0.8,0.4,1.1,0.6c0.3,0.3,0.5,0.6,0.7,0.9s0.3,0.8,0.3,1.3c0,0.6-0.1,1.2-0.4,1.6c-0.3,0.5-0.6,0.8-1.1,1.1
			s-0.9,0.5-1.5,0.6c-0.6,0.1-1.1,0.2-1.7,0.2c-0.9,0-1.8-0.1-2.5-0.4c-0.7-0.3-1.3-0.8-1.9-1.6l1.6-1.3c0.4,0.4,0.7,0.7,1.2,0.9
			c0.4,0.3,1,0.4,1.6,0.4c0.3,0,0.5,0,0.8-0.1c0.3-0.1,0.5-0.1,0.7-0.3s0.4-0.3,0.5-0.5c0.1-0.2,0.2-0.4,0.2-0.6
			c0-0.3-0.1-0.6-0.3-0.8c-0.2-0.2-0.4-0.4-0.7-0.5c-0.3-0.1-0.6-0.2-0.9-0.3c-0.3-0.1-0.6-0.1-0.8-0.2c-0.5-0.1-0.9-0.2-1.3-0.4
			c-0.4-0.1-0.8-0.3-1.1-0.6s-0.6-0.5-0.8-0.9c-0.2-0.4-0.3-0.8-0.3-1.4c0-0.6,0.1-1.1,0.4-1.5c0.2-0.4,0.6-0.8,1-1.1
			s0.9-0.5,1.4-0.6c0.5-0.1,1-0.2,1.6-0.2c0.8,0,1.5,0.1,2.2,0.4c0.7,0.3,1.3,0.8,1.7,1.4L264.1,79.9z"/>
		<path class="st1" d="M286.8,88.5h-2.2v-1.6h0c-0.4,0.6-1,1.1-1.7,1.4c-0.7,0.3-1.5,0.5-2.2,0.5c-0.9,0-1.7-0.2-2.4-0.5
			s-1.3-0.7-1.8-1.3c-0.5-0.5-0.9-1.2-1.2-1.9c-0.3-0.7-0.4-1.5-0.4-2.4c0-0.8,0.1-1.6,0.4-2.4c0.3-0.7,0.7-1.4,1.2-1.9
			c0.5-0.5,1.1-1,1.8-1.3s1.5-0.5,2.4-0.5c0.8,0,1.6,0.2,2.3,0.5c0.7,0.3,1.3,0.8,1.7,1.4h0v-8.4h2.2V88.5z M280.9,86.7
			c0.6,0,1.1-0.1,1.6-0.3c0.5-0.2,0.9-0.5,1.2-0.8c0.3-0.3,0.6-0.8,0.7-1.2c0.2-0.5,0.3-1,0.3-1.6c0-0.6-0.1-1.1-0.3-1.6
			c-0.2-0.5-0.4-0.9-0.7-1.2c-0.3-0.3-0.7-0.6-1.2-0.8c-0.5-0.2-1-0.3-1.6-0.3s-1.1,0.1-1.6,0.3c-0.5,0.2-0.9,0.5-1.2,0.8
			c-0.3,0.3-0.6,0.8-0.7,1.2c-0.2,0.5-0.3,1-0.3,1.6c0,0.6,0.1,1.1,0.3,1.6c0.2,0.5,0.4,0.9,0.7,1.2s0.7,0.6,1.2,0.8
			C279.8,86.6,280.3,86.7,280.9,86.7z"/>
		<path class="st1" d="M291.7,83.6c0,0.5,0.1,0.9,0.3,1.4s0.5,0.8,0.9,1c0.4,0.3,0.8,0.5,1.2,0.7c0.5,0.2,0.9,0.2,1.4,0.2
			c0.7,0,1.3-0.2,1.8-0.5c0.5-0.3,1-0.7,1.4-1.2l1.6,1.2c-1.2,1.6-2.9,2.3-5,2.3c-0.9,0-1.7-0.2-2.4-0.5c-0.7-0.3-1.3-0.7-1.8-1.3
			s-0.9-1.2-1.2-1.9c-0.3-0.7-0.4-1.5-0.4-2.4c0-0.8,0.1-1.6,0.4-2.4c0.3-0.7,0.7-1.4,1.2-1.9c0.5-0.5,1.1-1,1.9-1.3
			c0.7-0.3,1.5-0.5,2.4-0.5c1,0,1.9,0.2,2.6,0.5c0.7,0.4,1.3,0.8,1.7,1.4c0.4,0.6,0.8,1.2,1,1.9s0.3,1.4,0.3,2.2v0.8H291.7z
			 M298.5,81.8c0-0.5-0.1-0.9-0.2-1.3c-0.1-0.4-0.3-0.7-0.6-1c-0.3-0.3-0.6-0.5-1-0.7s-0.9-0.3-1.4-0.3c-0.5,0-1,0.1-1.5,0.3
			s-0.8,0.5-1.1,0.8c-0.3,0.3-0.5,0.7-0.7,1.1c-0.2,0.4-0.3,0.8-0.3,1.2H298.5z"/>
		<path class="st1" d="M316.1,79.9c-0.3-0.3-0.6-0.6-0.9-0.8c-0.4-0.2-0.8-0.3-1.4-0.3c-0.5,0-1,0.1-1.3,0.3s-0.6,0.5-0.6,0.9
			c0,0.3,0.1,0.6,0.3,0.8s0.5,0.4,0.8,0.5s0.6,0.2,0.9,0.3c0.3,0.1,0.6,0.1,0.9,0.2c0.5,0.1,0.9,0.2,1.3,0.4
			c0.4,0.2,0.8,0.4,1.1,0.6c0.3,0.3,0.5,0.6,0.7,0.9s0.3,0.8,0.3,1.3c0,0.6-0.1,1.2-0.4,1.6c-0.3,0.5-0.6,0.8-1.1,1.1
			s-0.9,0.5-1.5,0.6c-0.6,0.1-1.1,0.2-1.7,0.2c-0.9,0-1.8-0.1-2.5-0.4c-0.7-0.3-1.3-0.8-1.9-1.6l1.6-1.3c0.4,0.4,0.7,0.7,1.2,0.9
			c0.4,0.3,1,0.4,1.6,0.4c0.3,0,0.5,0,0.8-0.1c0.3-0.1,0.5-0.1,0.7-0.3s0.4-0.3,0.5-0.5c0.1-0.2,0.2-0.4,0.2-0.6
			c0-0.3-0.1-0.6-0.3-0.8c-0.2-0.2-0.4-0.4-0.7-0.5c-0.3-0.1-0.6-0.2-0.9-0.3c-0.3-0.1-0.6-0.1-0.8-0.2c-0.5-0.1-0.9-0.2-1.3-0.4
			c-0.4-0.1-0.8-0.3-1.1-0.6s-0.6-0.5-0.8-0.9c-0.2-0.4-0.3-0.8-0.3-1.4c0-0.6,0.1-1.1,0.4-1.5c0.2-0.4,0.6-0.8,1-1.1
			s0.9-0.5,1.4-0.6c0.5-0.1,1-0.2,1.6-0.2c0.8,0,1.5,0.1,2.2,0.4c0.7,0.3,1.3,0.8,1.7,1.4L316.1,79.9z"/>
		<path class="st1" d="M330.8,88.5h-2.2v-1.8h0c-0.3,0.6-0.7,1.1-1.4,1.5c-0.7,0.4-1.4,0.6-2.3,0.6c-0.6,0-1.1-0.1-1.6-0.3
			s-0.9-0.4-1.3-0.8c-0.4-0.4-0.7-0.8-0.9-1.4c-0.2-0.6-0.3-1.2-0.3-2v-7.3h2.2v6.7c0,0.5,0.1,1,0.2,1.4c0.1,0.4,0.3,0.7,0.6,0.9
			c0.2,0.2,0.5,0.4,0.8,0.5c0.3,0.1,0.6,0.2,1,0.2c0.4,0,0.9-0.1,1.2-0.2c0.4-0.1,0.7-0.4,1-0.7c0.3-0.3,0.5-0.7,0.7-1.2
			c0.2-0.5,0.2-1,0.2-1.7v-5.9h2.2V88.5z"/>
		<path class="st1" d="M346.8,79h-3.1v5.2c0,0.3,0,0.6,0,0.9c0,0.3,0.1,0.6,0.2,0.8c0.1,0.2,0.3,0.4,0.5,0.6
			c0.2,0.2,0.5,0.2,0.9,0.2c0.3,0,0.5,0,0.8-0.1c0.3,0,0.5-0.1,0.7-0.3v2c-0.3,0.1-0.6,0.2-1,0.3c-0.4,0.1-0.7,0.1-0.9,0.1
			c-0.8,0-1.5-0.1-1.9-0.3c-0.5-0.2-0.8-0.5-1-0.9s-0.3-0.8-0.4-1.2c0-0.5-0.1-0.9-0.1-1.4V79h-2.5v-1.9h2.5v-3.2h2.2v3.2h3.1V79z"
			/>
		<path class="st1" d="M349.7,78.5c0.6-0.6,1.3-1,2.1-1.3c0.8-0.3,1.6-0.4,2.4-0.4c0.8,0,1.5,0.1,2.1,0.3c0.6,0.2,1.1,0.5,1.5,0.8
			c0.4,0.4,0.7,0.8,0.9,1.2c0.2,0.5,0.3,0.9,0.3,1.4v5.8c0,0.4,0,0.8,0,1.1s0,0.7,0.1,1h-1.9c0-0.6-0.1-1.2-0.1-1.7h0
			c-0.5,0.7-1,1.3-1.7,1.6s-1.4,0.5-2.3,0.5c-0.5,0-1-0.1-1.5-0.2c-0.5-0.1-0.9-0.4-1.3-0.6c-0.4-0.3-0.6-0.6-0.9-1.1
			s-0.3-0.9-0.3-1.5c0-0.7,0.2-1.4,0.5-1.8c0.3-0.5,0.8-0.9,1.3-1.2c0.6-0.3,1.2-0.5,2-0.7c0.8-0.1,1.6-0.2,2.4-0.2h1.6v-0.5
			c0-0.3-0.1-0.6-0.2-0.9s-0.3-0.5-0.5-0.8c-0.2-0.2-0.5-0.4-0.8-0.6c-0.3-0.1-0.7-0.2-1.2-0.2c-0.4,0-0.8,0-1.1,0.1
			c-0.3,0.1-0.6,0.2-0.9,0.3c-0.3,0.1-0.5,0.3-0.7,0.4s-0.4,0.3-0.6,0.5L349.7,78.5z M355.8,83c-0.5,0-1,0-1.6,0.1
			c-0.5,0.1-1,0.2-1.5,0.3c-0.4,0.2-0.8,0.4-1.1,0.7c-0.3,0.3-0.4,0.7-0.4,1.1c0,0.7,0.2,1.1,0.7,1.4c0.4,0.3,1,0.4,1.8,0.4
			c0.6,0,1.1-0.1,1.5-0.3c0.4-0.2,0.8-0.5,1-0.8c0.3-0.3,0.4-0.7,0.6-1.1c0.1-0.4,0.2-0.8,0.2-1.2V83H355.8z"/>
		<path class="st1" d="M362.2,70.3h2.2v18.1h-2.2V70.3z"/>
		<path class="st1" d="M368,70.3h2.2v18.1H368V70.3z"/>
		<path class="st1" d="M375.2,83.6c0,0.5,0.1,0.9,0.3,1.4s0.5,0.8,0.9,1c0.4,0.3,0.8,0.5,1.2,0.7c0.5,0.2,0.9,0.2,1.4,0.2
			c0.7,0,1.3-0.2,1.8-0.5c0.5-0.3,1-0.7,1.4-1.2l1.6,1.2c-1.2,1.6-2.9,2.3-5,2.3c-0.9,0-1.7-0.2-2.4-0.5c-0.7-0.3-1.3-0.7-1.8-1.3
			s-0.9-1.2-1.2-1.9c-0.3-0.7-0.4-1.5-0.4-2.4c0-0.8,0.1-1.6,0.4-2.4c0.3-0.7,0.7-1.4,1.2-1.9c0.5-0.5,1.1-1,1.9-1.3
			c0.7-0.3,1.5-0.5,2.4-0.5c1,0,1.9,0.2,2.6,0.5c0.7,0.4,1.3,0.8,1.7,1.4c0.4,0.6,0.8,1.2,1,1.9s0.3,1.4,0.3,2.2v0.8H375.2z
			 M382,81.8c0-0.5-0.1-0.9-0.2-1.3c-0.1-0.4-0.3-0.7-0.6-1c-0.3-0.3-0.6-0.5-1-0.7s-0.9-0.3-1.4-0.3c-0.5,0-1,0.1-1.5,0.3
			s-0.8,0.5-1.1,0.8c-0.3,0.3-0.5,0.7-0.7,1.1c-0.2,0.4-0.3,0.8-0.3,1.2H382z"/>
		<path class="st1" d="M386.9,77.1h2.2v1.8h0c0.1-0.3,0.3-0.6,0.6-0.8s0.5-0.5,0.8-0.6s0.6-0.3,1-0.4c0.4-0.1,0.7-0.2,1.1-0.2
			c0.4,0,0.7,0,1,0.1l-0.1,2.3c-0.2,0-0.4-0.1-0.5-0.1s-0.4,0-0.5,0c-1.1,0-1.9,0.3-2.4,0.9c-0.6,0.6-0.8,1.5-0.8,2.8v5.7h-2.2V77.1
			z"/>
	</g>
	<g>
		<path class="st1" d="M117.7,44.3c0.7,1,1.6,1.8,2.7,2.3c1.1,0.5,2.2,0.7,3.3,0.7c0.6,0,1.3-0.1,2-0.3c0.7-0.2,1.3-0.5,1.8-0.9
			s1-0.9,1.3-1.5s0.5-1.3,0.5-2c0-1.1-0.3-1.9-1-2.5s-1.6-1.1-2.6-1.4c-1-0.4-2.1-0.8-3.4-1.1c-1.2-0.4-2.3-0.9-3.4-1.5
			c-1-0.6-1.9-1.5-2.6-2.6c-0.7-1.1-1-2.5-1-4.4c0-0.8,0.2-1.7,0.5-2.6c0.4-0.9,0.9-1.8,1.7-2.6c0.8-0.8,1.8-1.4,3-1.9
			c1.2-0.5,2.7-0.8,4.4-0.8c1.5,0,3,0.2,4.4,0.6c1.4,0.4,2.7,1.3,3.7,2.6l-3.1,2.8c-0.5-0.7-1.2-1.3-2-1.8s-1.9-0.7-3-0.7
			c-1.1,0-2,0.1-2.7,0.4c-0.7,0.3-1.3,0.6-1.7,1.1c-0.4,0.4-0.7,0.9-0.9,1.4c-0.2,0.5-0.3,1-0.3,1.4c0,1.2,0.3,2.1,1,2.8
			c0.7,0.6,1.6,1.2,2.6,1.6c1,0.4,2.1,0.8,3.4,1.1c1.2,0.3,2.3,0.8,3.4,1.3c1,0.6,1.9,1.3,2.6,2.3c0.7,1,1,2.3,1,4
			c0,1.4-0.3,2.6-0.8,3.7c-0.5,1.1-1.2,2-2.1,2.8c-0.9,0.7-1.9,1.3-3.1,1.7c-1.2,0.4-2.5,0.6-3.8,0.6c-1.8,0-3.5-0.3-5.2-1
			c-1.6-0.6-2.9-1.6-3.9-3L117.7,44.3z"/>
		<path class="st1" d="M148,21.9h3.5l12.1,28.3h-4.5l-2.8-7h-13.5l-2.8,7h-4.5L148,21.9z M154.9,39.8l-5.3-13h-0.1l-5.4,13H154.9z"
			/>
		<path class="st1" d="M167.3,21.9h3.8v28.3h-3.8V21.9z"/>
		<path class="st1" d="M198.1,28c-0.8-1-1.8-1.8-3-2.4c-1.2-0.6-2.5-0.8-3.8-0.8c-1.6,0-3,0.3-4.3,0.9s-2.4,1.4-3.3,2.5
			s-1.6,2.3-2.1,3.7c-0.5,1.4-0.8,2.9-0.8,4.5c0,1.5,0.2,2.9,0.7,4.2c0.5,1.3,1.2,2.5,2.1,3.5c0.9,1,2,1.8,3.3,2.4s2.8,0.9,4.4,0.9
			c1.6,0,3.1-0.3,4.3-1c1.2-0.7,2.3-1.6,3.1-2.8l3.2,2.4c-0.2,0.3-0.6,0.7-1.1,1.3c-0.5,0.5-1.2,1.1-2.1,1.6s-1.9,1-3.2,1.4
			s-2.7,0.6-4.3,0.6c-2.2,0-4.3-0.4-6.1-1.3c-1.8-0.9-3.3-2-4.6-3.4c-1.3-1.4-2.2-3-2.9-4.7c-0.7-1.7-1-3.5-1-5.3
			c0-2.2,0.4-4.2,1.1-6.1c0.7-1.9,1.7-3.5,3-4.8c1.3-1.3,2.8-2.4,4.7-3.1c1.8-0.7,3.8-1.1,6-1.1c1.9,0,3.7,0.4,5.5,1.1
			c1.8,0.7,3.3,1.8,4.4,3.3L198.1,28z"/>
		<path class="st1" d="M219.6,50.9c-2.2,0-4.1-0.4-6-1.1s-3.4-1.8-4.7-3.1c-1.3-1.3-2.3-2.9-3-4.7c-0.7-1.8-1.1-3.8-1.1-5.9
			c0-2.1,0.4-4.1,1.1-5.9c0.7-1.8,1.7-3.4,3-4.7c1.3-1.3,2.8-2.4,4.7-3.1c1.8-0.8,3.8-1.1,6-1.1c2.2,0,4.1,0.4,6,1.1
			c1.8,0.8,3.4,1.8,4.7,3.1c1.3,1.3,2.3,2.9,3,4.7s1.1,3.8,1.1,5.9c0,2.1-0.4,4.1-1.1,5.9c-0.7,1.8-1.7,3.4-3,4.7
			c-1.3,1.3-2.8,2.4-4.7,3.1S221.7,50.9,219.6,50.9z M219.6,47.3c1.6,0,3.1-0.3,4.4-0.9c1.3-0.6,2.4-1.4,3.4-2.4
			c0.9-1,1.7-2.2,2.2-3.6c0.5-1.4,0.8-2.8,0.8-4.4c0-1.5-0.3-3-0.8-4.4c-0.5-1.4-1.2-2.6-2.2-3.6c-0.9-1-2.1-1.8-3.4-2.4
			s-2.8-0.9-4.4-0.9s-3.1,0.3-4.4,0.9c-1.3,0.6-2.4,1.4-3.4,2.4c-0.9,1-1.7,2.2-2.2,3.6c-0.5,1.4-0.8,2.8-0.8,4.4
			c0,1.5,0.3,3,0.8,4.4c0.5,1.4,1.2,2.6,2.2,3.6c0.9,1,2.1,1.8,3.4,2.4C216.5,47,217.9,47.3,219.6,47.3z"/>
		<path class="st1" d="M239.8,21.9h10c1.8,0,3.3,0.2,4.5,0.7c1.2,0.5,2.1,1.1,2.8,1.9c0.7,0.8,1.2,1.6,1.4,2.6
			c0.3,0.9,0.4,1.9,0.4,2.7c0,0.9-0.2,1.8-0.5,2.6c-0.3,0.8-0.8,1.6-1.4,2.3c-0.6,0.7-1.3,1.3-2.2,1.7c-0.9,0.5-1.8,0.8-2.9,0.9
			l8,12.9h-4.8L248,37.7h-4.3v12.5h-3.8V21.9z M243.7,34.4h5c0.7,0,1.5-0.1,2.2-0.2c0.7-0.1,1.4-0.3,2-0.7c0.6-0.3,1-0.8,1.4-1.4
			c0.3-0.6,0.5-1.4,0.5-2.3s-0.2-1.7-0.5-2.3c-0.3-0.6-0.8-1.1-1.4-1.4c-0.6-0.3-1.2-0.5-2-0.7c-0.7-0.1-1.5-0.2-2.2-0.2h-5V34.4z"
			/>
		<path class="st1" d="M299.5,34.4v14c-0.7,0.4-1.5,0.8-2.4,1.1c-0.9,0.3-1.8,0.6-2.7,0.8c-0.9,0.2-1.9,0.4-2.9,0.5
			c-1,0.1-1.9,0.2-2.7,0.2c-2.4,0-4.5-0.4-6.4-1.2c-1.9-0.8-3.5-1.9-4.8-3.2c-1.3-1.4-2.3-2.9-3-4.7c-0.7-1.8-1-3.7-1-5.7
			c0-2.1,0.4-4.1,1.1-5.9c0.7-1.8,1.7-3.4,3-4.7c1.3-1.3,2.8-2.4,4.7-3.1c1.8-0.8,3.8-1.1,6-1.1c2.6,0,4.7,0.3,6.4,1s3,1.6,4.2,2.7
			l-2.7,2.9c-1.2-1.1-2.4-1.9-3.7-2.3c-1.3-0.4-2.7-0.7-4.1-0.7c-1.6,0-3.1,0.3-4.4,0.9c-1.3,0.6-2.4,1.4-3.4,2.4
			c-0.9,1-1.7,2.2-2.2,3.6c-0.5,1.4-0.8,2.8-0.8,4.4c0,1.6,0.3,3.1,0.8,4.5c0.6,1.4,1.3,2.6,2.3,3.6c1,1,2.1,1.8,3.5,2.4
			c1.3,0.6,2.8,0.9,4.4,0.9c1.4,0,2.6-0.1,3.9-0.4c1.2-0.3,2.2-0.6,3.1-1.1V38h-6.3v-3.6H299.5z"/>
		<path class="st1" d="M305.6,31.2h3.6v2.9h0.1c0.2-0.5,0.6-1,1-1.4c0.4-0.4,0.8-0.8,1.3-1.1c0.5-0.3,1-0.5,1.6-0.7
			c0.6-0.2,1.2-0.3,1.8-0.3c0.6,0,1.1,0.1,1.6,0.2l-0.2,3.9c-0.3-0.1-0.6-0.1-0.9-0.2c-0.3-0.1-0.6-0.1-0.9-0.1
			c-1.8,0-3.1,0.5-4,1.5c-0.9,1-1.4,2.5-1.4,4.6v9.5h-3.6V31.2z"/>
		<path class="st1" d="M322.4,42c0,0.8,0.2,1.6,0.5,2.3c0.4,0.7,0.8,1.3,1.4,1.7c0.6,0.5,1.3,0.9,2,1.1c0.8,0.3,1.6,0.4,2.4,0.4
			c1.1,0,2.1-0.3,2.9-0.8c0.8-0.5,1.6-1.2,2.3-2.1l2.7,2.1c-2,2.6-4.8,3.9-8.4,3.9c-1.5,0-2.8-0.3-4.1-0.8c-1.2-0.5-2.2-1.2-3.1-2.1
			s-1.5-1.9-1.9-3.2c-0.5-1.2-0.7-2.5-0.7-3.9c0-1.4,0.2-2.7,0.7-3.9c0.5-1.2,1.2-2.3,2-3.2c0.9-0.9,1.9-1.6,3.1-2.1
			c1.2-0.5,2.5-0.8,3.9-0.8c1.7,0,3.1,0.3,4.3,0.9c1.2,0.6,2.1,1.4,2.9,2.3c0.7,0.9,1.3,2,1.6,3.2s0.5,2.4,0.5,3.6V42H322.4z
			 M333.8,39.2c0-0.8-0.2-1.5-0.4-2.2c-0.2-0.7-0.6-1.2-1-1.7c-0.5-0.5-1-0.9-1.7-1.2c-0.7-0.3-1.5-0.4-2.4-0.4
			c-0.9,0-1.7,0.2-2.4,0.5c-0.7,0.3-1.4,0.8-1.9,1.3c-0.5,0.5-0.9,1.1-1.2,1.8c-0.3,0.7-0.4,1.3-0.4,1.9H333.8z"/>
		<path class="st1" d="M344.6,42c0,0.8,0.2,1.6,0.5,2.3c0.4,0.7,0.8,1.3,1.4,1.7c0.6,0.5,1.3,0.9,2,1.1c0.8,0.3,1.6,0.4,2.4,0.4
			c1.1,0,2.1-0.3,2.9-0.8c0.8-0.5,1.6-1.2,2.3-2.1l2.7,2.1c-2,2.6-4.8,3.9-8.4,3.9c-1.5,0-2.8-0.3-4.1-0.8c-1.2-0.5-2.2-1.2-3.1-2.1
			s-1.5-1.9-1.9-3.2c-0.5-1.2-0.7-2.5-0.7-3.9c0-1.4,0.2-2.7,0.7-3.9c0.5-1.2,1.2-2.3,2-3.2c0.9-0.9,1.9-1.6,3.1-2.1
			c1.2-0.5,2.5-0.8,3.9-0.8c1.7,0,3.1,0.3,4.3,0.9c1.2,0.6,2.1,1.4,2.9,2.3c0.7,0.9,1.3,2,1.6,3.2s0.5,2.4,0.5,3.6V42H344.6z
			 M356,39.2c0-0.8-0.2-1.5-0.4-2.2c-0.2-0.7-0.6-1.2-1-1.7c-0.5-0.5-1-0.9-1.7-1.2c-0.7-0.3-1.5-0.4-2.4-0.4
			c-0.9,0-1.7,0.2-2.4,0.5c-0.7,0.3-1.4,0.8-1.9,1.3c-0.5,0.5-0.9,1.1-1.2,1.8c-0.3,0.7-0.4,1.3-0.4,1.9H356z"/>
		<path class="st1" d="M364.2,31.2h3.6v2.9h0.1c0.5-1,1.2-1.8,2.4-2.5c1.1-0.6,2.4-0.9,3.9-0.9c0.9,0,1.8,0.1,2.6,0.4
			c0.8,0.3,1.6,0.7,2.2,1.3c0.6,0.6,1.1,1.3,1.5,2.3c0.4,0.9,0.6,2,0.6,3.3v12.2h-3.6V39c0-0.9-0.1-1.6-0.4-2.3
			c-0.2-0.6-0.6-1.1-1-1.5c-0.4-0.4-0.9-0.7-1.4-0.8c-0.5-0.2-1.1-0.3-1.6-0.3c-0.7,0-1.4,0.1-2.1,0.4c-0.6,0.2-1.2,0.6-1.7,1.1
			c-0.5,0.5-0.9,1.2-1.1,2c-0.3,0.8-0.4,1.7-0.4,2.8v9.8h-3.6V31.2z"/>
		<path class="st1" d="M398.4,21.9h3.8v11.8H417V21.9h3.8v28.3H417v-13h-14.7v13h-3.8V21.9z"/>
		<path class="st1" d="M426.2,40.7c0-1.4,0.3-2.7,0.8-3.9c0.5-1.2,1.2-2.3,2.1-3.2s2-1.6,3.2-2.1c1.2-0.5,2.5-0.8,4-0.8
			c1.4,0,2.7,0.3,4,0.8c1.2,0.5,2.3,1.2,3.2,2.1c0.9,0.9,1.6,2,2.1,3.2c0.5,1.2,0.8,2.5,0.8,3.9c0,1.4-0.3,2.7-0.8,3.9
			c-0.5,1.2-1.2,2.3-2.1,3.2c-0.9,0.9-2,1.6-3.2,2.1c-1.2,0.5-2.5,0.8-4,0.8c-1.4,0-2.7-0.3-4-0.8c-1.2-0.5-2.3-1.2-3.2-2.1
			s-1.6-1.9-2.1-3.2C426.5,43.4,426.2,42.1,426.2,40.7z M430.1,40.7c0,1,0.1,1.8,0.4,2.7c0.3,0.8,0.7,1.5,1.2,2.1
			c0.5,0.6,1.2,1,2,1.4c0.8,0.3,1.6,0.5,2.6,0.5s1.8-0.2,2.6-0.5c0.8-0.3,1.4-0.8,2-1.4c0.5-0.6,0.9-1.3,1.2-2.1
			c0.3-0.8,0.4-1.7,0.4-2.7c0-1-0.1-1.8-0.4-2.7s-0.7-1.5-1.2-2.1c-0.5-0.6-1.2-1-2-1.4c-0.8-0.3-1.6-0.5-2.6-0.5s-1.8,0.2-2.6,0.5
			c-0.8,0.3-1.4,0.8-2,1.4c-0.5,0.6-0.9,1.3-1.2,2.1C430.2,38.9,430.1,39.8,430.1,40.7z"/>
		<path class="st1" d="M450.9,31.2h3.6V34h0.1c0.7-1,1.6-1.8,2.9-2.4c1.2-0.6,2.5-0.8,3.7-0.8c1.5,0,2.8,0.3,4,0.8
			c1.2,0.5,2.2,1.2,3,2.1c0.8,0.9,1.5,2,1.9,3.2c0.5,1.2,0.7,2.5,0.7,3.9c0,1.4-0.2,2.7-0.7,3.9c-0.5,1.2-1.1,2.3-1.9,3.2
			c-0.8,0.9-1.9,1.6-3,2.1c-1.2,0.5-2.5,0.8-4,0.8c-1.4,0-2.6-0.3-3.8-0.9s-2.1-1.4-2.8-2.3h-0.1v14h-3.6V31.2z M460.8,34.1
			c-1,0-1.8,0.2-2.6,0.5c-0.8,0.3-1.4,0.8-2,1.4c-0.5,0.6-0.9,1.3-1.2,2.1c-0.3,0.8-0.4,1.7-0.4,2.7c0,1,0.1,1.8,0.4,2.7
			c0.3,0.8,0.7,1.5,1.2,2.1c0.5,0.6,1.2,1,2,1.4c0.8,0.3,1.6,0.5,2.6,0.5s1.8-0.2,2.6-0.5c0.8-0.3,1.4-0.8,2-1.4
			c0.5-0.6,0.9-1.3,1.2-2.1c0.3-0.8,0.4-1.7,0.4-2.7c0-1-0.1-1.8-0.4-2.7c-0.3-0.8-0.7-1.5-1.2-2.1c-0.5-0.6-1.2-1-2-1.4
			C462.6,34.3,461.7,34.1,460.8,34.1z"/>
		<path class="st1" d="M478.1,42c0,0.8,0.2,1.6,0.5,2.3c0.4,0.7,0.8,1.3,1.4,1.7c0.6,0.5,1.3,0.9,2,1.1c0.8,0.3,1.6,0.4,2.4,0.4
			c1.1,0,2.1-0.3,2.9-0.8c0.8-0.5,1.6-1.2,2.3-2.1l2.7,2.1c-2,2.6-4.8,3.9-8.4,3.9c-1.5,0-2.8-0.3-4.1-0.8c-1.2-0.5-2.2-1.2-3.1-2.1
			s-1.5-1.9-1.9-3.2c-0.5-1.2-0.7-2.5-0.7-3.9c0-1.4,0.2-2.7,0.7-3.9c0.5-1.2,1.2-2.3,2-3.2c0.9-0.9,1.9-1.6,3.1-2.1
			c1.2-0.5,2.5-0.8,3.9-0.8c1.7,0,3.1,0.3,4.3,0.9c1.2,0.6,2.1,1.4,2.9,2.3c0.7,0.9,1.3,2,1.6,3.2s0.5,2.4,0.5,3.6V42H478.1z
			 M489.4,39.2c0-0.8-0.2-1.5-0.4-2.2c-0.2-0.7-0.6-1.2-1-1.7c-0.5-0.5-1-0.9-1.7-1.2c-0.7-0.3-1.5-0.4-2.4-0.4
			c-0.9,0-1.7,0.2-2.4,0.5c-0.7,0.3-1.4,0.8-1.9,1.3c-0.5,0.5-0.9,1.1-1.2,1.8c-0.3,0.7-0.4,1.3-0.4,1.9H489.4z"/>
	</g>
</g>
<g id="Iconos">
</g>
</svg>
