<svg xmlns="http://www.w3.org/2000/svg" viewBox="0 0 204.46 204.43"><defs><style>.cls-1{fill:none;}.cls-2{fill:#cfd0d1;}.cls-3{fill:#fff;}</style></defs><title>Recurso 26</title><g id="Capa_2" data-name="Capa 2"><g id="Diseño"><path class="cls-1" d="M63.39,140.13c-.36,1,17.49,3.69,22.3,3.69a43.9,43.9,0,0,0,16.53-3.1V85.79C86.7,97.64,72.06,114.93,63.39,140.13Z"/><path class="cls-1" d="M102.23,85.79v54.93c11.09-4.46,19.61-13.42,25.91-24.87a159.85,159.85,0,0,0,9.48-21.41c1.52-4.07,2.93-8.18,4.31-12.3,4.3-12.87,9.82-19.43,23.44-21.82a195.09,195.09,0,0,0-32.93,8.49A127.76,127.76,0,0,0,102.23,85.79Z"/><path class="cls-1" d="M56.4,129c-6.09,19.9,3,31,3,31h3.16c-7.07-11.69-4.46-21.48-2.85-26.18,2.85-8.1,13.17-31.36,42.47-50.24V59C71.23,64.1,43.09,81.09,56.4,129Z"/><path class="cls-1" d="M132.44,68.82c18.43-7.34,32.9-8.49,32.93-8.49S132.44,54,102.23,59V83.53A147.13,147.13,0,0,1,132.44,68.82Z"/><path class="cls-1" d="M107.82,22"/><path class="cls-2" d="M102.23,83.53v2.26a127.76,127.76,0,0,1,30.21-17A147.13,147.13,0,0,0,102.23,83.53Z"/><path class="cls-3" d="M102.23,182.67h0v-42a43.9,43.9,0,0,1-16.53,3.1c-4.81,0-22.66-2.65-22.3-3.69,8.66-25.2,23.31-42.49,38.84-54.34V83.53C72.92,102.4,62.6,125.66,59.76,133.76c-1.6,4.7-4.22,14.48,2.85,26.18H59.45s-9.14-11.09-3-31C43.09,81.09,71.23,64.1,102.23,59V0h0a102.22,102.22,0,1,0,0,204.43h0V194.1h0"/><path class="cls-2" d="M102.23,194.1v10.33A102.22,102.22,0,1,0,102.23,0V59c30.21-5,63.14,1.32,63.14,1.32-13.62,2.39-19.14,9-23.44,21.82-1.37,4.12-2.79,8.23-4.31,12.3a159.85,159.85,0,0,1-9.48,21.41c-6.3,11.45-14.82,20.41-25.91,24.87v42"/><path class="cls-2" d="M165.37,60.32s-14.5,1.15-32.93,8.49A195.09,195.09,0,0,1,165.37,60.32Z"/></g></g></svg>