<svg xmlns="http://www.w3.org/2000/svg" viewBox="0 0 232.18 237.71"><defs><style>.cls-1{fill:#2d2c30;}.cls-2{fill:#201f23;}.cls-3{fill:#89be42;}.cls-4{fill:none;}.cls-5{fill:#fff;}.cls-6{fill:#d0d1d2;}</style></defs><title>tcar</title><g id="Iconos"><path class="cls-1" d="M2.58,119A112.62,112.62,0,0,0,115.08,232.15V5.88A112.61,112.61,0,0,0,2.58,119Z"/><path class="cls-2" d="M116,5.87h-.89V232.15H116A113.14,113.14,0,1,0,116,5.87Z"/><path class="cls-3" d="M115.83,180.63h0v0Z"/><path class="cls-4" d="M78.75,143.21c-4.86,15.88,2.43,24.73,2.43,24.73H83.7a23.56,23.56,0,0,1-2.28-20.89c2.27-6.47,10.51-25,33.9-40.09V87.4C90.58,91.47,68.13,105,78.75,143.21Z"/><path class="cls-4" d="M84.33,152.14c-.29.83,14,2.95,17.8,2.95a35,35,0,0,0,13.19-2.48V108.77A90.36,90.36,0,0,0,84.33,152.14Z"/><path class="cls-4" d="M115.32,108.77v43.83C124.17,149,131,141.89,136,132.76a127.52,127.52,0,0,0,7.57-17.09c1.21-3.25,2.34-6.52,3.44-9.81,3.44-10.27,7.84-15.5,18.71-17.41a155.73,155.73,0,0,0-26.28,6.78A102,102,0,0,0,115.32,108.77Z"/><path class="cls-4" d="M51.12,121.89a64.19,64.19,0,0,1,58.75-63.95l-.67-9.1A73.34,73.34,0,0,0,47.77,150.46l8.34-3.72A64,64,0,0,1,51.12,121.89Z"/><path class="cls-4" d="M139.43,95.22a100.2,100.2,0,0,1,26.28-6.78s-26.28-5-50.38-1V107A117.4,117.4,0,0,1,139.43,95.22Z"/><path class="cls-4" d="M60.7,155.62l-7.82,4.7a73.28,73.28,0,0,0,62.45,34.89h0v-9.12h0A64.15,64.15,0,0,1,60.7,155.62Z"/><path class="cls-4" d="M177.88,160.15l-7.76-4.8a64.16,64.16,0,0,1-54.8,30.73v9.12A73.28,73.28,0,0,0,177.88,160.15Z"/><path class="cls-4" d="M188.65,121.89A73.31,73.31,0,0,0,120.3,48.76l-.52,9.11a64.2,64.2,0,0,1,54.84,88.67l8.33,3.73A73.06,73.06,0,0,0,188.65,121.89Z"/><path class="cls-5" d="M115.32,195.21a73.28,73.28,0,0,1-62.45-34.89l7.82-4.7a64.15,64.15,0,0,0,54.62,30.47h0V152.61a35,35,0,0,1-13.19,2.48c-3.84,0-18.08-2.11-17.8-2.95a90.36,90.36,0,0,1,31-43.36V107C91.94,122,83.7,140.59,81.43,147.05a23.56,23.56,0,0,0,2.28,20.89H81.18s-7.29-8.85-2.43-24.73C68.13,105,90.58,91.47,115.32,87.4V40.31h0a81.57,81.57,0,1,0,0,163.14h0v-8.24ZM42,121.89a73.31,73.31,0,0,1,67.2-73l.67,9.1a64.21,64.21,0,0,0-53.76,88.79l-8.34,3.72A73.09,73.09,0,0,1,42,121.89Z"/><path class="cls-6" d="M196.9,121.88a81.58,81.58,0,0,0-81.58-81.57V87.4c24.1-4,50.38,1,50.38,1-10.87,1.91-15.27,7.14-18.71,17.41-1.1,3.29-2.23,6.57-3.44,9.81A127.52,127.52,0,0,1,136,132.76c-5,9.13-11.83,16.29-20.67,19.85v33.48a64.16,64.16,0,0,0,54.8-30.73l7.76,4.8a73.28,73.28,0,0,1-62.55,35.05v8.24A81.58,81.58,0,0,0,196.9,121.88Zm-22.28,24.65a64.2,64.2,0,0,0-54.84-88.67l.52-9.11a73.33,73.33,0,0,1,62.65,101.51Z"/><path class="cls-6" d="M115.32,107v1.81a102,102,0,0,1,24.11-13.55A117.4,117.4,0,0,0,115.32,107Z"/><path class="cls-6" d="M165.71,88.45a100.2,100.2,0,0,0-26.28,6.78A155.73,155.73,0,0,1,165.71,88.45Z"/></g></svg>