<?xml version="1.0" encoding="utf-8"?>
<!-- Generator: Adobe Illustrator 20.1.0, SVG Export Plug-In . SVG Version: 6.00 Build 0)  -->
<svg version="1.1" xmlns="http://www.w3.org/2000/svg" xmlns:xlink="http://www.w3.org/1999/xlink" x="0px" y="0px"
	 viewBox="0 0 232.2 237.7" style="enable-background:new 0 0 232.2 237.7;" xml:space="preserve">
<style type="text/css">
	.st0{clip-path:url(#SVGID_4_);}
	.st1{fill:#201F23;}
	.st2{fill:url(#SVGID_5_);}
	.st3{fill:#DBDCDD;}
	.st4{opacity:0.9;fill:#EAA330;}
	.st5{fill:#87BC42;}
	.st6{fill:#FFFFFF;}
	.st7{opacity:0.9;fill:#201F23;}
	.st8{opacity:0.7;fill:#201F23;}
	.st9{fill:url(#SVGID_6_);}
	.st10{fill:url(#SVGID_7_);}
	.st11{fill:url(#SVGID_8_);}
	.st12{fill:url(#SVGID_9_);}
	.st13{fill:url(#SVGID_10_);}
	.st14{fill:url(#SVGID_11_);}
	.st15{fill:none;stroke:#DBDCDD;stroke-width:3;stroke-linecap:round;stroke-miterlimit:10;}
	.st16{opacity:0.4;fill:#FFFFFF;}
	.st17{fill:none;stroke:#B9B9B9;stroke-width:12;stroke-linejoin:round;stroke-miterlimit:10;}
	.st18{fill:none;stroke:#6A9642;stroke-width:14;stroke-miterlimit:10;}
	.st19{fill:none;stroke:#FFFFFF;stroke-width:12;stroke-linejoin:round;stroke-miterlimit:10;}
	.st20{fill:url(#SVGID_12_);}
	.st21{fill:#6AAF42;}
	.st22{fill:none;stroke:#FFFFFF;stroke-width:2.0274;stroke-miterlimit:10;stroke-dasharray:3.379;}
	.st23{fill:none;stroke:#FFFFFF;stroke-width:2.0274;stroke-miterlimit:10;stroke-dasharray:7;}
	.st24{fill:url(#SVGID_13_);}
	.st25{fill:#6A9642;}
	.st26{fill:#504F54;}
	.st27{fill:none;stroke:#B9B9B9;stroke-width:12;stroke-miterlimit:10;}
	.st28{fill:#EAA330;}
	.st29{fill:#2D2C30;}
	.st30{fill:#CED0D1;}
	.st31{fill:#35903A;}
	.st32{fill:#CECFD0;}
	.st33{fill:#4E893F;}
	.st34{fill:#58595B;}
	.st35{fill:#272A2D;}
	.st36{fill:url(#SVGID_14_);}
	.st37{fill:none;stroke:#FFFFFF;stroke-miterlimit:10;}
	.st38{fill:#EEE0AD;}
	.st39{fill:#CDC297;}
	.st40{fill:#BEBFC5;}
	.st41{fill:#AAA9AF;}
	.st42{fill:#DADBDC;}
	.st43{fill:none;stroke:#FFFFFF;stroke-width:2.0274;stroke-miterlimit:10;}
	.st44{fill:none;stroke:#FFFFFF;stroke-width:2.0274;stroke-miterlimit:10;stroke-dasharray:7.054,7.054;}
	.st45{fill:#CDCFD0;}
	.st46{fill:#102D40;}
	.st47{fill:#264860;}
	.st48{clip-path:url(#SVGID_16_);}
	.st49{fill:#E8BD98;}
	.st50{fill:#E76D4A;}
	.st51{fill:#543E36;}
	.st52{fill:#C34628;}
	.st53{fill:none;stroke:#FFFFFF;stroke-width:2.2466;stroke-miterlimit:10;stroke-dasharray:3.7443;}
	.st54{clip-path:url(#SVGID_18_);fill:#98ABB7;}
	.st55{clip-path:url(#SVGID_18_);}
	.st56{fill:#421800;}
	.st57{fill:#ECCCB0;}
	.st58{fill:#B34FC5;}
	.st59{fill:#E3E8EE;}
	.st60{opacity:0.5;clip-path:url(#SVGID_18_);fill:#ECCCB0;}
	.st61{clip-path:url(#SVGID_20_);fill:#3EA1BD;}
	.st62{clip-path:url(#SVGID_20_);}
	.st63{fill:#A17561;}
	.st64{fill:#141720;}
	.st65{clip-path:url(#SVGID_20_);fill:#FFFFFF;}
	.st66{opacity:0.5;clip-path:url(#SVGID_20_);fill:#E8BD98;}
	.st67{clip-path:url(#SVGID_22_);}
	.st68{fill:#C55D3F;}
	.st69{clip-path:url(#SVGID_22_);fill:#E8BD98;}
	.st70{clip-path:url(#SVGID_22_);fill:#C7D4E2;}
	.st71{clip-path:url(#SVGID_22_);fill:#543E36;}
	.st72{clip-path:url(#SVGID_22_);fill:#1A1A1A;}
	.st73{fill:#435363;}
	.st74{opacity:0.5;clip-path:url(#SVGID_22_);fill:#E8BD98;}
	.st75{clip-path:url(#SVGID_24_);fill:#006F34;}
	.st76{clip-path:url(#SVGID_24_);}
	.st77{fill:#B3D033;}
	.st78{fill:#BD7E52;}
	.st79{fill:#B0B3B4;}
	.st80{fill:#8A8D8F;}
	.st81{fill:#D1D3D4;}
	.st82{fill:#787B7D;}
	.st83{fill:#B7BABB;}
	.st84{fill:#91A0A1;}
	.st85{fill:#BFC1C2;}
	.st86{fill:#313034;}
	.st87{fill:url(#SVGID_25_);}
	.st88{fill:#B9B9B9;}
	.st89{fill:#ACAEB0;}
	.st90{fill:#BBBDBE;}
	.st91{fill:#96989A;}
	.st92{fill:#CFD0D1;}
	.st93{fill:#5D5D5D;}
	.st94{fill:#B7B9BB;}
	.st95{fill:#919395;}
	.st96{fill:none;}
	.st97{fill-rule:evenodd;clip-rule:evenodd;fill:#CED0D1;}
	.st98{fill-rule:evenodd;clip-rule:evenodd;fill:#FFFFFF;}
	.st99{fill:url(#SVGID_26_);}
	.st100{fill:url(#SVGID_27_);}
	.st101{fill:#F3F3F3;}
	.st102{fill:#231F20;}
	.st103{fill:url(#SVGID_28_);}
	.st104{fill:url(#SVGID_29_);}
	.st105{fill:url(#SVGID_30_);}
	.st106{fill:url(#SVGID_31_);}
	.st107{fill:url(#SVGID_32_);}
	.st108{fill:url(#SVGID_33_);}
	.st109{fill:url(#SVGID_34_);}
	.st110{fill:url(#SVGID_35_);}
	.st111{fill:url(#SVGID_36_);}
	.st112{fill:url(#SVGID_37_);}
	.st113{fill:url(#SVGID_38_);}
	.st114{fill:url(#SVGID_39_);}
	.st115{fill:url(#SVGID_40_);}
	.st116{fill:url(#SVGID_41_);}
	.st117{fill:url(#SVGID_42_);}
	.st118{fill:url(#SVGID_43_);}
	.st119{opacity:0.8;}
	.st120{opacity:0.8;fill:#F3F3F3;}
	.st121{fill:none;stroke:#5D5D5D;stroke-width:3;stroke-linecap:round;stroke-miterlimit:10;}
	.st122{fill:none;stroke:#201F23;stroke-width:5;stroke-miterlimit:10;}
	.st123{fill:none;stroke:#201F23;stroke-width:4.2064;stroke-linecap:round;stroke-miterlimit:10;}
	.st124{fill:none;stroke:#201F23;stroke-miterlimit:10;}
	.st125{fill:#B9BBBC;}
	.st126{fill:#98999C;}
	.st127{fill:#B9BABC;}
	.st128{fill:#E2E2E3;}
	.st129{fill:#D1D1D2;}
	.st130{fill:#2E2D31;}
	.st131{fill:#1F1E21;}
	.st132{fill:#5D5C61;}
	.st133{fill:#4A4A4E;}
	.st134{fill:#88BD42;}
	.st135{opacity:0.6;}
	.st136{fill:#6A9742;}
	.st137{fill:#5F893B;}
	.st138{fill:none;stroke:#CFD0D1;stroke-width:4;stroke-linecap:round;stroke-miterlimit:10;}
	.st139{fill:#E09400;}
	.st140{fill:#F0EABC;}
	.st141{fill:#FFC843;}
	.st142{fill:#DDA070;}
	.st143{fill:none;stroke:#FFFFFF;stroke-width:4;stroke-linecap:round;stroke-miterlimit:10;}
	.st144{fill:none;stroke:#CFD0D1;stroke-width:2.5756;stroke-linecap:round;stroke-miterlimit:10;}
	.st145{fill:none;stroke:#FFFFFF;stroke-width:2.5756;stroke-linecap:round;stroke-miterlimit:10;}
	.st146{fill:#BCBDBE;}
	.st147{fill:#9C9EA0;}
	.st148{fill:#B3B5B6;}
	.st149{fill:#282828;}
</style>
<g id="Fondo">
</g>
<g id="Diseño">
	<g>
		<path class="st1" d="M115.7,87.9c-6.2,0.1-12.3,2.1-17.4,5.7l-0.7,0.5c-5,3.7-8.7,8.9-10.7,14.8l-0.3,0.8c-1.8,6-1.8,12.4,0,18.3
			l0.3,0.9c2,5.9,5.7,11.1,10.7,14.8l0.7,0.5c5.1,3.6,11.1,5.6,17.4,5.7h0.4V87.9H115.7z"/>
		<path class="st1" d="M226.7,118.9c0-61.2-49.5-110.8-110.6-110.8v42.8h8.2l3,10.3l13.5,4.4l8.5-6.5l13.3,9.7l-3.6,10.1l8.3,11.5
			l10.7-0.3l5.1,15.7l-8.8,6V126l8.8,6.1l-5.1,15.7l-10.7-0.3l-8.3,11.5l3.6,10.1l-13.3,9.7l-8.5-6.5l-13.5,4.4l-3,10.3h-8.2v42.8
			C177.2,229.6,226.7,180,226.7,118.9z"/>
		<path class="st29" d="M107.9,186.9l-3-10.3l-13.5-4.4l-8.5,6.5L69.5,169l3.6-10.1l-8.4-11.5l-10.7,0.3L49,132l8.8-6.1v-14.2
			l-8.8-6L54.1,90l10.7,0.3l8.4-11.5l-3.6-10.1L82.9,59l8.5,6.5l13.5-4.4l3-10.3h8.3V8.1c0,0,0,0,0,0C55,8.1,5.5,57.7,5.5,118.9
			C5.5,180,55,229.6,116.1,229.6c0,0,0,0,0,0v-42.8H107.9z"/>
		<path class="st1" d="M133.9,144.2l0.7-0.5c5-3.7,8.7-8.9,10.7-14.8l0.3-0.9c1.8-5.9,1.8-12.3,0-18.3l-0.3-0.8
			c-2-5.9-5.7-11.1-10.7-14.8l-0.7-0.5c-5.1-3.6-11.1-5.6-17.3-5.7h-0.4v61.9h0.4C122.8,149.7,128.8,147.8,133.9,144.2z"/>
		<path class="st6" d="M104.9,61.1l-13.5,4.4L82.9,59l-13.4,9.7l3.6,10.1l-8.4,11.5L54.1,90L49,105.7l8.8,6V126L49,132l5.1,15.7
			l10.7-0.3l8.4,11.5L69.5,169l13.4,9.7l8.5-6.5l13.5,4.4l3,10.3h8.3v-37.1h-0.4c-6.2-0.1-12.3-2.1-17.4-5.7l-0.7-0.5
			c-5-3.7-8.7-8.9-10.7-14.8l-0.3-0.9c-1.8-5.9-1.8-12.3,0-18.3l0.3-0.8c2-5.9,5.7-11.1,10.7-14.8l0.7-0.5
			c5.1-3.6,11.1-5.6,17.4-5.7h0.4V50.8h-8.3L104.9,61.1z"/>
		<path class="st30" d="M116.6,87.9c6.2,0.1,12.3,2.1,17.3,5.7l0.7,0.5c5,3.7,8.7,8.9,10.7,14.8l0.3,0.8c1.8,6,1.8,12.4,0,18.3
			l-0.3,0.9c-2,5.9-5.7,11.1-10.7,14.8l-0.7,0.5c-5.1,3.6-11.1,5.6-17.3,5.7h-0.4v37.1h8.2l3-10.3l13.5-4.4l8.5,6.5l13.3-9.7
			l-3.6-10.1l8.3-11.5l10.7,0.3l5.1-15.7l-8.8-6.1v-14.2l8.8-6L178.2,90l-10.7,0.3l-8.3-11.5l3.6-10.1L149.4,59l-8.5,6.5l-13.5-4.4
			l-3-10.3h-8.2v37.1H116.6z"/>
	</g>
</g>
<g id="Iconos">
</g>
</svg>
