<svg xmlns="http://www.w3.org/2000/svg" viewBox="0 0 150 150"><defs><style>.cls-1{fill:#504f54;}.cls-2{fill:#313034;}.cls-3{fill:#fff;}.cls-4{fill:#cfd0d1;}</style></defs><title>user_talleres</title><g id="Diseño"><path class="cls-1" d="M8.71,74.47c0,36.28,30.6,65.72,65.55,65.92V8.54C39.31,8.75,8.71,38.18,8.71,74.47Z"/><path class="cls-2" d="M75.46,8.54h-1.2V140.39h1.2a65.92,65.92,0,1,0,0-131.85Z"/><path class="cls-3" d="M75.39,33.75c-7.77,0-14,2.78-16.51,12.88-.72,3,0,8.49,0,11.88,0,4.53-.14,7.75,1.26,11.6,2.35,6.51,4.62,12.13,7.7,15.6C56.14,88,47.36,94.76,42.07,97.35,31,102.7,30.2,108.63,30.2,108.63v2.23c0,1,1.1,1.74,1.58,1.91a32.82,32.82,0,0,0,0,6.51H71.31l2-16.95-4.21-6.51a3.62,3.62,0,0,1,.48-4.27,3.76,3.76,0,0,1,2.81-1.13h1.89"/><path class="cls-4" d="M74.26,90.41h6A3.71,3.71,0,0,1,83,91.47a3.57,3.57,0,0,1,.49,4.25l-4.21,6.65,2,16.92h39.46s-.9-4-1.27-6.76c.49-.08.36-.86.36-2v-1.89s.33-5.94-10.69-11.28c-5.48-2.71-13.09-9.42-24.88-11.64,3-3.59,5.42-9.09,7.76-15.6,1.29-3.85,1.1-7.07,1.1-11.6,0-3.51.68-8.86-.18-11.89C90.39,36.52,83,33.75,75.37,33.75"/></g></svg>