<svg xmlns="http://www.w3.org/2000/svg" viewBox="0 0 131.67 131.85"><defs><style>.cls-1{fill:#87bc42;}.cls-2{fill:#6a9642;}.cls-3{fill:#fff;}.cls-4{fill:#cfd0d1;}</style></defs><title>Recurso 7</title><g id="Capa_2" data-name="Capa 2"><g id="Diseño"><path class="cls-1" d="M0,65.92c0,36.28,30.6,65.72,65.55,65.92V0C30.6.21,0,29.64,0,65.92Z"/><path class="cls-2" d="M65.75,0h-1.2V131.84h1.2A65.92,65.92,0,1,0,65.75,0Z"/><path class="cls-3" d="M65.68,25.21c-7.77,0-14,2.78-16.51,12.88-.72,3,0,8.49,0,11.88,0,4.53-.14,7.75,1.26,11.6,2.35,6.51,4.62,12.13,7.7,15.6-11.69,2.3-20.48,9.05-25.77,11.64-11.08,5.34-11.87,11.28-11.87,11.28v2.23c0,1,1.1,1.74,1.58,1.91a32.82,32.82,0,0,0,0,6.51H61.6l2-16.95-4.21-6.51A3.62,3.62,0,0,1,59.84,83a3.76,3.76,0,0,1,2.81-1.13h1.89"/><path class="cls-4" d="M63.55,81.87h6a3.71,3.71,0,0,1,2.81,1.05,3.57,3.57,0,0,1,.49,4.25l-4.21,6.65,2,16.92H110s-.9-4-1.27-6.76c.49-.08.36-.86.36-2v-1.89s.33-5.94-10.69-11.28C93,86.1,85.35,79.39,73.55,77.17c3-3.59,5.42-9.09,7.76-15.6,1.29-3.85,1.1-7.07,1.1-11.6,0-3.51.68-8.86-.18-11.89C79.68,28,72.34,25.21,64.66,25.21"/></g></g></svg>