<?xml version="1.0" encoding="utf-8"?>
<!-- Generator: Adobe Illustrator 20.1.0, SVG Export Plug-In . SVG Version: 6.00 Build 0)  -->
<svg version="1.1" xmlns="http://www.w3.org/2000/svg" xmlns:xlink="http://www.w3.org/1999/xlink" x="0px" y="0px"
	 viewBox="0 0 232.2 237.7" style="enable-background:new 0 0 232.2 237.7;" xml:space="preserve">
<style type="text/css">
	.st0{clip-path:url(#SVGID_4_);}
	.st1{fill:#201F23;}
	.st2{fill:url(#SVGID_5_);}
	.st3{fill:#DBDCDD;}
	.st4{opacity:0.9;fill:#EAA330;}
	.st5{fill:#87BC42;}
	.st6{fill:#FFFFFF;}
	.st7{opacity:0.9;fill:#201F23;}
	.st8{opacity:0.7;fill:#201F23;}
	.st9{fill:url(#SVGID_6_);}
	.st10{fill:url(#SVGID_7_);}
	.st11{fill:url(#SVGID_8_);}
	.st12{fill:url(#SVGID_9_);}
	.st13{fill:url(#SVGID_10_);}
	.st14{fill:url(#SVGID_11_);}
	.st15{fill:none;stroke:#DBDCDD;stroke-width:3;stroke-linecap:round;stroke-miterlimit:10;}
	.st16{opacity:0.4;fill:#FFFFFF;}
	.st17{fill:none;stroke:#B9B9B9;stroke-width:12;stroke-linejoin:round;stroke-miterlimit:10;}
	.st18{fill:none;stroke:#6A9642;stroke-width:14;stroke-miterlimit:10;}
	.st19{fill:none;stroke:#FFFFFF;stroke-width:12;stroke-linejoin:round;stroke-miterlimit:10;}
	.st20{fill:url(#SVGID_12_);}
	.st21{fill:#6AAF42;}
	.st22{fill:none;stroke:#FFFFFF;stroke-width:2.0274;stroke-miterlimit:10;stroke-dasharray:3.379;}
	.st23{fill:none;stroke:#FFFFFF;stroke-width:2.0274;stroke-miterlimit:10;stroke-dasharray:7;}
	.st24{fill:url(#SVGID_13_);}
	.st25{fill:#6A9642;}
	.st26{fill:#504F54;}
	.st27{fill:none;stroke:#B9B9B9;stroke-width:12;stroke-miterlimit:10;}
	.st28{fill:#EAA330;}
	.st29{fill:#2D2C30;}
	.st30{fill:#CED0D1;}
	.st31{fill:#35903A;}
	.st32{fill:#CECFD0;}
	.st33{fill:#4E893F;}
	.st34{fill:#58595B;}
	.st35{fill:#272A2D;}
	.st36{fill:url(#SVGID_14_);}
	.st37{fill:none;stroke:#FFFFFF;stroke-miterlimit:10;}
	.st38{fill:#EEE0AD;}
	.st39{fill:#CDC297;}
	.st40{fill:#BEBFC5;}
	.st41{fill:#AAA9AF;}
	.st42{fill:#DADBDC;}
	.st43{fill:none;stroke:#FFFFFF;stroke-width:2.0274;stroke-miterlimit:10;}
	.st44{fill:none;stroke:#FFFFFF;stroke-width:2.0274;stroke-miterlimit:10;stroke-dasharray:7.054,7.054;}
	.st45{fill:#CDCFD0;}
	.st46{fill:#102D40;}
	.st47{fill:#264860;}
	.st48{clip-path:url(#SVGID_16_);}
	.st49{fill:#E8BD98;}
	.st50{fill:#E76D4A;}
	.st51{fill:#543E36;}
	.st52{fill:#C34628;}
	.st53{fill:none;stroke:#FFFFFF;stroke-width:2.2466;stroke-miterlimit:10;stroke-dasharray:3.7443;}
	.st54{clip-path:url(#SVGID_18_);fill:#98ABB7;}
	.st55{clip-path:url(#SVGID_18_);}
	.st56{fill:#421800;}
	.st57{fill:#ECCCB0;}
	.st58{fill:#B34FC5;}
	.st59{fill:#E3E8EE;}
	.st60{opacity:0.5;clip-path:url(#SVGID_18_);fill:#ECCCB0;}
	.st61{clip-path:url(#SVGID_20_);fill:#3EA1BD;}
	.st62{clip-path:url(#SVGID_20_);}
	.st63{fill:#A17561;}
	.st64{fill:#141720;}
	.st65{clip-path:url(#SVGID_20_);fill:#FFFFFF;}
	.st66{opacity:0.5;clip-path:url(#SVGID_20_);fill:#E8BD98;}
	.st67{clip-path:url(#SVGID_22_);}
	.st68{fill:#C55D3F;}
	.st69{clip-path:url(#SVGID_22_);fill:#E8BD98;}
	.st70{clip-path:url(#SVGID_22_);fill:#C7D4E2;}
	.st71{clip-path:url(#SVGID_22_);fill:#543E36;}
	.st72{clip-path:url(#SVGID_22_);fill:#1A1A1A;}
	.st73{fill:#435363;}
	.st74{opacity:0.5;clip-path:url(#SVGID_22_);fill:#E8BD98;}
	.st75{clip-path:url(#SVGID_24_);fill:#006F34;}
	.st76{clip-path:url(#SVGID_24_);}
	.st77{fill:#B3D033;}
	.st78{fill:#BD7E52;}
	.st79{fill:#B0B3B4;}
	.st80{fill:#8A8D8F;}
	.st81{fill:#D1D3D4;}
	.st82{fill:#787B7D;}
	.st83{fill:#B7BABB;}
	.st84{fill:#91A0A1;}
	.st85{fill:#BFC1C2;}
	.st86{fill:#313034;}
	.st87{fill:url(#SVGID_25_);}
	.st88{fill:#B9B9B9;}
	.st89{fill:#ACAEB0;}
	.st90{fill:#BBBDBE;}
	.st91{fill:#96989A;}
	.st92{fill:#CFD0D1;}
	.st93{fill:#5D5D5D;}
	.st94{fill:#B7B9BB;}
	.st95{fill:#919395;}
	.st96{fill:none;}
	.st97{fill-rule:evenodd;clip-rule:evenodd;fill:#CED0D1;}
	.st98{fill-rule:evenodd;clip-rule:evenodd;fill:#FFFFFF;}
	.st99{fill:url(#SVGID_26_);}
	.st100{fill:url(#SVGID_27_);}
	.st101{fill:#F3F3F3;}
	.st102{fill:#231F20;}
	.st103{fill:url(#SVGID_28_);}
	.st104{fill:url(#SVGID_29_);}
	.st105{fill:url(#SVGID_30_);}
	.st106{fill:url(#SVGID_31_);}
	.st107{fill:url(#SVGID_32_);}
	.st108{fill:url(#SVGID_33_);}
	.st109{fill:url(#SVGID_34_);}
	.st110{fill:url(#SVGID_35_);}
	.st111{fill:url(#SVGID_36_);}
	.st112{fill:url(#SVGID_37_);}
	.st113{fill:url(#SVGID_38_);}
	.st114{fill:url(#SVGID_39_);}
	.st115{fill:url(#SVGID_40_);}
	.st116{fill:url(#SVGID_41_);}
	.st117{fill:url(#SVGID_42_);}
	.st118{fill:url(#SVGID_43_);}
	.st119{opacity:0.8;}
	.st120{opacity:0.8;fill:#F3F3F3;}
	.st121{fill:none;stroke:#5D5D5D;stroke-width:3;stroke-linecap:round;stroke-miterlimit:10;}
	.st122{fill:none;stroke:#201F23;stroke-width:5;stroke-miterlimit:10;}
	.st123{fill:none;stroke:#201F23;stroke-width:4.2064;stroke-linecap:round;stroke-miterlimit:10;}
	.st124{fill:none;stroke:#201F23;stroke-miterlimit:10;}
	.st125{fill:#B9BBBC;}
	.st126{fill:#98999C;}
	.st127{fill:#B9BABC;}
	.st128{fill:#E2E2E3;}
	.st129{fill:#D1D1D2;}
	.st130{fill:#2E2D31;}
	.st131{fill:#1F1E21;}
	.st132{fill:#5D5C61;}
	.st133{fill:#4A4A4E;}
	.st134{fill:#88BD42;}
	.st135{opacity:0.6;}
	.st136{fill:#6A9742;}
	.st137{fill:#5F893B;}
	.st138{fill:none;stroke:#CFD0D1;stroke-width:4;stroke-linecap:round;stroke-miterlimit:10;}
	.st139{fill:#E09400;}
	.st140{fill:#F0EABC;}
	.st141{fill:#FFC843;}
	.st142{fill:#DDA070;}
	.st143{fill:none;stroke:#FFFFFF;stroke-width:4;stroke-linecap:round;stroke-miterlimit:10;}
	.st144{fill:none;stroke:#CFD0D1;stroke-width:2.5756;stroke-linecap:round;stroke-miterlimit:10;}
	.st145{fill:none;stroke:#FFFFFF;stroke-width:2.5756;stroke-linecap:round;stroke-miterlimit:10;}
	.st146{fill:#BCBDBE;}
	.st147{fill:#9C9EA0;}
	.st148{fill:#B3B5B6;}
	.st149{fill:#282828;}
</style>
<g id="Fondo">
</g>
<g id="Diseño">
	<g>
		<path class="st31" d="M156.8,119.9c0.5,5.4,9.1,7.4,16.5,6.7c7.4-0.6,10.8-3.7,10.3-9.1c-0.3-3.8-4.2-6-11.5-5.3
			C161.5,113.1,156.5,116.1,156.8,119.9z"/>
		<path class="st31" d="M146.1,146c1.6-1.6,1.6-6.3,0-7.9c-2.7-2.7-16.4-4-30-4V150C129.7,150,143.4,148.7,146.1,146z"/>
		<path class="st31" d="M171.8,99.4l-11.1-19.9c-2.4-3.9-10.9-6.6-44.4-6.6c-0.1,0-0.1,0-0.2,0v29.5c0.1,0,0.1,0,0.2,0
			C157.4,102.4,171.8,99.4,171.8,99.4z"/>
		<path class="st21" d="M71.9,79.4L60.7,99.4c0,0,14.3,3,55.4,3V72.8C82.8,72.9,74.3,75.5,71.9,79.4z"/>
		<path class="st21" d="M86.5,138c-1.7,1.7-1.6,6.3,0,7.9c2.7,2.7,16.1,4,29.6,4V134C102.6,134,89.1,135.4,86.5,138z"/>
		<path class="st31" d="M116.1,8.7v59.6c0.1,0,0.1,0,0.2,0c34.9,0,44.5,2.7,48.2,8.7l11.7,18.9c0.9-3.2,4-6.1,9-6.1
			c6,0,12.3,4.2,12.3,8c0,3.9-6.3,6.1-12.3,6.1c-0.5,0-1,0-1.5-0.1c3.5,3.1,6.9,5.9,6.9,5.9c2.4,2.2,4.4,6.8,4.4,10.1v25.7
			c0,2.2-1.3,4.2-3.8,6v13.6c0,2.3-1.9,4.3-4.3,4.3h-18.8c-2.3,0-4.3-1.9-4.3-4.3v-5.5c-13,1.8-29.4,2.7-47.7,2.7
			c-0.1,0-0.1,0-0.2,0V229c60.8,0,110.1-49.3,110.1-110.1C226.2,58,176.9,8.7,116.1,8.7z"/>
		<path class="st21" d="M68.6,159.6v5.5c0,2.3-1.9,4.3-4.3,4.3H45.5c-2.3,0-4.3-1.9-4.3-4.3v-13.6c-2.4-1.8-3.8-3.8-3.8-6v-25.7
			c0-3.3,2-7.8,4.4-10.1c0,0,3.4-2.8,6.9-5.9c-0.5,0-1,0.1-1.5,0.1c-5.9,0-12.3-2.2-12.3-6.1c0-3.9,6.3-8,12.3-8c5,0,8.1,2.9,9,6.1
			L68,77.1c3.7-6,13.3-8.7,48.1-8.7V8.7C55.3,8.7,6,58,6,118.9C6,179.7,55.3,229,116.1,229v-66.7C97.8,162.3,81.6,161.4,68.6,159.6z
			"/>
		<path class="st21" d="M48.9,117.6c-0.5,5.4,2.9,8.4,10.3,9.1c7.4,0.6,16-1.3,16.5-6.7c0.3-3.8-4.6-6.8-15.2-7.7
			C53.1,111.6,49.3,113.8,48.9,117.6z"/>
		<path class="st32" d="M116.3,72.8c33.5,0,42,2.6,44.4,6.6l11.1,19.9c0,0-14.4,3-55.5,3c-0.1,0-0.1,0-0.2,0V134
			c13.6,0,27.3,1.3,30,4c1.6,1.7,1.6,6.3,0,7.9c-2.7,2.7-16.4,4-30,4v12.3c0.1,0,0.1,0,0.2,0c18.3,0,34.7-0.9,47.7-2.7v5.5
			c0,2.3,1.9,4.3,4.3,4.3H187c2.3,0,4.3-1.9,4.3-4.3v-13.6c2.4-1.8,3.8-3.8,3.8-6v-25.7c0-3.3-2-7.8-4.4-10.1c0,0-3.4-2.8-6.9-5.9
			c0.5,0,1,0.1,1.5,0.1c6,0,12.3-2.2,12.3-6.1c0-3.9-6.3-8-12.3-8c-5,0-8.2,2.9-9,6.1l-11.7-18.9c-3.7-6-13.3-8.7-48.2-8.7
			c-0.1,0-0.1,0-0.2,0v4.5C116.2,72.8,116.2,72.8,116.3,72.8z M183.6,117.6c0.5,5.4-2.9,8.4-10.3,9.1c-7.4,0.6-16-1.3-16.5-6.7
			c-0.3-3.8,4.6-6.8,15.2-7.7C179.4,111.6,183.3,113.8,183.6,117.6z"/>
		<path class="st6" d="M68,77.1L56.4,95.9c-0.9-3.2-4-6.1-9-6.1c-5.9,0-12.3,4.2-12.3,8c0,3.9,6.3,6.1,12.3,6.1c0.5,0,1,0,1.5-0.1
			c-3.5,3.1-6.9,5.9-6.9,5.9c-2.4,2.2-4.4,6.8-4.4,10.1v25.7c0,2.2,1.3,4.2,3.8,6v13.6c0,2.3,1.9,4.3,4.3,4.3h18.8
			c2.4,0,4.3-1.9,4.3-4.3v-5.5c13,1.8,29.2,2.7,47.5,2.7V150c-13.5,0-27-1.3-29.6-4c-1.6-1.7-1.7-6.3,0-7.9c2.7-2.7,16.1-4,29.6-4
			v-31.7c-41,0-55.4-3-55.4-3l11.1-19.9c2.4-3.9,10.9-6.6,44.2-6.6v-4.5C81.3,68.3,71.7,71.1,68,77.1z M75.7,119.9
			c-0.5,5.4-9.1,7.4-16.5,6.7c-7.4-0.6-10.7-3.7-10.3-9.1c0.3-3.8,4.1-6,11.5-5.3C71.1,113.1,76,116.1,75.7,119.9z"/>
	</g>
</g>
<g id="Iconos">
</g>
</svg>
