<?xml version="1.0" encoding="utf-8"?>
<!-- Generator: Adobe Illustrator 20.1.0, SVG Export Plug-In . SVG Version: 6.00 Build 0)  -->
<svg version="1.1" xmlns="http://www.w3.org/2000/svg" xmlns:xlink="http://www.w3.org/1999/xlink" x="0px" y="0px"
	 viewBox="0 0 87.8 88.5" style="enable-background:new 0 0 87.8 88.5;" xml:space="preserve">
<style type="text/css">
	.st0{clip-path:url(#SVGID_4_);}
	.st1{fill:#201F23;}
	.st2{fill:url(#SVGID_5_);}
	.st3{fill:#DBDCDD;}
	.st4{opacity:0.9;fill:#EAA330;}
	.st5{fill:#87BC42;}
	.st6{fill:#FFFFFF;}
	.st7{opacity:0.9;fill:#201F23;}
	.st8{opacity:0.7;fill:#201F23;}
	.st9{fill:url(#SVGID_6_);}
	.st10{fill:url(#SVGID_7_);}
	.st11{fill:url(#SVGID_8_);}
	.st12{fill:url(#SVGID_9_);}
	.st13{fill:url(#SVGID_10_);}
	.st14{fill:url(#SVGID_11_);}
	.st15{fill:none;stroke:#DBDCDD;stroke-width:3;stroke-linecap:round;stroke-miterlimit:10;}
	.st16{opacity:0.4;fill:#FFFFFF;}
	.st17{fill:none;stroke:#B9B9B9;stroke-width:12;stroke-linejoin:round;stroke-miterlimit:10;}
	.st18{fill:none;stroke:#6A9642;stroke-width:14;stroke-miterlimit:10;}
	.st19{fill:none;stroke:#FFFFFF;stroke-width:12;stroke-linejoin:round;stroke-miterlimit:10;}
	.st20{fill:url(#SVGID_12_);}
	.st21{fill:#6AAF42;}
	.st22{fill:none;stroke:#FFFFFF;stroke-width:2.0274;stroke-miterlimit:10;stroke-dasharray:3.379;}
	.st23{fill:none;stroke:#FFFFFF;stroke-width:2.0274;stroke-miterlimit:10;stroke-dasharray:7;}
	.st24{fill:url(#SVGID_13_);}
	.st25{fill:#6A9642;}
	.st26{fill:#504F54;}
	.st27{fill:none;stroke:#B9B9B9;stroke-width:12;stroke-miterlimit:10;}
	.st28{fill:#EAA330;}
	.st29{fill:#2D2C30;}
	.st30{fill:#CED0D1;}
	.st31{fill:#35903A;}
	.st32{fill:#CECFD0;}
	.st33{fill:#4E893F;}
	.st34{fill:#58595B;}
	.st35{fill:#272A2D;}
	.st36{fill:url(#SVGID_14_);}
	.st37{fill:none;stroke:#FFFFFF;stroke-miterlimit:10;}
	.st38{fill:#EEE0AD;}
	.st39{fill:#CDC297;}
	.st40{fill:#BEBFC5;}
	.st41{fill:#AAA9AF;}
	.st42{fill:#DADBDC;}
	.st43{fill:none;stroke:#FFFFFF;stroke-width:2.0274;stroke-miterlimit:10;}
	.st44{fill:none;stroke:#FFFFFF;stroke-width:2.0274;stroke-miterlimit:10;stroke-dasharray:7.054,7.054;}
	.st45{fill:#CDCFD0;}
	.st46{fill:#102D40;}
	.st47{fill:#264860;}
	.st48{clip-path:url(#SVGID_16_);}
	.st49{fill:#E8BD98;}
	.st50{fill:#E76D4A;}
	.st51{fill:#543E36;}
	.st52{fill:#C34628;}
	.st53{clip-path:url(#SVGID_18_);}
	.st54{fill:none;stroke:#FFFFFF;stroke-width:2.2466;stroke-miterlimit:10;stroke-dasharray:3.7443;}
	.st55{clip-path:url(#SVGID_20_);fill:#98ABB7;}
	.st56{clip-path:url(#SVGID_20_);}
	.st57{fill:#421800;}
	.st58{fill:#ECCCB0;}
	.st59{fill:#B34FC5;}
	.st60{fill:#E3E8EE;}
	.st61{opacity:0.5;clip-path:url(#SVGID_20_);fill:#ECCCB0;}
	.st62{clip-path:url(#SVGID_22_);fill:#3EA1BD;}
	.st63{clip-path:url(#SVGID_22_);}
	.st64{fill:#A17561;}
	.st65{fill:#141720;}
	.st66{clip-path:url(#SVGID_22_);fill:#FFFFFF;}
	.st67{opacity:0.5;clip-path:url(#SVGID_22_);fill:#E8BD98;}
	.st68{clip-path:url(#SVGID_24_);}
	.st69{fill:#C55D3F;}
	.st70{clip-path:url(#SVGID_24_);fill:#E8BD98;}
	.st71{clip-path:url(#SVGID_24_);fill:#C7D4E2;}
	.st72{clip-path:url(#SVGID_24_);fill:#543E36;}
	.st73{clip-path:url(#SVGID_24_);fill:#1A1A1A;}
	.st74{fill:#435363;}
	.st75{opacity:0.5;clip-path:url(#SVGID_24_);fill:#E8BD98;}
	.st76{clip-path:url(#SVGID_26_);fill:#98ABB7;}
	.st77{clip-path:url(#SVGID_26_);}
	.st78{opacity:0.5;clip-path:url(#SVGID_26_);fill:#ECCCB0;}
	.st79{clip-path:url(#SVGID_28_);fill:#3EA1BD;}
	.st80{clip-path:url(#SVGID_28_);}
	.st81{clip-path:url(#SVGID_28_);fill:#FFFFFF;}
	.st82{opacity:0.5;clip-path:url(#SVGID_28_);fill:#E8BD98;}
	.st83{clip-path:url(#SVGID_30_);}
	.st84{clip-path:url(#SVGID_30_);fill:#E8BD98;}
	.st85{clip-path:url(#SVGID_30_);fill:#C7D4E2;}
	.st86{clip-path:url(#SVGID_30_);fill:#543E36;}
	.st87{clip-path:url(#SVGID_30_);fill:#1A1A1A;}
	.st88{opacity:0.5;clip-path:url(#SVGID_30_);fill:#E8BD98;}
	.st89{clip-path:url(#SVGID_32_);fill:#006F34;}
	.st90{clip-path:url(#SVGID_32_);}
	.st91{fill:#B3D033;}
	.st92{fill:#BD7E52;}
	.st93{fill:#B0B3B4;}
	.st94{fill:#8A8D8F;}
	.st95{fill:#D1D3D4;}
	.st96{fill:#787B7D;}
	.st97{fill:#B7BABB;}
	.st98{fill:#91A0A1;}
	.st99{clip-path:url(#SVGID_34_);fill:#006F34;}
	.st100{clip-path:url(#SVGID_34_);}
	.st101{fill:#BFC1C2;}
	.st102{fill:#313034;}
	.st103{fill:url(#SVGID_35_);}
	.st104{fill:#B9B9B9;}
	.st105{fill:#ACAEB0;}
	.st106{fill:#BBBDBE;}
	.st107{fill:#96989A;}
	.st108{fill:#CFD0D1;}
	.st109{fill:#5D5D5D;}
	.st110{fill:#B7B9BB;}
	.st111{fill:#919395;}
	.st112{fill:none;}
	.st113{fill-rule:evenodd;clip-rule:evenodd;fill:#CED0D1;}
	.st114{fill-rule:evenodd;clip-rule:evenodd;fill:#FFFFFF;}
	.st115{fill:url(#SVGID_36_);}
	.st116{fill:url(#SVGID_37_);}
	.st117{fill:#F3F3F3;}
	.st118{fill:#231F20;}
	.st119{fill:url(#SVGID_38_);}
	.st120{fill:url(#SVGID_39_);}
	.st121{fill:url(#SVGID_40_);}
	.st122{fill:url(#SVGID_41_);}
	.st123{fill:url(#SVGID_42_);}
	.st124{fill:url(#SVGID_43_);}
	.st125{fill:url(#SVGID_44_);}
	.st126{fill:url(#SVGID_45_);}
	.st127{fill:url(#SVGID_46_);}
	.st128{fill:url(#SVGID_47_);}
	.st129{fill:url(#SVGID_48_);}
	.st130{fill:url(#SVGID_49_);}
	.st131{fill:url(#SVGID_50_);}
	.st132{fill:url(#SVGID_51_);}
	.st133{fill:url(#SVGID_52_);}
	.st134{fill:url(#SVGID_53_);}
	.st135{opacity:0.8;}
	.st136{opacity:0.8;fill:#F3F3F3;}
	.st137{clip-path:url(#SVGID_55_);}
	.st138{clip-path:url(#SVGID_57_);fill:#98ABB7;}
	.st139{clip-path:url(#SVGID_57_);}
	.st140{opacity:0.5;clip-path:url(#SVGID_57_);fill:#ECCCB0;}
	.st141{clip-path:url(#SVGID_59_);fill:#3EA1BD;}
	.st142{clip-path:url(#SVGID_59_);}
	.st143{clip-path:url(#SVGID_59_);fill:#FFFFFF;}
	.st144{opacity:0.5;clip-path:url(#SVGID_59_);fill:#E8BD98;}
	.st145{clip-path:url(#SVGID_61_);}
	.st146{clip-path:url(#SVGID_61_);fill:#E8BD98;}
	.st147{clip-path:url(#SVGID_61_);fill:#C7D4E2;}
	.st148{clip-path:url(#SVGID_61_);fill:#543E36;}
	.st149{clip-path:url(#SVGID_61_);fill:#1A1A1A;}
	.st150{opacity:0.5;clip-path:url(#SVGID_61_);fill:#E8BD98;}
	.st151{fill:none;stroke:#5D5D5D;stroke-width:3;stroke-linecap:round;stroke-miterlimit:10;}
	.st152{fill:none;stroke:#201F23;stroke-width:5;stroke-miterlimit:10;}
	.st153{fill:none;stroke:#201F23;stroke-width:4.2064;stroke-linecap:round;stroke-miterlimit:10;}
	.st154{fill:none;stroke:#201F23;stroke-miterlimit:10;}
	.st155{fill:#B9BBBC;}
	.st156{fill:#98999C;}
	.st157{fill:#B9BABC;}
	.st158{fill:#E2E2E3;}
	.st159{fill:#D1D1D2;}
	.st160{fill:#2E2D31;}
	.st161{fill:#1F1E21;}
	.st162{fill:#5D5C61;}
	.st163{fill:#4A4A4E;}
	.st164{fill:#88BD42;}
	.st165{opacity:0.6;}
	.st166{fill:#6A9742;}
	.st167{fill:#5F893B;}
	.st168{fill:none;stroke:#CFD0D1;stroke-width:4;stroke-linecap:round;stroke-miterlimit:10;}
	.st169{fill:#E09400;}
	.st170{fill:#F0EABC;}
	.st171{fill:#FFC843;}
	.st172{fill:#DDA070;}
	.st173{fill:none;stroke:#FFFFFF;stroke-width:4;stroke-linecap:round;stroke-miterlimit:10;}
	.st174{fill:none;stroke:#CFD0D1;stroke-width:2.5756;stroke-linecap:round;stroke-miterlimit:10;}
	.st175{fill:none;stroke:#FFFFFF;stroke-width:2.5756;stroke-linecap:round;stroke-miterlimit:10;}
	.st176{fill:#BCBDBE;}
	.st177{fill:#9C9EA0;}
	.st178{fill:#B3B5B6;}
	.st179{fill:#282828;}
</style>
<g id="Fondo">
</g>
<g id="Diseño">
	<g>
		<g>
			<path class="st102" d="M86.5,45.1c0-23.3-18.9-42.2-42.2-42.2v84.4C67.6,87.3,86.5,68.4,86.5,45.1z"/>
			<path class="st26" d="M44.3,2.9C21,2.9,2.1,21.8,2.1,45.1c0,23.3,18.9,42.2,42.2,42.2l0,0V2.9L44.3,2.9z"/>
		</g>
		<g>
			<g>
				<path class="st29" d="M35.1,17c0.3-0.1,0.5-0.2,0.8-0.3C35.7,16.8,35.4,16.9,35.1,17z"/>
				<path class="st29" d="M38.1,16.2c0.3-0.1,0.6-0.1,0.9-0.2C38.7,16.1,38.4,16.1,38.1,16.2z"/>
				<path class="st29" d="M39.6,15.9c0.3,0,0.6-0.1,0.9-0.1C40.2,15.8,39.9,15.9,39.6,15.9z"/>
				<path class="st29" d="M25.4,22.3c0.3-0.3,0.7-0.6,1-0.8C26.1,21.8,25.7,22.1,25.4,22.3z"/>
				<path class="st29" d="M36.6,16.6c0.3-0.1,0.6-0.1,0.8-0.2C37.1,16.4,36.9,16.5,36.6,16.6z"/>
				<path class="st29" d="M30.9,18.7c0.3-0.1,0.5-0.3,0.8-0.4C31.4,18.5,31.2,18.6,30.9,18.7z"/>
				<path class="st29" d="M26.6,21.4c0.4-0.3,0.8-0.6,1.2-0.9C27.4,20.8,27,21.1,26.6,21.4z"/>
				<path class="st29" d="M28.1,20.3c0.3-0.2,0.6-0.4,0.9-0.6C28.7,19.9,28.4,20.1,28.1,20.3z"/>
				<path class="st29" d="M33.7,17.5c0.3-0.1,0.5-0.2,0.8-0.3C34.2,17.3,33.9,17.4,33.7,17.5z"/>
				<path class="st29" d="M32.3,18.1c0.3-0.1,0.5-0.2,0.8-0.3C32.8,17.8,32.5,18,32.3,18.1z"/>
				<path class="st29" d="M44.3,15.5c-0.3,0-0.5,0-0.8,0v0C43.8,15.5,44,15.5,44.3,15.5z"/>
				<path class="st29" d="M22.2,25.4c0.2-0.2,0.4-0.4,0.6-0.7C22.6,25,22.4,25.2,22.2,25.4z"/>
				<path class="st29" d="M24.3,23.3c0.2-0.2,0.5-0.5,0.8-0.7C24.8,22.9,24.5,23.1,24.3,23.3z"/>
				<path class="st29" d="M29.5,19.5c0.3-0.2,0.5-0.3,0.8-0.5C30.1,19.2,29.8,19.3,29.5,19.5z"/>
				<path class="st29" d="M43.5,15.5c-0.3,0-0.5,0-0.8,0C43,15.6,43.2,15.6,43.5,15.5L43.5,15.5z"/>
				<path class="st6" d="M42.8,36.9c-0.1,1.7,1.1,3.1,0.4,3.2c-0.6,0.1-1.2-0.7-1.6-1.3c-0.4-0.6-2.4-0.8-3.3-0.4
					c-1,0.4-2.7,1.8-1.7,3.2c1,1.4,2.4,0.7,3.8,1.4c1.4,0.6,2.7,3,2.4,3.6c-0.3,0.5-1.4-0.1-2.4-2c-1-1.9-2.8-0.6-4-1
					C35,43.2,34,43,32.8,40.8c-1.3-2.2-3.9-2.8-5-4.1C24.7,33,25,30.2,24.3,29c-0.6-1.2-2.2-3.3-2.3-3.3c-4.6,5.2-7.3,12-7.3,19.5
					c0,16.1,12.8,29.1,28.8,29.6V35.3C43.1,35.9,42.8,36.4,42.8,36.9z"/>
				<path class="st32" d="M44.3,15.5c0,0-2,1.2,1.8,3.3c3.8,2.1,2.1,3,1.3,3.6c-0.8,0.6-2.2-1.3-3.1-2.5c-0.2-0.2-0.4-0.5-0.8-0.8
					v4.8c0.3-0.4,1-0.5,2.2,0.2c3.6,1.8,6.6,2.9,3.6,5.5c-2.2,2-4.6,4.1-5.8,5.8v39.4c0.3,0,0.5,0,0.8,0c16.3,0,29.6-13.3,29.6-29.6
					C73.9,28.8,60.6,15.5,44.3,15.5z"/>
				<path class="st29" d="M23.2,24.4c0.2-0.2,0.4-0.4,0.7-0.6C23.7,23.9,23.4,24.1,23.2,24.4z"/>
				<path class="st6" d="M36.6,17.7c-3,1.1-5.5,1.8-5.1,2.8c0.4,1,5.5-0.9,7.4-0.8c1.9,0.1,1.3,1.3-0.5,2.6c-1.8,1.4-2,3.1-0.1,4.1
					c1.9,1.1,4.2,1.2,4.8,0.5c0.3-0.4-0.2-2.4,0.5-3.1v-4.8C42,18,39,16.9,36.6,17.7z"/>
				<path class="st29" d="M41.1,15.7c0.3,0,0.7-0.1,1-0.1C41.8,15.6,41.5,15.7,41.1,15.7z"/>
				<path class="st6" d="M25,22.7c0.1-0.1,0.2-0.2,0.4-0.3C25.3,22.4,25.2,22.6,25,22.7z"/>
				<path class="st6" d="M26.4,21.5c0,0,0.1-0.1,0.1-0.1C26.5,21.5,26.5,21.5,26.4,21.5z"/>
				<path class="st6" d="M29,19.8c0.2-0.1,0.3-0.2,0.5-0.3C29.4,19.6,29.2,19.7,29,19.8z"/>
				<path class="st6" d="M23.9,23.7c0.1-0.1,0.3-0.3,0.4-0.4C24.1,23.4,24,23.6,23.9,23.7z"/>
				<path class="st6" d="M27.8,20.6c0.1-0.1,0.2-0.1,0.3-0.2C28,20.4,27.9,20.5,27.8,20.6z"/>
				<path class="st6" d="M40.5,15.8c0.2,0,0.4-0.1,0.6-0.1C40.9,15.7,40.7,15.7,40.5,15.8z"/>
				<path class="st6" d="M39,16c0.2,0,0.4-0.1,0.6-0.1C39.4,15.9,39.2,16,39,16z"/>
				<path class="st6" d="M30.3,19c0.2-0.1,0.4-0.2,0.5-0.3C30.7,18.8,30.5,18.9,30.3,19z"/>
				<path class="st6" d="M22,25.6C22,25.6,22,25.6,22,25.6c0.1-0.1,0.1-0.1,0.2-0.2C22.1,25.5,22.1,25.6,22,25.6z"/>
				<path class="st6" d="M37.4,16.3c0.2,0,0.4-0.1,0.6-0.1C37.9,16.2,37.6,16.3,37.4,16.3z"/>
				<path class="st6" d="M42.2,15.6c0.2,0,0.3,0,0.5,0C42.5,15.6,42.4,15.6,42.2,15.6z"/>
				<path class="st6" d="M22.8,24.8c0.1-0.1,0.3-0.3,0.4-0.4C23.1,24.5,22.9,24.6,22.8,24.8z"/>
				<path class="st6" d="M31.7,18.3c0.2-0.1,0.4-0.2,0.6-0.3C32.1,18.2,31.9,18.3,31.7,18.3z"/>
				<path class="st6" d="M33.1,17.7c0.2-0.1,0.4-0.2,0.6-0.2C33.5,17.6,33.3,17.7,33.1,17.7z"/>
				<path class="st6" d="M35.9,16.7c0.2-0.1,0.4-0.1,0.6-0.2C36.4,16.6,36.1,16.7,35.9,16.7z"/>
				<path class="st6" d="M34.5,17.2c0.2-0.1,0.4-0.1,0.6-0.2C34.9,17.1,34.7,17.1,34.5,17.2z"/>
				<path class="st102" d="M49.3,29.6c3-2.6,0-3.7-3.6-5.5c-1.2-0.6-1.9-0.5-2.2-0.2v11.4C44.6,33.7,47.1,31.5,49.3,29.6z"/>
				<path class="st26" d="M27.8,36.7c1.1,1.3,3.7,1.9,5,4.1c1.3,2.2,2.2,2.4,3.5,2.7c1.3,0.3,3.1-0.9,4,1c1,1.9,2.1,2.6,2.4,2
					c0.3-0.5-1-3-2.4-3.6c-1.4-0.6-2.7,0-3.8-1.4c-1-1.4,0.8-2.8,1.7-3.2c1-0.4,2.9-0.2,3.3,0.4c0.4,0.6,1,1.4,1.6,1.3
					c0.6-0.1-0.5-1.5-0.4-3.2c0-0.4,0.3-1,0.7-1.5V23.9c-0.6,0.8-0.1,2.7-0.5,3.1c-0.5,0.6-2.9,0.5-4.8-0.5
					c-1.9-1.1-1.7-2.7,0.1-4.1c1.8-1.4,2.4-2.5,0.5-2.6c-1.9-0.1-7,1.8-7.4,0.8c-0.4-1,2.1-1.8,5.1-2.8c2.4-0.9,5.4,0.3,6.9,1.4
					v-3.6c-0.3,0-0.5,0-0.8,0c-0.2,0-0.3,0-0.5,0c-0.4,0-0.7,0-1,0.1c-0.2,0-0.4,0.1-0.6,0.1c-0.3,0-0.6,0.1-0.9,0.1
					c-0.2,0-0.4,0.1-0.6,0.1c-0.3,0.1-0.6,0.1-0.9,0.2c-0.2,0-0.4,0.1-0.6,0.1c-0.3,0.1-0.6,0.1-0.8,0.2c-0.2,0.1-0.4,0.1-0.6,0.2
					c-0.3,0.1-0.6,0.2-0.8,0.3c-0.2,0.1-0.4,0.1-0.6,0.2c-0.3,0.1-0.5,0.2-0.8,0.3c-0.2,0.1-0.4,0.2-0.6,0.2
					c-0.3,0.1-0.5,0.2-0.8,0.3c-0.2,0.1-0.4,0.2-0.6,0.3c-0.3,0.1-0.5,0.3-0.8,0.4c-0.2,0.1-0.4,0.2-0.5,0.3
					c-0.3,0.1-0.6,0.3-0.8,0.5c-0.2,0.1-0.3,0.2-0.5,0.3c-0.3,0.2-0.6,0.4-0.9,0.6c-0.1,0.1-0.2,0.1-0.3,0.2
					c-0.4,0.3-0.8,0.6-1.2,0.9c0,0-0.1,0.1-0.1,0.1c-0.4,0.3-0.7,0.5-1,0.8c-0.1,0.1-0.2,0.2-0.4,0.3c-0.3,0.2-0.5,0.4-0.8,0.7
					c-0.1,0.1-0.3,0.3-0.4,0.4c-0.2,0.2-0.4,0.4-0.7,0.6c-0.1,0.1-0.3,0.3-0.4,0.4c-0.2,0.2-0.4,0.4-0.6,0.7
					c-0.1,0.1-0.1,0.1-0.1,0.2c0,0.1,1.6,2.1,2.3,3.3C25,30.2,24.7,33,27.8,36.7z"/>
				<path class="st102" d="M43.5,19.1c0.4,0.3,0.6,0.5,0.8,0.8c0.9,1.3,2.3,3.2,3.1,2.5c0.8-0.6,2.5-1.6-1.3-3.6
					c-3.8-2.1-1.8-3.3-1.8-3.3c-0.3,0-0.5,0-0.8,0V19.1z"/>
			</g>
			<path class="st102" d="M73.9,45.1c0-5.9-1.7-11.5-4.8-16.1c0,0-1.7,2.5-1.4,4.1c0.3,1.6,2.2,1.7,2,2.9c-0.2,1.2-1.6-0.3-3.3,2.7
				c-1.7,3.1-0.8,7.3,1.6,7.6C70.5,46.6,73.9,45.1,73.9,45.1z"/>
			<path class="st102" d="M52.1,16.6c3.4,0.9,6.6,2.5,9.5,4.5c0,0-3.4-0.6-4.7,0.6c-1.3,1.2-3.2,3.9-4.7,0
				C50.5,17.7,52.1,16.6,52.1,16.6z"/>
			<path class="st102" d="M47.2,45.5c0,0,3.2,0.3,4.8,1.7c1.6,1.4,1.8,1.9,4.2,2.4c2.4,0.5,3.5,1.9,1.9,4.5
				c-1.6,2.6-4.4,6.9-5.8,8.1c-1.4,1.3-3.1,2.3-3.7,4.4c-0.6,2.1-0.8,3.4,0.5,4.2c0,0-0.7,1.8-2.4-0.5c-1.7-2.3-0.3-5.1,0-6.7
				c0.3-1.6,1.2-6.3,0.6-7.5c-0.5-1.2-3-1.9-3.6-4.3C43,49.6,44.1,44.8,47.2,45.5z"/>
		</g>
	</g>
</g>
<g id="Iconos">
</g>
</svg>
