<svg xmlns="http://www.w3.org/2000/svg" viewBox="0 0 100 100"><defs><style>.cls-1{fill:#d0d2d3;}.cls-2{fill:#fff;}.cls-3{fill:#939597;}.cls-4{fill:none;stroke:#a3a6a7;stroke-miterlimit:10;stroke-width:3px;}</style></defs><title>anio</title><g id="INFO"><polygon class="cls-1" points="77 14.52 77 19.52 67 19.52 67 14.52 49.25 14.52 33 14.52 33 19.52 23 19.52 23 14.52 11 14.52 11 29.52 22.86 29.52 32.8 29.52 49.25 29.52 66.86 29.52 76.8 29.52 88 29.52 88 14.52 77 14.52"/><rect class="cls-2" x="25" y="67.52" width="10" height="10"/><rect class="cls-2" x="25" y="55.52" width="10" height="10"/><rect class="cls-2" x="25" y="42.52" width="10" height="10"/><rect class="cls-1" x="64" y="67.52" width="10" height="10"/><rect class="cls-1" x="64" y="55.52" width="10" height="10"/><rect class="cls-1" x="51" y="42.52" width="10" height="10"/><rect class="cls-1" x="51" y="67.52" width="10" height="10"/><rect class="cls-1" x="64" y="42.52" width="10" height="10"/><rect class="cls-2" x="38" y="42.52" width="10" height="10"/><rect class="cls-2" x="38" y="67.52" width="10" height="10"/><rect class="cls-2" x="38" y="55.52" width="10" height="10"/><polygon class="cls-3" points="33 19.52 33 14.07 33 8.52 23 8.52 23 14.07 23 19.52 33 19.52"/><polygon class="cls-3" points="77 19.52 77 14.07 77 8.52 67 8.52 67 14.07 67 19.52 77 19.52"/><polygon class="cls-2" points="76.8 29.52 66.86 29.52 49.25 29.52 32.8 29.52 22.86 29.52 11 29.52 11 90.52 49.25 90.52 88 90.52 88 29.52 76.8 29.52"/><rect class="cls-4" x="23.5" y="42.02" width="52" height="39"/><line class="cls-4" x1="41.5" y1="42.52" x2="41.5" y2="81.52"/><line class="cls-4" x1="57.5" y1="42.52" x2="57.5" y2="81.52"/><line class="cls-4" x1="23" y1="55.02" x2="75" y2="55.02"/><line class="cls-4" x1="23" y1="68.02" x2="75" y2="68.02"/></g></svg>