<svg xmlns="http://www.w3.org/2000/svg" viewBox="0 0 150 150"><defs><style>.cls-1{fill:#ffe669;}.cls-2{fill:#f4b606;}.cls-3{fill:none;}.cls-4{fill:#313034;}.cls-5{fill:#504f54;}</style></defs><title>auto_enventa</title><g id="INFO"><path class="cls-1" d="M5.68,73.77A68.57,68.57,0,0,0,74,142.49V5.06A68.56,68.56,0,0,0,5.68,73.77Z"/><path class="cls-2" d="M75.31,5.06H74V142.49h1.31a68.72,68.72,0,0,0,0-137.44Z"/><path class="cls-3" d="M51.63,50.1l-6.83,17c-.81,2,.27,3.91,2.39,3.91H74V47H57C54.83,47,52.44,48.14,51.63,50.1Z"/><path class="cls-3" d="M59,82a1.78,1.78,0,0,0-1.52-2h-13A1.78,1.78,0,0,0,43,82V87a1.78,1.78,0,0,0,1.52,2h13A1.78,1.78,0,0,0,59,87Z"/><path class="cls-3" d="M104.85,71c2.12,0,3.2-2.18,2.39-4.14l-6.83-16.47A6.07,6.07,0,0,0,95.09,47H74V71Z"/><path class="cls-3" d="M106,82a2.2,2.2,0,0,0-2.38-2H91.38A2.2,2.2,0,0,0,89,82V87a2.2,2.2,0,0,0,2.38,2h12.24A2.2,2.2,0,0,0,106,87Z"/><path class="cls-4" d="M115.69,57.89a3.11,3.11,0,0,0-1,.17l-4.15,1.17-4.44-10.62c-1.35-3.29-5.28-5.61-8.83-5.61H74v4H95.09c2.12,0,4.52,1.14,5.33,3.1l6.83,17c.81,2-.27,3.91-2.39,3.91H74V98h28v5.91c0,2.66,2.29,7.09,5,7.09h5.8c2.66,0,4.25-4.43,4.25-7.09V82.05a30.09,30.09,0,0,0-2-10.5l-.35-.55H115c2.66,0,4-4.19,4-6.85V61.82C119,59.54,117.86,57.89,115.69,57.89ZM105,87.07A1.93,1.93,0,0,1,103.07,89H90.93A1.93,1.93,0,0,1,89,87.07V81.93A1.93,1.93,0,0,1,90.93,80h12.14A1.93,1.93,0,0,1,105,81.93Z"/><path class="cls-5" d="M47.19,71c-2.12,0-3.2-2.18-2.39-4.14L51.63,51.1c.81-2,3.2-4.1,5.33-4.1H74V43H54.76c-3.55,0-7.53,3-8.88,6.33L41.39,59,37.19,58a10.24,10.24,0,0,0-1.83-.12,4.29,4.29,0,0,0-4.36,4v2.33C31,66.81,34.41,71,37.07,71h.31l-.88.55A30.74,30.74,0,0,0,34,82.05v21.86A5.48,5.48,0,0,0,39.29,109h5.8c2.66,0,5.91-2.43,5.91-5.09V98H74V71ZM59,87.07A1.93,1.93,0,0,1,57.07,89H44.93A1.93,1.93,0,0,1,43,87.07V81.93A1.93,1.93,0,0,1,44.93,80H57.07A1.93,1.93,0,0,1,59,81.93Z"/></g></svg>