<svg xmlns="http://www.w3.org/2000/svg" viewBox="0 0 100 100"><defs><style>.cls-1{fill:#fff;}</style></defs><title>compensacion</title><g id="INFO"><path class="cls-1" d="M21.18,39.27c-.2.38,4.59,2.31,8.31,3,7.5,1.39,13.61-2,18.3-7.74A62.24,62.24,0,0,0,53,27c.87-1.46,1.73-2.92,2.53-4.42,1-1.85,3-6.48,10.56-6.72C66,15.84,34.14,14,21.18,39.27Z"/><path class="cls-1" d="M66,15.84S15.9-3.71,19.29,34.47c-3.76,7.21-2.7,13-2.7,13l1.21.22c-.81-4.73,1.48-9.41,2.43-11.1C22.78,32.13,34.47,15.42,66,15.84Z"/><path class="cls-1" d="M74.06,35.36c-.19-.39-4.6,2.29-7.38,4.86-5.6,5.18-6.54,12.11-4.75,19.29a62.53,62.53,0,0,0,3,8.66c.65,1.57,1.31,3.13,2,4.67.89,1.91,3.38,6.31-.93,12.48C66,85.31,86.52,60.84,74.06,35.36Z"/><path class="cls-1" d="M66,85.33s45.66-28.48,13-48.61c-3.53-7.33-8.77-9.91-8.77-9.91l-.91.84c4.27,2.18,6.65,6.81,7.44,8.58C78.83,40.91,85.23,60.28,66,85.33Z"/><path class="cls-1" d="M46.5,82.76c.43.05.62-5.1,0-8.84C45.26,66.4,40,61.81,33,59.34a62.32,62.32,0,0,0-8.86-2.29c-1.67-.33-3.34-.63-5-.88C17,55.87,12,55.53,9.22,48.53,9.23,48.55,18.37,79.14,46.5,82.76Z"/><path class="cls-1" d="M9.22,48.53s-1.36,53.8,33.41,37.64c8.06,1.08,13.11-1.87,13.11-1.87l-.2-1.22c-4.17,2.37-9.35,1.81-11.26,1.49C39.24,83.69,19.55,78.37,9.22,48.53Z"/></g></svg>