<svg xmlns="http://www.w3.org/2000/svg" viewBox="0 0 100 100"><defs><style>.cls-1{fill:#fff;}</style></defs><title>conductor</title><g id="INFO"><path class="cls-1" d="M50.31,17c-5.68,0-10.33,2-12.2,9.43-.53,2.21-.14,6.21-.14,8.69,0,3.31-.18,5.67.85,8.48,1.72,4.76,3.34,8.87,5.6,11.41-8.55,1.68-15,6.62-18.82,8.51-8.1,3.91-8.66,8.25-8.66,8.25v1.63c0,.71.76.74,1.12.86a19.48,19.48,0,0,0,0,4.22h65s-.39-2.36-.67-4.4c.36-.06.53-.1.53-.92V71.81s0-4.34-8.08-8.25c-4-2-9.7-6.89-18.33-8.51,2.16-2.62,3.9-6.64,5.61-11.41.94-2.81.77-5.17.77-8.48,0-2.57.48-6.48-.15-8.69-1.87-7.39-6.68-9.61-12.29-9.61"/></g></svg>