<svg xmlns="http://www.w3.org/2000/svg" viewBox="0 0 150 150"><defs><style>.cls-1{fill:#fff;}.cls-2{fill:#dfe0e1;}.cls-3{fill:#6a6a6d;}.cls-4{fill:#504f54;}.cls-5{fill:#919191;}.cls-6,.cls-7{fill:none;stroke:#dfe0e1;stroke-miterlimit:10;}.cls-6{stroke-width:2px;}.cls-8{fill:#a3ea47;}</style></defs><title>condiciones</title><g id="INFO"><path class="cls-1" d="M4.12,75A70,70,0,0,0,74,145.28V4.72A70,70,0,0,0,4.12,75Z"/><path class="cls-2" d="M73.9,4.71H73V145.28h.9a70.29,70.29,0,1,0,0-140.57Z"/><path class="cls-3" d="M39.57,27C37,27,35,29.52,35,32.11v87A4.77,4.77,0,0,0,39.57,124H72V27Z"/><path class="cls-4" d="M104.94,27H72v97h32.94a5.19,5.19,0,0,0,5.06-4.89v-87A5.39,5.39,0,0,0,104.94,27Z"/><rect class="cls-5" x="60.1" y="22.89" width="24.31" height="9.37" rx="4.68" ry="4.68"/><circle class="cls-5" cx="72.26" cy="24.06" r="5.42"/><line class="cls-6" x1="79.18" y1="50.68" x2="103.65" y2="50.68"/><line class="cls-6" x1="79.18" y1="68.11" x2="103.65" y2="68.11"/><line class="cls-6" x1="79.18" y1="85.74" x2="103.65" y2="85.74"/><line class="cls-6" x1="79.18" y1="103.17" x2="103.65" y2="103.17"/><rect class="cls-7" x="46.98" y="44.16" width="16.71" height="16.71"/><rect class="cls-7" x="46.98" y="66.48" width="16.71" height="16.71"/><rect class="cls-7" x="46.78" y="89.42" width="16.71" height="16.71"/><path class="cls-8" d="M50,76.67c.67.43,1.32.88,2,1.33s1.32.89,2,1.36l-.87.2c.33-.9.7-1.76,1.1-2.62l.62-1.29c.21-.43.42-.87.67-1.28a7.16,7.16,0,0,1,.87-1.17,6,6,0,0,1,.52-.52,4.39,4.39,0,0,1,.57-.49,5.43,5.43,0,0,1,.62-.43c.23-.12.44-.26.68-.36s.5-.18.74-.25a4.94,4.94,0,0,1,.78-.06l.06.19c-.17.19-.33.36-.49.51s-.28.36-.42.52c-.26.36-.51.7-.75,1.07-.49.72-1,1.45-1.5,2.15a24.67,24.67,0,0,0-1.62,2.16c-.5.76-1,1.54-1.42,2.33l-.37.67-.49-.47c-.57-.55-1.13-1.12-1.69-1.68s-1.12-1.13-1.67-1.71Z"/><path class="cls-8" d="M50,54c.67.43,1.32.88,2,1.33s1.32.89,2,1.36l-.87.2c.33-.9.7-1.76,1.1-2.62l.62-1.29c.21-.43.42-.87.67-1.28a7.16,7.16,0,0,1,.87-1.17,6,6,0,0,1,.52-.52,4.35,4.35,0,0,1,.57-.49,5.4,5.4,0,0,1,.62-.43c.23-.12.44-.26.68-.36s.5-.18.74-.25a4.94,4.94,0,0,1,.78-.06l.06.19c-.17.19-.33.36-.49.51s-.28.36-.42.52c-.26.36-.51.7-.75,1.07-.49.72-1,1.45-1.5,2.15A24.67,24.67,0,0,0,55.55,55c-.5.76-1,1.54-1.42,2.33l-.37.67-.49-.47c-.57-.55-1.13-1.12-1.69-1.68s-1.12-1.13-1.67-1.71Z"/></g></svg>