<svg xmlns="http://www.w3.org/2000/svg" viewBox="0 0 150 150"><defs><style>.cls-1{fill:#fff;}.cls-2{fill:#dfe0e1;}.cls-3{fill:none;stroke:#504f54;stroke-linecap:round;stroke-linejoin:round;stroke-width:10px;}.cls-4{fill:#504f54;}</style></defs><title>detalle</title><g id="INFO"><path class="cls-1" d="M4.12,75A70,70,0,0,0,74,145.28V4.72A70,70,0,0,0,4.12,75Z"/><path class="cls-2" d="M73.9,4.71H73V145.28h.9a70.29,70.29,0,1,0,0-140.57Z"/><line class="cls-3" x1="86.8" y1="85.3" x2="111.45" y2="109.95"/><path class="cls-4" d="M65.16,33A30.61,30.61,0,1,0,95.77,63.66,30.61,30.61,0,0,0,65.16,33Zm0,53.84A23.23,23.23,0,1,1,88.38,63.66,23.23,23.23,0,0,1,65.16,86.88Z"/></g></svg>