<svg xmlns="http://www.w3.org/2000/svg" viewBox="0 0 150 150"><defs><style>.cls-1{fill:#fff;}.cls-2{fill:#dfe0e1;}.cls-3,.cls-6{fill:none;}.cls-4{fill:#313034;}.cls-5{fill:#504f54;}.cls-6{stroke:#8a2604;stroke-linecap:round;stroke-miterlimit:10;stroke-width:4.74px;}</style></defs><title>eliminar</title><g id="INFO"><path class="cls-1" d="M5.68,76.77A68.57,68.57,0,0,0,74,145.49V8.06A68.56,68.56,0,0,0,5.68,76.77Z"/><path class="cls-2" d="M75.31,8.06H74V145.49h1.31a68.72,68.72,0,0,0,0-137.44Z"/><path class="cls-3" d="M51.63,53.1l-6.83,17c-.81,2,.27,3.91,2.39,3.91H74V50H57C54.83,50,52.44,51.14,51.63,53.1Z"/><path class="cls-3" d="M59,85a1.78,1.78,0,0,0-1.52-2h-13A1.78,1.78,0,0,0,43,85V90a1.78,1.78,0,0,0,1.52,2h13A1.78,1.78,0,0,0,59,90Z"/><path class="cls-3" d="M104.85,74c2.12,0,3.2-2.18,2.39-4.14l-6.83-16.47A6.07,6.07,0,0,0,95.09,50H74V74Z"/><path class="cls-3" d="M106,85a2.2,2.2,0,0,0-2.38-2H91.38A2.2,2.2,0,0,0,89,85V90a2.2,2.2,0,0,0,2.38,2h12.24A2.2,2.2,0,0,0,106,90Z"/><path class="cls-4" d="M115.69,60.89a3.11,3.11,0,0,0-1,.17l-4.15,1.17-4.44-10.62c-1.35-3.29-5.28-5.61-8.83-5.61H74v4H95.09c2.12,0,4.52,1.14,5.33,3.1l6.83,17c.81,2-.27,3.91-2.39,3.91H74v27h28v5.91c0,2.66,2.29,7.09,5,7.09h5.8c2.66,0,4.25-4.43,4.25-7.09V85.05a30.09,30.09,0,0,0-2-10.5l-.35-.55H115c2.66,0,4-4.19,4-6.85V64.82C119,62.54,117.86,60.89,115.69,60.89ZM105,90.07A1.93,1.93,0,0,1,103.07,92H90.93A1.93,1.93,0,0,1,89,90.07V84.93A1.93,1.93,0,0,1,90.93,83h12.14A1.93,1.93,0,0,1,105,84.93Z"/><path class="cls-5" d="M47.19,74c-2.12,0-3.2-2.18-2.39-4.14L51.63,54.1c.81-2,3.2-4.1,5.33-4.1H74V46H54.76c-3.55,0-7.53,3-8.88,6.33L41.39,62,37.19,61a10.24,10.24,0,0,0-1.83-.12,4.29,4.29,0,0,0-4.36,4v2.33C31,69.81,34.41,74,37.07,74h.31l-.88.55A30.74,30.74,0,0,0,34,85.05v21.86A5.48,5.48,0,0,0,39.29,112h5.8c2.66,0,5.91-2.43,5.91-5.09V101H74V74ZM59,90.07A1.93,1.93,0,0,1,57.07,92H44.93A1.93,1.93,0,0,1,43,90.07V84.93A1.93,1.93,0,0,1,44.93,83H57.07A1.93,1.93,0,0,1,59,84.93Z"/><line class="cls-6" x1="79.33" y1="78.18" x2="121.81" y2="120.66"/><line class="cls-6" x1="121.81" y1="78.18" x2="79.33" y2="120.66"/></g></svg>