<svg xmlns="http://www.w3.org/2000/svg" viewBox="0 0 150 150"><defs><style>.cls-1{fill:#fff;}.cls-2{fill:#dfe0e1;}.cls-3{fill:none;}.cls-4{fill:#504f54;}.cls-5{fill:#313034;}</style></defs><title>foto</title><g id="INFO"><path class="cls-1" d="M4.89,74.54C4.89,112.79,37,143.83,74,144V5C37,5.24,4.89,36.28,4.89,74.54Z"/><path class="cls-2" d="M74.86,5H74V144h.86a69.51,69.51,0,1,0,0-139Z"/><path class="cls-3" d="M56.73,76.76A17.45,17.45,0,0,0,62,89.61c3.37,3.37,6,5.13,12,5.3v-6.5A13.19,13.19,0,0,1,66.59,85a11.77,11.77,0,0,1,0-16.52A13.24,13.24,0,0,1,74,65.1V58.6c-6,.18-8.63,1.93-12,5.3A17.45,17.45,0,0,0,56.73,76.76Z"/><path class="cls-3" d="M74.85,65.06a11.69,11.69,0,1,1,0,23.39c-.27,0-.85,0-.85,0v6.5s.59,0,.85,0A18.26,18.26,0,0,0,93.09,76.76,18.21,18.21,0,0,0,74.85,58.57c-.27,0-.85,0-.85,0V65.1S74.59,65.06,74.85,65.06Z"/><path class="cls-4" d="M62,89.61a18.24,18.24,0,0,1,0-25.7c3.37-3.37,6-5.13,12-5.3V38H64.53a7.09,7.09,0,0,0-4.2,1.33,8.41,8.41,0,0,0-2.82,3.79L55.43,49H46.34a8.53,8.53,0,0,0-6.82,2.63c-2,2-2.52,4.07-2.52,6.93V94.94c0,2.87.49,5.15,2.52,7.18A8.73,8.73,0,0,0,46.34,105H74V94.91C68,94.73,65.37,93,62,89.61Z"/><path class="cls-5" d="M110.9,51.63c-2-2-4.53-2.63-7.4-2.63H94.41l-2.07-5.93a7.76,7.76,0,0,0-2.82-3.53A7.37,7.37,0,0,0,85.31,38H74V58.6s.59,0,.85,0A18.26,18.26,0,0,1,93.09,76.76,18.21,18.21,0,0,1,74.85,94.94c-.27,0-.85,0-.85,0V105h29.5a10,10,0,0,0,7.4-2.88,9.69,9.69,0,0,0,3.1-7.18V58.57A9.17,9.17,0,0,0,110.9,51.63Z"/><path class="cls-4" d="M66.59,68.49a11.77,11.77,0,0,0,0,16.52A13.23,13.23,0,0,0,74,88.41V65.1A13.2,13.2,0,0,0,66.59,68.49Z"/><path class="cls-5" d="M83.18,85a11.66,11.66,0,0,0,0-16.52,11.41,11.41,0,0,0-8.33-3.43c-.26,0-.85,0-.85,0V88.41s.59,0,.85,0A11.41,11.41,0,0,0,83.18,85Z"/></g></svg>