<svg xmlns="http://www.w3.org/2000/svg" viewBox="0 0 150 150"><defs><style>.cls-1{fill:#fff;}</style></defs><title>garaje</title><g id="INFO"><polygon class="cls-1" points="75.89 26 19 26 19 35 75.89 35 131 35 131 26 75.89 26"/><polygon class="cls-1" points="75.89 37 19 37 19 46 75.89 46 131 46 131 37 75.89 37"/><path class="cls-1" d="M142.9,10H7a4.23,4.23,0,0,0-4.23,4.23v3.23A3.16,3.16,0,0,0,6,20.61h4.27V139.48a0,0,0,0,0,0,0h5.29V22.74H134.44V139.5h5.31V20.61H144a3.16,3.16,0,0,0,3.16-3.16V14.28A4.29,4.29,0,0,0,142.9,10Z"/></g></svg>