<svg xmlns="http://www.w3.org/2000/svg" viewBox="0 0 150 150"><defs><style>.cls-1{fill:#504f54;}.cls-2{fill:#313034;}.cls-3,.cls-6,.cls-7{fill:none;}.cls-4{fill:#afb1b3;}.cls-5{fill:#fff;}.cls-6{stroke:#313034;}.cls-6,.cls-7{stroke-miterlimit:10;}.cls-7{stroke:#504f54;}</style></defs><title>grafico_garaje</title><g id="INFO"><path class="cls-1" d="M4.12,75A70,70,0,0,0,74,145.28V4.72A70,70,0,0,0,4.12,75Z"/><path class="cls-2" d="M74.9,4.71H74V145.28h.9a70.29,70.29,0,1,0,0-140.57Z"/><path class="cls-3" d="M105,75.18a31,31,0,0,0-31-31v62A31,31,0,0,0,105,75.18Z"/><path class="cls-3" d="M43,75.1A30.92,30.92,0,0,0,74,106h0V44.11h0A31,31,0,0,0,43,75.1Z"/><path class="cls-4" d="M124.8,75.18A50.84,50.84,0,0,0,74,24.38V44.2a31,31,0,0,1,0,62V126A50.84,50.84,0,0,0,124.8,75.18Z"/><path class="cls-5" d="M74,106a30.92,30.92,0,1,1,0-61.85l0,0V24.38A50.81,50.81,0,0,0,74,126h0V106Z"/><line class="cls-6" x1="74" y1="24.38" x2="74" y2="125.99"/><line class="cls-6" x1="74" y1="80.09" x2="107.36" y2="113.46"/><line class="cls-7" x1="35.45" y1="41.54" x2="72.85" y2="78.94"/><line class="cls-7" x1="35.45" y1="110.07" x2="73.21" y2="72.3"/></g></svg>