<svg xmlns="http://www.w3.org/2000/svg" viewBox="0 0 150 150"><defs><style>.cls-1{fill:#fff;}.cls-2{fill:#dfe0e1;}.cls-3{fill:none;stroke:#504f54;stroke-linecap:round;stroke-linejoin:round;stroke-width:7px;}.cls-4{fill:#504f54;}</style></defs><title>graphic</title><g id="INFO"><path class="cls-1" d="M4.12,75A70,70,0,0,0,74,145.28V4.72A70,70,0,0,0,4.12,75Z"/><path class="cls-2" d="M73.9,4.71H73V145.28h.9a70.29,70.29,0,1,0,0-140.57Z"/><line class="cls-3" x1="32.13" y1="37.37" x2="32.13" y2="106.17"/><line class="cls-3" x1="123.87" y1="106.17" x2="32.13" y2="106.17"/><path class="cls-4" d="M43.26,39.27h9.6a2,2,0,0,1,2,2v67.5a0,0,0,0,1,0,0H41.3a0,0,0,0,1,0,0V41.23a2,2,0,0,1,2-2Z"/><path class="cls-4" d="M85.14,49.79h9.6a2,2,0,0,1,2,2v57a0,0,0,0,1,0,0H83.17a0,0,0,0,1,0,0v-57a2,2,0,0,1,2-2Z"/><path class="cls-4" d="M64.2,59.06h9.6a2,2,0,0,1,2,2v47.71a0,0,0,0,1,0,0H62.24a0,0,0,0,1,0,0V61a2,2,0,0,1,2-2Z"/><path class="cls-4" d="M106.07,78.28h9.6a2,2,0,0,1,2,2v28.49a0,0,0,0,1,0,0H104.11a0,0,0,0,1,0,0V80.25A2,2,0,0,1,106.07,78.28Z"/></g></svg>