<svg xmlns="http://www.w3.org/2000/svg" viewBox="0 0 150 150"><defs><style>.cls-1{fill:#fff;}.cls-2{fill:#dfe0e1;}.cls-3{fill:#222124;}.cls-4{fill:#313034;}.cls-5{fill:#504f54;}.cls-6{fill:#646268;}</style></defs><title>info</title><g id="INFO"><path class="cls-1" d="M4.38,75c0,38.54,32.62,69.8,69.62,70V5C37,5.25,4.38,36.51,4.38,75Z"/><path class="cls-2" d="M75.12,5H74v140h1.12a70,70,0,1,0,0-140Z"/><path class="cls-3" d="M74,27.79V73.61l39.22-24.93A47.66,47.66,0,0,0,74,27.79Z"/><path class="cls-4" d="M113.28,48.67,74,73.61v48.7a47.29,47.29,0,0,0,39.28-73.63Z"/><path class="cls-5" d="M74,27.79A47.38,47.38,0,0,0,27.48,83.15L74,73.93Z"/><path class="cls-6" d="M27.45,83.15A47.53,47.53,0,0,0,74,122.3V73.93Z"/><polygon class="cls-1" points="70.61 65 65.28 102 74 102 74 65 70.61 65"/><path class="cls-1" d="M70.43,47.75a5.17,5.17,0,0,0,0,7.26A5.59,5.59,0,0,0,74,56.53V46.23A5.56,5.56,0,0,0,70.43,47.75Z"/><polygon class="cls-2" points="77.63 65 74 65 74 102 81.98 102 77.63 65"/><path class="cls-2" d="M79.27,51.38a5,5,0,0,0-1.58-3.63A4.26,4.26,0,0,0,74,46.23v10.3A4.26,4.26,0,0,0,77.69,55,5,5,0,0,0,79.27,51.38Z"/></g></svg>