<svg xmlns="http://www.w3.org/2000/svg" viewBox="0 0 150 150"><defs><style>.cls-1{fill:#fff;}.cls-2{fill:#dfe0e1;}.cls-3{fill:#504f54;}.cls-4{fill:#313034;}.cls-5{fill:#686868;}.cls-6,.cls-7{fill:none;stroke-miterlimit:10;}.cls-6{stroke:#dfe0e1;}.cls-7{stroke:#fff;}</style></defs><title>record</title><g id="INFO"><path class="cls-1" d="M4.12,75A70,70,0,0,0,74,145.28V4.72A70,70,0,0,0,4.12,75Z"/><path class="cls-2" d="M73.9,4.71H73V145.28h.9a70.29,70.29,0,1,0,0-140.57Z"/><path class="cls-3" d="M39.57,27C37,27,35,29.52,35,32.11v87A4.77,4.77,0,0,0,39.57,124H72V27Z"/><path class="cls-4" d="M104.94,27H72v97h32.94a5.19,5.19,0,0,0,5.06-4.89v-87A5.39,5.39,0,0,0,104.94,27Z"/><rect class="cls-5" x="60.1" y="22.89" width="24.31" height="9.37" rx="4.68" ry="4.68"/><circle class="cls-5" cx="72.26" cy="24.06" r="5.42"/><line class="cls-6" x1="77.18" y1="43.68" x2="101.65" y2="43.68"/><line class="cls-6" x1="77.18" y1="52.9" x2="101.65" y2="52.9"/><line class="cls-6" x1="77.18" y1="61.11" x2="101.65" y2="61.11"/><line class="cls-6" x1="77.18" y1="69.22" x2="101.65" y2="69.22"/><line class="cls-7" x1="40.97" y1="82.3" x2="65.43" y2="82.3"/><line class="cls-7" x1="40.97" y1="91.51" x2="65.43" y2="91.51"/><line class="cls-7" x1="40.97" y1="99.73" x2="65.43" y2="99.73"/><line class="cls-7" x1="40.97" y1="107.83" x2="65.43" y2="107.83"/><rect class="cls-2" x="77.18" y="82.3" width="24.47" height="27.56" rx="4.68" ry="4.68"/><rect class="cls-1" x="42.37" y="43.5" width="24.47" height="27.56" rx="4.68" ry="4.68"/></g></svg>