<svg xmlns="http://www.w3.org/2000/svg" viewBox="0 0 100 100"><defs><style>.cls-1{fill:none;stroke:#fff;stroke-miterlimit:10;stroke-width:5px;}.cls-2,.cls-3{fill:#fff;}.cls-3{font-size:10.09px;font-family:MyriadPro-Regular, Myriad Pro;}</style></defs><title>sello</title><g id="INFO"><circle class="cls-1" cx="50.15" cy="49.9" r="47.55"/><path class="cls-2" d="M50.15,17.27A32.62,32.62,0,1,0,82.77,49.9,32.63,32.63,0,0,0,50.15,17.27Zm-6.28,52-7.43-7.54L24.56,49.65l7.55-7.43L44,54.29,68.13,30.53l7.43,7.54Z"/><path class="cls-2" d="M76.43,81.51l-.64.54-6.63-3.31L70,78l1.61.84,2.47-2.1-.58-1.72.82-.7Zm-4.06-2.23,3,1.57h0l-1-3.22Z"/><path class="cls-2" d="M72.08,84.84,70,86a2.83,2.83,0,0,1-1,.39,1.82,1.82,0,0,1-.81-.05,1.56,1.56,0,0,1-.61-.36,2.32,2.32,0,0,1-.67-1.14,1.54,1.54,0,0,1,0-.7,1.84,1.84,0,0,1,.35-.73,2.8,2.8,0,0,1,.84-.7L69.36,82l-1.52-2.59.8-.47Zm-2.32-2.12-1,.61a3.32,3.32,0,0,0-.44.31A1.45,1.45,0,0,0,68,84a.88.88,0,0,0-.12.46,1.33,1.33,0,0,0,.57,1,.88.88,0,0,0,.45.12,1.49,1.49,0,0,0,.49-.1,3.36,3.36,0,0,0,.48-.24l1-.61Z"/><path class="cls-2" d="M66.37,88l-2.23.87a2.8,2.8,0,0,1-1.07.23,1.83,1.83,0,0,1-.79-.18,1.55,1.55,0,0,1-.54-.45,2.45,2.45,0,0,1-.33-.58,1.75,1.75,0,0,1-.12-.63,1.79,1.79,0,0,1,.11-.63,1.9,1.9,0,0,1,.34-.58,1.84,1.84,0,0,1,.57-.45l-2.93-2.19L60.47,83l2.7,2.17,1-.37L63,81.95l.86-.33Zm-2-2.46-1.13.44a3.21,3.21,0,0,0-.48.23,1.42,1.42,0,0,0-.38.32.86.86,0,0,0-.19.43,1.33,1.33,0,0,0,.41,1,.85.85,0,0,0,.43.19,1.46,1.46,0,0,0,.5,0,3.22,3.22,0,0,0,.51-.15l1.13-.44Z"/><path class="cls-2" d="M55.65,84a3.68,3.68,0,0,1,1.46,0,3.35,3.35,0,0,1,1.24.54,3.5,3.5,0,0,1,.92,1,3.92,3.92,0,0,1,.5,2.78,3.47,3.47,0,0,1-.52,1.25,3.32,3.32,0,0,1-1,.94,3.9,3.9,0,0,1-2.82.51,3.32,3.32,0,0,1-1.24-.54,3.48,3.48,0,0,1-.92-1,3.91,3.91,0,0,1-.5-2.78,3.49,3.49,0,0,1,.52-1.25,3.32,3.32,0,0,1,1-.94A3.65,3.65,0,0,1,55.65,84Zm.15.85a2.47,2.47,0,0,0-1.69,1.12,2.57,2.57,0,0,0-.36.94,3,3,0,0,0,0,1.07,3,3,0,0,0,.37,1,2.61,2.61,0,0,0,.66.75,2.53,2.53,0,0,0,.9.43,2.48,2.48,0,0,0,1.08,0A2.47,2.47,0,0,0,58.46,89a2.56,2.56,0,0,0,.36-.94,3,3,0,0,0,0-1.07,3,3,0,0,0-.37-1,2.59,2.59,0,0,0-.66-.76,2.48,2.48,0,0,0-2-.45Z"/><path class="cls-2" d="M42.54,90.89l-.82-.15-1.63-7.23,1.06.2.37,1.78,3.19.59,1-1.53,1.06.2Zm-.84-4.55.68,3.3h0l1.83-2.84Z"/><path class="cls-2" d="M37.26,89.7,35,88.84a4.42,4.42,0,0,1-1.12-.62,3.36,3.36,0,0,1-.72-.75,2.76,2.76,0,0,1-.39-.83,3.38,3.38,0,0,1-.12-.83,3.69,3.69,0,0,1,.07-.78,3.87,3.87,0,0,1,.19-.67,3.44,3.44,0,0,1,.69-1.09,3.19,3.19,0,0,1,1.06-.75,3.46,3.46,0,0,1,1.37-.29,4.15,4.15,0,0,1,1.61.32l2.07.81Zm1.31-5.87-1.08-.42a3.81,3.81,0,0,0-1.09-.26,2.72,2.72,0,0,0-1,.11,2.28,2.28,0,0,0-.87.51,2.51,2.51,0,0,0-.62,1,3.32,3.32,0,0,0-.18.75,2.3,2.3,0,0,0,.07.92,2.35,2.35,0,0,0,.51.92,2.88,2.88,0,0,0,1.15.75l1.29.51Z"/><path class="cls-2" d="M30.82,78.88a3.67,3.67,0,0,1,1,1,3.33,3.33,0,0,1,.52,1.25,3.49,3.49,0,0,1,0,1.35,3.89,3.89,0,0,1-1.56,2.36,3.48,3.48,0,0,1-1.23.55,3.36,3.36,0,0,1-1.35,0,3.89,3.89,0,0,1-2.4-1.58,3.35,3.35,0,0,1-.52-1.25,3.5,3.5,0,0,1,0-1.35,3.74,3.74,0,0,1,.56-1.33,3.68,3.68,0,0,1,1-1,3.47,3.47,0,0,1,1.24-.55,3.35,3.35,0,0,1,1.35,0A3.68,3.68,0,0,1,30.82,78.88Zm-.48.72a2.51,2.51,0,0,0-1-.4,2.54,2.54,0,0,0-1,0,2.64,2.64,0,0,0-.91.43,3.06,3.06,0,0,0-.73.78,3,3,0,0,0-.43,1,2.58,2.58,0,0,0,0,1,2.55,2.55,0,0,0,3.12,2.05,2.59,2.59,0,0,0,.91-.43,3.14,3.14,0,0,0,1.16-1.76,2.59,2.59,0,0,0,0-1,2.48,2.48,0,0,0-1.12-1.69Z"/><path class="cls-2" d="M89.1,51.18l2.49-.84.38,1.2-2.48.8L91,54.47l-1,.73L88.44,53l-1.59,2.15-1-.73,1.59-2.09-2.54-.86.38-1.16,2.52.86V48.55H89.1Z"/><path class="cls-2" d="M11.87,51.18l2.49-.84.38,1.2-2.49.8,1.57,2.13-1,.73L11.21,53,9.62,55.17l-1-.73,1.59-2.09-2.54-.86.38-1.16,2.52.86V48.55h1.29Z"/><path class="cls-2" d="M27.49,15.28l.71-.45L34.32,19l-.91.58-1.48-1.05-2.73,1.74.34,1.78-.91.58ZM31.21,18l-2.75-2h0l.6,3.33Z"/><path class="cls-2" d="M32.25,12.57l2.21-.92a2.83,2.83,0,0,1,1.06-.25,1.82,1.82,0,0,1,.79.16,1.54,1.54,0,0,1,.55.44,2.32,2.32,0,0,1,.51,1.22,1.54,1.54,0,0,1-.08.7,1.83,1.83,0,0,1-.44.67,2.77,2.77,0,0,1-.93.58l-1.36.57,1.16,2.77-.85.36Zm2,2.41,1.12-.47a3.34,3.34,0,0,0,.48-.25,1.44,1.44,0,0,0,.37-.33.87.87,0,0,0,.18-.43,1.33,1.33,0,0,0-.43-1,.88.88,0,0,0-.43-.18,1.48,1.48,0,0,0-.5,0,3.23,3.23,0,0,0-.51.17L33.41,13Z"/><path class="cls-2" d="M38.32,10.24l2.33-.56a2.78,2.78,0,0,1,1.09-.08,1.82,1.82,0,0,1,.76.28,1.54,1.54,0,0,1,.48.52,2.44,2.44,0,0,1,.25.62,1.75,1.75,0,0,1,0,.64,1.78,1.78,0,0,1-.19.61,1.92,1.92,0,0,1-.42.53,1.83,1.83,0,0,1-.63.36l2.61,2.57L43.5,16l-2.39-2.51-1,.24.7,2.92-.9.22Zm1.6,2.7,1.18-.28a3.47,3.47,0,0,0,.51-.17,1.45,1.45,0,0,0,.42-.27.86.86,0,0,0,.24-.4A1.33,1.33,0,0,0,42,10.73a.85.85,0,0,0-.4-.24,1.43,1.43,0,0,0-.49,0,3.21,3.21,0,0,0-.53.08l-1.18.28Z"/><path class="cls-2" d="M48.41,15.64A3.68,3.68,0,0,1,47,15.43a3.35,3.35,0,0,1-1.15-.71,3.49,3.49,0,0,1-.78-1.1,3.92,3.92,0,0,1-.13-2.83,3.47,3.47,0,0,1,.68-1.17,3.33,3.33,0,0,1,1.09-.81,3.9,3.9,0,0,1,2.86-.13,3.32,3.32,0,0,1,1.15.71,3.5,3.5,0,0,1,.78,1.1,3.91,3.91,0,0,1,.12,2.83,3.49,3.49,0,0,1-.68,1.17,3.31,3.31,0,0,1-1.09.8A3.65,3.65,0,0,1,48.41,15.64Zm0-.86A2.49,2.49,0,0,0,50.69,13a3.13,3.13,0,0,0-.09-2.11,2.59,2.59,0,0,0-.56-.84,2.62,2.62,0,0,0-2.95-.45,2.5,2.5,0,0,0-.78.62,2.57,2.57,0,0,0-.48.88,3.12,3.12,0,0,0,.09,2.1,2.57,2.57,0,0,0,.56.84,2.49,2.49,0,0,0,1.9.72Z"/><path class="cls-2" d="M62.33,10.55l.8.26.64,7.38-1-.34L62.63,16l-3.08-1-1.17,1.39-1-.34Zm.22,4.62-.23-3.37h0l-2.2,2.57Z"/><path class="cls-2" d="M67.41,12.44l2.08,1.16a4.41,4.41,0,0,1,1,.76,3.35,3.35,0,0,1,.61.84,2.76,2.76,0,0,1,.27.87,3.38,3.38,0,0,1,0,.84,3.67,3.67,0,0,1-.17.76,3.88,3.88,0,0,1-.28.64,3.42,3.42,0,0,1-.83,1,3.19,3.19,0,0,1-1.15.6,3.48,3.48,0,0,1-1.39.1A4.16,4.16,0,0,1,66,19.47l-1.94-1.08Zm-2.09,5.64,1,.56a3.77,3.77,0,0,0,1,.4,2.69,2.69,0,0,0,1,0,2.29,2.29,0,0,0,.93-.39,2.5,2.5,0,0,0,.74-.86,3.29,3.29,0,0,0,.28-.72,2.3,2.3,0,0,0,.06-.92,2.36,2.36,0,0,0-.38-1,2.88,2.88,0,0,0-1-.9l-1.21-.67Z"/><path class="cls-2" d="M72.33,24a3.67,3.67,0,0,1-.9-1.15,3.34,3.34,0,0,1-.35-1.31,3.5,3.5,0,0,1,.2-1.34,3.9,3.9,0,0,1,1.86-2.13,3.47,3.47,0,0,1,1.3-.37,3.34,3.34,0,0,1,1.34.17,3.9,3.9,0,0,1,2.16,1.89,3.35,3.35,0,0,1,.35,1.31,3.5,3.5,0,0,1-.2,1.34,3.92,3.92,0,0,1-1.86,2.13,3.48,3.48,0,0,1-1.3.38,3.34,3.34,0,0,1-1.34-.17A3.68,3.68,0,0,1,72.33,24Zm.57-.65a2.48,2.48,0,0,0,1.93.63,2.6,2.6,0,0,0,1-.31,3.13,3.13,0,0,0,1.39-1.59,2.57,2.57,0,0,0,.17-1,2.62,2.62,0,0,0-1.82-2.36,2.48,2.48,0,0,0-1-.09,2.55,2.55,0,0,0-1,.31,3.14,3.14,0,0,0-1.39,1.59,2.58,2.58,0,0,0-.17,1,2.48,2.48,0,0,0,.88,1.83Z"/><text class="cls-3" transform="translate(51.86 15.24) rotate(9.01)">B</text><text class="cls-3" transform="matrix(-1, 0.01, -0.01, -1, 52, 84.66)">B</text></g></svg>