<svg xmlns="http://www.w3.org/2000/svg" viewBox="0 0 100 100"><defs><style>.cls-1{fill:none;}.cls-2{fill:#fff;}</style></defs><title>taller</title><g id="INFO"><path class="cls-1" d="M37.25,48l-4,9.09c-.47,1.15.16,1.42,1.4,1.42H51.5v-12H40.38C39.13,46.52,37.73,46.85,37.25,48Z"/><rect class="cls-1" x="32.5" y="65.52" width="10" height="5" rx="1.13" ry="1.13"/><path class="cls-1" d="M68.47,58.52c1.25,0,1.88-.58,1.4-1.73l-4-9c-.47-1.15-1.88-1.3-3.12-1.3H51.5v12Z"/><rect class="cls-1" x="60.5" y="65.52" width="10" height="5" rx="1.13" ry="1.13"/><path class="cls-2" d="M75.19,52.23a3.06,3.06,0,0,0-.77.1L71.9,53,69.25,46.8A5.91,5.91,0,0,0,64,43.52H38.52a6,6,0,0,0-5.21,3.39l-2.64,6.37-2.46-.71a6.38,6.38,0,0,0-1.11-.11,2.52,2.52,0,0,0-2.6,2.29v1.37c0,1.56,2.08,2.4,3.64,2.4h.18l-.43,1.13a22.58,22.58,0,0,0-1.39,7V79.43c0,1.56,1.38,2.08,2.94,2.08h3.4c1.56,0,2.65-.52,2.65-2.08V76.52h31v2.7c0,1.56,1.64,2.3,3.2,2.3h3.4c1.56,0,2.4-.74,2.4-2.3V66.4a21.65,21.65,0,0,0-1.12-6.86l-.16-1h.22A2.87,2.87,0,0,0,77.5,55.9V54.53A2.27,2.27,0,0,0,75.19,52.23ZM41.5,69.84c0,.63-.4.67-1,.67H33c-.62,0-.52,0-.52-.67V66.08c0-.62-.11-.57.52-.57h7.46c.63,0,1-.05,1,.57ZM34.08,58.52c-1.25,0-1.88-.39-1.4-1.54l4-9.06c.47-1.15,1.88-1.39,3.12-1.39H62.74c1.24,0,2.65.33,3.12,1.48l4,9.09c.47,1.15-.16,1.42-1.4,1.42H34.08ZM70.5,69.38a1.13,1.13,0,0,1-1.13,1.13H61.63a1.13,1.13,0,0,1-1.13-1.13V66.65a1.13,1.13,0,0,1,1.13-1.13h7.74a1.13,1.13,0,0,1,1.13,1.13Z"/><polygon class="cls-2" points="51.5 20.52 14.5 20.52 14.5 26.52 51.5 26.52 86.5 26.52 86.5 20.52 51.5 20.52"/><polygon class="cls-2" points="51.5 27.52 14.5 27.52 14.5 33.52 51.5 33.52 86.5 33.52 86.5 27.52 51.5 27.52"/><polyline class="cls-1" points="51.5 18.52 12.5 18.52 12.5 83.52 51.5 83.52"/><path class="cls-2" d="M93.31,10.52H9.16A3.68,3.68,0,0,0,5.5,14.21h0a3.37,3.37,0,0,0,3.66,3.3H10.5v68h81v-68h1.81a3,3,0,0,0,3.19-3.3h0C96.5,12.19,95.33,10.52,93.31,10.52Zm-4.81,73h-76v-65h76Z"/></g></svg>