<svg xmlns="http://www.w3.org/2000/svg" viewBox="0 0 150 150"><defs><style>.cls-1{fill:#fff;}.cls-2{fill:#dfe0e1;}.cls-3{fill:none;}.cls-4{fill:#313034;}.cls-5{fill:#504f54;}</style></defs><title>taller</title><g id="INFO"><path class="cls-1" d="M5.35,75.07c0,38,32.65,68.83,68.65,69V6C38,6.24,5.35,37.07,5.35,75.07Z"/><path class="cls-2" d="M75.12,6H74V144.12h1.12A69,69,0,1,0,75.12,6Z"/><path class="cls-3" d="M95.14,91c1.54,0,2.33-.58,1.74-2l-5-11.25C91.33,76.32,89.59,76,88,76H74V91Z"/><path class="cls-3" d="M93,102c0-.78.36-2-.41-2h-9c-.77,0-.56,1.18-.56,2V107c0,.78-.22,2,.56,2h9c.77,0,.41-1.19.41-2Z"/><path class="cls-4" d="M74,76H88c1.54,0,3.29.61,3.87,2l5,11.23c.59,1.43-.2,1.73-1.74,1.73H74v23H93v2.91c0,1.93,1.74,4.09,3.67,4.09h4.21c1.93,0,1.12-2.16,1.12-4.09V101c0-2.4.45-6.41-.46-8.63l.73-1.4h.27c1.93,0,4.46-1,4.46-3V86.33a3.11,3.11,0,0,0-3.19-2.86,5.26,5.26,0,0,0-1.11.12l-3.21.85-3.33-7C95.18,75,92.22,74,89.64,74H74Zm21,31.6a1.4,1.4,0,0,1-1.4,1.4H84.4a1.4,1.4,0,0,1-1.4-1.4v-6.2a1.4,1.4,0,0,1,1.4-1.4h9.2a1.4,1.4,0,0,1,1.4,1.4Z"/><path class="cls-3" d="M54.16,91c-1.54,0-2.32-.58-1.74-2l5-11.25C58,76.32,59.72,76,61.26,76H74V91Z"/><rect class="cls-3" x="53" y="100" width="12" height="9" rx="1.4" ry="1.4"/><path class="cls-5" d="M74,74H59.67c-2.58,0-5.52,1-6.5,3.41l-3.32,7.41-3.19-1a3,3,0,0,0-.82-.22A2.73,2.73,0,0,0,43,86.33V88c0,1.93,1.84,3,3.77,3H47l.07,1.4C46.2,94.62,46,98.63,46,101v15.88c0,1.93.49,4.09,2.43,4.09h4.21c1.93,0,4.36-2.16,4.36-4.09V114H74V91H54.16c-1.54,0-2.32-.6-1.74-2l5-10.9C58,76.64,59.72,76,61.26,76H74Zm-9,33.6a1.4,1.4,0,0,1-1.4,1.4H54.4a1.4,1.4,0,0,1-1.4-1.4v-6.2a1.4,1.4,0,0,1,1.4-1.4h9.2a1.4,1.4,0,0,1,1.4,1.4Z"/><rect class="cls-4" x="74" y="51" width="38" height="7"/><polygon class="cls-5" points="34 51 34 58 72.5 58 74 58 74 51 72.5 51 34 51"/><rect class="cls-4" x="74" y="62" width="38" height="7"/><polygon class="cls-5" points="34 62 34 69 72.5 69 74 69 74 62 72.5 62 34 62"/><path class="cls-4" d="M121,39H74v9h40v73h4V46h3c2.28,0,5-2,5-4.28h0C126,39.43,123.28,39,121,39Z"/><path class="cls-5" d="M73.85,48H74V39H26.09c-2.28,0-6.09.43-6.09,2.71h0C20,44,23.81,46,26.09,46H27v75h5V48Z"/></g></svg>