<svg xmlns="http://www.w3.org/2000/svg" viewBox="0 0 150 150"><defs><style>.cls-1{fill:#fff;}.cls-2{fill:#dfe0e1;}.cls-3{fill:#313034;}.cls-4{fill:#1a191d;}.cls-5{fill:#504f54;}.cls-6{fill:#d2d3d4;}</style></defs><title>traspaso</title><g id="INFO"><path class="cls-1" d="M4.6,75.45A69.39,69.39,0,0,0,74,145.25V5.65A69.39,69.39,0,0,0,4.6,75.45Z"/><path class="cls-2" d="M74.89,5.65H74V145.25h.89a69.8,69.8,0,0,0,0-139.61Z"/><path class="cls-3" d="M111.95,71.58H86.14a6.45,6.45,0,0,1-6.45-6.45V39.32a6.45,6.45,0,0,1,6.45-6.46h25.81a6.45,6.45,0,0,1,6.45,6.46V65.13A6.45,6.45,0,0,1,111.95,71.58Z"/><path class="cls-4" d="M85.63,56.21h-.79a4,4,0,1,1,0-8h.79a4,4,0,1,1,0,8Z"/><path class="cls-5" d="M74,56.21h-.79a4,4,0,0,1,0-8H74a4,4,0,1,1,0,8Z"/><path class="cls-4" d="M100.09,56.21H99.3a4,4,0,0,1,0-8h.79a4,4,0,0,1,0,8Z"/><path class="cls-5" d="M63.93,48.23H47.31l4-4a4,4,0,1,0-5.64-5.64L34.86,49.4a4,4,0,0,0,0,5.64L45.65,65.84a4,4,0,0,0,5.64-5.64l-4-4H63.93a4,4,0,1,0,0-8Z"/><path class="cls-5" d="M37.9,79.32H63.71a6.45,6.45,0,0,1,6.45,6.45v25.8A6.45,6.45,0,0,1,63.71,118H37.9a6.45,6.45,0,0,1-6.45-6.46V85.78A6.45,6.45,0,0,1,37.9,79.32Z"/><path class="cls-6" d="M65,102.67h-.79a4,4,0,0,1,0-8H65a4,4,0,0,1,0,8Z"/><path class="cls-3" d="M76.67,102.67h-.79a4,4,0,0,1,0-8h.79a4,4,0,0,1,0,8Z"/><path class="cls-6" d="M50.55,102.67h-.79a4,4,0,1,1,0-8h.79a4,4,0,0,1,0,8Z"/><path class="cls-3" d="M115,95.86,104.2,85.07a4,4,0,0,0-5.64,5.64l4,4H85.91a4,4,0,0,0,0,8h16.63l-4,4a4,4,0,1,0,5.64,5.64L115,101.5A4,4,0,0,0,115,95.86Z"/></g></svg>