<svg xmlns="http://www.w3.org/2000/svg" viewBox="0 0 100 100"><defs><style>.cls-1{fill:none;}.cls-2{fill:#fff;}</style></defs><title>vehiculo</title><g id="INFO"><path class="cls-1" d="M31.63,31.55l-5,11.31c-.6,1.45.2,1.65,1.77,1.65H50v-15H35.56C34,29.52,32.22,30.1,31.63,31.55Z"/><path class="cls-1" d="M39,55.5c0-.8-1-2-1.7-2H26.82c-.69,0-.82,1.19-.82,2v3.09c0,.8.12.92.82.92H37.3c.69,0,1.7-.12,1.7-.92Z"/><path class="cls-1" d="M70.95,44.52c1.57,0,2.36-.5,1.77-2l-5-11.35c-.59-1.45-2.37-1.69-3.93-1.69H50v15Z"/><path class="cls-1" d="M74,55.25a1.62,1.62,0,0,0-1.48-1.73h-10A1.62,1.62,0,0,0,61,55.25v2.54a1.62,1.62,0,0,0,1.48,1.73h10A1.62,1.62,0,0,0,74,57.78Z"/><path class="cls-2" d="M79.76,37a5.37,5.37,0,0,0-1.13.12L75.36,38,72,29.93a7.77,7.77,0,0,0-6.62-4.41H33.22a7.82,7.82,0,0,0-6.56,4.54l-3.32,8.16-3.1-.82a5.67,5.67,0,0,0-1.18-.11A3,3,0,0,0,16,40.21v1.72c0,2,2.18,2.58,4.15,2.58h.23l-.58,1.65a29.88,29.88,0,0,0-1.79,9V71.31c0,2,1.82,2.21,3.79,2.21h4.29c2,0,3.93-.24,3.93-2.21V67.52H69V71c0,2,1.53,2.47,3.5,2.47h4.28c2,0,4.22-.51,4.22-2.47V54.89A29.38,29.38,0,0,0,79,46l-.8-1.52h.28c2,0,4.53-.88,4.53-2.85V39.95A3.16,3.16,0,0,0,79.76,37ZM38,59.23c0,.79-1.52.29-2.31.29h-9.4c-.79,0-.29.5-.29-.29V54.5c0-.79-.5-1,.29-1h9.4c.79,0,2.31.2,2.31,1ZM27.62,44.52c-1.57,0-2.36-.27-1.77-1.72l5-11.47c.6-1.45,2.37-1.81,3.93-1.81H63.73c1.57,0,3.34.58,3.93,2l5,11.31c.59,1.45-.2,1.65-1.77,1.65H27.62ZM74,58.09c0,.79-1.08,1.42-1.87,1.42H62c-.79,0-1-.64-1-1.42V54.94c0-.79.2-1.42,1-1.42H72.13c.79,0,1.87.64,1.87,1.42Z"/></g></svg>