<svg xmlns="http://www.w3.org/2000/svg" viewBox="0 0 150 150"><defs><style>.cls-1{fill:#fff;}.cls-2{fill:#dfe0e1;}.cls-3{fill:none;}.cls-4{fill:#504f54;}.cls-5{fill:#313034;}</style></defs><title>vender</title><g id="INFO"><path class="cls-1" d="M6,74.62C6,113.36,36,144.78,76,145V4.24C36,4.46,6,35.88,6,74.62Z"/><path class="cls-2" d="M76.24,4.23H76V145h.24a70.39,70.39,0,1,0,0-140.77Z"/><path class="cls-3" d="M66.35,67.59a7.56,7.56,0,0,0-5.38,3A8.48,8.48,0,0,0,59.25,77l1,7.81L49,96.11a8.85,8.85,0,0,1,1-11.24,1.62,1.62,0,1,0-2.28-2.29,12.08,12.08,0,0,0-1.06,15.84l-1.3,1.3A1.62,1.62,0,0,0,47.68,102l1.3-1.3a12,12,0,0,0,7.3,2.47c.34,0,.67,0,1,0a8,8,0,0,0,5.59-3,8.55,8.55,0,0,0,1.83-6.41L63.31,86,74,74.84v-5A10.49,10.49,0,0,0,66.35,67.59Zm-6,30.53A4.78,4.78,0,0,1,57,99.91a8.8,8.8,0,0,1-5.72-1.52l9.54-9.53.66,5.3A5.29,5.29,0,0,1,60.37,98.12Zm2.86-16.24-.66-5.31a5.28,5.28,0,0,1,1.13-4A4.79,4.79,0,0,1,67,70.81a8.78,8.78,0,0,1,5.73,1.53Z"/><path class="cls-3" d="M74.21,74.63C76.33,77.73,77,81.87,74,84.89V88.6c2,.1,1.49,0,1.89-.44a12.1,12.1,0,0,0,1.27-15.84l.9-.79a1.62,1.62,0,0,0,.05-2.29,1.58,1.58,0,0,0-2.26,0l-1.2.78c-.08-.06-.65-.11-.65-.17v5Z"/><path class="cls-3" d="M73.6,85.86a1.64,1.64,0,0,0-.21,2.29c.24.23.61.38.61.44V84.89A1.3,1.3,0,0,1,73.6,85.86Z"/><path class="cls-3" d="M91.37,56.71a1.62,1.62,0,1,1-2.29-2.29L93.51,50a6.5,6.5,0,1,0,2.29,2.29Z"/><path class="cls-4" d="M67,70.81a4.79,4.79,0,0,0-3.34,1.8,5.28,5.28,0,0,0-1.13,4l.66,5.31,9.54-9.54A8.78,8.78,0,0,0,67,70.81Z"/><path class="cls-4" d="M60.84,88.86,51.3,98.39A8.8,8.8,0,0,0,57,99.91a4.78,4.78,0,0,0,3.34-1.79,5.29,5.29,0,0,0,1.13-4Z"/><path class="cls-5" d="M116.06,31.73c-.63-.63-1.66,0-2.29.61l-8,8.66H76V69.85c0,.06.59.11.67.17l1-.78a1.75,1.75,0,0,1,2.4,0,1.62,1.62,0,0,1,.06,2.29l-.76.79C83,77,82.2,83.84,77.88,88.16c-.4.39-.88.47-1.88.44v22.52l31-32.42v-37L115.35,34C116,33.39,116.69,32.37,116.06,31.73ZM92.23,62A6.48,6.48,0,1,1,95.52,50l-4.43,4.43a1.62,1.62,0,1,0,2.29,2.29l4.43-4.43A6.47,6.47,0,0,1,92.23,62Z"/><path class="cls-4" d="M74.6,88.16a1.65,1.65,0,0,1,.29-2.29c.31-.31,1.12-.31,1.12-1V74.84L64.31,86l.69,7.8a8.66,8.66,0,0,1-2,6.41,8.16,8.16,0,0,1-5.66,3c-.34,0-.71,0-1,0A12.1,12.1,0,0,1,49,100.71L47.69,102a1.63,1.63,0,0,1-2.3,0,1.62,1.62,0,0,1,0-2.29l1.3-1.3a12.08,12.08,0,0,1,1.06-15.84A1.62,1.62,0,1,1,50,84.87a8.84,8.84,0,0,0-1,11.24L60.33,84.79l-1-7.81a8.56,8.56,0,0,1,1.83-6.41,9.28,9.28,0,0,1,6.16-3c2.91-.24,4.66.58,8.66,2.26V41H68.71L21.76,87.51a3.62,3.62,0,0,0,0,5.38l33.16,33a4.81,4.81,0,0,0,6.35-.1L76,111.12V88.6A3.9,3.9,0,0,1,74.6,88.16Z"/><path class="cls-5" d="M76.21,74.63l-.21.21V84.89C79,81.87,78.33,77.73,76.21,74.63Z"/></g></svg>