<svg xmlns="http://www.w3.org/2000/svg" viewBox="0 0 150 150"><defs><style>.cls-1{fill:#504f54;}.cls-2{fill:#313034;}.cls-3{fill:#fff;fill-rule:evenodd;}</style></defs><title>convertible</title><g id="INFO"><path class="cls-1" d="M5.12,75A70,70,0,0,0,75,145.28V4.72A70,70,0,0,0,5.12,75Z"/><path class="cls-2" d="M75.67,4.71H75V145.28h.67a70.29,70.29,0,1,0,0-140.57Z"/><g id="mia4cD.tif"><path class="cls-3" d="M119.21,90.87c-.1-1.6-.08-3.13-.33-4.62a10.14,10.14,0,0,0-20.13,1c-.08,1.16,0,2.32,0,3.68H97.09q-25.18,0-50.36,0c-1.29,0-1.58-.42-1.58-1.6a17.42,17.42,0,0,0-.4-4.41,10,10,0,0,0-10.09-7.17A9.81,9.81,0,0,0,25.48,86a33.59,33.59,0,0,0,0,4.79c-.58,0-1,.11-1.36.1-2.25-.07-4.5-.13-6.74-.25-1.8-.1-2.07-.58-1.7-2.23.15-.69.43-1.65-.69-2.05a.81.81,0,0,1-.35-.6,13,13,0,0,1,1.31-7.44A6.13,6.13,0,0,1,19,75.74c4.19-1.45,8.44-2.76,12.74-3.83A61.92,61.92,0,0,1,49,70.09a2.09,2.09,0,0,0,1-.32c5.74-3.07,11.47-6.18,17.23-9.22,1.56-.82,2.87-.28,4,1.51-.95.41-1.9.76-2.79,1.23-1.7.9-3.41,1.82-5,2.84-1,.62-1.87,1.38-1.12,2.85.26.51,0,1.27,0,2,.69,0,1.36-.08,1.07-1.16-.17-.63-.43-1.24-.65-1.86l.38-.18c.37.75.81,1.48,1.1,2.26s.5.92,1.25.88c5.66-.31,11.32-.61,17-.83,1.17,0,1.32-.52,1.18-1.52a32.16,32.16,0,0,1-.3-4.11,1.9,1.9,0,0,1,.69-1.24c.82-.7,1.66-.36,1.79.71.24,2,.42,3.92.65,6.12l17.43-.89c.11-1.43.27-2.75.3-4.09s.72-1.58,1.64-1.14a4.47,4.47,0,0,1,1.85,1.72,10.41,10.41,0,0,1,.68,2.66c4.57,0,9.15-.14,13.71,0,3.72.15,7.42.69,11.13,1.06,1.14.11,1.92,2.19,1.21,3.25-1.16,1.74-.26,5.06,1.61,6,.25.13.63.41.61.59-.17,1.53-.42,3.05-.63,4.58-.09.66-.4,1.45-.15,1.95.49,1-.07,1.26-.64,1.72a3.66,3.66,0,0,0-1.17,1.19,2.51,2.51,0,0,1-2.37,1.7c-3.71.18-7.42.34-11.14.49C120.13,91,119.69,90.9,119.21,90.87Z"/><path class="cls-3" d="M35.08,97.77a9.58,9.58,0,1,1,9.73-9.45A9.5,9.5,0,0,1,35.08,97.77Zm.12-2.67a6.92,6.92,0,1,0-6.9-7A6.85,6.85,0,0,0,35.2,95.1Z"/><path class="cls-3" d="M118.61,88.17a9.59,9.59,0,1,1-19.18,0,9.59,9.59,0,0,1,19.18,0Zm-9.55-6.9a6.92,6.92,0,1,0-.12,13.83,6.92,6.92,0,1,0,.12-13.83Z"/><path class="cls-3" d="M30.2,85.08l2.35,2H29.41Z"/><path class="cls-3" d="M30.18,91.22l-.78-1.95h3.23Z"/><path class="cls-3" d="M34.08,94l-2.24-.91,2.24-2.23Z"/><path class="cls-3" d="M36.29,85.33v-2.9l2.37.88Z"/><path class="cls-3" d="M32.13,83.18,34,82.41v3.1Z"/><path class="cls-3" d="M38.19,93.25,36.3,94V91.06Z"/><path class="cls-3" d="M41,87.13H37.84l2.22-2.33Z"/><path class="cls-3" d="M40.94,89.31l-.84,2.32L38,89.31Z"/><path class="cls-3" d="M111.86,89.26h3l-.91,2.32Z"/><path class="cls-3" d="M111.67,87.08,114,85l.9,2.08Z"/><path class="cls-3" d="M106.06,83.17l1.84-.79v2.87Z"/><path class="cls-3" d="M105.8,93.15l2.09-2V94Z"/><path class="cls-3" d="M103.3,87.07l.84-2.31,2.08,2.31Z"/><path class="cls-3" d="M103.22,89.27h3.21L104,91.07Z"/><path class="cls-3" d="M110.23,82.43l2.13.87-2.13,2.12Z"/><path class="cls-3" d="M112.26,93.14l-2.08.83V91.07Z"/></g></g></svg>