<svg xmlns="http://www.w3.org/2000/svg" viewBox="0 0 150 150"><defs><style>.cls-1{fill:#504f54;}.cls-2{fill:#313034;}.cls-3,.cls-4{fill:#fff;}.cls-3{fill-rule:evenodd;}</style></defs><title>coupe</title><g id="INFO"><path class="cls-1" d="M4.51,75a70,70,0,0,0,69.88,70.28V4.72A70,70,0,0,0,4.51,75Z"/><path class="cls-2" d="M75.06,4.71h-.67V145.28h.67a70.29,70.29,0,1,0,0-140.57Z"/><g id="WzBT8U.tif"><path class="cls-3" d="M96.93,91.63H44.7c1.65-5.75.41-10.54-4.94-13.55a9.83,9.83,0,0,0-11.32.8c-4.3,3.24-5.2,7.64-3.6,12.77-1.55,0-3.08.51-4.22-1a1.1,1.1,0,0,0-.81-.38c-1.77.12-2.37-1.16-2.89-2.43-.26-.64-.46-1.08-1.26-1.06-1.09,0-1.09-.85-1.13-1.61s-.07-1.62,1-1.63,1.34-.72,1.7-1.6c1.86-4.57,4.52-8.39,9.33-10.43a68.26,68.26,0,0,1,20.4-5c2.26-.21,4.54-.2,6.8-.41a2.26,2.26,0,0,0,1.42-.9,28.49,28.49,0,0,0,2.6-4.2c1.92-4.11,5.3-5.86,9.57-6.54a80,80,0,0,1,23.3-.36,77.83,77.83,0,0,1,8.78,1.6,34.79,34.79,0,0,1,14.79,8.21c4.28,3.83,8.74,7.45,12.36,12a5.61,5.61,0,0,0,1.54,1L131.78,79,129,80.46a25.67,25.67,0,0,0,.82,2.91,1.53,1.53,0,0,0,1.09.7,29.88,29.88,0,0,0,3.07.16c1,0,1.39.71,1.46,1.58s-.59,1.24-1.36,1.27c-1,0-2,0-3.07,0,.2,2.42,1,3.34,3.2,3.58v1.12H116.73c1.77-5.66.59-10.39-4.54-13.51a9.83,9.83,0,0,0-11.66.63C96.29,82.1,95.35,86.45,96.93,91.63ZM92.26,67.56h0c2.58,0,5.16,0,7.74,0,1.93,0,3-1.47,2.24-3.24a3.34,3.34,0,0,0-1.52-1.6,44.41,44.41,0,0,0-7.1-2.92,73.1,73.1,0,0,0-8.79-1.44c-.72-.1-1.58-.06-1.59,1.09,0,2.22-.07,4.45-.12,6.67,0,1.06.41,1.48,1.53,1.45C87.19,67.51,89.72,67.56,92.26,67.56ZM64.2,67.2c.52,0,.91.08,1.3.08,4.45,0,8.9,0,13.35.12,1.17,0,1.47-.42,1.44-1.47,0-2,0-3.92,0-5.87s-.21-2.23-2.15-2.14c-3.91.19-7.8.53-11.7.86a1.24,1.24,0,0,0-.91.72C65,62,64.64,64.56,64.2,67.2Zm.5-8.36c-1.29.63-2.49.84-3,1.55A51.27,51.27,0,0,0,58.06,66c-.46.77-.1,1.3.82,1.3,1.2,0,2.4,0,3.6-.08.31,0,.81-.33.86-.58C63.81,64.18,64.21,61.73,64.7,58.83Z"/><path class="cls-3" d="M44.77,87.55a10,10,0,0,1-10.1,9.92,10,10,0,0,1,.17-20A10,10,0,0,1,44.77,87.55Zm-9.95-7.28a7.2,7.2,0,1,0-.06,14.39,7.2,7.2,0,1,0,.06-14.39Z"/><path class="cls-3" d="M96.9,87.49a10,10,0,0,1,10-10,10,10,0,1,1-10,10Zm10,7.17a7.19,7.19,0,1,0-.11-14.39,7.19,7.19,0,1,0,.11,14.39Z"/><path class="cls-3" d="M37.66,88.62h3.17L39.89,91Z"/><path class="cls-3" d="M40,84.14l.88,2.16H37.75l2.41-1.65Z"/><path class="cls-3" d="M33.61,93.52l-2.18-.92,2.18-2.37Z"/><path class="cls-3" d="M31.65,82.22l2-.81v3.13Z"/><path class="cls-3" d="M31.66,86.31H28.75l.88-2.23Z"/><path class="cls-3" d="M28.71,88.6h3.22l-2.38,2Z"/><path class="cls-3" d="M36,81.44l2.16.91-2.16,2Z"/><path class="cls-3" d="M36,90.54l2.1,2-2.1,1Z"/><path class="cls-3" d="M100.79,88.62h3.42l-2.51,2Z"/><path class="cls-3" d="M101.8,83.91l2.06,2.38h-3Z"/><path class="cls-3" d="M110,92.74l-1.94.79v-3.4Z"/><path class="cls-3" d="M108,84.71V81.43l2.38.92Z"/><path class="cls-3" d="M112.12,84.34l.81,1.95h-3.06Z"/><path class="cls-3" d="M112.94,88.62,112,91l-1.87-2.37Z"/><path class="cls-3" d="M105.63,84.4l-2.1-2.05,2.1-1Z"/><path class="cls-3" d="M105.72,90.46v3l-2.39-.95Z"/><circle class="cls-4" cx="34.76" cy="87.67" r="0.93"/><circle class="cls-4" cx="106.3" cy="87.67" r="0.93"/></g></g></svg>