<svg xmlns="http://www.w3.org/2000/svg" viewBox="0 0 150 150"><defs><style>.cls-1{fill:#504f54;}.cls-2{fill:#313034;}.cls-3,.cls-4{fill:#fff;}.cls-4{fill-rule:evenodd;}</style></defs><title>hatchback</title><g id="INFO"><path class="cls-1" d="M4.42,74A70,70,0,0,0,74.3,144.28V3.72A70,70,0,0,0,4.42,74Z"/><path class="cls-2" d="M75,3.71H74.3V144.28H75A70.29,70.29,0,1,0,75,3.71Z"/><path class="cls-3" d="M125.93,75.1l-1.57-1.5V68.88a5,5,0,0,0-1.29-3.35l-5.79-6.41h0a2.81,2.81,0,0,0-2.29-2.7c-6.89-1.29-28.25-4.64-45.16-.1a117.07,117.07,0,0,0-21.07,8.46S30.32,67.12,25.9,72.88a13.8,13.8,0,0,0-2.42,7A6.58,6.58,0,0,0,28.58,87l1.71.38c0-.09,0-.18,0-.28a9.59,9.59,0,0,1-.08-1.23,9.79,9.79,0,0,1,19.58,0c0,.28,0,.56,0,.83a9.47,9.47,0,0,1-.14,1l49.42.1c0-.23-.09-.45-.12-.69a9.79,9.79,0,1,1,19.5-1.23c0,.28,0,.56,0,.83a9.57,9.57,0,0,1-.17,1.12h.68l2.81-1.54a9.5,9.5,0,0,0,4.93-8l.06-1.46A2.27,2.27,0,0,0,125.93,75.1ZM58.48,65.43l.76-3s11.45-6,30.61-5.34V66L59.16,68.42A5,5,0,0,0,58.48,65.43Zm49.17-.83L93.22,65.74V57.26a94.88,94.88,0,0,1,15.44,2.43,1.66,1.66,0,0,1,.88,2.68Z"/><path class="cls-4" d="M40.17,94.22a8.43,8.43,0,1,1,0-16.86,8.43,8.43,0,1,1,0,16.86Zm0-2.35a6.08,6.08,0,1,0-6.11-6.09A6.08,6.08,0,0,0,40.21,91.87Z"/><path class="cls-4" d="M39.23,80.68v2.9l-1.76-2.13Z"/><path class="cls-4" d="M35.06,86.75H37.9l-2.12,1.73Z"/><path class="cls-4" d="M39.23,90.93l-1.89-.79,1.89-2Z"/><path class="cls-4" d="M37.45,84.85H35.08L35.79,83Z"/><path class="cls-4" d="M42.82,90.22l-1.63.71V88.38Z"/><path class="cls-4" d="M42.53,84.83l2-1.8.78,1.8Z"/><path class="cls-4" d="M41.21,80.72l1.93.8-1.93,1.79Z"/><path class="cls-4" d="M42.44,86.76h2.88l-.82,2Z"/><circle class="cls-3" cx="40.2" cy="85.8" r="0.96"/><path class="cls-4" d="M108.06,94.22a8.43,8.43,0,1,1,0-16.86,8.43,8.43,0,1,1,0,16.86Zm0-2.35A6.08,6.08,0,1,0,102,85.78,6.08,6.08,0,0,0,108.1,91.87Z"/><path class="cls-4" d="M107.12,80.68v2.9l-1.76-2.13Z"/><path class="cls-4" d="M102.94,86.75h2.85l-2.12,1.73Z"/><path class="cls-4" d="M107.12,90.93l-1.89-.79,1.89-2Z"/><path class="cls-4" d="M105.33,84.85H103l.72-1.83Z"/><path class="cls-4" d="M110.71,90.22l-1.63.71V88.38Z"/><path class="cls-4" d="M110.41,84.83l2-1.8.78,1.8Z"/><path class="cls-4" d="M109.09,80.72l1.93.8-1.93,1.79Z"/><path class="cls-4" d="M110.33,86.76h2.88l-.82,2Z"/><circle class="cls-3" cx="108.09" cy="85.8" r="0.96"/></g></svg>