<svg xmlns="http://www.w3.org/2000/svg" viewBox="0 0 150 150"><defs><style>.cls-1{fill:#504f54;}.cls-2{fill:#313034;}.cls-3,.cls-4{fill:#fff;}.cls-3{fill-rule:evenodd;}</style></defs><title>hybrid</title><g id="INFO"><path class="cls-1" d="M5.79,77a70,70,0,0,0,69.88,70.28V6.72A70,70,0,0,0,5.79,77Z"/><path class="cls-2" d="M76.34,6.71h-.67V147.28h.67a70.29,70.29,0,1,0,0-140.57Z"/><path class="cls-3" d="M36.41,89.58h2.89l-2.16,1.76Z"/><path class="cls-3" d="M40.65,93.83,38.73,93,40.65,91Z"/><path class="cls-3" d="M44.29,93.1l-1.65.72V91.23Z"/><path class="cls-3" d="M43.9,89.58h2.93l-.83,2Z"/><circle class="cls-4" cx="41.63" cy="88.61" r="0.97"/><path class="cls-3" d="M107.78,89.58h2.89l-2.16,1.76Z"/><path class="cls-3" d="M112,93.83,110.1,93,112,91Z"/><path class="cls-3" d="M115.67,93.1l-1.65.72V91.23Z"/><path class="cls-4" d="M129.64,73.54a11.45,11.45,0,0,0-1.48-5.26l-6-10.61a5.84,5.84,0,0,0-4.78-2.95c-10.07-.5-41-1.79-50.68.82-6.58,1.77-23.17,12.68-23.17,12.68S25.26,71.06,21.78,79.39A4.24,4.24,0,0,0,20,82.52a13.83,13.83,0,0,0,.58,4.39A4.17,4.17,0,0,0,24,90l7.93,1.24a9.48,9.48,0,0,1-.36-2.53,9.56,9.56,0,0,1,19.12,0c0,.28,0,.55,0,.81A9.41,9.41,0,0,1,50,92.18l.93.05,52.65-1.42c-.07-.3-.12-.6-.16-.9a9.34,9.34,0,0,1-.08-1.2,9.56,9.56,0,0,1,19.12,0c0,.28,0,.55,0,.81s0,.35-.07.52l4.54-.93a3.91,3.91,0,0,0,3.13-4ZM99.34,56.69l1.21,12.08L82,69.52V56.63C87.42,56.5,93.61,56.56,99.34,56.69ZM52.49,70.39l-1.84.1a1.13,1.13,0,0,1-.73-2c1.08-.79,2.4-1.73,3.87-2.72v3.08A5.66,5.66,0,0,0,52.49,70.39ZM57,67.56c-.12,0-.21,0-.32,0V63.82a55.78,55.78,0,0,1,11.63-5.91,39.34,39.34,0,0,1,8.45-1.09V69.73l-16,.65A3.6,3.6,0,0,0,57,67.56Zm64.49-1.17A3.25,3.25,0,0,1,118.85,68l-13.12.54-1.18-11.73c5.42.16,10,.37,12.25.49a3,3,0,0,1,2.51,1.61l2.28,4.32A3.25,3.25,0,0,1,121.54,66.39Z"/><path class="cls-3" d="M41.6,97.17a8.56,8.56,0,1,1,0-17.12,8.56,8.56,0,1,1,0,17.12Zm0-2.39a6.17,6.17,0,0,0,6.18-6.13,6.19,6.19,0,0,0-12.38-.06A6.12,6.12,0,0,0,41.64,94.78Z"/><path class="cls-3" d="M40.64,83.41v2.95L38.85,84.2Z"/><path class="cls-3" d="M38.83,87.65h-2.4l.73-1.86Z"/><path class="cls-3" d="M44,87.63,46,85.8l.79,1.83Z"/><path class="cls-3" d="M42.65,83.45l2,.81-2,1.82Z"/><path class="cls-3" d="M113,97.17a8.56,8.56,0,1,1,0-17.12,8.56,8.56,0,1,1,0,17.12Zm0-2.39a6.17,6.17,0,0,0,6.18-6.13,6.19,6.19,0,0,0-12.38-.06A6.12,6.12,0,0,0,113,94.78Z"/><path class="cls-3" d="M112,83.41v2.95l-1.79-2.16Z"/><path class="cls-3" d="M110.21,87.65h-2.4l.73-1.86Z"/><path class="cls-3" d="M115.36,87.63l2.06-1.83.79,1.83Z"/><path class="cls-3" d="M114,83.45l2,.81-2,1.82Z"/><path class="cls-3" d="M115.28,89.58h2.93l-.83,2Z"/><circle class="cls-4" cx="113" cy="88.61" r="0.97"/></g></svg>