<svg xmlns="http://www.w3.org/2000/svg" viewBox="0 0 150 150"><defs><style>.cls-1{fill:#504f54;}.cls-2{fill:#313034;}.cls-3,.cls-4{fill:#fff;}.cls-3{fill-rule:evenodd;}</style></defs><title>luxury</title><g id="INFO"><path class="cls-1" d="M8.33,75a70,70,0,0,0,69.88,70.28V4.72A70,70,0,0,0,8.33,75Z"/><path class="cls-2" d="M78.88,4.71h-.67V145.28h.67a70.29,70.29,0,1,0,0-140.57Z"/><g id="CaoWLS"><path class="cls-3" d="M47.4,90.94C49,86,48,82,43.81,79a8.93,8.93,0,0,0-10.64-.26c-4.47,2.91-5.45,7.16-3.8,12.56-3.32-.3-6.4-.5-9.45-.89-1.57-.2-2.14-1.26-2.09-2.9a14.05,14.05,0,0,0-.55-4.07,5.65,5.65,0,0,1,2.3-5.88c6.84-4.22,14.46-5.83,22.3-6.7,3.14-.35,6.32-.28,9.45-.7a22.69,22.69,0,0,0,5.9-1.69c5.13-2.22,10.05-5,15.3-6.85,7.29-2.57,15-2.4,22.63-2a48.41,48.41,0,0,1,22.79,6.51c3.12,1.87,6.53,2.21,10,2.49,2.58.21,5.17.4,7.75.63,1.82.16,1.73.5,1.88,2.22a27.65,27.65,0,0,0,1.6,8c1.66,4-.4,9.41-4.6,10.46a36.27,36.27,0,0,1-10.73,1c1.54-5.13.53-9.46-4.14-12.33a9,9,0,0,0-10.5.37c-4.12,2.95-5.09,7.07-3.53,11.94ZM93.7,61.46a16.24,16.24,0,0,0-2.52,0l-1.69.19a1.7,1.7,0,0,0-1.22,1c-.57,2.15-1,4.34-1.49,6.5-.27,1.08.06,1.43,1.13,1.34,5-.42,9.92-.71,14.86-1.25a42.58,42.58,0,0,0,6.64-1.52,1.84,1.84,0,0,0,1.13-1.25,1.93,1.93,0,0,0-.9-1.43,10.47,10.47,0,0,0-3.11-1.35c-1.75-.36-3.51-.7-5.26-1L97.47,62A30.45,30.45,0,0,0,93.7,61.46Zm-8.2.43c-9.93-.33-18.05,4.15-26.59,8.53a7.75,7.75,0,0,0,1.21.26c7.19,0,14.39,0,21.58,0a2.28,2.28,0,0,0,1.6-1A16.7,16.7,0,0,0,85.51,61.89Z"/><path class="cls-3" d="M103.93,149.73l.91-.22.06.24-.93.15Z"/><path class="cls-3" d="M38.64,95.18a7.82,7.82,0,1,1,0-15.64,7.82,7.82,0,1,1,0,15.64Zm0-2.18A5.64,5.64,0,1,0,33,87.35,5.64,5.64,0,0,0,38.68,93Z"/><path class="cls-3" d="M37.77,82.62v2.69l-1.64-2Z"/><path class="cls-3" d="M33.9,88.25h2.64l-2,1.61Z"/><path class="cls-3" d="M37.77,92.13,36,91.4l1.75-1.9Z"/><path class="cls-3" d="M36.11,86.49h-2.2l.66-1.7Z"/><path class="cls-3" d="M41.1,91.47l-1.51.66V89.76Z"/><path class="cls-3" d="M40.83,86.47,42.7,84.8l.73,1.67Z"/><path class="cls-3" d="M39.6,82.65l1.79.74L39.6,85.05Z"/><path class="cls-3" d="M40.75,88.25h2.67l-.76,1.85Z"/><circle class="cls-4" cx="38.67" cy="87.36" r="0.89"/><path class="cls-3" d="M113.87,95.18a7.82,7.82,0,1,1,0-15.64,7.82,7.82,0,1,1,0,15.64Zm0-2.18a5.64,5.64,0,1,0-5.66-5.65A5.64,5.64,0,0,0,113.91,93Z"/><path class="cls-3" d="M113,82.62v2.69l-1.64-2Z"/><path class="cls-3" d="M109.13,88.25h2.64l-2,1.61Z"/><path class="cls-3" d="M113,92.13l-1.75-.73L113,89.5Z"/><path class="cls-3" d="M111.35,86.49h-2.2l.66-1.7Z"/><path class="cls-3" d="M116.33,91.47l-1.51.66V89.76Z"/><path class="cls-3" d="M116.06,86.47l1.88-1.67.73,1.67Z"/><path class="cls-3" d="M114.84,82.65l1.79.74-1.79,1.66Z"/><path class="cls-3" d="M116,88.25h2.67l-.76,1.85Z"/><circle class="cls-4" cx="113.9" cy="87.36" r="0.89"/></g></g></svg>