<svg xmlns="http://www.w3.org/2000/svg" viewBox="0 0 150 150"><defs><style>.cls-1{fill:#504f54;}.cls-2{fill:#313034;}.cls-3,.cls-4{fill:#fff;}.cls-4{fill-rule:evenodd;}</style></defs><title>minivan</title><g id="INFO"><path class="cls-1" d="M5.12,76.12A70,70,0,0,0,75,146.4V5.84A70,70,0,0,0,5.12,76.12Z"/><path class="cls-2" d="M75.67,5.83H75V146.4h.67a70.29,70.29,0,1,0,0-140.57Z"/><path class="cls-3" d="M16.71,87.39l7.75-.12c0-.2-.08-.39-.1-.59a11.77,11.77,0,0,1-.1-1.51,12,12,0,0,1,24,0c0,.35,0,.68,0,1s-.06.47-.1.71L104.21,86c0-.29,0-.58,0-.85A12,12,0,0,1,128,83.45,10.44,10.44,0,0,0,129.07,78c-.48-3.74-3.74-7.37-3.93-9.2s.61-3.32.13-5.91-5-11.13-9.53-14c-3.31-2.11-5.69-3.54-15.74-4.12-14.16-.81-23.87.11-32.4,2.71C62.53,49,45.17,58,39.91,60.94c-6.23,3.45-8.75,4-13.05,5.54a16.53,16.53,0,0,0-9.38,8.74A18,18,0,0,0,16.71,87.39ZM96.33,60.86,94.85,48.24c8.24.15,16.79.79,17.54,3.68.45,1.71-1.81,5.8-4.51,7C105.8,59.85,102.56,60.2,96.33,60.86ZM56.12,59l.94-2.75c11.15-6,16.83-8,30.65-8h2L88.08,61.66C73.59,62.95,56.48,64,56.48,64A4.84,4.84,0,0,0,56.12,59Z"/><path class="cls-4" d="M36.09,94.64a9.82,9.82,0,1,1,0-19.64,9.82,9.82,0,1,1,0,19.64Zm0-2.74A7.08,7.08,0,1,0,29,84.8,7.08,7.08,0,0,0,36.14,91.9Z"/><path class="cls-4" d="M35,78.86v3.38l-2.05-2.48Z"/><path class="cls-4" d="M30.13,85.93h3.31L31,88Z"/><path class="cls-4" d="M35,90.81l-2.2-.92L35,87.51Z"/><path class="cls-4" d="M32.91,83.72H30.15L31,81.58Z"/><path class="cls-4" d="M39.18,90l-1.9.83v-3Z"/><path class="cls-4" d="M38.83,83.7l2.36-2.1.91,2.1Z"/><path class="cls-4" d="M37.3,78.9l2.25.93L37.3,81.92Z"/><path class="cls-4" d="M38.74,85.94h3.36l-1,2.32Z"/><circle class="cls-3" cx="36.12" cy="84.82" r="1.11"/><path class="cls-4" d="M116.44,94.64a9.82,9.82,0,1,1,0-19.64,9.82,9.82,0,1,1,0,19.64Zm0-2.74a7.08,7.08,0,1,0-7.11-7.1A7.08,7.08,0,0,0,116.49,91.9Z"/><path class="cls-4" d="M115.35,78.86v3.38l-2.05-2.48Z"/><path class="cls-4" d="M110.48,85.93h3.31l-2.47,2Z"/><path class="cls-4" d="M115.35,90.81l-2.2-.92,2.2-2.38Z"/><path class="cls-4" d="M113.27,83.72h-2.76l.84-2.14Z"/><path class="cls-4" d="M119.53,90l-1.9.83v-3Z"/><path class="cls-4" d="M119.19,83.7l2.36-2.1.91,2.1Z"/><path class="cls-4" d="M117.65,78.9l2.25.93-2.25,2.09Z"/><path class="cls-4" d="M119.09,85.94h3.36l-1,2.32Z"/><circle class="cls-3" cx="116.48" cy="84.82" r="1.11"/></g></svg>