<svg xmlns="http://www.w3.org/2000/svg" viewBox="0 0 150 150"><defs><style>.cls-1{fill:#504f54;}.cls-2{fill:#313034;}.cls-3,.cls-4{fill:#fff;}.cls-4{fill-rule:evenodd;}</style></defs><title>muv</title><g id="INFO"><path class="cls-1" d="M5.85,75.62A70,70,0,0,0,75.73,145.9V5.34A70,70,0,0,0,5.85,75.62Z"/><path class="cls-2" d="M76.4,5.34h-.67V145.9h.67a70.29,70.29,0,1,0,0-140.57Z"/><path class="cls-3" d="M133.66,67.6a13,13,0,0,0-1.69-6l-6.83-12.06a6.65,6.65,0,0,0-5.44-3.35c-11.45-.57-46.57-2-57.63.94-7.48,2-26.35,14.42-26.35,14.42S15,64.77,11,74.24A4.82,4.82,0,0,0,9,77.8a15.75,15.75,0,0,0,.66,5,4.74,4.74,0,0,0,3.86,3.5l9,1.41a10.77,10.77,0,0,1-.41-2.88,10.87,10.87,0,0,1,21.75,0c0,.31,0,.62,0,.93a10.75,10.75,0,0,1-.71,3l1.06.06L104,87.22c-.08-.34-.14-.68-.18-1a10.63,10.63,0,0,1-.09-1.37,10.87,10.87,0,0,1,21.75,0c0,.31,0,.62,0,.93s-.05.4-.08.59l5.17-1.05a4.45,4.45,0,0,0,3.56-4.52ZM99.2,48.43l1.38,13.73L79.47,63V48.36C85.64,48.22,92.68,48.28,99.2,48.43ZM45.93,64l-2.09.12A1.28,1.28,0,0,1,43,61.81c1.23-.89,2.73-2,4.4-3.1v3.5A6.43,6.43,0,0,0,45.93,64Zm5.17-3.21c-.13,0-.24,0-.37,0V56.54A63.37,63.37,0,0,1,64,49.81a44.68,44.68,0,0,1,9.61-1.23V63.27L55.43,64A4.09,4.09,0,0,0,51.1,60.79Zm73.34-1.33a3.7,3.7,0,0,1-3.05,1.85l-14.92.61-1.34-13.33c6.17.19,11.32.42,13.93.56A3.44,3.44,0,0,1,121.92,51l2.59,4.91A3.7,3.7,0,0,1,124.44,59.46Z"/><path class="cls-4" d="M33,94.54a9.4,9.4,0,1,1,0-18.81,9.4,9.4,0,1,1,0,18.81Zm0-2.62a6.78,6.78,0,1,0-6.81-6.8A6.78,6.78,0,0,0,33.06,91.92Z"/><path class="cls-4" d="M32,79.43v3.24l-2-2.37Z"/><path class="cls-4" d="M27.3,86.2h3.17l-2.37,1.93Z"/><path class="cls-4" d="M32,90.87,29.85,90,32,87.71Z"/><path class="cls-4" d="M30,84.08H27.33l.8-2Z"/><path class="cls-4" d="M36,90.07l-1.82.79V88Z"/><path class="cls-4" d="M35.64,84.06l2.26-2,.87,2Z"/><path class="cls-4" d="M34.17,79.47l2.15.89-2.15,2Z"/><path class="cls-4" d="M35.54,86.21h3.21l-.91,2.22Z"/><circle class="cls-3" cx="33.04" cy="85.13" r="1.07"/><path class="cls-4" d="M114.82,94.54a9.4,9.4,0,1,1,0-18.81,9.4,9.4,0,1,1,0,18.81Zm0-2.62a6.78,6.78,0,1,0-6.81-6.8A6.78,6.78,0,0,0,114.87,91.92Z"/><path class="cls-4" d="M113.77,79.43v3.24l-2-2.37Z"/><path class="cls-4" d="M109.12,86.2h3.17l-2.37,1.93Z"/><path class="cls-4" d="M113.78,90.87,111.67,90l2.11-2.28Z"/><path class="cls-4" d="M111.78,84.08h-2.64l.8-2Z"/><path class="cls-4" d="M117.78,90.07l-1.82.79V88Z"/><path class="cls-4" d="M117.45,84.06l2.26-2,.87,2Z"/><path class="cls-4" d="M116,79.47l2.15.89-2.15,2Z"/><path class="cls-4" d="M117.36,86.21h3.21l-.91,2.22Z"/><circle class="cls-3" cx="114.86" cy="85.13" r="1.07"/></g></svg>