<svg xmlns="http://www.w3.org/2000/svg" viewBox="0 0 150 150"><defs><style>.cls-1{fill:#504f54;}.cls-2{fill:#313034;}.cls-3,.cls-4{fill:#fff;}.cls-4{fill-rule:evenodd;}</style></defs><title>pickup</title><g id="INFO"><path class="cls-1" d="M5.56,77.49a70,70,0,0,0,69.88,70.28V7.21A70,70,0,0,0,5.56,77.49Z"/><path class="cls-2" d="M76.11,7.21h-.67V147.77h.67a70.29,70.29,0,1,0,0-140.57Z"/><path class="cls-3" d="M140.33,77.08h-2.11l-.54-12.66A1.45,1.45,0,0,0,136.22,63l-29.1.27V52.8A1.77,1.77,0,0,0,105.35,51H104a1.77,1.77,0,0,0-1.77,1.77V63.35l-3.86,0-.78-9.3a3.75,3.75,0,0,0-3.74-3.44H58.48A4.78,4.78,0,0,0,55.17,52L43.3,63.36l-22.71,2.4a11.75,11.75,0,0,0-8,4.41l-2.34,3A4.92,4.92,0,0,0,8,78.37l.7,3.18a3.61,3.61,0,0,0,2.76,2.75L19.26,86c0-.44-.09-.86-.09-1.26a12.8,12.8,0,0,1,25.59,0c0,.37,0,.73-.05,1.09,0,.09,0,.18,0,.28H96.23a12.36,12.36,0,0,1-.09-1.36,12.8,12.8,0,0,1,25.59,0c0,.37,0,.73-.05,1.09,0,.09,0,.18,0,.28h6.5L134,82.85h6.31a1.74,1.74,0,0,0,1.74-1.74V78.82A1.74,1.74,0,0,0,140.33,77.08Zm-87.72-13a5.85,5.85,0,0,0,0-3.91l4.68-5.81a1.41,1.41,0,0,1,1.09-.53h14V64Zm25,0V53.82H90.31a1.4,1.4,0,0,1,1.41,1.35l.37,8.89Z"/><path class="cls-4" d="M32.25,94.93a10.39,10.39,0,1,1,.05-20.77,10.39,10.39,0,1,1-.05,20.77ZM32.3,92a7.49,7.49,0,0,0,7.51-7.44,7.52,7.52,0,0,0-15-.07A7.43,7.43,0,0,0,32.3,92Z"/><path class="cls-4" d="M31.09,78.24v3.58l-2.17-2.62Z"/><path class="cls-4" d="M25.95,85.72h3.51l-2.62,2.14Z"/><path class="cls-4" d="M31.09,90.88l-2.33-1,2.33-2.52Z"/><path class="cls-4" d="M28.89,83.38H26l.88-2.26Z"/><path class="cls-4" d="M35.52,90l-2,.88V87.73Z"/><path class="cls-4" d="M35.15,83.36l2.49-2.22,1,2.22Z"/><path class="cls-4" d="M33.53,78.28l2.38,1-2.38,2.21Z"/><path class="cls-4" d="M35,85.73H38.6l-1,2.45Z"/><circle class="cls-3" cx="32.28" cy="84.55" r="1.18"/><path class="cls-4" d="M109.26,94.93a10.39,10.39,0,1,1,.05-20.77,10.39,10.39,0,1,1-.05,20.77Zm.05-2.9a7.49,7.49,0,0,0,7.51-7.44,7.52,7.52,0,0,0-15-.07A7.43,7.43,0,0,0,109.31,92Z"/><path class="cls-4" d="M108.1,78.24v3.58l-2.17-2.62Z"/><path class="cls-4" d="M103,85.72h3.51l-2.62,2.14Z"/><path class="cls-4" d="M108.1,90.88l-2.33-1,2.33-2.52Z"/><path class="cls-4" d="M105.9,83.38H103l.88-2.26Z"/><path class="cls-4" d="M112.53,90l-2,.88V87.73Z"/><path class="cls-4" d="M112.16,83.36l2.49-2.22,1,2.22Z"/><path class="cls-4" d="M110.54,78.28l2.38,1-2.38,2.21Z"/><path class="cls-4" d="M112.06,85.73h3.55l-1,2.45Z"/><circle class="cls-3" cx="109.29" cy="84.55" r="1.18"/></g></svg>