<svg xmlns="http://www.w3.org/2000/svg" viewBox="0 0 150 150"><defs><style>.cls-1{fill:#504f54;}.cls-2{fill:#313034;}.cls-3{fill:#fff;}.cls-4{fill:#d1d2d3;}.cls-5{fill:none;}</style></defs><title>sedan </title><g id="INFO"><path class="cls-1" d="M4.55,77a70,70,0,0,0,69.88,70.28V6.72A70,70,0,0,0,4.55,77Z"/><path class="cls-2" d="M75.1,6.71h-.67V147.28h.67a70.29,70.29,0,1,0,0-140.57Z"/><path class="cls-3" d="M39.47,80.51a8.38,8.38,0,0,0-8.38,8.38,8.1,8.1,0,0,0,.07,1.05,8.37,8.37,0,0,0,16.65-.34c0-.23,0-.47,0-.71A8.38,8.38,0,0,0,39.47,80.51Zm-4.19,5.22L37,87.45a2.91,2.91,0,0,0-.3.74H34.27A5.18,5.18,0,0,1,35.27,85.74Zm-1,3.9h2.43a2.81,2.81,0,0,0,.3.73l-1.71,1.71A5.25,5.25,0,0,1,34.26,89.63Zm4.49,4.47a5.23,5.23,0,0,1-2.43-1L38,91.39a2.94,2.94,0,0,0,.73.3Zm0-8a2.9,2.9,0,0,0-.74.31L36.3,84.71a5.2,5.2,0,0,1,2.45-1Zm1.45-2.41a5.2,5.2,0,0,1,2.45,1l-1.71,1.71a2.88,2.88,0,0,0-.74-.31V83.7Zm0,10.4V91.68a2.85,2.85,0,0,0,.73-.3l1.7,1.71A5.23,5.23,0,0,1,40.19,94.1Zm3.47-2-1.72-1.72a2.79,2.79,0,0,0,.31-.72h2.41A5.23,5.23,0,0,1,43.66,92.08Zm-1.4-3.9a3,3,0,0,0-.3-.74l1.71-1.71a5.24,5.24,0,0,1,1,2.45H42.26Z"/><path class="cls-4" d="M109.05,80.51a8.38,8.38,0,0,0-8.38,8.38,8.12,8.12,0,0,0,.07,1.05,8.37,8.37,0,0,0,16.65-.34c0-.23,0-.47,0-.71A8.38,8.38,0,0,0,109.05,80.51Zm-4.19,5.22,1.71,1.71a2.89,2.89,0,0,0-.3.74h-2.41A5.21,5.21,0,0,1,104.86,85.74Zm-1,3.9h2.43a2.8,2.8,0,0,0,.3.73l-1.71,1.71A5.21,5.21,0,0,1,103.84,89.63Zm4.48,4.47a5.23,5.23,0,0,1-2.43-1l1.7-1.71a3,3,0,0,0,.73.3Zm0-8a2.9,2.9,0,0,0-.74.31l-1.71-1.71a5.2,5.2,0,0,1,2.45-1Zm1.45-2.41a5.19,5.19,0,0,1,2.45,1l-1.71,1.71a2.84,2.84,0,0,0-.74-.31Zm0,10.4V91.68a2.85,2.85,0,0,0,.73-.3l1.71,1.71A5.24,5.24,0,0,1,109.78,94.1Zm3.47-2-1.72-1.72a2.82,2.82,0,0,0,.31-.73h2.41A5.21,5.21,0,0,1,113.25,92.08Zm-1.4-3.9a2.86,2.86,0,0,0-.3-.74l1.71-1.71a5.22,5.22,0,0,1,1,2.45h-2.41Z"/><path class="cls-5" d="M61,70.87l14-.43V61.2c-4.9.81-11.26,2.54-15.35,6.25C59.65,67.45,61.31,68.07,61,70.87Z"/><path class="cls-5" d="M79.62,70.3,82,60.49a52.88,52.88,0,0,0-7,.71v9.24Z"/><path class="cls-5" d="M85.1,60.49,83.56,70l17-.57.86-3.08L98.9,62.31S93.88,60.37,85.1,60.49Z"/><path class="cls-5" d="M108.76,66.57c-1.69-.88-4.54-2.27-8.09-3.69l4.74,6.5h4.74A2.64,2.64,0,0,0,108.76,66.57Z"/><path class="cls-3" d="M61,70.87c.34-2.8-1.31-3.42-1.31-3.42C63.74,63.74,70.1,62,75,61.2v-2.8a46.69,46.69,0,0,0-8.23,2c-2.64.91-14.52,6.59-21.5,9.55-2.06,0-22.41,4.29-23.5,7.2a46.86,46.86,0,0,0-1.62,5.06,11.93,11.93,0,0,0,1.51,6.73c1.54.87,4.51,1.46,7.94,1.85,0-.21-.08-.42-.11-.63a9.68,9.68,0,0,1-.09-1.26,10.06,10.06,0,1,1,20.13,0c0,.29,0,.57,0,.85a9.8,9.8,0,0,1-.33,1.81h0L75,91V70.44Z"/><path class="cls-4" d="M129.17,76.18V70a2,2,0,0,0-1.71-2A82.65,82.65,0,0,1,119,66.33c-2.7-.83-13.13-5.25-16.74-6.08-3-.68-14.56-3.8-27.28-1.86v2.8a52.88,52.88,0,0,1,7-.71l-2.4,9.81L75,70.44V91l24.14-.49c0-.13-.05-.26-.07-.39A9.62,9.62,0,0,1,99,88.9a10.06,10.06,0,0,1,20.13,0s0,0,0,.06l.21,0,8.54-1.61s3.27-1.74,3.27-6.53A5.76,5.76,0,0,0,129.17,76.18Zm-28.61-6.73-17,.57,1.54-9.53c8.79-.11,13.8,1.83,13.8,1.83l2.51,4.05Zm9.58-.06H105.4l-4.74-6.5c3.55,1.41,6.4,2.81,8.09,3.69A2.64,2.64,0,0,1,110.14,69.39Z"/></g></svg>