<svg xmlns="http://www.w3.org/2000/svg" viewBox="0 0 150 150"><defs><style>.cls-1{fill:#504f54;}.cls-2{fill:#313034;}.cls-3,.cls-4{fill:#fff;}.cls-3{fill-rule:evenodd;}</style></defs><title>suv</title><g id="INFO"><path class="cls-1" d="M5.72,75.62A70,70,0,0,0,75.6,145.9V5.34A70,70,0,0,0,5.72,75.62Z"/><path class="cls-2" d="M76.27,5.34H75.6V145.9h.67a70.29,70.29,0,1,0,0-140.57Z"/><g id="kIUqZt.tif"><path class="cls-3" d="M98.09,89.89h-50c1.78-6.09.42-11.27-5.19-14.68a11,11,0,0,0-12.73.44c-5,3.53-6.24,8.48-4.42,14.38a15.8,15.8,0,0,1-6.52-1.33c-3.32-1.61-3.57-4.27-3.94-7.14-.42-3.28-.45-6.52,1.16-9.56a9.11,9.11,0,0,1,7.46-5c5.65-.69,11.28-1.49,16.93-2.23a14.63,14.63,0,0,0,2.62-.33,27.75,27.75,0,0,0,5.48-2.12c5-3,10-6.12,14.94-9.26a8.3,8.3,0,0,1,2-.72s1-.16,1.56-.23c15-1.72,30.06-1.53,45.11-.81,4.13.2,8.25.73,12.38,1.15a13.42,13.42,0,0,1,2.11.56l-.33.35a4.2,4.2,0,0,0,.54,1.3c3.76,4.07,6,8.76,6,14.4,0,1.19,0,2.39,0,3.58a8.07,8.07,0,0,0,1,4.63c1.39,2.4.69,5-.2,7.52s-3,3.17-5.24,3.54c-2.51.41-5,.69-7.74,1,1-4.64.1-8.55-3.07-11.76a12,12,0,0,0-18.26,1.57A12,12,0,0,0,98.09,89.89ZM128.18,64.3a17.3,17.3,0,0,0-5.2-8.77,3.89,3.89,0,0,0-2.19-1c-5.63-.39-11.27-.68-16.91-1a6.63,6.63,0,0,0-1.62.33,5.63,5.63,0,0,0,.49,1.68c1.81,2.66,3.67,5.29,5.59,7.87a2.31,2.31,0,0,0,1.61.79c4,.06,8,0,12,0Zm-69.05.75H77.44c0-3.26,0-6.42,0-9.59,0-1.2-.69-1.59-1.75-1.69-6.6-.6-12,2.14-16.57,5.93Zm23.24-.44c5,0,9.77.19,14.54-.08,2.31-.13,3.33-1.58,2.45-3.74-.63-1.55-1.31-3.08-1.93-4.63A3.3,3.3,0,0,0,94,54c-2.42,0-4.85,0-7.27,0-1.43,0-2.87.15-4.39.23V64.61Z"/><path class="cls-3" d="M109.41,97.19a11.24,11.24,0,1,1,0-22.48,11.24,11.24,0,1,1,0,22.48Zm-.06-3.13a8.1,8.1,0,1,0-8-8.13A8.13,8.13,0,0,0,109.35,94.05Z"/><path class="cls-3" d="M108.16,83l-2.35-2.85,2.35-1Z"/><path class="cls-3" d="M112.45,87.22h3.85l-1.09,2.62Z"/><path class="cls-3" d="M102.64,87.23h3.74l-2.76,2.49Z"/><path class="cls-3" d="M103.69,82l2.69,2.57h-3.72Z"/><path class="cls-3" d="M108.18,89.05v3.73l-2.58-1Z"/><path class="cls-3" d="M113.11,91.82l-2.33,1v-3.6Z"/><path class="cls-3" d="M112.59,84.63l2.65-2.45,1.06,2.45Z"/><path class="cls-3" d="M113.31,80.2l-2.5,2.46V79.2Z"/><path class="cls-3" d="M36.84,96.66a11.24,11.24,0,1,1,.06-22.49,11.24,11.24,0,1,1-.06,22.49Zm.06-3.14a8.11,8.11,0,1,0-8.15-8.13A8.11,8.11,0,0,0,36.9,93.52Z"/><path class="cls-3" d="M35.59,78.59v3.87l-2.35-2.84Z"/><path class="cls-3" d="M30,86.69h3.8L31,89Z"/><path class="cls-3" d="M35.59,92.26l-2.52-1,2.52-2.73Z"/><path class="cls-3" d="M33.21,84.15H30l1-2.45Z"/><path class="cls-3" d="M40.38,91.32l-2.17.95V88.86Z"/><path class="cls-3" d="M40,84.13l2.7-2.4,1,2.4Z"/><path class="cls-3" d="M38.23,78.64l2.57,1.07-2.57,2.39Z"/><path class="cls-3" d="M39.87,86.69h3.84l-1.09,2.65Z"/><circle class="cls-4" cx="36.88" cy="85.41" r="1.27"/><circle class="cls-4" cx="109.33" cy="85.41" r="1.27"/></g></g></svg>